<?xml version="1.0" encoding="utf-8"?>
<!-- Generator: Adobe Illustrator 21.0.1, SVG Export Plug-In . SVG Version: 6.00 Build 0)  -->
<svg version="1.1" id="Layer_1" xmlns="http://www.w3.org/2000/svg"  x="0px" y="0px"
	 width="144px" height="144px" viewBox="0 0 144 144" style="enable-background:new 0 0 144 144;" xml:space="preserve">
<style type="text/css">
	.st0{fill-rule:evenodd;clip-rule:evenodd;fill:#E6E6E6;}
	.st1{fill-rule:evenodd;clip-rule:evenodd;fill:#CCCCCC;}
</style>
<circle class="st0" cx="71.9" cy="72.3" r="72"/>
<g id="pic_x5F_placeholder_2_">
	<g id="pic_x5F_placeholder">
		<g>
			<path class="st1" d="M111.5,92.4l-21.7-37c-1.5-2.6-5.3-2.6-6.8,0L71.4,75.3c-1.8,3.2-6.5,3.2-8.3,0l-3.8-6.5
				c-1.3-2.2-4.4-2.2-5.7,0L39.2,93.3c-1.3,2.2,0.3,4.8,2.8,4.8h22.7h6.1h37.2C111.1,98.2,113,95,111.5,92.4z M65.3,57.2
				c3.7,0,6.8-3,6.8-6.7c0-3.7-3-6.7-6.8-6.7s-6.8,3-6.8,6.7C58.5,54.2,61.6,57.2,65.3,57.2z"/>
		</g>
	</g>
</g>
</svg>
