<?xml version="1.0" encoding="utf-8"?>
<!-- Generator: Adobe Illustrator 19.2.0, SVG Export Plug-In . SVG Version: 6.00 Build 0)  -->
<svg xmlns:xlink="http://www.w3.org/1999/xlink" version="1.1" id="Layer_1" xmlns="http://www.w3.org/2000/svg" x="0px" y="0px"
	 viewBox="0 0 565 120" style="enable-background:new 0 0 565 120;" xml:space="preserve" preserveAspectRatio="xMinYMid">
<style type="text/css">
	.st0{clip-path:url(#SVGID_2_);fill:#7A5F8A;}
	.st1{clip-path:url(#SVGID_2_);fill:#CF6734;}
	.st2{clip-path:url(#SVGID_2_);fill:#327DAC;}
	.st3{clip-path:url(#SVGID_2_);fill:#7C4E39;}
	.st4{clip-path:url(#SVGID_2_);fill:#059D60;}
	.st5{clip-path:url(#SVGID_2_);}
	.st6{fill:#00844B;}
	.st7{clip-path:url(#SVGID_2_);fill:#9B8080;}
	.st8{clip-path:url(#SVGID_2_);fill:#D0A080;}
	.st9{clip-path:url(#SVGID_2_);fill:#EB8080;}
	.st10{clip-path:url(#SVGID_2_);fill:#C36766;}
	.st11{clip-path:url(#SVGID_2_);fill:#314E51;}
	.st12{clip-path:url(#SVGID_2_);fill:#213238;}
	.st13{clip-path:url(#SVGID_2_);fill:#7A5FA1;}
	.st14{clip-path:url(#SVGID_2_);fill:#7F4B34;}
	.st15{fill:#7F4B34;}
	.st16{clip-path:url(#SVGID_2_);fill:#F1D86E;}
	.st17{clip-path:url(#SVGID_2_);fill:#B09F97;}
	.st18{clip-path:url(#SVGID_2_);fill:#E5BC9F;}
	.st19{fill:#EFC8AE;}
	.st20{clip-path:url(#SVGID_2_);fill:#D25141;}
	.st21{clip-path:url(#SVGID_2_);fill:#B8463B;}
	.st22{clip-path:url(#SVGID_2_);fill:#B47A4F;}
	.st23{clip-path:url(#SVGID_2_);fill:#352E2C;}
	.st24{clip-path:url(#SVGID_2_);fill:#C6845E;}
	.st25{clip-path:url(#SVGID_2_);fill:#984E52;}
	.st26{clip-path:url(#SVGID_2_);fill:#FFFFFF;}
	.st27{clip-path:url(#SVGID_2_);fill:#EFC8AE;}
	.st28{clip-path:url(#SVGID_2_);fill:#D6A889;}
	.st29{fill:#352E2C;}
	.st30{clip-path:url(#SVGID_2_);fill:#1D1A19;}
	.st31{clip-path:url(#SVGID_2_);fill:#D0B447;}
	.st32{fill:#D0B447;}
	.st33{clip-path:url(#SVGID_2_);fill:#85563B;}
	.st34{clip-path:url(#SVGID_2_);fill:#E16F70;}
	.st35{fill:#673D29;}
	.st36{fill:#AD806C;}
	.st37{fill:#BD8E72;}
	.st38{fill:#C36766;}
	.st39{clip-path:url(#SVGID_2_);fill:#E3B08D;}
	.st40{clip-path:url(#SVGID_2_);fill:#DFA794;}
	.st41{clip-path:url(#SVGID_2_);fill:#E07B3D;}
	.st42{clip-path:url(#SVGID_2_);fill:#ECBCA9;}
	.st43{fill:#DFA794;}
	.st44{clip-path:url(#SVGID_2_);fill:#00844B;}
	.st45{clip-path:url(#SVGID_2_);fill:#D0A180;}
	.st46{clip-path:url(#SVGID_2_);fill:#E3B08F;}
	.st47{clip-path:url(#SVGID_2_);fill:#BF8E73;}
	.st48{clip-path:url(#SVGID_2_);fill:#E5B68C;}
	.st49{clip-path:url(#SVGID_2_);fill:#266E92;}
	.st50{clip-path:url(#SVGID_2_);fill:#DAD8CF;}
	.st51{clip-path:url(#SVGID_2_);fill:#6E5899;}
	.st52{clip-path:url(#SVGID_2_);fill:#634E8E;}
	.st53{fill:#D0A080;}
	.st54{clip-path:url(#SVGID_2_);fill:none;stroke:#2B2B2B;stroke-width:0.25;stroke-miterlimit:10;}
	.st55{fill:#E5B68C;}
	.st56{fill:#F1D86E;}
	.st57{fill:#CF6734;}
	.st58{opacity:0.5;clip-path:url(#SVGID_2_);fill:#AB582B;}
	.st59{fill:#B09F97;}
</style>
<g>
	<g>
		<defs>
			<rect id="SVGID_1_" x="-0.6" y="-1.5" width="565" height="121.4"/>
		</defs>
		<clipPath id="SVGID_2_">
			<use xlink:href="#SVGID_1_"  style="overflow:visible;"/>
		</clipPath>
		<polygon class="st0" points="60.7,43.2 54.1,44.8 54.6,46.1 61.4,44.5 		"/>
		<rect x="77.7" y="67.4" class="st1" width="42.1" height="27"/>
		<path class="st2" d="M536.1,91.5c6.4,1.3,12,1.8,13.1,12.1c1.1,10.3,1,33.2,1,33.2l-46.8,0.9l-4-30.9l-1.1-12.8
			c0,0,0.9-6.7,12.2-5.6l8.3,2.3L536.1,91.5z"/>
		<path class="st3" d="M64,22.6c-3.7,8.6-6.3,11.6-11.5,16.8c-5.3,5.2-4.8,0.2-4.8-0.8c0-0.9-1.5-5.1,0-7.8c1.5-2.6,3.7-5.5,5.4-5.9
			c1.6-0.3,10.1-1.7,10.1-1.7L64,22.6z"/>
		<path class="st4" d="M43.4,82.6c0,0,17.4,6.7,18.2,7.7c0.7,1.1,6.4,27.4,6.3,27.8c0,0.3,3.8,25.3,3.8,25.3H5.8c0,0-2-39.7,0-44.7
			c2-5,20.2-13.5,20.2-13.5L43.4,82.6z"/>
		<g class="st5">
			<path class="st6" d="M38.8,94.4c0.4,9.8,2.3,49,2.3,49h1c0,0-2.4-45.3-2.9-54L38.8,94.4z"/>
			<g>
				<path class="st6" d="M54,99.6c0,0,4.2,29.6,5.2,45.9h-1c0,0-1.5-17.4-2.5-27C54.6,108.9,54,99.6,54,99.6z"/>
				<path class="st6" d="M15.4,101.6c0,0-0.5,31.3-0.9,41.8h1.7c0,0,0.1-14.9,0-23.2C16.2,112,15.4,101.6,15.4,101.6z"/>
			</g>
		</g>
		<path class="st7" d="M135.4,50.3c-1.1-8.6-1.1-15-0.4-20.8c0.7-5.8,3-9.8,2.5-11.4c-0.5-1.6-2.4-2.8-2.3-3.5
			c0.1-0.7,3.5-0.4,3.8-1.1c0.2-0.7-3.1-1.9-2.2-2.6c0.9-0.7,7.2,0.9,10.4,0.6c3.2-0.3,10.5-1.6,19.3,2c8.8,3.7,12.3,14.3,14.1,20.9
			c1.8,6.6,1.3,15.5,1.3,15.5s-5,6.9-7.4,6.9c-2.4,0-1.1-7-2.4-11.1c-1.3-4.1-9.2-6.6-9.8-6.6c-0.6,0-9.4-0.9-12.3,1.5
			c-2.9,2.3-5.3,6.3-5.1,10.4c0.2,4.1,0.3,7.9-0.3,8.6C143.8,60.3,135.4,50.3,135.4,50.3z"/>
		<path class="st8" d="M139.3,51.6c-2.7-2.5-4.2-2.9-6.3-1.7c-2.1,1.2-0.6,7.6,1.2,10.8c1.8,3.1,3.8,2.5,5.7,0
			C141.9,58,139.3,51.6,139.3,51.6z"/>
		<path class="st8" d="M177.5,50.4c2.4-3.2,4.8-4.2,6.2-3.2c1.3,1,1.6,6.4,0.5,9.4c-1.1,3-2.7,3.6-4.9,2.6
			C177,58.3,177.5,50.4,177.5,50.4z"/>
		<path class="st9" d="M146.6,85.3c2.5-0.5,7.7-0.7,7.7-0.7l23.8-0.3l0.3,3.8c0,0-0.9,14.8-0.8,14.9c0.1,0.2-0.1,14.4-0.7,18.8
			c-0.6,4.4-2.3,15.3-2.3,15.3h-23.7l-3-11.9l-5.4-34.1L146.6,85.3z"/>
		<path class="st10" d="M163.1,92.1c0.3,7.2,1,18.8,1.2,29.4c0.1,10.6,0.3,15.7,0.3,15.7h0.8c0,0,0.3-6.6,0-16.6
			c-0.3-10-1.4-30.4-1.4-30.4L163.1,92.1z"/>
		<path class="st11" d="M144.6,85.6c-4.1,1-17.2,2.6-19.9,3.4v11c0,0,11.4,0.6,12.8,2.2c1.4,1.6,7.9,35,7.9,35h11.3l0.6-1.4
			l-4.1-16.2l-3-11.1l-2-7.3l-1.6-7.4L144.6,85.6z"/>
		<path class="st12" d="M146.6,85.3c0.4,4.5,1.4,14.4,5,24.3c3.6,9.9,7.3,27.2,7.3,27.2l-2.2,0.5c0,0-2.8-14.8-5.1-21
			c-2.3-6.2-3.9-10.4-5-16.5c-1.1-6.1-2-14.1-2-14.1L146.6,85.3z"/>
		<path class="st13" d="M74.8,116.1c-0.1,0.4-1.9,29.8-1.9,29.8l-7.9,0.6l1.1-37.6L74.8,116.1z"/>
		<path class="st11" d="M237.9,86.3c-1-0.7-11.5-1.8-22.7-2.1c-11.2-0.3-37.2,0-37.2,0s-1.3,7.1-1.6,15.8
			c-0.3,8.7-0.1,14.2-1.3,23.4c-1.2,9.2-1.6,13.7-1.6,13.7l11.8,0.3c0,0-0.7-18.4,0-26.1c0.7-7.7,4-10.8,4-10.8l8.4-6.5l34,0.4
			L237.9,86.3z"/>
		<path class="st12" d="M176.5,100c-0.3,8.7-0.1,14.2-1.3,23.4c-1.2,9.2-1.6,13.7-1.6,13.7l1.8,0c1.1-5.4,2.7-15.7,2.7-24.8
			c0-9.3,1.1-20.9,1.9-28.2c-1.2,0-1.9,0-1.9,0S176.7,91.3,176.5,100z"/>
		<path class="st14" d="M239.8,49.4c3-2.6,5.6-1.5,6.5,2.3c0.9,3.7-1.9,8.8-4.2,9.5c-2.3,0.7-3.3-2-3.3-2L239.8,49.4z"/>
		<path class="st14" d="M196.9,49.9c-2.3-2.4-4.6-1.8-6.1,0.2c-2.3,2.8,0.1,16.1,8,12.2L196.9,49.9z"/>
		<g class="st5">
			<g>
				<polygon class="st15" points="237.3,113.4 237.3,139.3 246.1,139.3 246.1,114.6 				"/>
			</g>
		</g>
		<path class="st16" d="M231.1,88.9c3.1,0.3,12.4,1.3,14.7,4.2c2.3,2.9,2,15.1,2,17.5l-11.5,0.2l-1.7,30.2h-35.2l-2-31.4h-12
			c0,0,1.4-14.8,4-17.3c2.5-2.5,12.4-2.2,12.4-2.2l4.3-0.5L231.1,88.9z"/>
		<path class="st17" d="M396.3,41.1c-0.4-4.1-0.6-11,0.7-16.7c1.3-5.7,3.8-10.6,9.7-15.4c5.9-4.8,11.1-6.3,19.8-5.9
			c8.7,0.4,13.5,7.3,16.1,14.1c2.5,6.9,2.7,13.2,2.5,17.7c-0.1,4.6-0.1,6.3-0.6,9.2l-4.9-2.1c0,0-1.7-10.4-4.3-11.6
			c-7.2-3.2-21.5,0.2-28.2,0c-2.2-0.1-3.5,10.4-3.6,10.4C403.2,40.9,396.3,41.1,396.3,41.1z"/>
		<path class="st18" d="M415.2,69.1c0,7.8,0.8,13.5,0,14.6c-0.8,1.1-4.3,0.4-8,2c-3.7,1.6-2.5,8.9,2.2,12.9
			c4.6,4,21.1,10.5,23.1,8.9c2-1.7,6.2-3.8,7.7-8.9c1.5-5.1,0-11.9,0-11.9l-3.4-2c0,0-5.6-0.4-6.2-1.4c-0.7-1-0.5-13.3-0.5-13.3
			L415.2,69.1z"/>
		<g class="st5">
			<path class="st19" d="M398.5,110.7c0,0-1.8,19.2-2.2,26.4h-9.2c0,0,0.4-17.5,3.6-28.7L398.5,110.7z"/>
			<path class="st19" d="M453.8,111.2c0,0,2.1,15.7,3.7,26H449c0,0-2.8-18.2-3.7-23.4L453.8,111.2z"/>
		</g>
		<path class="st20" d="M436.7,84.7c0,0,11.9,0.8,13.8,3.7c2.2,3.3,5,25.1,5,25.1l-11.4,1.9l-2.2-9.2l0.8,29.3h-41l-0.6-30l-1.8,8
			l-11-2.8c0,0,2.9-19.2,9.9-23.1c5.7-3.1,12.5-3,12.5-3s1.1,15.1,12.1,15.3C434,100.3,436.7,84.7,436.7,84.7z"/>
		<path class="st21" d="M422.9,100.1c-11.1-0.2-12.1-15.3-12.1-15.3s-0.8,0-2.1,0.1c1.1,7,4.1,16.9,15.4,16.9
			c9.6,0,13.3-11.2,14-16.8c-0.8-0.1-1.3-0.1-1.3-0.1S434,100.3,422.9,100.1z"/>
		<path class="st22" d="M363.4,79.8c0.3,4.9,0.3,8,1.2,8.9c0.9,1,13.5-1.2,19.1,4.8c5.6,5.9,6.9,31.2,7.6,46.4h-71.6
			c0,0-3.6-41.3,12.1-49.4c3.8-1.9,14.9-2.4,15.9-3c1-0.6,1.5-8.4,1.5-8.4L363.4,79.8z"/>
		<path class="st9" d="M378.1,139.9c-0.3-1.8-0.5-3.6-0.3-5.3c0.4-5.3,4.3-15.9,4.2-19c-0.1-3.1-4.5-14.1-6.2-16.6l-1-9.3
			c-1.5-0.2-2.9-0.3-4.2-0.4c0.4,3,1,8.9,0.8,9.7c-0.3,1.1-14.9,8.9-16.1,9.1c-1.2,0.2-18.8-7.5-19.5-8.6c-0.5-0.9,0.4-7.4,0.9-10.3
			c-1.3,0.2-2.6,0.5-3.6,0.9c-0.8,5.3-0.8,10.1-0.8,10.1l-0.9,1.7l-1.2,3.1l-0.3,16l-1.7,18.9H378.1z"/>
		<path class="st23" d="M349.2,81.6c-0.3,4.2-0.9,10-1.8,14c0,0-0.1-2.7,0-4.8c0,0-2.6,6.7-4.8,15.8c-2.2,9.1-4.1,27-4,36.9
			l-14.8-0.4c0,0-4.3-21.4,3.1-37.4c0,0-0.9,0.2-2.7,1.7c0,0,5.5-9,11.6-15c6.2-6.1,7.4-10,8.8-15.4L349.2,81.6z"/>
		<path class="st22" d="M333.7,59c-3.1-0.4-5.2,1.1-4.8,4.1c0.4,3,5,6.3,6.4,3.4C336.6,63.7,333.7,59,333.7,59z"/>
		<path class="st22" d="M377.7,58.2c2.3-0.9,5.6,0.1,5.5,3.4c-0.1,3.2-3.5,7.6-6.4,5.3L377.7,58.2z"/>
		<path class="st24" d="M379.1,44.1c0.6,14.7,0,24.8-7.5,33.1c-7.5,8.4-17.6,9.6-26.5,2.6c-8.9-7.1-14-13.8-13.7-29.6
			c0.3-15.9,4-14.9,6.6-16.6c2.6-1.7,18.4-4.2,20.4-4.2c2,0,13.7,5.9,14.1,6.3C373,36.2,379.1,44.1,379.1,44.1z"/>
		<path class="st23" d="M357.2,37c13.7,0,21.2,9.5,21.2,21.1c0,1.6-0.3,6.3-0.3,6.3s8.6-8.5,7.2-23.1c-1.4-14.6-19.7-22.2-28.9-22.2
			c-14.1,0-24.3,9.3-27.2,23.7c-2.1,10.2,4.1,21.7,4.1,21.7s-0.2-5.2-0.1-6.9C333.3,49.6,334.6,37,357.2,37z"/>
		<path class="st23" d="M348.6,59.8c-0.1-0.7-1.3-1.9-2.4-2.1c-1.2-0.2-3.3-0.2-3.6,0.3c-0.3,0.4,1.7,2,3,2.2
			C346.8,60.5,348.6,60.2,348.6,59.8z"/>
		<path class="st23" d="M362.3,60.4c0.1-0.7,1.3-1.9,2.5-2.1c1.2-0.2,3.4-0.2,3.6,0.3c0.3,0.4-1.8,2-3.1,2.2
			C364.1,61,362.3,60.7,362.3,60.4z"/>
		<path class="st22" d="M355.8,57.8c0.4,0.2-0.7,3.6-1.4,5.7c-0.7,2-0.2,3,0.3,3.4c0.5,0.3,3.9,0.3,4,0.8c0.1,0.5-3,1.2-4.6,0.8
			c-1.6-0.4-2.4-2-1.7-4.2C353.1,62.1,355.2,57.5,355.8,57.8z"/>
		<path class="st25" d="M355.4,70.7c4.4,0.1,7.2,0.3,7.4,1c0.3,0.7-2.5,6.8-7.4,6.4c-5-0.4-7.6-5.9-7.1-6.9
			C348.9,70.2,352.8,70.7,355.4,70.7z"/>
		<path class="st23" d="M360.2,74.8c-3.7,0.6-6.9,0.4-9.5-0.2c1.1,1.1,2.8,2.1,4.9,2.4C357.3,77.2,359,76,360.2,74.8z"/>
		<path class="st26" d="M350.7,74.6c2.6,0.6,5.8,0.8,9.5,0.2c1.1-1.2,1.8-2.4,1.6-2.5c-0.3-0.3-2.5,0.3-6.3,0.2
			c-3.8-0.1-5.9-0.8-6.3-0.5C349,72.2,349.5,73.4,350.7,74.6z"/>
		<path class="st23" d="M350.1,53.4c0.5,0.7,0,1.9-1.4,1.6c-1.4-0.3-2.1-1.6-4.4-1.2c-2.3,0.4-3.8,1.1-4.2,1.2c-0.4,0.1,1-1.6,4-2.4
			C347.2,51.9,349.4,52.5,350.1,53.4z"/>
		<path class="st18" d="M398.3,40.5c-3.3-1.7-5.3,1.4-5.5,5.2c-0.2,3.7,2.6,9.3,7,6.8L398.3,40.5z"/>
		<path class="st18" d="M441.5,41.3c3.1-1.9,6,0,5.5,6.2c-0.4,5.4-3.3,6.7-5.5,5.3C439.3,51.5,441.5,41.3,441.5,41.3z"/>
		<path class="st23" d="M361.4,53.6c-0.5,0.7,0,1.9,1.4,1.6c1.4-0.3,2.1-1.6,4.4-1.2c2.3,0.4,3.8,1.1,4.2,1.2c0.4,0.1-1-1.6-4-2.4
			C364.3,52.2,362.1,52.8,361.4,53.6z"/>
		<path class="st27" d="M423,78.4c6.3,0.2,19.3-9.2,19.8-28.8c0.5-19.6,0.4-29.4-5.1-36c-5.5-6.6-17.6-7.2-21-7.2
			c-3.5,0-14.5,5.5-17.2,18.3c-2.7,12.8-3.1,23.1,1.3,33.1C405.2,67.7,413.2,78,423,78.4z"/>
		<path class="st23" d="M416.2,64c0.6,2.9,3.5,5.2,6.5,5.2c2.8,0,5.4-2.6,6-5.5C425,65.7,420.4,65.6,416.2,64z"/>
		<path class="st26" d="M428.8,63.7c0.3-1.3,0.3-2.2,0.1-2.3c-0.6-0.1-3,0.6-5.9,0.9c-2.9,0.3-6.1-1.5-6.6-0.8
			c-0.3,0.6-0.4,1.5-0.2,2.4C420.4,65.6,425,65.7,428.8,63.7z"/>
		<path class="st28" d="M420,42.8c0.6,0.5,0.2,3.4,0.2,8c0,2.8-0.1,4.9,0.7,5.2c0.8,0.2,3-0.7,4-0.2c1,0.6-3.4,3.3-5.4,1.7
			c-1.5-1.2-1.1-4.4-0.9-8.4C418.8,44.9,419.4,42.3,420,42.8z"/>
		<g class="st5">
			<path class="st29" d="M427.5,45.3c-0.2-0.9,1-2.2,2.8-2.3c1.9-0.2,3,1.4,1.8,2.5C430.9,46.5,427.9,46.9,427.5,45.3z"/>
			<path class="st29" d="M413.2,45.3c0.2-0.9-1-2.2-2.8-2.3c-1.9-0.2-3,1.4-1.8,2.5C409.8,46.5,412.8,46.9,413.2,45.3z"/>
		</g>
		<path class="st17" d="M397.4,40.1c0,0,1.4,9.6,2.7,9.5c1.4-0.2,0.5-8.8,0.6-17.5c0.2-8.7,2.9-14.9,6.1-18.2c3.1-3.3,5-3.3,5.7-2.8
			c0.7,0.5-0.3,1.3,0.4,1.7c0.7,0.4,1.5-0.9,2-0.4c0.5,0.4-0.8,2.3,0,3.3c0.8,1.1,2.4,0.1,4-1c1.6-1.1,3-2.6,3.5-2.4
			c0.6,0.2-0.1,1.4-0.9,2.5c-0.8,1.1-1,4.2,2.7,2.6c3.7-1.6,4.5-3.7,5.8-4.2c1.2-0.4,3.6-0.5,5.5,1.5c1.9,2,2.9,4,3.7,4.1
			c0,0,1.3,3.8,1.4,9.7c0.1,5.9-0.2,18.9,1.2,19.4c1.4,0.5,2.2-4,2-8.9c-0.1-4.9-0.1-9.3-0.8-14.1c-0.7-4.7-2-7.6-4.2-11
			c-2.2-3.4-4.3-4.5-7.2-5.9C428.7,7,421,4.8,414.9,5.9c-6.1,1.1-6.3,3.1-8.8,5.6c-2.5,2.6-5.5,5.9-7.1,10.8
			c-1.6,4.9-1.9,8.6-2.1,12C396.8,37.8,397.4,40.1,397.4,40.1z"/>
		<path class="st14" d="M224.2,75.8c-0.2,6.1,0.5,11.5,0.5,11.5s-6.7,3.7-7,3.6c-0.3-0.1-7.4-4-7.4-4s0.3-7.4,0-11H224.2z"/>
		<path class="st30" d="M216.4,93.1c0,0-0.3,13.6-1.1,21c-0.7,7.3-0.9,16.7-0.9,16.7l6.3,8.6l3.4-8.5c0,0-0.8-10-2-19.5
			c-1.1-9.5-2-18.3-2-18.3H216.4z"/>
		<path class="st23" d="M217.5,87.7c0,0,1.8,0.4,3.4,1.7c1.5,1.3,1.9,2.1,1.9,2.1l-4.2,4.5l-5.3-4.8
			C213.3,91.1,215.3,88.4,217.5,87.7z"/>
		<path class="st31" d="M224.3,83.4c-1.9,2-6.8,4.2-6.8,4.2s-5.7-2.5-7.2-5.1c0,0-4.9,1.4-8.5,7.6c0,0,4.1,2.9,8.5,4.9
			c0,0,4.9-4.9,7.2-7c0,0,1.8,1.1,4,2.8c2.2,1.7,4,3.6,4,3.6s4-2.6,5.5-5.5c0,0-1.1-1.5-3.1-3.2C226,83.9,224.3,83.4,224.3,83.4z"/>
		<polygon class="st14" points="195.5,112.4 196.7,140 187.2,140 187,113 		"/>
		<g class="st5">
			<g>
				<polygon class="st32" points="236,115.3 236.3,107.5 248.5,107.5 249,116.2 				"/>
				<polygon class="st32" points="197.7,114.6 197.2,105.1 185,105.5 184,114.2 				"/>
			</g>
		</g>
		<path class="st33" d="M217.3,79c7.7-0.3,22.4-1.7,24.2-30.6l-1.1-15.3l-20.9-9.4l-23,13.4c0,0-1.2,8.9,0.2,20.1
			C197.9,68.4,201.9,79.7,217.3,79z"/>
		<path class="st10" d="M211.9,67.5c-0.2,0.5,0.1,2.4,2.4,3.6c2.3,1.2,6.1,0.2,7.8-0.8c1.7-1,1.9-2.4,1.5-2.9
			c-0.5-0.5-4.5,1.2-7.1,0.8C213.8,67.9,211.9,67.5,211.9,67.5z"/>
		<path class="st34" d="M211.6,67c0.3-0.6,2.2,0.8,5.9,0.5c3.7-0.3,6.4-0.9,6.7-0.6c0.3,0.3-2.1,3.1-7,2.9
			C212.4,69.5,211.3,67.5,211.6,67z"/>
		<path class="st14" d="M217.9,54.9c0.7,0.5-1.1,2.6-2.1,4.6c-0.9,1.7-0.7,2.4,0.3,2.8c1.5,0.6,5.4,0.3,5.4,1.1c0,0.7-4.8,1.3-7.2,0
			c-2.4-1.3-0.7-3.5,0.2-5C215.5,56.8,217.2,54.4,217.9,54.9z"/>
		<g class="st5">
			<path class="st29" d="M208.8,53.2c1.1-0.3,1.9,0.6,1.9,2.1c0,1.7-1.3,2-2.1,1.1C207.7,55.5,207.8,53.5,208.8,53.2z"/>
			<path class="st29" d="M228.4,52.8c-1.1-0.3-1.9,0.6-1.9,2.1c0,1.7,1.3,2,2.1,1.1C229.5,55.1,229.4,53.1,228.4,52.8z"/>
		</g>
		<g class="st5">
			<path class="st35" d="M212.6,49.8c0.9-1-1-2.8-4-2.8c-3,0-5.2,1.7-4.8,2.6c0.4,0.8,2.2-0.3,4.2-0.3
				C209.8,49.4,211.5,51,212.6,49.8z"/>
			<path class="st35" d="M224.4,49.4c-0.3-1.3,2.3-2.4,4.8-2c2.4,0.4,4,2.6,3.5,3.3c-0.7,1-2.4-0.6-4.2-0.9
				C226.7,49.5,224.7,50.5,224.4,49.4z"/>
		</g>
		<path class="st23" d="M218.5,34.6c8.2-0.1,17.8,1.6,19.4,3.6c0.9,1,0.1,12,0.5,12.8c0.4,0.8,3,1.2,3.3,0.3
			c0.3-0.9,1.6-8.3,1.1-16.3c-0.5-8-6.6-17.4-23-17.8c-16.4-0.4-22.5,6.5-24.7,14.1c-2.2,7.6-1.8,20.6-0.8,22.4
			c0.9,1.8,3.7,1.2,3.9-0.1c0.2-1.3-0.9-12,0.4-13.9C199.9,37.8,207.2,34.8,218.5,34.6z"/>
		<path class="st8" d="M238.9,86c2.1,0.6,4.1,3.6,4.1,6.3c0,2.7-0.9,4.6-1.7,4.7c-0.7,0.1-0.8-0.5-0.8-0.5s0,2.4-1,2.7
			c-1,0.3-1.1-1.3-1.1-1.3s-0.6,2.4-1.8,2.6c-1.2,0.2-0.6-2.3-0.6-2.3s-1.2,1.4-2.2,1.2c-1-0.2,0.8-3.6,0.2-6.7
			c-0.3-1.7-0.9-1.4-2-1.1c-1.1,0.3-3.2,1-3.9,0.3c-0.8-0.7,1.7-3.5,2.7-4.3C232.1,86.6,235.1,84.8,238.9,86z"/>
		<g class="st5">
			<g>
				<path class="st36" d="M236,98.3l-0.1,0.1C236,98.3,236,98.3,236,98.3z"/>
				<path class="st37" d="M237.1,91.5c-0.4,0.1,0.2,2,0.2,2.9c0,0.8,0.2,1.6-1.3,3.9c0,0-0.2,0.8-0.2,1.5c1.8-2,2.1-3.5,2.1-4.8
					C237.9,93.1,237.5,91.3,237.1,91.5z"/>
			</g>
			<path class="st37" d="M238.9,99.1c0.4-1.5,1-4.1,1-5.4c0-1.4-0.6-3.1-1-2.9c-0.3,0.2,0.4,2.4,0.4,2.9c0,0.5-0.2,1.6-1,4.2
				C238.4,97.9,238.4,98.8,238.9,99.1z"/>
			<path class="st37" d="M240.6,96.6c0,0.1,0.2,0.3,0.5,0.4c0.2-1.2,0.2-2.9,0.3-3.9c0.2-1.6-1.1-3.5-1.3-3.5s0.9,2.2,0.8,3.5
				C240.9,93.4,240.6,95.2,240.6,96.6L240.6,96.6z"/>
		</g>
		<path class="st10" d="M162,81.2c-5.8-0.3-9.6,2-10.6,3.5c-1,1.5-1.6,7.6-1.6,7.6s3.1-3,6.6-4.9l12.8,0.1c0,0,2.9,1.6,4.9,4.8
			c0,0,1.5-5.9,1.3-8.1C175.4,84.2,168.9,81.5,162,81.2z"/>
		<path class="st8" d="M163.1,92.1c0,0,4-2.8,6.2-4.5c0,0,0-0.1,0-0.1c-0.4-2.6-0.7-8.9-0.7-12.3h-14.1c0.8,3.9,1.9,9.2,2.1,12.2
			C158.2,88.5,161.5,90.6,163.1,92.1z"/>
		<g class="st5">
			<g>
				<path class="st38" d="M161.4,93.3c1-0.1,1,2.3,0,2.3C160.5,95.6,160.1,93.4,161.4,93.3z"/>
				<path class="st38" d="M161.6,103.2c1-0.1,1,2.3,0,2.3C160.6,105.4,160.3,103.3,161.6,103.2z"/>
				<path class="st38" d="M162.3,114.7c1-0.1,1,2.3,0,2.3C161.3,117,160.9,114.8,162.3,114.7z"/>
			</g>
		</g>
		<path class="st39" d="M163.2,78.3c7.9-1.8,16.4-4.6,17.2-7.5c0.8-2.9-1.2-20.4-2.8-30.9S172,23.6,162.2,22
			c-9.8-1.6-20.6-2.5-22.5,1.1c-1.9,3.6-2.9,22.4-1.6,33c1.3,10.6,1.9,14.4,3.1,16.6C142,74.3,153.5,80.5,163.2,78.3z"/>
		<path class="st26" d="M167.4,64.9c0.5-1,0.5-1.8,0.3-2c-0.3-0.2-2.8,1-5.7,1.5c-3.3,0.5-7.1,0.4-7.2,0.9c-0.1,0.4,0.6,1,1.7,1.5
			C158.8,66.4,163.6,65.8,167.4,64.9z"/>
		<path class="st23" d="M156.4,66.8c1.7,0.8,4.3,1.4,6.7,1.1c2.3-0.3,3.6-1.7,4.2-3C163.6,65.8,158.8,66.4,156.4,66.8z"/>
		<path class="st8" d="M159.6,52.2c0.8,0.3-0.5,5.3,0.2,6.4c0.8,1.1,5.5-0.3,5.9,0.2c0.4,0.5-5.8,2.7-7.9,1.2
			C156.9,59.3,158.6,51.9,159.6,52.2z"/>
		<path class="st23" d="M171.1,51.3c0.3,1.4-3.4,2.6-4,0.7C166.6,50.5,170.7,49.6,171.1,51.3z"/>
		<path class="st23" d="M149.2,52.3c-0.1,1.4,3.7,2.1,4,0.1C153.4,50.9,149.3,50.5,149.2,52.3z"/>
		<path class="st7" d="M137.6,49.4c0,0,2.1,7.1,3.1,7.4c1,0.3,1.3-1.9,1.1-11.6c-0.2-9.7,0.1-19.5,0.1-19.5s10.7,5.3,27.3,4.3
			c1.1-0.1,4,4.5,5.5,11.2c1.5,6.7,2.8,12.9,4,13c0.8,0.1,0.1-6.2,0.1-6.2s0.9-6.1-0.4-11.9c-1.3-5.8-3.4-11.9-6.7-13.7
			c-3.4-1.8-20.4-5.5-22.4-5.2c-2,0.4-10.7,2.7-11.2,4.8c-0.5,2.1-1.3,12.9-1.3,16.4C136.8,42.2,137.6,49.4,137.6,49.4z"/>
		<path class="st13" d="M76.7,97.3c0.9-0.2,36.4,0.1,36.4,0.1s4.2,18.2,4.2,18.7s-3.7,27.2-4.3,32.2c-0.6,5-35.6-0.7-35.6-0.7
			s-2.3-22-2.8-30.7C74.1,108.3,76.7,97.3,76.7,97.3z"/>
		<path class="st40" d="M103.3,78.6c-0.2,3.1,0,7,0.8,8.1c0.8,1.1,6.5,2.6,8.6,5.2c2.1,2.5-3.5,12.2-16.5,11.2
			c-11.5-0.9-17.4-8.4-18.5-12.3l5.4-2c0,0,7.7-0.9,8.2-1.8c0.5-1,0.7-7.8,0.7-7.8L103.3,78.6z"/>
		<path class="st41" d="M88.1,73.1c0,11.1-0.7,28.3-3.1,37.8c-1.2,4.6-1.2,2.5-0.9-2.5c0.2-5.1-0.4-4.5-3.6,2.5
			c-3.2,7-7.4,15.6-14.6,22.5c-7.2,6.8-11.9,9.4-8.1-4.5c3.8-13.9,3.6-14.9,4.8-30.1c1.2-15.1-0.2-21,1.9-32.8
			c2.1-11.8,5-25,10.4-32.7c5.5-7.7,17.6-11.1,21.8-9.1c0,0,13.5-2.1,21.7,5.6c4.2,3.9,7.2,7.9,8.5,11.4c1.2,3.5,3.1,18.5,3.1,18.5
			s4.6,3.5,5.1,12.4c0.5,8.9-2.7,15.4-3.3,15.1c-0.6-0.3,0.6-9.5-1.8-14.6c0,0-2.5,12,0.6,25.9c3.1,13.9,7.6,25.5,7.7,26.8
			c0.1,1.3-1.4-0.2-2.8-5.6c0,0,1,9.1,2,12.7c1,3.6,1.6,5.7,1.3,6.4c-0.3,0.7-3-5.3-4.1-10.5c0,0,0.1,4.7-0.7,13.3
			c-0.8,8.5-1.2,11.9-1.6,16.9l-5.4-1.7c0,0-10.3-13.5-13.9-27.1c-3.6-13.6-3.5-9.8-3.3-5.1c0.2,4.8-2.7-4.1-2.2-10.7
			c0.5-6.6-0.6-8.8-1.4-4c-0.8,4.8-2.4,0.3,0-13.6c2.4-14,3.1-15.7,3.6-22.5c0.5-6.8-5.4-7.4-5.4-7.4l-6.1-18.1l-11.1,2.8l-4.8,8
			L88.1,73.1z"/>
		<path class="st1" d="M129.8,73.4c0.1-0.6,0.2-1,0.2-1l-1.8-6.5c0,0-5.3-6.8-5.6-6.8c-0.3,0-6-1.1-6-1.1l-1.8,0.8l1.2,5.5
			C120.6,65.6,127.2,68.3,129.8,73.4z"/>
		<path class="st42" d="M98.2,83.3c4.3,0.1,17-7.7,18.8-11.4c1.8-3.7,1.7-19,1.8-24.8c0.1-5.8-16.6-18.1-20.6-18.6
			c-4-0.6-18.7,13.5-20,16.8c-1.3,3.3,0.5,20.6,1.3,23.4C80.3,71.5,91.6,83.2,98.2,83.3z"/>
		<g class="st5">
			<path class="st29" d="M90.8,59.1c1.5-0.4,2.5,0.8,2.2,2.1c-0.3,1.3-2.1,1.4-3,0.8C89.2,61.3,89.6,59.5,90.8,59.1z"/>
			<path class="st29" d="M107,59.1c1.5-0.4,2.5,0.8,2.2,2.1c-0.3,1.3-2.1,1.4-3,0.8C105.3,61.3,105.7,59.5,107,59.1z"/>
		</g>
		<g class="st5">
			<path class="st43" d="M94.1,55.2c0.3-0.4-0.9-1.5-3.6-1.3c-2.7,0.3-3.8,0.8-3.7,0.9c0.1,0.1,2.5-0.2,4.2-0.1
				C92.7,54.7,93.9,55.6,94.1,55.2z"/>
			<path class="st43" d="M105.3,55.3c-0.2-0.5,1.7-1.4,3.5-1.4c1.8-0.1,3.9,0.7,3.9,0.9c0,0.3-1.4-0.3-3.8-0.1
				C107.1,54.9,105.6,56,105.3,55.3z"/>
		</g>
		<path class="st41" d="M75.8,53c0,0,15-4.3,20.4-18.2c0,0,2.1,13.7,12.6,21.1c10.5,7.3,17.4,5.5,21.2,16.5l-1.8-12.6
			c0,0-5.2-11.4-5.3-11.9c-0.1-0.5-7.4-14-7.7-14c-0.3,0-11.4-7.3-11.4-7.3l-18.8,3l-6.5,9.8l-2.7,8.4V53z"/>
		<path class="st40" d="M99.1,63.2c0.6,0.2-1.1,3-0.7,3.6c0.3,0.6,3.3-0.1,3.6,0.5c0.3,0.6-4.1,1.5-4.9,0.2
			C96.3,66.3,98.5,63.1,99.1,63.2z"/>
		<path class="st34" d="M103.8,72.2c0,0-1.1,2.5-4.6,2.4c-3.5-0.1-4-2.4-4-2.4s1.9,0.3,2.8,0.5c0.9,0.2,2.7,0,2.8,0
			C101,72.8,103.8,72.2,103.8,72.2z"/>
		<path class="st9" d="M99.1,73.7c2.7,0,4.7-1.2,4.8-1.6c0.2-0.4-2.5-0.5-4.8,0.3c0,0-1.9-0.9-3.9-0.5C94.8,71.9,96,73.7,99.1,73.7z
			"/>
		<path class="st44" d="M26.7,81.8c0,0-4.2,2.4-6.4,6.3c0,0,7.8,3.6,11.9,9.1c0,0,1-6.7,4.4-9.6L26.7,81.8z"/>
		<g class="st5">
			<path class="st6" d="M37.3,90.4c0.6,0.9-0.3,1.7-1,1.7c-0.8,0-1-1.1-0.5-1.7C36.2,89.8,37,89.9,37.3,90.4z"/>
			<path class="st6" d="M37.3,98.9c0.6,0.9-0.3,1.7-1,1.7c-0.8,0-1-1.1-0.5-1.7C36.2,98.3,37,98.5,37.3,98.9z"/>
			<path class="st6" d="M37.3,108.2c0.6,0.9-0.3,1.7-1,1.7c-0.8,0-1-1.1-0.5-1.7C36.2,107.6,37,107.7,37.3,108.2z"/>
			<path class="st6" d="M37.8,117c0.6,0.9-0.3,1.7-1,1.7c-0.8,0-1-1.1-0.5-1.7C36.7,116.4,37.5,116.5,37.8,117z"/>
		</g>
		<path class="st45" d="M26.7,81.8c0,0,3.8,5.7,11.5,5.9c0,0,0.2,4,0.6,6.8c0,0,0.8-4.9,1.1-6.6c0,0,1.8-0.8,2.9-3
			c-0.8-3.3-1.7-7.7-2.1-11l-14.9-1C26.4,75.9,26.6,79,26.7,81.8L26.7,81.8z"/>
		<path class="st44" d="M40,87.8c0,0,2.9,1.2,4.6,7.9c0,0,5.7-4.6,4.2-11l-6.6-3.3C42.1,81.4,42.6,84.9,40,87.8z"/>
		<path class="st46" d="M23.6,74.6c1.5,1.6,11.9,5.1,20.1,4.3c8.2-0.8,15-5.2,15.5-6.5c0.6-1.3-3.6-26-5.1-43.5l-30.5,1.5L20.2,33
			c0,0-1.2,12.4,0,23.3C21.4,67.2,21.5,72.3,23.6,74.6z"/>
		<path class="st3" d="M19.1,54c0.8-1.5,1.7-2.8,2.7-3c1-0.2,1.8,3.4,2.3,5c0.5,1.6,2.5,0.4,1.1-7.4c-1.5-7.8-0.4-10.1,1.5-10.8
			c1.9-0.7,22.9-2.4,31.7-7.2c8.8-4.8,8.7-11.9,6.5-18.8c-2.2-6.9-13.2-8.5-25.4-5.2C27.2,9.9,19.7,19.4,19.7,19.4s-6-0.6-7.7,5
			c-1.2,3.8,0.2,11.8,2.2,18.4c2,6.6,4.2,13.3,4.2,13.3L19.1,54z"/>
		<path class="st45" d="M47.9,50.1c0.5-0.5,3,4.8,3,5.9c-0.1,1.2-2.3,2.2-3,2c-0.7-0.3,1.6-1.5,1.7-2.2C49.8,55,47.4,50.6,47.9,50.1
			z"/>
		<path class="st47" d="M43.7,63.7c0.4-0.8,2.7,0.9,5.2,0.7c3-0.3,4.4-2,4.7-1.2c0.3,0.6-1.8,3.1-4.7,3.1
			C46.6,66.3,43.2,64.7,43.7,63.7z"/>
		<path class="st7" d="M171.1,48.3c-0.7,0.4-3.8,0.4-4.5,0.2c-0.7-0.2-0.5-1.6-0.4-1.9c0.1-0.3,3.9-0.9,4.3-0.4
			C171,46.6,171.4,48.1,171.1,48.3z"/>
		<path class="st7" d="M152.9,49.1c-0.6,0.2-4.4,0.3-4.8-0.2c-0.4-0.5,0.2-2.1,0.4-2.3c0.2-0.2,4-0.1,4.4,0.3
			C153.2,47.5,153.2,49,152.9,49.1z"/>
		<path class="st45" d="M39.5,47c0.5-0.1,0.6-2-0.2-2.3c-0.8-0.3-5.1,0.6-6,1.4C32.4,46.9,35.4,47.6,39.5,47z"/>
		<path class="st45" d="M50.7,44.2c-0.5,0.1-1.3-1.6-0.6-2.2c0.6-0.6,4.8-1.3,5.9-0.9C57.1,41.5,54.7,43.3,50.7,44.2z"/>
		<path class="st0" d="M61.7,43c-0.7-1.1-3.8-2.6-7.5-1.5c-3.7,1.1-5.6,2.5-6.1,4.3c0,0,0,0,0,0c-0.8-0.1-2-0.1-3.3,0.8
			c-0.8-1.1-3.8-2.1-7.6-1.1c-3.6,1-5.5,2.3-6.2,4c-2.4,0.4-12.1,2.1-12.6,2.5c-0.5,0.5-0.9,3.3-0.9,3.3l0.8-0.2
			c0,0,0.7-2.3,1.1-2.4c0.3-0.1,9-1.7,11.5-2.2c0.5,2.7,3.8,8.9,9.4,7.5c5.3-1.4,5.2-7.4,4.8-10.3c0.6-0.4,1.9-1,3.1-0.8
			c0.8,2.9,3.9,8.5,9.3,7.1C63.4,52.6,62.4,44.1,61.7,43z M39.9,56.8c-5.1,1.2-7.7-4.4-7.5-6.4c0.2-1.8,2.4-2.7,5-3.4
			c2.6-0.7,5.6-0.4,6.2,0.7C44.2,48.7,44.9,55.7,39.9,56.8z M57,52.9c-4.9,1.1-7.7-4.4-7.3-6.3c0.5-1.9,2.4-3,4.9-3.7
			c2.5-0.7,5.4,0.3,6,1.3C61.2,45.2,61.7,51.8,57,52.9z"/>
		<path class="st8" d="M531.9,76.4c-1.1,4.9-1.9,15.3-1.9,15.3l-9.5,3.7l-4.8-6.2c0,0,1.2-8,1.6-14.9L531.9,76.4z"/>
		<path class="st48" d="M523.3,80.6c5.6,1.3,20.2-3.6,25.7-13c5.6-9.4,2.1-21.8,1.1-28.4c-1-6.5-7.7-13.5-11.3-14.3
			c-3.6-0.8-17.5-1.6-19.6-1.2c-2.2,0.4-9.4,3.1-9.7,3.3c-0.3,0.2-3.5,3.3-3.5,4.5c0,1.2-4.1,11.6-4.7,18.9
			C500.8,57.7,504.9,76.5,523.3,80.6z"/>
		<path class="st47" d="M516.8,67.9c0.4-0.6,3.1,1.5,6.9,1.7c3.8,0.1,6.3-1.6,6.8-0.9c0.5,0.7-3.4,2.9-7.3,2.8
			C519.3,71.3,516.2,68.6,516.8,67.9z"/>
		<path class="st8" d="M523,55.7c0.5,0.2-1.3,6-0.8,7.3c0.5,1.3,4.3,0.4,4.9,1c0.6,0.7-5.8,2.2-6.9-0.3
			C519,61.2,522.1,55.3,523,55.7z"/>
		<path class="st23" d="M548.4,55.5c0.6,0.4,0.8-4.1,1.7-4.9c0.9-0.7,1.5,2.4,1.5,2.4l1.3,0.7c0,0,1.2-7.1-0.4-13.6
			c-1.6-6.5-3.6-10.3-1.6-6.7c2,3.6,4.4,7.4,2.9,3.1c-1.5-4.4-2.4-11.7-10.5-15.9c-8.1-4.1-17.2-5.5-25.3-3.3
			c-8.1,2.2-13.8,8.7-15.7,18.6c-1.9,9.9-2.3,13-2.3,13.2c0.1,0.2,2.3,2.3,2.3,2.3s3.3-4.6,4.9-10.7c1.5-6.1,2.5-10.6,2.5-10.6
			s8.1,5,16.6,5.2c8.5,0.2,14.3-2.1,14.3-2.1S544.2,52.8,548.4,55.5z"/>
		<path class="st49" d="M512.9,94.5c2.1,2.2,6.7,6,15.3,3.2l-2.7-2.3c0,0-2.3,1.1-5,0.6c-2.6-0.5-5.8-3.1-6.1-3.2
			C514.3,92.7,512.9,94.5,512.9,94.5z"/>
		<path class="st50" d="M514.5,94.1c3.5,2.7,6.4,3.6,11.5,2.3c5.1-1.3-0.9-2.5-1.1-2.7c-0.2-0.2-3.6-1.3-3.6-1.3H520l-3.7,0.6
			L514.5,94.1z"/>
		<path class="st26" d="M516.3,84.3c0,0,2.2,5.2,4.9,7.7c0,0,7.1-1.8,9.2-5.5c0,0,3.2,1.8,5.6,5.1c0,0-5.5,4.6-8.2,9.7
			c0,0-3.7-5.6-6.7-8.5c0,0-4.4,2-9.4,6.7c0,0-1.4-4.9-1.3-10.9C510.5,88.6,512.4,86.9,516.3,84.3z"/>
		<path class="st49" d="M539.2,105.5c0.2,3.5,1.6,32.8,2.2,38.7c0.5,5.9-1.1,1-1.1,1s-2.1-10.6-2.3-23
			C537.7,109.7,538.8,100.6,539.2,105.5z"/>
		<path class="st51" d="M490.4,95.7c1.9-0.7,2.8-0.7,2.8-0.7s7.3-1.3,9.6,8.4c2.9,12.4,3.6,33.9,3.6,33.9h-52.8
			c0,0-0.1-10.6,0.9-22.6c0.9-10.6,2.7-16.7,12.4-18.7c9.7-2,23.4-0.1,23.4-0.1L490.4,95.7z"/>
		<path class="st52" d="M463.6,109.4c1.1-0.7-0.2,25.6,0,29.9c0.2,4.3-1.2,0-1.2,0s0-6,0-14.7C462.4,116,462.8,109.9,463.6,109.4z"
			/>
		<path class="st52" d="M493.3,108.2c1.3-0.9,2.1,10.9,2.6,18.4c0.4,7.5,0.7,12.3,0.7,12.3l-1.6-0.5c0,0-0.4-6.8-0.9-13.8
			C493.5,117.6,492.7,108.7,493.3,108.2z"/>
		<path class="st8" d="M486,85.2c-0.1,5.4,0.3,9.4,0.7,9.9c0.4,0.4,5.7-0.1,6.5,0c0.7,0.1-2.9,7.8-13.5,7.1
			c-10.5-0.7-12.4-5.1-12.8-6c-0.4-0.9,6-1,6.3-1.5c0.3-0.5,0-8.1-0.2-10.2C472.8,82.5,486,85.2,486,85.2z"/>
		<path class="st48" d="M460.9,99.6c0.2,2.8,3.2,4.6,2.7,5.6c-0.2,0.3-0.9,0.3-0.9,0.3c0.3,0.4,0.5,1.1,0.1,1.5
			c-0.3,0.3-1.4-0.2-1.4-0.2s0.5,1.1,0.1,1.3c-0.5,0.2-1.5-0.4-1.5-0.4s0,0.7-0.5,0.7c-0.7,0.1-2.8-1-4-2.4c-0.3-0.4-2.3-4.6,2.6-11
			L460.9,99.6z"/>
		<g class="st5">
			<path class="st53" d="M457.4,105.7c-0.2-0.5-0.5-1.7-0.7-2.4c0-0.2-0.3-0.6-0.3,0.4c0,1,0.5,2.1,0.7,2.4c0.2,0.3,1.3,1.5,2.6,2.3
				c0.1-0.2,0.1-0.4,0.1-0.4C458.7,107.2,457.6,106.1,457.4,105.7z"/>
			<path class="st53" d="M461.3,106.8c-1.1-0.9-2.1-1.6-2.4-2.1c-0.2-0.4-0.5-2.2-0.8-2.2c-0.3,0,0.3,1.9,0.5,2.4
				c0.1,0.4,1.8,1.6,2.9,2.4C461.4,107.1,461.3,106.8,461.3,106.8z"/>
			<path class="st53" d="M462.6,105.5c-1.7-1.1-1.9-1.4-2-1.7c-0.1-0.3-0.6-1.7-0.8-1.7c-0.3,0,0.2,1.3,0.6,1.9
				c0.3,0.5,1.3,1.2,2.6,2C462.8,105.8,462.7,105.6,462.6,105.5z"/>
		</g>
		<path class="st23" d="M486.4,38c0.3,0.1,12.5-1.9,18.8,12.2c6.4,14.1,4.3,22.9,2.8,30.6c-1.5,7.7-3.6,11.3-5.5,19.4
			c-2,8.1-5.8,19-10.8,23.4c0,0,0.1-5.1,2-12.7c0,0-1.7,3.5-2.8,5.6c0,0,0-7.2-1.2-13.1c0,0-0.3,4.5-0.9,6.9c0,0,0.6-14.1-2.3-26.9
			l-13.8-1.2c0,0-0.9,6.8-0.8,14.7c0.1,7.9,1.2,13.5,4.7,19.6c0,0-4.3-2.5-7.8-9.4c0,0,1.6,4.4,2.8,6.9c0,0-14.6-5.3-17.9-27.5
			c-2.4-16.3-2.7-25.7,5.2-37.8C465.8,38.1,472.6,31.6,486.4,38z"/>
		<path class="st54" d="M501.3,65.4c1.7-0.1,3.6,0.9,3.9,4c0.3,3.2-2,4.7-3.5,4.9C500.2,74.4,501.3,65.4,501.3,65.4z"/>
		<path class="st54" d="M465.8,56.4c-2.3-0.9-4-0.5-5.5,2.7c-1.3,2.7,1.5,5,1.9,5.3C462.5,64.7,465.8,56.4,465.8,56.4z"/>
		<path class="st48" d="M480.1,88.5c7.5,0.5,19.4-6.8,21.1-10.1c1.8-3.3,1.3-13.4,0-19.4c-1.3-6-10.9-9.8-16.4-13.3
			c-5.6-3.4-10.1-1.8-12.3-1.1c-2.2,0.7-8.2,11.5-10.8,18.8c-2.6,7.3-1.5,10.3,1.5,13.6C466.2,80.3,473.4,88,480.1,88.5z"/>
		<path class="st8" d="M479.9,67.2c0.6,0.4-2.1,4.2-2,5.3c0.2,1.1,3.8,2.4,3.7,2.9c-0.1,0.6-5.1-1.4-5.1-3
			C476.4,70.9,479.3,66.9,479.9,67.2z"/>
		<g class="st5">
			<path class="st53" d="M487.5,62.9c0.3-0.3,2.7-0.8,3.7-0.6c1,0.3,2.6,2.2,2.3,2.5c-0.2,0.3-1.8-1.7-2.8-1.8
				c-0.4,0-2.6,0.5-3.5,0.8C487,63.9,487.2,63.2,487.5,62.9z"/>
			<path class="st53" d="M475.5,59.2c-0.1-0.3-1.8-1.5-2.4-1.7c-0.6-0.2-3.4,0.3-3.6,0.6c-0.2,0.3,2.9,0.1,3.3,0.2
				c0.5,0.1,2,1.9,2.2,1.9C475.4,60.3,475.6,59.4,475.5,59.2z"/>
		</g>
		<path class="st34" d="M483.3,79.9c-0.7,0.8-2.3,1.8-4.8,1c-2.3-0.7-3-2.1-3-2.6c0,0,1.1,0.4,1.8,0.6c0.6,0.3,3.3,1,3.3,1
			C480.7,80,483.3,79.9,483.3,79.9z"/>
		<path class="st9" d="M478.6,80.3c2.2,0.6,4.8-0.1,5-0.3c0.1-0.2-2.5-1-4.6-0.7c0,0-0.3-0.5-1.4-0.9c-1.1-0.4-2.3-0.2-2.3-0.2
			S476.8,79.7,478.6,80.3z"/>
		<path class="st23" d="M482.8,48.6c0,0-10.3,4.4-18.7,4.1c0,0,4.4-12.1,15.3-11.7c10.9,0.4,12.7,4,13.1,4.6
			c0.4,0.6,11.7,11.8,11.7,11.8v4.3C504.1,61.7,493.1,62.1,482.8,48.6z"/>
		<path class="st23" d="M52,47c1.2-0.3,2.2,0.7,1.9,1.8c-0.3,1.1-1.8,1.2-2.5,0.7C50.6,48.9,50.9,47.3,52,47z"/>
		<path class="st23" d="M38.2,50.2c1.2-0.3,2.2,0.7,1.9,1.8c-0.3,1.1-1.8,1.2-2.5,0.7C36.8,52,37.1,50.4,38.2,50.2z"/>
		<g class="st5">
			<path class="st29" d="M513.5,52.8c2.5,0.4,3.4,2.1,3.3,2.3c-0.1,0.2-0.9-0.6-3.6-1.1c-2-0.4-3.8-1.6-3.4-2
				C510,51.7,511.4,52.5,513.5,52.8z"/>
			<path class="st29" d="M534.7,54.7c2.5,0,3.4-0.4,3.7,0.1c0.1,0.2-0.8,1-3.4,1.1c-2.6,0.1-4.6,0.7-4.7,0.5
				C530.1,56.2,532,54.7,534.7,54.7z"/>
		</g>
		<g class="st5">
			<path class="st29" d="M472.5,63.4c2.2,1,2.6,2.8,2.4,3c-0.1,0.1-0.6-0.8-3-1.9c-1.7-0.8-3.1-2.5-2.6-2.7
				C469.7,61.5,470.7,62.6,472.5,63.4z"/>
			<path class="st29" d="M489.5,68c2.3,0.5,3.2,0.4,3.3,0.8c0.1,0.2-1,0.8-3.4,0.4c-2.4-0.4-4.3-0.3-4.4-0.5
				C485,68.5,487.1,67.4,489.5,68z"/>
		</g>
		<path class="st8" d="M550.6,51.3c2.1,0.2,5.1,0.5,5.1,5.8c-0.1,5.3-2.5,6.9-6.5,7L550.6,51.3z"/>
		<path class="st45" d="M22.1,52.8c-2.2-0.8-4.5,0-5,3.3c-0.5,3.3,0.7,6.4,2.5,7.1c2,0.9,3.2-0.3,3.5-0.9L22.1,52.8z"/>
		<path class="st8" d="M294.5,77c0,7.2,0.1,12.3,1.1,19.4c0.9,7-12.4,8-20.4,2.1c-0.1-0.1-0.3-0.2-0.4-0.3c0,0,2.6-10.3,2.2-19.4
			L294.5,77z"/>
		<path class="st8" d="M296.1,92.7c0,0-2.7,4.5-10.9,4.1c-8.2-0.4-11.7-5.6-11.7-5.6s-0.8,13,0.6,14.2c1.4,1.2,8.6,9.2,12,9.1
			c3.5-0.1,9.2-4.9,9.5-5.4c0.3-0.5,4.7-10,4.6-10.3C300.1,98.6,296.1,92.7,296.1,92.7z"/>
		<path class="st41" d="M276.6,96.8c0,0,1.7-0.9,2.5-0.6c0.8,0.3,2.7,3.3,3.4,6.4c0.8,3.2,1.8,7.4,1.8,7.4s2.6-8.6,8.2-13.8l2.9-1.1
			l7.3-3.4c0,0,15.4,5.6,17.9,8.6c2.4,3,4.8,21.4,4.5,24c-0.3,2.6-15.2,3.1-15.2,3.1s-0.9,22.2-1,29.4l-45.7-0.9c0,0-2.4-30-3.3-41
			v10.1c0,0-9.4,1.1-15.6-0.8c0,0,3.8-24.9,5-26.9c1.3-2,19.4-6.6,19.4-6.6l2.3,0.4L276.6,96.8z"/>
		<g class="st5">
			<g>
				<g>
					<path class="st56" d="M322.3,104.9l-35.4-0.9c-0.4,0.8-0.8,1.6-1.1,2.4l36.9,0.4C322.6,106.1,322.4,105.5,322.3,104.9z"/>
					<path class="st56" d="M247.2,105.9l36.2,0.4c-0.2-0.8-0.4-1.6-0.6-2.4l-35-0.9C247.6,103.9,247.4,104.9,247.2,105.9z"/>
				</g>
				<g>
					<path class="st56" d="M309,94.3L298.1,94l-2.7,1.2l-2.4,0.9l21.6,0.7C312.8,95.9,310.8,95.1,309,94.3z"/>
					<path class="st56" d="M254.8,94.8l20.5,0.7l-2.4-2.4l-11.5-0.4C259.2,93.4,256.9,94.1,254.8,94.8z"/>
				</g>
				<path class="st56" d="M245.2,118l14.6,2.2v-2.3c0,0-9.4-1.5-14.2-2.2C245.4,116.5,245.3,117.3,245.2,118z"/>
				<path class="st56" d="M260.1,118.6H310v-2.1h-50.1C259.9,117.1,260,117.8,260.1,118.6z"/>
			</g>
		</g>
		<path class="st23" d="M306,22.1c-1.6-0.9-7.3-8-17-8.6c-9.7-0.6-23,2.6-29.1,17.8c-2.7,6.6,0,21.4,0.8,28.5l3.2-3.2l2.1-15.6
			l23.3-10.3l7.9-4.8l8.8,3.8l4,23.8v2l2,4.1C312,59.8,321.3,30.5,306,22.1z"/>
		<path class="st8" d="M310.6,56.8c0,0,3.2,0.6,3.5,4c0.3,2.9-0.8,8-6.5,8.6L310.6,56.8z"/>
		<path class="st8" d="M262.7,56.8c0,0-4.2,0.7-4.2,4.9c0,4,2.4,8.2,6.7,8.3L262.7,56.8z"/>
		<path class="st48" d="M261.6,49.3c0.1,9.5,1.3,17.1,4.9,23.1c3.6,5.9,7.8,12.7,19.3,13c11.5,0.3,20.1-8.2,24.3-22
			c4.1-13.8,2.3-20.6,2.3-20.6s-4.6-12.9-6.5-15c-1.9-2.1-15.4-8.3-22.2-5.4c-6.8,3-18.3,13.6-18.3,13.6L261.6,49.3z"/>
		<path class="st23" d="M265.8,52.8c0,0,0,6.5-2.2,7c-1.2,0.3-1.6-2.8-1.6-2.8s-1.3-5.4-1.3-5.9c-0.1-0.5,0.7-10.9,0.7-10.9
			s3-8.3,4.2-9.5c1.3-1.1,4.2-4.8,6.5-5.6c2.3-0.8,7.4-3.2,9.1-3.9c1.7-0.6,11.1-1.8,12.1-1.7c1,0.1,6.5,1.7,6.5,1.7
			s7.4,5.7,7.9,6.1c0.5,0.4,2.8,3,2.9,3.5c0.1,0.5,2.1,5.3,2.2,5.6c0.1,0.4,1.3,5.6,1.4,5.9c0.1,0.3-0.3,5.9-0.3,6.1
			c-0.1,0.2-1.1,5.1-1.1,5.1l-0.3,1.6l-0.9,2c0,0-0.3,2.1-1.6,2.1c-1.3,0-2.8-3.7-4.2-11.5c-1.4-7.8-1.4-15-2.4-16.8
			c-1-1.8-1.1,2.9-3.4,7c-2.3,4.2-5.6,7.1-5.8,6.9c-0.2-0.2,2.4-3.9,3.4-8.7c1.1-4.8,1-7.7,1-7.7s-1.6,6.7-6.6,12.6
			c-4.7,5.5-12.8,8.3-13.8,8.6c-0.1,0-0.1,0-0.1,0s4-2.2,6.4-5.1C284.4,44.6,275.5,51,265.8,52.8z"/>
		<g class="st5">
			<path class="st29" d="M275.9,61.2c2.4,0,3.5,2.2,3.4,2.5c-0.1,0.2-0.9-0.7-3.5-0.7c-1.9,0-3.7-1.5-3.5-2.1
				C272.6,60.3,274,61.3,275.9,61.2z"/>
			<path class="st29" d="M295.7,61.5c2.3,0,3.2-0.5,3.4,0.1c0.1,0.3-0.8,1.5-3.2,1.7c-2.4,0.2-4.2,1-4.4,0.8
				C291.5,63.7,293.2,61.5,295.7,61.5z"/>
		</g>
		<path class="st8" d="M286,62.5c0.5,0,0.2,2.4-0.1,4.5c-0.2,1.4-0.7,2.6,0,2.8c0.8,0.2,1.6,0.5,1.6,0.8c0,0.3-2.6,0.3-3.1-0.6
			c-0.5-0.9,0.2-2.4,0.5-3.9C285.4,64.5,285.6,62.5,286,62.5z"/>
		<path class="st26" d="M290.3,76.5c1-1.4,1.6-2.9,1.5-3c-0.3-0.2-3.2,0.8-5.9,0.7c-2.7-0.1-5.2-1-5.5-0.7c-0.2,0.2,0.3,1.5,1.3,2.9
			C283.6,76.9,286.6,77.2,290.3,76.5z"/>
		<path class="st23" d="M281.7,76.4c1,1.4,2.6,2.8,4.4,2.8c1.7,0,3.2-1.3,4.2-2.7C286.6,77.2,283.6,76.9,281.7,76.4z"/>
		<path class="st8" d="M295.1,55.8c1.1-0.6,6.2-0.3,6.9,0.4c0.7,0.7-6.5,2.1-7.4,1.8C294,57.8,293.9,56.4,295.1,55.8z"/>
		<path class="st8" d="M278.6,58.2c0.9,0,0.6-1.7-0.4-2.2c-1.1-0.6-6-1-6.5-0.4C271.3,56.2,277.1,58.2,278.6,58.2z"/>
		<g class="st5">
			<g>
				<path class="st57" d="M294.7,86.7c0,0,0.1,6.9-2.1,9.6c0,0,5.1,2.7,7.1,8.7c0,0,4-6.3,3-13.1C302.6,91.8,299.4,87.9,294.7,86.7z
					"/>
				<path class="st57" d="M276.6,87.3c0,0-0.3,5.3,0,9.5c0,0-5,1.7-9.1,7c0,0-0.9-7.2,1.1-13C268.7,90.8,272,87.7,276.6,87.3z"/>
			</g>
		</g>
		<path class="st16" d="M309.8,121.2l14.8-3c-0.1-0.8-0.2-1.6-0.3-2.4l-14.5,3C309.8,119.6,309.8,120.4,309.8,121.2z"/>
		<path class="st58" d="M312.2,127.4c-1.1-8.3-2.2-12.7-2.4-12.1c-0.2,0.6,0.1,7.7,0,12.2C309.8,127.6,310.8,127.5,312.2,127.4z"/>
	</g>
	<path class="st59" d="M406.9,37.1c-2,0.6-3.1,2.3-1.1,2.6c1.6,0.2,2.8-1.6,4.3-1.2c1.5,0.4,4.6,1,5.3,0.3
		C416.1,38,409.4,36.3,406.9,37.1z"/>
	<path class="st59" d="M427.5,37.1c-2,0.6-3.1,2.3-1.1,2.6c1.6,0.2,2.8-1.6,4.3-1.2c1.5,0.4,4.6,1,5.3,0.3
		C436.7,38,430,36.3,427.5,37.1z"/>
</g>
</svg>
