<?xml version="1.0" encoding="utf-8"?>
<!-- Generator: Adobe Illustrator 21.0.1, SVG Export Plug-In . SVG Version: 6.00 Build 0)  -->
<svg version="1.1" id="Layer_1" xmlns="http://www.w3.org/2000/svg"  x="0px" y="0px"
	 width="390px" height="137px" viewBox="0 0 390 137" style="enable-background:new 0 0 390 137;" xml:space="preserve">
<style type="text/css">
	.st0{fill:#EDAD6E;}
	.st1{fill:#E6E3E7;}
	.st2{fill:#BA1A1A;}
	.st3{fill:#FFC78A;}
	.st4{fill:#E5C648;}
	.st5{fill:#FFE578;}
	.st6{fill:#E54343;}
	.st7{fill:#CBCBCB;}
	.st8{fill:#DA3939;}
	.st9{fill:#FF5A5A;}
	.st10{opacity:0.7;fill:#FFCCC2;}
	.st11{opacity:0.9;fill:#FFCCC2;}
	.st12{opacity:0.6;fill:#FFCCC2;}
	.st13{fill:#FFCCC2;}
	.st14{opacity:0.89;fill:#FFCCC2;}
	.st15{fill:#352E2C;}
	.st16{fill:#EDEDED;}
	.st17{fill:#FFE266;}
	.st18{opacity:0.7;}
	.st19{fill:#FFFFFF;}
	.st20{opacity:0.8;fill:#EFD66A;}
	.st21{fill:#EC5656;}
	.st22{fill:#AF2525;}
	.st23{fill:#D53E3E;}
	.st24{fill:#771D1D;}
	.st25{fill:#B92B2B;}
	.st26{opacity:0.2;fill:#FFFFFF;}
	.st27{opacity:0.4;fill:#E5A56E;}
</style>
<path class="st0" d="M38.5,68.9c-2.3,1.9-5.7,4.1-8.6,3.4c-3-0.6-5.8-7.5-7.8-12.6c-2-5.1-2.9-10-4.6-9.5c-1.8,0.6-0.7,4.5,3.1,12.7
	c3.8,8.2,5.5,12,9.9,12.3c4.5,0.4,7.8-2.7,9.4-4C41.4,70,38.5,68.9,38.5,68.9z"/>
<path class="st1" d="M176.7,124.6c37.8,0.6,54,0.2,80.9-0.6c26.9-0.8,123.4,0.5,128.5,6.5c5.1,6-105.6,4.7-180,5.1
	c-74.3,0.5-118.2,2.2-156.5,1.3C11.3,136.1,0.2,131.4,0,128C-0.2,124.7,82.2,123,176.7,124.6z"/>
<path class="st0" d="M63.2,101c0,4.2,0.9,7.7,2.4,11.4s5.4,5.8,6.4,7c0.9,1.2,1,2.7,0.5,3.8s-1.4,4.7-6.3,4.7c-4.8,0-5.2-0.4-4.6-1
	c0.5-0.6,3.5-0.5,5.7-1.4c2.2-0.8,2.8-3.4,2.7-4.1c-0.2-0.7-5.5-5-6.6-8.6c-1.2-3.6-2.1-8.7-2-10.5C61.4,100.6,63.2,101,63.2,101z"
	/>
<path class="st0" d="M39.5,98.5c-2.9,2.8-7.5,6.3-11.9,11.3s-7.4,7.4-7.4,7.4s-7-3.2-8.4-2.7c-1.4,0.5,2.3,2.9,5.8,4.8
	c3.5,1.9,3.8,1.6,4.6,0.7s5-6.9,7.1-9.2c2.1-2.2,8.1-7.6,8.1-7.6L39.5,98.5z"/>
<path class="st2" d="M98.6,73.8c4.3-1.9,8.7-4.7,13.9-8.9c5.2-4.2,8.7-9.4,8.7-9.4s1.9,2.6,2,2.7c0.1,0.1-4.8,5.8-10.3,10.3
	c-5.5,4.5-12.9,7.9-12.9,7.9L98.6,73.8z"/>
<path class="st3" d="M34.8,40.8c9.2-15,37.8-7.9,44.4,12.5c6.6,20.5,2.8,35.7-10,47.4c-12.8,11.8-31.4,11.8-35.3,1.3
	c-3.2-8.6,3.1-17.8,2.4-28.9C35.4,59.1,29.6,49.2,34.8,40.8z"/>
<path class="st2" d="M292.4,60.3c-5.6,6.4-9.2,10.1-15.5,14.4c-6.3,4.3-11.7,8.9-11.7,8.9l0.7,3.7c0,0,6.1-4,14.1-10.1
	c8-6,11.8-11.1,11.8-11.1L292.4,60.3z"/>
<path class="st4" d="M334.7,27.7l0.7-2.6L331,24c0,0,5.4-0.9,5.5-4.5c0-1.9-4.4-1-5.8,0c0,0,1.4-4.4,2.9-7.3c0,0,2.1,3.3,4.6,2.2
	s0-5.8,0-5.8s2.3-0.2,5.3,0.2c2.9,0.4,5.7,1.7,5.7,1.7s-5.1,2.5-4.5,4.7c0.6,2.2,5.1,0.4,5.1,0.4s-0.4,1.9-1.1,4.4
	c-0.7,2.5-1.9,3.8-1.9,3.8s-2.7-3.6-4.7-2.5c-2,1.1-0.1,4.2,1.6,6l-4.7-0.9l-0.7,2.7L334.7,27.7z"/>
<path class="st5" d="M336.2,27c4.8,0.6,7.2,4.4,6.9,8.9s-6.8,7.4-12.1,7.1c-5.3-0.3-8.7-6.7-6-11.1C327.7,27.5,332,26.4,336.2,27z"
	/>
<path class="st4" d="M307.3,20.7c7.4,1.4,16.4,6.7,22.5,18.3l-9.4,0.3c0,0-12.4-17.3-26.9-11.2c0,0,1.5-7,1.8-6.9
	C295.6,21.3,301,19.6,307.3,20.7z"/>
<path class="st4" d="M353.9,30.2c-8.7,0-15.7,5.6-19.1,10.1c-3.4,4.6,10.9,2.5,10.9,2.5s15.6-11.2,20.6-3.4s2.5-2.9,2.5-2.9
	l-6.9-5.6C361.9,30.9,355.1,30.2,353.9,30.2z"/>
<path class="st6" d="M287.9,79c0.7-6.4,0.1-12.4,0-18.5c-0.1-6,0.2-11.7,7.7-16.7c7.5-5,17.5-7.1,31.1-6.3
	c13.6,0.8,25.9,3.4,34.8,12.4s10.5,20.3,8.8,26.6c-1.6,6.4-6.7,15.5-10.5,21.1s-4.7-5.2-15.2-9.8c-10.5-4.6-36.3-6.5-45.8-7.3
	C289.1,79.8,287.9,79,287.9,79z"/>
<path class="st5" d="M353.9,30.2c0,0,9.3,0.2,12,7.2c1.9,4.8-3.6,9.2-6,15.6c-2.4,6.5-3.1,9.2-3.1,9.2l5.3,2.9c0,0,2.3-5.4,5.8-10.7
	c3.5-5.3,9.8-11.7,6.1-18.3C370.4,29.5,362.6,30.6,353.9,30.2z"/>
<path class="st5" d="M301.1,53.7c-0.2-6.9-4.9-10.8-6.1-18s2.2-14.5,12.3-15c0,0-14.2-5-19.8,4.8c-5.6,9.8,3.8,17.7,7.5,27.2
	L301.1,53.7z"/>
<path class="st4" d="M285.3,86.6c0-5.5,2.2-11,2.2-11s2.7,0.9,5.5-1.8c2.8-2.7,3.1-5.7,2.1-7.1c-0.9-1.5-5.1-1-7.7,2.7
	c0,0,0.4-6-0.8-10c0,0,6.1,3.4,8.5,0.9c2.4-2.5-1.6-6.5-4.7-7.5c0,0,8.1-2.2,14.2-1.4c0,0-3.7,4.4-1.6,7.1c2.1,2.8,7.4-0.9,8.5-2
	c0,0-0.3,7.1,0.9,12.3c0,0-4.2-3.4-6.9-1.8c-2.7,1.6,1.2,6.7,5.3,8.4c4.1,1.7,9.3,2.3,10.7,0.7c1.4-1.6,0.3-4.7-4.1-2.8
	c0,0,1-3.1,3.4-3.5c2.4-0.4,3.3,2.3,3.3,2.3s-1-3.2,0-5.6c1-2.4,4.2-5,4.2-5s-0.4,2.5,0,4.7s0.6,4.1,0,5.9c0,0,4.8-0.2,4.6,4.9
	c0,0-2.6-2.3-4.7-1.3s-0.3,3.8,3.4,5.3c3.7,1.5,11,0.3,15.5-6.2c0,0-2-3.4-8.8-1.8c0,0,4.2-6.5,5.8-11.2c0,0,2.8,6.1,7.3,5.3
	c2.1-0.4,2.9-5.1,0.8-9.2c0,0,8.2,2.1,14.2,7.6c0,0-7.7,1.6-8.1,5.4c-0.3,2.5,6.2,3.4,9.6,2.3c0,0-6.2,5-8.8,11.6
	c0,0-1.7-7.6-4.5-7.2c-2.8,0.4-3,5.6-1,9c2,3.4,8.3,9.9,8.3,9.9s-3,5.4-4.5,7.7c-1.5,2.2-4.9-2.9-4.9-2.9s-17.2-11.6-30-14.3
	c-12.8-2.6-30.2-2.5-30.2-2.5L285.3,86.6z"/>
<path class="st7" d="M286.2,94c2,4.7,6.9,9.1,18.1,12.7c11.2,3.6,37.6,7.6,48.2,5.5c0,0-1-5.1-2.5-6.6c-1.5-1.5-29.1-14.2-30.7-14.4
	c-1.6-0.2-13.1-0.7-15.9-0.6c-2.8,0.2-16.8,1-16.8,1L286.2,94z"/>
<path class="st2" d="M294.2,90.8c1.4,3.7,7.6,9.2,22.2,12.1c14.6,2.9,25,1.4,28.4,0c3.4-1.4,0.1-4.6-1.2-5.2
	c-1.3-0.6-14.6-6.4-17-6.9c-2.4-0.5-16.5-3.5-17.1-3.5c-0.6,0-8.9-0.9-11.2,0C296,88.2,294.2,90.8,294.2,90.8z"/>
<g>
	<path class="st7" d="M199,106.1c-1.7,3.3-4.7,8.7-8.8,13.3c-4.2,4.6-7.2,7-8.2,7c-1,0-9.2-6.3-9.3-7.4c-0.2-1.1,2-0.7,5.5,1.1
		c3.5,1.8,3.9,2.7,4.6,2.5c0.7-0.2,10.7-13.6,12-17C196.1,102.1,199,106.1,199,106.1z"/>
	<path class="st7" d="M215.7,108.1c0.3,4.5,0.7,8,3.8,11.1c3.2,3.1,6.6,4.4,6.7,5.1c0.1,0.7-1.2,2.4-2.5,3.1
		c-1.2,0.7-4.2,0.9-4.6,1.8c-0.4,0.9,1.8,0.9,4.4,0.9c2.6,0,6.9-3.8,6.4-6.6c-0.5-2.8-5.7-3.4-8.7-7.1c-3-3.6-1.5-8.9-1.5-8.9
		L215.7,108.1z"/>
</g>
<path class="st2" d="M127.8,104.1c-4.4,5-15,16.6-16.5,16.7c-1.5,0.2-8.2-6.8-9.5-6.7c-1.3,0.2-0.2,2.9,3.9,6.7
	c4.1,3.7,5.6,4.3,6.4,3.9c0.8-0.4,9-8.6,12.6-12.2s7.2-7.5,7.2-7.5L127.8,104.1z"/>
<path class="st8" d="M115.8,103.4c0.8,4,1.4,8,6.4,11.2c5,3.2,10.9,5.4,11.2,5.7c0.3,0.4,0.5,2.5,0,5s-1.2,4.7-6.1,5.4
	c-4.9,0.7-2.5-0.4,0-1.5c2.5-1.1,2.7-0.5,3.1-3.1c0.4-2.6,0.8-3.4-1.6-4.5c-2.4-1.1-8.9-3.3-11.4-5.7c-2.5-2.4-4.5-7.7-4.7-11.4
	C112.6,100.8,115.8,103.4,115.8,103.4z"/>
<path class="st9" d="M107.7,4.6c0,0,5-0.9,8.4-1.7c3.4-0.9,7.7-2.1,10.7-2.3c2.9-0.2,8.7,0.9,12.7,0c0,0,8.8,10.8,11.7,15.6
	c2.8,4.8,5.3,7.7,3.9,15.3c-1.4,7.5-4.9,10.4-4.9,17.1s5.7,14.5,1.1,24.5s-10.6,14.4-11.4,21.8c-0.9,7.4,1.4,9.8-1.9,14.2
	c0,0-5.6-3.3-15-3.4s-18.4-0.2-21.6-2.5c0,0,2.4-0.8,2.2-7.2c-0.2-6.4-0.1-9.5,3.8-15.8c3.9-6.3,12.1-9.5,11.4-17.5
	s-4.7-15-3.3-22.9c1.4-7.8,5.8-12.2,1-20.3C111.7,11.4,107.7,4.6,107.7,4.6z"/>
<path class="st10" d="M128.5,72.4c4.7-7.2,2.6-15.3,1.8-19.7c-0.8-4.5-2.1-9.7-1.2-15.2c0.9-5.5-0.1-9.4,1.1-18.8
	c1-8.1-3.2-13.1-8-17.3c-2,0.4-4,1-5.8,1.4c3.9,3.7,10.1,11,11.3,14.4c1.6,4.2-1.1,9.6-0.7,13.9s-1.6,8.8-1.5,15.3
	c0.2,6.5,3.4,15.4,2.1,20.5s-3.8,8.4-7.8,13.4c-4,5-6.3,10.9-5.3,14.5s1.6,4.6-0.4,8.4c-0.5,0.9-0.9,1.6-1.3,2.2
	c1,0.1,2.1,0.1,3.2,0.1c4.8-6.2,1-8,2.6-15.4C120.4,82.1,123.7,79.6,128.5,72.4z"/>
<path class="st11" d="M146.8,61.5c-1.7-8-6.1-8.2-2.8-18.2c2-6,2.2-10.8,1.7-13.7c-0.5-2.9,2.2-9.9-1-15.1
	c-2.4-3.9-6.8-9.4-10.5-13.5c-2.8-0.1-5.6-0.4-7.4-0.3c0,0,0,0-0.1,0c4.4,4.2,8.4,7.6,11.1,11.2c3.2,4.1,4,6.8,4.3,11.8
	s1.1,8.4-0.3,13.2c-1.4,4.8-4.5,8.5-2.5,15.6c2.1,7.1,5.5,9.8,3.3,16.2s-5.1,10-8.9,15.1c-3.9,5.1-5.3,11.2-5.2,13.7
	c0,2.4,0.4,5.5-1.6,8.5c1,0.1,1.9,0.2,2.8,0.4c0.6-0.9,1.3-2.2,1.8-4c0.9-3.7-0.5-4.5,1.9-8.9c2.4-4.4,4.1-8.4,7.8-13.6
	C144.9,74.6,148.5,69.5,146.8,61.5z"/>
<path class="st12" d="M135.2,16.2c0.6,0.4,2,2.8,1.8,6.2c-0.2,3.4-1.5,6.5-1.5,6.5s0-3.3-0.3-7.2C134.8,17.7,133.6,15.3,135.2,16.2z
	"/>
<path class="st13" d="M133.8,58c0,0,2.6,4.1,1.2,10.1c-1.4,6-7.7,12.7-7.7,12.7s2.2-3.8,4.2-9.5c2-5.7,2.7-6.2,2.1-9.3
	C133,58.9,133.8,58,133.8,58z"/>
<path class="st14" d="M121.8,70.2c0,0-2.5,3.5-4.8,6.7c-2.4,3.2-5.8,9.4-5.8,9.4s1.1-3.6,2.7-7.4s3.5-4.7,4.6-6.3
	C119.5,71.1,121.8,70.2,121.8,70.2z"/>
<path class="st12" d="M126.7,92.3c0,0-0.7,4.7-1.8,7.6c-0.8,2.1-1.7,3.6-2.7,5.7c0.3,0,0.5,0,0.8,0c0.4,0,0.8,0,1.2,0
	c0.5-1.1,1.1-2.4,1.7-3.9C127.2,98.2,126.7,92.3,126.7,92.3z"/>
<g>
	<g>
		<path class="st15" d="M135.9,32.4c1-0.3,2.5,0.5,2.4,2c-0.1,1.5-1.9,1.8-3,1.2C134.2,34.9,134.7,32.8,135.9,32.4z"/>
		<path class="st15" d="M126.5,32c1-0.3,2.5,0.5,2.4,2c-0.1,1.5-1.9,1.8-3,1.2C124.8,34.6,125.3,32.5,126.5,32z"/>
	</g>
</g>
<path class="st15" d="M122.8,41.3c0.4-0.3,3.5,4.1,8.6,3.9c5.1-0.2,8.8-3.5,9.1-3.2s-3.7,5.6-10,5.2
	C124.2,46.8,122.5,41.5,122.8,41.3z"/>
<path class="st2" d="M143.9,54c1.9-1.3,5.2,6.3,9,12.8c3.9,6.5,6.5,12.4,6.6,13.1s-1.2,1.7-1.4,1.7c-0.2,0-5.3-9.2-7.9-13.1
	S142.1,55.3,143.9,54z"/>
<path class="st7" d="M175.3,61c-3.5,3.5-7.1,7.1-9.6,9.6c-2.4,2.5-9.1,8.7-9.2,9.2c-0.1,0.5,0.6,1.8,0.9,1.9c0.3,0.1,1-0.2,3.6-2.7
	c2.6-2.5,11.2-11.3,12.2-12.1C174.3,66,175.3,61,175.3,61z"/>
<path class="st2" d="M160.6,80.1c-0.2-0.5-1.2-1.5-2.1-1.3c-0.8,0.2-1.1,1.1-0.8,1.9c0.2,0.7,0.4,1.9,1.6,1
	C160.5,80.7,160.7,80.3,160.6,80.1z"/>
<path class="st16" d="M176.3,51.7c1.8-6.2,0.1-13.8,6.9-20.3c6.8-6.5,15.7-12.7,29.7-13c13.9-0.3,27.9,4.8,39,15.5
	c11.1,10.7,8.2,16.6,8.6,26.1c0.4,9.4-2.8,17.9-9.6,22.8c-6.8,4.9-8.6,10.4-15.3,16.9c-6.7,6.5-15.4,11.9-31.5,9.1
	c-16.1-2.8-21.6-8.2-26.4-15.9c-4.8-7.7-8.9-21.2-7.1-28.9C171.8,58.9,175.1,55.8,176.3,51.7z"/>
<path class="st17" d="M202.3,45.4c8.5-4.3,18.8-4.6,27,3c8.2,7.6,7.6,19,2.8,26.6c-4.8,7.6-16,13.2-27.7,9.5
	c-11.7-3.7-12.9-11.1-13-19.1C191.1,57.5,193.1,49.9,202.3,45.4z"/>
<g class="st18">
	<path class="st19" d="M218.3,45.4c0.3-0.6,5.4,0.9,8.4,3.6c3,2.7,4.4,6.7,3.6,6.7c-1.2,0-2.3-3-4.5-5.5
		C222.5,46.9,217.7,46.8,218.3,45.4z"/>
	<path class="st19" d="M231.1,58.1c0.3-0.6,1.8,1.4,1.2,2.3C231.7,61.3,230.5,59.2,231.1,58.1z"/>
</g>
<g>
	<g>
		<path class="st15" d="M213.9,61.2c-0.3-0.4,1.1-2.5,2.8-2.5c1.7,0,2.8,2.4,2.3,2.7c-0.5,0.4-1.1-1.4-2.5-1.6
			C215.1,59.8,214.4,61.8,213.9,61.2z"/>
		<path class="st15" d="M204.9,57.5c2,0.2,3,3.2,2.5,3.3c-0.3,0.1-1.2-2.3-2.6-2.4c-1.7-0.1-2.3,1.5-2.6,1.3
			C201.8,59.6,203,57.3,204.9,57.5z"/>
	</g>
</g>
<path class="st20" d="M204.9,74.2c-5.1-5.5-7.7-16.9-6.9-26c-5.5,4.6-6.8,10.8-6.7,17.3c0.2,8,1.3,15.4,13,19.1
	c8,2.5,15.8,0.7,21.4-3.1C218.4,81.2,209.5,79.2,204.9,74.2z"/>
<path class="st19" d="M220.5,66.9c-1.1-1-6.4,1.2-12,1c-5.6-0.2-9.1-4.9-10.1-4.6c-0.4,0.1-0.6,0.5-0.7,1.2
	c3.1,3.6,5.5,5.6,11.5,5.9c5.1,0.3,8.6-0.2,11.2-1.6C220.6,67.9,220.7,67.1,220.5,66.9z"/>
<path class="st21" d="M209.9,73.8c0,0-3.5-2.1-7.9,0.6c1.5,1.3,3.5,2.3,5.9,2.5c3.1,0.3,5.7-0.7,7.7-2.1
	C214.6,73.9,212.8,72.8,209.9,73.8z"/>
<path class="st22" d="M209.1,70.5c-5.9-0.3-8.4-2.3-11.5-5.9c-0.4,2.2,1,6.9,4.4,9.8c4.4-2.7,7.9-0.6,7.9-0.6c2.9-0.9,4.7,0.2,5.7,1
	c2.5-1.8,4.1-4.2,4.7-5.9C217.7,70.2,214.1,70.7,209.1,70.5z"/>
<path class="st8" d="M208.4,73.2c-1,0.7-1.5,1.8-1.3,1.9c0.4,0.1,0.8-0.6,2.7-1.3C209.9,73.8,209.4,73.4,208.4,73.2z"/>
<path class="st7" d="M251.7,63.9c1.8-0.5,4.6,6.3,8.7,12.8c4.1,6.5,7.2,9.8,7.2,9.8l-1.6,1.9c0,0-4.7-4.9-8.2-9.7
	C254.4,74,249.1,64.6,251.7,63.9z"/>
<g>
	<path class="st15" d="M58.1,62.3c1.1-0.2,2.1,1,2.1,2.2c0,1.2-0.5,1.7-1.5,1.8c-1,0.1-1.6-1-1.8-1.8C56.8,63.5,57.1,62.5,58.1,62.3
		z"/>
	<path class="st15" d="M44.4,62.3c1-0.2,2,1,2,2.2c0,1.2-0.5,1.8-1.4,1.8c-1,0.1-1.5-1-1.7-1.9C43.1,63.6,43.4,62.5,44.4,62.3z"/>
	<path class="st23" d="M52.6,75.2c0,0-1.8-1.5-4.2,0.3c1,1.4,2.4,2.6,4.3,2.5c1.9-0.1,3.1-1.3,3.8-2.8
		C55.6,74.8,54.1,74.3,52.6,75.2z"/>
	<path class="st24" d="M48.4,75.5c2.4-1.7,4.2-0.3,4.2-0.3c1.5-0.9,3-0.4,3.9,0l0,0c1.1-2.3,1.2-5.2,0.7-5.4
		c-0.9-0.5-2.9,0.8-5.2,0.9c-2.3,0.2-4.4-0.9-4.8-0.3C46.7,71.1,47.1,73.5,48.4,75.5L48.4,75.5z"/>
	<path class="st25" d="M51.1,76.5c0.2,0,0.5-0.5,1.6-1.3c0,0-0.4-0.3-1-0.5C51,75.4,50.9,76.5,51.1,76.5z"/>
</g>
<path class="st0" d="M73.4,72.8c-0.2-1.6,7.8-3.8,14.2-3.6c6.4,0.2,11.5,2.6,13,3.6c1.5,0.9,1.7,2.1,1.5,2.8
	c-0.3,1.5-2.4,2.7-3.7,2.4l-0.3-2.4c0,0-3.1-2.8-9.7-3.3C81.9,71.6,73.8,75.8,73.4,72.8z"/>
<path class="st2" d="M265.6,85c0.7,1,0.3,2.4-0.7,3.2c-1,0.8-1.9,1.1-2.2,1c-0.3-0.1-1.8-2.8-1.8-3.4
	C261.1,85.2,264.2,83.1,265.6,85z"/>
<path class="st1" d="M321.6,83.5c11.2,2.1,22.1,6.5,27.2,9.9c5.1,3.4,8.7,8.6,9,10.4c0.3,1.8-4,7.7-5.3,8.4c0,0-2.1-3-9.5-8.4
	c-7.4-5.3-19.1-9.4-28.5-10.8c-9.4-1.4-27.3-0.6-28.4,1c0,0-1.8-5.8-1.1-8C285.7,83.9,300.4,79.5,321.6,83.5z"/>
<path class="st2" d="M311.9,100.7c-2.6,4.1-5.1,8.5-6.5,13.3c-1.5,4.8-3.7,13.9-4.4,14.9c-0.8,1-2.2,1.3-6.7,1.3
	c-4.5,0-7.4-0.4-7.3-1.2c0.1-0.8,5.7-2.5,8.5-2.8c1.1-0.1,2.3-0.2,2.3-0.2s1.3-5.8,4-13.2c2.7-7.4,5.9-13.2,6-13.3
	C307.8,99.4,311.9,100.7,311.9,100.7z"/>
<path class="st2" d="M326.6,102.8c0.9,3.7,2,9.7,4.4,11.2c2.3,1.5,11.4,2.5,12.5,3.4c1,0.9-1.2,10-1.9,11.1
	c-0.7,1.1-2.1-2.8-1.5-7.9c0,0-10.7-1.5-12.6-3.7c-1.9-2.2-5.2-12.3-4.8-14.3S326.6,102.8,326.6,102.8z"/>
<g>
	<polygon class="st5" points="318.9,78.5 320.7,78.3 326.9,80 328.2,81 327.7,82.6 325.6,82.9 319.5,81.4 318.2,80.4 	"/>
	<polygon class="st5" points="295.4,77.1 297.1,76.4 303.4,76.1 304.9,76.7 305,78.6 303,79.5 296.8,79.7 295.2,79 	"/>
	<polygon class="st5" points="341.2,84.8 343,84.9 348.9,87.5 350,88.8 349.2,90.2 347.1,90.2 341.3,87.8 340.2,86.5 	"/>
	<polygon class="st5" points="309.7,77.7 310.8,76.9 312.7,77.2 313.3,78.4 313.1,79.8 311.8,80.5 310.2,80.2 309.4,79.2 	"/>
	<polygon class="st5" points="333.6,83.1 334.6,82.6 336.4,83.2 336.7,84.3 336.3,85.5 335,86 333.6,85.4 333,84.4 	"/>
	<polygon class="st5" points="354.6,93.1 355.8,93.1 357.1,94.4 356.9,95.6 356,96.5 354.6,96.3 353.6,95.2 353.5,94.1 	"/>
	<polygon class="st5" points="288.1,79.5 288.6,78.3 290.5,77.6 291.6,78.4 292.1,79.7 291.3,81 289.7,81.5 288.5,81 	"/>
</g>
<g>
	<polygon class="st5" points="349.4,69 353.5,67.6 357.4,69.7 357.8,73.6 355.7,76.7 352.1,77.5 348.2,75.3 347.8,71.9 	"/>
	<polygon class="st5" points="295.2,62 297,59.2 301.7,58.6 305.1,60.9 305.5,64.4 303.1,68 298.3,68.7 295,65.7 	"/>
</g>
<g>
	<polygon class="st5" points="338.4,15.4 340.1,14.1 343.4,14.9 344.2,17 343.5,19.3 341.6,20.7 338.7,20 337.5,17.5 	"/>
</g>
<path class="st19" d="M326,51.3c-6.7-1.3-9.1-5.4-10.4-4.5c-0.7,0.4-0.6,2,0.2,3.8c3.1,3,5.9,4.4,11.1,5.3c4.2,0.7,7.9,0.3,10.1-0.1
	c1.6-1.3,2.4-2.6,2-3.3C337.8,50.5,329.6,52,326,51.3z"/>
<path class="st24" d="M326.9,55.9c-5.3-0.8-8.1-2.3-11.1-5.3c1.3,3.1,4.5,7.2,9,8.4c4.5,1.2,9.5-1,12.2-3.2
	C334.8,56.2,331.1,56.5,326.9,55.9z"/>
<g>
	<path class="st15" d="M334.9,46.2c1.6-0.5,3,0.9,2.4,2.5c-0.5,1.2-2.6,1.2-3.3,0.1C333.3,47.8,333.7,46.6,334.9,46.2z"/>
	<path class="st15" d="M322.3,44.3c1.6-0.5,3,0.9,2.4,2.5c-0.5,1.2-2.6,1.2-3.3,0.1C320.7,45.9,321.1,44.6,322.3,44.3z"/>
</g>
<path class="st2" d="M364,81.9c1.8-1.3,7,6.4,16.5-2.2c5.5-4.9,3.3-19,7.1-19s2.8,13.1-2,19.7c-4.8,6.6-12.4,9.3-16.5,7.8
	C365,86.7,361.9,83.4,364,81.9z"/>
<path class="st26" d="M54.1,38.5c1.7-2.1,10.2,0.1,15.8,5.9c5.6,5.8,7.1,14.7,4.6,17c-2.5,2.3-5-5.3-11.9-11.4S51.5,41.8,54.1,38.5z
	"/>
<path class="st26" d="M50.4,38.1c0-1.6-2.6-2.9-5.3-1.5c-2.8,1.5-1.7,4.7,1.3,4.7S50.4,39.7,50.4,38.1z"/>
<path class="st25" d="M98.3,74.8c0.8,0.5,0.8,1.4,0.5,2.5c-0.3,1.1-0.9,0.8-1.6,0.5c-0.8-0.3-1.8-0.9-1.8-1.5
	C95.4,75.7,97.1,74.1,98.3,74.8z"/>
<path class="st1" d="M264.9,84.9c0.7-0.8,2.5-0.5,3.2,0.3s0.3,1.5,0,2c-0.3,0.4-1.4,1.5-1.8,1.5C266,88.8,263.5,86.7,264.9,84.9z"/>
<path class="st27" d="M62.4,105.7c-17.2,3.6-22.2-9.4-22.1-22.3c0-12.4-3.2-14.2-7.1-29.1c0.9,5.5,2.7,11.7,3.2,19
	c0.7,11.1-5.6,20.3-2.4,28.9C37.1,110.8,50.6,112.3,62.4,105.7z"/>
</svg>
