<?xml version="1.0" encoding="utf-8"?>
<!-- Generator: Adobe Illustrator 19.2.0, SVG Export Plug-In . SVG Version: 6.00 Build 0)  -->
<svg version="1.1" id="Layer_4" xmlns="http://www.w3.org/2000/svg"  x="0px" y="0px"
	 width="384px" height="300px" viewBox="0 0 384 300" style="enable-background:new 0 0 384 300;" xml:space="preserve">
<style type="text/css">
	.st0{fill:#E4EFFF;}
	.st1{fill:#FFFFFF;}
	.st2{fill:#80C3FF;}
	.st3{opacity:0.5;}
	.st4{fill:#CAE3FF;}
	.st5{fill:#B9DAFF;}
	.st6{fill:#1C67C6;}
	.st7{fill:#FFD87D;}
	.st8{fill:#2C7ED4;}
	.st9{fill:#52A8FF;}
	.st10{opacity:0.4;}
	.st11{fill:#EBC269;}
	.st12{fill:#1462B7;}
	.st13{fill:#E0B35A;}
	.st14{fill:#FFEFBB;}
	.st15{fill:#F5E690;}
	.st16{fill:none;stroke:#CAE3FF;stroke-width:5.9639;stroke-miterlimit:10;}
	.st17{fill:#FFE271;}
	.st18{fill:#EDD059;}
	.st19{fill:none;stroke:#E4EFFF;stroke-width:1.1928;stroke-miterlimit:10;}
	.st20{fill:#FBFBFB;}
	.st21{fill:#1C67D2;}
	.st22{fill:#2C7EE0;}
	.st23{fill:#52B4FF;}
	.st24{fill:#82CFFF;}
	.st25{fill:#348AEA;}
	.st26{fill:#D6EFFF;}
	.st27{fill:none;stroke:#231F20;stroke-miterlimit:10;}
	.st28{fill:#E9E9E9;}
</style>
<path class="st0" d="M269.6,177.2c-1,0-2,0.3-2.9,0.7c-0.3-2.2-2.2-3.8-4.4-3.8c-2,0-3.7,1.3-4.3,3.1h-0.4c-4.4,0-7.9,3.5-7.9,7.9
	c0,0.1,0,0.2,0,0.3c-1.7,1-2.9,2.8-2.9,4.9c0,3.1,2.5,5.6,5.6,5.6h3.9c1.4,1.8,3.6,3,6.1,3c4.3,0,7.8-3.5,7.8-7.8v-0.5
	c3.2-0.3,5.7-3,5.7-6.3v-0.8C275.9,180,273.1,177.2,269.6,177.2z"/>
<path class="st4" d="M75.1,194.9h-6.5c-0.5-4-4-7.2-8.2-7.2h-3.3c-4.6,0-8.3,3.7-8.3,8.3c0,0.7,0.1,1.4,0.3,2.1h-1
	c-2.3,0-4.2,1.9-4.2,4.2c0,0.3,0,0.6,0.1,0.8h-7.3c-2.6,0-4.7,2.1-4.7,4.7c0,2.6,2.1,4.7,4.7,4.7h14.7c1.3,2.8,4.2,4.7,7.5,4.7h6.4
	c3.8,0,7-2.5,8-6h1.9c4.5,0,8.2-3.7,8.2-8.2C83.3,198.6,79.6,194.9,75.1,194.9z"/>
<path class="st4" d="M330.6,245.8c0.1-0.4,0.2-0.9,0.2-1.4c0-2.9-2.4-5.3-5.3-5.3h-13.7c-1.4,0-2.6,0.5-3.6,1.4
	c-0.8-3.1-3.7-5.5-7-5.5h-8.8c-1,0-2,0.2-2.9,0.6c-0.1-7.6-6.3-13.8-13.9-13.8h-5.5c-0.6-7.4-6.8-13.2-14.3-13.2h-2.1
	c-1.7,0-3.4,0.3-4.9,0.9c-0.7-8.1-7.4-14.4-15.6-14.4h-78.4c-2.2-5.3-7.4-9-13.5-9h-4.5c-7,0-12.8,4.9-14.3,11.4h-8
	c-8.7,0-15.7,7-15.7,15.7v2.4c-0.5-0.1-1.1-0.1-1.7-0.1h-6.5c-7.1,0-13.1,4.7-15,11.3H65.2c-8.7,0-15.7,7-15.7,15.7v3.3H330.6z"/>
<g>
	<g>
		<rect x="161.8" y="183.1" class="st0" width="18.4" height="41.7"/>
		<rect x="196.5" y="183.1" class="st0" width="18.4" height="41.7"/>
	</g>
</g>
<path class="st0" d="M266.7,245.8c-2-3.6-5.8-6.1-10.2-6.1h-8.7c-2.2-5.8-7.7-9.9-14.2-9.9h-2.5c-0.3-6.7-5.9-12.1-12.7-12.1
	c-3.7,0-6.9,1.5-9.3,4c-0.9-0.2-1.9-0.3-2.9-0.3c-1.6,0-3.1,0.3-4.5,0.7c-0.9-0.5-2-0.7-3.1-0.7c-3.8,0-7,3.1-7,7v0.3
	c-2.5-3.5-6.6-5.8-11.2-5.8c-1.3,0-2.5,0.2-3.7,0.5c-1.9-2.3-4.6-3.9-7.8-4.2c-2-0.9-4.2-1.4-6.5-1.4h-8.4c-8.7,0-15.7,7-15.7,15.7
	v2.5c-2,1-3.6,2.5-4.8,4.4h-16.1c-3.8,0-7,2.3-8.5,5.5H266.7z"/>
<path class="st2" d="M285.1,215.4c-5.2,0-9.4,4.2-9.4,9.4v9.9v4.2v6.9h18.9v-6.9v-4.2v-9.9C294.5,219.6,290.3,215.4,285.1,215.4z"/>
<path class="st2" d="M114.4,175.1l0.3-0.7l-17.6-6l17.6-6l-0.3-0.7v-0.8H74.9v0.8l-0.3,0.7l17.6,6l-17.6,6l0.3,0.7l-0.3,0.7l17.6,6
	l-17.6,6l0.3,0.7l-0.3,0.7l17.6,6l-17.6,6l0.3,0.7l-0.3,0.7l17.6,6l-17.6,6l0.3,0.7l-0.3,0.7l17.6,6l-17.6,6l0.5,1.5l19.5-6.7
	l19.5,6.7l0.5-1.5l-17.6-6l17.6-6l-0.3-0.7v0l0.3-0.7l-17.6-6l17.6-6l-0.3-0.7l0.3-0.7l-17.6-6l17.6-6l-0.3-0.7v0l0.3-0.7l-17.6-6
	l17.6-6L114.4,175.1z M79.6,162.3h30.1l-15,5.1L79.6,162.3z M79.6,216.4h30.1l-15,5.1L79.6,216.4z M109.7,214.8H79.6l15-5.1
	L109.7,214.8z M112,202.1L94.7,208l-17.3-5.9l17.3-5.9L112,202.1z M79.6,189.3h30.1l-15,5.1L79.6,189.3z M109.7,187.8H79.6l15-5.1
	L109.7,187.8z M77.3,175.1l17.3-5.9l17.3,5.9L94.7,181L77.3,175.1z"/>
<path class="st9" d="M155.9,208.7h30.2c-3.9-7-9-13.1-15.1-18.1C164.9,195.6,159.7,201.7,155.9,208.7z"/>
<path class="st9" d="M220.8,208.7h-30.2c3.9-7,9-13.1,15.1-18.1C211.8,195.6,217,201.7,220.8,208.7z"/>
<path class="st0" d="M228.9,96.6c6.8,5.6,11.1,14,11.1,23.5v8.1v3.5v15v52.3h-22.2v-52.3v-15v-3.5V120
	C217.8,110.6,222.1,102.1,228.9,96.6z"/>
<path class="st0" d="M147.8,96.6c-6.8,5.6-11.1,14-11.1,23.5v8.1v3.5v15v52.3h22.2v-52.3v-15v-3.5V120
	C158.9,110.6,154.6,102.1,147.8,96.6z"/>
<path class="st2" d="M188.3,53.9c-18,14.7-29.5,37.1-29.5,62.1v21.5v9.2v47.6v4.6h58.9v-4.6v-47.6v-9.2V116
	C217.8,91,206.3,68.6,188.3,53.9z"/>
<path class="st1" d="M188.3,78.7c-12.3,10.1-20.2,25.4-20.2,42.6v14.7v6.3v27.3v25.5h40.4v-25.5v-27.3v-6.3v-14.7
	C208.5,104.2,200.7,88.8,188.3,78.7z"/>
<path class="st7" d="M168.1,195.1v-51.5c-12.1,10-19.6,23.8-19.6,39.1v12.4H168.1z"/>
<path class="st7" d="M208.5,195.1v-51.5c12.1,10,19.6,23.8,19.6,39.1v12.4H208.5z"/>
<path class="st9" d="M188.3,116.7c-5.1,0-9.8,1.7-13.7,4.5v5.6h13.7H202v-5.6C198.2,118.4,193.5,116.7,188.3,116.7z"/>
<rect x="58.3" y="231.1" class="st2" width="70.7" height="14.6"/>
<rect x="29.7" y="238.5" class="st2" width="28.5" height="7.3"/>
<g>
	<rect x="61.7" y="234.6" class="st9" width="65.3" height="2.5"/>
	<rect x="61.7" y="238.5" class="st9" width="65.3" height="2.5"/>
</g>
<rect x="112.8" y="140" class="st7" width="3.1" height="91.1"/>
<rect x="73.3" y="155.7" class="st7" width="3.1" height="75.4"/>
<path class="st9" d="M268.5,183.2c-10,14.1-6.7,33.7,7.4,43.7l0.2,0.2c14.1,10,33.7,6.7,43.7-7.4l2-2.8l-51.4-36.4L268.5,183.2z"/>
<path class="st4" d="M317.6,192.1c8,5.7,9.9,16.8,4.2,24.7l0,0c-5.7,8-16.8,9.9-24.7,4.2l-22.4-15.9c-8-5.7-9.9-16.8-4.2-24.7l0,0
	c5.7-8,16.8-9.9,24.7-4.2L317.6,192.1z"/>
<g>
	
		<rect x="287" y="191.8" transform="matrix(0.5785 -0.8157 0.8157 0.5785 -31.7315 326.0498)" class="st2" width="25.2" height="3.8"/>
	
		<ellipse transform="matrix(0.5787 -0.8155 0.8155 0.5787 -19.6161 327.6708)" class="st2" cx="307.4" cy="182.8" rx="3.3" ry="3.3"/>
</g>
<path class="st0" d="M34.6,165.1h-2c-1-2.3-3.4-4-6.1-4H19c-2.1,0-4,1-5.2,2.5H8c-2.3,0-4.2,1.5-4.8,3.6H2.5c-1.3,0-2.3,1-2.3,2.3
	c0,0.2,0,0.3,0.1,0.5h37.4c0.2-0.5,0.4-1,0.4-1.5C38,166.6,36.5,165.1,34.6,165.1z"/>
<path class="st0" d="M96,135.6h-8.8c-0.6,0-1.2,0.1-1.7,0.3c0-0.1,0-0.2,0-0.3c0-2.9-2.3-5.2-5.2-5.2h-1.6c-2.9,0-5.2,2.3-5.2,5.2
	c0,0,0,0.1,0,0.1c-0.3-0.1-0.6-0.1-0.9-0.1H67c-2.2,0-4,1.8-4,4c0,0.1,0,0.1,0,0.2h38.6C100.8,137.4,98.6,135.6,96,135.6z"/>
<path class="st0" d="M294.5,133.4h-6.8c-0.8,0-1.6,0.3-2.2,0.9c0,0,0-0.1,0-0.1c0-3.1-2.5-5.5-5.5-5.5h-2.7c-2.4,0-4.4,1.5-5.2,3.6
	c-0.9-1.2-2.3-2.1-3.9-2.1h-2.8c-2.6,0-4.8,2.1-4.8,4.8c0,0.8,0.2,1.5,0.5,2.2h36.4c0-0.2,0.1-0.4,0.1-0.6
	C297.6,134.8,296.2,133.4,294.5,133.4z"/>
<path class="st0" d="M376.2,182h-4.7c-3,0-5.6,1.9-6.6,4.5h-8.4c-3.4,0-6.3,2.3-7.3,5.4h33.6c0.4-0.9,0.6-1.8,0.6-2.8
	C383.3,185.2,380.1,182,376.2,182z"/>
<path class="st0" d="M354.1,148.6H350c-1.2,0-2.2,0.5-2.9,1.3c-0.4-2.4-2.5-4.2-5-4.2h-3c-2.8,0-5.1,2.2-5.1,5c-0.7-0.6-1.5-1-2.5-1
	h-7c-2,0-3.7,1.6-3.7,3.7c0,0,0,0,0,0h37.1c0.1-0.3,0.1-0.7,0.1-1C358.1,150.4,356.3,148.6,354.1,148.6z"/>
<g>
	<rect x="175.3" y="140" class="st0" width="5.5" height="18.4"/>
	<rect x="175.3" y="160.5" class="st0" width="5.5" height="18.4"/>
	<rect x="171.9" y="140" class="st0" width="1.8" height="18.4"/>
	<rect x="171.9" y="160.5" class="st0" width="1.8" height="18.4"/>
</g>
<g>
	<circle class="st2" cx="194.4" cy="154.2" r="0.8"/>
	<circle class="st2" cx="198" cy="154.2" r="0.8"/>
	<circle class="st2" cx="201.5" cy="154.2" r="0.8"/>
</g>
<circle class="st7" cx="283.8" cy="75.6" r="3.2"/>
<circle class="st2" cx="312.9" cy="110.7" r="2.2"/>
<circle class="st2" cx="65.7" cy="117.4" r="2.1"/>
<circle class="st4" cx="98.3" cy="76" r="2.1"/>
<circle class="st2" cx="278" cy="152.1" r="1.4"/>
<polygon class="st7" points="124.4,96.9 122.4,95.8 122.4,95.8 121.3,91.9 120.3,95.8 120.3,95.8 120.3,95.8 118.2,96.9 120.3,98 
	120.3,98 121.3,101 122.4,98 122.4,98 "/>
<polygon class="st9" points="265.3,108.5 261.9,106.8 261.9,106.8 260.2,100.4 258.5,106.8 258.5,106.8 258.5,106.8 255.1,108.5 
	258.5,110.3 258.5,110.3 260.2,115.3 261.9,110.3 261.9,110.3 "/>
<path class="st2" d="M278.7,215.4c-5.2,0-9.4,4.2-9.4,9.4v9.9v4.2v6.9h18.9v-6.9v-4.2v-9.9C288.1,219.6,283.9,215.4,278.7,215.4z"/>
<path class="st7" d="M280.7,224.8c0,1.1-0.9,2-2,2l0,0c-1.1,0-2-0.9-2-2l0,0c0-1.1,0.9-2,2-2l0,0
	C279.8,222.8,280.7,223.7,280.7,224.8L280.7,224.8z"/>
</svg>
