<?xml version="1.0" encoding="utf-8"?>
<!-- Generator: Adobe Illustrator 19.2.0, SVG Export Plug-In . SVG Version: 6.00 Build 0)  -->
<svg version="1.1" id="Layer_4" xmlns="http://www.w3.org/2000/svg"  x="0px" y="0px"
	 width="384px" height="300px" viewBox="0 0 384 300" style="enable-background:new 0 0 384 300;" xml:space="preserve">
<style type="text/css">
	.st0{fill:#E4EFFF;}
	.st1{fill:#FFFFFF;}
	.st2{fill:#80C3FF;}
	.st3{opacity:0.5;}
	.st4{fill:#CAE3FF;}
	.st5{fill:#B9DAFF;}
	.st6{fill:#1C67C6;}
	.st7{fill:#FFD87D;}
	.st8{fill:#2C7ED4;}
	.st9{fill:#52A8FF;}
	.st10{opacity:0.4;}
	.st11{fill:#EBC269;}
	.st12{fill:#1462B7;}
	.st13{fill:#E0B35A;}
	.st14{fill:#FFEFBB;}
	.st15{fill:#F5E690;}
	.st16{fill:none;stroke:#CAE3FF;stroke-width:5.9639;stroke-miterlimit:10;}
	.st17{fill:#FFE271;}
	.st18{fill:#EDD059;}
	.st19{fill:none;stroke:#E4EFFF;stroke-width:1.1928;stroke-miterlimit:10;}
	.st20{fill:#FBFBFB;}
	.st21{fill:#1C67D2;}
	.st22{fill:#2C7EE0;}
	.st23{fill:#52B4FF;}
	.st24{fill:#82CFFF;}
	.st25{fill:#348AEA;}
	.st26{fill:#D6EFFF;}
	.st27{fill:none;stroke:#231F20;stroke-miterlimit:10;}
	.st28{fill:#E9E9E9;}
</style>
<g>
	<g>
		<g>
			<path class="st7" d="M330.4,155.8H192.8c-2.3,0-4.2-1.9-4.2-4.2V82.1c0-2.3,1.9-4.2,4.2-4.2h137.5c2.3,0,4.2,1.9,4.2,4.2v69.5
				C334.6,153.9,332.7,155.8,330.4,155.8z"/>
		</g>
		<g>
			<rect x="200.6" y="89.9" class="st1" width="34.2" height="10.9"/>
		</g>
		<g>
			<rect x="200.6" y="107.6" class="st1" width="20.3" height="10.9"/>
		</g>
	</g>
</g>
<g>
	<g>
		
			<ellipse transform="matrix(0.9972 -7.502807e-002 7.502807e-002 0.9972 -6.2629 21.3532)" class="st8" cx="281.1" cy="94" rx="3.1" ry="3.1"/>
		
			<ellipse transform="matrix(0.9972 -7.504514e-002 7.504514e-002 0.9972 -6.484 21.3881)" class="st8" cx="281.4" cy="97" rx="3.1" ry="3.1"/>
		
			<ellipse transform="matrix(0.9972 -7.497963e-002 7.497963e-002 0.9972 -6.8827 20.3175)" class="st8" cx="267.2" cy="101.8" rx="2.8" ry="2.8"/>
	</g>
	<g>
		<g>
			<g>
				<path class="st1" d="M289.3,93.8l1.6-1.3l-2.4-3c-0.4-0.4-1-0.5-1.4-0.2c-0.5,0.4-0.5,1-0.2,1.5L289.3,93.8z"/>
				<path class="st1" d="M290.8,92.7l1.7-1.2l-2.3-3.1c-0.3-0.5-1-0.6-1.4-0.2c-0.5,0.3-0.6,1-0.2,1.4L290.8,92.7z"/>
				<path class="st1" d="M292.6,94.1l1.5-1.6l-2-3.3c-0.3-0.5-0.9-0.6-1.4-0.3c-0.5,0.3-0.6,0.9-0.3,1.4L292.6,94.1z"/>
				<path class="st1" d="M291.8,94.1l0.1-0.2l-3.5-0.9c-0.5-0.1-1.1,0.2-1.2,0.8c-0.1,0.6,0.2,1.1,0.7,1.3l1.8,0.5
					C290.6,95.7,291.6,95.1,291.8,94.1"/>
				<polygon class="st1" points="289.2,93.6 291.1,95.6 293.2,93.9 292.1,91.3 				"/>
			</g>
			
				<ellipse transform="matrix(0.8301 -0.5576 0.5576 0.8301 -2.7147 178.8618)" class="st1" cx="292.1" cy="93.9" rx="2.4" ry="2.4"/>
			<g>
				
					<rect x="291.5" y="94.6" transform="matrix(0.9728 -0.2315 0.2315 0.9728 -15.1644 70.6799)" class="st1" width="4.3" height="10.8"/>
				
					<ellipse transform="matrix(0.9729 -0.2313 0.2313 0.9729 -16.3366 71.0552)" class="st1" cx="294.9" cy="105.2" rx="2.1" ry="2.1"/>
			</g>
		</g>
		
			<rect x="287.1" y="107.1" transform="matrix(0.5884 -0.8086 0.8086 0.5884 31.9009 281.0329)" class="st1" width="9.8" height="4.3"/>
	</g>
	<g>
		<g>
			
				<rect x="286.2" y="110.9" transform="matrix(0.5885 -0.8085 0.8085 0.5885 27.2997 280.2944)" class="st9" width="5.6" height="4.9"/>
			<path class="st9" d="M289.3,117c0.8-1.1,0.6-2.6-0.5-3.4c-1.1-0.8-2.6-0.6-3.4,0.5c-0.8,1.1-0.6,2.6,0.5,3.4
				C287,118.4,288.5,118.1,289.3,117z"/>
		</g>
	</g>
	<path class="st6" d="M296.1,131.7c-1.9,1.3-2.6,3.8-1.7,5.9l-0.2,0.1c-1.6-1.5-4.2-1.8-6.1-0.4c-2.2,1.5-2.7,4.6-1.2,6.8
		c1.5,2.2,4.6,2.7,6.8,1.2l8-5.6c2.2-1.5,2.7-4.6,1.2-6.8C301.3,130.7,298.3,130.1,296.1,131.7z"/>
	<g>
		<g>
			<g>
				<g>
					<g>
						<polygon class="st1" points="296.2,155.8 304.8,155.8 307.4,152.8 302.5,148.5 						"/>
					</g>
					<g>
						
							<ellipse transform="matrix(0.6589 -0.7522 0.7522 0.6589 -9.3335 280.7945)" class="st1" cx="304.9" cy="150.7" rx="3.3" ry="3.2"/>
					</g>
				</g>
			</g>
			<g>
				<g>
					
						<rect x="299.4" y="146.7" transform="matrix(0.5234 -0.8521 0.8521 0.5234 17.0522 329.0989)" class="st1" width="6.5" height="5.2"/>
				</g>
				<g>
					
						<ellipse transform="matrix(0.5233 -0.8521 0.8521 0.5233 16.9554 331.6917)" class="st1" cx="304.9" cy="150.7" rx="3.2" ry="3.2"/>
				</g>
			</g>
		</g>
	</g>
	
		<rect x="292.6" y="138.3" transform="matrix(0.5235 -0.852 0.852 0.5235 17.3049 322.1939)" class="st6" width="8.1" height="14.7"/>
	
		<rect x="284.6" y="136.8" transform="matrix(0.8203 -0.5719 0.5719 0.8203 -25.8614 193.082)" class="st6" width="19.5" height="1.8"/>
	<path class="st9" d="M281.3,113.7C281.3,113.7,281.3,113.7,281.3,113.7L281.3,113.7l-5,3.5c-3,2.1-3.8,6.3-1.7,9.3l10.3,14.8
		l16-11.1l-10.3-14.8C288.5,112.3,284.4,111.6,281.3,113.7z"/>
	
		<rect x="283.7" y="135.6" transform="matrix(0.8204 -0.5719 0.5719 0.8204 -25.26 192.2924)" class="st6" width="19.5" height="1.5"/>
	<path class="st1" d="M281.1,118.6L281.1,118.6c1.7-1.2,2.2-3.6,1-5.4l-2.6-3.7l-6.3,4.4l2.6,3.7
		C276.9,119.4,279.3,119.8,281.1,118.6"/>
	<path class="st1" d="M272.9,93.5c-4.5,1.3-6.4,4.7-5.1,9.3l1.1,6.5c1.3,4.5,6,7.2,10.5,5.9c4.5-1.3,7.2-6,5.9-10.5l-0.7-2.5
		l-1.1-3.7c-0.5-1.6-1.3-2.9-2.5-4C281.1,94.3,275.8,92.7,272.9,93.5z"/>
	<path class="st5" d="M279.8,110.3L279.8,110.3c-1.3,0.4-2.6-0.4-3-1.7l0-0.1l4.6-1.3l0,0.1C281.8,108.6,281.1,110,279.8,110.3"/>
	<g>
		
			<rect x="268.3" y="127.2" transform="matrix(0.3183 -0.948 0.948 0.3183 63.6643 347.179)" class="st1" width="9.8" height="4.3"/>
		<g>
			<g>
				<g>
					<path class="st1" d="M278.5,145.6l-1.9,0.9l1.6,3.5c0.2,0.5,0.9,0.7,1.4,0.5c0.5-0.2,0.7-0.9,0.5-1.4L278.5,145.6z"/>
					<path class="st1" d="M276.7,146.3l-1.9,0.8l1.5,3.6c0.2,0.5,0.8,0.8,1.4,0.6c0.5-0.2,0.8-0.8,0.6-1.4L276.7,146.3z"/>
					<path class="st1" d="M275.2,144.5l-1.9,1.2l1.2,3.7c0.2,0.5,0.8,0.8,1.3,0.7c0.5-0.2,0.8-0.8,0.7-1.3L275.2,144.5z"/>
					<path class="st1" d="M276,144.7l-0.1,0.2l3.2,1.7c0.5,0.3,1.1,0,1.3-0.5c0.3-0.5,0.1-1.1-0.4-1.4l-1.6-0.9
						C277.6,143.5,276.5,143.8,276,144.7"/>
					<polygon class="st1" points="278.4,145.8 277.1,143.4 274.6,144.6 275.1,147.3 					"/>
				</g>
				
					<ellipse transform="matrix(0.9387 -0.3448 0.3448 0.9387 -33.0336 103.9174)" class="st1" cx="275.7" cy="144.8" rx="2.4" ry="2.4"/>
			</g>
			<g>
				
					<rect x="271.4" y="133.7" transform="matrix(0.9413 -0.3375 0.3375 0.9413 -30.8855 100.4779)" class="st1" width="4.3" height="10.8"/>
				<ellipse transform="matrix(0.941 -0.3385 0.3385 0.941 -29.3171 99.8662)" class="st1" cx="271.7" cy="134" rx="2.1" ry="2.1"/>
			</g>
		</g>
	</g>
	<g>
		<g>
			
				<rect x="272" y="122" transform="matrix(0.3174 -0.9483 0.9483 0.3174 69.5671 345.5865)" class="st9" width="5.6" height="4.9"/>
			
				<ellipse transform="matrix(0.3171 -0.9484 0.9484 0.3171 72.7726 344.6676)" class="st9" cx="275.7" cy="121.8" rx="2.4" ry="2.4"/>
		</g>
	</g>
	<g>
		<path class="st9" d="M282.2,104.2c-0.5,0-1-0.3-1.1-0.8c-0.2-0.6,0.2-1.3,0.8-1.4c0.1,0,0.2,0,0.3,0c0.5,0,1,0.3,1.1,0.8
			c0.1,0.3,0,0.6-0.1,0.9c-0.2,0.3-0.4,0.5-0.7,0.5C282.4,104.2,282.3,104.2,282.2,104.2L282.2,104.2z"/>
		<ellipse transform="matrix(0.9621 -0.2727 0.2727 0.9621 -17.4049 80.8768)" class="st9" cx="282.2" cy="103" rx="1.1" ry="1.1"/>
		<path class="st9" d="M274.6,106.4c-0.5,0-1-0.3-1.1-0.9c-0.2-0.6,0.2-1.3,0.8-1.4c0.1,0,0.2,0,0.3,0c0.5,0,1,0.4,1.1,0.9
			c0.1,0.3,0.1,0.6-0.1,0.9c-0.2,0.3-0.4,0.5-0.7,0.6C274.8,106.3,274.7,106.4,274.6,106.4L274.6,106.4z"/>
		<ellipse transform="matrix(0.963 -0.2695 0.2695 0.963 -18.1879 77.9146)" class="st9" cx="274.6" cy="105.2" rx="1.1" ry="1.1"/>
	</g>
	<path class="st8" d="M319.6,107.8l1.9,3.2l3.5-2l-1.9-3.2l-3.8-6.6C318,101.9,318,105.1,319.6,107.8z"/>
	<g>
		<g>
			
				<rect x="305.2" y="110.9" transform="matrix(0.7186 -0.6955 0.6955 0.7186 9.1075 250.7239)" class="st1" width="18.2" height="6.5"/>
			<path class="st1" d="M305.5,118.1c1.3-1.2,3.3-1.2,4.6,0.1c1.2,1.3,1.2,3.3-0.1,4.6c-1.3,1.2-3.3,1.2-4.6-0.1
				C304.2,121.4,304.2,119.4,305.5,118.1z"/>
		</g>
		<g>
			
				<rect x="303.9" y="119.5" transform="matrix(0.4666 -0.8845 0.8845 0.4666 54.8978 336.6123)" class="st1" width="5.2" height="6.5"/>
			
				<ellipse transform="matrix(0.4665 -0.8845 0.8845 0.4665 57.6562 336.4962)" class="st1" cx="307.8" cy="120.5" rx="3.2" ry="3.2"/>
		</g>
	</g>
	
		<rect x="295.9" y="124.9" transform="matrix(0.4668 -0.8844 0.8844 0.4668 47.6086 336.9817)" class="st6" width="14.7" height="8.1"/>
	<g>
		<ellipse transform="matrix(0.9905 -0.1375 0.1375 0.9905 -9.9687 39.1432)" class="st8" cx="278.4" cy="91.7" rx="2.9" ry="2.9"/>
		
			<ellipse transform="matrix(8.634813e-003 -1 1 8.634813e-003 176.1598 362.9062)" class="st8" cx="271.1" cy="92.6" rx="3.6" ry="3.6"/>
		
			<ellipse transform="matrix(8.606574e-003 -1 1 8.606574e-003 166.6499 365.2894)" class="st8" cx="267.5" cy="98.6" rx="3.3" ry="3.3"/>
		
			<ellipse transform="matrix(8.912953e-003 -1 1 8.912953e-003 170.3854 360.856)" class="st8" cx="267.2" cy="94.5" rx="2.4" ry="2.4"/>
		<ellipse transform="matrix(0.9905 -0.1376 0.1376 0.9905 -9.8745 38.6633)" class="st8" cx="274.6" cy="90.7" rx="2.6" ry="2.6"/>
		<path class="st8" d="M273,92.4c-4.5,1.3-7.2,6-5.9,10.5c0,0,1.8,6.3,1.8,6.3l1.9-0.5l-2.3-8.1c-0.4-1.5,0.5-3.1,2-3.6
			c0.8-0.2,1.5-0.1,2.2,0.3l0,0c1.1,0.6,2.3,0.7,3.3,0.4l1.6-0.5c1.1-0.3,2-1,2.6-2.1l0,0c0.2-0.3,0.4-0.6,0.8-0.9
			C279,92.4,275.9,91.6,273,92.4z"/>
		
			<ellipse transform="matrix(9.053178e-003 -1 1 9.053178e-003 183.0535 372.776)" class="st8" cx="279.6" cy="94" rx="1.8" ry="1.8"/>
		
			<ellipse transform="matrix(9.003303e-003 -1 1 9.003303e-003 179.3789 372.5192)" class="st8" cx="277.6" cy="95.8" rx="2.5" ry="2.5"/>
		
			<ellipse transform="matrix(8.637797e-003 -1 1 8.637797e-003 175.9927 370.0132)" class="st8" cx="274.6" cy="96.2" rx="2.3" ry="2.3"/>
		
			<ellipse transform="matrix(9.209810e-003 -1 1 9.209810e-003 173.1735 366.3502)" class="st8" cx="271.5" cy="95.8" rx="2.2" ry="2.2"/>
		
			<ellipse transform="matrix(8.946219e-003 -1 1 8.946219e-003 170.331 364.8917)" class="st8" cx="269.3" cy="96.5" rx="2" ry="2"/>
	</g>
	<ellipse transform="matrix(0.9811 -0.1936 0.1936 0.9811 -11.9821 61.9102)" class="st2" cx="310.7" cy="92.3" rx="7" ry="7"/>
	<path class="st9" d="M312.6,88.9l1-3c-0.4-0.2-0.8-0.3-1.2-0.4l-1,3l-2.6,0.5l-2.1-2.4c-0.4,0.3-0.7,0.5-1,0.9l2.1,2.4l-0.9,2.5
		l-3.1,0.6c0,0.2,0.1,0.4,0.1,0.6c0,0.2,0.1,0.4,0.2,0.6l3.1-0.6l1.8,2l-1,3c0.4,0.2,0.8,0.3,1.2,0.4l1-3l2.6-0.5l2.1,2.4
		c0.4-0.3,0.7-0.5,1-0.9l-2.1-2.4l0.9-2.5l3.1-0.6c0-0.2,0-0.4-0.1-0.6c0-0.2-0.1-0.4-0.2-0.6l-3.1,0.6L312.6,88.9z M312.5,94.3
		l-2.6,0.5l-1.8-2l0.9-2.5l2.6-0.5l1.8,2L312.5,94.3z"/>
	<g>
		<path class="st1" d="M270.2,110.3l-0.3,0.1c-1.1,0.3-2.3-0.3-2.6-1.5c-0.3-1.1,0.3-2.3,1.5-2.6l0.3-0.1L270.2,110.3z"/>
	</g>
</g>
<g>
	<path class="st2" d="M141.8,240.4H4.2c-2.3,0-4.2-1.9-4.2-4.2v-69.5c0-2.3,1.9-4.2,4.2-4.2h137.5c2.3,0,4.2,1.9,4.2,4.2v69.5
		C146,238.5,144.1,240.4,141.8,240.4z"/>
	<rect x="12" y="174.5" class="st9" width="34.2" height="10.9"/>
	<rect x="12" y="192.2" class="st9" width="20.3" height="10.9"/>
	<rect x="12" y="211.4" class="st0" width="34.2" height="16.9"/>
	<polygon class="st1" points="34.2,218.8 30.2,218.8 30.2,214.8 28,214.8 28,218.8 24,218.8 24,220.9 28,220.9 28,225 30.2,225 
		30.2,220.9 34.2,220.9 	"/>
	<path class="st9" d="M134.6,222.9c0,2.4-1.9,4.3-4.3,4.3H65.9c-2.4,0-4.3-1.9-4.3-4.3l0,0c0-2.4,1.9-4.3,4.3-4.3h64.3
		C132.6,218.6,134.6,220.5,134.6,222.9L134.6,222.9z"/>
	<path class="st1" d="M98,189c-3.8,1.6-6.5,5.4-6.5,9.9V213c0,4.4,2.7,8.2,6.5,9.9c3.8-1.6,6.5-5.4,6.5-9.9v-14.2
		C104.6,194.4,101.9,190.6,98,189z"/>
	<g>
		<path class="st14" d="M85.3,194.2c-2.6,2.8-3.4,7-1.8,10.7l5.4,12.1c1.7,3.7,5.3,5.9,9.2,5.8c2.6-2.8,3.4-7,1.8-10.7L94.4,200
			C92.8,196.3,89.1,194.1,85.3,194.2z"/>
		<path class="st14" d="M110.8,194.2c2.6,2.8,3.4,7,1.8,10.7l-5.4,12.1c-1.7,3.7-5.3,5.9-9.2,5.8c-2.6-2.8-3.4-7-1.8-10.7l5.4-12.1
			C103.3,196.3,107,194.1,110.8,194.2z"/>
	</g>
	<g>
		<g>
			<path class="st7" d="M72,202c-0.6,3.8,1.1,7.7,4.5,9.9l13.1,8.1c3.5,2.2,7.7,1.9,10.9-0.3c0.6-3.8-1.1-7.7-4.5-9.9l-13.1-8.1
				C79.4,199.6,75.1,199.8,72,202z"/>
			<path class="st7" d="M124.1,202c0.6,3.8-1.1,7.7-4.5,9.9l-13.1,8.1c-3.5,2.2-7.7,1.9-10.9-0.3c-0.6-3.8,1.1-7.7,4.5-9.9l13.1-8.1
				C116.7,199.6,121,199.8,124.1,202z"/>
		</g>
	</g>
	<g>
		<path class="st11" d="M86.9,209.9H66.4v1.9c0,6.1,5,11.1,11.1,11.1H98V221C98,214.9,93.1,209.9,86.9,209.9z"/>
		<path class="st11" d="M109.2,209.9h20.5v1.9c0,6.1-5,11.1-11.1,11.1H98V221C98,214.9,103,209.9,109.2,209.9z"/>
	</g>
</g>
<path class="st9" d="M256.7,205H93.3c-2.3,0-4.2-1.9-4.2-4.2v-83.3c0-2.3,1.9-4.2,4.2-4.2h163.5c2.3,0,4.2,1.9,4.2,4.2v83.3
	C260.9,203.1,259,205,256.7,205z"/>
<path class="st11" d="M188,187.1c-6.1,0-11.1-5-11.1-11.1c0-6.1,5-11.1,11.1-11.1c6.1,0,11.1,5,11.1,11.1
	C199,182.1,194.1,187.1,188,187.1z"/>
<circle class="st7" cx="188" cy="176" r="9.2"/>
<rect x="47.4" y="52.8" class="st5" width="69.2" height="37"/>
<rect x="53.1" y="58.5" class="st0" width="16.2" height="5.2"/>
<rect x="53.1" y="66.9" class="st0" width="9.6" height="5.2"/>
<rect x="53.1" y="76.1" class="st1" width="16.2" height="8"/>
<rect x="86.3" y="61" class="st0" width="21" height="20.5"/>
<rect x="1.4" y="102.1" class="st14" width="33.2" height="15.8"/>
<rect x="206.5" y="235.9" class="st0" width="38.9" height="18.6"/>
<rect x="357.3" y="159.1" class="st0" width="25.7" height="12.3"/>
<rect x="284.4" y="193.6" class="st2" width="72.9" height="38.9"/>
<rect x="290.4" y="199.5" class="st5" width="17.1" height="5.5"/>
<rect x="290.4" y="208.4" class="st5" width="10.2" height="5.5"/>
<rect x="290.4" y="218" class="st4" width="17.1" height="8.5"/>
<rect x="325.4" y="202.2" class="st5" width="22.1" height="21.6"/>
<rect x="103.2" y="127.4" class="st8" width="40.3" height="12.9"/>
<rect x="103.2" y="148.2" class="st8" width="23.9" height="12.9"/>
<rect x="103.2" y="170.9" class="st2" width="40.3" height="19.9"/>
<polygon class="st1" points="129.3,179.6 124.5,179.6 124.5,174.9 122.1,174.9 122.1,179.6 117.3,179.6 117.3,182.1 122.1,182.1 
	122.1,186.8 124.5,186.8 124.5,182.1 129.3,182.1 "/>
<g>
	<path class="st6" d="M174.5,123c0,2.2-1.4,3.4-2.9,3.4c-1.6,0-2.9-1.2-2.9-3.2c0-1.9,1.2-3.3,3-3.3
		C173.4,119.8,174.5,121.1,174.5,123z M170.5,123.1c0,1.1,0.4,1.9,1.1,1.9c0.7,0,1-0.7,1-1.9c0-1.1-0.3-1.9-1.1-1.9
		C170.8,121.2,170.5,122,170.5,123.1z M171.6,130.8l6.1-11h1.3l-6.1,11H171.6z M182.1,127.4c0,2.2-1.4,3.4-2.9,3.4
		c-1.6,0-2.9-1.2-2.9-3.2c0-1.9,1.2-3.3,3-3.3C181.1,124.2,182.1,125.6,182.1,127.4z M178.1,127.5c0,1.1,0.4,1.9,1.1,1.9
		c0.7,0,1-0.7,1-1.9c0-1.1-0.3-1.9-1-1.9C178.5,125.6,178.1,126.4,178.1,127.5z"/>
</g>
<path class="st6" d="M190.4,128.5c-3,0-5.5,2.4-5.5,5.5v40.2c0-3,2.5-5.5,5.5-5.5h45.2v-40.2H190.4z"/>
<g>
	<path class="st4" d="M189.8,126.2c-1.9,0.2-3.3,1.9-3.2,3.8l3.3,37.3c-0.2-1.9,1.2-3.6,3.2-3.8l41.7-3.7l-3.3-37.3L189.8,126.2z"/>
	<g>
		<path class="st2" d="M188,127.6c-1.8,0.5-2.9,2.5-2.4,4.3l10.4,36c-0.5-1.8,0.5-3.8,2.4-4.3l36.5-10.6l-10.4-36L188,127.6z"/>
		<path class="st1" d="M189,131c-1.8,0.5-2.9,2.5-2.4,4.3l8.5,29.2c-0.5-1.8,0.5-3.8,2.4-4.3l32.5-9.5l-8.5-29.2L189,131z"/>
		<polygon class="st8" points="207.8,128.4 207,125.7 221.5,121.5 222.3,124.2 		"/>
		<polygon class="st8" points="219.6,153.7 218.4,149.5 228.7,146.4 230,150.7 		"/>
		<ellipse transform="matrix(0.9604 -0.2785 0.2785 0.9604 -30.168 64.642)" class="st8" cx="212.4" cy="138.5" rx="5.5" ry="5.5"/>
	</g>
</g>
<path class="st8" d="M193.2,131.2c-1.9,0-3.5,1.6-3.5,3.5v40.2c0-1.9,1.6-3.5,3.5-3.5h42.5v-40.2H193.2z"/>
<path class="st6" d="M233,197.2l-41.3-19.1l0,0c-1.2-0.6-2-1.8-2-3.1v-40.2c0,1.4,0.8,2.6,2,3.2h0L233,157V197.2z"/>
<path class="st15" d="M163.2,185.8c-4.1,0-7.4-3.3-7.4-7.4c0-4.1,3.3-7.4,7.4-7.4c4.1,0,7.4,3.3,7.4,7.4
	C170.6,182.5,167.3,185.8,163.2,185.8z"/>
<circle class="st11" cx="163.2" cy="178.4" r="5.4"/>
<path class="st11" d="M168.8,168.8c-6.1,0-11.1-5-11.1-11.1c0-6.1,5-11.1,11.1-11.1c6.1,0,11.1,5,11.1,11.1
	C179.9,163.8,174.9,168.8,168.8,168.8z"/>
<circle class="st7" cx="168.8" cy="157.7" r="9.2"/>
<g>
	<path class="st11" d="M167.9,154.9L167.9,154.9l-1.9,0.9l-0.4-1.7l2.6-1.2h1.9v9.7h-2.2V154.9z"/>
</g>
<path class="st2" d="M228.8,192.5l-41.3-19.1l0,0c-1.2-0.6-2-1.8-2-3.1V130c0,1.4,0.8,2.6,2,3.2h0l41.3,19.1V192.5z"/>
<polygon class="st6" points="233,157 230.6,158.6 230.6,198.8 233,197.2 "/>
<path class="st8" d="M230.6,198.8l-42.5-19.7h0c-1.9-0.9-3.2-2.8-3.2-5v-40.2c0,2.2,1.3,4.1,3.2,5h0l42.5,19.7V198.8z"/>
<path class="st6" d="M238.5,182.9c0,1.7-1.4,2.4-3.1,1.7l-6.4-2.9c-1.7-0.8-3.1-2.8-3.1-4.5v-3.9c0-1.7,1.4-2.4,3.1-1.7l6.4,2.9
	c1.7,0.8,3.1,2.8,3.1,4.5V182.9z"/>
<path class="st9" d="M235.6,179.6c0,0.7-0.6,1.1-1.3,0.7l0,0c-0.7-0.3-1.3-1.2-1.3-1.9l0,0c0-0.7,0.6-1.1,1.3-0.7l0,0
	C235,178,235.6,178.9,235.6,179.6L235.6,179.6z"/>
</svg>
