<?xml version="1.0" encoding="utf-8"?>
<!-- Generator: Adobe Illustrator 19.2.0, SVG Export Plug-In . SVG Version: 6.00 Build 0)  -->
<svg version="1.1" id="Layer_4" xmlns="http://www.w3.org/2000/svg"  x="0px" y="0px"
	 width="384px" height="300px" viewBox="0 0 384 300" style="enable-background:new 0 0 384 300;" xml:space="preserve">
<style type="text/css">
	.st0{fill:#E4EFFF;}
	.st1{fill:#FFFFFF;}
	.st2{fill:#80C3FF;}
	.st3{opacity:0.5;}
	.st4{fill:#CAE3FF;}
	.st5{fill:#B9DAFF;}
	.st6{fill:#1C67C6;}
	.st7{fill:#FFD87D;}
	.st8{fill:#2C7ED4;}
	.st9{fill:#52A8FF;}
	.st10{opacity:0.4;}
	.st11{fill:#EBC269;}
	.st12{fill:#1462B7;}
	.st13{fill:#E0B35A;}
	.st14{fill:#FFEFBB;}
	.st15{fill:#F5E690;}
	.st16{fill:none;stroke:#CAE3FF;stroke-width:5.9639;stroke-miterlimit:10;}
	.st17{fill:#FFE271;}
	.st18{fill:#EDD059;}
	.st19{fill:none;stroke:#E4EFFF;stroke-width:1.1928;stroke-miterlimit:10;}
	.st20{fill:#FBFBFB;}
	.st21{fill:#1C67D2;}
	.st22{fill:#2C7EE0;}
	.st23{fill:#52B4FF;}
	.st24{fill:#82CFFF;}
	.st25{fill:#348AEA;}
	.st26{fill:#D6EFFF;}
	.st27{fill:none;stroke:#231F20;stroke-miterlimit:10;}
	.st28{fill:#E9E9E9;}
</style>
<rect x="75.6" y="109.4" class="st8" width="121" height="128.5"/>
<rect x="196.6" y="109.4" class="st8" width="121" height="128.5"/>
<path class="st9" d="M313.9,104H215c-8.1,0-15.1,2.2-18.4,5.5v128.5c3.3-3.2,10.3-5.5,18.4-5.5h98.9V104z"/>
<path class="st9" d="M79.3,104h98.9c8.1,0,15.1,2.2,18.4,5.5v128.5c-3.3-3.2-10.3-5.5-18.4-5.5H79.3V104z"/>
<path class="st2" d="M196.6,237.9c-3.1-6.5-9.7-11-17.4-11H85.8V98.5h93.4c7.7,0,14.3,4.5,17.4,11V237.9z"/>
<rect x="87.2" y="215.2" class="st0" width="13.7" height="9.6"/>
<rect x="90.1" y="218.1" class="st9" width="7.8" height="3.7"/>
<rect x="301.8" y="223.6" class="st8" width="7.8" height="3.7"/>
<path class="st9" d="M184.4,151.8c-1.7-0.3-3.4-0.4-5.1-0.4H97.5v5.9h81.7c1.7,0,3.4,0.2,5.1,0.5V151.8z"/>
<rect x="280" y="174.8" class="st8" width="22.2" height="5.9"/>
<rect x="94.6" y="111" class="st0" width="83.8" height="11.7"/>
<path class="st9" d="M179.2,132.7h-31.9v5.9h31.9c1.7,0,3.4,0.2,5.1,0.5v-5.9C182.7,132.8,181,132.7,179.2,132.7z"/>
<rect x="94.6" y="129.8" class="st0" width="42.8" height="11.7"/>
<g>
	<g>
		<rect x="125.6" y="170.2" class="st9" width="43.9" height="5.9"/>
		<rect x="97.5" y="170.2" class="st9" width="15.2" height="5.9"/>
	</g>
</g>
<path class="st9" d="M179.2,207.6h-40.7v5.9h40.7c1.7,0,3.4,0.2,5.1,0.5l1.1-5.8C183.4,207.8,181.3,207.6,179.2,207.6z"/>
<rect x="97.5" y="188.9" class="st9" width="79.7" height="5.9"/>
<path class="st8" d="M215,194c-2.1,0-4.3,0.1-6.3,0.4v5.9c2-0.2,4.2-0.4,6.3-0.4h68.2V194H215z"/>
<path class="st8" d="M215,155.7c-2.1,0-4.3,0.1-6.3,0.4v5.9c2-0.3,4.2-0.4,6.3-0.4h28.1v-5.9H215z"/>
<path class="st8" d="M215,117.4c-2.1,0-4.3,0.1-6.3,0.4v5.9c2-0.3,4.2-0.4,6.3-0.4h28.1v-5.9H215z"/>
<path class="st8" d="M215,174.8c-2.1,0-4.3,0.1-6.3,0.4v5.9c2-0.3,4.2-0.4,6.3-0.4h52.1v-5.9H215z"/>
<path class="st4" d="M205.8,210.9l2.6-0.3c2.3-0.2,4.5-0.4,6.6-0.4h90.1v11.7H215c-2,0-4,0.1-6,0.4l-3.3,0.4V210.9z"/>
<rect x="251.8" y="117.4" class="st7" width="50.4" height="44.1"/>
<path class="st11" d="M302.2,161.6V144l-2.7-2.7c0,0-4.3-2.7-6.1-2.2c-4.3,1.1-9.9,4.6-9.9,4.6l-13,13c-1.3,1.3-2,3-2,4.8H302.2z"/>
<path class="st1" d="M297.6,139.5c-2.7-2.7-7-2.7-9.7,0l-4.4,4.4l1,1c1.5,1.5,3.9,1.5,5.4,0l4.3-4.3l0.7,0.7
	c1.3,1.3,3.3,1.3,4.6,0.1L297.6,139.5z"/>
<path class="st13" d="M293.8,159.4l-17.1-17.1c0,0-10.2-7.3-13.1-6.5c-5.2,1.4-11,4.7-11,4.7l-0.8,0.8v20.2h43.6
	C295,160.8,294.4,160.1,293.8,159.4z"/>
<path class="st1" d="M256.9,136.2l-4.3,4.3l1.1,1.1c2.3,2.3,6,2.3,8.3,0l0.5-0.5c1.2,0.6,2.6,0.8,3.9,0.5l1.3,1.3
	c2.3,2.3,6,2.3,8.3,0l0.6-0.6l-6.1-6.1C266.8,132.4,260.7,132.4,256.9,136.2z"/>
<polygon class="st1" points="272,148.2 254.8,148.2 254.8,152.3 254.8,155.1 254.8,159.2 265.2,159.2 265.2,155.1 272,155.1 "/>
<path class="st1" d="M251.8,117.4v11.4h0.5c2.5,0,4.5-1.6,5.2-3.9h3.1c2.6,0,4.8-1.7,5.5-4h6.5c2.1,0,3.9-1.5,4.3-3.5H251.8z"/>
<rect x="97.5" y="114" class="st9" width="77.9" height="5.9"/>
<rect x="97.5" y="132.7" class="st9" width="36.9" height="5.9"/>
<rect x="97.5" y="207.6" class="st9" width="28.1" height="5.9"/>
<path class="st8" d="M208.7,136.9v5.9c2-0.2,4.2-0.4,6.3-0.4h28.1v-5.9H215C212.9,136.6,210.8,136.7,208.7,136.9z"/>
<g>
	<g>
		<rect x="257.2" y="154.7" class="st9" width="5.6" height="2"/>
		<rect x="257.2" y="150.6" class="st9" width="12.4" height="2"/>
	</g>
</g>
<path class="st7" d="M207.4,86.9c0,3.2-2.6,5.9-5.9,5.9h-71.5c-3.2,0-5.9-2.6-5.9-5.9V66.5c0-3.2,2.6-5.9,5.9-5.9h71.5
	c3.2,0,5.9,2.6,5.9,5.9V86.9z"/>
<polygon class="st7" points="205.3,91.4 178.4,111 196.6,90.3 "/>
<path class="st4" d="M68.4,124c0,3.2-2.6,5.9-5.9,5.9H6.4c-3.2,0-5.9-2.6-5.9-5.9v-13.8c0-3.2,2.6-5.9,5.9-5.9h56.2
	c3.2,0,5.9,2.6,5.9,5.9V124z"/>
<polygon class="st4" points="65.4,105 94.6,141.5 65.4,112 "/>
<path class="st7" d="M66,212.5c0,3.2-2.6,5.9-5.9,5.9H21.5c-3.2,0-5.9-2.6-5.9-5.9v-31.3c0-3.2,2.6-5.9,5.9-5.9h38.7
	c3.2,0,5.9,2.6,5.9,5.9V212.5z"/>
<polygon class="st7" points="87.2,215.2 58,181.3 58,189.7 "/>
<polygon class="st8" points="326.3,98.8 272,148.2 324.6,111 "/>
<polygon class="st2" points="315.5,184.3 292.8,210.2 310.8,179.9 "/>
<path class="st8" d="M215,213.1c-2.1,0-4.3,0.1-6.3,0.4v5.9c2-0.2,4.2-0.4,6.3-0.4h87.2v-5.9H215z"/>
<rect x="136.1" y="68.3" class="st1" width="59.6" height="6.2"/>
<rect x="15.6" y="113.9" class="st1" width="37.7" height="6.2"/>
<rect x="136.1" y="79.8" class="st1" width="29.8" height="6.2"/>
<path class="st8" d="M384.4,123.4c0,3.2-2.6,5.9-5.9,5.9h-48c-3.2,0-5.9-2.6-5.9-5.9V103c0-3.2,2.6-5.9,5.9-5.9h48
	c3.2,0,5.9,2.6,5.9,5.9V123.4z"/>
<rect x="336.4" y="104.8" class="st1" width="36.1" height="6.2"/>
<rect x="336.4" y="116.3" class="st1" width="25.1" height="6.2"/>
<rect x="22.9" y="181.4" class="st1" width="20.9" height="6.2"/>
<rect x="22.9" y="192.9" class="st1" width="37.2" height="6.2"/>
<rect x="22.9" y="204.4" class="st1" width="28.4" height="6.2"/>
<path class="st2" d="M358.5,178.5c0,3.2-2.6,5.9-5.9,5.9h-37.2c-3.2,0-5.9-2.6-5.9-5.9v-13.8c0-3.2,2.6-5.9,5.9-5.9h37.2
	c3.2,0,5.9,2.6,5.9,5.9V178.5z"/>
<rect x="320" y="168.4" class="st1" width="28.1" height="6.2"/>
<circle class="st1" cx="282.8" cy="126.4" r="5.8"/>
</svg>
