<?xml version="1.0" encoding="utf-8"?>
<!-- Generator: Adobe Illustrator 19.2.0, SVG Export Plug-In . SVG Version: 6.00 Build 0)  -->
<svg version="1.1" id="Layer_4" xmlns="http://www.w3.org/2000/svg"  x="0px" y="0px"
	 width="384px" height="300px" viewBox="0 0 384 300" style="enable-background:new 0 0 384 300;" xml:space="preserve">
<style type="text/css">
	.st0{fill:#E4EFFF;}
	.st1{fill:#FFFFFF;}
	.st2{fill:#80C3FF;}
	.st3{opacity:0.5;}
	.st4{fill:#CAE3FF;}
	.st5{fill:#B9DAFF;}
	.st6{fill:#1C67C6;}
	.st7{fill:#FFD87D;}
	.st8{fill:#2C7ED4;}
	.st9{fill:#52A8FF;}
	.st10{opacity:0.4;}
	.st11{fill:#EBC269;}
	.st12{fill:#1462B7;}
	.st13{fill:#E0B35A;}
	.st14{fill:#FFEFBB;}
	.st15{fill:#F5E690;}
	.st16{fill:none;stroke:#CAE3FF;stroke-width:5.9639;stroke-miterlimit:10;}
	.st17{fill:#FFE271;}
	.st18{fill:#EDD059;}
	.st19{fill:none;stroke:#E4EFFF;stroke-width:1.1928;stroke-miterlimit:10;}
	.st20{fill:#FBFBFB;}
	.st21{fill:#1C67D2;}
	.st22{fill:#2C7EE0;}
	.st23{fill:#52B4FF;}
	.st24{fill:#82CFFF;}
	.st25{fill:#348AEA;}
	.st26{fill:#D6EFFF;}
	.st27{fill:none;stroke:#231F20;stroke-miterlimit:10;}
	.st28{fill:#E9E9E9;}
</style>
<path class="st0" d="M352.6,272.9H22.3c-9.9,0-17.9-8-17.9-17.9v-184c0-9.9,8-17.9,17.9-17.9h330.3c9.9,0,17.9,8,17.9,17.9v184
	C370.5,264.9,362.5,272.9,352.6,272.9z"/>
<g>
	<path class="st1" d="M96.9,69.6c6.8,0,12.4,5.6,12.4,12.4v204.4H4.4V82c0-6.8,5.6-12.4,12.4-12.4H96.9 M96.9,65.6H16.8
		c-9,0-16.4,7.4-16.4,16.4v204.4v4h4h104.8h4v-4V82C113.3,72.9,105.9,65.6,96.9,65.6L96.9,65.6z"/>
</g>
<g>
	<path class="st2" d="M185.6,112.4V183c0,15.2,12.3,27.5,27.5,27.5h106.3c15.2,0,27.5-12.3,27.5-27.5v-70.6H185.6z"/>
	<path class="st2" d="M267.7,106.7h79.1v-9.6c0-15.2-12.3-27.5-27.5-27.5h-51.6V106.7z"/>
	<path class="st2" d="M264.6,106.7V69.6H213c-15.2,0-27.5,12.3-27.5,27.5v9.6H264.6z"/>
</g>
<g class="st3">
	<path class="st1" d="M319.3,69.6h-5l32.5,32.5v-5.1c0-0.3,0-0.5,0-0.8l-26.7-26.7C319.8,69.6,319.5,69.6,319.3,69.6z"/>
	<polygon class="st1" points="324.3,112.4 346.8,134.8 346.8,120.8 338.4,112.4 	"/>
	<polygon class="st1" points="318.6,106.7 332.7,106.7 295.6,69.6 281.5,69.6 	"/>
</g>
<rect x="152.1" y="77.1" class="st1" width="23.2" height="46.5"/>
<rect x="156.8" y="82.2" class="st4" width="13.8" height="14"/>
<rect x="4.3" y="30.7" class="st4" width="132.8" height="8.2"/>
<g>
	<g>
		<path class="st4" d="M283.7,57.4H136.2v-8.2h147.5c12.9,0,23.4-10.5,23.4-23.4V14.1h8.2v11.7C315.3,43.2,301.1,57.4,283.7,57.4z"
			/>
	</g>
</g>
<rect x="133" y="14.1" class="st4" width="8.2" height="43.3"/>
<rect x="358.5" y="117.3" class="st1" width="24" height="56.2"/>
<rect x="133" y="57.4" class="st4" width="8.2" height="215.5"/>
<path class="st2" d="M95.6,157.6c0,15.2-12.3,27.5-27.5,27.5H45.5c-15.2,0-27.5-12.3-27.5-27.5v-47.5c0-15.2,12.3-27.5,27.5-27.5
	h22.7c15.2,0,27.5,12.3,27.5,27.5V157.6z"/>
<g class="st3">
	<path class="st1" d="M95.6,150.7V114L64.2,82.6H45.5c-5.1,0-9.9,1.4-14,3.9L95.6,150.7z"/>
	<path class="st1" d="M21.6,96.5c-2.2,3.8-3.4,8.2-3.6,12.8l68.6,68.6c2.9-2.7,5.3-5.9,6.8-9.6L21.6,96.5z"/>
</g>
<rect x="130.1" y="27.9" class="st0" width="14.1" height="13.9"/>
<rect x="130.1" y="46.2" class="st0" width="14.1" height="13.9"/>
<path class="st4" d="M15.8,205.9c0,1.7-1.4,3.1-3.1,3.1l0,0c-1.7,0-3.1-1.4-3.1-3.1v-11.6c0-1.7,1.4-3.1,3.1-3.1l0,0
	c1.7,0,3.1,1.4,3.1,3.1V205.9z"/>
<rect x="240.6" y="244.5" class="st6" width="27.7" height="28.4"/>
<rect x="201.6" y="244.5" class="st6" width="27.7" height="28.4"/>
<g>
	<g>
		<g>
			<g>
				<path class="st7" d="M287.1,108.8l7.3-2.5l-2-5.9c-0.7-2-2.9-3.1-4.9-2.4c-2,0.7-3.1,2.9-2.4,4.9L287.1,108.8z"/>
			</g>
			<g>
				<path class="st7" d="M293.9,106.9l7.4-2.2l-2-6.9c-0.6-2.1-2.7-3.2-4.8-2.6c-2.1,0.6-3.2,2.8-2.6,4.8L293.9,106.9z"/>
			</g>
			<g>
				<path class="st7" d="M298.4,113.7l7.7-2.7l-1.1-12c-0.2-2.1-2.1-3.7-4.2-3.5c-2.1,0.2-3.7,2.1-3.5,4.2L298.4,113.7z"/>
			</g>
			<g>
				<path class="st7" d="M295.7,113l0.5-0.8l-11.2-7.6c-1.7-1.1-3.9-0.6-5.1,1.2c-1.1,1.8-0.7,4.2,0.9,5.3l5.6,3.8
					C289.6,117,293.8,116.1,295.7,113"/>
			</g>
			<g>
				<polygon class="st7" points="287.4,107.8 291.3,117.3 301,113.9 300.5,103.6 				"/>
			</g>
		</g>
		<g>
			<path class="st7" d="M306,110.4c-1.2-4.9-6.1-7.8-11-6.6c-4.9,1.2-7.8,6.2-6.6,11c1.2,4.9,6.2,7.8,11,6.6
				C304.3,120.2,307.3,115.3,306,110.4z"/>
		</g>
	</g>
</g>
<g>
	<g>
		<g>
			<path class="st7" d="M160.7,172.7l-2.3,7.4l-13.7-4.3c-2-0.6-3.2-2.8-2.5-4.8c0.6-2,2.8-3.2,4.8-2.5L160.7,172.7z"/>
		</g>
		<g>
			<path class="st7" d="M159,179.5l-2,7.5l-13.9-3.8c-2.1-0.5-3.3-2.7-2.7-4.7c0.6-2.1,2.7-3.3,4.8-2.7L159,179.5z"/>
		</g>
		<g>
			<path class="st7" d="M166.1,184.2l-3.3,7.5l-14.1-2.6c-2.1-0.4-3.5-2.4-3.1-4.5c0.4-2.1,2.4-3.5,4.5-3.1L166.1,184.2z"/>
		</g>
		<g>
			<polygon class="st7" points="159.7,173.1 169.3,176.8 166.2,186.5 155.8,186.2 			"/>
		</g>
		<g>
			<path class="st7" d="M162.8,191.7c-4.9-1.1-8-6-6.9-10.9c1.1-4.9,6-8,10.9-6.8c4.9,1.1,8,6,6.9,10.9
				C172.5,189.7,167.7,192.7,162.8,191.7z"/>
		</g>
	</g>
</g>
<g>
	<g>
		
			<rect x="173.3" y="181.1" transform="matrix(0.7725 -0.635 0.635 0.7725 -88.1228 162.2298)" class="st8" width="18.2" height="46"/>
		<path class="st8" d="M204,216.1c-3.2-3.9-8.9-4.4-12.8-1.2c-3.9,3.2-4.5,8.9-1.3,12.8c3.2,3.9,8.9,4.4,12.8,1.3
			C206.6,225.7,207.2,220,204,216.1z"/>
	</g>
	<g>
		<polygon class="st8" points="205.4,225.2 188.5,218.6 204,179.4 220.9,186.1 		"/>
		<path class="st8" d="M220.9,186.1c-1.8,4.7-7.1,7-11.8,5.1c-4.7-1.8-7-7.1-5.1-11.8c1.8-4.7,7.1-7,11.8-5.1
			C220.5,176.1,222.8,181.4,220.9,186.1z"/>
	</g>
</g>
<path class="st6" d="M202.8,228.9c1.2-1,2.1-2.3,2.7-3.7h0l12.2-30.9c-1.3-2.2-3.6-3.8-6.3-4.2c-4.9-0.8-9.6,2.6-10.4,7.5h0
	l-5.3,33.2C198.1,231.2,200.7,230.6,202.8,228.9z"/>
<path class="st8" d="M226.6,165.1c0.1,0,0.3,0,0.4,0v0h22.2c13.8,0,25,11.2,25,25v57.2h-72.6v-57.2
	C201.6,176.3,212.8,165.1,226.6,165.1z"/>
<polygon class="st6" points="274.2,250.6 238.7,262.9 201.6,250.6 201.6,247.3 274.2,247.3 "/>
<path class="st7" d="M238.3,178.5L238.3,178.5c-7.9,0.4-14.6-5.7-15-13.7l-0.8-16.8l28.7-1.4l0.8,16.8
	C252.4,171.4,246.2,178.1,238.3,178.5"/>
<path class="st7" d="M219.3,83.1c17.3-3.2,29.1,5.3,32.3,22.5l6.9,23.4c3.2,17.3-8.2,33.9-25.5,37.1c-17.3,3.2-33.9-8.2-37.1-25.5
	l-1.8-9.7l-2.6-14.1c-1.1-6.1-0.4-12,1.6-17.4C193.2,99.5,208.1,85.2,219.3,83.1z"/>
<path class="st1" d="M223.8,151L223.8,151c4.9-0.9,8.1-5.6,7.2-10.4l-0.1-0.5l-17.6,3.2l0.1,0.5C214.3,148.7,219,151.9,223.8,151"/>
<g>
	<path class="st8" d="M236.1,118.1c0.3,1.4-0.6,2.7-2,3l-7,1.4c-1.4,0.3-2.7-0.6-3-2l0,0c-0.3-1.4,0.6-2.7,2-3l7-1.4
		C234.4,115.8,235.8,116.7,236.1,118.1L236.1,118.1z"/>
	<path class="st8" d="M197.3,126.2c0.2,1.4,1.6,2.3,2.9,2.1l7-1.2c1.4-0.2,2.3-1.6,2.1-2.9l0,0c-0.2-1.4-1.6-2.3-2.9-2.1l-7,1.2
		C198,123.5,197.1,124.8,197.3,126.2L197.3,126.2z"/>
</g>
<path class="st1" d="M217,79.8c17.3-3.2,33.9,8.2,37.1,25.5c0,0,4.4,24.1,4.5,24.2l-7.3,1.4l-5.7-30.8c-1.1-5.9-6.7-9.7-12.6-8.6
	c-2.9,0.5-5.4,2.2-6.9,4.5l0,0c-2.6,3.7-6.4,6.1-10.5,6.8l-6.2,1.1c-4.1,0.8-8.5,0-12.2-2.6l0,0c-1.2-0.8-2.5-1.4-4-1.7
	C197.1,89.6,205.8,81.9,217,79.8z"/>
<g>
	<g>
		<g>
			<path class="st7" d="M253.5,135.3l1.2-0.2c4.3-0.8,7.2-5,6.4-9.3c-0.8-4.3-5-7.2-9.3-6.4l-1.2,0.2L253.5,135.3z"/>
		</g>
	</g>
</g>
<g>
	<path class="st9" d="M209.1,132.3c0.4,2.1-1.1,4.2-3.2,4.6c-2.2,0.4-4.2-1.1-4.6-3.2c-0.4-2.1,1.1-4.2,3.2-4.6
		C206.7,128.7,208.8,130.2,209.1,132.3z"/>
	<path class="st9" d="M235.3,127.1c0.4,2.1-1.1,4.2-3.2,4.6s-4.2-1.1-4.6-3.2c-0.4-2.1,1.1-4.2,3.2-4.6
		C232.8,123.5,234.9,125,235.3,127.1z"/>
</g>
<g>
	<path class="st8" d="M302.8,107.7l-12.4,2.3c-8.1,1.5-15.9-3.9-17.4-11.9c-0.4-2.1-0.3-4.2,0.2-6.2l0.7-2.8l0,0
		c2-7.3,4.7-14.5,8.1-21.2l0.6-1.2l11.9-2.2l1,0.9c5.6,5.1,10.7,10.7,15.2,16.9l0,0l1.6,2.4c1.2,1.7,2,3.6,2.4,5.7
		C316.3,98.4,310.9,106.2,302.8,107.7z M278.5,93.4c-0.3,1.2-0.3,2.4,0,3.7c0.9,5.1,5.9,8.5,11,7.5l12.4-2.3c5.1-0.9,8.5-5.9,7.5-11
		c-0.2-1.2-0.7-2.4-1.3-3.4l-0.1-0.2c-4.4-6.3-9.4-12.2-15-17.4l-6.5,1.2c-3.4,6.8-6,14.1-7.8,21.6L278.5,93.4z"/>
</g>
<g>
	
		<rect x="284.2" y="46.6" transform="matrix(0.9833 -0.1823 0.1823 0.9833 -6.1502 53.4284)" class="st2" width="6.9" height="27.2"/>
</g>
<g>
	<g>
		<g>
			<path class="st7" d="M292.4,100.4l-7.3,2.5l2,5.8c0.7,2,2.9,3.1,4.9,2.4c2-0.7,3.1-2.9,2.4-4.9L292.4,100.4z"/>
		</g>
		<g>
			<path class="st7" d="M299.5,99.8l-7.7,0.9l0.7,6.2c0.2,2.1,2.2,3.6,4.3,3.4c2.1-0.3,3.6-2.2,3.4-4.3L299.5,99.8z"/>
		</g>
		<g>
			<path class="st7" d="M305.1,99l-7.7,0.7l0.6,6.2c0.2,2.1,2.1,3.7,4.2,3.5c2.1-0.2,3.7-2.1,3.5-4.2L305.1,99z"/>
		</g>
	</g>
</g>
<g>
	<g>
		
			<rect x="290.3" y="117.1" transform="matrix(0.996 -8.929766e-002 8.929766e-002 0.996 -11.3175 27.2944)" class="st8" width="18.2" height="46"/>
		<path class="st8" d="M310.5,162.2c-0.4-5-4.9-8.7-9.9-8.2c-5,0.4-8.7,4.9-8.2,9.9c0.4,5,4.9,8.7,9.9,8.2
			C307.3,171.7,311,167.2,310.5,162.2z"/>
	</g>
	<g>
		<polygon class="st8" points="305,171.4 297.9,154.7 259.1,171 266.2,187.7 		"/>
		<path class="st8" d="M266.2,187.7c4.6-2,6.8-7.3,4.9-11.9c-1.9-4.6-7.3-6.8-11.9-4.9c-4.6,1.9-6.8,7.3-4.9,11.9
			C256.2,187.5,261.5,189.7,266.2,187.7z"/>
	</g>
</g>
<g>
	<path class="st8" d="M165.8,189.1c0.7,1.9-0.3,4-2.1,4.7l-17.9,6.7c-1.9,0.7-4-0.3-4.7-2.2L125.8,158c-0.7-1.9,0.3-4,2.1-4.7
		l17.9-6.7c1.9-0.7,4,0.3,4.7,2.1L165.8,189.1z"/>
	<path class="st9" d="M167.8,188.3c0.7,1.9-0.3,4-2.2,4.7l-17.9,6.7c-1.9,0.7-4-0.3-4.7-2.1l-15.2-40.4c-0.7-1.9,0.3-4,2.2-4.7
		l17.9-6.7c1.9-0.7,4,0.3,4.7,2.1L167.8,188.3z"/>
	
		<rect x="135.8" y="155.2" transform="matrix(0.9363 -0.3513 0.3513 0.9363 -51.2824 62.92)" class="st1" width="23.9" height="35.3"/>
	<g>
		<g>
			
				<rect x="134.7" y="158.4" transform="matrix(0.9362 -0.3516 0.3516 0.9362 -48.0602 61.0411)" class="st0" width="18.7" height="8.9"/>
			
				<rect x="139.1" y="169.3" transform="matrix(0.9362 -0.3515 0.3515 0.9362 -51.9285 63.337)" class="st0" width="18.7" height="10.7"/>
			
				<rect x="143.3" y="182.2" transform="matrix(0.9362 -0.3514 0.3514 0.9362 -55.5745 65.5071)" class="st0" width="18.7" height="7.4"/>
		</g>
	</g>
	<g class="st10">
		<polygon class="st1" points="158.8,168.3 131.9,159.9 130.4,160.5 132.8,166.8 161.7,175.8 		"/>
		<polygon class="st1" points="136.9,158.1 157.4,164.4 156.2,161.3 140.8,156.6 		"/>
	</g>
	<g>
		<g>
			<path class="st8" d="M137.6,153.9c0.2,0.5-0.1,1.1-0.6,1.2l0,0c-0.5,0.2-1-0.1-1.2-0.6l0,0c-0.2-0.5,0.1-1,0.6-1.2l0,0
				C136.9,153.2,137.4,153.5,137.6,153.9L137.6,153.9z"/>
			<path class="st8" d="M144.8,151.2c0.2,0.5-0.1,1.1-0.6,1.2l-3.9,1.5c-0.5,0.2-1.1-0.1-1.2-0.6l0,0c-0.2-0.5,0.1-1.1,0.6-1.2
				l3.9-1.5C144.1,150.5,144.6,150.7,144.8,151.2L144.8,151.2z"/>
		</g>
		<path class="st8" d="M157.6,192.2c0.5,1.2-0.2,2.6-1.4,3.1l0,0c-1.2,0.5-2.6-0.2-3.1-1.4l0,0c-0.5-1.2,0.2-2.6,1.4-3.1l0,0
			C155.8,190.3,157.2,190.9,157.6,192.2L157.6,192.2z"/>
	</g>
</g>
<path class="st7" d="M170.3,180.3l-0.4,0.9l-12.3-5.7c-1.8-0.8-2.5-3.1-1.6-5c1-1.9,3.2-2.7,5-1.9l6.2,2.8
	C170.6,173,172,177,170.3,180.3"/>
<path class="st7" d="M256.2,193.4c0,2.3-1.8,4.1-4.1,4.1h-5c-2.3,0-4.1-1.8-4.1-4.1l0,0c0-2.3,1.8-4.1,4.1-4.1h5
	C254.4,189.3,256.2,191.2,256.2,193.4L256.2,193.4z"/>
<path class="st6" d="M219.8,268.7H256c10,0,18.2-8.1,18.2-18.2h-72.6C201.6,260.6,209.7,268.7,219.8,268.7z"/>
</svg>
