<?xml version="1.0" encoding="utf-8"?>
<!-- Generator: Adobe Illustrator 19.2.0, SVG Export Plug-In . SVG Version: 6.00 Build 0)  -->
<svg version="1.1" id="Layer_4" xmlns="http://www.w3.org/2000/svg"  x="0px" y="0px"
	 width="384px" height="300px" viewBox="0 0 384 300" style="enable-background:new 0 0 384 300;" xml:space="preserve">
<style type="text/css">
	.st0{fill:#E4EFFF;}
	.st1{fill:#FFFFFF;}
	.st2{fill:#80C3FF;}
	.st3{opacity:0.5;}
	.st4{fill:#CAE3FF;}
	.st5{fill:#B9DAFF;}
	.st6{fill:#1C67C6;}
	.st7{fill:#FFD87D;}
	.st8{fill:#2C7ED4;}
	.st9{fill:#52A8FF;}
	.st10{opacity:0.4;}
	.st11{fill:#EBC269;}
	.st12{fill:#1462B7;}
	.st13{fill:#E0B35A;}
	.st14{fill:#FFEFBB;}
	.st15{fill:#F5E690;}
	.st16{fill:none;stroke:#CAE3FF;stroke-width:5.9639;stroke-miterlimit:10;}
	.st17{fill:#FFE271;}
	.st18{fill:#EDD059;}
	.st19{fill:none;stroke:#E4EFFF;stroke-width:1.1928;stroke-miterlimit:10;}
	.st20{fill:#FBFBFB;}
	.st21{fill:#1C67D2;}
	.st22{fill:#2C7EE0;}
	.st23{fill:#52B4FF;}
	.st24{fill:#82CFFF;}
	.st25{fill:#348AEA;}
	.st26{fill:#D6EFFF;}
	.st27{fill:none;stroke:#231F20;stroke-miterlimit:10;}
	.st28{fill:#E9E9E9;}
</style>
<path class="st4" d="M267.3,108.5c-2.8-15.4-16.3-27-32.5-27c-10.6,0-20,5-26.1,12.7c-3.6-2-7.8-3.2-12.2-3.2
	c-10.3,0-19.2,6.2-23.1,15.1c-7.6,1.1-13.6,6.8-15.2,14.2c-7.8,0.3-14,6.8-14,14.6c0,8.1,6.6,14.7,14.7,14.7h36.8
	c4.7,10.2,15,17.2,27,17.2c9.6,0,18.2-4.6,23.6-11.7c1.7,0.3,3.5,0.5,5.3,0.5c14.5,0,26.2-11.7,26.2-26.2
	C277.7,120.9,273.6,113.3,267.3,108.5z"/>
<g>
	<g>
		<path class="st5" d="M204.5,131.1c-0.8,0-1.4-0.5-1.7-1.3c-0.2-0.9,0.3-1.8,1.2-2.1c6-1.6,10.2-7,10.2-13.2c0-0.2,0-0.3,0-0.5
			c0-0.9,0.7-1.7,1.6-1.8c0.9,0,1.7,0.7,1.8,1.6c0,0.2,0,0.4,0,0.6c0,7.8-5.2,14.6-12.8,16.5C204.8,131,204.7,131.1,204.5,131.1z"/>
	</g>
	<g>
		<path class="st5" d="M177.5,116.9h-18.1c-0.5,1.1-0.8,2.2-1.1,3.4h19.2c0.9,0,1.7-0.8,1.7-1.7
			C179.2,117.7,178.4,116.9,177.5,116.9z"/>
		<g>
			<path class="st5" d="M235.6,125.4c-0.6,0-1.2-0.3-1.5-1c-3.1-6.4-9.5-10.4-16.6-10.4c-1.9,0-3.8,0.3-5.7,0.9
				c-0.9,0.3-1.9-0.2-2.1-1.1c-0.3-0.9,0.2-1.9,1.1-2.1c2.2-0.7,4.4-1,6.7-1c8.4,0,16,4.7,19.7,12.3c0.4,0.8,0.1,1.9-0.8,2.3
				C236.1,125.4,235.8,125.4,235.6,125.4z"/>
		</g>
		<g>
			<path class="st5" d="M228.6,117.5c-0.4,0-0.8-0.2-1.2-0.5c-0.7-0.6-0.7-1.7-0.1-2.4c2.1-2.2,3.2-5.1,3.2-8.1c0-3.8-1.9-7.4-5-9.6
				c-0.8-0.5-0.9-1.6-0.4-2.4c0.5-0.8,1.6-0.9,2.4-0.4c4,2.8,6.4,7.5,6.4,12.4c0,3.9-1.5,7.6-4.1,10.4
				C229.5,117.3,229,117.5,228.6,117.5z"/>
		</g>
		<path class="st5" d="M195.7,149.7c-1.6-4.2-2.4-8.6-2.4-13.2c0-0.9-0.8-1.7-1.7-1.7c-0.9,0-1.7,0.8-1.7,1.7
			c0,4.5,0.7,8.9,2.1,13.1L195.7,149.7C195.7,149.7,195.7,149.7,195.7,149.7z"/>
		<g>
			<path class="st5" d="M237.7,139.7c-4.9,0-9.6-1.6-13.4-4.6c-0.7-0.6-0.9-1.6-0.3-2.4c0.6-0.8,1.6-0.9,2.4-0.3
				c3.3,2.5,7.2,3.9,11.3,3.9c10.2,0,18.6-8.3,18.6-18.6c0-3.6-1-7.1-3-10.2c-0.5-0.8-0.3-1.8,0.5-2.4c0.8-0.5,1.8-0.3,2.4,0.5
				c2.3,3.6,3.6,7.7,3.6,12C259.7,129.9,249.8,139.7,237.7,139.7z"/>
		</g>
		<path class="st5" d="M208.7,94.2C208.7,94.2,208.7,94.2,208.7,94.2c-1-0.5-2.1-1-3.2-1.4c-3.4,4.7-5.9,10.1-7.2,15.8
			c-0.2,0.9,0.4,1.8,1.3,2c0.9,0.2,1.8-0.4,2-1.3C203,103.8,205.3,98.6,208.7,94.2z"/>
		<path class="st5" d="M233.1,138c0-0.3,0-0.6,0-0.9c0-0.9-0.7-1.7-1.6-1.8c-0.9,0-1.7,0.7-1.8,1.6c0,0.3,0,0.7,0,1
			c0,9,5.8,17,14.1,19.9c0.9-0.9,1.7-1.8,2.4-2.8c0.1,0,0.1,0,0.2,0C238.7,153.2,233.1,146.1,233.1,138z"/>
	</g>
</g>
<path class="st11" d="M205.1,169.2h-77c-2.6,0-4.6,2.1-4.6,4.6v67c0,2.6,2.1,4.6,4.6,4.6h77c2.6,0,4.6-2.1,4.6-4.6v-67
	C209.7,171.3,207.6,169.2,205.1,169.2z"/>
<path class="st7" d="M196.2,169.2h-77c-2.6,0-4.6,2.1-4.6,4.6v67c0,2.6,2.1,4.6,4.6,4.6h77c2.6,0,4.6-2.1,4.6-4.6v-67
	C200.8,171.3,198.7,169.2,196.2,169.2z"/>
<g>
	<path class="st8" d="M129.9,191.6c1.2,0.2,2.2,0.4,3.1,0.6c0.2,0.1,0.2,0.2,0.2,0.4c0,0.2-0.2,0.4-0.5,0.5c-0.5,0.1-1,0.2-1.5,0.3
		c-0.4,2-0.8,3.9-1.2,5.7h4.2l0.9-0.9c0.7,0.5,1.2,0.9,1.7,1.4c0.2,0.2,0.3,0.4,0.3,0.5c0,0.2-0.1,0.4-0.4,0.5
		c-0.3,0.2-0.6,0.3-0.8,0.4c-0.5,3.4-0.9,6-1.4,7.7c-0.5,1.7-1.1,3.4-2,5.1c0,0,0,0.1,0,0.1c0.4,0.4,0.8,0.7,1.1,0.9
		c0.7,0.6,1.2,1.1,1.5,1.5c0.3,0.3,0.5,0.7,0.6,1c0.1,0.3,0.2,0.6,0.2,0.8c0,0.5-0.2,0.7-0.5,0.7c-0.2,0-0.4-0.1-0.6-0.2
		c-0.2-0.1-0.6-0.5-1-1.1c-0.6-0.9-1.2-1.7-1.9-2.3c-0.7,1.2-1.5,2.3-2.3,3.4c-1.2,1.5-2.7,2.9-4.5,4.3l-0.5-0.7
		c2-1.9,3.5-3.5,4.5-4.8c0.8-1,1.4-2,1.9-3c-0.5-0.5-1.1-1.1-1.7-1.6c-0.7-0.6-1.4-1.1-2.2-1.6c-0.2,0.6-0.4,1.2-0.5,1.8
		c-0.2,0.3-0.5,0.4-0.9,0.4c-0.6,0-0.8-0.1-0.8-0.4l0.1-0.5c0.2-0.4,0.5-1.4,1.1-3.1c0.7-2.4,1.4-4.6,1.9-6.8
		c0.2-0.9,0.5-1.8,0.6-2.6h-0.2c-1.8,0-2.9,0-3.3,0.1l-0.5-1.4c0.9,0.2,2.2,0.3,3.8,0.3h0.4c0.2-0.9,0.4-1.8,0.5-2.6
		C129.6,194.5,129.8,192.9,129.9,191.6z M131.5,213.1c0.1-0.2,0.1-0.3,0.2-0.4c0.7-1.5,1.3-3.4,1.8-5.6c0.5-2.1,0.8-4.5,0.9-7.1
		h-4.5c-0.3,1.2-0.6,2.4-0.9,3.6c-0.6,2.4-1.2,4.7-1.8,6.8c1.3,0.7,2.5,1.4,3.6,2.1C131.1,212.8,131.3,213,131.5,213.1z
		 M135.5,213.2c1,0.3,2.3,0.4,3.9,0.4h8l1.6-1.8c0.8,0.6,1.6,1.2,2.3,1.8c0.2,0.1,0.3,0.2,0.3,0.4c0,0.4-0.1,0.5-0.4,0.5h-11.8
		c-1.6,0-2.7,0.1-3.2,0.1L135.5,213.2z M140.4,197.3c1.2,0.2,2.3,0.4,3.1,0.6c0.2,0.1,0.2,0.2,0.2,0.4c0,0.3-0.2,0.4-0.6,0.5
		c-0.5,0.1-1,0.2-1.5,0.3c-0.3,1.8-0.7,3.4-1.1,4.9c-0.3,1.3-0.6,2.4-0.9,3.5h8.5l2.4-12.3h-9.2c-1.8,0-2.9,0-3.3,0.1l-0.5-1.4
		c0.9,0.2,2.2,0.3,3.8,0.3h8.7l1.5-1.3c0.7,0.6,1.2,1.2,1.6,1.8c0.1,0.2,0.1,0.3,0.1,0.4c0,0.1-0.2,0.3-0.5,0.4
		c-0.3,0.1-0.6,0.2-0.9,0.2l-2.1,11.6h3.2l1.2-1.1c0.7,0.5,1.3,0.9,1.8,1.2c0.2,0.2,0.2,0.3,0.2,0.4c0,0.3-0.5,0.6-1.4,0.9
		c-0.2,2.6-0.4,4.8-0.7,6.7c-0.4,1.9-0.7,3.3-1,4.1c-0.4,0.8-0.8,1.4-1.2,1.8c-0.5,0.4-1,0.8-1.5,1.1c-0.5,0.2-0.9,0.3-1.2,0.3
		c0-0.4-0.1-0.8-0.3-1c-0.2-0.3-1.6-0.8-4.2-1.5l0.1-0.6c2.3,0.6,3.9,0.9,4.6,0.9c0.4,0,0.7-0.1,1-0.2c0.2-0.1,0.5-0.2,0.7-0.5
		c0.2-0.3,0.5-0.9,0.8-1.7c0.3-0.8,0.5-2.1,0.7-3.7c0.2-1.5,0.4-3.6,0.6-6.1h-14c-0.2,0.2-0.5,0.4-0.9,0.4c-0.6,0-0.8-0.1-0.8-0.4
		l0-0.3c0.1-0.2,0.3-0.7,0.6-1.6c0.4-1.2,0.8-2.4,1.1-3.5c0.3-1.1,0.5-2.1,0.7-3.2C140.3,198.8,140.4,198,140.4,197.3z"/>
	<path class="st8" d="M164.6,191.6c1.2,0.2,2.2,0.4,3.1,0.6c0.2,0.1,0.2,0.2,0.2,0.4c0,0.2-0.2,0.4-0.5,0.5c-0.5,0.1-1,0.2-1.5,0.3
		c-0.4,2-0.8,3.9-1.2,5.7h4.2l0.9-0.9c0.7,0.5,1.2,0.9,1.7,1.4c0.2,0.2,0.3,0.4,0.3,0.5c0,0.2-0.1,0.4-0.4,0.5
		c-0.3,0.2-0.6,0.3-0.8,0.4c-0.5,3.4-0.9,6-1.4,7.7c-0.5,1.7-1.1,3.4-2,5.1c0,0,0,0.1,0,0.1c0.4,0.4,0.8,0.7,1.1,0.9
		c0.7,0.6,1.2,1.1,1.5,1.5c0.3,0.3,0.5,0.7,0.6,1c0.1,0.3,0.2,0.6,0.2,0.8c0,0.5-0.2,0.7-0.5,0.7c-0.2,0-0.4-0.1-0.6-0.2
		c-0.2-0.1-0.6-0.5-1-1.1c-0.6-0.9-1.2-1.7-1.9-2.3c-0.7,1.2-1.5,2.3-2.3,3.4c-1.2,1.5-2.7,2.9-4.5,4.3l-0.5-0.7
		c2-1.9,3.5-3.5,4.5-4.8c0.8-1,1.4-2,1.9-3c-0.5-0.5-1-1.1-1.7-1.6c-0.7-0.6-1.4-1.1-2.2-1.6c-0.2,0.6-0.4,1.2-0.5,1.8
		c-0.2,0.3-0.5,0.4-0.9,0.4c-0.6,0-0.8-0.1-0.8-0.4l0.1-0.5c0.2-0.4,0.5-1.4,1.1-3.1c0.7-2.4,1.4-4.6,1.9-6.8
		c0.2-0.9,0.5-1.8,0.6-2.6H163c-1.8,0-2.9,0-3.3,0.1l-0.5-1.4c0.9,0.2,2.2,0.3,3.8,0.3h0.4c0.2-0.9,0.4-1.8,0.5-2.6
		C164.2,194.5,164.5,192.9,164.6,191.6z M166.2,213.1c0.1-0.2,0.1-0.3,0.2-0.4c0.7-1.5,1.3-3.4,1.8-5.6c0.5-2.1,0.8-4.5,0.9-7.1
		h-4.5c-0.3,1.2-0.6,2.4-0.9,3.6c-0.6,2.4-1.2,4.7-1.8,6.8c1.3,0.7,2.5,1.4,3.6,2.1C165.8,212.8,166,213,166.2,213.1z M170.1,213.2
		c1,0.3,2.3,0.4,3.9,0.4h8l1.6-1.8c0.8,0.6,1.6,1.2,2.3,1.8c0.2,0.1,0.3,0.2,0.3,0.4c0,0.4-0.1,0.5-0.4,0.5H174
		c-1.6,0-2.7,0.1-3.2,0.1L170.1,213.2z M175.1,197.3c1.2,0.2,2.3,0.4,3.1,0.6c0.2,0.1,0.2,0.2,0.2,0.4c0,0.3-0.2,0.4-0.6,0.5
		c-0.5,0.1-1,0.2-1.5,0.3c-0.3,1.8-0.7,3.4-1.2,4.9c-0.3,1.3-0.6,2.4-0.9,3.5h8.5l2.4-12.3h-9.2c-1.8,0-2.9,0-3.3,0.1l-0.5-1.4
		c0.9,0.2,2.2,0.3,3.8,0.3h8.7l1.5-1.3c0.7,0.6,1.2,1.2,1.6,1.8c0.1,0.2,0.1,0.3,0.1,0.4c0,0.1-0.2,0.3-0.5,0.4
		c-0.3,0.1-0.6,0.2-0.9,0.2l-2.1,11.6h3.2l1.2-1.1c0.7,0.5,1.3,0.9,1.8,1.2c0.2,0.2,0.2,0.3,0.2,0.4c0,0.3-0.5,0.6-1.4,0.9
		c-0.2,2.6-0.4,4.8-0.7,6.7c-0.4,1.9-0.7,3.3-1,4.1c-0.4,0.8-0.8,1.4-1.2,1.8c-0.5,0.4-1,0.8-1.5,1.1c-0.5,0.2-0.9,0.3-1.2,0.3
		c0-0.4-0.1-0.8-0.3-1c-0.2-0.3-1.6-0.8-4.2-1.5l0.1-0.6c2.3,0.6,3.9,0.9,4.6,0.9c0.4,0,0.7-0.1,1-0.2c0.2-0.1,0.5-0.2,0.7-0.5
		c0.2-0.3,0.5-0.9,0.8-1.7c0.3-0.8,0.5-2.1,0.7-3.7c0.2-1.5,0.4-3.6,0.6-6.1h-14c-0.2,0.2-0.5,0.4-0.9,0.4c-0.6,0-0.8-0.1-0.8-0.4
		l0-0.3c0.1-0.2,0.3-0.7,0.6-1.6c0.4-1.2,0.8-2.4,1.1-3.5c0.3-1.1,0.5-2.1,0.7-3.2C174.9,198.8,175,198,175.1,197.3z"/>
</g>
<rect x="71.2" y="236.3" class="st9" width="76" height="8.9"/>
<polygon class="st5" points="231.4,199.9 244,199.9 246.1,191.1 233.4,191.1 "/>
<path class="st8" d="M259.9,189c-0.6,2.5-3.1,4.6-5.7,4.6h-24c-2.5,0-4.1-2.1-3.5-4.6l12.6-54.1c0.6-2.5,3.1-4.6,5.7-4.6l24,0
	c2.5,0,4.1,2.1,3.5,4.6L259.9,189z"/>
<g>
	<path class="st8" d="M197.3,241.5c0,2.2-1.8,4-4,4H189c-2.2,0-4-1.8-4-4l0,0c0-2.2,1.8-4,4-4h4.3
		C195.5,237.6,197.3,239.3,197.3,241.5L197.3,241.5z"/>
	<path class="st8" d="M176.5,241.5c0,2.2-1.8,4-4,4h-4.3c-2.2,0-4-1.8-4-4l0,0c0-2.2,1.8-4,4-4h4.3
		C174.7,237.6,176.5,239.3,176.5,241.5L176.5,241.5z"/>
	<path class="st8" d="M298.5,241.5c0,2.2-1.8,4-4,4h-4.3c-2.2,0-4-1.8-4-4l0,0c0-2.2,1.8-4,4-4h4.3
		C296.7,237.6,298.5,239.3,298.5,241.5L298.5,241.5z"/>
	<path class="st8" d="M277.8,241.5c0,2.2-1.8,4-4,4h-4.3c-2.2,0-4-1.8-4-4l0,0c0-2.2,1.8-4,4-4h4.3
		C276,237.6,277.8,239.3,277.8,241.5L277.8,241.5z"/>
</g>
<rect x="161.6" y="199.1" class="st8" width="124.7" height="40.7"/>
<g>
	<circle class="st12" cx="187.5" cy="219.1" r="18.8"/>
	<circle class="st12" cx="259.8" cy="219.1" r="18.8"/>
</g>
<path class="st8" d="M296.3,196.7h-13.9v44.9h13.9c10.4,0,18.9-8.5,18.9-18.9v-2.1v-5v-18.9H296.3z"/>
<path class="st9" d="M159.7,196.7v44.9h127.9v-44.9H159.7z M165.1,235c-1.2,0-2.1-0.9-2.1-2.1c0-1.2,0.9-2.1,2.1-2.1
	c1.2,0,2.1,1,2.1,2.1C167.2,234,166.2,235,165.1,235z M165.1,228.1c-1.2,0-2.1-0.9-2.1-2.1c0-1.2,0.9-2.1,2.1-2.1
	c1.2,0,2.1,0.9,2.1,2.1C167.2,227.1,166.2,228.1,165.1,228.1z M165.1,221.2c-1.2,0-2.1-0.9-2.1-2.1c0-1.2,0.9-2.1,2.1-2.1
	c1.2,0,2.1,1,2.1,2.1C167.2,220.3,166.2,221.2,165.1,221.2z M165.1,214.3c-1.2,0-2.1-0.9-2.1-2.1c0-1.2,0.9-2.1,2.1-2.1
	c1.2,0,2.1,0.9,2.1,2.1C167.2,213.4,166.2,214.3,165.1,214.3z M165.1,207.4c-1.2,0-2.1-1-2.1-2.1c0-1.2,0.9-2.1,2.1-2.1
	c1.2,0,2.1,0.9,2.1,2.1C167.2,206.5,166.2,207.4,165.1,207.4z M171.6,238.5c-1.2,0-2.1-0.9-2.1-2.1c0-1.2,0.9-2.1,2.1-2.1
	c1.2,0,2.1,0.9,2.1,2.1C173.7,237.6,172.7,238.5,171.6,238.5z M171.6,231.7c-1.2,0-2.1-0.9-2.1-2.1c0-1.2,0.9-2.1,2.1-2.1
	c1.2,0,2.1,0.9,2.1,2.1C173.7,230.7,172.7,231.7,171.6,231.7z M171.6,224.8c-1.2,0-2.1-0.9-2.1-2.1c0-1.2,0.9-2.1,2.1-2.1
	c1.2,0,2.1,0.9,2.1,2.1C173.7,223.8,172.7,224.8,171.6,224.8z M171.6,217.9c-1.2,0-2.1-0.9-2.1-2.1c0-1.2,0.9-2.1,2.1-2.1
	c1.2,0,2.1,0.9,2.1,2.1C173.7,216.9,172.7,217.9,171.6,217.9z M171.6,211c-1.2,0-2.1-0.9-2.1-2.1c0-1.2,0.9-2.1,2.1-2.1
	c1.2,0,2.1,1,2.1,2.1C173.7,210,172.7,211,171.6,211z M171.6,204.1c-1.2,0-2.1-1-2.1-2.1c0-1.2,0.9-2.1,2.1-2.1
	c1.2,0,2.1,0.9,2.1,2.1C173.7,203.1,172.7,204.1,171.6,204.1z M178.1,235c-1.2,0-2.1-0.9-2.1-2.1c0-1.2,0.9-2.1,2.1-2.1
	c1.2,0,2.1,1,2.1,2.1C180.2,234,179.2,235,178.1,235z M178.1,228.1c-1.2,0-2.1-0.9-2.1-2.1c0-1.2,0.9-2.1,2.1-2.1
	c1.2,0,2.1,0.9,2.1,2.1C180.2,227.1,179.2,228.1,178.1,228.1z M178.1,221.2c-1.2,0-2.1-0.9-2.1-2.1c0-1.2,0.9-2.1,2.1-2.1
	c1.2,0,2.1,1,2.1,2.1C180.2,220.3,179.2,221.2,178.1,221.2z M178.1,214.3c-1.2,0-2.1-0.9-2.1-2.1c0-1.2,0.9-2.1,2.1-2.1
	c1.2,0,2.1,0.9,2.1,2.1C180.2,213.4,179.2,214.3,178.1,214.3z M178.1,207.4c-1.2,0-2.1-1-2.1-2.1c0-1.2,0.9-2.1,2.1-2.1
	c1.2,0,2.1,0.9,2.1,2.1C180.2,206.5,179.2,207.4,178.1,207.4z M184.6,238.5c-1.2,0-2.1-0.9-2.1-2.1c0-1.2,0.9-2.1,2.1-2.1
	c1.2,0,2.1,0.9,2.1,2.1C186.7,237.6,185.8,238.5,184.6,238.5z M184.6,231.7c-1.2,0-2.1-0.9-2.1-2.1c0-1.2,0.9-2.1,2.1-2.1
	c1.2,0,2.1,0.9,2.1,2.1C186.7,230.7,185.8,231.7,184.6,231.7z M184.6,224.8c-1.2,0-2.1-0.9-2.1-2.1c0-1.2,0.9-2.1,2.1-2.1
	c1.2,0,2.1,0.9,2.1,2.1C186.7,223.8,185.8,224.8,184.6,224.8z M184.6,217.9c-1.2,0-2.1-0.9-2.1-2.1c0-1.2,0.9-2.1,2.1-2.1
	c1.2,0,2.1,0.9,2.1,2.1C186.7,216.9,185.8,217.9,184.6,217.9z M184.6,211c-1.2,0-2.1-0.9-2.1-2.1c0-1.2,0.9-2.1,2.1-2.1
	c1.2,0,2.1,1,2.1,2.1C186.7,210,185.8,211,184.6,211z M184.6,204.1c-1.2,0-2.1-1-2.1-2.1c0-1.2,0.9-2.1,2.1-2.1
	c1.2,0,2.1,0.9,2.1,2.1C186.7,203.1,185.8,204.1,184.6,204.1z M191.1,235c-1.2,0-2.1-0.9-2.1-2.1c0-1.2,0.9-2.1,2.1-2.1
	c1.2,0,2.1,1,2.1,2.1C193.2,234,192.3,235,191.1,235z M191.1,228.1c-1.2,0-2.1-0.9-2.1-2.1c0-1.2,0.9-2.1,2.1-2.1
	c1.2,0,2.1,0.9,2.1,2.1C193.2,227.1,192.3,228.1,191.1,228.1z M191.1,221.2c-1.2,0-2.1-0.9-2.1-2.1c0-1.2,0.9-2.1,2.1-2.1
	c1.2,0,2.1,1,2.1,2.1C193.2,220.3,192.3,221.2,191.1,221.2z M191.1,214.3c-1.2,0-2.1-0.9-2.1-2.1c0-1.2,0.9-2.1,2.1-2.1
	c1.2,0,2.1,0.9,2.1,2.1C193.2,213.4,192.3,214.3,191.1,214.3z M191.1,207.4c-1.2,0-2.1-1-2.1-2.1c0-1.2,0.9-2.1,2.1-2.1
	c1.2,0,2.1,0.9,2.1,2.1C193.2,206.5,192.3,207.4,191.1,207.4z M197.6,238.5c-1.2,0-2.1-0.9-2.1-2.1c0-1.2,0.9-2.1,2.1-2.1
	c1.2,0,2.1,0.9,2.1,2.1C199.7,237.6,198.8,238.5,197.6,238.5z M197.6,231.7c-1.2,0-2.1-0.9-2.1-2.1c0-1.2,0.9-2.1,2.1-2.1
	c1.2,0,2.1,0.9,2.1,2.1C199.7,230.7,198.8,231.7,197.6,231.7z M197.6,224.8c-1.2,0-2.1-0.9-2.1-2.1c0-1.2,0.9-2.1,2.1-2.1
	c1.2,0,2.1,0.9,2.1,2.1C199.7,223.8,198.8,224.8,197.6,224.8z M197.6,217.9c-1.2,0-2.1-0.9-2.1-2.1c0-1.2,0.9-2.1,2.1-2.1
	c1.2,0,2.1,0.9,2.1,2.1C199.7,216.9,198.8,217.9,197.6,217.9z M197.6,211c-1.2,0-2.1-0.9-2.1-2.1c0-1.2,0.9-2.1,2.1-2.1
	c1.2,0,2.1,1,2.1,2.1C199.7,210,198.8,211,197.6,211z M197.6,204.1c-1.2,0-2.1-1-2.1-2.1c0-1.2,0.9-2.1,2.1-2.1
	c1.2,0,2.1,0.9,2.1,2.1C199.7,203.1,198.8,204.1,197.6,204.1z M204.1,235c-1.2,0-2.1-0.9-2.1-2.1c0-1.2,1-2.1,2.1-2.1
	c1.2,0,2.1,1,2.1,2.1C206.2,234,205.3,235,204.1,235z M204.1,228.1c-1.2,0-2.1-0.9-2.1-2.1c0-1.2,1-2.1,2.1-2.1
	c1.2,0,2.1,0.9,2.1,2.1C206.2,227.1,205.3,228.1,204.1,228.1z M204.1,221.2c-1.2,0-2.1-0.9-2.1-2.1c0-1.2,1-2.1,2.1-2.1
	c1.2,0,2.1,1,2.1,2.1C206.2,220.3,205.3,221.2,204.1,221.2z M204.1,214.3c-1.2,0-2.1-0.9-2.1-2.1c0-1.2,1-2.1,2.1-2.1
	c1.2,0,2.1,0.9,2.1,2.1C206.2,213.4,205.3,214.3,204.1,214.3z M204.1,207.4c-1.2,0-2.1-1-2.1-2.1c0-1.2,1-2.1,2.1-2.1
	c1.2,0,2.1,0.9,2.1,2.1C206.2,206.5,205.3,207.4,204.1,207.4z M210.6,238.5c-1.2,0-2.1-0.9-2.1-2.1c0-1.2,0.9-2.1,2.1-2.1
	c1.2,0,2.1,0.9,2.1,2.1C212.8,237.6,211.8,238.5,210.6,238.5z M210.6,231.7c-1.2,0-2.1-0.9-2.1-2.1c0-1.2,0.9-2.1,2.1-2.1
	c1.2,0,2.1,0.9,2.1,2.1C212.8,230.7,211.8,231.7,210.6,231.7z M210.6,224.8c-1.2,0-2.1-0.9-2.1-2.1c0-1.2,0.9-2.1,2.1-2.1
	c1.2,0,2.1,0.9,2.1,2.1C212.8,223.8,211.8,224.8,210.6,224.8z M210.6,217.9c-1.2,0-2.1-0.9-2.1-2.1c0-1.2,0.9-2.1,2.1-2.1
	c1.2,0,2.1,0.9,2.1,2.1C212.8,216.9,211.8,217.9,210.6,217.9z M210.6,211c-1.2,0-2.1-0.9-2.1-2.1c0-1.2,0.9-2.1,2.1-2.1
	c1.2,0,2.1,1,2.1,2.1C212.8,210,211.8,211,210.6,211z M210.6,204.1c-1.2,0-2.1-1-2.1-2.1c0-1.2,0.9-2.1,2.1-2.1
	c1.2,0,2.1,0.9,2.1,2.1C212.8,203.1,211.8,204.1,210.6,204.1z M217.2,235c-1.2,0-2.1-0.9-2.1-2.1c0-1.2,0.9-2.1,2.1-2.1
	c1.2,0,2.1,1,2.1,2.1C219.3,234,218.3,235,217.2,235z M217.2,228.1c-1.2,0-2.1-0.9-2.1-2.1c0-1.2,0.9-2.1,2.1-2.1
	c1.2,0,2.1,0.9,2.1,2.1C219.3,227.1,218.3,228.1,217.2,228.1z M217.2,221.2c-1.2,0-2.1-0.9-2.1-2.1c0-1.2,0.9-2.1,2.1-2.1
	c1.2,0,2.1,1,2.1,2.1C219.3,220.3,218.3,221.2,217.2,221.2z M217.2,214.3c-1.2,0-2.1-0.9-2.1-2.1c0-1.2,0.9-2.1,2.1-2.1
	c1.2,0,2.1,0.9,2.1,2.1C219.3,213.4,218.3,214.3,217.2,214.3z M217.2,207.4c-1.2,0-2.1-1-2.1-2.1c0-1.2,0.9-2.1,2.1-2.1
	c1.2,0,2.1,0.9,2.1,2.1C219.3,206.5,218.3,207.4,217.2,207.4z M223.7,238.5c-1.2,0-2.1-0.9-2.1-2.1c0-1.2,0.9-2.1,2.1-2.1
	c1.2,0,2.1,0.9,2.1,2.1C225.8,237.6,224.8,238.5,223.7,238.5z M223.7,231.7c-1.2,0-2.1-0.9-2.1-2.1c0-1.2,0.9-2.1,2.1-2.1
	c1.2,0,2.1,0.9,2.1,2.1C225.8,230.7,224.8,231.7,223.7,231.7z M223.7,224.8c-1.2,0-2.1-0.9-2.1-2.1c0-1.2,0.9-2.1,2.1-2.1
	c1.2,0,2.1,0.9,2.1,2.1C225.8,223.8,224.8,224.8,223.7,224.8z M223.7,217.9c-1.2,0-2.1-0.9-2.1-2.1c0-1.2,0.9-2.1,2.1-2.1
	c1.2,0,2.1,0.9,2.1,2.1C225.8,216.9,224.8,217.9,223.7,217.9z M223.7,211c-1.2,0-2.1-0.9-2.1-2.1c0-1.2,0.9-2.1,2.1-2.1
	c1.2,0,2.1,1,2.1,2.1C225.8,210,224.8,211,223.7,211z M223.7,204.1c-1.2,0-2.1-1-2.1-2.1c0-1.2,0.9-2.1,2.1-2.1
	c1.2,0,2.1,0.9,2.1,2.1C225.8,203.1,224.8,204.1,223.7,204.1z M230.2,235c-1.2,0-2.1-0.9-2.1-2.1c0-1.2,1-2.1,2.1-2.1
	c1.2,0,2.1,1,2.1,2.1C232.3,234,231.3,235,230.2,235z M230.2,228.1c-1.2,0-2.1-0.9-2.1-2.1c0-1.2,1-2.1,2.1-2.1
	c1.2,0,2.1,0.9,2.1,2.1C232.3,227.1,231.3,228.1,230.2,228.1z M230.2,221.2c-1.2,0-2.1-0.9-2.1-2.1c0-1.2,1-2.1,2.1-2.1
	c1.2,0,2.1,1,2.1,2.1C232.3,220.3,231.3,221.2,230.2,221.2z M230.2,214.3c-1.2,0-2.1-0.9-2.1-2.1c0-1.2,1-2.1,2.1-2.1
	c1.2,0,2.1,0.9,2.1,2.1C232.3,213.4,231.3,214.3,230.2,214.3z M230.2,207.4c-1.2,0-2.1-1-2.1-2.1c0-1.2,1-2.1,2.1-2.1
	c1.2,0,2.1,0.9,2.1,2.1C232.3,206.5,231.3,207.4,230.2,207.4z M236.7,238.5c-1.2,0-2.1-0.9-2.1-2.1c0-1.2,0.9-2.1,2.1-2.1
	c1.2,0,2.1,0.9,2.1,2.1C238.8,237.6,237.9,238.5,236.7,238.5z M236.7,231.7c-1.2,0-2.1-0.9-2.1-2.1c0-1.2,0.9-2.1,2.1-2.1
	c1.2,0,2.1,0.9,2.1,2.1C238.8,230.7,237.9,231.7,236.7,231.7z M236.7,224.8c-1.2,0-2.1-0.9-2.1-2.1c0-1.2,0.9-2.1,2.1-2.1
	c1.2,0,2.1,0.9,2.1,2.1C238.8,223.8,237.9,224.8,236.7,224.8z M236.7,217.9c-1.2,0-2.1-0.9-2.1-2.1c0-1.2,0.9-2.1,2.1-2.1
	c1.2,0,2.1,0.9,2.1,2.1C238.8,216.9,237.9,217.9,236.7,217.9z M236.7,211c-1.2,0-2.1-0.9-2.1-2.1c0-1.2,0.9-2.1,2.1-2.1
	c1.2,0,2.1,1,2.1,2.1C238.8,210,237.9,211,236.7,211z M236.7,204.1c-1.2,0-2.1-1-2.1-2.1c0-1.2,0.9-2.1,2.1-2.1
	c1.2,0,2.1,0.9,2.1,2.1C238.8,203.1,237.9,204.1,236.7,204.1z M243.2,235c-1.2,0-2.1-0.9-2.1-2.1c0-1.2,0.9-2.1,2.1-2.1
	c1.2,0,2.1,1,2.1,2.1C245.3,234,244.4,235,243.2,235z M243.2,228.1c-1.2,0-2.1-0.9-2.1-2.1c0-1.2,0.9-2.1,2.1-2.1
	c1.2,0,2.1,0.9,2.1,2.1C245.3,227.1,244.4,228.1,243.2,228.1z M243.2,221.2c-1.2,0-2.1-0.9-2.1-2.1c0-1.2,0.9-2.1,2.1-2.1
	c1.2,0,2.1,1,2.1,2.1C245.3,220.3,244.4,221.2,243.2,221.2z M243.2,214.3c-1.2,0-2.1-0.9-2.1-2.1c0-1.2,0.9-2.1,2.1-2.1
	c1.2,0,2.1,0.9,2.1,2.1C245.3,213.4,244.4,214.3,243.2,214.3z M243.2,207.4c-1.2,0-2.1-1-2.1-2.1c0-1.2,0.9-2.1,2.1-2.1
	c1.2,0,2.1,0.9,2.1,2.1C245.3,206.5,244.4,207.4,243.2,207.4z M249.7,238.5c-1.2,0-2.1-0.9-2.1-2.1c0-1.2,1-2.1,2.1-2.1
	c1.2,0,2.1,0.9,2.1,2.1C251.8,237.6,250.9,238.5,249.7,238.5z M249.7,231.7c-1.2,0-2.1-0.9-2.1-2.1c0-1.2,1-2.1,2.1-2.1
	c1.2,0,2.1,0.9,2.1,2.1C251.8,230.7,250.9,231.7,249.7,231.7z M249.7,224.8c-1.2,0-2.1-0.9-2.1-2.1c0-1.2,1-2.1,2.1-2.1
	c1.2,0,2.1,0.9,2.1,2.1C251.8,223.8,250.9,224.8,249.7,224.8z M249.7,217.9c-1.2,0-2.1-0.9-2.1-2.1c0-1.2,1-2.1,2.1-2.1
	c1.2,0,2.1,0.9,2.1,2.1C251.8,216.9,250.9,217.9,249.7,217.9z M249.7,211c-1.2,0-2.1-0.9-2.1-2.1c0-1.2,1-2.1,2.1-2.1
	c1.2,0,2.1,1,2.1,2.1C251.8,210,250.9,211,249.7,211z M249.7,204.1c-1.2,0-2.1-1-2.1-2.1c0-1.2,1-2.1,2.1-2.1c1.2,0,2.1,0.9,2.1,2.1
	C251.8,203.1,250.9,204.1,249.7,204.1z M256.2,235c-1.2,0-2.1-0.9-2.1-2.1c0-1.2,0.9-2.1,2.1-2.1c1.2,0,2.1,1,2.1,2.1
	C258.3,234,257.4,235,256.2,235z M256.2,228.1c-1.2,0-2.1-0.9-2.1-2.1c0-1.2,0.9-2.1,2.1-2.1c1.2,0,2.1,0.9,2.1,2.1
	C258.3,227.1,257.4,228.1,256.2,228.1z M256.2,221.2c-1.2,0-2.1-0.9-2.1-2.1c0-1.2,0.9-2.1,2.1-2.1c1.2,0,2.1,1,2.1,2.1
	C258.3,220.3,257.4,221.2,256.2,221.2z M256.2,214.3c-1.2,0-2.1-0.9-2.1-2.1c0-1.2,0.9-2.1,2.1-2.1c1.2,0,2.1,0.9,2.1,2.1
	C258.3,213.4,257.4,214.3,256.2,214.3z M256.2,207.4c-1.2,0-2.1-1-2.1-2.1c0-1.2,0.9-2.1,2.1-2.1c1.2,0,2.1,0.9,2.1,2.1
	C258.3,206.5,257.4,207.4,256.2,207.4z M262.7,238.5c-1.2,0-2.1-0.9-2.1-2.1c0-1.2,0.9-2.1,2.1-2.1c1.2,0,2.1,0.9,2.1,2.1
	C264.9,237.6,263.9,238.5,262.7,238.5z M262.7,231.7c-1.2,0-2.1-0.9-2.1-2.1c0-1.2,0.9-2.1,2.1-2.1c1.2,0,2.1,0.9,2.1,2.1
	C264.9,230.7,263.9,231.7,262.7,231.7z M262.7,224.8c-1.2,0-2.1-0.9-2.1-2.1c0-1.2,0.9-2.1,2.1-2.1c1.2,0,2.1,0.9,2.1,2.1
	C264.9,223.8,263.9,224.8,262.7,224.8z M262.7,217.9c-1.2,0-2.1-0.9-2.1-2.1c0-1.2,0.9-2.1,2.1-2.1c1.2,0,2.1,0.9,2.1,2.1
	C264.9,216.9,263.9,217.9,262.7,217.9z M262.7,211c-1.2,0-2.1-0.9-2.1-2.1c0-1.2,0.9-2.1,2.1-2.1c1.2,0,2.1,1,2.1,2.1
	C264.9,210,263.9,211,262.7,211z M262.7,204.1c-1.2,0-2.1-1-2.1-2.1c0-1.2,0.9-2.1,2.1-2.1c1.2,0,2.1,0.9,2.1,2.1
	C264.9,203.1,263.9,204.1,262.7,204.1z M269.2,235c-1.2,0-2.1-0.9-2.1-2.1c0-1.2,0.9-2.1,2.1-2.1c1.2,0,2.1,1,2.1,2.1
	C271.4,234,270.4,235,269.2,235z M269.2,228.1c-1.2,0-2.1-0.9-2.1-2.1c0-1.2,0.9-2.1,2.1-2.1c1.2,0,2.1,0.9,2.1,2.1
	C271.4,227.1,270.4,228.1,269.2,228.1z M269.2,221.2c-1.2,0-2.1-0.9-2.1-2.1c0-1.2,0.9-2.1,2.1-2.1c1.2,0,2.1,1,2.1,2.1
	C271.4,220.3,270.4,221.2,269.2,221.2z M269.2,214.3c-1.2,0-2.1-0.9-2.1-2.1c0-1.2,0.9-2.1,2.1-2.1c1.2,0,2.1,0.9,2.1,2.1
	C271.4,213.4,270.4,214.3,269.2,214.3z M269.2,207.4c-1.2,0-2.1-1-2.1-2.1c0-1.2,0.9-2.1,2.1-2.1c1.2,0,2.1,0.9,2.1,2.1
	C271.4,206.5,270.4,207.4,269.2,207.4z M275.8,238.5c-1.2,0-2.1-0.9-2.1-2.1c0-1.2,0.9-2.1,2.1-2.1c1.2,0,2.1,0.9,2.1,2.1
	C277.9,237.6,276.9,238.5,275.8,238.5z M275.8,231.7c-1.2,0-2.1-0.9-2.1-2.1c0-1.2,0.9-2.1,2.1-2.1c1.2,0,2.1,0.9,2.1,2.1
	C277.9,230.7,276.9,231.7,275.8,231.7z M275.8,224.8c-1.2,0-2.1-0.9-2.1-2.1c0-1.2,0.9-2.1,2.1-2.1c1.2,0,2.1,0.9,2.1,2.1
	C277.9,223.8,276.9,224.8,275.8,224.8z M275.8,217.9c-1.2,0-2.1-0.9-2.1-2.1c0-1.2,0.9-2.1,2.1-2.1c1.2,0,2.1,0.9,2.1,2.1
	C277.9,216.9,276.9,217.9,275.8,217.9z M275.8,211c-1.2,0-2.1-0.9-2.1-2.1c0-1.2,0.9-2.1,2.1-2.1c1.2,0,2.1,1,2.1,2.1
	C277.9,210,276.9,211,275.8,211z M275.8,204.1c-1.2,0-2.1-1-2.1-2.1c0-1.2,0.9-2.1,2.1-2.1c1.2,0,2.1,0.9,2.1,2.1
	C277.9,203.1,276.9,204.1,275.8,204.1z M282.3,235c-1.2,0-2.1-0.9-2.1-2.1c0-1.2,0.9-2.1,2.1-2.1s2.1,1,2.1,2.1
	C284.4,234,283.4,235,282.3,235z M282.3,228.1c-1.2,0-2.1-0.9-2.1-2.1c0-1.2,0.9-2.1,2.1-2.1s2.1,0.9,2.1,2.1
	C284.4,227.1,283.4,228.1,282.3,228.1z M282.3,221.2c-1.2,0-2.1-0.9-2.1-2.1c0-1.2,0.9-2.1,2.1-2.1s2.1,1,2.1,2.1
	C284.4,220.3,283.4,221.2,282.3,221.2z M282.3,214.3c-1.2,0-2.1-0.9-2.1-2.1c0-1.2,0.9-2.1,2.1-2.1s2.1,0.9,2.1,2.1
	C284.4,213.4,283.4,214.3,282.3,214.3z M282.3,207.4c-1.2,0-2.1-1-2.1-2.1c0-1.2,0.9-2.1,2.1-2.1s2.1,0.9,2.1,2.1
	C284.4,206.5,283.4,207.4,282.3,207.4z"/>
<path class="st9" d="M256.9,189c-0.6,2.5-3.1,4.6-5.7,4.6h-24c-2.5,0-4.1-2.1-3.5-4.6l12.6-54.1c0.6-2.5,3.1-4.6,5.7-4.6l24,0
	c2.5,0,4.1,2.1,3.5,4.6L256.9,189z"/>
<polygon class="st8" points="256.4,184.1 226.5,184.1 236.8,139.9 266.7,139.9 "/>
<g>
	<g>
		<path class="st8" d="M249.2,135.4c-0.1,0.7-0.8,1.2-1.5,1.2l0,0c-0.7,0-1.1-0.5-0.9-1.2l0,0c0.2-0.7,0.8-1.2,1.5-1.2l0,0
			C248.9,134.2,249.3,134.7,249.2,135.4L249.2,135.4z"/>
		<path class="st8" d="M258.8,135.4c-0.2,0.7-0.8,1.2-1.5,1.2h-5.3c-0.7,0-1.1-0.5-0.9-1.2l0,0c0.2-0.7,0.8-1.2,1.5-1.2h5.3
			C258.5,134.2,258.9,134.7,258.8,135.4L258.8,135.4z"/>
	</g>
	<path class="st8" d="M243.3,189c-0.4,1.7-2.1,3-3.7,3l0,0c-1.7,0-2.7-1.4-2.3-3l0,0c0.4-1.7,2.1-3,3.7-3l0,0
		C242.6,186,243.7,187.3,243.3,189L243.3,189z"/>
</g>
<path class="st1" d="M255.5,167.7C255.5,167.6,255.5,167.6,255.5,167.7l4.3-18.4c0.1-0.4-0.2-0.7-0.6-0.7l-16.4,2.7
	c-0.4,0-0.8,0.3-0.9,0.7l-3.7,15.9c-0.9-0.6-2.3-0.5-3.5,0.4l-1.7,1.4c-1.3,1.1-1.8,2.9-0.9,4l0.1,0.1c0.8,1.1,2.6,1.1,3.9,0
	l1.7-1.4c0.6-0.5,1.1-1.2,1.3-1.9c0,0,0,0,0,0l0,0c0,0,0,0,0-0.1l4-17.3l14.8-2.5l-3.4,14.6c-0.9-0.6-2.3-0.5-3.5,0.4l-1.7,1.4
	c-1.3,1.1-1.8,2.9-0.9,4l0.1,0.1c0.8,1.1,2.6,1.1,3.9,0l1.7-1.4C254.9,169.1,255.3,168.4,255.5,167.7
	C255.5,167.7,255.5,167.7,255.5,167.7L255.5,167.7z"/>
<g class="st3">
	<polygon class="st1" points="261.6,161.6 238.7,139.9 236.8,139.9 234.8,148.4 259.3,171.6 	"/>
	<polygon class="st1" points="245.4,139.9 262.8,156.4 263.8,152.3 250.7,139.9 	"/>
</g>
<g>
	<g>
		<path class="st9" d="M83.2,192.3c-1.2,0-2.1-0.9-2.1-2.1v-5.6c0-3.6,2.9-6.5,6.5-6.5H98l0-2.6c0-0.8,0.5-1.6,1.3-1.9
			c0.8-0.3,1.7-0.1,2.3,0.5l4.7,4.7c0,0,0.1,0.1,0.1,0.1c0.3,0.3,0.4,0.7,0.5,1.1c0,0.1,0,0.3,0,0.4c0,0.5-0.2,1-0.6,1.3v0l0,0h0
			l0,0h0l0,0l-4.7,4.7c-0.6,0.6-1.5,0.8-2.3,0.5c-0.8-0.3-1.3-1.1-1.3-1.9l0-2.6H87.7c-1.3,0-2.3,1-2.3,2.3v5.6
			C85.3,191.3,84.4,192.3,83.2,192.3z"/>
	</g>
</g>
<path class="st8" d="M119.9,198.1H79.2v7.4h-31c-3,0-6.9,1.4-8.8,3.2l-28.3,26.2H2.3l1.1,8.9h0c0,0.9,1,1.5,3,1.5H75
	c3,0,6.9-1.4,8.8-3.2l36.1-33.4c0.7-0.6,1-1.2,1-1.7h0L119.9,198.1z"/>
<path class="st9" d="M116.9,196.7H48.3c-3,0-6.9,1.4-8.8,3.2L3.3,233.2c-1.9,1.7-1,3.2,2,3.2h68.6c3,0,6.9-1.4,8.8-3.2l36.1-33.4
	C120.8,198.1,119.9,196.7,116.9,196.7z"/>
<g>
	<path class="st1" d="M31.3,215.5c0.9-0.9,1.7-1.6,2.4-2.3H36l-1.4,1.4h0.1c1.7-0.8,3.8-1.6,6.2-1.6c2,0,2.7,0.7,2.3,1.7h0.1
		c1-0.5,1.9-0.8,2.8-1.1c1.3-0.4,2.5-0.6,3.8-0.6c1.9,0,4,0.7,0.8,3.7l-5.4,5h-2.6l5.2-4.8c1.8-1.6,1.8-2.6-0.3-2.6
		c-1.5,0-3.4,0.6-4.6,1.4c-0.3,0.2-0.7,0.5-1,0.8l-5.7,5.2h-2.6l5.5-5.1c1.5-1.3,1.5-2.3-0.5-2.3c-1.6,0-3.7,0.8-4.9,1.5
		c-0.4,0.2-0.7,0.5-1,0.8l-5.5,5.1h-2.6L31.3,215.5z"/>
	<path class="st1" d="M67.3,217.3c-3.4,3.1-8.6,4.5-12.1,4.5c-3.9,0-5.1-1.7-2.2-4.4c3.1-2.8,8-4.5,12-4.5
		C69.2,213,70.1,214.7,67.3,217.3z M55.7,217.4c-2,1.9-1.7,3.3,0.9,3.3c2.5,0,5.9-1.4,7.9-3.3c1.5-1.4,2.3-3.2-0.8-3.2
		C60.6,214.1,57.4,215.8,55.7,217.4z"/>
	<path class="st1" d="M72.6,215.5c0.9-0.9,1.7-1.6,2.4-2.3h2.3l-1.4,1.4H76c1.7-0.8,3.8-1.6,6.2-1.6c2,0,2.7,0.7,2.3,1.7h0.1
		c1-0.5,1.9-0.8,2.8-1.1c1.3-0.4,2.5-0.6,3.8-0.6c1.9,0,4,0.7,0.8,3.7l-5.4,5H84l5.2-4.8c1.8-1.6,1.8-2.6-0.3-2.6
		c-1.5,0-3.4,0.6-4.6,1.4c-0.3,0.2-0.7,0.5-1,0.8l-5.7,5.2H75l5.5-5.1c1.5-1.3,1.5-2.3-0.5-2.3c-1.6,0-3.7,0.8-4.9,1.5
		c-0.4,0.2-0.7,0.5-1,0.8l-5.5,5.1h-2.6L72.6,215.5z"/>
</g>
<polygon class="st4" points="144.4,73.2 144.4,73.2 155.5,63.7 157.1,77.7 161.7,73.8 159.8,98.1 156.5,84.6 153.7,86.9 "/>
<polygon class="st7" points="292.8,72.2 292.8,72.2 304.5,77.4 294.2,85.7 299.8,88.1 277,96.9 287.7,88 284.5,86.6 "/>
<polygon class="st2" points="222.6,60.8 217.9,60.8 225.8,50.1 216.8,50.1 224,39.9 208.6,39.9 204.1,54.7 211.4,54.7 207.9,65 
	213.3,65 210.4,78.1 "/>
<polygon class="st4" points="379.4,245.5 315.9,245.5 288,176.7 291.2,173.5 382.5,242.2 "/>
<polygon class="st0" points="382.5,242.2 319.1,242.2 291.2,173.5 354.7,173.5 "/>
<polygon class="st5" points="382.5,242.2 319.1,242.2 291.2,173.5 354.7,173.5 "/>
<g>
	<g>
		<path class="st2" d="M351.1,187.3h-44.3c-0.2,0-0.4-0.1-0.5-0.3c-0.1-0.2,0-0.3,0.2-0.3h44.3c0.2,0,0.4,0.1,0.5,0.3
			C351.4,187.1,351.3,187.3,351.1,187.3z"/>
	</g>
	<g>
		<path class="st2" d="M356,199.4h-44.3c-0.2,0-0.4-0.1-0.5-0.3c-0.1-0.2,0-0.3,0.2-0.3h44.3c0.2,0,0.4,0.1,0.5,0.3
			C356.3,199.2,356.2,199.4,356,199.4z"/>
	</g>
	<g>
		<path class="st2" d="M360.9,211.5h-44.3c-0.2,0-0.4-0.2-0.5-0.3c-0.1-0.2,0-0.3,0.2-0.3h44.3c0.2,0,0.4,0.1,0.5,0.3
			C361.2,211.4,361.1,211.5,360.9,211.5z"/>
	</g>
	<g>
		<path class="st2" d="M365.8,223.6h-44.3c-0.2,0-0.4-0.2-0.5-0.3c-0.1-0.2,0-0.3,0.2-0.3h44.3c0.2,0,0.4,0.2,0.5,0.3
			C366.1,223.5,366,223.6,365.8,223.6z"/>
	</g>
	<g>
		<path class="st2" d="M370.7,235.8h-44.3c-0.2,0-0.4-0.2-0.5-0.3c-0.1-0.2,0-0.3,0.2-0.3h44.3c0.2,0,0.4,0.2,0.5,0.3
			C371,235.6,370.9,235.8,370.7,235.8z"/>
	</g>
</g>
<g>
	<g>
		<path class="st9" d="M311.6,173c-1.5-3.6-5.6-5.3-9.2-3.8c-2.7,1.1-4.3,3.7-4.3,6.5h2.7c0-1.7,1-3.3,2.7-4
			c2.2-0.9,4.8,0.1,5.7,2.3c0.9,2.2-0.1,4.8-2.3,5.7c-0.7,0.3-1,1.1-0.7,1.7c0.3,0.7,1.1,1,1.7,0.7
			C311.4,180.7,313.1,176.6,311.6,173z"/>
		<path class="st9" d="M330.3,173c-1.5-3.6-5.6-5.3-9.2-3.8c-2.7,1.1-4.3,3.7-4.3,6.5h2.7c0-1.7,1-3.3,2.7-4
			c2.2-0.9,4.8,0.1,5.7,2.3c0.9,2.2-0.1,4.8-2.3,5.7c-0.7,0.3-1,1.1-0.7,1.7c0.3,0.7,1.1,1,1.7,0.7
			C330.1,180.7,331.8,176.6,330.3,173z"/>
		<path class="st9" d="M349.1,173c-1.5-3.6-5.6-5.3-9.2-3.8c-2.7,1.1-4.3,3.7-4.3,6.5h2.7c0-1.7,1-3.3,2.7-4
			c2.2-0.9,4.8,0.1,5.7,2.3c0.9,2.2-0.1,4.8-2.3,5.7c-0.7,0.3-1,1.1-0.7,1.7c0.3,0.7,1.1,1,1.7,0.7
			C348.9,180.7,350.6,176.6,349.1,173z"/>
	</g>
</g>
<g>
	<g>
		<path class="st9" d="M339.7,184.6c0.2,0.5,0,1-0.6,1c-0.6,0-1.1-0.4-1.3-1c-0.2-0.6,0-1,0.6-1C339,183.6,339.5,184,339.7,184.6z
			 M342.5,195.6L339,187h1.6l3.5,8.6H342.5z"/>
	</g>
</g>
<g>
	<g>
		<path class="st1" d="M325.6,208.9c-0.3,0.2-1.1,0.5-2.3,0.5c-2.6,0-5-1.8-6.1-4.4c-1.1-2.7,0-4.6,2.8-4.6c0.9,0,1.8,0.2,2.4,0.4
			l0.1,1.2c-0.5-0.2-1.1-0.4-2-0.4c-2,0-2.5,1.5-1.7,3.3c0.8,2,2.6,3.2,4.3,3.2c0.9,0,1.4-0.2,1.8-0.4L325.6,208.9z"/>
		<path class="st1" d="M322.4,196.6h1.6l2.2,5.4h0c0.1-0.4,0.3-0.8,0.7-1.1c0.4-0.3,0.8-0.4,1.4-0.4c1.2,0,3.3,0.7,4.5,3.7l2.1,5.1
			h-1.6l-2-4.9c-0.6-1.4-1.6-2.6-3-2.6c-1,0-1.5,0.7-1.5,1.6c0,0.2,0.1,0.4,0.2,0.7l2.1,5.2h-1.6L322.4,196.6z"/>
		<path class="st1" d="M342.2,209.3l-0.6-1.1h-0.1c-0.2,0.7-0.9,1.3-2.1,1.3c-1.7,0-3.1-1.2-3.6-2.5c-0.8-2.1,0.5-3.2,3.9-3.2
			l-0.1-0.2c-0.3-0.7-1-2-2.8-2c-0.8,0-1.5,0.3-2,0.6l-0.8-1c0.5-0.5,1.4-0.8,2.5-0.8c2.6,0,4,1.8,4.7,3.5l1.3,3.2
			c0.3,0.7,0.6,1.5,1,2.1H342.2z M340.2,204.9c-1.7,0-3.5,0.3-2.9,1.9c0.4,1,1.3,1.5,2.1,1.5c1.1,0,1.5-0.7,1.5-1.4
			c0-0.2,0-0.3-0.1-0.5L340.2,204.9z"/>
		<path class="st1" d="M345.2,205.2c0.9,2.1,2.6,3,4.2,3c1.1,0,1.7-0.2,2.2-0.4l0.7,1.1c-0.5,0.2-1.3,0.5-2.7,0.5
			c-2.7,0-4.9-1.7-6-4.3c-1.1-2.6-0.4-4.6,2.2-4.6c2.8,0,4.6,2.5,5.2,4.1c0.1,0.3,0.2,0.6,0.2,0.7H345.2z M349.4,204.1
			c-0.4-1-1.4-2.5-3.2-2.5c-1.6,0-1.7,1.5-1.4,2.5H349.4z"/>
		<path class="st1" d="M352.5,203.3c-0.4-1-0.8-1.9-1.2-2.7h1.4l0.7,1.7h0.1c-0.1-1.2,0.6-1.9,1.6-1.9c0.2,0,0.3,0,0.5,0.1l0.6,1.5
			c-0.2,0-0.3-0.1-0.6-0.1c-1.1,0-1.5,0.8-1.3,2c0,0.2,0.1,0.5,0.2,0.7l1.9,4.6h-1.5L352.5,203.3z"/>
	</g>
</g>
<g>
	<g>
		<path class="st9" d="M344,208.4l4.9-8.3l1.6,1.1l-5,8.3L344,208.4z"/>
	</g>
</g>
</svg>
