<?xml version="1.0" encoding="utf-8"?>
<!-- Generator: Adobe Illustrator 19.2.0, SVG Export Plug-In . SVG Version: 6.00 Build 0)  -->
<svg version="1.1" id="Layer_4" xmlns="http://www.w3.org/2000/svg"  x="0px" y="0px"
	 width="384px" height="300px" viewBox="0 0 384 300" style="enable-background:new 0 0 384 300;" xml:space="preserve">
<style type="text/css">
	.st0{fill:#E4EFFF;}
	.st1{fill:#FFFFFF;}
	.st2{fill:#80C3FF;}
	.st3{opacity:0.5;}
	.st4{fill:#CAE3FF;}
	.st5{fill:#B9DAFF;}
	.st6{fill:#1C67C6;}
	.st7{fill:#FFD87D;}
	.st8{fill:#2C7ED4;}
	.st9{fill:#52A8FF;}
	.st10{opacity:0.4;}
	.st11{fill:#EBC269;}
	.st12{fill:#1462B7;}
	.st13{fill:#E0B35A;}
	.st14{fill:#FFEFBB;}
	.st15{fill:#F5E690;}
	.st16{fill:none;stroke:#CAE3FF;stroke-width:5.9639;stroke-miterlimit:10;}
	.st17{fill:#FFE271;}
	.st18{fill:#EDD059;}
	.st19{fill:none;stroke:#E4EFFF;stroke-width:1.1928;stroke-miterlimit:10;}
	.st20{fill:#FBFBFB;}
	.st21{fill:#1C67D2;}
	.st22{fill:#2C7EE0;}
	.st23{fill:#52B4FF;}
	.st24{fill:#82CFFF;}
	.st25{fill:#348AEA;}
	.st26{fill:#D6EFFF;}
	.st27{fill:none;stroke:#231F20;stroke-miterlimit:10;}
	.st28{fill:#E9E9E9;}
</style>
<path class="st0" d="M326.3,172.9c0,43.7-35.4,79.1-79.1,79.1H136.3c-43.7,0-79.1-35.4-79.1-79.1v-43.5c0-43.7,35.4-79.1,79.1-79.1
	h110.9c43.7,0,79.1,35.4,79.1,79.1V172.9z"/>
<g>
	<path class="st16" d="M145.9,122.9l-13.4,12.2l-15.3,13.8c-4.8,4.3-12.1,4-16.4-0.8l-7.5-8.3c-5.9-6.5-16-7-22.5-1.1l-24.2,21.9"/>
	<path class="st16" d="M336.5,65.6L308,91.4c-8.9,8-22.6,7.4-30.6-1.5l-10.2-11.3c-8-8.9-21.7-9.5-30.6-1.5L165,142"/>
	<polygon class="st4" points="335.8,83.8 318.4,64.5 347,56.1 	"/>
</g>
<g>
	<rect x="230.6" y="113.2" class="st1" width="45" height="37.6"/>
	<g>
		
			<ellipse transform="matrix(0.7071 -0.7072 0.7072 0.7071 -19.1905 217.6391)" class="st17" cx="253.1" cy="132" rx="13.2" ry="13.2"/>
		<path class="st18" d="M258.9,127.6l4.2-4.2c-0.2-0.2-0.4-0.5-0.7-0.7c-0.2-0.2-0.5-0.4-0.7-0.7l-4.2,4.2c-1.8-2.1-2.8-4.7-2.9-7.3
			c-0.7-0.1-1.3-0.1-2-0.1c0.1,3.1,1.3,6.2,3.5,8.8l-3,3l-8.6-8.6c-0.2,0.2-0.5,0.4-0.7,0.7c-0.2,0.2-0.5,0.5-0.7,0.7l8.6,8.6l-3,3
			c-2.5-2.2-5.6-3.3-8.8-3.5c0,0.7,0,1.3,0.1,2c2.6,0.1,5.2,1.1,7.3,2.9l-4.2,4.2c0.2,0.3,0.4,0.5,0.7,0.7c0.2,0.2,0.5,0.5,0.7,0.7
			l4.2-4.2c1.8,2.1,2.7,4.7,2.9,7.3c0.7,0.1,1.3,0.1,2,0.1c-0.1-3.1-1.3-6.2-3.5-8.8l3-3l8.6,8.6c0.3-0.2,0.5-0.4,0.7-0.7
			c0.2-0.2,0.4-0.5,0.7-0.7l-8.6-8.6l3-3c2.5,2.2,5.6,3.3,8.8,3.5c0-0.7,0-1.3-0.1-2C263.6,130.3,261,129.4,258.9,127.6z"/>
	</g>
</g>
<rect x="52.8" y="169.7" class="st5" width="43.3" height="37.3"/>
<path class="st0" d="M384.3,172.2c0-5.9-4.8-10.7-10.7-10.7h-36.5v32.8h36.5c5.9,0,10.7,4.8,10.7,10.7V172.2z"/>
<rect x="116.9" y="89.6" class="st2" width="60.5" height="28.9"/>
<path class="st9" d="M248,128.5l-0.9-8.9c-3-29.8-29.6-51.6-59.4-48.6c-29.8,3-51.6,29.6-48.6,59.4l0.9,8.9
	c1,9.6-3.8,18.9-12.1,23.7c-25.9,15-34.8,48.2-19.8,74.2c2.9,4.9,6.4,9.2,10.4,12.9c5.7,1.3,11.7,2.1,17.9,2.1h53.6
	C230.2,224.8,252.8,177.3,248,128.5z"/>
<rect x="0.3" y="187.5" class="st0" width="14" height="8.1"/>
<path class="st8" d="M148.9,252h98.3l-8.1-28.6c-0.5-2.6-1.4-5.1-2.4-7.5c0,0,0,0,0,0c0,0,0,0,0,0c-5-11-15.6-18.8-28.2-19.9
	c-0.8-0.1-1.6-0.1-2.5-0.1h-16.5c-0.6,0-1.1,0-1.7,0.1c-15.3,1.3-27.7,12.7-30.7,27.5L148.9,252z"/>
<path class="st17" d="M198.1,212.5L198.1,212.5c8.5,0,15.5-6.9,15.5-15.5v-15.8l-30.9,0V197C182.6,205.6,189.5,212.5,198.1,212.5"/>
<path class="st17" d="M204.7,89.5L179.4,92c-15.6,1.6-27.1,15.5-25.5,31.1l0,0l3.4,34.1c2.3,22.6,22.4,39.1,45,36.9
	c22.6-2.3,39.1-22.4,36.9-45l-3.4-34.1C234.3,99.3,220.3,87.9,204.7,89.5z"/>
<path class="st1" d="M204.9,170.3L204.9,170.3c6.4-0.6,11-6.3,10.4-12.7l-0.1-0.6l-23,2.3l0.1,0.6
	C192.9,166.3,198.6,170.9,204.9,170.3"/>
<g>
	
		<ellipse transform="matrix(0.9948 -0.1014 0.1014 0.9948 -13.8382 19.3681)" class="st9" cx="183.5" cy="145.8" rx="5.1" ry="5.1"/>
	<path class="st9" d="M226.5,141.4c0.3,2.8-1.7,5.3-4.5,5.6c-2.8,0.3-5.3-1.7-5.6-4.5c-0.3-2.8,1.7-5.3,4.6-5.6
		C223.7,136.5,226.2,138.6,226.5,141.4z"/>
</g>
<g>
	<g>
		<path class="st17" d="M163.4,161.1l-4.1,0.4c-5.7,0.6-10.7-3.6-11.3-9.2c-0.6-5.7,3.6-10.7,9.2-11.3l4.1-0.4L163.4,161.1z"/>
		<path class="st17" d="M231.6,154.1l4.1-0.4c5.7-0.6,9.8-5.6,9.2-11.3c-0.6-5.7-5.6-9.8-11.3-9.2l-4.1,0.4L231.6,154.1z"/>
	</g>
</g>
<path class="st9" d="M201.5,81.9l-25.3,2.5c-17.8,1.8-30.8,17.7-29,35.4l1.4,14.4l22.7-2.3c21.1-2.1,36.6-20.6,35.2-41.7
	c2.2,17.2,15.4,30.4,31.7,33.4l-1.3-12.8C235.2,93.2,219.3,80.1,201.5,81.9z"/>
<g>
	<g>
		<path class="st8" d="M187.7,135.9c-0.2,0-0.4,0-0.5,0c-1.1-0.2-2-0.3-2.8-0.3l-5.4,0.3c-0.8,0.1-1.7,0.2-2.7,0.6
			c-1,0.4-2.1-0.2-2.5-1.2c-0.4-1,0.2-2.1,1.2-2.5c1.4-0.5,2.6-0.8,3.8-0.8l5.4-0.3c1.2-0.1,2.4,0,3.9,0.3c1.1,0.2,1.7,1.3,1.5,2.3
			C189.3,135.2,188.6,135.8,187.7,135.9z"/>
	</g>
	<g>
		<path class="st8" d="M212.6,133.4c0.2,0,0.4-0.1,0.5-0.1c1-0.4,1.9-0.7,2.7-0.8l5.4-0.7c0.8-0.1,1.7-0.1,2.8,0.1
			c1.1,0.2,2.1-0.6,2.2-1.7c0.2-1.1-0.6-2.1-1.7-2.2c-1.5-0.2-2.7-0.2-3.9-0.1l-5.3,0.7c-1.2,0.2-2.4,0.5-3.7,1.1
			c-1,0.4-1.5,1.6-1,2.6C210.9,133.1,211.8,133.5,212.6,133.4z"/>
	</g>
</g>
<rect x="222.9" y="43.7" class="st2" width="26.3" height="17.4"/>
<g>
	<rect x="284.4" y="122.7" class="st2" width="74.3" height="62.1"/>
	<g>
		<path class="st0" d="M301.6,132.3c-0.2,1.2-0.3,2.4-0.3,3.7v12.2c0,9.3,6,17.2,14.3,20.2c0.2-1.2,0.3-2.4,0.3-3.7v-12.2
			C315.9,143.2,309.9,135.2,301.6,132.3z"/>
		<path class="st0" d="M341.5,132.3c0.2,1.2,0.3,2.4,0.3,3.7v12.2c0,9.3-6,17.2-14.3,20.2c-0.2-1.2-0.3-2.4-0.3-3.7v-12.2
			C327.3,143.2,333.2,135.2,341.5,132.3z"/>
		<path class="st1" d="M341.9,157.8c0,8.4-6.8,15.2-15.2,15.2h-10.3c-8.4,0-15.2-6.8-15.2-15.2v-1c0-8.4,6.8-15.2,15.2-15.2h10.3
			c8.4,0,15.2,6.8,15.2,15.2V157.8z"/>
		<path class="st8" d="M315.2,151.2c0,1.3-1.1,2.3-2.4,2.3l0,0c-1.3,0-2.3-1.1-2.3-2.3l0,0c0-1.3,1-2.3,2.3-2.3l0,0
			C314.1,148.8,315.2,149.9,315.2,151.2L315.2,151.2z"/>
		<path class="st8" d="M328,151.2c0,1.3,1.1,2.3,2.4,2.3l0,0c1.3,0,2.3-1.1,2.3-2.3l0,0c0-1.3-1-2.3-2.3-2.3l0,0
			C329,148.8,328,149.9,328,151.2L328,151.2z"/>
		<g>
			<rect x="320.7" y="158.3" class="st2" width="1.3" height="5"/>
		</g>
		<g>
			<path class="st2" d="M323.1,163.9h-3.5c-2.1,0-4.1-1.2-5.2-3c-0.2-0.3-0.1-0.7,0.2-0.9c0.3-0.2,0.7-0.1,0.9,0.2
				c0.9,1.5,2.4,2.4,4.1,2.4h3.5c1.7,0,3.2-0.9,4.1-2.4c0.2-0.3,0.6-0.4,0.9-0.2c0.3,0.2,0.4,0.6,0.2,0.9
				C327.2,162.8,325.2,163.9,323.1,163.9z"/>
		</g>
		<path class="st8" d="M323.4,158.7c-1.2,1.2-3,1.2-4.2,0l-1.5-1.6c-1.2-1.2-0.7-2.2,0.9-2.2h5.5c1.7,0,2.1,1,0.9,2.2L323.4,158.7z"
			/>
	</g>
</g>
<path class="st9" d="M94.8,88c0,3.5,2.8,6.3,6.3,6.3h4.7v-22h-4.7c-3.5,0-6.3-2.8-6.3-6.3V88z"/>
<path class="st2" d="M94.8,66c0-3.5,2.8-6.3,6.3-6.3h21.4v22h-21.4c-3.5,0-6.3,2.8-6.3,6.3V66z"/>
<path class="st5" d="M384.3,205c0,5.9-4.8,10.7-10.7,10.7H364V183h9.6c5.9,0,10.7-4.8,10.7-10.7V205z"/>
<g>
	<rect x="155.5" y="32.4" class="st17" width="38.6" height="47.2"/>
	<rect x="170.4" y="63.6" class="st1" width="8.8" height="8.9"/>
	<g>
		<polygon class="st8" points="187.6,67.2 162.1,67.2 174.9,48.8 		"/>
		<polygon class="st8" points="184.5,57 165.2,57 174.9,43 		"/>
		<polygon class="st8" points="180.8,48 168.9,48 174.9,39.3 		"/>
	</g>
</g>
<g>
	<rect x="76.9" y="178.6" class="st2" width="70.9" height="59.2"/>
	<g>
		<g>
			<path class="st8" d="M110,202c-0.1-1.7-0.6-3.3-1.3-4.9l-4.6-9.5l3.6-1.7l4.6,9.5c1,2,1.5,4.1,1.7,6.3L110,202z"/>
		</g>
		<path class="st17" d="M131.9,211.8c0-7-5.7-12.7-12.7-12.7c-2.7,0-5.2,0.9-7.3,2.3c-2.1-1.4-4.6-2.3-7.2-2.3
			c-7,0-12.7,5.7-12.7,12.7v3.3c0,0.9,0.1,1.7,0.3,2.6c1.2,7.3,7.6,12.9,15.3,12.9h8.8c8.1,0,14.8-6.3,15.4-14.2
			c0-0.4,0.1-0.9,0.1-1.3V211.8z"/>
		<path class="st1" d="M111.7,195.1v4.2c0,0.9,0.1,1.8,0.3,2.6c0.1,0,0.1,0,0.2,0c5.8,0,10.6-4.7,10.6-10.6v-4.2
			c0-0.9-0.1-1.8-0.3-2.6c-0.1,0-0.1,0-0.2,0C116.4,184.5,111.7,189.3,111.7,195.1z"/>
	</g>
</g>
<rect x="25.6" y="205.7" class="st2" width="16.8" height="11.5"/>
<rect x="161.6" y="223.3" class="st1" width="35.6" height="19.8"/>
<g>
	<rect x="209" y="238.2" class="st9" width="63.6" height="33.8"/>
	<g>
		<path class="st2" d="M236.8,255.5c0,3.6-2.9,6.5-6.5,6.5h-2.2c-3.6,0-6.5-2.9-6.5-6.5l0,0c0-3.6,2.9-6.5,6.5-6.5h2.2
			C233.9,249,236.8,251.9,236.8,255.5L236.8,255.5z"/>
		<path class="st2" d="M244.7,255.5c0,3.6,2.9,6.5,6.5,6.5h2.2c3.6,0,6.5-2.9,6.5-6.5l0,0c0-3.6-2.9-6.5-6.5-6.5h-2.2
			C247.6,249,244.7,251.9,244.7,255.5L244.7,255.5z"/>
		<g>
			<path class="st1" d="M233.1,256.4c-0.5,0-0.9-0.4-0.9-0.9c0-1.1-0.9-2-2-2c-0.5,0-0.9-0.4-0.9-0.9s0.4-0.9,0.9-0.9
				c2.1,0,3.8,1.7,3.8,3.8C234.1,256,233.7,256.4,233.1,256.4z"/>
		</g>
		<g>
			<path class="st1" d="M256.3,256.4c-0.5,0-0.9-0.4-0.9-0.9c0-1.1-0.9-2-2-2c-0.5,0-0.9-0.4-0.9-0.9s0.4-0.9,0.9-0.9
				c2.1,0,3.8,1.7,3.8,3.8C257.2,256,256.8,256.4,256.3,256.4z"/>
		</g>
		<path class="st8" d="M264.5,251.5h-4.3c-1.4-2.3-3.9-3.9-6.8-3.9h-2.2c-2.8,0-5.3,1.5-6.7,3.7c-1.1-0.7-2.4-1.1-3.8-1.1
			c-1.4,0-2.7,0.4-3.8,1.1c-1.4-2.2-3.9-3.7-6.7-3.7h-2.2c-2.9,0-5.4,1.6-6.8,3.9H217c-0.8,0-1.4,0.6-1.4,1.4c0,0.8,0.6,1.4,1.4,1.4
			h3.3c-0.1,0.4-0.1,0.8-0.1,1.2c0,4.4,3.5,7.9,7.9,7.9h2.2c4.4,0,7.9-3.5,7.9-7.9c0-0.5-0.1-1.1-0.2-1.6c1.6-1.2,3.9-1.2,5.5,0
			c-0.1,0.5-0.2,1-0.2,1.6c0,4.4,3.5,7.9,7.9,7.9h2.2c4.4,0,7.9-3.5,7.9-7.9c0-0.4-0.1-0.8-0.1-1.2h3.3c0.8,0,1.4-0.6,1.4-1.4
			C265.8,252.1,265.2,251.5,264.5,251.5z M230.3,260.7h-2.2c-2.9,0-5.2-2.3-5.2-5.2c0-2.8,2.3-5.2,5.2-5.2h2.2
			c2.8,0,5.2,2.3,5.2,5.2C235.4,258.3,233.1,260.7,230.3,260.7z M253.4,260.7h-2.2c-2.8,0-5.2-2.3-5.2-5.2c0-2.8,2.3-5.2,5.2-5.2
			h2.2c2.8,0,5.2,2.3,5.2,5.2C258.6,258.3,256.3,260.7,253.4,260.7z"/>
	</g>
</g>
<rect x="281.4" y="223.8" class="st4" width="26.1" height="15.6"/>
<rect x="319.4" y="216.3" class="st0" width="11" height="9.7"/>
<rect x="264.9" y="37.2" class="st17" width="20.6" height="9.6"/>
<rect x="254.5" y="190.7" class="st5" width="11" height="9.7"/>
</svg>
