<?xml version="1.0" encoding="utf-8"?>
<!-- Generator: Adobe Illustrator 19.2.0, SVG Export Plug-In . SVG Version: 6.00 Build 0)  -->
<svg version="1.1" id="Layer_4" xmlns="http://www.w3.org/2000/svg"  x="0px" y="0px"
	 width="384px" height="300px" viewBox="0 0 384 300" style="enable-background:new 0 0 384 300;" xml:space="preserve">
<style type="text/css">
	.st0{fill:#E4EFFF;}
	.st1{fill:#FFFFFF;}
	.st2{fill:#80C3FF;}
	.st3{opacity:0.5;}
	.st4{fill:#CAE3FF;}
	.st5{fill:#B9DAFF;}
	.st6{fill:#1C67C6;}
	.st7{fill:#FFD87D;}
	.st8{fill:#2C7ED4;}
	.st9{fill:#52A8FF;}
	.st10{opacity:0.4;}
	.st11{fill:#EBC269;}
	.st12{fill:#1462B7;}
	.st13{fill:#E0B35A;}
	.st14{fill:#FFEFBB;}
	.st15{fill:#F5E690;}
	.st16{fill:none;stroke:#CAE3FF;stroke-width:5.9639;stroke-miterlimit:10;}
	.st17{fill:#FFE271;}
	.st18{fill:#EDD059;}
	.st19{fill:none;stroke:#E4EFFF;stroke-width:1.1928;stroke-miterlimit:10;}
	.st20{fill:#FBFBFB;}
	.st21{fill:#1C67D2;}
	.st22{fill:#2C7EE0;}
	.st23{fill:#52B4FF;}
	.st24{fill:#82CFFF;}
	.st25{fill:#348AEA;}
	.st26{fill:#D6EFFF;}
	.st27{fill:none;stroke:#231F20;stroke-miterlimit:10;}
	.st28{fill:#E9E9E9;}
</style>
<g>
	<rect x="67.4" y="54.4" class="st0" width="266.8" height="169.2"/>
	<path class="st4" d="M127.3,74.8v41.1h67.6V74.8H127.3z M188.5,110.3h-54.8V80.4h54.8V110.3z"/>
	<polygon class="st1" points="67.4,169 67.4,208.6 221.7,54.4 182,54.4 	"/>
	<g>
		<polygon class="st0" points="133.7,110.3 133.7,102.7 127.3,109.1 127.3,115.9 160.2,115.9 165.8,110.3 		"/>
		<polygon class="st0" points="194.9,81.2 194.9,74.8 161.6,74.8 156,80.4 188.5,80.4 188.5,87.6 		"/>
	</g>
	<polygon class="st1" points="67.4,144.4 152.7,59.2 131.9,59.2 67.4,123.6 	"/>
	<g>
		<g>
			<rect x="226.4" y="88.8" class="st4" width="100.3" height="5"/>
			<rect x="226.4" y="106.8" class="st4" width="100.3" height="5"/>
			<rect x="226.4" y="124.8" class="st4" width="100.3" height="5"/>
		</g>
	</g>
	<g>
		<g>
			<rect x="293.2" y="29.4" class="st5" width="30.8" height="27.5"/>
			<path class="st5" d="M280.1,70.1h-4.5c-7.3,0-13.2-5.9-13.2-13.2h30.8C293.2,64.2,287.3,70.1,280.1,70.1z"/>
			<rect x="231.6" y="29.4" class="st5" width="30.8" height="27.5"/>
			<path class="st5" d="M218.4,70.1h-4.5c-7.3,0-13.2-5.9-13.2-13.2h30.8C231.6,64.2,225.7,70.1,218.4,70.1z"/>
			<rect x="169.9" y="29.4" class="st5" width="30.8" height="27.5"/>
			<path class="st5" d="M156.7,70.1h-4.5c-7.3,0-13.2-5.9-13.2-13.2h30.8C169.9,64.2,164,70.1,156.7,70.1z"/>
			<rect x="108.2" y="29.4" class="st5" width="30.8" height="27.5"/>
			<path class="st5" d="M95,70.1h-4.5c-7.3,0-13.2-5.9-13.2-13.2h30.8C108.2,64.2,102.3,70.1,95,70.1z"/>
			<path class="st5" d="M341.7,56.9h4.5v13.2h-4.5h-4.5c-7.3,0-13.2-5.9-13.2-13.2H341.7z"/>
			<path class="st5" d="M55.4,51.6v5.3h22.2V29.4C65.3,29.4,55.4,39.4,55.4,51.6z"/>
		</g>
	</g>
	<g>
		<g>
			<path class="st4" d="M310.9,70.1h-4.5c-7.3,0-13.2-5.9-13.2-13.2h30.8C324.1,64.2,318.2,70.1,310.9,70.1z"/>
			<rect x="262.4" y="29.4" class="st4" width="30.8" height="27.5"/>
			<path class="st4" d="M249.2,70.1h-4.5c-7.3,0-13.2-5.9-13.2-13.2h30.8C262.4,64.2,256.5,70.1,249.2,70.1z"/>
			<rect x="200.7" y="29.4" class="st4" width="30.8" height="27.5"/>
			<path class="st4" d="M187.5,70.1h-4.5c-7.3,0-13.2-5.9-13.2-13.2h30.8C200.7,64.2,194.8,70.1,187.5,70.1z"/>
			<rect x="139.1" y="29.4" class="st4" width="30.8" height="27.5"/>
			<path class="st4" d="M125.9,70.1h-4.5c-7.3,0-13.2-5.9-13.2-13.2h30.8C139.1,64.2,133.2,70.1,125.9,70.1z"/>
			<rect x="77.4" y="29.4" class="st4" width="30.8" height="27.5"/>
			<path class="st4" d="M346.3,51.6v5.3h-22.2V29.4C336.3,29.4,346.3,39.4,346.3,51.6z"/>
			<path class="st4" d="M59.9,56.9h-4.5v13.2h4.5h4.5c7.3,0,13.2-5.9,13.2-13.2H59.9z"/>
		</g>
	</g>
</g>
<rect x="17" y="112.8" class="st0" width="36.1" height="3.4"/>
<rect x="7" y="125.6" class="st0" width="42.4" height="3.4"/>
<rect x="27.4" y="114.5" class="st0" width="3.4" height="12.7"/>
<rect x="4.2" y="100.1" class="st0" width="42.4" height="3.4"/>
<rect x="17" y="101.8" class="st0" width="3.4" height="12.7"/>
<rect x="341.6" y="168" class="st0" width="39.6" height="3.4"/>
<rect x="348.8" y="155.3" class="st0" width="19.1" height="3.4"/>
<rect x="358.3" y="157" class="st0" width="3.4" height="12.7"/>
<rect x="339.7" y="115.3" class="st0" width="42.4" height="3.4"/>
<rect x="369.3" y="104.3" class="st0" width="3.4" height="12.7"/>
<rect x="351.6" y="180.8" class="st0" width="33.4" height="3.4"/>
<rect x="377.8" y="169.7" class="st0" width="3.4" height="12.7"/>
<rect x="0.8" y="169" class="st0" width="49.2" height="3.4"/>
<rect x="23.4" y="158" class="st0" width="3.4" height="12.7"/>
<rect x="23.4" y="183.7" class="st0" width="3.4" height="12.7"/>
<rect x="0.8" y="181.7" class="st0" width="62" height="3.4"/>
<rect x="37.5" y="170.7" class="st0" width="3.4" height="12.7"/>
<rect x="0.8" y="170.7" class="st0" width="3.4" height="12.7"/>
<g>
	<g>
		<g>
			<g>
				<path class="st7" d="M178.9,166.1l5.7,4.3l7.9-10.6c1.2-1.6,0.8-3.8-0.7-5c-1.6-1.2-3.8-0.8-5,0.7L178.9,166.1z"/>
				<path class="st7" d="M184.8,169.5l5.5,4.5l8.3-10.3c1.2-1.5,1-3.8-0.5-5c-1.5-1.2-3.8-1-5,0.5L184.8,169.5z"/>
				<path class="st7" d="M182,176.8l6.5,3.7l9.1-9.5c1.4-1.4,1.3-3.7-0.1-5c-1.4-1.3-3.7-1.3-5,0.1L182,176.8z"/>
				<path class="st7" d="M179.2,175l0.9,0l-0.1-12.4c0-1.8-1.6-3.3-3.6-3.2c-2,0.1-3.5,1.6-3.5,3.5l0,6.3
					C173,172.4,175.8,175.1,179.2,175"/>
				<polygon class="st7" points="180.7,165.1 175.6,173 183.2,178.5 190.7,172.7 				"/>
			</g>
			<path class="st7" d="M188.5,180.5c3-3.5,2.7-8.7-0.8-11.8c-3.5-3-8.7-2.7-11.8,0.8c-3,3.5-2.7,8.7,0.8,11.8
				C180.2,184.3,185.4,184,188.5,180.5z"/>
		</g>
	</g>
	<g>
		<g>
			<polygon class="st2" points="172.3,227.9 178.2,212.3 141.9,198.7 136.1,214.3 			"/>
			<path class="st2" d="M136.1,214.3c4.3,1.6,9.1-0.6,10.8-4.9c1.6-4.3-0.6-9.1-4.9-10.8c-4.3-1.6-9.1,0.6-10.8,4.9
				C129.6,207.9,131.7,212.7,136.1,214.3z"/>
		</g>
		<g>
			
				<rect x="157.2" y="190.8" transform="matrix(0.1488 -0.9889 0.9889 0.1488 -45.1239 345.9081)" class="st2" width="42.3" height="16.7"/>
			<path class="st2" d="M167,218.8c0.7-4.6,4.9-7.7,9.5-7c4.6,0.7,7.7,4.9,7,9.5c-0.7,4.6-5,7.7-9.5,7
				C169.4,227.7,166.3,223.4,167,218.8z"/>
		</g>
	</g>
	<path class="st2" d="M318,172.4c0-0.1,0-0.2,0-0.3l0-33.8c0-21.5-17.4-39-39-39c-21.5,0-39,17.5-39,39l0,33.8c0,0.1,0,0.2,0,0.3
		c0,0.1,0,0.2,0,0.2l0,14.3c0,21.5,17.4,39,39,39c21.5,0,39-17.5,39-39l0-14.3C318,172.5,318,172.4,318,172.4z"/>
	<g>
		
			<rect x="235.3" y="217" transform="matrix(0.3367 -0.9416 0.9416 0.3367 -42.1468 387.0472)" class="st8" width="36.7" height="12.8"/>
		<path class="st8" d="M253.8,204c-1.2,3.3,0.5,7,3.9,8.2c3.3,1.2,7-0.5,8.2-3.9c1.2-3.3-0.5-7-3.9-8.2
			C258.7,198.9,255,200.7,253.8,204z"/>
	</g>
	<g>
		<ellipse class="st8" cx="289.5" cy="217" rx="17.2" ry="17.2"/>
		<ellipse class="st8" cx="263.4" cy="217" rx="17.2" ry="17.2"/>
	</g>
	<g>
		<g>
			<circle class="st8" cx="274.3" cy="212.2" r="23"/>
			<circle class="st8" cx="283.9" cy="212.2" r="23"/>
		</g>
		<rect x="274.3" y="189.2" class="st8" width="9.7" height="46"/>
	</g>
	<path class="st7" d="M278.9,201L278.9,201c-6.1,0-11-4.9-11-11v-11.3l22,0V190C289.9,196,285,201,278.9,201"/>
	<polygon class="st8" points="279.1,224 255.3,224 258.1,251.8 279.1,251.8 299.7,251.8 304.2,224 	"/>
	<path class="st7" d="M267.7,116.4l18,0c11.2,0,20.2,9.1,20.2,20.2l0,0v24.4c0,16.2-13.1,29.2-29.2,29.2
		c-16.1,0-29.2-13.1-29.2-29.2l0-24.4C247.5,125.4,256.5,116.4,267.7,116.4z"/>
	<path class="st7" d="M301.4,164.1h3c4,0,7.3-3.3,7.3-7.3c0-4-3.3-7.3-7.3-7.3l-2.9,0L301.4,164.1z"/>
	<path class="st1" d="M271.1,173.3L271.1,173.3c-4.5,0-8.2-3.7-8.2-8.2l0-0.4h16.4l0,0.4C279.3,169.7,275.6,173.3,271.1,173.3"/>
	<g>
		<g>
			
				<ellipse transform="matrix(2.291172e-003 -1 1 2.291172e-003 128.6718 439.6601)" class="st9" cx="284.7" cy="155.3" rx="3.6" ry="3.6"/>
			
				<ellipse transform="matrix(2.817857e-003 -1 1 2.817857e-003 101.6033 412.4408)" class="st9" cx="257.6" cy="155.3" rx="3.6" ry="3.6"/>
		</g>
	</g>
	<path class="st2" d="M126.7,192.1c-0.1,0-0.3,0-0.4,0v0H106c-12.7,0-23,10.3-23,23v37.2h66.7v-37.2
		C149.7,202.4,139.4,192.1,126.7,192.1z"/>
	<path class="st7" d="M116.3,201.5L116.3,201.5c7.3,0,13.2-5.9,13.2-13.2v-13.5h-26.4v13.5C103.1,195.6,109.1,201.5,116.3,201.5"/>
	<path class="st7" d="M123.2,189L123.2,189c16.1-1.3,28.1-15.3,26.9-31.4l-3.2-41l-57.5,15.2l2.4,30.3
		C93,178.2,107.1,190.2,123.2,189"/>
	<g>
		<g>
			<path class="st9" d="M120,148.7c0.1,2-1.3,3.7-3.3,3.9c-2,0.2-3.7-1.3-3.9-3.3c-0.2-2,1.3-3.7,3.3-3.9
				C118,145.2,119.8,146.7,120,148.7z"/>
			<path class="st9" d="M146.9,146.6c0.2,2-1.3,3.7-3.3,3.9c-2,0.2-3.7-1.3-3.9-3.3c-0.2-2,1.3-3.7,3.3-3.9
				C145,143.1,146.8,144.6,146.9,146.6z"/>
		</g>
	</g>
	<path class="st8" d="M147.5,138.5c0.1,1.3-0.8,2.4-2.1,2.6l-6.5,0.6c-1.3,0.1-2.4-0.8-2.6-2.1l0,0c-0.1-1.3,0.8-2.4,2.1-2.6
		l6.5-0.6C146.3,136.3,147.4,137.2,147.5,138.5L147.5,138.5z"/>
	<path class="st8" d="M110.6,140.8c0.1,1.3,1.2,2.3,2.5,2.2l6.5-0.4c1.3-0.1,2.3-1.2,2.2-2.5l0,0c-0.1-1.3-1.2-2.3-2.5-2.2l-6.5,0.4
		C111.5,138.4,110.5,139.5,110.6,140.8L110.6,140.8z"/>
	<g>
		<path class="st8" d="M290.2,147.9c0,0.8-0.7,1.5-1.5,1.5l-8.4,0c-0.8,0-1.5-0.7-1.5-1.5l0,0c0-0.8,0.7-1.5,1.5-1.5l8.4,0
			C289.5,146.4,290.2,147.1,290.2,147.9L290.2,147.9z"/>
		<path class="st8" d="M263.3,148.2c0,0.8-0.7,1.5-1.6,1.4l-8.4-0.4c-0.8,0-1.5-0.7-1.4-1.6l0,0c0-0.8,0.7-1.5,1.6-1.4l8.4,0.4
			C262.7,146.6,263.3,147.3,263.3,148.2L263.3,148.2z"/>
	</g>
	
		<rect x="89.7" y="131.5" transform="matrix(0.997 -7.765868e-002 7.765868e-002 0.997 -10.9641 7.7803)" class="st8" width="9.8" height="26.8"/>
	<rect x="123.9" y="197.1" class="st9" width="2.1" height="55.2"/>
	<g>
		<path class="st8" d="M157.3,103.9l-0.4-5l-42.9,3.4c-15.2,1.2-26.6,14.5-25.4,29.7l47.9-3.7C148.9,127.2,158.3,116.3,157.3,103.9"
			/>
		<path class="st8" d="M101.6,126.6c-2.8-14.4,6.6-28.4,21-31.2l2.1-0.4v0c9.3-1.8,18-4.8,26-8.9c0.3,0.9,0.5,1.9,0.7,2.8
			c2.9,14.9-6.8,29.2-21.7,32.1l0,0c-0.4,0.1-0.8,0.2-1.3,0.3L101.6,126.6z"/>
		<path class="st8" d="M92.6,129.2c-3.5-12.8,4-26,16.8-29.5l1.9-0.5v0c8.2-2.3,15.8-5.6,22.8-9.8c0.3,0.8,0.6,1.6,0.8,2.5
			c3.6,13.2-4.1,26.8-17.3,30.4l0,0c-0.4,0.1-0.7,0.3-1.1,0.4L92.6,129.2z"/>
	</g>
	<path class="st1" d="M131.3,168.5L131.3,168.5c3.9-0.3,6.8-3.7,6.5-7.6l0-0.4l-14.1,1.1l0,0.4C124,165.9,127.4,168.8,131.3,168.5"
		/>
	<path class="st7" d="M95.6,162.1l-2.9,0.2c-4,0.3-7.5-2.7-7.9-6.7c-0.3-4,2.7-7.5,6.7-7.9l3-0.2L95.6,162.1z"/>
	<path class="st7" d="M113,232l0.4,0.8l11.5-4.8c1.7-0.7,2.4-2.7,1.6-4.5c-0.8-1.8-2.9-2.6-4.6-1.9l-5.8,2.4
		C113,225.3,111.6,229,113,232"/>
	<g>
		<path class="st8" d="M143.7,242.8h-13.8c-5.3,0-9.5-4.3-9.5-9.5v-3.1c0-5.3,4.3-9.5,9.5-9.5h7.7v4.2h-7.7c-2.9,0-5.4,2.4-5.4,5.4
			v3.1c0,3,2.4,5.3,5.4,5.3h13.8V242.8z"/>
	</g>
	<g>
		<g>
			<path class="st7" d="M122.1,227.4l1.1,7l5.5-1c1.9-0.3,3.3-2.1,3-4c-0.3-1.9-2.1-3.3-4-3L122.1,227.4z"/>
			<path class="st7" d="M122.3,233.3l0.8,7.1l5.3-0.7c1.9-0.2,3.4-2,3.1-3.9c-0.2-2-2-3.4-3.9-3.1L122.3,233.3z"/>
			<path class="st7" d="M115.2,236.5l2,7.3l10.8-0.2c2-0.1,3.5-1.7,3.5-3.6c-0.1-2-1.7-3.5-3.6-3.5L115.2,236.5z"/>
			<polygon class="st7" points="122.5,227.3 113.3,229.3 114.8,238.6 124.3,239.8 			"/>
			<path class="st7" d="M117.2,243.7c4.6-0.3,8.1-4.3,7.8-8.9c-0.3-4.6-4.3-8.1-8.9-7.8c-4.6,0.3-8.1,4.3-7.7,8.9
				C108.6,240.6,112.6,244,117.2,243.7z"/>
		</g>
	</g>
	<g>
		<g>
			<g>
				<g>
					<path class="st7" d="M203.2,239.3c-1.5-0.3-2.5-1.8-2.2-3.3c0.3-1.5,1.8-2.5,3.3-2.2c1.5,0.3,2.5,1.8,2.2,3.3
						C206.1,238.6,204.7,239.6,203.2,239.3z"/>
					<path class="st7" d="M210.7,240.8c-1.5-0.3-2.5-1.8-2.2-3.3c0.3-1.5,1.8-2.5,3.3-2.2c1.5,0.3,2.5,1.8,2.2,3.2
						C213.7,240.2,212.2,241.1,210.7,240.8z"/>
					
						<rect x="204.7" y="233.5" transform="matrix(0.1979 -0.9802 0.9802 0.1979 -66.227 393.7822)" class="st7" width="5.5" height="7.7"/>
				</g>
				<g>
					<path class="st7" d="M204.9,239.1c1.4-0.7,2-2.3,1.3-3.7c-0.7-1.4-2.3-2-3.7-1.3c-1.4,0.7-2,2.3-1.3,3.7
						C201.9,239.2,203.5,239.7,204.9,239.1z"/>
					
						<ellipse transform="matrix(0.904 -0.4275 0.4275 0.904 -83.6697 107.1404)" class="st7" cx="196.8" cy="239.9" rx="2.8" ry="2.8"/>
					
						<rect x="196.4" y="235.5" transform="matrix(0.904 -0.4275 0.4275 0.904 -82.6272 108.474)" class="st7" width="7.7" height="5.5"/>
				</g>
			</g>
			<g>
				<g>
					<path class="st7" d="M201.2,243.1c-1.5-0.5-2.2-2-1.8-3.5c0.5-1.4,2-2.2,3.5-1.8c1.4,0.5,2.3,2,1.8,3.5
						C204.2,242.8,202.6,243.6,201.2,243.1z"/>
					<path class="st7" d="M208.5,245.5c-1.5-0.5-2.3-2-1.8-3.5c0.5-1.4,2-2.2,3.5-1.8c1.5,0.5,2.2,2,1.8,3.5
						C211.5,245.2,210,246,208.5,245.5z"/>
					<polygon class="st7" points="208.5,245.5 210.2,240.2 202.8,237.9 201.2,243.1 					"/>
				</g>
				<g>
					<path class="st7" d="M202.9,243.1c1.4-0.5,2.2-2.1,1.7-3.5c-0.5-1.4-2.1-2.2-3.5-1.7c-1.4,0.5-2.2,2.1-1.7,3.5
						C199.9,242.9,201.5,243.6,202.9,243.1z"/>
					<path class="st7" d="M195.6,245.6c1.5-0.5,2.2-2.1,1.7-3.5c-0.5-1.4-2.1-2.2-3.5-1.7c-1.4,0.5-2.2,2.1-1.7,3.5
						C192.6,245.4,194.2,246.1,195.6,245.6z"/>
					<polygon class="st7" points="195.6,245.6 193.8,240.4 201.1,237.9 202.9,243.1 					"/>
				</g>
			</g>
			<g>
				<g>
					<path class="st7" d="M201.6,244.2c-1.3-0.7-1.8-2.4-1.1-3.8c0.7-1.3,2.4-1.8,3.7-1.1c1.3,0.7,1.8,2.4,1.1,3.8
						C204.6,244.4,202.9,244.9,201.6,244.2z"/>
					<path class="st7" d="M206.5,246.9c-1.3-0.7-1.8-2.4-1.1-3.7c0.7-1.3,2.4-1.8,3.8-1.1c1.3,0.7,1.8,2.4,1.1,3.8
						C209.5,247.1,207.8,247.6,206.5,246.9z"/>
					<polygon class="st7" points="206.5,246.9 209.2,242 204.2,239.4 201.6,244.2 					"/>
				</g>
				<g>
					<path class="st7" d="M204.3,244.2c1.3-0.8,1.8-2.5,1-3.8c-0.8-1.3-2.5-1.8-3.8-1c-1.3,0.8-1.8,2.5-1,3.8
						C201.3,244.5,203,244.9,204.3,244.2z"/>
					<path class="st7" d="M199.5,247c1.3-0.8,1.8-2.4,1-3.8c-0.8-1.3-2.4-1.8-3.8-1c-1.3,0.8-1.8,2.5-1,3.8
						C196.5,247.3,198.1,247.7,199.5,247z"/>
					
						<rect x="197.7" y="240.4" transform="matrix(0.8664 -0.4994 0.4994 0.8664 -94.6406 132.6155)" class="st7" width="5.6" height="5.5"/>
				</g>
			</g>
			<path class="st7" d="M210.4,233.8c4.2,0,7.6,3.3,7.7,7.5c0,2.4-1.1,4.5-2.7,5.9l-7.3,0.1l-0.1-8.8l-4.2,0l0-4.7L210.4,233.8z"/>
		</g>
	</g>
	<g>
		<polygon class="st8" points="247.5,234.3 235.9,234.3 235.9,234.3 215.2,234.3 215.2,247.1 235.9,247.1 247.5,247.1 		"/>
		<path class="st8" d="M247.5,247.1c-3.5,0-6.4-2.9-6.4-6.4c0-3.5,2.9-6.4,6.4-6.4c3.5,0,6.4,2.9,6.4,6.4
			C253.9,244.3,251,247.1,247.5,247.1z"/>
	</g>
	<g>
		<g>
			<path class="st9" d="M231.9,223.1h13.8c5.3,0,9.5-4.3,9.5-9.5v-3.1c0-5.3-4.3-9.5-9.5-9.5H238v4.2h7.7c2.9,0,5.4,2.4,5.4,5.4v3.1
				c0,3-2.4,5.3-5.4,5.3h-13.8V223.1z"/>
		</g>
	</g>
	<g>
		<g>
			
				<rect x="273.8" y="221" transform="matrix(0.3682 -0.9298 0.9298 0.3682 -27.3832 414.4444)" class="st6" width="34.9" height="12.8"/>
			<path class="st6" d="M303.6,213.5c-1.3,3.3-5,4.9-8.3,3.6c-3.3-1.3-4.9-5-3.6-8.3c1.3-3.3,5-4.9,8.3-3.6
				C303.3,206.5,304.9,210.2,303.6,213.5z"/>
		</g>
		<g>
			<polygon class="st6" points="289.5,239.2 281.7,230.8 281.7,230.8 266.3,214.1 256.9,222.8 272.3,239.5 280.1,247.9 			"/>
			<path class="st6" d="M280.1,247.9c-2.4-2.6-2.2-6.6,0.4-9c2.6-2.4,6.7-2.3,9.1,0.3c2.4,2.6,2.2,6.7-0.3,9
				C286.6,250.7,282.5,250.5,280.1,247.9z"/>
		</g>
	</g>
	<g>
		<g>
			<g>
				<path class="st7" d="M263.6,212.4l-0.4,0.8l-10.8-4.5c-1.6-0.7-2.3-2.6-1.5-4.2c0.8-1.7,2.7-2.5,4.3-1.8l5.4,2.3
					C263.6,206.1,264.9,209.5,263.6,212.4"/>
				<g>
					<path class="st7" d="M255,207.5l-1,6.6l-5.1-1c-1.8-0.3-3.1-2-2.8-3.8c0.3-1.8,2-3.1,3.8-2.8L255,207.5z"/>
					<path class="st7" d="M254.4,213.5l-0.7,6.6l-5-0.7c-1.8-0.2-3.2-1.8-2.9-3.7c0.2-1.8,1.9-3.2,3.7-2.9L254.4,213.5z"/>
					<path class="st7" d="M261.1,216.5l-1.9,6.8l-10.1-0.2c-1.8,0-3.3-1.6-3.2-3.4c0-1.8,1.6-3.3,3.4-3.2L261.1,216.5z"/>
					<polygon class="st7" points="254.2,208 262.8,209.8 261.4,218.5 252.5,219.7 					"/>
					<path class="st7" d="M259.2,223.4c-4.3-0.3-7.6-4-7.3-8.4c0.3-4.3,4-7.6,8.4-7.3c4.3,0.3,7.6,4.1,7.3,8.4
						C267.3,220.4,263.5,223.6,259.2,223.4z"/>
				</g>
			</g>
		</g>
	</g>
	<g>
		<g>
			
				<rect x="277.2" y="217.9" transform="matrix(0.3022 -0.9532 0.9532 0.3022 -8.2464 437.3992)" class="st8" width="34.9" height="12.8"/>
			<path class="st8" d="M306,209.7c-1.1,3.4-4.7,5.2-8,4.2c-3.4-1.1-5.2-4.7-4.2-8c1.1-3.4,4.7-5.2,8-4.2
				C305.2,202.7,307.1,206.3,306,209.7z"/>
		</g>
		<g>
			<polygon class="st8" points="293.7,236.2 285.1,228.5 285.1,228.5 268.3,213.3 259.7,222.8 276.5,238 285.1,245.7 			"/>
			<path class="st8" d="M285.1,245.7c-2.6-2.4-2.8-6.4-0.5-9c2.4-2.6,6.4-2.8,9-0.5c2.6,2.4,2.8,6.4,0.5,9
				C291.8,247.9,287.7,248.1,285.1,245.7z"/>
		</g>
	</g>
	<path class="st9" d="M233.6,227.4h-5.3c-7.1,0-12.9-5.8-12.9-12.9v-16.1h31.2v16.1C246.5,221.6,240.7,227.4,233.6,227.4z"/>
	<g>
		<path class="st2" d="M296.7,108.7c-1.1-0.1-2.2-0.2-3.3-0.2l-23.3,0c-14.2,0-25.7,11.5-25.7,25.7v11.5l21.2,0
			c16.9,0,30.5-13.4,31-30.2V108.7z"/>
		<path class="st2" d="M313.5,132.4c-0.1-0.5-0.2-1-0.3-1.5l-3-10.1c-1.8-6.2-8.3-9.7-14.5-7.8l-5,1.5l2.7,9.2
			c2.2,7.3,9.8,11.5,17.1,9.6L313.5,132.4z"/>
	</g>
	<g>
		<g>
			
				<rect x="71.6" y="215.7" transform="matrix(0.4695 -0.8829 0.8829 0.4695 -150.2121 194.3873)" class="st9" width="30.2" height="13"/>
			<polygon class="st2" points="73.4,244 60.7,233.2 88.1,201.1 100.8,211.9 			"/>
			
				<ellipse transform="matrix(0.6482 -0.7614 0.7614 0.6482 -124.0085 144.5517)" class="st2" cx="94.4" cy="206.5" rx="8.4" ry="8.4"/>
			<g>
				<path class="st2" d="M75.4,239c-0.2,4.6-4.1,8.2-8.7,8c-4.6-0.2-8.2-4.1-8-8.7c0.2-4.6,4.1-8.2,8.7-8
					C72,230.5,75.6,234.4,75.4,239z"/>
			</g>
		</g>
		<g>
			
				<rect x="67" y="228.7" transform="matrix(0.9976 -6.899112e-002 6.899112e-002 0.9976 -16.1367 6.7982)" class="st2" width="46.7" height="16.7"/>
			<path class="st2" d="M66.5,230.3c4.6-0.3,8.6,3.1,8.9,7.8c0.3,4.6-3.2,8.6-7.8,8.9c-4.6,0.3-8.6-3.2-8.9-7.7
				C58.4,234.6,61.9,230.6,66.5,230.3z"/>
		</g>
	</g>
	<polygon class="st9" points="138.4,195.9 134.9,207.4 126,197.1 129.5,188.3 	"/>
	
		<rect x="106.2" y="184.1" transform="matrix(0.4367 -0.8996 0.8996 0.4367 -113.9389 211.6258)" class="st9" width="11.7" height="25.4"/>
	<path class="st8" d="M147.6,247h5.3c7.1,0,12.9-5.8,12.9-12.9v-16.1h-31.2v16.1C134.7,241.2,140.5,247,147.6,247z"/>
</g>
<g>
	<g>
		<g>
			<path class="st4" d="M337.4,256.3H61.6c-2.5,0-4.6-2.1-4.6-4.6v0c0-2.5,2.1-4.6,4.6-4.6h275.8c2.5,0,4.6,2.1,4.6,4.6v0
				C342,254.3,339.9,256.3,337.4,256.3z"/>
		</g>
	</g>
</g>
</svg>
