<?xml version="1.0" encoding="utf-8"?>
<!-- Generator: Adobe Illustrator 21.0.1, SVG Export Plug-In . SVG Version: 6.00 Build 0)  -->
<svg version="1.1" id="Layer_1" xmlns="http://www.w3.org/2000/svg" xmlns:xlink="http://www.w3.org/1999/xlink" x="0px" y="0px"
	 width="24px" height="24px" viewBox="0 0 24 24" style="enable-background:new 0 0 24 24;" xml:space="preserve">
<style type="text/css">
	.st0{fill:#999999;}
	.st1{fill:#D8D8D8;}
	.st2{fill:#4D4D4D;}
	.st3{fill:#347BD4;}
	.st4{fill:#CCCCCC;}
	.st5{fill:#9A9A9A;}
	.st6{fill:#00459C;}
	.st7{fill:#226DCC;}
	.st8{fill:#004091;}
	.st9{fill:#003A83;}
	.st10{fill:#7CA600;}
	.st11{fill:#00517C;}
	.st12{fill:#4C4C4C;}
	.st13{fill:#FF4722;}
	.st14{fill:#F4F4F4;}
	.st15{fill:#F3A43D;}
	.st16{fill:#FFFFFF;}
</style>
<g>
	<path class="st12" d="M0,5.2C0,5.1,0.1,5.1,0.1,5C2.7,7.3,5.4,9.5,8,11.7c-2.6,2.6-5.3,5.3-7.9,7.9c0,0,0-0.1-0.1-0.1
		C0,14.7,0,10,0,5.2z"/>
	<path class="st12" d="M24,19.5c0,0.1-0.1,0.1-0.1,0.1c-2.6-2.6-5.1-5.1-7.7-7.7c2.5-2.3,5.1-4.6,7.7-6.9c0,0.1,0.1,0.1,0.1,0.2
		C24,10,24,14.7,24,19.5z"/>
	<path class="st12" d="M23,4.2c-0.1,0.1-0.2,0.2-0.2,0.3c-2.6,2.3-5.2,4.7-7.9,7c-0.8,0.7-1.6,1.4-2.3,2.1c-0.3,0.2-0.5,0.3-0.7,0
		c-3.5-3-7.1-6-10.6-9.1c0,0-0.1-0.1-0.1-0.1C1,4.2,1.1,4.1,1.2,4.1c0.1,0,0.2,0,0.3,0c6.9,0,13.9,0,20.8,0
		C22.6,4.1,22.8,4.1,23,4.2C23,4.1,23,4.2,23,4.2z"/>
	<path class="st12" d="M0.9,20.5c2.7-2.7,5.3-5.3,8-8c0.6,0.5,1.2,1,1.8,1.6c0.4,0.3,0.8,0.6,1.1,1c0.3,0.3,0.5,0.3,0.8,0
		c0.8-0.7,1.7-1.5,2.5-2.2c0.1,0,0.1-0.1,0.1-0.1c2.6,2.6,5.2,5.2,7.8,7.8c-0.2,0-0.4,0-0.5,0c-4.5,0-9,0-13.4,0c-2.6,0-5.2,0-7.7,0
		C1.2,20.6,1.1,20.6,0.9,20.5z"/>
</g>
</svg>
