<svg xmlns="http://www.w3.org/2000/svg" width="24" height="24" viewBox="0 0 24 24">
    <path fill="#999" fill-rule="evenodd" d="M10.267 16.252a.631.631 0 0 1-.112-.078 523.41 523.41 0 0 1-2.327-2.333.267.267 0 0 1-.034-.227c.296-.943.715-1.844 1.248-2.677a15.917 15.917 0 0 1 6.237-5.849 1.12 1.12 0 0 1 .542-.228c.177.09.329.223.44.388.933.933 1.87 1.871 2.808 2.8a.217.217 0 0 1 .056.295 15.44 15.44 0 0 1-4.326 5.407 13.867 13.867 0 0 1-4.119 2.368c-.131.047-.263.086-.413.134zm5.366-6.742a1.144 1.144 0 1 0-1.133 1.15 1.15 1.15 0 0 0 1.132-1.15h.001zM10.57 7.869c-.432.533-.867 1.046-1.273 1.58a14.913 14.913 0 0 0-1.494 2.434.333.333 0 0 1-.194.158c-1.054.259-2.109.508-3.163.763a.337.337 0 0 1-.369-.12.298.298 0 0 1-.033-.355 10.533 10.533 0 0 1 3.625-4.03 2.909 2.909 0 0 1 1.556-.431l1.344-.001.001.002zm5.578 5.55c.039.717 0 1.436-.113 2.145a3.213 3.213 0 0 1-.324.754 8.849 8.849 0 0 1-2.6 2.726c-.441.31-.908.585-1.363.875a.343.343 0 0 1-.432 0 .355.355 0 0 1-.11-.4c.255-1.042.5-2.086.754-3.128a.295.295 0 0 1 .127-.179 16.84 16.84 0 0 0 3.967-2.723c.017-.015.036-.027.093-.07h.001zm3.307-5.892l-3.004-3c.559-.143 1.096-.3 1.642-.415a4.14 4.14 0 0 1 1.456-.08.388.388 0 0 1 .426.434 6.31 6.31 0 0 1-.326 2.474c-.058.2-.13.393-.195.587h.001zm-11.55 9.734a.055.055 0 0 1 .019 0c.299.194.304.196.17.526a3.472 3.472 0 0 1-2.55 2.105c-.36.104-.739.128-1.11.071a.4.4 0 0 1-.4-.4 3.255 3.255 0 0 1 .323-1.856 3.324 3.324 0 0 1 2.094-1.892c.032-.01.066-.015.102-.022.066.098.128.193.2.296a3.105 3.105 0 0 0-1.645 2.794 3.088 3.088 0 0 0 2.796-1.622h.001zm-.533-2.93c.769.77 1.528 1.534 2.294 2.3-.295.11-.596.203-.901.28a.53.53 0 0 1-.405-.124 20.284 20.284 0 0 1-1.145-1.143.528.528 0 0 1-.126-.404c.078-.307.172-.61.282-.907l.001-.002z"/>
</svg>
