<svg xmlns="http://www.w3.org/2000/svg" width="24" height="24" viewBox="0 0 24 24">
    <path fill="#999" fill-rule="evenodd" d="M8.752 3v6.639a.413.413 0 0 0 .234.447.392.392 0 0 0 .426-.093c.52-.447 1.044-.887 1.581-1.342.081.065.16.124.235.187.447.376.9.75 1.338 1.133a.418.418 0 0 0 .458.114.406.406 0 0 0 .231-.431V2.989h5.161A1.491 1.491 0 0 1 20 4.582v11.436a1.5 1.5 0 0 1-1.6 1.6H7.783c-.135-.005-.27.01-.4.043a.73.73 0 0 0-.5.782.75.75 0 0 0 .691.673c.08.008.161 0 .241 0h11.161a.937.937 0 1 1 .153 1.867H6.578a1.488 1.488 0 0 1-1.552-1.241 1.811 1.811 0 0 1-.022-.321V4.557A1.491 1.491 0 0 1 6.58 2.975h1.975c.058.013.117.019.197.025z"/>
</svg>
