<svg xmlns="http://www.w3.org/2000/svg" width="32" height="32" viewBox="0 0 32 32">
    <path fill="#999" fill-rule="evenodd" d="M8.641 5.663c0-.481-.017-.93 0-1.376a1.385 1.385 0 0 1 2.622-.516c.096.237.15.49.159.745.026.362.007.727.007 1.119h9.129c0-.416-.01-.831 0-1.245a1.4 1.4 0 0 1 .963-1.318 1.314 1.314 0 0 1 1.509.452c.171.279.278.593.311.918.03.406.035.814.013 1.221h3.144A2.385 2.385 0 0 1 29 8.142v15.285a4.489 4.489 0 0 1-4.6 4.566c-6.301.01-12.601.01-18.9 0A2.366 2.366 0 0 1 3 25.527V8.182a2.392 2.392 0 0 1 2.549-2.518h3.1l-.008-.001zm18.424 16.271v-8.293H4.922c-.007.1-.017.184-.017.268v11.55c0 .5.169.649.7.649h17.563v-4.175h3.894l.003.001zm-.02-10.2a.252.252 0 0 0 .035-.075c0-1.2.013-2.4 0-3.6a.477.477 0 0 0-.559-.489H23.389a1.48 1.48 0 0 1-1.345 1.348c-.7.049-1.111-.313-1.532-1.337h-9.049c-.336.968-.768 1.359-1.47 1.339a1.507 1.507 0 0 1-1.4-1.35H5.521a.514.514 0 0 0-.614.6v3.346c.005.074.015.147.029.22h22.111l-.002-.002zm-.017 12.116h-1.965v1.977c.005.05.015.101.029.15a2.448 2.448 0 0 0 1.936-2.123v-.004zm-16.7-3.632h1.75l.031.255a1.017 1.017 0 0 0 1.348.915.73.73 0 0 0 .572-.82.65.65 0 0 0-.638-.712 6.94 6.94 0 0 0-.766 0v-1.388c.255 0 .512.019.765 0a.618.618 0 0 0 .656-.583.635.635 0 0 0-.573-.667.922.922 0 0 0-1.224.855h-1.723a2.225 2.225 0 0 1 1.187-2.159 3.275 3.275 0 0 1 2.854-.089 1.9 1.9 0 0 1 1.16 2.284c-.081.43-.372.79-.774.961a1.535 1.535 0 0 1 1.042 1.669c.05.81-.381 1.574-1.1 1.952a3.528 3.528 0 0 1-3.5-.048 2.382 2.382 0 0 1-1.069-2.421l.002-.004zm6.958-1.439v-1.53a1.7 1.7 0 0 0 1.954-1.6h1.531V23h-1.946v-4.216h-1.539v-.005z"/>
</svg>
