<svg xmlns="http://www.w3.org/2000/svg" width="32" height="32" viewBox="0 0 32 32">
    <path fill="#999" fill-rule="evenodd" d="M28 20.831v.376a.4.4 0 0 0-.048.075.993.993 0 0 1-1.011.715h-1.553c.031.107.049.174.071.239.276.83.554 1.657.828 2.487.227.689.466 1.374.668 2.071a.951.951 0 0 1-.6 1.135.961.961 0 0 1-1.216-.461 2.628 2.628 0 0 1-.171-.41c-.539-1.612-1.074-3.225-1.607-4.839a.272.272 0 0 0-.309-.227c-4.703.006-9.405.006-14.108 0a.273.273 0 0 0-.311.225 741.035 741.035 0 0 1-1.555 4.685c-.06.202-.138.398-.233.586a.917.917 0 0 1-.933.5.955.955 0 0 1-.853-.668 1.162 1.162 0 0 1 .053-.8l1.4-4.2c.034-.1.063-.2.1-.33H5.034a.912.912 0 0 1-.719-.285 3.471 3.471 0 0 1-.316-.506v-.376c.11-.47.518-.811 1-.835v-.457c0-4.757-.002-9.514-.007-14.273a1.145 1.145 0 0 1 .831-1.267h20.344a1.1 1.1 0 0 1 .824 1.269V20c.485.019.898.359 1.009.831zM25 6.012H7.009V19.99h12v-.962H23v.96h2V6.012zM13.5 10c-.828 0-1.656.006-2.483 0a.994.994 0 1 1 .006-1.987c1.656 0 3.312-.01 4.967 0a.967.967 0 0 1 .994 1.018.983.983 0 0 1-1.024.968L13.5 10zm-1.007 3.994h-1.477a.987.987 0 1 1-.015-1.974c.992-.007 1.984-.007 2.977 0a.986.986 0 1 1-.009 1.972c-.49 0-.982-.003-1.469-.003l-.007.005z"/>
</svg>
