<svg xmlns="http://www.w3.org/2000/svg" width="32" height="32" viewBox="0 0 32 32">
    <path fill="#999" fill-rule="evenodd" d="M13.4 21.378a.947.947 0 0 1-.168-.117 785.112 785.112 0 0 1-3.49-3.5.4.4 0 0 1-.051-.34 16.766 16.766 0 0 1 1.872-4.015 23.876 23.876 0 0 1 9.355-8.774c.236-.184.516-.302.813-.342.266.134.493.335.66.582 1.4 1.4 2.805 2.807 4.213 4.2a.325.325 0 0 1 .083.442 23.161 23.161 0 0 1-6.488 8.111 20.8 20.8 0 0 1-6.179 3.552c-.197.071-.395.129-.62.201zm8.05-10.113a1.716 1.716 0 1 0-1.7 1.726 1.725 1.725 0 0 0 1.698-1.726h.002zm-7.595-2.462c-.648.8-1.3 1.569-1.91 2.37a22.369 22.369 0 0 0-2.241 3.651.5.5 0 0 1-.291.238c-1.58.388-3.163.762-4.744 1.144a.505.505 0 0 1-.553-.181.447.447 0 0 1-.05-.532 15.8 15.8 0 0 1 5.438-6.044 4.363 4.363 0 0 1 2.333-.647c.67-.002 1.342-.002 2.016-.002l.002.003zm8.367 8.325a15.176 15.176 0 0 1-.169 3.218 4.819 4.819 0 0 1-.487 1.131 13.273 13.273 0 0 1-3.9 4.089c-.661.466-1.361.877-2.044 1.312a.515.515 0 0 1-.648 0 .533.533 0 0 1-.164-.6c.381-1.563.749-3.129 1.13-4.691a.443.443 0 0 1 .191-.269 25.259 25.259 0 0 0 5.95-4.085c.026-.022.054-.04.139-.105h.002zm4.961-8.837l-4.506-4.5c.838-.215 1.643-.451 2.462-.623a6.211 6.211 0 0 1 2.184-.119.582.582 0 0 1 .639.65 9.466 9.466 0 0 1-.488 3.711c-.087.299-.196.59-.293.881h.002zm-17.325 14.6a.082.082 0 0 1 .028 0c.448.292.456.295.256.789a5.208 5.208 0 0 1-3.826 3.158 3.878 3.878 0 0 1-1.664.107.6.6 0 0 1-.6-.6 4.883 4.883 0 0 1 .484-2.784 4.986 4.986 0 0 1 3.14-2.838c.048-.015.1-.023.153-.034.1.147.193.29.3.445a4.658 4.658 0 0 0-2.467 4.191 4.632 4.632 0 0 0 4.194-2.434h.002zm-.8-4.394c1.153 1.155 2.292 2.3 3.441 3.45-.443.164-.894.305-1.352.42a.794.794 0 0 1-.607-.186 30.426 30.426 0 0 1-1.718-1.715.792.792 0 0 1-.188-.606c.116-.46.257-.915.423-1.36l.001-.003z"/>
</svg>
