<?xml version="1.0" encoding="utf-8"?>
<!-- Generator: Adobe Illustrator 19.2.0, SVG Export Plug-In . SVG Version: 6.00 Build 0)  -->
<svg version="1.1" id="SC_Download_on_the_App_Store"
	 xmlns="http://www.w3.org/2000/svg"  x="0px" y="0px" width="208px" height="62px"
	 viewBox="0 0 208 62" style="enable-background:new 0 0 208 62;" xml:space="preserve">
<style type="text/css">
	.st0{fill:#A6A6A6;}
	.st1{fill:#FFFFFF;}
</style>
<g>
	<path class="st0" d="M200.6,61.8H7.3c-4,0-7.3-3.3-7.3-7.3V7.5c0-4,3.3-7.3,7.3-7.3h193.3c4,0,7.4,3.3,7.4,7.3v47.1
		C208,58.5,204.6,61.8,200.6,61.8L200.6,61.8z"/>
	<path d="M206.5,54.5c0,3.3-2.6,5.9-5.9,5.9H7.3c-3.3,0-5.9-2.6-5.9-5.9V7.5c0-3.3,2.6-5.9,5.9-5.9h193.3c3.3,0,5.9,2.6,5.9,5.9
		L206.5,54.5L206.5,54.5z"/>
	<g>
		<g>
			<path class="st1" d="M46.4,30.7c0-5,4.1-7.4,4.3-7.5c-2.3-3.4-5.9-3.9-7.2-3.9c-3-0.3-6,1.8-7.5,1.8c-1.6,0-4-1.8-6.5-1.7
				c-3.3,0.1-6.4,2-8.1,4.9c-3.5,6-0.9,14.9,2.5,19.8c1.7,2.4,3.6,5.1,6.2,5c2.5-0.1,3.4-1.6,6.5-1.6c3,0,3.9,1.6,6.5,1.5
				c2.7,0,4.4-2.4,6-4.8c1.9-2.7,2.7-5.4,2.7-5.6C51.6,38.6,46.5,36.6,46.4,30.7z"/>
			<path class="st1" d="M41.5,16.1c1.3-1.7,2.3-4,2-6.3c-1.9,0.1-4.4,1.3-5.8,3c-1.2,1.5-2.4,3.8-2.1,6.1
				C37.8,19,40.1,17.7,41.5,16.1z"/>
		</g>
	</g>
	<g>
		<path class="st1" d="M83.2,26.4h-3.1l-1.7-5.3h-5.9l-1.6,5.3h-3l5.8-18.1h3.6L83.2,26.4z M77.9,18.9l-1.5-4.7
			c-0.2-0.5-0.5-1.6-0.9-3.4h-0.1c-0.2,0.8-0.5,1.9-0.9,3.4L73,18.9H77.9z"/>
		<path class="st1" d="M98.2,19.7c0,2.2-0.6,4-1.8,5.3c-1.1,1.1-2.4,1.7-4,1.7c-1.7,0-3-0.6-3.7-1.9h-0.1v6.9h-2.9V17.7
			c0-1.4,0-2.8-0.1-4.3h2.6l0.2,2.1h0.1c1-1.6,2.4-2.3,4.4-2.3c1.5,0,2.8,0.6,3.9,1.8C97.7,16.1,98.2,17.7,98.2,19.7z M95.3,19.8
			c0-1.3-0.3-2.3-0.9-3.1c-0.6-0.9-1.5-1.3-2.5-1.3c-0.7,0-1.4,0.2-1.9,0.7c-0.6,0.5-1,1.1-1.1,1.9c-0.1,0.4-0.1,0.7-0.1,0.9V21
			c0,1,0.3,1.8,0.9,2.4c0.6,0.7,1.3,1,2.3,1c1.1,0,1.9-0.4,2.6-1.3C94.9,22.3,95.3,21.2,95.3,19.8z"/>
		<path class="st1" d="M113.2,19.7c0,2.2-0.6,4-1.8,5.3c-1.1,1.1-2.4,1.7-4,1.7c-1.7,0-3-0.6-3.7-1.9h-0.1v6.9h-2.9V17.7
			c0-1.4,0-2.8-0.1-4.3h2.6l0.2,2.1h0.1c1-1.6,2.4-2.3,4.4-2.3c1.5,0,2.8,0.6,3.9,1.8C112.7,16.1,113.2,17.7,113.2,19.7z
			 M110.3,19.8c0-1.3-0.3-2.3-0.9-3.1c-0.6-0.9-1.5-1.3-2.5-1.3c-0.7,0-1.4,0.2-1.9,0.7c-0.6,0.5-1,1.1-1.1,1.9
			c-0.1,0.4-0.1,0.7-0.1,0.9V21c0,1,0.3,1.8,0.9,2.4c0.6,0.7,1.3,1,2.3,1c1.1,0,1.9-0.4,2.6-1.3C110,22.3,110.3,21.2,110.3,19.8z"/>
		<path class="st1" d="M133.7,21.3c0,1.5-0.5,2.8-1.6,3.8c-1.2,1.1-2.8,1.6-4.9,1.6c-1.9,0-3.5-0.4-4.7-1.1l0.7-2.4
			c1.3,0.8,2.7,1.2,4.2,1.2c1.1,0,1.9-0.2,2.6-0.7c0.6-0.5,0.9-1.2,0.9-2c0-0.7-0.3-1.4-0.8-1.9c-0.5-0.5-1.3-1-2.5-1.4
			c-3.2-1.2-4.8-2.9-4.8-5.2c0-1.5,0.6-2.7,1.7-3.7c1.1-1,2.6-1.4,4.4-1.4c1.6,0,3,0.3,4.1,0.9l-0.7,2.4c-1-0.6-2.2-0.8-3.5-0.8
			c-1,0-1.8,0.3-2.4,0.8c-0.5,0.4-0.7,1-0.7,1.6c0,0.7,0.3,1.3,0.8,1.8c0.5,0.4,1.4,0.9,2.6,1.4c1.6,0.6,2.7,1.4,3.4,2.2
			C133.3,19,133.7,20.1,133.7,21.3z"/>
		<path class="st1" d="M143.3,15.5h-3.2v6.3c0,1.6,0.6,2.4,1.7,2.4c0.5,0,0.9,0,1.3-0.1l0.1,2.2c-0.6,0.2-1.3,0.3-2.3,0.3
			c-1.1,0-2-0.3-2.7-1c-0.6-0.7-1-1.9-1-3.5v-6.6h-1.9v-2.2h1.9V11l2.8-0.9v3.3h3.2V15.5z"/>
		<path class="st1" d="M157.7,19.8c0,2-0.6,3.7-1.7,4.9c-1.2,1.3-2.8,2-4.8,2c-1.9,0-3.4-0.6-4.6-1.9c-1.1-1.3-1.7-2.9-1.7-4.8
			c0-2,0.6-3.7,1.8-5c1.2-1.3,2.8-1.9,4.7-1.9c1.9,0,3.5,0.6,4.6,1.9C157.2,16.2,157.7,17.8,157.7,19.8z M154.7,19.9
			c0-1.2-0.3-2.2-0.8-3.1c-0.6-1-1.5-1.6-2.6-1.6c-1.2,0-2.1,0.5-2.7,1.6c-0.5,0.9-0.8,1.9-0.8,3.2c0,1.2,0.3,2.2,0.8,3.1
			c0.6,1,1.5,1.6,2.6,1.6c1.1,0,2-0.5,2.6-1.6C154.4,22.1,154.7,21.1,154.7,19.9z"/>
		<path class="st1" d="M167.1,15.9c-0.3-0.1-0.6-0.1-0.9-0.1c-1,0-1.8,0.4-2.4,1.2c-0.5,0.7-0.7,1.5-0.7,2.6v6.9h-2.9l0-9
			c0-1.5,0-2.9-0.1-4.1h2.5l0.1,2.5h0.1c0.3-0.9,0.8-1.5,1.5-2.1c0.6-0.5,1.3-0.7,2.1-0.7c0.3,0,0.5,0,0.7,0.1V15.9z"/>
		<path class="st1" d="M180.1,19.3c0,0.5,0,1-0.1,1.3h-8.7c0,1.3,0.5,2.3,1.3,3c0.7,0.6,1.7,0.9,2.8,0.9c1.3,0,2.5-0.2,3.5-0.6
			l0.5,2c-1.2,0.5-2.7,0.8-4.4,0.8c-2,0-3.6-0.6-4.8-1.8c-1.2-1.2-1.7-2.8-1.7-4.8c0-2,0.5-3.6,1.6-4.9c1.1-1.4,2.7-2.1,4.6-2.1
			c1.9,0,3.3,0.7,4.3,2.1C179.7,16.3,180.1,17.6,180.1,19.3z M177.4,18.5c0-0.9-0.2-1.6-0.6-2.2c-0.5-0.8-1.3-1.2-2.3-1.2
			c-0.9,0-1.7,0.4-2.3,1.2c-0.5,0.6-0.8,1.4-0.9,2.3H177.4z"/>
	</g>
	<g>
		<g>
			<path class="st1" d="M87.6,37.1H78v16.8h-2.2V37.1h-7.9v-2.1h19.7V37.1z M87.1,46.4L85.5,48c-2.3-2.2-4.7-4.3-7.2-6.3l1.6-1.5
				C82.4,42.2,84.8,44.2,87.1,46.4z"/>
			<path class="st1" d="M101.6,44.1h-6.5c-0.4,0.8-0.8,1.4-1.1,1.9h1.9v-1.3h2v1.3h3.2v1.8h-3.2v1.5l3.5-0.3l-0.4,1.8l-3.1,0.3v2.9
				h-2v-2.7l-5.4,0.6l-0.2-2c2.1-0.1,3.9-0.2,5.6-0.3v-1.6h-1.5c-1.2,0-2.2,0.1-2.9,0.3l-0.6-1.9c0.6-0.1,0.9-0.3,1.2-0.6
				c0.2-0.3,0.5-0.8,0.9-1.5h-2.4v-1.8h3.3c0.2-0.4,0.4-0.9,0.5-1.3l1.9,0.6l-0.4,0.8h5.6V44.1z M110.6,49.3c-0.3,2-0.6,3.2-0.9,3.7
				c-0.3,0.5-0.8,0.7-1.4,0.7c-0.6,0-1.3-0.3-2-0.9c-0.7-0.6-1.3-1.3-1.8-2.1c-1,1-2.4,2.1-4,3.2L99,52.4c1.8-1.1,3.4-2.4,4.6-3.7
				c-0.4-1.3-0.7-2.8-0.9-4.6c-0.2-1.8-0.3-2.9-0.3-3.3h-12V39h5.1v-1.4h-3.9v-1.8h3.9v-2.1h2v2.1h3.7v1.8h-3.7V39h4.7l-0.1-5.3h2
				c0,2.2,0,3.9,0.1,5.3h5.9v1.8h-5.8v0.3c0,0.3,0.1,1.2,0.2,2.5c0.1,1.3,0.3,2.4,0.5,3.3c0.9-1.3,1.6-2.8,2.2-4.6l1.9,0.7
				c-0.9,2.6-1.9,4.6-3.1,6.2c0.3,0.5,0.7,1,1.2,1.6c0.5,0.5,0.8,0.8,1,0.8c0.2,0,0.3-0.2,0.4-0.7c0.1-0.5,0.2-1.1,0.2-1.9
				L110.6,49.3z M109.8,37.4l-1.6,1.3c-0.9-1.1-1.9-2.2-2.9-3.2l1.5-1.2C108,35.4,109,36.5,109.8,37.4z"/>
		</g>
	</g>
</g>
</svg>
