<?xml version="1.0" encoding="utf-8"?>
<!-- Generator: Adobe Illustrator 19.2.0, SVG Export Plug-In . SVG Version: 6.00 Build 0)  -->
<svg xmlns:xlink="http://www.w3.org/1999/xlink" version="1.1" xmlns="http://www.w3.org/2000/svg" x="0px" y="0px" width="1140px"
	 height="433px" viewBox="0 0 1140 433" style="enable-background:new 0 0 1140 433;" xml:space="preserve">
<style type="text/css">
	.st0{fill:#2C7EE4;}
	.st1{opacity:0.7;fill:#2F84E8;}
	.st2{opacity:0.7;fill:#348EEE;}
	.st3{fill:#FFFFFF;}
	.st4{fill:#3B3A47;}
	.st5{fill:#EFE059;}
	.st6{fill:#FCF27A;}
	.st7{fill:#39D36C;}
	.st8{fill:#33323F;}
	.st9{fill:#4E4D5E;}
	.st10{fill:#76DDB5;}
	.st11{fill:#55C491;}
	.st12{fill:#32B754;}
	.st13{fill:#50E276;}
	.st14{fill:#3AC963;}
	.st15{fill:#0BAF78;}
	.st16{fill:#89EFD7;}
	.st17{fill:#1FAA57;}
	.st18{fill:#29B762;}
	.st19{fill:#E2CF4B;}
	.st20{fill:#52E87D;}
	.st21{fill:#00BA5D;}
	.st22{fill:#EAEAEA;}
	.st23{opacity:0.1;}
	.st24{fill:#77E0C2;}
	
		.st25{fill:none;stroke:#FFFFFF;stroke-width:1.6954;stroke-linecap:round;stroke-linejoin:round;stroke-miterlimit:10;stroke-dasharray:11.3027,11.3027;}
	.st26{fill:#43A6FF;}
	.st27{fill:#F86223;}
	.st28{fill:#E24F1B;}
	.st29{fill:#FF8431;}
	.st30{fill:#2FB270;}
	.st31{fill:#FFF6A6;}
	.st32{fill:#F5F4EE;}
	.st33{clip-path:url(#SVGID_2_);}
</style>
<g id="Layer_6">
</g>
<g id="Layer_2">
</g>
<g id="Layer_15">
	<g>
		<circle class="st0" cx="647.4" cy="356" r="17.5"/>
		<path class="st1" d="M26.6,433h1114.5C1068.5,194.2,846.5,20.5,583.9,20.5C321.3,20.5,99.4,194.2,26.6,433z"/>
		<path class="st2" d="M90.3,433h987.3C1013.1,221.5,816.5,67.6,583.9,67.6C351.3,67.6,154.7,221.5,90.3,433z"/>
		<path class="st3" d="M265.9,306.7h-14.3c0.2-2,0.4-4,0.4-6.1c0-27.2-22.1-49.3-49.3-49.3H182c-16.7,0-31.4,8.3-40.3,21
			c-8.3-5.2-18-8.2-28.5-8.2c-24.8,0-45.6,16.7-52,39.5H35.5C16.5,303.7,1.2,319,1.2,338c0,9.9,4.2,18.7,10.8,25h276.7
			c6.1-5.9,9.9-14.3,9.9-23.5C298.6,321.4,284,306.7,265.9,306.7z"/>
		<path class="st3" d="M1015.4,253.8h-22.6c-2.7-11.1-12.7-19.3-24.6-19.3h-33.5c-12.9,0-23.6,9.7-25.1,22.3
			c-12.6,5.5-21.4,18-21.4,32.6c0,19.6,15.9,35.5,35.5,35.5h91.5c19.6,0,35.5-15.9,35.5-35.5C1050.9,269.7,1035,253.8,1015.4,253.8z
			"/>
		<g>
			<polygon class="st4" points="667,80.9 720.9,94.8 717.7,107.2 706.3,104.2 701.8,103.1 690.4,100.1 685.9,99 674.5,96 670,94.9 
				658.6,91.9 			"/>
			<polygon class="st5" points="665.2,90 670,94.9 674.5,96 681.1,94.1 685.9,99 690.4,100.1 697,98.2 701.8,103.1 706.3,104.2 
				712.9,102.3 717.7,107.2 717.7,107.2 710.2,136.2 651.1,120.9 658.6,91.9 			"/>
			
				<rect x="687.9" y="79.1" transform="matrix(0.2499 -0.9683 0.9683 0.2499 461.6841 782.493)" class="st6" width="95.9" height="28.3"/>
			<polygon class="st4" points="740.2,36 759.7,41 765.3,51.3 730.3,42.3 			"/>
			<polygon class="st4" points="756.7,7.3 759.2,7.9 761.7,33.3 742.2,28.2 			"/>
			<g>
				<g>
					<g>
						
							<rect x="747" y="24.5" transform="matrix(0.2498 -0.9683 0.9683 0.2498 529.8041 753.1183)" class="st5" width="8" height="20.2"/>
					</g>
					<g>
						
							<rect x="730.1" y="42.5" transform="matrix(0.2498 -0.9683 0.9683 0.2498 499.6814 766.0862)" class="st5" width="28.3" height="36.1"/>
					</g>
					<g>
						<g>
							<g>
								
									<rect x="721.1" y="83" transform="matrix(0.2495 -0.9684 0.9684 0.2495 466.0169 769.6924)" class="st5" width="17" height="2.3"/>
							</g>
							<g>
								
									<rect x="726.4" y="84.4" transform="matrix(0.2495 -0.9684 0.9684 0.2495 468.6631 775.8364)" class="st5" width="17" height="2.3"/>
							</g>
							<g>
								
									<rect x="731.7" y="85.8" transform="matrix(0.25 -0.9682 0.9682 0.25 470.9731 781.8496)" class="st5" width="17" height="2.3"/>
							</g>
							<g>
								
									<rect x="737" y="87.1" transform="matrix(0.2502 -0.9682 0.9682 0.2502 473.4867 787.9396)" class="st5" width="17" height="2.3"/>
							</g>
						</g>
						<g>
							<g>
								
									<rect x="715.7" y="104" transform="matrix(0.2498 -0.9683 0.9683 0.2498 441.4846 780.1216)" class="st5" width="17" height="2.3"/>
							</g>
							<g>
								
									<rect x="721" y="105.4" transform="matrix(0.2493 -0.9684 0.9684 0.2493 444.456 786.4016)" class="st5" width="17" height="2.3"/>
							</g>
							<g>
								
									<rect x="726.3" y="106.7" transform="matrix(0.2505 -0.9681 0.9681 0.2505 446.2837 792.2012)" class="st5" width="17" height="2.3"/>
							</g>
							<g>
								
									<rect x="731.5" y="108.1" transform="matrix(0.2495 -0.9684 0.9684 0.2495 449.5836 798.6185)" class="st5" width="17" height="2.3"/>
							</g>
						</g>
					</g>
					<g>
						<g>
							<g>
								
									<rect x="710.3" y="125" transform="matrix(0.25 -0.9682 0.9682 0.25 416.9595 790.5416)" class="st5" width="17" height="2.3"/>
							</g>
							<g>
								
									<rect x="715.6" y="126.3" transform="matrix(0.2498 -0.9683 0.9683 0.2498 419.7597 796.7559)" class="st5" width="17" height="2.3"/>
							</g>
							<g>
								
									<rect x="720.8" y="127.7" transform="matrix(0.2495 -0.9684 0.9684 0.2495 422.5685 802.9733)" class="st5" width="17" height="2.3"/>
							</g>
							<g>
								
									<rect x="726.1" y="129.1" transform="matrix(0.2502 -0.9682 0.9682 0.2502 424.7339 808.8963)" class="st5" width="17" height="2.3"/>
							</g>
						</g>
					</g>
				</g>
			</g>
			
				<rect x="755.3" y="2.9" transform="matrix(0.2501 -0.9682 0.9682 0.2501 564.9681 737.8188)" class="st4" width="7" height="2.5"/>
			
				<ellipse transform="matrix(0.2499 -0.9683 0.9683 0.2499 499.6616 766.0781)" class="st3" cx="744.3" cy="60.6" rx="11.8" ry="11.8"/>
			<path class="st4" d="M736,64.7l6.6-3.9l-4.3-1.1c-0.3-0.1-0.5-0.4-0.5-0.8c0.1-0.3,0.4-0.5,0.8-0.5l5.7,1.5
				c0.1,0,0.2,0.1,0.2,0.1c0.1,0.1,0.2,0.2,0.2,0.4c0,0.2,0,0.3-0.1,0.5c-0.1,0.1-0.1,0.1-0.2,0.2l-8,4.7c-0.1,0.1-0.3,0.1-0.5,0.1
				c-0.2,0-0.3-0.1-0.4-0.3C735.6,65.3,735.7,64.9,736,64.7z"/>
			<g>
				<g>
					
						<rect x="691" y="106.7" transform="matrix(0.2499 -0.9683 0.9683 0.2499 415.3759 753.7776)" class="st6" width="6.5" height="4.1"/>
					
						<rect x="687.8" y="119" transform="matrix(0.2498 -0.9683 0.9683 0.2498 401.2083 759.9696)" class="st6" width="6.5" height="4.1"/>
				</g>
				<g>
					
						<rect x="706.9" y="110.8" transform="matrix(0.2499 -0.9683 0.9683 0.2499 423.3489 772.2598)" class="st6" width="6.5" height="4.1"/>
					
						<rect x="703.7" y="123.1" transform="matrix(0.2497 -0.9683 0.9683 0.2497 409.2497 778.4832)" class="st6" width="6.5" height="4.1"/>
				</g>
				<g>
					
						<rect x="675.1" y="102.6" transform="matrix(0.2499 -0.9683 0.9683 0.2499 407.4398 735.312)" class="st6" width="6.5" height="4.1"/>
					
						<rect x="671.9" y="114.9" transform="matrix(0.2503 -0.9682 0.9682 0.2503 392.9208 741.3461)" class="st6" width="6.5" height="4.1"/>
				</g>
				<g>
					
						<rect x="659.2" y="98.5" transform="matrix(0.2499 -0.9683 0.9683 0.2499 399.5291 716.8574)" class="st6" width="6.5" height="4.1"/>
					
						<rect x="656" y="110.8" transform="matrix(0.2496 -0.9684 0.9684 0.2496 385.4372 723.0834)" class="st6" width="6.5" height="4.1"/>
				</g>
			</g>
			<g>
				<polygon class="st6" points="672.9,88.8 674.9,89.3 675.3,92.6 667,125 664.7,124.4 662.5,123.9 670.9,91.5 				"/>
				<polygon class="st6" points="688.8,92.9 690.8,93.4 691.2,96.7 682.9,129.1 680.6,128.5 678.4,128 686.8,95.6 				"/>
				<polygon class="st6" points="706.7,97.5 707.1,100.8 698.8,133.2 696.5,132.6 694.3,132.1 702.7,99.7 704.7,97 				"/>
			</g>
		</g>
		<g>
			<path class="st7" d="M409.6,152.8c0-0.1-0.1-0.3-0.1-0.4c-0.6-1.5-2.1-2.3-3.6-2c0.1-0.5,0-1-0.2-1.6c-0.7-1.7-2.6-2.6-4.3-1.9
				c-1.7,0.7-2.6,2.6-1.9,4.3c0.2,0.5,0.5,0.9,0.9,1.3c-1.3,0.8-2,2.4-1.4,3.9c0.1,0.1,0.1,0.3,0.2,0.4L409.6,152.8z"/>
			<path class="st7" d="M412.8,151.6l11.5-4.4c-0.1-0.2-0.1-0.5-0.2-0.7c-0.5-1.3-1.4-2.2-2.5-2.9c0.2-0.8,0.1-1.6-0.2-2.4
				c-0.6-1.5-1.9-2.4-3.3-2.6c0-0.3-0.1-0.7-0.2-1c-0.7-1.9-2.8-2.8-4.7-2.1c-1.9,0.7-2.8,2.8-2.1,4.7c0.1,0.3,0.3,0.6,0.5,0.9
				c-1,1.1-1.3,2.7-0.7,4.2c0.3,0.8,0.8,1.4,1.4,1.9c-0.4,1.2-0.4,2.5,0.1,3.8C412.6,151.2,412.7,151.4,412.8,151.6z"/>
			<path class="st7" d="M443.6,139.9c0.2-0.8,0.1-1.7-0.2-2.5c-0.6-1.5-1.8-2.5-3.3-2.8c0-0.4,0-0.8-0.2-1.1
				c-0.5-1.3-1.8-1.9-3.1-1.7c0-0.4,0-0.9-0.2-1.3c-0.6-1.5-2.2-2.2-3.6-1.6c-1.5,0.6-2.2,2.2-1.6,3.6c0.2,0.4,0.4,0.8,0.8,1.1
				c-1.1,0.7-1.6,2-1.2,3.3c0.1,0.4,0.4,0.7,0.6,1c-0.9,1.2-1.1,2.8-0.6,4.3c0.3,0.8,0.8,1.5,1.5,2L443.6,139.9z"/>
			<path class="st8" d="M414.6,127.9c5.7-2.2,11.8-1.5,16.8,1.2l0,0l-4.6-12.2l-28.5,10.9l4.6,12.2l0,0
				C404.8,134.6,408.9,130.1,414.6,127.9z"/>
			
				<rect x="372.9" y="19.9" transform="matrix(0.9346 -0.3556 0.3556 0.9346 15.4111 135.3058)" class="st9" width="5.8" height="11.7"/>
			<g>
				<path class="st4" d="M379.1,34.4c6.9,18.1,13.1,36.8,18.5,56c6.4,23.2,6.6,46.2,4.5,65.2l-18.2,6.9c8.5-21.4,10.9-45.5,6.2-69.3
					c-4-19.6-9.6-38.6-16.6-56.7L379.1,34.4z"/>
				<path class="st4" d="M379.1,34.4c6.9,18.2,14.6,36.3,23.3,54.1c10.6,21.6,25.8,38.9,40,51.8l18.2-6.9
					c-20.6-10.4-38.4-26.7-50.7-47.7c-10-17.3-18.4-35.2-25.3-53.4L379.1,34.4z"/>
			</g>
			
				<rect x="371.9" y="29" transform="matrix(0.9347 -0.3553 0.3553 0.9347 13.037 136.6172)" class="st8" width="13.2" height="7.6"/>
			
				<rect x="387.7" y="112.8" transform="matrix(0.9347 -0.3554 0.3554 0.9347 -14.3598 153.242)" class="st9" width="44.5" height="5.8"/>
			<polygon class="st4" points="433.5,115 391.9,130.8 389.4,124.1 411.7,115.7 431,108.3 			"/>
			<polygon class="st9" points="411.1,85.4 402.7,91.8 389,93.8 388.2,91.6 410.2,83.2 			"/>
			
				<rect x="389.3" y="89.4" transform="matrix(0.9348 -0.3553 0.3553 0.9348 -6.6354 148.5073)" class="st4" width="23.6" height="5.9"/>
			<path class="st7" d="M385.3,162l11.5-4.4c-0.1-0.2-0.1-0.5-0.2-0.7c-0.5-1.3-1.4-2.2-2.5-2.9c0.2-0.8,0.1-1.6-0.2-2.4
				c-0.6-1.5-1.9-2.4-3.3-2.6c0-0.3-0.1-0.7-0.2-1c-0.7-1.9-2.8-2.8-4.7-2.1c-1.9,0.7-2.8,2.8-2.1,4.7c0.1,0.3,0.3,0.6,0.5,0.9
				c-1,1.1-1.3,2.7-0.7,4.2c0.3,0.8,0.8,1.4,1.5,1.9c-0.4,1.2-0.4,2.5,0.1,3.8C385.1,161.6,385.2,161.8,385.3,162z"/>
			<path class="st7" d="M461,133.3c0.2-0.9,0.1-1.8-0.2-2.8c-0.6-1.6-2-2.8-3.6-3.1c0-0.4,0-0.9-0.2-1.3c-0.5-1.4-2-2.1-3.4-1.9
				c0.1-0.5,0-1-0.2-1.5c-0.6-1.6-2.4-2.4-4-1.8c-1.6,0.6-2.4,2.4-1.8,4c0.2,0.5,0.5,0.9,0.9,1.2c-1.2,0.7-1.8,2.3-1.3,3.6
				c0.2,0.4,0.4,0.8,0.7,1.1c-1,1.3-1.3,3.1-0.6,4.7c0.3,0.9,0.9,1.7,1.7,2.2L461,133.3z"/>
		</g>
		<path class="st7" d="M155.2,433h857.5c-55.9-183.7-226.7-317.4-428.8-317.4C381.9,115.6,211.1,249.3,155.2,433z"/>
		<g>
			<path class="st10" d="M895.6,166.4l-9,1.2l-7.6,10c-3.2,4.1-2.4,10,1.8,13.2c4.1,3.2,10,2.4,13.2-1.8l13.3-17.4
				c1.2-1.5,1.8-3.3,1.9-5.1L895.6,166.4z"/>
			<path class="st10" d="M923.2,149.9c-0.8-0.6-1.7-1-2.7-1.1c-0.4-0.9-0.9-1.7-1.7-2.3l-4.7-3.6c-2.4-1.9-5.9-1.4-7.8,1.1
				c-1.9,2.4-1.4,5.9,1,7.8l4.6,3.5l-0.9,1.2c-7.6-2.2-16.2,0.3-21.3,7l-2.6,3.4c-0.1,0.1-0.2,0.3-0.3,0.4c0.5,0.5,1.1,1,1.6,1.4
				c5.6,4.2,12.8,4.8,18.7,2.1c0,0,0,0,0,0c2.5,1.9,6,1.4,7.9-1.1l9.2-12.1C926.1,155.4,925.7,151.8,923.2,149.9z"/>
			<path class="st10" d="M919.6,169.2c-1.4,1.8-4,2.2-5.8,0.8l0,0c-1.8-1.4-2.2-4-0.8-5.8l3.1-4c1.4-1.8,4-2.2,5.8-0.8l0,0
				c1.8,1.4,2.2,4,0.8,5.8L919.6,169.2z"/>
			<g>
				<path class="st6" d="M922.9,111.6l-0.2,1.4c3.4,0.2,6.5-2.2,6.9-5.7l0.2-1.4C926.4,105.7,923.4,108.1,922.9,111.6z"/>
				<path class="st6" d="M921.7,111.2l0.3,1.1c2.6-0.8,4.2-3.5,3.5-6.2l-0.3-1.1C922.6,105.9,921.1,108.5,921.7,111.2z"/>
			</g>
			<g>
				<g>
					
						<rect x="901.9" y="133.9" transform="matrix(0.5154 -0.857 0.857 0.5154 323.5655 843.956)" class="st11" width="12" height="4"/>
					
						<rect x="908.1" y="123.5" transform="matrix(0.5159 -0.8567 0.8567 0.5159 335.0332 843.9255)" class="st11" width="12.2" height="4"/>
					<path class="st11" d="M909.3,129.7c0.6-0.9,1.8-1.3,2.8-0.7c0.9,0.6,1.3,1.8,0.7,2.7c-0.6,0.9-1.8,1.3-2.7,0.7
						C909.1,131.9,908.8,130.7,909.3,129.7z"/>
					<g>
						<path class="st11" d="M915.5,119.2c0.6-1,2-1.4,3-0.7c1,0.6,1.4,2,0.7,3c-0.6,1-2,1.4-3,0.7
							C915.2,121.6,914.8,120.2,915.5,119.2z"/>
					</g>
				</g>
				<g>
					<path class="st11" d="M919.2,118.5l-1.8,0.2l-0.1-1.6c-0.1-0.5,0.3-1,0.8-1c0.5-0.1,1,0.3,1,0.8L919.2,118.5z"/>
					<path class="st11" d="M917.5,118.7l-1.8,0.3l-0.3-1.6c-0.1-0.5,0.3-1,0.8-1.1c0.5-0.1,1,0.3,1.1,0.8L917.5,118.7z"/>
					<path class="st11" d="M917.2,120.7l-2,0l-0.6-1.5c-0.1-0.5,0.2-1,0.7-1.1c0.5-0.1,1,0.2,1.1,0.7L917.2,120.7z"/>
					<polygon class="st11" points="919,118.3 919.1,120.7 916.7,121 915.7,118.7 					"/>
					<path class="st11" d="M915.2,120.7c-0.2-1.2,0.5-2.3,1.7-2.6c1.2-0.2,2.3,0.5,2.6,1.7c0.2,1.2-0.6,2.3-1.7,2.6
						C916.6,122.7,915.4,121.9,915.2,120.7z"/>
				</g>
			</g>
			<path class="st11" d="M902.5,188.6c2.8-3.7,2.1-8.9-1.6-11.7c-3.7-2.8-8.9-2.1-11.7,1.6l-6.5,8.5c-5.2-2.4-11.6-1-15.3,3.8
				l-1.3,1.7c-4.2,5.5-3.2,13.4,2.4,17.6c5.5,4.2,13.4,3.2,17.6-2.4l1.3-1.7c1.1-1.4,1.8-2.9,2.2-4.5c2.1-0.3,4-1.4,5.4-3.2
				L902.5,188.6z"/>
			<path class="st10" d="M912.5,176.9c-8.1-6.2-19.5-5.2-26.4,2c-6.8-0.8-13.8,1.8-18.3,7.7l-2.6,3.4c-0.1,0.1-0.2,0.3-0.3,0.4
				c0.5,0.5,1.1,1,1.6,1.4c7.7,5.9,18.5,4.7,24.8-2.4c6.5,1.1,13.3-1.3,17.6-6.9l4-5.3C912.8,177.2,912.6,177.1,912.5,176.9z"/>
			<g>
				<polygon class="st10" points="930.7,132.8 928.7,131.3 934.7,125.6 				"/>
				<polygon class="st10" points="928.1,131 925.6,130.7 927.9,122.9 				"/>
				<polygon class="st10" points="925.4,130.3 923.1,131.2 921.2,123.3 				"/>
				<polygon class="st10" points="923.3,130.7 921.8,132.6 916.1,126.7 				"/>
				<polygon class="st10" points="931.2,133.4 932.1,135.7 939.1,131.4 				"/>
				<polygon class="st10" points="932.7,135.8 932.3,138.3 940.5,138 				"/>
				<polygon class="st10" points="932.8,137.9 931.3,139.9 938.5,143.8 				"/>
			</g>
			<path class="st10" d="M915.9,150.3L915.9,150.3c1.6,1.2,3.9,0.9,5.1-0.7l2.2-2.9l-5.7-4.4l-2.2,2.9
				C914,146.8,914.3,149,915.9,150.3"/>
			<path class="st10" d="M932.8,134.4l-6.1-4.7c-1.3-1-3.3-0.8-4.3,0.6c0,0,0,0,0,0l-4.3,5.6c-2.3,3-1.7,7.4,1.3,9.7
				c3,2.3,7.4,1.7,9.7-1.3l4.3-5.6C934.4,137.4,934.1,135.4,932.8,134.4z"/>
			<g>
				<polygon class="st11" points="920,133.3 920,133.3 920.1,133.3 920.1,133.3 				"/>
				<path class="st11" d="M932.8,134.4l-6.1-4.7c-1.3-1-3.3-0.8-4.3,0.6l0,0c0,0,0,0,0,0l-0.3,0.4l-1.9,2.6c1-1.3,2.9-1.6,4.3-0.6
					l6.1,4.7c1.3,1,1.6,3,0.6,4.3l2.3-3C934.4,137.4,934.1,135.4,932.8,134.4z"/>
			</g>
			
				<rect x="870.8" y="183.8" transform="matrix(0.6069 -0.7948 0.7948 0.6069 183.5485 773.667)" class="st9" width="6" height="35"/>
			
				<rect x="857.9" y="196.1" transform="matrix(0.6069 -0.7948 0.7948 0.6069 170.0334 771.0439)" class="st9" width="13" height="35"/>
			
				<rect x="867.2" y="186.2" transform="matrix(0.6069 -0.7948 0.7948 0.6069 178.3034 772.6376)" class="st4" width="6" height="39.8"/>
			
				<rect x="855.6" y="201.3" transform="matrix(0.6069 -0.7948 0.7948 0.6069 161.7389 769.4117)" class="st4" width="6" height="39.8"/>
			
				<rect x="846.4" y="203.2" transform="matrix(0.6069 -0.7948 0.7948 0.6069 153.511 767.8164)" class="st4" width="12.9" height="51.1"/>
			<g>
				
					<rect x="853" y="205.5" transform="matrix(0.6068 -0.7949 0.7949 0.6068 171.5396 763.6896)" class="st4" width="9.3" height="5.9"/>
				
					<rect x="859.8" y="210.7" transform="matrix(0.6069 -0.7948 0.7948 0.6069 170.0188 771.0281)" class="st4" width="9.3" height="5.9"/>
				
					<rect x="866.6" y="215.9" transform="matrix(0.607 -0.7947 0.7947 0.607 168.4843 778.3479)" class="st4" width="9.3" height="5.9"/>
			</g>
			<path class="st10" d="M909.1,155.9c-0.3-0.2-0.5-0.4-0.8-0.5c-0.5,0.5-1.1,1.1-1.5,1.7l-3.3,4.3c-5.4,7-4,17.1,3,22.4
				c0.3,0.2,0.5,0.4,0.8,0.5c0.5-0.5,1.1-1.1,1.6-1.7l3.3-4.3C917.5,171.3,916.2,161.2,909.1,155.9z"/>
			<path class="st10" d="M919.2,155.2l4-5.3c-0.1-0.1-0.3-0.2-0.4-0.3c-8.7-6.7-21.2-5-27.9,3.7l-2.6,3.4c-0.1,0.1-0.2,0.3-0.3,0.4
				c0.5,0.5,1.1,1,1.6,1.4C901.6,164.7,913,163.2,919.2,155.2z"/>
			<path class="st10" d="M905,154.1l2.6,2c0.1-0.1,0.1-0.1,0.2-0.2c3.3-4.4,2.5-10.6-1.9-14l-1.7-1.3c-0.1-0.1-0.1-0.1-0.2-0.2
				c-0.3,0.3-0.5,0.5-0.7,0.8C900.3,145.3,901,151,905,154.1z"/>
			<path class="st10" d="M915.4,124c-0.5,0.7-1.5,0.8-2.1,0.3l0,0c-0.7-0.5-0.8-1.5-0.3-2.1l7.3-9.5c0.5-0.7,1.5-0.8,2.1-0.3l0,0
				c0.7,0.5,0.8,1.5,0.3,2.1L915.4,124z"/>
			
				<rect x="920.2" y="107.8" transform="matrix(0.6068 -0.7949 0.7949 0.6068 273.2073 777.2854)" class="st11" width="4.2" height="9.4"/>
			<g>
				<g>
					<path class="st11" d="M918.1,117.3c0.3,0.4,0.9,0.5,1.3,0.2c0.4-0.3,0.5-0.9,0.3-1.3c-0.3-0.4-0.9-0.5-1.3-0.3
						C918,116.3,917.8,116.8,918.1,117.3z"/>
					<path class="st11" d="M917.2,115.8c0.3,0.4,0.9,0.5,1.3,0.2c0.4-0.3,0.5-0.9,0.2-1.3c-0.3-0.4-0.9-0.5-1.3-0.2
						C917,114.8,916.9,115.4,917.2,115.8z"/>
					
						<rect x="917.5" y="115.2" transform="matrix(0.8263 -0.5632 0.5632 0.8263 94.1777 537.4396)" class="st11" width="1.9" height="1.7"/>
				</g>
				<g>
					<path class="st11" d="M916.7,118.4c0.3,0.4,0.9,0.5,1.3,0.2c0.4-0.3,0.5-0.9,0.3-1.3c-0.3-0.4-0.9-0.5-1.3-0.3
						C916.6,117.4,916.4,117.9,916.7,118.4z"/>
					<path class="st11" d="M915.8,116.9c0.3,0.4,0.9,0.5,1.3,0.2c0.4-0.3,0.5-0.9,0.2-1.3c-0.3-0.4-0.9-0.5-1.3-0.2
						C915.6,115.9,915.5,116.5,915.8,116.9z"/>
					<polygon class="st11" points="915.8,116.9 917.3,115.9 918.3,117.3 916.7,118.4 					"/>
				</g>
				<g>
					<path class="st11" d="M916,119.9c0.4,0.3,1,0.2,1.3-0.2c0.3-0.4,0.2-1-0.2-1.3c-0.4-0.3-1-0.2-1.3,0.2
						C915.6,119,915.6,119.6,916,119.9z"/>
					<path class="st11" d="M914.7,118.9c0.4,0.3,1,0.2,1.3-0.2c0.3-0.4,0.2-1-0.2-1.3c-0.4-0.3-1-0.2-1.3,0.2
						C914.2,118,914.2,118.6,914.7,118.9z"/>
					<polygon class="st11" points="914.7,118.9 915.8,117.4 917.2,118.4 916,119.9 					"/>
				</g>
				<path class="st11" d="M918.6,121l-0.2,0l0.2-3.2c0-0.5,0.5-0.8,1-0.8c0.5,0.1,0.9,0.5,0.9,1l-0.1,1.6
					C920.3,120.4,919.5,121.1,918.6,121"/>
			</g>
			
				<rect x="909.7" y="164.4" transform="matrix(0.9425 -0.3341 0.3341 0.9425 -4.1381 317.0117)" class="st11" width="19.4" height="12.2"/>
			<g>
				<g>
					<path class="st10" d="M923.1,174.6c-0.1-0.5,0.1-1,0.6-1.1c0.5-0.1,1,0.1,1.2,0.6c0.1,0.5-0.1,1-0.6,1.2
						C923.7,175.4,923.2,175.1,923.1,174.6z"/>
					<path class="st10" d="M923.6,176.2c-0.2-0.5,0.1-1,0.6-1.2c0.5-0.1,1,0.1,1.2,0.6c0.1,0.5-0.1,1-0.6,1.1
						C924.2,177,923.7,176.7,923.6,176.2z"/>
					<polygon class="st10" points="923.6,176.2 925.3,175.7 924.8,174.1 923.1,174.6 					"/>
				</g>
				<g>
					<path class="st10" d="M921.4,174.9c-0.1-0.5,0.1-1,0.6-1.1c0.5-0.1,1,0.1,1.2,0.6c0.1,0.5-0.1,1-0.6,1.2
						C922,175.7,921.5,175.4,921.4,174.9z"/>
					<path class="st10" d="M921.9,176.6c-0.1-0.5,0.1-1,0.6-1.1c0.5-0.1,1,0.1,1.1,0.6c0.1,0.5-0.1,1-0.6,1.2
						C922.5,177.3,922,177.1,921.9,176.6z"/>
					
						<rect x="921.6" y="174.6" transform="matrix(0.9606 -0.278 0.278 0.9606 -12.4123 263.3806)" class="st10" width="1.9" height="1.7"/>
				</g>
				<g>
					<path class="st10" d="M920.1,175.6c-0.1-0.5,0.2-1,0.7-1.1c0.5-0.1,1,0.2,1.1,0.7c0.1,0.5-0.2,1-0.7,1.1
						C920.7,176.4,920.2,176.1,920.1,175.6z"/>
					<path class="st10" d="M920.5,177.3c-0.1-0.5,0.2-1,0.7-1.1c0.5-0.1,1,0.2,1.1,0.7c0.1,0.5-0.2,1-0.7,1.1
						C921.1,178.1,920.6,177.8,920.5,177.3z"/>
					<polygon class="st10" points="920.5,177.3 922.3,176.9 921.9,175.2 920.1,175.6 					"/>
				</g>
			</g>
			<path class="st10" d="M913,135.8c1.5-2,2.3-4.5,2-7.2l-0.1-0.5l-3.5,4.6c-2.3,3-5.6,4.8-9,5.3c0.5,3,2.1,5.7,4.7,7.7l3.6,2.7
				c0.1-0.1,0.2-0.2,0.2-0.3C913.7,144.5,914.3,139.9,913,135.8z"/>
		</g>
		<path class="st6" d="M395.4,157.1c-65.9,30.6-123.1,76.7-166.9,133.6v89.6h166.9V157.1z"/>
		<path class="st12" d="M508.2,168.1l135.6-31l27.8,1.7l14.8,3.1l10.6,5.7l10.3,0.9c0,0,1.5-8.5,2.6-15c-40-11.7-82.3-18-126-18
			c-68.8,0-134,15.5-192.3,43.2l9.2,52.9l51.7,16.6l32.4-29.1L508.2,168.1z"/>
		<path class="st7" d="M362.2,331.3v13.9c0,3.5-0.4,9.2-0.8,12.7L351.2,433h273v-82.7c-13.3-56.1-79.3-65.8-79.3-65.8
			c-3.5-0.5-7.3-3.6-8.6-6.9l-1.1-3c-1.2-3.3-0.7-8.3,1.3-11.2l2.7-4c2-2.9,2.3-7.8,0.6-10.9l-15-28.7c-1.6-3.1-5.5-4.4-8.7-2.9
			l-15.2,7.3c-3.2,1.5-7.5,0.4-9.5-2.4l-6-8.2c-2.1-2.8-6.4-3.9-9.5-2.4l-17.6,8.4c-3.2,1.5-6.5,0-7.5-3.4l-3.7-13.2
			c-0.9-3.4-4.3-4.9-7.5-3.5l-9,4.2c-3.2,1.5-7.4,0.3-9.3-2.6l-17-25.8c-1.9-2.9-5.8-3.7-8.7-1.6l-12.4,8.8c-2.9,2-6.1,6.4-7.2,9.8
			l-14.1,42.5c-1.1,3.3-0.7,8.6,0.9,11.7l3.8,7.6c1.6,3.1,1.8,8.4,0.5,11.6l-9,22.2c-1.3,3.2-1.2,8.5,0.2,11.7l1.2,2.7
			c1.4,3.2,2.6,8.7,2.6,12.2v4.2C362.2,322.1,362.2,327.8,362.2,331.3z"/>
		<path class="st7" d="M428.2,156.5c-12.5,0-24.6,1.7-36.1,4.9l8.8,50.3l51.7,16.6l32.4-29.1l16-21.5
			C480,164.3,455,156.5,428.2,156.5z"/>
		<path class="st13" d="M744.5,433h162.9c-20.6-37.9-111.5-85.6-112.8-91.3l-104.2-23.6l-48.3-3.7c-5.8,0-14.8,2.3-19.9,5.1
			l-8.3,4.6c-5.1,2.8-13.9,3.9-19.6,2.4l-35.8-9.5c-5.7-1.5-10.8,2-11.4,7.9l-1.5,14c-0.6,5.8,1,14.8,3.7,20l3.7,7.2
			c2.7,5.2,0,9.4-5.8,9.4l-3.7,0c-5.8,0-13.6,3.4-17.3,7.5c-3.7,4.2-6.6,12.4-6.6,18.2V433H744.5z"/>
		<path class="st7" d="M758.6,348.6c7.5,13.2,0.6,20.4,2.6,45.4c1.1,14.5,19.5,26.8,23.7,39h123.6l-26.2-42.3L758.6,348.6z"/>
		<g>
			<g>
				<g>
					<path class="st14" d="M771.7,156.8l-58.2-3.1c-3.5-0.2-6.4-2.7-6.4-5.7c0-0.6,0-1.2,0-1.7c-28.7-9.1-59.3-14-91-14
						c-49.9,0-95.6,12.6-137,34l-9.2,28.1c-1.1,3.3,0.1,5.8,2.5,5.4c2.5-0.4,7.2-1.5,10.6-2.6l15-4.8c3.3-1.1,8.6-3.2,11.8-4.8
						l29.5-14.9c3.1-1.6,8.2-1.5,11.3,0.1l13.1,6.9c3.1,1.6,7.2,5.4,9,8.4l6.5,10.2c1.9,3,6.2,5.9,9.7,6.6l5.1,1
						c3.4,0.7,8.5,0.6,11.1-0.3c2.7-0.8,7.4-0.2,10.5,1.5l38.5,20.3c3.1,1.6,6.5,5.7,7.6,9l28.6,81.6l78.9,35.3
						c3.2,1.4,7.7,4.7,10,7.4l21.6,25.1c2.3,2.7,6.6,6.3,9.6,8.2l50,30.7c3,1.8,7.7,1.5,10.4-0.7l10.3-8.3c2.7-2.2,6.6-1.6,8.6,1.3
						l10.8,15.9h112C975.3,310.3,886.7,209.9,771.7,156.8z"/>
				</g>
				<path class="st14" d="M707.1,142.7c0,0,0,1.5,0,3.6c0,0,0,0,0,0L707.1,142.7z"/>
			</g>
		</g>
		<path class="st15" d="M707.1,142.7c0,0,0,1.5,0,3.6c0,0,0,0,0,0L707.1,142.7z"/>
		<path class="st6" d="M155.2,433h68.8c14.4-8.7,29.1-17.6,29.1-17.6l1.8-31.5l-17-39.3l20.6-38.3l39.1-49.7
			c-0.7-4.2-1.1-8.6-1.1-13c0-9.8,1.9-19.3,5.2-27.9C233.2,271.2,181.5,346.6,155.2,433z"/>
		<g>
			<g>
				<path class="st16" d="M388.1,416.2c0-3.5,2.5-6.4,5.5-6.4c3,0,4.5-1.7,3.2-3.9c-1.3-2.2-2.3-6.8-2.3-10.3v-1.9
					c0-3.5,0.9-9.1,1.9-12.5l2.2-6.8c1.1-3.4-0.5-7.6-3.2-9.8c-13-10-23.3-23.6-29.3-39.2c-1.3-3.3-0.6-8.5,1.2-11.5
					c0.5-0.9,1.1-1.8,1.6-2.7c1.8-3,1.2-6.6-1.3-8c-2.5-1.4-4.6-5.3-4.6-8.9v-9.4c0-3.5,1.6-8.8,3.5-11.7l8.5-13
					c1.9-3,0.8-5.4-2.5-5.4c-3.3,0-7.6,2.3-9.8,5.1l-21.8,29.1c-2.1,2.8-3.8,8-3.8,11.5v2.7c0,3.5,2.9,6.4,6.4,6.4h12.8
					c3.5,0,4.9,2.5,3.1,5.5l-7.9,13.3v7.9c0,3.5-2.1,8.4-4.8,10.6c-13.7,11-31.1,17.6-50,17.6c-19.3,0-37.1-6.9-50.9-18.3
					c-2.7-2.2-3.1-6.6-1-9.4c7.3-10.2,22.9-32,22.9-32l19-31.4c1.8-3,5.3-7.5,7.7-10.1l39-41.1c2.4-2.6,3.4-4.9,2.1-5.3
					c-1.3-0.4-4.3,1.3-6.9,3.7l-25.2,24.6l-43.2,48.1c-2.4,2.6-5.5,7.3-7,10.5l-22.5,47.3c-1.5,3.2-0.9,8,1.3,10.7l12.1,14.7
					c2.2,2.7,2.2,7.2-0.1,9.8c-15.3,16.9-35.5,29.7-59.1,36.1c-4.9,1.3-9.4,3.5-13.4,6.4c-2.8,2.1-2,4.1,1.5,4.1h208.7
					c3.5,0,6.4-2.9,6.4-6.4V416.2z"/>
				<path class="st16" d="M996.2,395l-0.4,8.2c-0.2,3.5,0.4,9.1,1.2,12.5l2.9,11.1c0.9,3.4,4.1,6.2,7.2,6.2c3.1,0,4.8-2.7,3.7-6.1
					c-3.5-11-7.5-21.8-11.8-32.4C997.6,391.2,996.3,391.4,996.2,395z"/>
				<path class="st16" d="M989,395.1c-1.4-2.9-3.5-4.8-4.8-4.3c-1.3,0.5-2.3,3.8-2.3,7.4v5.1c0,3.5-2.7,5.3-5.9,4l-12.2-4.9
					c-3.3-1.3-7.5,0.1-9.3,3l-5.7,9.1c-1.9,3-3.4,8.2-3.4,11.8v0.3c0,3.5,2.9,6.4,6.4,6.4h33.5c3.5,0,6.4-2.9,6.4-6.4v-19.9
					C991.5,403.2,990.4,398,989,395.1z"/>
			</g>
			<path class="st16" d="M699.7,137.2c3.2,1.5,3.2,4.3,0.1,6c-1.9,1.1-4,2.3-5.9,3.3c-3.1,1.7-8.3,2.2-11.6,1.1l-5.3-1.8
				c-3.3-1.1-5.5-2.9-4.9-3.9c0.6-1-1.7-1.6-5.2-1.3l-4.3,0.4c-3.5,0.3-3.8,1.8-0.6,3.3l65.4,30.9c3.2,1.5,7.5,5,9.6,7.8l1.5,2
				c2.1,2.8,6.7,5.3,10.2,5.6l18.1,1.5c3.5,0.3,3.8,1.8,0.7,3.5l-6.2,3.3c-3.1,1.6-8.4,2.4-11.9,1.7l-5.9-1.2
				c-3.5-0.7-6.5-0.7-6.9,0c-0.3,0.7,2.1,2,5.5,2.9l11.6,3.1l12.9-4.2c3.3-1.1,8.9-1.4,12.3-0.5c30.4,7.6,58,22.2,81,42
				c2.7,2.3,4.5,6.2,4.2,8.6c-0.3,2.4,1.7,6.2,4.3,8.5l80.6,68.5c2.7,2.3,7.6,3.5,10.9,2.8c3.4-0.8,4.6-3.8,2.7-6.8
				c-65-102.6-170.4-177-293.9-200.6c-3.5-0.7-3.5-0.3-0.2,0.8C679.3,128.1,689.7,132.3,699.7,137.2z"/>
			<path class="st16" d="M479.3,157.1c1.9,1.2,1.6,4.3-0.7,6.9L466.1,178c-1.7,2.1-4.3,3.4-7.3,3.4c-5.2,0-9.5-4.2-9.5-9.5
				c0-1.8,0.5-3.5,1.3-4.9c1.5-2.4,1.4-5.1-1.3-7.2c-2.8-2-2.8-5.4,0.3-7.3c8.6-5.2,18.7-8.3,29.5-8.3c1.7,0,3.5,0.1,5.2,0.2
				c2.9,0.3,4.7,2,4.1,3.5c-0.6,1.5-3.6,3.7-6.8,4.9C478.4,154,477.4,155.9,479.3,157.1z"/>
			<path class="st16" d="M490.5,158.2l7,0.6c3.5,0.3,5.1-1.9,2.3-3.6c-1.6-1-3.4-1.6-5.4-1.8c-2-0.2-3.9,0.2-5.7,0.9
				C485.9,155.5,487,157.9,490.5,158.2z"/>
			<path class="st16" d="M406.3,176c-1.2-3.3,0.2-7.7,3-9.9l15.1-11.4l10.8-8.6c2.8-2.2,4.7-4.6,4.4-5.3c-0.3-0.7-3.3-0.4-6.6,0.8
				c-15.4,5.5-30.5,11.9-45.1,19c-10,7.8-18.2,17.8-24,29.3c-1.6,3.1-2,6.9-1.3,8.2c0.8,1.3,4.1,1.4,7.3,0l32.8-13.3
				c3.3-1.3,5-5.1,3.8-8.4L406.3,176z"/>
			<path class="st16" d="M523.4,197.8L523.4,197.8c3.3-1.4,3.7-4.4,0.7-6.2c-5.9-3.5-12.9-5.5-20.3-5.5c-17.1,0-31.7,10.7-37.5,25.7
				l-19.1,1.6l-8.4,10.4c-2.2,2.7-2.1,7.1,0.3,9.7l2,2.2c2.3,2.6,6.7,3.2,9.7,1.4l34.4-21.5c3-1.9,5.5-6.3,7-9.5
				c2.7-5.6,8.4-9.5,15-9.5c1.9,0,3.8,0.3,5.5,0.9C515.6,198.6,520.2,199.1,523.4,197.8z"/>
			<path class="st16" d="M836.8,356.2c-1.2-0.6-4.6,0.3-7.7,1.9l-10.9,5.7c-3.1,1.6-8,3.4-11,4c-2.9,0.5-6.7,0.3-8.4-0.5
				c-1.7-0.8-3.6-1.1-4.2-0.5c-0.6,0.5,1.5,2.2,4.7,3.6l9.3,4.2c10.6,0,20.1-4.7,26.5-12.2C837.4,359.7,837.9,356.7,836.8,356.2z"/>
		</g>
		<g>
			<polygon class="st17" points="687.6,173.4 688.7,191.5 678.8,189.2 			"/>
			<polygon class="st17" points="656.5,168.1 657.6,186.2 647.6,183.9 			"/>
			<polygon class="st17" points="679.9,150.9 681.3,173.1 669,170.3 			"/>
			<polygon class="st18" points="667.7,182.8 669,205.1 656.8,202.3 			"/>
			<polygon class="st18" points="691.2,180.7 692.3,198.8 682.4,196.5 			"/>
			<polygon class="st18" points="706.1,161.7 707.2,179.8 697.2,177.5 			"/>
		</g>
		<g>
			<polygon class="st17" points="883.2,244.7 872.4,266.9 862.1,257.5 			"/>
			<polygon class="st17" points="848.6,259.1 837.7,281.3 827.4,271.9 			"/>
			<polygon class="st17" points="852.8,226.3 842,248.5 831.7,239.1 			"/>
			<polygon class="st18" points="849,273.3 839.8,292.3 831,284.2 			"/>
			<polygon class="st18" points="884.1,256.8 873.3,279 863,269.6 			"/>
		</g>
		<path class="st17" d="M762.9,296.1l31.3,24c1.8-8-1-16.7-8-22C779.3,292.7,770.2,292.3,762.9,296.1z"/>
		<path class="st18" d="M740.3,283.1l40.3,30.8c0.2-5.5-2.2-11-6.9-14.6L756.2,286C751.5,282.3,745.6,281.5,740.3,283.1z"/>
		<path class="st17" d="M703.9,229.6l-5.4-1.8c-4.1-1.4-8.6,0.8-10.1,5c-0.2,0.5-0.3,0.9-0.3,1.4l20.2,6.8c0.2-0.4,0.4-0.8,0.6-1.3
			C710.2,235.5,708,231,703.9,229.6z"/>
		<path class="st18" d="M676,233l20.1,6.8c0.2-3.8-2.2-7.4-5.9-8.7l-4.2-1.4C682.2,228.5,678.2,229.9,676,233z"/>
		<g>
			<polygon class="st17" points="813.1,204.5 805.1,233 791,224.1 			"/>
			<polygon class="st17" points="779.5,217.4 773.4,239.1 762.6,232.4 			"/>
			<polygon class="st17" points="796.7,249.1 790.6,270.8 779.8,264 			"/>
			<polygon class="st18" points="813.5,221.5 806.7,245.7 794.6,238.2 			"/>
			<polygon class="st18" points="786.6,254.3 781,274 771.3,267.9 			"/>
		</g>
		<path class="st12" d="M479.4,271.3l37.4-12.4c-5.6-6-14.4-8.6-22.7-5.8C485.8,255.8,480.3,263.1,479.4,271.3z"/>
		<path class="st14" d="M499.2,269.2l30-9.9c-4.4-3.3-10.3-4.4-16-2.6l-2.8,0.9C504.8,259.5,500.8,263.9,499.2,269.2z"/>
		<path class="st12" d="M506,308.1c-7.2-1.5-14.8-1-22.1,2.1l-14.5,6.2c-7.2,3.1-13,8.3-16.8,14.5L506,308.1z"/>
		<g>
			
				<rect x="407.8" y="271.5" transform="matrix(0.8497 -0.5273 0.5273 0.8497 -87.239 258.2774)" class="st6" width="3.2" height="21.3"/>
			<path class="st12" d="M413.2,264.1c-0.5,0.1-1,0.3-1.5,0.6l-4.2,2.6c0.2-1.8-0.4-3.7-1.7-4.9c-0.4,0.4-0.7,0.9-1,1.4l-2.2,4.5
				c-0.1,0.2-0.2,0.5-0.3,0.7l-0.9-0.8c-1.8-1.5-4.4-1.6-6.3-0.5c0.3,0.4,0.6,0.9,1,1.2l1.9,1.6l-5.9,1.8c-0.6,0.2-1.1,0.4-1.6,0.8
				c1.2,1.6,3.2,2.6,5.2,2.4l-2.8,1.8c-0.4,0.3-0.8,0.6-1.1,0.9c1,0.8,2.3,1.2,3.5,1.1l11.3-7l4-2.5
				C412.8,268.6,413.7,266.3,413.2,264.1z"/>
		</g>
		<g>
			<g>
				<g>
					<g>
						<path class="st19" d="M296.7,343.3l2.1-2.8l-6.4-4.7c-3.8-2.8-8.6-4-13.3-3.3l0.5,3.5c3.8-0.6,7.6,0.4,10.7,2.7L296.7,343.3z"
							/>
					</g>
				</g>
				<g>
					<path class="st7" d="M286.3,318.3l-5.6,7.6l0.1-1.9c0.2-2.4-1.2-4.4-3.3-5.3c-0.2,0.5-0.3,1-0.4,1.5l-0.4,6.1
						c-1.2-1.1-2.8-1.6-4.4-1.6c0,0.6,0.2,1.2,0.4,1.8l1.9,4.8l-7.8,6.2c-0.4,0.3-0.8,0.7-1.1,1.2c1.9,1.2,4.4,1.1,6.3-0.3l0.9-0.7
						l-2.5,3.4c-0.3,0.4-0.4,0.8-0.6,1.2c1.7,0.5,3.7,0,4.9-1.6l2.5-3.4l-0.9,6.4c-0.1,0.6-0.1,1.2,0,1.7c2.4-0.4,4.4-2.4,4.8-4.9
						l1-6.8l1.2-0.6c2.5-1.1,3.8-3.7,3.6-6.2c-0.6,0.1-1.2,0.2-1.7,0.5l-1.8,0.8l3.9-5.3c1.3-1.7,1.2-4,0.1-5.6
						C287,317.6,286.6,317.9,286.3,318.3z"/>
				</g>
			</g>
		</g>
		<g>
			<g>
				<g>
					<g>
						<path class="st6" d="M414.2,333.7l-2.5,2l-6.1-7.9c-2.7-3.5-3.8-7.8-3.3-12.1l3.2,0.4c-0.5,3.5,0.5,6.9,2.6,9.7L414.2,333.7z"
							/>
					</g>
				</g>
			</g>
			<path class="st12" d="M412,306.6l-3.9,3c0.7-1.8,0.5-3.8-0.5-5.4c-0.5,0.3-0.9,0.7-1.3,1.2l-5.2,6.8c-0.4,0.5-0.7,1-0.9,1.6
				c-0.4-0.1-0.9-0.1-1.3-0.1l-5,0.4c-0.6,0-1.1,0.2-1.7,0.4c0.8,1.8,2.5,3.1,4.4,3.4l-5.7,4.4c-0.4,0.3-0.8,0.7-1.1,1.1
				c1.8,1.2,4.3,1.2,6.1-0.2l2.9-2.3l3.4-2.6l1.2-0.9l1-0.8l7.2-5.5c1.7-1.3,2.2-3.4,1.6-5.3C412.9,306.1,412.4,306.3,412,306.6z"/>
		</g>
		<g>
			<line class="st8" x1="202.6" y1="363.3" x2="202.6" y2="363.3"/>
			<g>
				<g>
					
						<rect x="198.9" y="384.8" transform="matrix(0.439 -0.8985 0.8985 0.439 -233.4496 397.514)" class="st19" width="5.4" height="1.7"/>
				</g>
				<g>
					
						<rect x="203.2" y="366.5" transform="matrix(0.7752 -0.6318 0.6318 0.7752 -190.627 213.1056)" class="st19" width="1.7" height="15.8"/>
				</g>
				<path class="st19" d="M216.4,376.6l6.6,9.3l2-4.1l-15.9-22.5l-3.3,2.3l8.8,12.5l-2.4,2.8c-3.9,4.6-10.5,6-15.9,3.5l-1.2,2.6
					c6.6,3.1,14.6,1.4,19.3-4.2L216.4,376.6z"/>
			</g>
			<path class="st20" d="M204.5,348.4l-3.7,7.6c-2.5-0.3-5,1-6.1,3.4l-0.1,0.3c-1.5-0.3-3,0.4-3.7,1.8l-3.4,7
				c-0.7,1.4-0.3,3.1,0.8,4l-1,2c-1.3,2.8-0.4,6,2,7.7l-2.8,5.8c-1,2.1-0.2,4.6,1.9,5.6c2.1,1,4.6,0.2,5.6-1.9l7.6-15.6
				c1.8-0.3,3.5-1.5,4.4-3.3l9.4-19.2c1.5-3,0.2-6.6-2.8-8.1C209.6,344.2,206,345.4,204.5,348.4z"/>
		</g>
		<g>
			<g>
				<g>
					
						<rect x="213.5" y="309.9" transform="matrix(4.771497e-002 -0.9989 0.9989 4.771497e-002 -114.7792 518.2036)" class="st19" width="1.7" height="18.8"/>
				</g>
				<path class="st19" d="M217.6,306.5c5.2,3.9,7.1,10.8,4.7,16.8l-2.6,6.5c-1.2,0.1-2.4,0.4-3.5,0.8c-4.2,1.4-8.8,0.8-12.5-1.6
					l-2.2,3.4c4.8,3.1,10.6,3.8,16,2c3.7-1.2,7.7-0.7,11,1.4l2.2-3.4c-2.4-1.5-5.1-2.4-7.8-2.6l2.2-5.4c2.9-7.2,0.6-15.5-5.6-20.1
					L217.6,306.5z"/>
			</g>
			<path class="st20" d="M212.3,288.8l-5,7.9c-2.4-0.3-4.9,0.7-6.4,2.7c-2.8-0.4-5.8,0.8-7.4,3.4l-8.5,13.2
				c-2.3,3.5-1.2,8.2,2.3,10.5c0.4,0.2,0.8,0.4,1.2,0.6l-6.2,9.6c-1.6,2.4-0.8,5.6,1.6,7.2c2.4,1.6,5.7,0.8,7.2-1.6l3.8-6
				c3.3,1.7,7.4,0.7,9.4-2.5l10.2-16c0.9-1.4,1.2-2.9,1.1-4.4l10.2-16c2.4-3.7,1.3-8.7-2.4-11.1C219.7,283.9,214.7,285,212.3,288.8z
				"/>
		</g>
		<polygon class="st5" points="320.7,165.7 367.2,177.2 317.4,213.5 		"/>
		<polygon class="st6" points="333.1,179.9 330.6,181.7 331.4,182.9 346.3,172 344.5,171.6 334.2,179.1 332.8,177.2 335.9,175 
			335,173.8 327.5,179.3 328.4,180.4 331.7,178 		"/>
		<polygon class="st19" points="317.4,213.5 341,196.3 319,190.8 		"/>
		<polygon class="st5" points="306.1,189.9 338.7,198 303.8,223.4 		"/>
		<polygon class="st6" points="308.2,210.5 309,211.6 314.3,207.8 313.4,206.7 311.4,208.2 310.7,207.2 317.2,202.5 316.4,201.4 
			313.5,203.4 312.4,201.9 311.3,202.8 312.4,204.3 304.7,209.9 304.6,211.7 309.6,208.1 310.2,209 		"/>
		<g>
			<path d="M862.9,337.2l-8.1-9.6l20.4-9L862.9,337.2z M856.6,328l6.2,7.3l9.4-14.2L856.6,328z"/>
			<polygon class="st17" points="848.6,311.5 837.8,327.9 830.6,319.4 			"/>
			<polygon class="st18" points="846.1,320.9 837.4,334.1 831.6,327.3 			"/>
		</g>
		<path class="st21" d="M657.4,255.1l-12.6-13.4c-6.9-7.4-19.3-8.5-27.5-2.5L602.4,250L657.4,255.1z"/>
		<path class="st3" d="M642.4,239.5c-5.7-4.3-13.6-5.4-20.3-3l3.2,2.9l11-0.8l2.9,3.5L642.4,239.5z"/>
		<g>
			<path class="st17" d="M926.4,433l7.5-21.6c1.5-4.1-0.8-8.5-5-9.8l-33.1-9.7l21.1,41H926.4z"/>
			<path class="st18" d="M908.1,416l3.4-13.3c1.9-7.3-2.4-15.6-9.4-18.3l-12.8-5L908.1,416z"/>
			<path class="st3" d="M922.2,399.7l-1.3,4.1l3.8,1.2l-1,3.1l4.7,1.5l-2.6,8l5.3,1.7l2.8-7.9c1.5-4.1-0.8-8.5-5-9.8L922.2,399.7z"
				/>
			<path class="st3" d="M911.9,400.3c0.4-5.3-2.1-10.7-6.3-14l-0.5,3.1l4.9,6.6l-1,3.3L911.9,400.3z"/>
		</g>
		<g>
			<polygon class="st22" points="220.5,124.7 227.1,119.7 257.8,125.2 243.9,135.6 			"/>
			<path class="st3" d="M222.1,143l40.9-30.6c4.3-3.2,10-3.2,14.3-0.3c-0.9,2.3-2.4,4.4-4.5,6l-41.7,31.1c-4.1,3.1-9.4,3.4-13.7,1.5
				l-2-2.7L222.1,143z"/>
			<polygon class="st22" points="248.2,161.6 254.8,156.7 257.8,125.2 243.9,135.6 			"/>
			<g>
				<path class="st10" d="M264.4,113.8l5-3.8c1.7-0.1,3.4,0.1,5.1,0.6l-6.2,4.6c-1.1,0.8-2.7,0.6-3.6-0.5
					C264.5,114.5,264.4,114.2,264.4,113.8C264.3,113.9,264.3,113.8,264.4,113.8z"/>
				<path class="st10" d="M255.2,123.7c0.4,0.5,1,0.6,1.5,0.2l0,0c0.5-0.4,0.6-1,0.2-1.5l-0.8-1.1c-0.4-0.5-1-0.6-1.5-0.2l0,0
					c-0.5,0.4-0.6,1-0.2,1.5L255.2,123.7z"/>
				<path class="st10" d="M250.6,127.2c0.4,0.5,1,0.6,1.5,0.2l0,0c0.5-0.4,0.6-1,0.2-1.5l-0.8-1.1c-0.4-0.5-1-0.6-1.5-0.2l0,0
					c-0.5,0.4-0.6,1-0.2,1.5L250.6,127.2z"/>
				<path class="st10" d="M259.8,120.3c0.4,0.5,1,0.6,1.5,0.2l0,0c0.5-0.4,0.6-1,0.2-1.5l-0.8-1.1c-0.4-0.5-1-0.6-1.5-0.2l0,0
					c-0.5,0.4-0.6,1-0.2,1.5L259.8,120.3z"/>
				<path class="st10" d="M246,130.6c0.4,0.5,1,0.6,1.5,0.2l0,0c0.5-0.4,0.6-1,0.2-1.5l-0.8-1.1c-0.4-0.5-1-0.6-1.5-0.2l0,0
					c-0.5,0.4-0.6,1-0.2,1.5L246,130.6z"/>
				<path class="st10" d="M241.4,134.1c0.4,0.5,1,0.6,1.5,0.2l0,0c0.5-0.4,0.6-1,0.2-1.5l-0.8-1.1c-0.4-0.5-1-0.6-1.5-0.2l0,0
					c-0.5,0.4-0.6,1-0.2,1.5L241.4,134.1z"/>
				<path class="st10" d="M236.7,137.6c0.4,0.5,1,0.6,1.5,0.2l0,0c0.5-0.4,0.6-1,0.2-1.5l-0.8-1.1c-0.4-0.5-1-0.6-1.5-0.2l0,0
					c-0.5,0.4-0.6,1-0.2,1.5L236.7,137.6z"/>
				<path class="st10" d="M232.1,141c0.4,0.5,1,0.6,1.5,0.2l0,0c0.5-0.4,0.6-1,0.2-1.5l-0.8-1.1c-0.4-0.5-1-0.6-1.5-0.2l0,0
					c-0.5,0.4-0.6,1-0.2,1.5L232.1,141z"/>
				<path class="st10" d="M227.5,144.5c0.4,0.5,1,0.6,1.5,0.2l0,0c0.5-0.4,0.6-1,0.2-1.5l-0.8-1.1c-0.4-0.5-1-0.6-1.5-0.2l0,0
					c-0.5,0.4-0.6,1-0.2,1.5L227.5,144.5z"/>
			</g>
			<polygon class="st22" points="215.4,148 225.9,140.2 212.8,137.9 207.2,142.1 			"/>
		</g>
		<path class="st23" d="M945,298.3c-14.9,2.8-26.2,15.7-26.5,31.3H889c-14.1,0-25.5,11.4-25.5,25.5c0,14.1,11.4,25.5,25.5,25.5h42.5
			c3.8,2.5,8.4,4,13.3,4h28.6c7.1,0,13.5-3.1,17.9-7.9C978.5,349,963,322.7,945,298.3z"/>
		<path class="st3" d="M1004.9,280.5h-67.5c-17.7,0-32.1,14.2-32.4,31.9h-29.5c-14.1,0-25.5,11.4-25.5,25.5
			c0,14.1,11.4,25.5,25.5,25.5h42.5c3.8,2.5,8.4,4,13.3,4h28.6c12.6,0,22.9-9.6,24.1-21.9h21c17.9,0,32.5-14.5,32.5-32.5
			C1037.3,295.1,1022.8,280.5,1004.9,280.5z"/>
		<path class="st23" d="M548.2,341.9H536c-1.8-5.7-7.1-9.8-13.4-9.8h-5.4c-1.8-3-5.1-4.9-8.9-4.9h-2.2c-3.7,0-7,2-8.9,4.9H487
			c-7.8,0-14.1,6.3-14.1,14.1c0,1.3,0.2,2.5,0.5,3.6h-25.6c-6.6,0-11.9,5.3-11.9,11.9c0,6.6,5.3,11.9,11.9,11.9h75.1h0.9h24.4
			c8.8,0,15.9-7.1,15.9-15.9C564.1,349,557,341.9,548.2,341.9z"/>
		<path class="st3" d="M535,328.2h-12.2c-1.8-5.7-7.1-9.8-13.4-9.8H504c-1.8-3-5.1-4.9-8.9-4.9H493c-3.7,0-7,2-8.9,4.9h-10.3
			c-7.8,0-14.1,6.3-14.1,14.1c0,1.3,0.2,2.5,0.5,3.6h-25.6c-6.6,0-11.9,5.3-11.9,11.9c0,6.6,5.3,11.9,11.9,11.9h75.1h0.9H535
			c8.8,0,15.9-7.1,15.9-15.9C550.9,335.3,543.8,328.2,535,328.2z"/>
		<g>
			<g>
				<g>
					<path class="st24" d="M277.3,404.4c0.3-0.7,1.1-1,1.8-0.7c1.8,0.9,4.1,0.1,4.9-1.8l1.1-2.3c0.3-0.7,1.1-1,1.8-0.7
						c0.7,0.3,1,1.1,0.7,1.8l-1.1,2.3c-0.9,1.9-2.5,3.1-4.4,3.5c0.9,1.7,1,3.8,0.1,5.6l-1.1,2.3c-0.3,0.7-1.1,1-1.8,0.7
						c-0.7-0.3-1-1.1-0.7-1.8l1.1-2.3c0.9-1.8,0.1-4.1-1.8-4.9C277.3,405.9,277,405.1,277.3,404.4z"/>
				</g>
			</g>
			<g>
				<g>
					<path class="st24" d="M283.9,390.6c0.3-0.7,1.1-1,1.8-0.7c1.8,0.9,4,0.1,4.9-1.8l1.1-2.3c0.3-0.7,1.1-1,1.8-0.7
						c0.7,0.3,1,1.1,0.7,1.8l-1.1,2.3c-0.9,1.9-2.5,3.1-4.4,3.5c0.9,1.7,1,3.8,0.1,5.6l-1.1,2.3c-0.3,0.7-1.1,1-1.8,0.7
						c-0.7-0.3-1-1.1-0.7-1.8l1.1-2.3c0.9-1.8,0.1-4.1-1.8-4.9C283.8,392.1,283.5,391.3,283.9,390.6z"/>
				</g>
			</g>
		</g>
		<g>
			<g>
				<g>
					<path class="st24" d="M336,393.7c0.5-0.6,1.3-0.7,1.9-0.2c1.6,1.2,3.9,1,5.2-0.7l1.6-2c0.5-0.6,1.3-0.7,1.9-0.2
						c0.6,0.5,0.7,1.3,0.2,1.9l-1.6,2c-1.3,1.6-3.1,2.5-5.1,2.5c0.5,1.9,0.1,3.9-1.2,5.5l-1.6,2c-0.5,0.6-1.3,0.7-1.9,0.2
						c-0.6-0.5-0.7-1.3-0.2-1.9l1.6-2c1.3-1.6,1-3.9-0.7-5.2C335.7,395.2,335.5,394.3,336,393.7z"/>
				</g>
			</g>
			<g>
				<g>
					<path class="st24" d="M345.4,381.7c0.5-0.6,1.3-0.7,1.9-0.2c1.6,1.2,3.9,1,5.2-0.7l1.6-2c0.5-0.6,1.3-0.7,1.9-0.2
						c0.6,0.5,0.7,1.3,0.2,1.9l-1.6,2c-1.3,1.6-3.1,2.5-5.1,2.5c0.5,1.9,0.1,3.9-1.2,5.5l-1.6,2c-0.5,0.6-1.3,0.7-1.9,0.2
						c-0.6-0.5-0.7-1.3-0.2-1.9l1.6-2c1.3-1.6,1-3.9-0.7-5.2C345,383.1,344.9,382.3,345.4,381.7z"/>
				</g>
			</g>
			<g>
				<g>
					<path class="st24" d="M354.7,369.6c0.5-0.6,1.3-0.7,1.9-0.2c1.6,1.2,3.9,1,5.2-0.7l1.6-2c0.5-0.6,1.3-0.7,1.9-0.2
						c0.6,0.5,0.7,1.3,0.2,1.9l-1.6,2c-1.3,1.6-3.1,2.5-5.1,2.5c0.5,1.9,0.1,3.9-1.2,5.5l-1.6,2c-0.5,0.6-1.3,0.7-1.9,0.2
						c-0.6-0.5-0.7-1.3-0.2-1.9l1.6-2c1.3-1.6,1-3.9-0.7-5.2C354.4,371,354.3,370.2,354.7,369.6z"/>
				</g>
			</g>
		</g>
		<g>
			<g>
				<g>
					<path class="st24" d="M778.5,169.7c0.7,0.3,1,1.1,0.7,1.8c-0.8,1.9,0.1,4,2,4.8l2.4,1c0.7,0.3,1,1.1,0.7,1.8
						c-0.3,0.7-1.1,1-1.8,0.7l-2.4-1c-1.9-0.8-3.2-2.4-3.7-4.2c-1.7,0.9-3.7,1.1-5.6,0.3l-2.4-1c-0.7-0.3-1-1.1-0.7-1.8
						c0.3-0.7,1.1-1,1.8-0.7l2.4,1c1.9,0.8,4.1-0.1,4.8-2C777,169.7,777.8,169.4,778.5,169.7z"/>
				</g>
			</g>
			<g>
				<g>
					<path class="st24" d="M747.5,165.2c0.7,0.3,1,1.1,0.7,1.8c-0.8,1.9,0.1,4,2,4.8l2.4,1c0.7,0.3,1,1.1,0.7,1.8
						c-0.3,0.7-1.1,1-1.8,0.7l-2.4-1c-1.9-0.8-3.2-2.4-3.7-4.2c-1.7,0.9-3.7,1.1-5.6,0.3l-2.4-1c-0.7-0.3-1-1.1-0.7-1.8
						c0.3-0.7,1.1-1,1.8-0.7l2.4,1c1.9,0.8,4.1-0.1,4.8-2C746,165.3,746.8,164.9,747.5,165.2z"/>
				</g>
			</g>
			<g>
				<g>
					<path class="st24" d="M761.6,171.1c0.7,0.3,1,1.1,0.7,1.8c-0.8,1.9,0.1,4,2,4.8l2.4,1c0.7,0.3,1,1.1,0.7,1.8
						c-0.3,0.7-1.1,1-1.8,0.7l-2.4-1c-1.9-0.8-3.2-2.4-3.7-4.2c-1.7,0.9-3.7,1.1-5.6,0.3l-2.4-1c-0.7-0.3-1-1.1-0.7-1.8
						c0.3-0.7,1.1-1,1.8-0.7l2.4,1c1.9,0.8,4.1-0.1,4.8-2C760.1,171.1,760.9,170.8,761.6,171.1z"/>
				</g>
			</g>
		</g>
		<g>
			
				<rect x="448.7" y="265.8" transform="matrix(0.9131 -0.4078 0.4078 0.9131 -74.5864 207.8762)" class="st6" width="3.3" height="26.3"/>
			<path class="st12" d="M455.9,259c-0.5,0.1-1.1,0.2-1.6,0.4l-4.7,2.1c0.5-1.8,0.1-3.8-1.1-5.3c-0.5,0.4-0.9,0.8-1.2,1.3l-2.9,4.3
				c-0.1,0.2-0.3,0.5-0.4,0.7l-0.8-0.9c-1.7-1.8-4.2-2.3-6.4-1.4c0.2,0.5,0.5,1,0.9,1.4l1.7,1.9l-6.3,1c-0.6,0.1-1.2,0.3-1.7,0.6
				c1,1.9,2.9,3.1,5.1,3.2l-3.2,1.4c-0.5,0.2-0.9,0.5-1.2,0.8c1.4,1.5,3.7,2.1,5.7,1.2l2.5-1.1c-0.3,1-0.4,2.1-0.1,3.2
				c0.5-0.2,1-0.4,1.5-0.7l3.9-2.7c0.5-0.3,0.9-0.8,1.3-1.2l2.8,0.2c2.5,0.2,4.7-1.2,5.6-3.3c-0.5-0.2-1-0.4-1.6-0.4l-3.1-0.3
				l2.1-0.9C454.9,263.6,456.1,261.3,455.9,259z"/>
		</g>
		<path class="st25" d="M606.7,326.5"/>
		<g>
			<g>
				
					<rect x="265.6" y="254.8" transform="matrix(0.7323 -0.681 0.681 0.7323 -100.9752 256.1863)" class="st22" width="19.6" height="3.5"/>
				
					<rect x="281" y="269.8" transform="matrix(0.7323 -0.681 0.681 0.7323 -106.0479 273.3879)" class="st22" width="27.4" height="3.5"/>
				
					<rect x="299.3" y="288.9" transform="matrix(0.7323 -0.681 0.681 0.7323 -113.6042 292.2363)" class="st22" width="31" height="3.5"/>
			</g>
			<path class="st22" d="M278.4,250.1c-10.3-5.2-21.3-8.8-32.7-10.5l5.7,7.1c7.7,1.7,15.3,4.2,22.5,7.7
				C275.3,252.9,276.8,251.5,278.4,250.1z"/>
			
				<rect x="263.6" y="253.2" transform="matrix(0.7323 -0.681 0.681 0.7323 -100.8085 253.4793)" class="st0" width="16.8" height="3.5"/>
			<g>
				
					<rect x="267.4" y="256.1" transform="matrix(0.7323 -0.681 0.681 0.7323 -100.8512 259.0505)" class="st0" width="23.3" height="3.5"/>
				
					<rect x="271.8" y="260.3" transform="matrix(0.7323 -0.681 0.681 0.7323 -102.2196 263.9951)" class="st0" width="25.8" height="3.5"/>
				
					<rect x="276.1" y="264.4" transform="matrix(0.7322 -0.6811 0.6811 0.7322 -103.4749 269.0555)" class="st0" width="28.6" height="3.5"/>
				
					<rect x="285.2" y="273.7" transform="matrix(0.7323 -0.681 0.681 0.7323 -107.0422 278.5229)" class="st0" width="31" height="3.5"/>
				
					<rect x="289.7" y="278.2" transform="matrix(0.7323 -0.681 0.681 0.7323 -108.658 283.3747)" class="st0" width="32.8" height="3.5"/>
				
					<rect x="294.4" y="283.2" transform="matrix(0.7323 -0.681 0.681 0.7323 -110.8454 287.9382)" class="st0" width="32.8" height="3.5"/>
				
					<rect x="304.2" y="294.2" transform="matrix(0.7323 -0.681 0.681 0.7323 -116.0406 296.6644)" class="st0" width="30.3" height="3.5"/>
				
					<rect x="309" y="299.6" transform="matrix(0.7323 -0.681 0.681 0.7323 -118.5633 301.0587)" class="st0" width="29.3" height="3.5"/>
				
					<rect x="314" y="305.3" transform="matrix(0.7323 -0.681 0.681 0.7323 -121.3602 305.3313)" class="st0" width="27.4" height="3.5"/>
			</g>
			<g>
				
					<rect x="269.6" y="258.3" transform="matrix(0.7323 -0.6809 0.6809 0.7323 -101.6102 261.4599)" class="st26" width="24.3" height="3.5"/>
				
					<rect x="274.1" y="262.7" transform="matrix(0.7323 -0.681 0.681 0.7323 -103.1639 266.377)" class="st26" width="26.2" height="3.5"/>
				
					<rect x="278.4" y="266.7" transform="matrix(0.7322 -0.681 0.681 0.7322 -104.3447 271.4287)" class="st26" width="29.3" height="3.5"/>
				
					<rect x="282.9" y="271.1" transform="matrix(0.7323 -0.681 0.681 0.7323 -105.9485 276.2561)" class="st26" width="31" height="3.5"/>
				
					<rect x="287.3" y="275.6" transform="matrix(0.7323 -0.681 0.681 0.7323 -107.5642 281.0891)" class="st26" width="32.8" height="3.5"/>
				
					<rect x="292" y="280.7" transform="matrix(0.7323 -0.681 0.681 0.7323 -109.7519 285.6286)" class="st26" width="32.8" height="3.5"/>
				
					<rect x="296.8" y="285.7" transform="matrix(0.7323 -0.681 0.681 0.7323 -111.9389 290.2229)" class="st26" width="32.8" height="3.5"/>
				
					<rect x="301.5" y="290.8" transform="matrix(0.7323 -0.681 0.681 0.7323 -114.1261 294.7778)" class="st26" width="32.8" height="3.5"/>
				
					<rect x="306.5" y="296.7" transform="matrix(0.7323 -0.681 0.681 0.7323 -117.1344 298.958)" class="st26" width="30.3" height="3.5"/>
				
					<rect x="311.4" y="302.4" transform="matrix(0.7323 -0.681 0.681 0.7323 -119.8809 303.2437)" class="st26" width="28.6" height="3.5"/>
			</g>
			<polygon class="st3" points="233.6,230 234.4,226 321.2,315.4 314.4,321.7 			"/>
			<path class="st3" d="M245.7,239.6l6.8,6.1c25,1.5,49.6,12.2,68,32.1c6.6,7.1,12,15,16.2,23.2l4.3-4c-4.3-8.2-9.8-16-16.4-23.1
				C303.4,251.1,274.6,239.5,245.7,239.6z"/>
			
				<rect x="277.8" y="242.7" transform="matrix(0.7323 -0.681 0.681 0.7323 -90.3828 257.5715)" class="st3" width="9.2" height="2.2"/>
			<polygon class="st0" points="267,263.2 261.2,268.7 258.6,265.9 264.5,260.4 265.8,260.2 267.4,261.9 			"/>
			<path class="st3" d="M263.7,260.5l-4.4,4.1c-0.4,0.4-0.6,0.8-0.7,1.3l0.3,0.3l5.3-4.9c0.7-0.6,1.7-0.6,2.3,0.1
				c0.6,0.7,0.6,1.7-0.1,2.3l-5.3,4.9l0.3,0.3c0.5-0.1,0.9-0.3,1.3-0.6l4.4-4.1c1-0.9,1.1-2.5,0.1-3.5
				C266.3,259.7,264.7,259.6,263.7,260.5z"/>
			<path class="st6" d="M341,297l-26.6,24.8c-1.7,1.6-1.8,4.2-0.2,5.9l32.8-30.5C345.4,295.5,342.7,295.4,341,297z"/>
		</g>
		<path class="st19" d="M327.2,252.6l25.9-23.8c-6.4-0.6-13.1,1.4-18.2,6.1C329.7,239.7,327.1,246.2,327.2,252.6z"/>
		<path class="st5" d="M323.7,257.9l20-18.4c-3.5-0.7-7.2,0.1-10,2.7l-6.4,5.9C324.5,250.7,323.3,254.4,323.7,257.9z"/>
		<path class="st3" d="M156,393.7c-0.3,0-0.6-0.2-0.8-0.5c-1.6-3.3-3.2-6.8-4.6-10.4c-0.2-0.4,0-0.9,0.5-1.1c0.4-0.2,0.9,0,1.1,0.5
			c1.4,3.6,2.9,7,4.5,10.3c0.2,0.4,0,0.9-0.4,1.1C156.2,393.7,156.1,393.7,156,393.7z M147.6,372.7c-0.4,0-0.7-0.2-0.8-0.6
			c-1.2-3.7-2.2-7.3-3-11c-0.1-0.5,0.2-0.9,0.6-1c0.5-0.1,0.9,0.2,1,0.6c0.8,3.6,1.8,7.2,3,10.8c0.1,0.4-0.1,0.9-0.6,1.1
			C147.8,372.7,147.7,372.7,147.6,372.7z M142.5,350.7c-0.4,0-0.8-0.3-0.8-0.7c-0.5-3.8-0.9-7.7-1.1-11.3c0-0.5,0.3-0.9,0.8-0.9
			c0.5,0,0.9,0.3,0.9,0.8c0.2,3.6,0.5,7.4,1,11.2c0.1,0.5-0.3,0.9-0.7,1C142.6,350.7,142.5,350.7,142.5,350.7z M141.6,328.2
			C141.6,328.2,141.6,328.2,141.6,328.2c-0.5,0-0.9-0.4-0.8-0.9c0.3-3.9,0.8-7.7,1.6-11.3c0.1-0.5,0.5-0.7,1-0.7
			c0.5,0.1,0.8,0.5,0.7,1c-0.8,3.6-1.3,7.3-1.6,11.1C142.4,327.8,142.1,328.2,141.6,328.2z M639.7,314.3c-0.1,0-0.3,0-0.4-0.1
			c0,0-3.6-1.9-10.2-5c-0.4-0.2-0.6-0.7-0.4-1.1c0.2-0.4,0.7-0.6,1.1-0.4c6.6,3.1,10.2,5,10.2,5c0.4,0.2,0.6,0.7,0.4,1.1
			C640.3,314.1,640,314.3,639.7,314.3z M146.4,306.1c-0.1,0-0.2,0-0.3-0.1c-0.4-0.2-0.7-0.7-0.5-1.1c1.3-3.6,3-7.1,4.8-10.4
			c0.2-0.4,0.7-0.6,1.2-0.3c0.4,0.2,0.6,0.7,0.3,1.2c-1.8,3.2-3.4,6.6-4.7,10.1C147,305.9,146.7,306.1,146.4,306.1z M619.2,304.5
			c-0.1,0-0.2,0-0.3-0.1c-3.3-1.5-6.8-3.1-10.3-4.6c-0.4-0.2-0.6-0.7-0.4-1.1c0.2-0.4,0.7-0.6,1.1-0.4c3.5,1.5,7,3.1,10.4,4.6
			c0.4,0.2,0.6,0.7,0.4,1.1C619.8,304.3,619.5,304.5,619.2,304.5z M598.4,295.5c-0.1,0-0.2,0-0.3-0.1c-3.3-1.4-6.8-2.8-10.5-4.3
			c-0.4-0.2-0.6-0.7-0.5-1.1c0.2-0.4,0.7-0.6,1.1-0.5c3.7,1.5,7.2,2.9,10.5,4.3c0.4,0.2,0.6,0.7,0.5,1.1
			C599.1,295.3,598.8,295.5,598.4,295.5z M577.4,287c-0.1,0-0.2,0-0.3-0.1c-3.4-1.3-6.9-2.7-10.6-4c-0.4-0.2-0.7-0.7-0.5-1.1
			c0.2-0.4,0.7-0.7,1.1-0.5c3.6,1.4,7.2,2.7,10.6,4.1c0.4,0.2,0.7,0.7,0.5,1.1C578.1,286.8,577.8,287,577.4,287z M157.4,286.5
			c-0.2,0-0.4-0.1-0.5-0.2c-0.4-0.3-0.4-0.8-0.1-1.2c2.3-2.9,4.9-5.8,7.7-8.4c0.3-0.3,0.9-0.3,1.2,0c0.3,0.3,0.3,0.9,0,1.2
			c-2.7,2.6-5.3,5.4-7.5,8.2C157.9,286.4,157.7,286.5,157.4,286.5z M556.3,279c-0.1,0-0.2,0-0.3-0.1c-3.5-1.3-7-2.5-10.7-3.8
			c-0.4-0.2-0.7-0.6-0.5-1.1c0.2-0.4,0.6-0.7,1.1-0.5c3.6,1.3,7.2,2.5,10.7,3.8c0.4,0.2,0.7,0.6,0.5,1.1
			C556.9,278.8,556.6,279,556.3,279z M534.9,271.5c-0.1,0-0.2,0-0.3,0c-3.5-1.2-7.1-2.4-10.7-3.5c-0.4-0.1-0.7-0.6-0.5-1.1
			s0.6-0.7,1.1-0.5c3.6,1.2,7.2,2.3,10.8,3.5c0.4,0.1,0.7,0.6,0.5,1.1C535.6,271.3,535.3,271.5,534.9,271.5z M173.7,271
			c-0.3,0-0.5-0.1-0.7-0.3c-0.3-0.4-0.2-0.9,0.2-1.2c0.3-0.2,0.5-0.4,0.8-0.6c2.8-2,5.7-4,8.6-5.8c0.4-0.3,0.9-0.1,1.2,0.3
			c0.3,0.4,0.1,0.9-0.3,1.2c-2.8,1.8-5.7,3.8-8.5,5.8c-0.3,0.2-0.5,0.4-0.8,0.6C174,270.9,173.9,271,173.7,271z M513.4,264.6
			c-0.1,0-0.2,0-0.2,0c-3.6-1.1-7.2-2.2-10.8-3.2c-0.4-0.1-0.7-0.6-0.6-1.1c0.1-0.4,0.6-0.7,1.1-0.6c3.7,1.1,7.3,2.2,10.8,3.2
			c0.4,0.1,0.7,0.6,0.6,1.1C514.1,264.4,513.7,264.6,513.4,264.6z M192.7,258.8c-0.3,0-0.6-0.2-0.7-0.4c-0.2-0.4-0.1-0.9,0.3-1.2
			c3.3-1.9,6.7-3.6,10.1-5.2c0.4-0.2,0.9,0,1.1,0.4c0.2,0.4,0,0.9-0.4,1.1c-3.3,1.6-6.7,3.3-10,5.1
			C193,258.7,192.9,258.8,192.7,258.8z M491.6,258.3c-0.1,0-0.2,0-0.2,0c-3.6-1-7.3-2-10.9-2.9c-0.5-0.1-0.7-0.6-0.6-1
			c0.1-0.5,0.6-0.7,1-0.6c3.6,0.9,7.3,1.9,10.9,3c0.5,0.1,0.7,0.6,0.6,1C492.4,258,492,258.3,491.6,258.3z M469.8,252.5
			c-0.1,0-0.1,0-0.2,0c-3.6-0.9-7.3-1.8-11-2.6c-0.5-0.1-0.7-0.6-0.6-1c0.1-0.5,0.6-0.7,1-0.6c3.7,0.9,7.4,1.7,11,2.6
			c0.5,0.1,0.7,0.6,0.6,1C470.5,252.3,470.1,252.5,469.8,252.5z M213.2,249.1c-0.3,0-0.7-0.2-0.8-0.5c-0.2-0.4,0-0.9,0.5-1.1
			c3.6-1.4,7.2-2.6,10.7-3.7c0.5-0.1,0.9,0.1,1.1,0.6c0.1,0.4-0.1,0.9-0.6,1.1c-3.5,1.1-7.1,2.3-10.6,3.7
			C213.4,249.1,213.3,249.1,213.2,249.1z M447.7,247.4c-0.1,0-0.1,0-0.2,0c-3.7-0.8-7.4-1.6-11.1-2.3c-0.5-0.1-0.8-0.5-0.7-1
			c0.1-0.5,0.5-0.8,1-0.7c3.7,0.7,7.4,1.5,11.1,2.3c0.5,0.1,0.7,0.6,0.6,1C448.5,247.2,448.1,247.4,447.7,247.4z M425.6,243
			c-0.1,0-0.1,0-0.2,0c-3.7-0.7-7.5-1.3-11.1-1.9c-0.5-0.1-0.8-0.5-0.7-1c0.1-0.5,0.5-0.8,1-0.7c3.7,0.6,7.4,1.3,11.2,1.9
			c0.5,0.1,0.8,0.5,0.7,1C426.3,242.7,426,243,425.6,243z M234.8,242.5c-0.4,0-0.7-0.3-0.8-0.7c-0.1-0.5,0.2-0.9,0.6-1
			c3.6-0.8,7.4-1.6,11.1-2.4c0.5-0.1,0.9,0.2,1,0.7c0.1,0.5-0.2,0.9-0.7,1c-3.7,0.7-7.4,1.5-11,2.3
			C234.9,242.5,234.8,242.5,234.8,242.5z M403.2,239.3c0,0-0.1,0-0.1,0c-3.7-0.6-7.5-1.1-11.2-1.6c-0.5-0.1-0.8-0.5-0.7-0.9
			c0.1-0.5,0.5-0.8,0.9-0.7c3.7,0.5,7.5,1,11.2,1.6c0.5,0.1,0.8,0.5,0.7,1C404,239,403.7,239.3,403.2,239.3z M256.9,238.2
			c-0.4,0-0.8-0.3-0.8-0.7c-0.1-0.5,0.2-0.9,0.7-1c3.7-0.6,7.4-1.2,11.2-1.6c0.5-0.1,0.9,0.3,1,0.7c0.1,0.5-0.3,0.9-0.7,1
			c-3.7,0.5-7.5,1-11.2,1.6C257,238.2,257,238.2,256.9,238.2z M380.8,236.4C380.8,236.4,380.8,236.4,380.8,236.4
			c-3.8-0.4-7.6-0.8-11.3-1.1c-0.5,0-0.8-0.5-0.8-0.9c0-0.5,0.5-0.8,0.9-0.8c3.7,0.3,7.5,0.7,11.2,1.1c0.5,0.1,0.8,0.5,0.7,0.9
			C381.6,236.1,381.2,236.4,380.8,236.4z M279.3,235.2c-0.4,0-0.8-0.3-0.8-0.8c0-0.5,0.3-0.9,0.8-0.9c3.7-0.4,7.5-0.7,11.3-1
			c0.5,0,0.9,0.3,0.9,0.8c0,0.5-0.3,0.9-0.8,0.9C286.9,234.5,283.1,234.9,279.3,235.2C279.4,235.2,279.4,235.2,279.3,235.2z
			 M358.3,234.4C358.3,234.4,358.3,234.4,358.3,234.4c-3.8-0.3-7.6-0.5-11.3-0.7c-0.5,0-0.8-0.4-0.8-0.9c0-0.5,0.4-0.8,0.9-0.8
			c3.7,0.2,7.5,0.4,11.3,0.7c0.5,0,0.8,0.4,0.8,0.9C359.2,234,358.8,234.4,358.3,234.4z M301.9,233.6c-0.5,0-0.8-0.4-0.8-0.8
			c0-0.5,0.3-0.9,0.8-0.9c3.7-0.2,7.5-0.3,11.3-0.4c0.4,0,0.9,0.4,0.9,0.8c0,0.5-0.4,0.9-0.8,0.9
			C309.4,233.3,305.6,233.4,301.9,233.6C301.9,233.6,301.9,233.6,301.9,233.6z M335.8,233.3C335.8,233.3,335.8,233.3,335.8,233.3
			c-3.8-0.1-7.6-0.2-11.3-0.2c-0.5,0-0.8-0.4-0.8-0.9c0-0.5,0.4-0.8,0.8-0.8c0,0,0,0,0,0c3.7,0,7.5,0.1,11.3,0.2
			c0.5,0,0.8,0.4,0.8,0.9C336.6,232.9,336.2,233.3,335.8,233.3z"/>
		<path class="st3" d="M655.1,299c-0.3,0-0.5-0.1-0.7-0.4c0,0-2.4-3.4-6.9-9c-0.3-0.4-0.2-0.9,0.1-1.2c0.4-0.3,0.9-0.2,1.2,0.1
			c4.4,5.7,6.9,9.1,6.9,9.1c0.3,0.4,0.2,0.9-0.2,1.2C655.5,299,655.3,299,655.1,299z M641.1,281.1c-0.2,0-0.5-0.1-0.7-0.3
			c-2.4-2.9-4.8-5.8-7.3-8.6c-0.3-0.4-0.3-0.9,0.1-1.2c0.4-0.3,0.9-0.3,1.2,0.1c2.5,2.9,5,5.8,7.3,8.7c0.3,0.4,0.2,0.9-0.1,1.2
			C641.5,281.1,641.3,281.1,641.1,281.1z M626.3,264c-0.2,0-0.5-0.1-0.6-0.3c-2.5-2.8-5.1-5.6-7.7-8.3c-0.3-0.3-0.3-0.9,0-1.2
			c0.3-0.3,0.9-0.3,1.2,0c2.6,2.7,5.2,5.5,7.7,8.3c0.3,0.3,0.3,0.9-0.1,1.2C626.7,263.9,626.5,264,626.3,264z M610.8,247.5
			c-0.2,0-0.4-0.1-0.6-0.3c-2.6-2.7-5.3-5.4-8-8c-0.3-0.3-0.3-0.9,0-1.2c0.3-0.3,0.9-0.3,1.2,0c2.7,2.6,5.4,5.3,8,8
			c0.3,0.3,0.3,0.9,0,1.2C611.2,247.5,611,247.5,610.8,247.5z M594.5,231.8c-0.2,0-0.4-0.1-0.6-0.2c-2.8-2.6-5.6-5.1-8.4-7.6
			c-0.4-0.3-0.4-0.8-0.1-1.2c0.3-0.4,0.8-0.4,1.2-0.1c2.8,2.5,5.6,5,8.4,7.6c0.3,0.3,0.4,0.9,0,1.2
			C595,231.7,594.8,231.8,594.5,231.8z M577.6,216.8c-0.2,0-0.4-0.1-0.5-0.2c-2.9-2.4-5.8-4.8-8.7-7.1c-0.4-0.3-0.4-0.8-0.1-1.2
			c0.3-0.4,0.8-0.4,1.2-0.1c2.9,2.3,5.9,4.7,8.8,7.2c0.4,0.3,0.4,0.8,0.1,1.2C578,216.7,577.8,216.8,577.6,216.8z M559.8,202.7
			c-0.2,0-0.4-0.1-0.5-0.2c-3-2.3-6.1-4.5-9.1-6.6c-0.4-0.3-0.5-0.8-0.2-1.2c0.3-0.4,0.8-0.5,1.2-0.2c3,2.1,6.1,4.4,9.2,6.7
			c0.4,0.3,0.5,0.8,0.2,1.2C560.4,202.6,560.1,202.7,559.8,202.7z M352.7,190.3c-0.1,0-0.2,0-0.2,0c-0.5-0.1-0.7-0.6-0.6-1
			c1-3.7,2.5-7.2,4.3-10.6c0.2-0.4,0.7-0.6,1.1-0.3c0.4,0.2,0.6,0.7,0.3,1.1c-1.8,3.3-3.2,6.7-4.2,10.3
			C353.4,190.1,353,190.3,352.7,190.3z M541.3,189.7c-0.2,0-0.3,0-0.5-0.1c-3.2-2.1-6.4-4.1-9.5-6c-0.4-0.2-0.5-0.8-0.3-1.2
			c0.2-0.4,0.8-0.5,1.2-0.3c3.2,1.9,6.4,3.9,9.6,6c0.4,0.3,0.5,0.8,0.2,1.2C541.9,189.6,541.6,189.7,541.3,189.7z M522,178.1
			c-0.1,0-0.3,0-0.4-0.1c-3.3-1.8-6.7-3.6-10-5.3c-0.4-0.2-0.6-0.7-0.4-1.1c0.2-0.4,0.7-0.6,1.1-0.4c3.3,1.7,6.7,3.4,10,5.3
			c0.4,0.2,0.6,0.7,0.3,1.2C522.6,177.9,522.3,178.1,522,178.1z M363.3,170.6c-0.2,0-0.4-0.1-0.6-0.2c-0.4-0.3-0.4-0.8-0.1-1.2
			c2.5-2.9,5.3-5.5,8.4-7.8c0.4-0.3,0.9-0.2,1.2,0.2c0.3,0.4,0.2,0.9-0.2,1.2c-3,2.2-5.7,4.8-8.1,7.5
			C363.8,170.5,363.6,170.6,363.3,170.6z M501.8,167.9c-0.1,0-0.2,0-0.3-0.1c-3.5-1.5-7-3-10.4-4.4c-0.4-0.2-0.7-0.7-0.5-1.1
			c0.2-0.4,0.7-0.7,1.1-0.5c3.5,1.4,7,2.8,10.5,4.4c0.4,0.2,0.6,0.7,0.4,1.1C502.4,167.8,502.1,167.9,501.8,167.9z M480.7,159.7
			c-0.1,0-0.2,0-0.3,0c-3.6-1.2-7.2-2.3-10.8-3.2c-0.5-0.1-0.7-0.6-0.6-1c0.1-0.5,0.6-0.7,1-0.6c3.6,1,7.2,2.1,10.9,3.3
			c0.4,0.1,0.7,0.6,0.5,1.1C481.4,159.5,481.1,159.7,480.7,159.7z M381.3,157.1c-0.3,0-0.6-0.2-0.8-0.5c-0.2-0.4,0-0.9,0.4-1.1
			c3.3-1.6,6.9-3,10.7-4.1c0.4-0.1,0.9,0.1,1.1,0.6c0.1,0.4-0.1,0.9-0.6,1.1c-3.7,1.1-7.2,2.4-10.4,4
			C381.5,157.1,381.4,157.1,381.3,157.1z M458.9,153.8c-0.1,0-0.1,0-0.2,0c-3.8-0.8-7.5-1.5-11.1-2.1c-0.5-0.1-0.8-0.5-0.7-1
			c0.1-0.5,0.5-0.8,1-0.7c3.6,0.6,7.4,1.3,11.1,2.1c0.5,0.1,0.8,0.5,0.7,1C459.7,153.6,459.3,153.8,458.9,153.8z M402.8,150.7
			c-0.4,0-0.8-0.3-0.8-0.7c-0.1-0.5,0.2-0.9,0.7-1c3.6-0.6,7.4-0.9,11.3-1.1c0.5,0,0.9,0.3,0.9,0.8c0,0.5-0.3,0.9-0.8,0.9
			c-3.9,0.2-7.6,0.6-11.1,1.1C402.9,150.7,402.8,150.7,402.8,150.7z M436.6,150.3C436.6,150.3,436.5,150.3,436.6,150.3
			c-3.9-0.4-7.7-0.7-11.3-0.8c-0.5,0-0.8-0.4-0.8-0.9c0-0.5,0.4-0.8,0.9-0.8c3.6,0.1,7.5,0.4,11.3,0.8c0.5,0,0.8,0.5,0.8,0.9
			C437.4,150,437,150.3,436.6,150.3z"/>
		<path class="st3" d="M341,317.3c-0.4,0-0.8-0.3-0.8-0.8c0-0.1-0.1-1.4-0.1-3.8c0-2.5,0.1-5.1,0.4-7.7c0-0.5,0.5-0.8,0.9-0.8
			c0.5,0,0.8,0.5,0.8,0.9c-0.3,2.6-0.4,5.1-0.4,7.5c0,2.3,0.1,3.6,0.1,3.6C341.9,316.8,341.6,317.2,341,317.3
			C341.1,317.3,341,317.3,341,317.3z M648.5,304.7c-0.1,0-0.3-0.1-0.4-0.1c-0.2-0.1-2.3-1.3-5.9-3.3c-0.4-0.2-0.6-0.7-0.3-1.2
			c0.2-0.4,0.7-0.6,1.2-0.3c3.6,2,5.7,3.2,5.9,3.3c0.3,0.2,0.5,0.6,0.4,1C649.2,304.5,648.9,304.7,648.5,304.7z M632.7,296
			c-0.1,0-0.3,0-0.4-0.1c-3.3-1.7-6.7-3.5-10-5.2c-0.4-0.2-0.6-0.7-0.4-1.1c0.2-0.4,0.7-0.6,1.1-0.4c3.4,1.7,6.8,3.5,10,5.3
			c0.4,0.2,0.6,0.7,0.3,1.1C633.3,295.8,633,296,632.7,296z M343.3,294.8c-0.1,0-0.1,0-0.2,0c-0.5-0.1-0.7-0.6-0.6-1
			c0.9-3.7,2.2-7.4,3.6-10.8c0.2-0.4,0.7-0.6,1.1-0.5c0.4,0.2,0.6,0.7,0.5,1.1c-1.4,3.4-2.6,7-3.6,10.6
			C344,294.6,343.7,294.8,343.3,294.8z M612.5,285.6c-0.1,0-0.3,0-0.4-0.1c-3.4-1.7-6.8-3.3-10.2-5c-0.4-0.2-0.6-0.7-0.4-1.1
			c0.2-0.4,0.7-0.6,1.1-0.4c3.4,1.6,6.8,3.3,10.2,5c0.4,0.2,0.6,0.7,0.4,1.1C613.1,285.5,612.8,285.6,612.5,285.6z M592.1,275.9
			c-0.1,0-0.2,0-0.4-0.1c-3.4-1.6-6.9-3.2-10.3-4.7c-0.4-0.2-0.6-0.7-0.4-1.1c0.2-0.4,0.7-0.6,1.1-0.4c3.4,1.5,6.9,3.1,10.3,4.7
			c0.4,0.2,0.6,0.7,0.4,1.1C592.7,275.7,592.4,275.9,592.1,275.9z M352.1,274.1c-0.2,0-0.3,0-0.4-0.1c-0.4-0.2-0.5-0.8-0.3-1.2
			c2-3.2,4.3-6.3,6.8-9.2c0.3-0.4,0.8-0.4,1.2-0.1c0.4,0.3,0.4,0.8,0.1,1.2c-2.4,2.8-4.7,5.8-6.6,9
			C352.6,273.9,352.4,274.1,352.1,274.1z M571.4,266.7c-0.1,0-0.2,0-0.3-0.1c-3.5-1.5-7-2.9-10.4-4.3c-0.4-0.2-0.6-0.7-0.5-1.1
			c0.2-0.4,0.7-0.6,1.1-0.5c3.4,1.4,7,2.9,10.5,4.3c0.4,0.2,0.6,0.7,0.4,1.1C572,266.5,571.7,266.7,571.4,266.7z M550.4,258.2
			c-0.1,0-0.2,0-0.3-0.1c-3.5-1.4-7.1-2.7-10.6-3.9c-0.4-0.2-0.7-0.6-0.5-1.1c0.2-0.4,0.6-0.7,1.1-0.5c3.5,1.3,7.1,2.6,10.6,4
			c0.4,0.2,0.7,0.7,0.5,1.1C551.1,258,550.8,258.2,550.4,258.2z M366.8,257c-0.2,0-0.5-0.1-0.6-0.3c-0.3-0.4-0.3-0.9,0.1-1.2
			c2.8-2.4,5.9-4.7,9.2-6.7c0.4-0.2,0.9-0.1,1.2,0.3c0.2,0.4,0.1,0.9-0.3,1.2c-3.2,2-6.2,4.2-9,6.6C367.2,257,367,257,366.8,257z
			 M529.1,250.5c-0.1,0-0.2,0-0.3,0c-3.6-1.2-7.2-2.4-10.8-3.5c-0.4-0.1-0.7-0.6-0.6-1.1c0.1-0.4,0.6-0.7,1.1-0.6
			c3.5,1.1,7.2,2.3,10.8,3.5c0.4,0.1,0.7,0.6,0.5,1.1C529.8,250.3,529.5,250.5,529.1,250.5z M385.8,245c-0.3,0-0.6-0.2-0.8-0.5
			c-0.2-0.4,0-0.9,0.4-1.1c3.3-1.6,6.9-3,10.6-4.2c0.4-0.2,0.9,0.1,1.1,0.5c0.2,0.4-0.1,0.9-0.5,1.1c-3.6,1.2-7.1,2.6-10.4,4.2
			C386,245,385.9,245,385.8,245z M507.5,243.8c-0.1,0-0.2,0-0.2,0c-3.7-1-7.4-2-10.9-2.9c-0.5-0.1-0.7-0.6-0.6-1
			c0.1-0.5,0.6-0.7,1-0.6c3.6,0.9,7.3,1.9,11,2.9c0.5,0.1,0.7,0.6,0.6,1C508.2,243.6,507.9,243.8,507.5,243.8z M485.5,238.4
			c-0.1,0-0.1,0-0.2,0c-3.8-0.8-7.5-1.5-11.1-2.1c-0.5-0.1-0.8-0.5-0.7-1c0.1-0.5,0.5-0.8,1-0.7c3.6,0.6,7.4,1.3,11.2,2.1
			c0.5,0.1,0.8,0.5,0.7,1C486.3,238.1,485.9,238.4,485.5,238.4z M407.1,237.7c-0.4,0-0.7-0.3-0.8-0.6c-0.1-0.5,0.2-0.9,0.6-1
			c3.6-0.9,7.3-1.6,11.1-2.2c0.5-0.1,0.9,0.2,1,0.7c0.1,0.5-0.2,0.9-0.7,1c-3.8,0.6-7.5,1.4-11,2.2
			C407.2,237.7,407.2,237.7,407.1,237.7z M463.2,234.7c0,0-0.1,0-0.1,0c-3.8-0.5-7.6-0.8-11.2-1c-0.5,0-0.8-0.4-0.8-0.9
			s0.4-0.8,0.9-0.8c3.6,0.2,7.4,0.6,11.3,1c0.5,0.1,0.8,0.5,0.7,0.9C464,234.4,463.7,234.7,463.2,234.7z M429.4,234
			c-0.4,0-0.8-0.3-0.8-0.8c0-0.5,0.3-0.9,0.8-0.9c0.7-0.1,1.4-0.1,2.1-0.2c3-0.2,6.1-0.4,9.2-0.4c0.5,0,0.9,0.4,0.9,0.8
			c0,0.5-0.4,0.9-0.8,0.9c-3.1,0-6.2,0.2-9.1,0.4C430.8,233.9,430.1,233.9,429.4,234C429.4,234,429.4,234,429.4,234z"/>
		<path class="st3" d="M662.2,293.1c-0.4,0-0.7-0.3-0.8-0.6c0,0-0.9-3.4-2.6-8.9c-0.1-0.4,0.1-0.9,0.6-1.1c0.4-0.1,0.9,0.1,1.1,0.6
			c0.5,1.8,2.7,8.8,2.7,9.2c0,0.4-0.3,0.8-0.7,0.8C662.2,293.1,662.2,293.1,662.2,293.1z M656.1,273.4c-0.4,0-0.7-0.2-0.8-0.6
			c-1.2-3.6-2.4-7.2-3.6-10.7c-0.2-0.4,0.1-0.9,0.5-1.1c0.4-0.2,0.9,0.1,1.1,0.5c1.2,3.5,2.4,7.1,3.6,10.7c0.1,0.4-0.1,0.9-0.5,1.1
			C656.3,273.4,656.2,273.4,656.1,273.4z M648.7,252c-0.3,0-0.7-0.2-0.8-0.6c-1.3-3.6-2.7-7.2-4-10.6c-0.2-0.4,0-0.9,0.5-1.1
			c0.4-0.2,0.9,0,1.1,0.5c1.4,3.4,2.7,7,4,10.6c0.2,0.4-0.1,0.9-0.5,1.1C648.9,252,648.8,252,648.7,252z M640.4,231
			c-0.3,0-0.6-0.2-0.8-0.5c-1.5-3.6-3.1-7-4.6-10.3c-0.2-0.4,0-0.9,0.4-1.1c0.4-0.2,0.9,0,1.1,0.4c1.5,3.3,3.1,6.8,4.6,10.4
			c0.2,0.4,0,0.9-0.4,1.1C640.6,230.9,640.5,231,640.4,231z M630.7,210.5c-0.3,0-0.6-0.2-0.8-0.5c-1.9-3.5-3.7-6.8-5.6-9.8
			c-0.2-0.4-0.1-0.9,0.3-1.2c0.4-0.2,0.9-0.1,1.2,0.3c1.8,3,3.7,6.3,5.6,9.9c0.2,0.4,0.1,0.9-0.4,1.1
			C631,210.5,630.8,210.5,630.7,210.5z M618.7,191.3c-0.3,0-0.5-0.1-0.7-0.3c-2.4-3-4.9-5.8-7.6-8.2c-0.3-0.3-0.4-0.8-0.1-1.2
			c0.3-0.3,0.8-0.4,1.2-0.1c2.7,2.5,5.3,5.3,7.8,8.4c0.3,0.4,0.2,0.9-0.1,1.2C619.1,191.3,618.9,191.3,618.7,191.3z M602,176.4
			c-0.1,0-0.3,0-0.4-0.1c-3.2-1.9-6.6-3.4-10.1-4.5c-0.4-0.1-0.7-0.6-0.6-1.1c0.1-0.4,0.6-0.7,1.1-0.6c3.6,1.1,7.2,2.7,10.5,4.6
			c0.4,0.2,0.5,0.8,0.3,1.2C602.6,176.2,602.3,176.4,602,176.4z M569.3,170.4c-0.4,0-0.7-0.3-0.8-0.6c-0.1-0.5,0.2-0.9,0.6-1
			c0.1,0,3.2-0.8,8.2-0.8c1.1,0,2.2,0,3.3,0.1c0.5,0,0.8,0.4,0.8,0.9c0,0.5-0.4,0.8-0.9,0.8c-1.1-0.1-2.2-0.1-3.2-0.1
			c-4.7,0-7.7,0.7-7.8,0.7C569.5,170.4,569.4,170.4,569.3,170.4z"/>
		<path class="st3" d="M674.2,290.1c-0.5,0-0.8-0.4-0.8-0.8c0,0,0-2.8-0.3-7.5c0-0.5,0.3-0.9,0.8-0.9c0.5,0,0.9,0.3,0.9,0.8
			c0.2,4.8,0.3,7.6,0.3,7.6C675.1,289.7,674.7,290.1,674.2,290.1C674.2,290.1,674.2,290.1,674.2,290.1z M673.2,271.2
			c-0.4,0-0.8-0.3-0.8-0.8c-0.3-3.7-0.7-7.5-1.1-11.3c-0.1-0.5,0.3-0.9,0.7-0.9c0.5-0.1,0.9,0.3,0.9,0.7c0.4,3.8,0.8,7.6,1.1,11.3
			C674.1,270.8,673.8,271.2,673.2,271.2C673.3,271.2,673.2,271.2,673.2,271.2z M670.6,248.7c-0.4,0-0.8-0.3-0.8-0.7
			c-0.5-3.7-1.1-7.5-1.8-11.2c-0.1-0.5,0.2-0.9,0.7-1c0.5-0.1,0.9,0.2,1,0.7c0.6,3.7,1.2,7.5,1.8,11.2c0.1,0.5-0.3,0.9-0.7,1
			C670.7,248.7,670.7,248.7,670.6,248.7z M666.8,226.4c-0.4,0-0.7-0.3-0.8-0.7c-0.8-3.7-1.6-7.4-2.4-11c-0.1-0.5,0.2-0.9,0.6-1
			c0.5-0.1,0.9,0.2,1,0.6c0.9,3.6,1.7,7.4,2.4,11.1c0.1,0.5-0.2,0.9-0.7,1C666.9,226.4,666.8,226.4,666.8,226.4z M661.5,204.4
			c-0.4,0-0.7-0.2-0.8-0.6c-1-3.7-2.1-7.3-3.2-10.8c-0.1-0.4,0.1-0.9,0.6-1.1c0.4-0.1,0.9,0.1,1.1,0.6c1.1,3.5,2.2,7.2,3.2,10.9
			c0.1,0.5-0.1,0.9-0.6,1C661.7,204.4,661.6,204.4,661.5,204.4z M654.8,182.8c-0.3,0-0.7-0.2-0.8-0.6c-1.3-3.6-2.6-7.1-4-10.6
			c-0.2-0.4,0-0.9,0.5-1.1c0.4-0.2,0.9,0,1.1,0.5c1.4,3.4,2.7,7,4,10.6c0.2,0.4-0.1,0.9-0.5,1.1C655,182.7,654.9,182.8,654.8,182.8z
			 M646.3,161.8c-0.3,0-0.6-0.2-0.8-0.5c-1.6-3.5-3.2-6.9-4.9-10.1c-0.2-0.4-0.1-0.9,0.4-1.1c0.4-0.2,0.9-0.1,1.1,0.4
			c1.7,3.3,3.4,6.7,5,10.2c0.2,0.4,0,0.9-0.4,1.1C646.6,161.8,646.4,161.8,646.3,161.8z M635.9,141.7c-0.3,0-0.6-0.1-0.7-0.4
			c-1.9-3.3-3.9-6.5-6-9.5c-0.3-0.4-0.2-0.9,0.2-1.2c0.4-0.3,0.9-0.2,1.2,0.2c2.1,3.1,4.1,6.3,6.1,9.6c0.2,0.4,0.1,0.9-0.3,1.2
			C636.2,141.7,636.1,141.7,635.9,141.7z M623.3,122.9c-0.3,0-0.5-0.1-0.7-0.3c-2.3-3-4.7-5.9-7.2-8.7c-0.3-0.3-0.3-0.9,0.1-1.2
			c0.4-0.3,0.9-0.3,1.2,0.1c2.5,2.8,4.9,5.7,7.2,8.8c0.3,0.4,0.2,0.9-0.2,1.2C623.6,122.9,623.5,122.9,623.3,122.9z M608.2,106.1
			c-0.2,0-0.4-0.1-0.6-0.2c-2.7-2.6-5.5-5.1-8.4-7.5c-0.4-0.3-0.4-0.8-0.1-1.2c0.3-0.4,0.8-0.4,1.2-0.1c2.9,2.4,5.7,4.9,8.5,7.5
			c0.3,0.3,0.3,0.9,0,1.2C608.7,106,608.5,106.1,608.2,106.1z M437.2,103.6c-0.2,0-0.3-0.1-0.5-0.2c-0.4-0.3-0.5-0.8-0.2-1.2
			c0.1-0.1,2.6-3.7,7.6-8.6c0.3-0.3,0.9-0.3,1.2,0c0.3,0.3,0.3,0.9,0,1.2c-4.9,4.8-7.4,8.3-7.4,8.3
			C437.8,103.5,437.5,103.6,437.2,103.6z M590.8,91.8c-0.2,0-0.3,0-0.5-0.1c-3.1-2.1-6.3-4.1-9.5-5.9c-0.4-0.2-0.6-0.7-0.3-1.2
			c0.2-0.4,0.7-0.6,1.2-0.3c3.3,1.8,6.5,3.9,9.6,6c0.4,0.3,0.5,0.8,0.2,1.2C591.3,91.7,591,91.8,590.8,91.8z M453.3,87.8
			c-0.3,0-0.5-0.1-0.7-0.3c-0.3-0.4-0.2-0.9,0.2-1.2c3-2.3,6.2-4.5,9.4-6.4c0.4-0.2,0.9-0.1,1.2,0.3c0.2,0.4,0.1,0.9-0.3,1.2
			c-3.2,1.9-6.3,4-9.3,6.3C453.7,87.7,453.5,87.8,453.3,87.8z M571.1,80.7c-0.1,0-0.2,0-0.3-0.1l-0.3-0.1c-3.4-1.5-6.8-2.9-10.1-4.2
			c-0.4-0.2-0.7-0.7-0.5-1.1c0.2-0.4,0.7-0.7,1.1-0.5c3.4,1.3,6.8,2.7,10.2,4.2l0.3,0.1c0.4,0.2,0.6,0.7,0.4,1.1
			C571.8,80.6,571.4,80.7,571.1,80.7z M472.7,76.1c-0.3,0-0.6-0.2-0.8-0.5c-0.2-0.4,0-0.9,0.4-1.1c3.4-1.6,7-2.9,10.6-4.1
			c0.4-0.1,0.9,0.1,1.1,0.5c0.1,0.4-0.1,0.9-0.5,1.1c-3.5,1.1-7.1,2.5-10.4,4C472.9,76.1,472.8,76.1,472.7,76.1z M550,72.8
			c-0.1,0-0.2,0-0.2,0c-3.6-1.1-7.3-2-10.9-2.8c-0.5-0.1-0.8-0.5-0.7-1c0.1-0.5,0.5-0.7,1-0.7c3.6,0.8,7.3,1.7,11,2.8
			c0.4,0.1,0.7,0.6,0.6,1.1C550.7,72.6,550.3,72.8,550,72.8z M494.1,69.2c-0.4,0-0.8-0.3-0.8-0.7c-0.1-0.5,0.2-0.9,0.7-1
			c3.7-0.7,7.5-1.3,11.3-1.6c0.5,0,0.9,0.3,0.9,0.8c0,0.5-0.3,0.9-0.8,0.9c-3.7,0.3-7.5,0.8-11.1,1.5
			C494.3,69.2,494.2,69.2,494.1,69.2z M527.9,68.2c0,0-0.1,0-0.1,0c-3.8-0.5-7.5-0.7-11.2-0.8c-0.5,0-0.8-0.4-0.8-0.9
			c0-0.5,0.4-0.8,0.9-0.8c3.7,0.1,7.5,0.4,11.4,0.8c0.5,0.1,0.8,0.5,0.7,0.9C528.7,67.9,528.3,68.2,527.9,68.2z"/>
		<path class="st3" d="M684.7,293c-0.4-0.3-0.4-0.3-0.4-4c0-0.5,0.4-0.8,0.8-0.8c0.5,0,0.8,0.4,0.8,0.8c0,2,0,3.2,0,3.3l-0.8,0
			L684.7,293z M685.2,278.5C685.2,278.5,685.2,278.5,685.2,278.5c-0.5,0-0.9-0.4-0.8-0.9c0-3.3,0.1-7.1,0.2-11.3
			c0-0.5,0.4-0.8,0.8-0.8c0,0,0,0,0,0c0.5,0,0.8,0.4,0.8,0.9c-0.1,4.2-0.1,8-0.2,11.3C686.1,278.1,685.7,278.5,685.2,278.5z
			 M685.6,255.8C685.6,255.8,685.6,255.8,685.6,255.8c-0.5,0-0.9-0.4-0.8-0.9c0.1-3.6,0.2-7.4,0.3-11.3c0-0.5,0.4-0.8,0.9-0.8
			c0.5,0,0.8,0.4,0.8,0.9c-0.1,3.9-0.2,7.7-0.3,11.3C686.4,255.4,686.1,255.8,685.6,255.8z M686.3,233.2
			C686.3,233.2,686.3,233.2,686.3,233.2c-0.5,0-0.9-0.4-0.8-0.9c0.1-3.7,0.3-7.5,0.5-11.3c0-0.5,0.5-0.8,0.9-0.8
			c0.5,0,0.8,0.4,0.8,0.9c-0.2,3.9-0.3,7.6-0.5,11.3C687.2,232.8,686.8,233.2,686.3,233.2z M687.4,210.5
			C687.4,210.5,687.4,210.5,687.4,210.5c-0.5,0-0.9-0.4-0.8-0.9c0.2-3.7,0.4-7.5,0.7-11.3c0-0.5,0.4-0.8,0.9-0.8
			c0.5,0,0.8,0.4,0.8,0.9c-0.2,3.8-0.5,7.6-0.7,11.3C688.2,210.2,687.9,210.5,687.4,210.5z M688.9,187.9
			C688.9,187.9,688.9,187.9,688.9,187.9c-0.5,0-0.9-0.4-0.8-0.9c0.3-3.8,0.6-7.5,0.9-11.3c0-0.5,0.5-0.8,0.9-0.8
			c0.5,0,0.8,0.5,0.8,0.9c-0.3,3.8-0.6,7.5-0.9,11.3C689.7,187.6,689.3,187.9,688.9,187.9z M690.9,165.4
			C690.8,165.4,690.8,165.4,690.9,165.4c-0.6-0.1-0.9-0.5-0.8-0.9c0.4-3.8,0.8-7.6,1.2-11.3c0.1-0.5,0.5-0.8,0.9-0.7
			c0.5,0.1,0.8,0.5,0.7,0.9c-0.4,3.6-0.8,7.4-1.2,11.2C691.7,165.1,691.3,165.4,690.9,165.4z M693.5,142.9c0,0-0.1,0-0.1,0
			c-0.5-0.1-0.8-0.5-0.7-1c0.5-3.8,1.1-7.6,1.6-11.2c0.1-0.5,0.5-0.8,1-0.7c0.5,0.1,0.8,0.5,0.7,1c-0.6,3.6-1.1,7.4-1.6,11.2
			C694.3,142.6,693.9,142.9,693.5,142.9z M697,120.5c-0.1,0-0.1,0-0.2,0c-0.5-0.1-0.8-0.5-0.7-1c0.7-3.9,1.5-7.6,2.2-11.1
			c0.1-0.5,0.6-0.7,1-0.6c0.5,0.1,0.7,0.6,0.6,1c-0.8,3.5-1.5,7.2-2.2,11.1C697.7,120.2,697.4,120.5,697,120.5z M701.8,98.4
			c-0.1,0-0.1,0-0.2,0c-0.5-0.1-0.7-0.6-0.6-1c1-3.9,2.1-7.6,3.3-10.9c0.2-0.4,0.6-0.7,1.1-0.5c0.4,0.2,0.7,0.6,0.5,1.1
			c-1.1,3.3-2.2,6.9-3.2,10.8C702.6,98.2,702.2,98.4,701.8,98.4z M715,88c-0.1,0-0.1,0-0.2,0c-0.5-0.1-0.8-0.5-0.7-1
			c0-0.1,1.1-5.8,1.7-11.1c0.1-0.5,0.5-0.8,0.9-0.7c0.5,0.1,0.8,0.5,0.7,0.9c-0.6,5.4-1.7,11.2-1.8,11.3C715.8,87.7,715.4,88,715,88
			z M709.2,77c-0.1,0-0.2,0-0.4-0.1c-0.4-0.2-0.6-0.7-0.4-1.1c1.2-2.6,2.5-5,3.8-7c0.9-1.4,1.6-2.3,2.3-2.9c0.4-0.3,0.9-0.2,1.2,0.1
			c0.3,0.4,0.2,0.9-0.1,1.2c-0.5,0.4-1.2,1.3-1.9,2.5c-1.3,2-2.5,4.3-3.7,6.8C709.9,76.9,709.5,77,709.2,77z"/>
		<path class="st3" d="M694.1,299c0,0-0.1,0-0.1,0c-0.5-0.1-0.8-0.5-0.7-0.9c0,0,0.5-4.3,1.8-11.3c0.1-0.5,0.5-0.8,1-0.7
			c0.5,0.1,0.8,0.5,0.7,1c-1.2,7-1.8,11.1-1.8,11.2C694.9,298.7,694.6,299,694.1,299z M698.1,276.7c-0.1,0-0.1,0-0.2,0
			c-0.5-0.1-0.8-0.5-0.7-1c0.8-3.7,1.6-7.4,2.4-11.1c0.1-0.5,0.6-0.7,1-0.6c0.5,0.1,0.7,0.6,0.6,1c-0.9,3.7-1.7,7.4-2.4,11
			C698.8,276.4,698.5,276.7,698.1,276.7z M703.2,254.6c-0.1,0-0.1,0-0.2,0c-0.5-0.1-0.7-0.6-0.6-1c1-3.7,2-7.3,3-10.9
			c0.1-0.5,0.6-0.7,1.1-0.6c0.5,0.1,0.7,0.6,0.6,1.1c-1,3.6-2,7.2-3,10.9C703.9,254.4,703.6,254.6,703.2,254.6z M709.5,232.9
			c-0.1,0-0.2,0-0.3,0c-0.4-0.1-0.7-0.6-0.5-1.1c1.2-3.6,2.4-7.2,3.6-10.7c0.2-0.4,0.6-0.7,1.1-0.5c0.4,0.2,0.7,0.6,0.5,1.1
			c-1.2,3.5-2.5,7.1-3.6,10.7C710.2,232.7,709.9,232.9,709.5,232.9z M717.1,211.6c-0.1,0-0.2,0-0.3-0.1c-0.4-0.2-0.6-0.7-0.5-1.1
			c1.4-3.6,2.9-7.1,4.4-10.5c0.2-0.4,0.7-0.6,1.1-0.4c0.4,0.2,0.6,0.7,0.4,1.1c-1.5,3.4-2.9,6.9-4.3,10.4
			C717.8,211.4,717.5,211.6,717.1,211.6z M726.2,190.9c-0.1,0-0.3,0-0.4-0.1c-0.4-0.2-0.6-0.7-0.4-1.1c1.7-3.5,3.5-6.9,5.2-10.1
			c0.2-0.4,0.7-0.6,1.2-0.3c0.4,0.2,0.6,0.7,0.3,1.2c-1.8,3.2-3.5,6.6-5.2,10C726.9,190.7,726.6,190.9,726.2,190.9z M737.2,171.1
			c-0.2,0-0.3,0-0.4-0.1c-0.4-0.2-0.5-0.8-0.3-1.2c2-3.3,4.2-6.5,6.3-9.5c0.3-0.4,0.8-0.5,1.2-0.2c0.4,0.3,0.5,0.8,0.2,1.2
			c-2.1,3-4.2,6.1-6.2,9.4C737.7,170.9,737.5,171.1,737.2,171.1z M802.1,165.7c0,0-0.1,0-0.1,0c-0.5-0.1-0.8-0.5-0.7-0.9
			c0.2-1.8,0.4-3.6,0.5-5.3c0-0.5,0.4-0.8,0.9-0.8c0.5,0,0.8,0.4,0.8,0.9c-0.1,1.7-0.3,3.5-0.5,5.3
			C802.9,165.4,802.5,165.7,802.1,165.7z M750.3,152.7c-0.2,0-0.4-0.1-0.5-0.2c-0.4-0.3-0.4-0.8-0.1-1.2c1-1.2,2.1-2.5,3.1-3.6
			c1.5-1.7,3-3.3,4.5-4.9c0.3-0.3,0.9-0.4,1.2,0c0.3,0.3,0.4,0.9,0,1.2c-1.4,1.5-2.9,3.1-4.4,4.8c-1,1.2-2.1,2.4-3.1,3.6
			C750.8,152.6,750.6,152.7,750.3,152.7z M802.8,149.1c-0.4,0-0.8-0.4-0.8-0.8c-0.2-4.1-0.7-7.8-1.6-11c-0.1-0.5,0.1-0.9,0.6-1
			c0.5-0.1,0.9,0.1,1,0.6c0.9,3.3,1.5,7.1,1.7,11.3C803.7,148.7,803.3,149,802.8,149.1C802.9,149.1,802.8,149.1,802.8,149.1z
			 M766,136.4c-0.2,0-0.5-0.1-0.6-0.3c-0.3-0.4-0.3-0.9,0.1-1.2c3.2-2.8,6.3-5.1,9.1-6.9c0.4-0.2,0.9-0.1,1.2,0.3
			c0.2,0.4,0.1,0.9-0.3,1.2c-2.8,1.7-5.8,4-8.9,6.7C766.4,136.4,766.2,136.4,766,136.4z M795.9,128.1c-0.2,0-0.4-0.1-0.6-0.2
			c-2.6-2.4-5.9-3.3-9.8-2.6c-0.5,0.1-0.9-0.2-1-0.7c-0.1-0.5,0.2-0.9,0.7-1c4.4-0.8,8.2,0.3,11.2,3c0.3,0.3,0.4,0.9,0,1.2
			C796.3,128,796.1,128.1,795.9,128.1z"/>
		<path class="st3" d="M700.7,305.3c-0.1,0-0.2,0-0.3,0c-0.4-0.2-0.7-0.6-0.5-1.1c0,0,1.4-4.1,4-10.7c0.2-0.4,0.7-0.7,1.1-0.5
			c0.4,0.2,0.7,0.7,0.5,1.1c-2.6,6.6-4,10.6-4,10.7C701.4,305.1,701.1,305.3,700.7,305.3z M708.9,284.1c-0.1,0-0.2,0-0.3-0.1
			c-0.4-0.2-0.6-0.7-0.5-1.1c1.4-3.5,2.9-7,4.4-10.5c0.2-0.4,0.7-0.6,1.1-0.4c0.4,0.2,0.6,0.7,0.4,1.1c-1.5,3.5-3,7-4.4,10.4
			C709.5,283.9,709.2,284.1,708.9,284.1z M717.9,263.3c-0.1,0-0.2,0-0.3-0.1c-0.4-0.2-0.6-0.7-0.4-1.1c1.5-3.4,3.2-6.9,4.8-10.3
			c0.2-0.4,0.7-0.6,1.1-0.4c0.4,0.2,0.6,0.7,0.4,1.1c-1.6,3.4-3.2,6.9-4.8,10.3C718.5,263.1,718.2,263.3,717.9,263.3z M727.6,242.8
			c-0.1,0-0.3,0-0.4-0.1c-0.4-0.2-0.6-0.7-0.4-1.1c1.7-3.4,3.4-6.8,5.2-10.1c0.2-0.4,0.7-0.6,1.1-0.4c0.4,0.2,0.6,0.7,0.4,1.1
			c-1.7,3.3-3.5,6.7-5.2,10.1C728.2,242.6,727.9,242.8,727.6,242.8z M738.1,222.8c-0.1,0-0.3,0-0.4-0.1c-0.4-0.2-0.6-0.7-0.3-1.2
			c1.9-3.4,3.8-6.7,5.6-9.9c0.2-0.4,0.8-0.5,1.2-0.3c0.4,0.2,0.5,0.8,0.3,1.2c-1.9,3.2-3.7,6.5-5.6,9.8
			C738.7,222.6,738.4,222.8,738.1,222.8z M749.6,203.3c-0.2,0-0.3,0-0.4-0.1c-0.4-0.2-0.5-0.8-0.3-1.2c2.1-3.3,4.1-6.5,6.2-9.5
			c0.3-0.4,0.8-0.5,1.2-0.2c0.4,0.3,0.5,0.8,0.2,1.2c-2.1,3-4.1,6.2-6.2,9.5C750.2,203.1,749.9,203.3,749.6,203.3z M762.3,184.5
			c-0.2,0-0.3-0.1-0.5-0.2c-0.4-0.3-0.5-0.8-0.2-1.2c2.3-3.1,4.6-6.2,6.9-9c0.3-0.4,0.8-0.4,1.2-0.1c0.4,0.3,0.4,0.8,0.1,1.2
			c-2.3,2.8-4.6,5.9-6.8,9C762.8,184.4,762.6,184.5,762.3,184.5z M863,183.3c-0.1,0-0.2,0-0.3-0.1c-0.4-0.2-0.6-0.7-0.5-1.1
			c0,0,1.8-4.4,3.3-10.5c0.1-0.5,0.6-0.7,1-0.6c0.5,0.1,0.7,0.6,0.6,1c-1.5,6.2-3.3,10.6-3.3,10.8
			C863.6,183.1,863.3,183.3,863,183.3z M776.5,166.8c-0.2,0-0.4-0.1-0.6-0.2c-0.3-0.3-0.4-0.8-0.1-1.2c2.6-2.9,5.2-5.7,7.8-8.3
			c0.3-0.3,0.9-0.3,1.2,0c0.3,0.3,0.3,0.9,0,1.2c-2.6,2.5-5.2,5.3-7.7,8.2C776.9,166.7,776.7,166.8,776.5,166.8z M868.1,161.5
			C868.1,161.5,868.1,161.5,868.1,161.5c-0.5,0-0.9-0.5-0.8-0.9c0.1-1.5,0.2-3,0.2-4.4c0-2.4-0.2-4.6-0.5-6.7
			c-0.1-0.5,0.2-0.9,0.7-1c0.5-0.1,0.9,0.2,1,0.7c0.4,2.2,0.6,4.5,0.6,6.9c0,1.5-0.1,3-0.2,4.5C868.9,161.2,868.6,161.5,868.1,161.5
			z M792.5,150.9c-0.2,0-0.5-0.1-0.6-0.3c-0.3-0.4-0.3-0.9,0.1-1.2c3-2.5,6-4.9,9-6.9c0.4-0.3,0.9-0.2,1.2,0.2
			c0.3,0.4,0.2,0.9-0.2,1.2c-2.9,2-5.9,4.3-8.9,6.8C792.9,150.9,792.7,150.9,792.5,150.9z M863.6,139.9c-0.3,0-0.5-0.1-0.7-0.3
			c-2.1-2.9-5-5-8.5-6.4c-0.4-0.2-0.6-0.7-0.5-1.1c0.2-0.4,0.7-0.6,1.1-0.5c3.8,1.5,7,3.9,9.3,7c0.3,0.4,0.2,0.9-0.2,1.2
			C863.9,139.8,863.8,139.9,863.6,139.9z M811.1,138.2c-0.3,0-0.6-0.2-0.8-0.5c-0.2-0.4-0.1-0.9,0.4-1.1c3.5-1.8,7-3.3,10.5-4.5
			c0.4-0.1,0.9,0.1,1.1,0.5c0.1,0.4-0.1,0.9-0.5,1.1c-3.4,1.1-6.8,2.6-10.2,4.4C811.4,138.2,811.3,138.2,811.1,138.2z M832.4,131.2
			c-0.4,0-0.8-0.3-0.8-0.7c-0.1-0.5,0.3-0.9,0.7-1c2.4-0.3,4.8-0.5,7.2-0.5c0,0,0,0,0,0c1.4,0,2.8,0.1,4.2,0.2
			c0.5,0,0.8,0.4,0.8,0.9c0,0.5-0.5,0.8-0.9,0.8c-1.3-0.1-2.7-0.2-4.1-0.2c0,0,0,0,0,0c-2.3,0-4.7,0.2-7,0.5
			C832.5,131.2,832.5,131.2,832.4,131.2z"/>
		<path class="st3" d="M1011.7,393c-0.1,0-0.2,0-0.4-0.1c-0.4-0.2-0.6-0.7-0.4-1.1c0.8-1.7,2.5-5.3,4.6-10.3
			c0.2-0.4,0.7-0.6,1.1-0.5c0.4,0.2,0.6,0.7,0.5,1.1c-2.1,5-3.8,8.7-4.6,10.4C1012.3,392.8,1012,393,1011.7,393z M1020.5,372.1
			c-0.1,0-0.2,0-0.3-0.1c-0.4-0.2-0.7-0.6-0.5-1.1c1.3-3.5,2.5-7.1,3.7-10.7c0.1-0.4,0.6-0.7,1.1-0.6c0.4,0.1,0.7,0.6,0.6,1.1
			c-1.1,3.6-2.4,7.2-3.7,10.7C1021.1,371.9,1020.8,372.1,1020.5,372.1z M1027.3,350.5c-0.1,0-0.1,0-0.2,0c-0.5-0.1-0.7-0.6-0.6-1
			c1-3.7,1.9-7.4,2.6-11c0.1-0.5,0.5-0.7,1-0.7c0.5,0.1,0.8,0.5,0.7,1c-0.8,3.6-1.7,7.3-2.6,11
			C1028,350.3,1027.7,350.5,1027.3,350.5z M1032,328.4c0,0-0.1,0-0.1,0c-0.5-0.1-0.8-0.5-0.7-1c0.6-3.8,1-7.6,1.3-11.2
			c0-0.5,0.5-0.8,0.9-0.8c0.5,0,0.8,0.4,0.8,0.9c-0.3,3.7-0.7,7.5-1.3,11.3C1032.7,328.1,1032.4,328.4,1032,328.4z M706.2,312.3
			c-0.3,0-0.6-0.1-0.7-0.4c-0.3-0.4-0.1-0.9,0.3-1.2c0,0,3.5-2.3,9.7-6c0.4-0.2,0.9-0.1,1.2,0.3c0.2,0.4,0.1,0.9-0.3,1.2
			c-6.1,3.7-9.6,5.9-9.7,6C706.5,312.3,706.4,312.3,706.2,312.3z M1033.7,305.8c-0.5,0-0.8-0.4-0.8-0.8c0-3.9-0.2-7.6-0.5-11.2
			c0-0.5,0.3-0.9,0.8-0.9c0.5,0,0.9,0.3,0.9,0.8c0.3,3.6,0.5,7.5,0.5,11.3C1034.6,305.5,1034.2,305.8,1033.7,305.8z M725.7,300.6
			c-0.3,0-0.6-0.2-0.7-0.4c-0.2-0.4-0.1-0.9,0.3-1.2c3.2-1.9,6.5-3.8,9.8-5.6c0.4-0.2,0.9-0.1,1.2,0.3c0.2,0.4,0.1,0.9-0.3,1.2
			c-3.3,1.9-6.6,3.8-9.8,5.6C726,300.6,725.8,300.6,725.7,300.6z M745.4,289.5c-0.3,0-0.6-0.2-0.7-0.4c-0.2-0.4-0.1-0.9,0.3-1.2
			c3.2-1.7,6.5-3.5,10-5.4c0.4-0.2,0.9-0.1,1.1,0.4c0.2,0.4,0.1,0.9-0.4,1.1c-3.5,1.8-6.8,3.6-10,5.4
			C745.7,289.4,745.6,289.5,745.4,289.5z M1031.5,283.4c-0.4,0-0.7-0.3-0.8-0.7c-0.8-3.7-1.8-7.3-3-10.8c-0.2-0.4,0.1-0.9,0.5-1.1
			c0.4-0.2,0.9,0.1,1.1,0.5c1.2,3.5,2.3,7.2,3.1,11c0.1,0.5-0.2,0.9-0.7,1C1031.6,283.4,1031.6,283.4,1031.5,283.4z M765.4,278.9
			c-0.3,0-0.6-0.2-0.8-0.5c-0.2-0.4,0-0.9,0.4-1.1c3.4-1.7,6.8-3.4,10.1-5.1c0.4-0.2,0.9,0,1.1,0.4c0.2,0.4,0,0.9-0.4,1.1
			c-3.3,1.7-6.7,3.4-10.1,5.1C765.7,278.8,765.6,278.9,765.4,278.9z M785.7,268.8c-0.3,0-0.6-0.2-0.8-0.5c-0.2-0.4,0-0.9,0.4-1.1
			c3.4-1.6,6.9-3.3,10.3-4.8c0.4-0.2,0.9,0,1.1,0.4c0.2,0.4,0,0.9-0.4,1.1c-3.4,1.6-6.8,3.2-10.2,4.8
			C786,268.8,785.8,268.8,785.7,268.8z M1023.9,262.2c-0.3,0-0.6-0.2-0.7-0.4c-1.8-3.3-3.8-6.4-6.1-9.4c-0.3-0.4-0.2-0.9,0.2-1.2
			c0.4-0.3,0.9-0.2,1.2,0.2c2.3,3,4.4,6.2,6.2,9.6c0.2,0.4,0.1,0.9-0.3,1.1C1024.2,262.2,1024,262.2,1023.9,262.2z M806.3,259.3
			c-0.3,0-0.6-0.2-0.8-0.5c-0.2-0.4,0-0.9,0.4-1.1c3.5-1.5,7-3.1,10.4-4.5c0.4-0.2,0.9,0,1.1,0.4c0.2,0.4,0,0.9-0.5,1.1
			c-3.4,1.4-6.9,3-10.4,4.5C806.5,259.3,806.4,259.3,806.3,259.3z M827.1,250.5c-0.3,0-0.7-0.2-0.8-0.5c-0.2-0.4,0-0.9,0.5-1.1
			c3.5-1.4,7.1-2.8,10.5-4.1c0.4-0.2,0.9,0.1,1.1,0.5c0.2,0.4-0.1,0.9-0.5,1.1c-3.4,1.3-7,2.7-10.5,4.1
			C827.3,250.5,827.2,250.5,827.1,250.5z M1010.1,244.4c-0.2,0-0.4-0.1-0.6-0.2c-2.1-1.9-4.3-3.8-6.7-5.5c-0.7-0.5-1.4-1-2.1-1.5
			c-0.4-0.3-0.5-0.8-0.2-1.2c0.3-0.4,0.8-0.5,1.2-0.2c0.7,0.5,1.4,1,2.1,1.5c2.4,1.8,4.7,3.6,6.8,5.6c0.3,0.3,0.4,0.9,0,1.2
			C1010.6,244.3,1010.3,244.4,1010.1,244.4z M848.2,242.5c-0.3,0-0.7-0.2-0.8-0.6c-0.2-0.4,0.1-0.9,0.5-1.1
			c3.6-1.3,7.2-2.5,10.7-3.7c0.4-0.1,0.9,0.1,1.1,0.5c0.1,0.4-0.1,0.9-0.5,1.1c-3.5,1.2-7.1,2.4-10.7,3.7
			C848.4,242.5,848.3,242.5,848.2,242.5z M869.8,235.4c-0.4,0-0.7-0.2-0.8-0.6c-0.1-0.4,0.1-0.9,0.6-1.1c3.7-1.1,7.3-2.2,10.9-3.1
			c0.4-0.1,0.9,0.1,1,0.6c0.1,0.5-0.1,0.9-0.6,1c-3.6,1-7.2,2-10.9,3.1C869.9,235.4,869.8,235.4,869.8,235.4z M991.5,231.8
			c-0.1,0-0.2,0-0.4-0.1c-3.3-1.6-6.8-2.9-10.4-4.1c-0.4-0.1-0.7-0.6-0.5-1.1c0.1-0.4,0.6-0.7,1.1-0.5c3.7,1.2,7.3,2.6,10.6,4.2
			c0.4,0.2,0.6,0.7,0.4,1.1C992.1,231.6,991.8,231.8,991.5,231.8z M891.6,229.5c-0.4,0-0.7-0.3-0.8-0.7c-0.1-0.5,0.2-0.9,0.6-1
			c3.7-0.9,7.5-1.7,11.1-2.4c0.5-0.1,0.9,0.2,1,0.7c0.1,0.5-0.2,0.9-0.7,1c-3.6,0.7-7.3,1.5-11,2.4
			C891.7,229.5,891.7,229.5,891.6,229.5z M913.8,225.1c-0.4,0-0.8-0.3-0.8-0.7c-0.1-0.5,0.2-0.9,0.7-1c3.8-0.6,7.6-1.1,11.3-1.5
			c0.5,0,0.9,0.3,0.9,0.8c0,0.5-0.3,0.9-0.8,0.9c-3.6,0.4-7.4,0.9-11.2,1.5C913.9,225.1,913.8,225.1,913.8,225.1z M970,224.9
			c-0.1,0-0.1,0-0.2,0c-3.5-0.7-7.3-1.3-11.1-1.6c-0.5,0-0.8-0.5-0.8-0.9c0-0.5,0.5-0.8,0.9-0.8c3.9,0.4,7.7,0.9,11.3,1.7
			c0.5,0.1,0.8,0.5,0.7,1C970.8,224.6,970.4,224.9,970,224.9z M936.3,222.7c-0.4,0-0.8-0.4-0.8-0.8c0-0.5,0.3-0.9,0.8-0.9
			c3.9-0.2,7.7-0.2,11.4-0.2c0.5,0,0.8,0.4,0.8,0.9c0,0.5-0.4,0.8-0.9,0.8C943.9,222.5,940.1,222.5,936.3,222.7
			C936.3,222.7,936.3,222.7,936.3,222.7z"/>
		<g>
			<g>
				<path class="st14" d="M615.8,353.3c0,3-2.4,5.4-5.4,5.4h-5c-3,0-5.4-2.4-5.4-5.4l0,0c0-3,2.4-5.4,5.4-5.4h5
					C613.3,347.9,615.8,350.3,615.8,353.3L615.8,353.3z"/>
				<path class="st14" d="M612.9,348c0,2.4-1.9,4.3-4.3,4.3h-0.8c-2.4,0-4.3-1.9-4.3-4.3l0,0c0-2.4,1.9-4.3,4.3-4.3h0.8
					C611,343.7,612.9,345.7,612.9,348L612.9,348z"/>
				<path class="st14" d="M619.1,363.5c0,5.8-4.7,10.4-10.4,10.4h-2.1c-5.8,0-10.4-4.7-10.4-10.4l0,0c0-5.8,4.7-10.4,10.4-10.4h2.1
					C614.4,353.1,619.1,357.8,619.1,363.5L619.1,363.5z"/>
			</g>
			<g>
				<g>
					<path class="st7" d="M701.7,344.1c0,1.7-1.4,3-3,3l0,0c-1.7,0-3-1.4-3-3v-0.4c0-1.7,1.4-3,3-3l0,0c1.7,0,3,1.4,3,3V344.1z"/>
					<path class="st7" d="M706.7,350c0,3.3-2.7,6-6,6h-1.4c-3.3,0-6-2.7-6-6l0,0c0-3.3,2.7-6,6-6h1.4
						C704,344.1,706.7,346.7,706.7,350L706.7,350z"/>
					<path class="st7" d="M711.1,362.7c0,5.7-4.6,10.2-10.2,10.2l0,0c-5.7,0-10.2-4.6-10.2-10.2v-3.8c0-5.7,4.6-10.2,10.2-10.2l0,0
						c5.7,0,10.2,4.6,10.2,10.2V362.7z"/>
					<path class="st7" d="M730.5,366.1c0,3.2-2.6,5.8-5.7,5.8l0,0c-3.2,0-5.8-2.6-5.8-5.8v-4.4c0-3.2,2.6-5.7,5.8-5.7l0,0
						c3.2,0,5.7,2.6,5.7,5.7V366.1z"/>
					<path class="st7" d="M739.6,367.2c0,4.2-3.4,7.6-7.6,7.6h-3.5c-4.2,0-7.6-3.4-7.6-7.6l0,0c0-4.2,3.4-7.6,7.6-7.6h3.5
						C736.2,359.6,739.6,363,739.6,367.2L739.6,367.2z"/>
				</g>
				<path class="st7" d="M661.5,351.2c0,5.2-4.2,9.4-9.4,9.4h-1c-5.2,0-9.4-4.2-9.4-9.4l0,0c0-5.2,4.2-9.4,9.4-9.4h1
					C657.3,341.8,661.5,346,661.5,351.2L661.5,351.2z"/>
				<path class="st7" d="M652.1,354.7c0,4.2-3.4,7.6-7.6,7.6h-2.2c-4.2,0-7.6-3.4-7.6-7.6l0,0c0-4.2,3.4-7.6,7.6-7.6h2.2
					C648.7,347.1,652.1,350.5,652.1,354.7L652.1,354.7z"/>
			</g>
			<g>
				<g>
					<path class="st7" d="M609.5,365.3c0,3.6-2.9,6.6-6.6,6.6h-7.7c-3.6,0-6.6-2.9-6.6-6.6l0,0c0-3.6,2.9-6.6,6.6-6.6h7.7
						C606.5,358.7,609.5,361.7,609.5,365.3L609.5,365.3z"/>
					<path class="st7" d="M606.1,359.5c0,3.2-2.6,5.8-5.8,5.8h-3.5c-3.2,0-5.8-2.6-5.8-5.8l0,0c0-3.2,2.6-5.8,5.8-5.8h3.5
						C603.5,353.8,606.1,356.4,606.1,359.5L606.1,359.5z"/>
					<path class="st7" d="M603.5,353.2c0,1.7-1.4,3.2-3.2,3.2h-3c-1.7,0-3.2-1.4-3.2-3.2l0,0c0-1.7,1.4-3.2,3.2-3.2h3
						C602.1,350,603.5,351.4,603.5,353.2L603.5,353.2z"/>
				</g>
			</g>
			<g>
				<g>
					<rect x="706.9" y="353.1" class="st27" width="21" height="16"/>
					<g>
						<rect x="721.3" y="354.9" class="st28" width="3.8" height="9.7"/>
						<rect x="715.5" y="354.9" class="st28" width="3.8" height="9.7"/>
						<rect x="709.7" y="354.9" class="st28" width="3.8" height="9.7"/>
					</g>
					<path class="st29" d="M699,347.7c6.4,0,12.1-4,15.6-10.1h2h2c3.5,6.1,9.2,10.1,15.6,10.1c0.2,0,0.4,0,0.7,0
						c-0.9,1.6-2.4,2.7-4.1,2.7h-14.2h-14.2c-1.7,0-3.2-1.1-4.1-2.7C698.6,347.7,698.8,347.7,699,347.7z"/>
					<path class="st6" d="M712.8,335.7c0,1.7,1.4,3.1,3.1,3.1h1.6c1.7,0,3.1-1.4,3.1-3.1l0,0c0-1.7-1.4-3.1-3.1-3.1h-1.6
						C714.2,332.6,712.8,334,712.8,335.7L712.8,335.7z"/>
					<rect x="705" y="350.4" class="st6" width="24.7" height="2.7"/>
					<path class="st19" d="M714.3,331.7c0,1.3,1,2.3,2.3,2.3l0,0c1.3,0,2.3-1,2.3-2.3v-1.5c0-1.3-1-2.3-2.3-2.3l0,0
						c-1.3,0-2.3,1-2.3,2.3V331.7z"/>
					<path class="st6" d="M715.9,328.6c0,0.4,0.3,0.7,0.7,0.7l0,0c0.4,0,0.7-0.3,0.7-0.7v-1.4c0-0.4-0.3-0.7-0.7-0.7l0,0
						c-0.4,0-0.7,0.3-0.7,0.7V328.6z"/>
				</g>
				<g>
					<path class="st29" d="M598.9,356.7c11,0,20.8-5.9,26.8-14.9l0,0c6.1,9,15.8,14.9,26.8,14.9c0.4,0,0.8,0,1.1,0
						c-1.6,2.4-4.1,4-7,4h-20.9h-20.9c-2.9,0-5.5-1.6-7-4C598.1,356.7,598.5,356.7,598.9,356.7z"/>
					<rect x="606.6" y="360.7" class="st27" width="38.3" height="14.3"/>
					<rect x="602.7" y="375" class="st30" width="45.9" height="4.6"/>
					<g>
						<rect x="622" y="364.4" class="st28" width="7.3" height="10.4"/>
						<g>
							<rect x="633.4" y="364.4" class="st28" width="8.1" height="6.8"/>
							<rect x="609.9" y="364.4" class="st28" width="8.1" height="6.8"/>
						</g>
					</g>
				</g>
				<g>
					<rect x="647.8" y="359.8" class="st28" width="52.8" height="11.8"/>
					<path class="st29" d="M639.1,356.6c9.8,0,18.5-4.8,23.9-12.1h11.2h11.2c5.4,7.3,14.1,12.1,23.9,12.1c0.3,0,0.7,0,1,0
						c-1.4,2-3.7,3.3-6.3,3.3h-29.9h-29.9c-2.6,0-4.9-1.3-6.3-3.3C638.4,356.6,638.8,356.6,639.1,356.6z"/>
					<path class="st29" d="M642,333.2c10.5,0,19.8-5.1,25.6-13h6.6h6.6c5.8,7.9,15.1,13,25.6,13c0.4,0,0.7,0,1.1,0
						c-1.5,2.1-3.9,3.5-6.7,3.5h-26.6h-26.6c-2.8,0-5.2-1.4-6.7-3.5C641.3,333.1,641.7,333.2,642,333.2z"/>
					<path class="st6" d="M676.7,296.4c0,0,0,0.1,0,0.1v2.9c0,1.4-1.1,2.5-2.5,2.5c-1.4,0-2.5-1.1-2.5-2.5v-2.9c0,0,0-0.1,0-0.1
						H676.7z"/>
					<polygon class="st6" points="674.2,336.6 698.1,336.6 698.1,338.5 674.2,338.5 650.4,338.5 650.4,336.6 					"/>
					<path class="st6" d="M671.6,294.1c0,0.1,0,0.1,0,0.2v3.1c0,1.5,1.2,2.7,2.7,2.7c1.5,0,2.7-1.2,2.7-2.7v-3.1c0-0.1,0-0.1,0-0.2
						H671.6z"/>
					<path class="st5" d="M673,299.6h1.3h1.3c1.3,0,2.3,1,2.3,2.3v2.6h-3.6h-3.6v-2.6C670.7,300.6,671.7,299.6,673,299.6z"/>
					<g>
						<g>
							<rect x="673" y="359.8" class="st27" width="2.4" height="11.8"/>
							<rect x="681.8" y="359.8" class="st27" width="2.4" height="11.8"/>
							<rect x="690.6" y="359.8" class="st27" width="2.4" height="11.8"/>
							<rect x="699.5" y="359.8" class="st27" width="2.4" height="11.8"/>
							<rect x="664.2" y="359.8" class="st27" width="2.4" height="11.8"/>
							<rect x="655.4" y="359.8" class="st27" width="2.4" height="11.8"/>
							<rect x="646.6" y="359.8" class="st27" width="2.4" height="11.8"/>
						</g>
					</g>
					<path class="st29" d="M642.8,318.6c11.4,0,21.6-5.6,27.8-14.1h3.6h3.6c6.3,8.6,16.4,14.1,27.8,14.1c0.4,0,0.8,0,1.2,0
						c-1.6,2.3-4.3,3.8-7.3,3.8h-25.3h-25.3c-3,0-5.7-1.5-7.3-3.8C642,318.6,642.4,318.6,642.8,318.6z"/>
					<polygon class="st27" points="674.2,324.4 696.4,324.4 696.4,331.4 674.2,331.4 652.1,331.4 652.1,324.4 					"/>
					<g>
						<g>
							<rect x="691.3" y="326.7" class="st28" width="2.8" height="2.4"/>
							<rect x="685.2" y="326.7" class="st28" width="2.8" height="2.4"/>
							<rect x="679" y="326.7" class="st28" width="2.8" height="2.4"/>
							<rect x="672.8" y="326.7" class="st28" width="2.8" height="2.4"/>
							<rect x="654.3" y="326.7" class="st28" width="2.8" height="2.4"/>
							<rect x="660.5" y="326.7" class="st28" width="2.8" height="2.4"/>
							<rect x="666.7" y="326.7" class="st28" width="2.8" height="2.4"/>
						</g>
					</g>
					<polygon class="st6" points="674.2,322.4 696.4,322.4 696.4,324.4 674.2,324.4 652.1,324.4 652.1,322.4 					"/>
					<polygon class="st27" points="674.2,338.5 698.1,338.5 698.1,350.3 674.2,350.3 650.4,350.3 650.4,338.5 					"/>
					<g>
						<g>
							<rect x="693.4" y="340.6" class="st28" width="2.6" height="6.5"/>
							<rect x="687.6" y="340.6" class="st28" width="2.6" height="6.5"/>
							<rect x="681.8" y="340.6" class="st28" width="2.6" height="6.5"/>
							<rect x="676.1" y="340.6" class="st28" width="2.6" height="6.5"/>
							<rect x="652.5" y="340.6" class="st28" width="2.6" height="6.5"/>
							<rect x="658.3" y="340.6" class="st28" width="2.6" height="6.5"/>
							<rect x="664" y="340.6" class="st28" width="2.6" height="6.5"/>
							<rect x="669.8" y="340.6" class="st28" width="2.6" height="6.5"/>
						</g>
					</g>
					<polygon class="st6" points="674.2,350.3 700,350.3 700,354.9 674.2,354.9 648.5,354.9 648.5,350.3 					"/>
					<polygon class="st6" points="674.2,370.6 703.3,370.6 703.3,378.8 674.2,378.8 645.1,378.8 645.1,370.6 					"/>
					<rect x="645.1" y="374.7" class="st28" width="58.2" height="4.1"/>
				</g>
				<path class="st31" d="M734.1,355.9c4,0,7.5-2.4,9.7-6.2l0,0c2.2,3.8,5.7,6.2,9.7,6.2c0.1,0,0.3,0,0.4,0c-0.6,1-1.5,1.7-2.5,1.7
					h-7.6h-7.6c-1.1,0-2-0.7-2.5-1.7C733.8,355.9,733.9,355.9,734.1,355.9z"/>
				<path class="st19" d="M743.8,353.9c1.4,1.6,3.4,2.9,5.6,3.6v0v1.7v6.1h-11.2v-6.1v-1.7v0C740.4,356.8,742.4,355.5,743.8,353.9z"
					/>
				<g>
					<rect x="733.9" y="365.4" class="st6" width="19.6" height="17.4"/>
					<rect x="750.8" y="362.1" class="st6" width="2.8" height="3.3"/>
					<rect x="745.2" y="362.1" class="st6" width="2.8" height="3.3"/>
					<rect x="739.6" y="362.1" class="st6" width="2.8" height="3.3"/>
					<rect x="733.9" y="362.1" class="st6" width="2.8" height="3.3"/>
				</g>
				<path class="st19" d="M743.9,367.1c1.1,0,2,0.9,2,2v2.5h-3.9v-2.5C741.9,368,742.8,367.1,743.9,367.1z"/>
				<g>
					<rect x="683.6" y="365.4" class="st6" width="19.6" height="17.4"/>
					<rect x="700.5" y="362.1" class="st6" width="2.8" height="3.3"/>
					<rect x="694.9" y="362.1" class="st6" width="2.8" height="3.3"/>
					<rect x="689.2" y="362.1" class="st6" width="2.8" height="3.3"/>
					<rect x="683.6" y="362.1" class="st6" width="2.8" height="3.3"/>
				</g>
				<path class="st19" d="M693.6,367.1c1.1,0,2,0.9,2,2v2.5h-3.9v-2.5C691.6,368,692.5,367.1,693.6,367.1z"/>
				<g>
					<g>
						<rect x="703.3" y="369.4" class="st5" width="30.7" height="13.4"/>
						<rect x="730.5" y="367.4" class="st5" width="3.4" height="1.9"/>
						<rect x="723.7" y="367.4" class="st5" width="3.4" height="1.9"/>
						<rect x="716.9" y="367.4" class="st5" width="3.4" height="1.9"/>
						<rect x="710.1" y="367.4" class="st5" width="3.4" height="1.9"/>
						<rect x="703.3" y="367.4" class="st5" width="3.4" height="1.9"/>
					</g>
				</g>
				<g>
					<path class="st4" d="M725.4,370.9c0.4,0,0.7,0.3,0.7,0.7v1.4h-1.3v-1.4C724.8,371.2,725.1,370.9,725.4,370.9z"/>
					<path class="st4" d="M711.8,370.9c0.4,0,0.7,0.3,0.7,0.7v1.4h-1.3v-1.4C711.1,371.2,711.4,370.9,711.8,370.9z"/>
				</g>
				<rect x="732.2" y="367.4" class="st19" width="1.7" height="15.3"/>
				<rect x="703.3" y="367.4" class="st19" width="1.7" height="15.3"/>
				<path class="st31" d="M652.8,355.9c-4,0-7.5-2.4-9.7-6.2l0,0c-2.2,3.8-5.7,6.2-9.7,6.2c-0.1,0-0.3,0-0.4,0
					c0.6,1,1.5,1.7,2.5,1.7h7.6h7.6c1.1,0,2-0.7,2.5-1.7C653.1,355.9,653,355.9,652.8,355.9z"/>
				<path class="st19" d="M643.2,353.9c-1.4,1.6-3.3,2.9-5.6,3.6v0v1.7v6.1h11.2v-6.1v-1.7v0C646.5,356.8,644.6,355.5,643.2,353.9z"
					/>
				<g>
					<rect x="633.3" y="365.4" class="st6" width="19.6" height="17.4"/>
					<rect x="633.3" y="362.1" class="st6" width="2.8" height="3.3"/>
					<rect x="638.9" y="362.1" class="st6" width="2.8" height="3.3"/>
					<rect x="644.6" y="362.1" class="st6" width="2.8" height="3.3"/>
					<rect x="650.2" y="362.1" class="st6" width="2.8" height="3.3"/>
				</g>
				<path class="st19" d="M643,367.1c-1.1,0-2,0.9-2,2v2.5h3.9v-2.5C645,368,644.1,367.1,643,367.1z"/>
				<g>
					<g>
						<rect x="653" y="369.4" class="st5" width="30.7" height="13.4"/>
						<rect x="653" y="367.4" class="st5" width="3.4" height="1.9"/>
						<rect x="659.8" y="367.4" class="st5" width="3.4" height="1.9"/>
						<rect x="666.6" y="367.4" class="st5" width="3.4" height="1.9"/>
						<rect x="673.4" y="367.4" class="st5" width="3.4" height="1.9"/>
						<rect x="680.2" y="367.4" class="st5" width="3.4" height="1.9"/>
					</g>
				</g>
				<g>
					<path class="st4" d="M661.5,370.9c-0.4,0-0.7,0.3-0.7,0.7v1.4h1.3v-1.4C662.2,371.2,661.9,370.9,661.5,370.9z"/>
					<path class="st4" d="M675.1,370.9c-0.4,0-0.7,0.3-0.7,0.7v1.4h1.3v-1.4C675.8,371.2,675.5,370.9,675.1,370.9z"/>
				</g>
				<rect x="653" y="367.4" class="st19" width="1.7" height="15.3"/>
				<rect x="681.9" y="367.4" class="st19" width="1.7" height="15.3"/>
				<g>
					<rect x="583" y="365.4" class="st6" width="19.6" height="17.4"/>
					<rect x="599.9" y="362.1" class="st6" width="2.8" height="3.3"/>
					<rect x="594.3" y="362.1" class="st6" width="2.8" height="3.3"/>
					<rect x="588.6" y="362.1" class="st6" width="2.8" height="3.3"/>
					<rect x="583" y="362.1" class="st6" width="2.8" height="3.3"/>
				</g>
				<path class="st19" d="M593,367.1c1.1,0,2,0.9,2,2v2.5H591v-2.5C591,368,591.9,367.1,593,367.1z"/>
				<g>
					<g>
						<rect x="602.7" y="369.4" class="st5" width="30.7" height="13.4"/>
						<rect x="629.9" y="367.4" class="st5" width="3.4" height="1.9"/>
						<rect x="623.1" y="367.4" class="st5" width="3.4" height="1.9"/>
						<rect x="616.3" y="367.4" class="st5" width="3.4" height="1.9"/>
						<rect x="609.5" y="367.4" class="st5" width="3.4" height="1.9"/>
						<rect x="602.7" y="367.4" class="st5" width="3.4" height="1.9"/>
					</g>
				</g>
				<g>
					<path class="st4" d="M624.8,370.9c0.4,0,0.7,0.3,0.7,0.7v1.4h-1.3v-1.4C624.1,371.2,624.4,370.9,624.8,370.9z"/>
					<path class="st4" d="M611.2,370.9c0.4,0,0.7,0.3,0.7,0.7v1.4h-1.3v-1.4C610.5,371.2,610.8,370.9,611.2,370.9z"/>
				</g>
				<rect x="631.6" y="367.4" class="st19" width="1.7" height="15.3"/>
				<rect x="602.7" y="367.4" class="st19" width="1.7" height="15.3"/>
			</g>
			<path class="st14" d="M732.2,387.5h34.1c-3-6.5-9.5-10.9-17.1-10.9S735.2,381.1,732.2,387.5z"/>
			<path class="st7" d="M712.3,387.5h43.9c-2.8-3.9-7.3-6.4-12.4-6.4h-19.1C719.6,381.1,715,383.6,712.3,387.5z"/>
			<path class="st14" d="M662.2,376.7h-6.1c-4.7,0-8.4,3.8-8.4,8.4c0,0.5,0.1,1,0.1,1.5h22.7c0.1-0.5,0.1-1,0.1-1.5
				C670.7,380.4,666.9,376.7,662.2,376.7z"/>
			<path class="st7" d="M659.4,387.7H682c-1.1-3.9-4.7-6.7-8.9-6.7h-4.7C664.1,381,660.6,383.8,659.4,387.7z"/>
			<path class="st14" d="M556.5,388.6h61.1C610,380.3,599.2,375,587,375C574.9,375,564,380.3,556.5,388.6z"/>
			<path class="st7" d="M545.7,391.1H593c-3.6-5-9.4-8.3-16.1-8.3h-15.2C555.1,382.8,549.3,386.1,545.7,391.1z"/>
		</g>
		<path class="st23" d="M801.9,393h-2.4c0.6-1.5,0.9-3.2,0.9-4.9c0-7.8-6.3-14.1-14.1-14.1h-12.4c-7,0-12.8,5.1-13.9,11.8h-6
			c-5.9,0-10.7,4.8-10.7,10.7c0,5.9,4.8,10.7,10.7,10.7h11.5h0.3h36.2c3.9,0,7.1-3.2,7.1-7.1C809,396.2,805.8,393,801.9,393z"/>
		<path class="st3" d="M795.2,382.5h-2.4c0.6-1.5,0.9-3.2,0.9-4.9c0-7.8-6.3-14.1-14.1-14.1h-12.4c-7,0-12.8,5.1-13.9,11.8h-6
			c-5.9,0-10.7,4.8-10.7,10.7c0,5.9,4.8,10.7,10.7,10.7h11.5h0.3h36.2c3.9,0,7.1-3.2,7.1-7.1C802.3,385.7,799.1,382.5,795.2,382.5z"
			/>
		<g>
			<polygon class="st7" points="561.2,56.6 550.6,57.1 554.7,32.9 			"/>
			<polygon class="st7" points="564.1,56.4 560.3,56.6 562,52.5 			"/>
			<polygon class="st7" points="551.5,57.1 547.7,57.2 549.4,53.1 			"/>
			<g>
				<polygon class="st27" points="564.1,56.4 547.7,57.2 548.3,68.4 557,70.2 564.7,67.5 				"/>
				<g>
					<polygon class="st28" points="617.6,161.1 581,162.9 578.7,160.6 577.1,128.9 615.9,126.9 					"/>
					<polygon class="st28" points="587.2,128.4 582.4,128.6 582,122 584.5,123.9 586.8,121.8 					"/>
					<polygon class="st28" points="596.7,127.9 592,128.1 591.6,121.6 594.1,123.5 596.4,121.3 					"/>
					<polygon class="st28" points="606.3,127.4 601.5,127.7 601.2,121.1 603.7,123 606,120.8 					"/>
					<polygon class="st28" points="615.9,126.9 611.1,127.2 610.8,120.6 613.3,122.5 615.6,120.4 					"/>
				</g>
				<g>
					<polygon class="st28" points="524.1,165.7 541.5,164.9 543,162.3 541.4,130.7 522.4,131.6 					"/>
					<polygon class="st28" points="532,131.1 536.8,130.9 536.4,124.3 534.1,126.5 531.7,124.6 					"/>
					<polygon class="st28" points="522.4,131.6 527.2,131.4 526.9,124.8 524.6,126.9 522.1,125.1 					"/>
				</g>
				
					<rect x="546.6" y="67.9" transform="matrix(0.9987 -5.001158e-002 5.001158e-002 0.9987 -3.0926 27.9446)" class="st28" width="20.6" height="15.7"/>
				
					<rect x="545.8" y="76.3" transform="matrix(0.9988 -4.997974e-002 4.997974e-002 0.9988 -3.6396 27.968)" class="st27" width="23.3" height="21"/>
				<polygon class="st27" points="558,98.7 538.3,99.6 541.5,164.4 561.3,163.5 581,162.5 577.8,97.7 				"/>
				<polygon class="st32" points="557.9,95.6 538.1,96.6 538.3,99.6 558,98.7 577.8,97.7 577.6,94.6 				"/>
				<path class="st4" d="M558.4,105.7c-1.3,0.1-2.4,1.2-2.3,2.5l0.2,4.9l4.8-0.2l-0.2-4.9C560.8,106.6,559.7,105.6,558.4,105.7z"/>
				<polygon class="st32" points="544.3,96.3 538.1,96.6 540.5,82.5 				"/>
				<polygon class="st32" points="571.4,94.9 577.6,94.6 573.8,80.8 				"/>
				<path class="st32" d="M578.3,108.2l-0.2-3.1l-12.2,0.6c-0.6-2.5-2.1-4.8-4.6-6.5c-0.6-0.4-1.1-0.9-1.6-1.4l-0.2-4.6
					c-0.1-1-0.9-1.9-2-1.8c-1.1,0.1-1.8,0.9-1.8,2l0.2,4.6c-0.4,0.5-0.8,1.1-1.4,1.5c-2.3,1.9-3.6,4.4-3.9,7l-12.2,0.6l0.2,3.1
					l10.5-0.5l0.5,10.6l-0.6,0l0.1,1.5l9.9-0.5l9.9-0.5l-0.1-1.5l-0.6,0l-0.5-10.6L578.3,108.2z M566.8,119.4l-7.7,0.4l-7.7,0.4
					l-0.5-10.6l3.1-0.2l-0.1-1.5c-0.1-2.2,0.9-4.3,2.9-6c0.5-0.4,1-0.9,1.4-1.4c0.5,0.5,1,0.9,1.6,1.3c2.1,1.5,3.4,3.5,3.5,5.7
					l0.1,1.5l3.1-0.2L566.8,119.4z"/>
				<g>
					<path class="st4" d="M570.2,96.3c1.7-0.1,3.1,1.2,3.2,2.8l0.3,6.1l-6,0.3l-0.3-6.1C567.3,97.8,568.6,96.4,570.2,96.3z"/>
				</g>
				<g>
					<path class="st4" d="M545.6,97.6c-1.7,0.1-2.9,1.5-2.8,3.2l0.3,6.1l6-0.3l-0.3-6.1C548.7,98.8,547.3,97.5,545.6,97.6z"/>
				</g>
				
					<ellipse transform="matrix(0.9988 -4.997891e-002 4.997891e-002 0.9988 -3.3489 27.9457)" class="st4" cx="557.1" cy="80.9" rx="7.5" ry="7.5"/>
				<polygon class="st27" points="554.4,25.5 555.9,29.5 560.1,29.3 556.8,31.9 558.3,35.9 554.8,33.6 551.5,36.2 552.6,32.1 
					549,29.8 553.2,29.6 				"/>
				
					<rect x="556.4" y="126.2" transform="matrix(0.9988 -4.985289e-002 4.985289e-002 0.9988 -5.8027 28.0598)" class="st32" width="6.3" height="8.4"/>
				
					<rect x="541.2" y="151.2" transform="matrix(0.9988 -4.998425e-002 4.998425e-002 0.9988 -7.1743 28.2362)" class="st32" width="39.5" height="12.7"/>
				<path class="st28" d="M560.1,139.5c-4.4,0.2-7.8,4-7.6,8.4l0.8,16.4l16-0.8l-0.8-16.4C568.3,142.7,564.5,139.2,560.1,139.5z"/>
				<path class="st17" d="M599.4,162l15.9-0.8c0-0.3,0.1-0.6,0-0.9c-0.1-1.7-0.8-3.3-1.9-4.5c0.5-0.9,0.8-1.9,0.7-3
					c-0.1-2-1.3-3.7-3-4.6c0.1-0.4,0.2-0.9,0.2-1.4c-0.1-2.6-2.3-4.6-4.9-4.4c-2.6,0.1-4.6,2.3-4.4,4.9c0,0.5,0.1,0.9,0.3,1.3
					c-1.6,1-2.7,2.8-2.6,4.8c0.1,1.1,0.4,2.1,1,2.9c-0.9,1.3-1.5,2.9-1.4,4.7C599.3,161.4,599.4,161.7,599.4,162z"/>
				<path class="st18" d="M626.1,160.6c0.5-0.9,0.8-1.9,0.7-3c-0.1-2-1.2-3.7-2.8-4.6c0.2-0.4,0.3-0.9,0.3-1.4c-0.1-1.7-1.4-3-3-3.2
					c0.2-0.5,0.4-1.1,0.3-1.6c-0.1-1.9-1.8-3.4-3.7-3.3c-1.9,0.1-3.4,1.7-3.3,3.7c0,0.6,0.2,1.1,0.5,1.6c-1.6,0.3-2.7,1.8-2.7,3.5
					c0,0.5,0.2,1,0.4,1.4c-1.5,1.1-2.4,2.9-2.3,4.9c0.1,1.1,0.4,2.1,1,3L626.1,160.6z"/>
				<path class="st6" d="M561.3,76.3c-0.3-0.3-0.8-0.3-1.1,0.1l-3.7,4.1c0,0,0,0,0,0c-0.1,0.1-0.1,0.2-0.1,0.2c0,0.1,0,0.2,0,0.3
					l0.2,4.2c0,0.4,0.4,0.7,0.8,0.7c0.4,0,0.7-0.4,0.7-0.8l-0.2-3.9l3.5-3.8C561.6,77.1,561.6,76.6,561.3,76.3z"/>
			</g>
		</g>
		<g>
			<defs>
				<path id="SVGID_1_" d="M265.9,306.7h-14.3c0.2-2,0.4-4,0.4-6.1c0-27.2-22.1-49.3-49.3-49.3H182c-16.7,0-31.4,8.3-40.3,21
					c-8.3-5.2-18-8.2-28.5-8.2c-24.8,0-45.6,16.7-52,39.5H35.5C16.5,303.7,1.2,319,1.2,338c0,9.9,4.2,18.7,10.8,25h276.7
					c6.1-5.9,9.9-14.3,9.9-23.5C298.6,321.4,284,306.7,265.9,306.7z"/>
			</defs>
			<clipPath id="SVGID_2_">
				<use xlink:href="#SVGID_1_"  style="overflow:visible;"/>
			</clipPath>
			<g class="st33">
				<path class="st22" d="M156,393.7c-0.3,0-0.6-0.2-0.8-0.5c-1.6-3.3-3.2-6.8-4.6-10.4c-0.2-0.4,0-0.9,0.5-1.1
					c0.4-0.2,0.9,0,1.1,0.5c1.4,3.6,2.9,7,4.5,10.3c0.2,0.4,0,0.9-0.4,1.1C156.2,393.7,156.1,393.7,156,393.7z M147.6,372.7
					c-0.4,0-0.7-0.2-0.8-0.6c-1.2-3.7-2.2-7.3-3-11c-0.1-0.5,0.2-0.9,0.6-1c0.5-0.1,0.9,0.2,1,0.6c0.8,3.6,1.8,7.2,3,10.8
					c0.1,0.4-0.1,0.9-0.6,1.1C147.8,372.7,147.7,372.7,147.6,372.7z M142.5,350.7c-0.4,0-0.8-0.3-0.8-0.7c-0.5-3.8-0.9-7.7-1.1-11.3
					c0-0.5,0.3-0.9,0.8-0.9c0.5,0,0.9,0.3,0.9,0.8c0.2,3.6,0.5,7.4,1,11.2c0.1,0.5-0.3,0.9-0.7,1
					C142.6,350.7,142.5,350.7,142.5,350.7z M141.6,328.2C141.6,328.2,141.6,328.2,141.6,328.2c-0.5,0-0.9-0.4-0.8-0.9
					c0.3-3.9,0.8-7.7,1.6-11.3c0.1-0.5,0.5-0.7,1-0.7c0.5,0.1,0.8,0.5,0.7,1c-0.8,3.6-1.3,7.3-1.6,11.1
					C142.4,327.8,142.1,328.2,141.6,328.2z M639.7,314.3c-0.1,0-0.3,0-0.4-0.1c0,0-3.6-1.9-10.2-5c-0.4-0.2-0.6-0.7-0.4-1.1
					c0.2-0.4,0.7-0.6,1.1-0.4c6.6,3.1,10.2,5,10.2,5c0.4,0.2,0.6,0.7,0.4,1.1C640.3,314.1,640,314.3,639.7,314.3z M146.4,306.1
					c-0.1,0-0.2,0-0.3-0.1c-0.4-0.2-0.7-0.7-0.5-1.1c1.3-3.6,3-7.1,4.8-10.4c0.2-0.4,0.7-0.6,1.2-0.3c0.4,0.2,0.6,0.7,0.3,1.2
					c-1.8,3.2-3.4,6.6-4.7,10.1C147,305.9,146.7,306.1,146.4,306.1z M619.2,304.5c-0.1,0-0.2,0-0.3-0.1c-3.3-1.5-6.8-3.1-10.3-4.6
					c-0.4-0.2-0.6-0.7-0.4-1.1c0.2-0.4,0.7-0.6,1.1-0.4c3.5,1.5,7,3.1,10.4,4.6c0.4,0.2,0.6,0.7,0.4,1.1
					C619.8,304.3,619.5,304.5,619.2,304.5z M598.4,295.5c-0.1,0-0.2,0-0.3-0.1c-3.3-1.4-6.8-2.8-10.5-4.3c-0.4-0.2-0.6-0.7-0.5-1.1
					c0.2-0.4,0.7-0.6,1.1-0.5c3.7,1.5,7.2,2.9,10.5,4.3c0.4,0.2,0.6,0.7,0.5,1.1C599.1,295.3,598.8,295.5,598.4,295.5z M577.4,287
					c-0.1,0-0.2,0-0.3-0.1c-3.4-1.3-6.9-2.7-10.6-4c-0.4-0.2-0.7-0.7-0.5-1.1c0.2-0.4,0.7-0.7,1.1-0.5c3.6,1.4,7.2,2.7,10.6,4.1
					c0.4,0.2,0.7,0.7,0.5,1.1C578.1,286.8,577.8,287,577.4,287z M157.4,286.5c-0.2,0-0.4-0.1-0.5-0.2c-0.4-0.3-0.4-0.8-0.1-1.2
					c2.3-2.9,4.9-5.8,7.7-8.4c0.3-0.3,0.9-0.3,1.2,0c0.3,0.3,0.3,0.9,0,1.2c-2.7,2.6-5.3,5.4-7.5,8.2
					C157.9,286.4,157.7,286.5,157.4,286.5z M556.3,279c-0.1,0-0.2,0-0.3-0.1c-3.5-1.3-7-2.5-10.7-3.8c-0.4-0.2-0.7-0.6-0.5-1.1
					c0.2-0.4,0.6-0.7,1.1-0.5c3.6,1.3,7.2,2.5,10.7,3.8c0.4,0.2,0.7,0.6,0.5,1.1C556.9,278.8,556.6,279,556.3,279z M534.9,271.5
					c-0.1,0-0.2,0-0.3,0c-3.5-1.2-7.1-2.4-10.7-3.5c-0.4-0.1-0.7-0.6-0.5-1.1c0.1-0.4,0.6-0.7,1.1-0.5c3.6,1.2,7.2,2.3,10.8,3.5
					c0.4,0.1,0.7,0.6,0.5,1.1C535.6,271.3,535.3,271.5,534.9,271.5z M173.7,271c-0.3,0-0.5-0.1-0.7-0.3c-0.3-0.4-0.2-0.9,0.2-1.2
					c0.3-0.2,0.5-0.4,0.8-0.6c2.8-2,5.7-4,8.6-5.8c0.4-0.3,0.9-0.1,1.2,0.3c0.3,0.4,0.1,0.9-0.3,1.2c-2.8,1.8-5.7,3.8-8.5,5.8
					c-0.3,0.2-0.5,0.4-0.8,0.6C174,270.9,173.9,271,173.7,271z M513.4,264.6c-0.1,0-0.2,0-0.2,0c-3.6-1.1-7.2-2.2-10.8-3.2
					c-0.4-0.1-0.7-0.6-0.6-1.1c0.1-0.4,0.6-0.7,1.1-0.6c3.7,1.1,7.3,2.2,10.8,3.2c0.4,0.1,0.7,0.6,0.6,1.1
					C514.1,264.4,513.7,264.6,513.4,264.6z M192.7,258.8c-0.3,0-0.6-0.2-0.7-0.4c-0.2-0.4-0.1-0.9,0.3-1.2c3.3-1.9,6.7-3.6,10.1-5.2
					c0.4-0.2,0.9,0,1.1,0.4c0.2,0.4,0,0.9-0.4,1.1c-3.3,1.6-6.7,3.3-10,5.1C193,258.7,192.9,258.8,192.7,258.8z M491.6,258.3
					c-0.1,0-0.2,0-0.2,0c-3.6-1-7.3-2-10.9-2.9c-0.5-0.1-0.7-0.6-0.6-1c0.1-0.5,0.6-0.7,1-0.6c3.6,0.9,7.3,1.9,10.9,3
					c0.5,0.1,0.7,0.6,0.6,1C492.4,258,492,258.3,491.6,258.3z M469.8,252.5c-0.1,0-0.1,0-0.2,0c-3.6-0.9-7.3-1.8-11-2.6
					c-0.5-0.1-0.7-0.6-0.6-1c0.1-0.5,0.6-0.7,1-0.6c3.7,0.9,7.4,1.7,11,2.6c0.5,0.1,0.7,0.6,0.6,1
					C470.5,252.3,470.1,252.5,469.8,252.5z M213.2,249.1c-0.3,0-0.7-0.2-0.8-0.5c-0.2-0.4,0-0.9,0.5-1.1c3.6-1.4,7.2-2.6,10.7-3.7
					c0.5-0.1,0.9,0.1,1.1,0.6c0.1,0.4-0.1,0.9-0.6,1.1c-3.5,1.1-7.1,2.3-10.6,3.7C213.4,249.1,213.3,249.1,213.2,249.1z
					 M447.7,247.4c-0.1,0-0.1,0-0.2,0c-3.7-0.8-7.4-1.6-11.1-2.3c-0.5-0.1-0.8-0.5-0.7-1c0.1-0.5,0.5-0.8,1-0.7
					c3.7,0.7,7.4,1.5,11.1,2.3c0.5,0.1,0.7,0.6,0.6,1C448.5,247.2,448.1,247.4,447.7,247.4z M425.6,243c-0.1,0-0.1,0-0.2,0
					c-3.7-0.7-7.5-1.3-11.1-1.9c-0.5-0.1-0.8-0.5-0.7-1c0.1-0.5,0.5-0.8,1-0.7c3.7,0.6,7.4,1.3,11.2,1.9c0.5,0.1,0.8,0.5,0.7,1
					C426.3,242.7,426,243,425.6,243z M234.8,242.5c-0.4,0-0.7-0.3-0.8-0.7c-0.1-0.5,0.2-0.9,0.6-1c3.6-0.8,7.4-1.6,11.1-2.4
					c0.5-0.1,0.9,0.2,1,0.7c0.1,0.5-0.2,0.9-0.7,1c-3.7,0.7-7.4,1.5-11,2.3C234.9,242.5,234.8,242.5,234.8,242.5z M403.2,239.3
					c0,0-0.1,0-0.1,0c-3.7-0.6-7.5-1.1-11.2-1.6c-0.5-0.1-0.8-0.5-0.7-0.9c0.1-0.5,0.5-0.8,0.9-0.7c3.7,0.5,7.5,1,11.2,1.6
					c0.5,0.1,0.8,0.5,0.7,1C404,239,403.7,239.3,403.2,239.3z M256.9,238.2c-0.4,0-0.8-0.3-0.8-0.7c-0.1-0.5,0.2-0.9,0.7-1
					c3.7-0.6,7.4-1.2,11.2-1.6c0.5-0.1,0.9,0.3,1,0.7c0.1,0.5-0.3,0.9-0.7,1c-3.7,0.5-7.5,1-11.2,1.6
					C257,238.2,257,238.2,256.9,238.2z M380.8,236.4C380.8,236.4,380.8,236.4,380.8,236.4c-3.8-0.4-7.6-0.8-11.3-1.1
					c-0.5,0-0.8-0.5-0.8-0.9c0-0.5,0.5-0.8,0.9-0.8c3.7,0.3,7.5,0.7,11.2,1.1c0.5,0.1,0.8,0.5,0.7,0.9
					C381.6,236.1,381.2,236.4,380.8,236.4z M279.3,235.2c-0.4,0-0.8-0.3-0.8-0.8c0-0.5,0.3-0.9,0.8-0.9c3.7-0.4,7.5-0.7,11.3-1
					c0.5,0,0.9,0.3,0.9,0.8c0,0.5-0.3,0.9-0.8,0.9C286.9,234.5,283.1,234.9,279.3,235.2C279.4,235.2,279.4,235.2,279.3,235.2z
					 M358.3,234.4C358.3,234.4,358.3,234.4,358.3,234.4c-3.8-0.3-7.6-0.5-11.3-0.7c-0.5,0-0.8-0.4-0.8-0.9c0-0.5,0.4-0.8,0.9-0.8
					c3.7,0.2,7.5,0.4,11.3,0.7c0.5,0,0.8,0.4,0.8,0.9C359.2,234,358.8,234.4,358.3,234.4z M301.9,233.6c-0.5,0-0.8-0.4-0.8-0.8
					c0-0.5,0.3-0.9,0.8-0.9c3.7-0.2,7.5-0.3,11.3-0.4c0.4,0,0.9,0.4,0.9,0.8c0,0.5-0.4,0.9-0.8,0.9
					C309.4,233.3,305.6,233.4,301.9,233.6C301.9,233.6,301.9,233.6,301.9,233.6z M335.8,233.3C335.8,233.3,335.8,233.3,335.8,233.3
					c-3.8-0.1-7.6-0.2-11.3-0.2c-0.5,0-0.8-0.4-0.8-0.9c0-0.5,0.4-0.8,0.8-0.8c0,0,0,0,0,0c3.7,0,7.5,0.1,11.3,0.2
					c0.5,0,0.8,0.4,0.8,0.9C336.6,232.9,336.2,233.3,335.8,233.3z"/>
			</g>
		</g>
	</g>
</g>
</svg>
