<svg
        xmlns="http://www.w3.org/2000/svg"
        width="26px" height="25px">
    <path fill-rule="evenodd" fill="rgb(153, 153, 153)"
          d="M25.994,20.428 C25.992,23.025 24.018,24.991 21.393,24.994 C15.092,25.003 8.791,24.999 2.490,24.996 C1.014,24.995 0.000,23.987 -0.000,22.528 C-0.002,16.747 -0.002,10.965 -0.000,5.184 C0.000,3.669 1.010,2.673 2.548,2.665 C3.447,2.661 4.346,2.664 5.244,2.664 C5.361,2.664 5.477,2.664 5.641,2.664 C5.641,2.183 5.624,1.734 5.645,1.287 C5.675,0.665 6.137,0.157 6.756,0.028 C7.358,-0.098 8.007,0.203 8.267,0.772 C8.370,0.999 8.408,1.265 8.426,1.517 C8.452,1.879 8.433,2.244 8.433,2.636 C11.473,2.636 14.496,2.636 17.562,2.636 C17.562,2.220 17.552,1.805 17.565,1.391 C17.583,0.765 17.961,0.258 18.528,0.073 C19.080,-0.108 19.709,0.044 20.036,0.525 C20.213,0.784 20.305,1.127 20.347,1.443 C20.399,1.831 20.360,2.231 20.360,2.664 C20.512,2.664 20.628,2.664 20.744,2.664 C21.664,2.664 22.584,2.660 23.504,2.666 C24.972,2.675 25.994,3.691 25.995,5.143 C25.997,10.238 26.000,15.333 25.994,20.428 ZM22.065,22.832 C22.065,22.882 22.084,22.933 22.094,22.982 C23.014,22.892 23.979,21.835 24.028,20.855 C23.371,20.855 22.740,20.855 22.063,20.855 C22.063,21.529 22.063,22.181 22.065,22.832 ZM1.905,22.460 C1.905,22.956 2.075,23.110 2.608,23.110 C8.334,23.110 14.060,23.110 19.786,23.110 C19.900,23.110 20.014,23.110 20.171,23.110 C20.171,21.692 20.171,20.323 20.171,18.935 C21.489,18.935 22.764,18.935 24.065,18.935 C24.065,16.142 24.065,13.393 24.065,10.642 C16.673,10.642 9.306,10.642 1.922,10.642 C1.915,10.743 1.905,10.826 1.905,10.910 C1.904,14.759 1.904,18.610 1.905,22.460 ZM23.524,4.572 C22.810,4.568 22.095,4.571 21.381,4.571 C21.048,4.571 20.715,4.571 20.392,4.571 C20.184,5.434 19.740,5.870 19.048,5.919 C18.353,5.968 17.936,5.606 17.516,4.582 C14.500,4.582 11.481,4.582 8.466,4.582 C8.130,5.550 7.698,5.940 6.996,5.921 C6.300,5.901 5.868,5.492 5.591,4.571 C4.572,4.571 3.546,4.569 2.519,4.572 C2.078,4.573 1.907,4.736 1.906,5.173 C1.901,6.289 1.904,7.404 1.905,8.520 C1.906,8.591 1.924,8.663 1.934,8.739 C9.319,8.739 16.686,8.739 24.045,8.739 C24.063,8.702 24.080,8.683 24.080,8.664 C24.083,7.463 24.093,6.262 24.083,5.061 C24.080,4.735 23.875,4.575 23.524,4.572 ZM9.076,17.223 C9.087,17.315 9.097,17.397 9.107,17.478 C9.199,18.198 9.745,18.569 10.455,18.393 C10.843,18.298 11.042,18.012 11.027,17.573 C11.013,17.147 10.813,16.908 10.390,16.861 C10.145,16.834 9.895,16.856 9.623,16.856 C9.623,16.406 9.623,15.952 9.623,15.468 C9.878,15.468 10.135,15.487 10.388,15.465 C10.803,15.427 11.019,15.221 11.044,14.881 C11.068,14.549 10.867,14.315 10.471,14.214 C9.828,14.048 9.397,14.342 9.247,15.069 C8.676,15.069 8.100,15.069 7.525,15.069 C7.427,14.230 7.919,13.306 8.711,12.910 C9.641,12.444 10.609,12.414 11.565,12.821 C12.523,13.228 12.950,14.105 12.725,15.105 C12.624,15.554 12.468,15.753 11.952,16.066 C12.775,16.341 12.992,16.983 12.993,17.735 C12.994,18.580 12.656,19.286 11.898,19.687 C10.739,20.299 9.537,20.270 8.393,19.640 C7.603,19.205 7.172,18.156 7.326,17.223 C7.916,17.223 8.486,17.223 9.076,17.223 ZM16.239,12.654 C16.764,12.654 17.257,12.654 17.769,12.654 C17.769,15.109 17.769,17.545 17.769,19.999 C17.117,19.999 16.485,19.999 15.823,19.999 C15.823,18.601 15.823,17.213 15.823,15.784 C15.304,15.784 14.814,15.784 14.284,15.784 C14.284,15.244 14.284,14.764 14.284,14.255 C15.351,14.217 16.141,13.830 16.239,12.654 Z"/>
</svg>