<?xml version="1.0" encoding="utf-8"?>
<!-- Generator: Adobe Illustrator 19.2.0, SVG Export Plug-In . SVG Version: 6.00 Build 0)  -->
<svg version="1.1" id="Layer_1" xmlns="http://www.w3.org/2000/svg"  x="0px" y="0px"
	 viewBox="0 0 297 369" style="enable-background:new 0 0 297 369;" xml:space="preserve">
<style type="text/css">
	.st0{fill:#FFE7CF;}
	.st1{fill:#327DAF;}
	.st2{fill:#EF8080;}
	.st3{fill:#D46868;}
	.st4{fill:#D65141;}
	.st5{fill:#05A160;}
	.st6{fill:#F5F3EA;}
	.st7{fill:#00884B;}
	.st8{fill:#314E51;}
	.st9{fill:#101A1B;}
	.st10{fill:#213238;}
	.st11{fill:#3692CE;}
	.st12{fill:#6E589D;}
	.st13{fill:#2F80AB;}
	.st14{fill:#0B1318;}
	.st15{fill:#F5DC6E;}
	.st16{fill:#3680B7;}
	.st17{fill:#FFFFFF;}
	.st18{fill:#E47B3D;}
	.st19{fill:#00733B;}
	.st20{fill:#E4E2D9;}
</style>
<path class="st0" d="M235.3,20.7c34.2,0,61.9,27.7,61.9,61.9v222.9c0,34.2-27.7,61.9-61.9,61.9H62c-34.2,0-61.9-27.7-61.9-61.9V82.6
	c0-34.2,27.7-61.9,61.9-61.9H235.3z"/>
<g>
	<polygon class="st1" points="134.1,305.8 136.6,305.8 133.4,294.7 130.9,294.7 	"/>
	<path class="st2" d="M280.7,105.2c-4.3-23.4-24.8-41.2-49.5-41.2c-16.1,0-30.5,7.6-39.7,19.4c-5.5-3.1-11.9-4.8-18.6-4.8
		c-15.7,0-29.3,9.5-35.2,23c-11.5,1.6-20.8,10.3-23.1,21.6c-11.9,0.5-21.4,10.3-21.4,22.3c0,12.4,10,22.4,22.4,22.4h56
		c7.2,15.5,22.9,26.2,41.1,26.2c14.7,0,27.7-7,36-17.8c2.6,0.5,5.3,0.8,8,0.8c22.1,0,40-17.9,40-40
		C296.6,124.1,290.4,112.5,280.7,105.2z"/>
	<g>
		<g>
			<path class="st3" d="M185.1,139.5c-1.2,0-2.2-0.8-2.5-1.9c-0.4-1.4,0.5-2.8,1.9-3.2c9.2-2.4,15.6-10.6,15.6-20.1
				c0-0.3,0-0.5,0-0.8c-0.1-1.4,1.1-2.6,2.5-2.7c1.4,0,2.6,1.1,2.7,2.5c0,0.3,0,0.7,0,1c0,11.8-8,22.2-19.4,25.1
				C185.5,139.5,185.3,139.5,185.1,139.5z"/>
		</g>
		<g>
			<path class="st3" d="M143.8,118h-27.6c-0.7,1.7-1.3,3.4-1.7,5.2h29.3c1.4,0,2.6-1.2,2.6-2.6C146.4,119.1,145.2,118,143.8,118z"/>
			<g>
				<path class="st3" d="M232.4,131c-1,0-1.9-0.5-2.3-1.5c-4.8-9.8-14.5-15.8-25.4-15.8c-3,0-5.9,0.5-8.7,1.3
					c-1.4,0.4-2.8-0.3-3.3-1.7c-0.4-1.4,0.3-2.8,1.7-3.3c3.3-1.1,6.7-1.6,10.2-1.6c12.9,0,24.4,7.2,30,18.7c0.6,1.3,0.1,2.8-1.2,3.5
					C233.1,130.9,232.8,131,232.4,131z"/>
			</g>
			<g>
				<path class="st3" d="M221.7,118.8c-0.6,0-1.3-0.2-1.8-0.7c-1-1-1.1-2.6-0.1-3.7c3.2-3.3,4.9-7.7,4.9-12.3
					c0-5.8-2.8-11.3-7.6-14.6c-1.2-0.8-1.4-2.5-0.6-3.6c0.8-1.2,2.5-1.4,3.6-0.6c6.1,4.3,9.7,11.4,9.7,18.9c0,5.9-2.2,11.6-6.3,15.9
					C223.1,118.5,222.4,118.8,221.7,118.8z"/>
			</g>
			<path class="st3" d="M171.6,168c-2.4-6.4-3.6-13.1-3.6-20c0-1.4-1.2-2.6-2.6-2.6c-1.4,0-2.6,1.2-2.6,2.6c0,6.8,1.1,13.5,3.3,19.9
				h5.5C171.6,167.9,171.6,167.9,171.6,168z"/>
			<g>
				<path class="st3" d="M235.6,152.8c-7.5,0-14.6-2.4-20.5-7c-1.1-0.9-1.3-2.5-0.5-3.6c0.9-1.1,2.5-1.3,3.6-0.5
					c5,3.9,11,5.9,17.3,5.9c15.6,0,28.3-12.7,28.3-28.3c0-5.5-1.6-10.9-4.6-15.5c-0.8-1.2-0.4-2.8,0.8-3.6c1.2-0.8,2.8-0.5,3.6,0.8
					c3.6,5.4,5.5,11.8,5.5,18.3C269.1,137.7,254.1,152.8,235.6,152.8z"/>
			</g>
			<path class="st3" d="M191.5,83.3C191.5,83.3,191.5,83.3,191.5,83.3c-1.6-0.8-3.2-1.6-4.8-2.2c-5.3,7.2-9,15.4-10.9,24.1
				c-0.3,1.4,0.6,2.8,2,3.1c1.4,0.3,2.8-0.6,3.1-2C182.7,98,186.3,90.1,191.5,83.3z"/>
			<path class="st3" d="M228.7,150.1c0-0.4,0-0.9,0-1.3c0.1-1.4-1-2.7-2.5-2.7c-1.4-0.1-2.7,1-2.7,2.5c0,0.5,0,1.1,0,1.6
				c0,13.7,8.8,25.9,21.4,30.4c1.3-1.3,2.6-2.8,3.7-4.2c0.1,0,0.2,0,0.3,0.1C237.1,173.2,228.7,162.5,228.7,150.1z"/>
		</g>
	</g>
	<path class="st1" d="M103.2,88.8c-0.6-1-0.6-2.3,0-3.2l2.1-3.1L83.7,67.7c-1-0.7-1.5-1.8-1.2-3c0.2-1.2,1.1-2,2.3-2.3l13.1-2.5
		L79.7,47.6c-1.3-0.9-1.7-2.7-0.8-4c0.9-1.3,2.7-1.7,4-0.8L106.9,59c1,0.7,1.5,1.8,1.2,3c-0.2,1.2-1.2,2-2.3,2.3l-13.1,2.5
		l15.9,10.8l2.1-3.1c0.7-1,1.8-1.4,3-1.2c1.1,0.2,2,1.1,2.3,2.3L118,85c0.2,0.8,0,1.6-0.4,2.2c-0.4,0.7-1.1,1.1-1.9,1.2l-9.5,1.7
		C105,90.3,103.9,89.8,103.2,88.8z"/>
	<path class="st4" d="M260.6,50.4c-0.1-1.2-1-2.1-2.1-2.5l-3.6-1l7.2-25.3c0.3-1.1-0.1-2.3-1-3.1c-0.9-0.7-2.2-0.8-3.2-0.3
		l-11.6,6.5l6-21.1c0.4-1.5-0.5-3.2-2-3.6c-1.5-0.4-3.2,0.5-3.6,2l-7.9,27.8c-0.3,1.1,0.1,2.4,1,3.1c0.9,0.7,2.2,0.8,3.2,0.3
		l11.6-6.5l-5.3,18.5l-3.6-1c-1.1-0.3-2.3,0.1-3.1,1c-0.7,0.9-0.9,2.2-0.3,3.2l4.5,8.5c0.4,0.7,1,1.2,1.8,1.4
		c0.8,0.2,1.6,0.1,2.3-0.3l8.3-4.8C260.2,52.7,260.8,51.6,260.6,50.4z"/>
	<path class="st5" d="M223.7,214.8c0.6,1,1.8,1.5,3,1.3l3.7-0.7l5.8,31.9c0.2,1.2,1.1,2.1,2.2,2.3c1.2,0.3,2.3-0.2,3-1.2l7.6-10.9
		l5.3,29.1c0.3,1.6,1.8,2.6,3.4,2.3c1.6-0.3,2.6-1.8,2.3-3.4l-6.5-36c-0.2-1.2-1.1-2.1-2.3-2.3c-1.2-0.2-2.3,0.2-3,1.2l-7.6,10.9
		l-4.5-25l3.7-0.7c1.2-0.2,2.1-1.1,2.3-2.2c0.3-1.1-0.2-2.3-1.1-3l-7.8-5.6c-0.6-0.5-1.4-0.6-2.2-0.5c-0.8,0.1-1.5,0.6-1.9,1.2
		l-5.4,8C223,212.5,223,213.8,223.7,214.8z"/>
	<path class="st5" d="M179.8,261.9c0,6.8-5.5,12.4-12.4,12.4h-155c-6.8,0-12.4-5.5-12.4-12.4v-111c0-6.8,5.5-12.4,12.4-12.4h155
		c6.8,0,12.4,5.5,12.4,12.4V261.9z"/>
	<path class="st6" d="M12.4,264.4c-1.4,0-2.5-1.1-2.5-2.5v-111c0-1.4,1.1-2.5,2.5-2.5h155c1.4,0,2.5,1.1,2.5,2.5v111
		c0,1.4-1.1,2.5-2.5,2.5H12.4z"/>
	<path class="st7" d="M179.8,153.2v-2.3c0-6.8-5.5-12.4-12.4-12.4h-2.3l-9.9,9.9h12.2c1.4,0,2.5,1.1,2.5,2.5v12.2L179.8,153.2z"/>
	<path class="st7" d="M179.8,261.9v-2.3l-9.9-9.9v12.2c0,1.4-1.1,2.5-2.5,2.5h-12.2l9.9,9.9h2.3
		C174.2,274.3,179.8,268.8,179.8,261.9z"/>
	<path class="st7" d="M0.1,259.6v2.3c0,6.8,5.5,12.4,12.4,12.4h2.3l9.9-9.9H12.5c-1.4,0-2.5-1.1-2.5-2.5v-12.2L0.1,259.6z"/>
	<path class="st7" d="M0.1,150.9v2.3l9.9,9.9v-12.2c0-1.4,1.1-2.5,2.5-2.5h12.2l-9.9-9.9h-2.3C5.6,138.5,0.1,144.1,0.1,150.9z"/>
	<rect x="83.6" y="305.8" class="st8" width="152.7" height="52.2"/>
	<path class="st9" d="M198.9,364.7c0,1.9-1.5,3.5-3.5,3.5h-8.8c-1.9,0-3.5-1.5-3.5-3.5v-5.3c0-1.9,1.5-3.5,3.5-3.5h8.8
		c1.9,0,3.5,1.5,3.5,3.5V364.7z"/>
	<path class="st9" d="M77.5,364.7c0,1.9-1.5,3.5-3.5,3.5h-8.8c-1.9,0-3.5-1.5-3.5-3.5v-5.3c0-1.9,1.5-3.5,3.5-3.5H74
		c1.9,0,3.5,1.5,3.5,3.5V364.7z"/>
	<path class="st10" d="M230.5,364.7c0,1.9-1.5,3.5-3.5,3.5h-8.8c-1.9,0-3.5-1.5-3.5-3.5v-5.3c0-1.9,1.5-3.5,3.5-3.5h8.8
		c1.9,0,3.5,1.5,3.5,3.5V364.7z"/>
	<path class="st10" d="M109.1,364.7c0,1.9-1.5,3.5-3.5,3.5h-8.8c-1.9,0-3.5-1.5-3.5-3.5v-5.3c0-1.9,1.5-3.5,3.5-3.5h8.8
		c1.9,0,3.5,1.5,3.5,3.5V364.7z"/>
	<polygon class="st11" points="157.4,305.8 136.6,305.8 133.4,294.7 154.3,294.7 	"/>
	
		<rect x="67.8" y="215.3" transform="matrix(0.6964 -0.7177 0.7177 0.6964 -138.02 126.0967)" class="st12" width="24.4" height="21.6"/>
	<rect x="17.9" y="159" class="st12" width="21.6" height="24.4"/>
	
		<rect x="31.6" y="211.8" transform="matrix(0.1261 -0.992 0.992 0.1261 -182.6045 238.0037)" class="st12" width="24.4" height="21.6"/>
	<rect x="140.2" y="159" class="st12" width="21.6" height="24.4"/>
	<rect x="79.1" y="159" class="st12" width="21.6" height="24.4"/>
	<path class="st1" d="M65,305.8h-2.7H43.8v17.3V344c0,10.3,8.3,18.6,18.6,18.6H65h18.6V344v-20.8v-17.3H65z"/>
	<path class="st13" d="M62.4,362.5H65h18.6V358H50.2C53.5,360.8,57.7,362.5,62.4,362.5z"/>
	<circle class="st14" cx="203.1" cy="331.3" r="20.9"/>
	<circle class="st14" cx="116.8" cy="331.3" r="20.9"/>
	<path class="st1" d="M83.6,305.8v56.7h152.7v-56.7H83.6z M94.1,356.4c-1,0-1.9-0.8-1.9-1.9c0-1,0.8-1.9,1.9-1.9
		c1,0,1.9,0.8,1.9,1.9C96,355.6,95.1,356.4,94.1,356.4z M94.1,351.4c-1,0-1.9-0.8-1.9-1.9c0-1,0.8-1.9,1.9-1.9c1,0,1.9,0.8,1.9,1.9
		C96,350.6,95.1,351.4,94.1,351.4z M94.1,346.4c-1,0-1.9-0.8-1.9-1.9c0-1,0.8-1.9,1.9-1.9c1,0,1.9,0.8,1.9,1.9
		C96,345.6,95.1,346.4,94.1,346.4z M94.1,341.5c-1,0-1.9-0.8-1.9-1.9c0-1,0.8-1.9,1.9-1.9c1,0,1.9,0.8,1.9,1.9
		C96,340.6,95.1,341.5,94.1,341.5z M94.1,336.5c-1,0-1.9-0.8-1.9-1.9c0-1,0.8-1.9,1.9-1.9c1,0,1.9,0.8,1.9,1.9
		C96,335.6,95.1,336.5,94.1,336.5z M94.1,331.5c-1,0-1.9-0.8-1.9-1.9c0-1,0.8-1.9,1.9-1.9c1,0,1.9,0.8,1.9,1.9
		C96,330.6,95.1,331.5,94.1,331.5z M94.1,326.5c-1,0-1.9-0.8-1.9-1.9c0-1,0.8-1.9,1.9-1.9c1,0,1.9,0.8,1.9,1.9
		C96,325.7,95.1,326.5,94.1,326.5z M94.1,321.5c-1,0-1.9-0.8-1.9-1.9c0-1,0.8-1.9,1.9-1.9c1,0,1.9,0.8,1.9,1.9
		C96,320.7,95.1,321.5,94.1,321.5z M94.1,316.5c-1,0-1.9-0.8-1.9-1.9c0-1,0.8-1.9,1.9-1.9c1,0,1.9,0.8,1.9,1.9
		C96,315.7,95.1,316.5,94.1,316.5z M94.1,311.5c-1,0-1.9-0.8-1.9-1.9c0-1,0.8-1.9,1.9-1.9c1,0,1.9,0.8,1.9,1.9
		C96,310.7,95.1,311.5,94.1,311.5z M99.4,356.4c-1,0-1.9-0.8-1.9-1.9c0-1,0.8-1.9,1.9-1.9c1,0,1.9,0.8,1.9,1.9
		C101.3,355.6,100.4,356.4,99.4,356.4z M99.4,351.4c-1,0-1.9-0.8-1.9-1.9c0-1,0.8-1.9,1.9-1.9c1,0,1.9,0.8,1.9,1.9
		C101.3,350.6,100.4,351.4,99.4,351.4z M99.4,346.4c-1,0-1.9-0.8-1.9-1.9c0-1,0.8-1.9,1.9-1.9c1,0,1.9,0.8,1.9,1.9
		C101.3,345.6,100.4,346.4,99.4,346.4z M99.4,341.5c-1,0-1.9-0.8-1.9-1.9c0-1,0.8-1.9,1.9-1.9c1,0,1.9,0.8,1.9,1.9
		C101.3,340.6,100.4,341.5,99.4,341.5z M99.4,336.5c-1,0-1.9-0.8-1.9-1.9c0-1,0.8-1.9,1.9-1.9c1,0,1.9,0.8,1.9,1.9
		C101.3,335.6,100.4,336.5,99.4,336.5z M99.4,331.5c-1,0-1.9-0.8-1.9-1.9c0-1,0.8-1.9,1.9-1.9c1,0,1.9,0.8,1.9,1.9
		C101.3,330.6,100.4,331.5,99.4,331.5z M99.4,326.5c-1,0-1.9-0.8-1.9-1.9c0-1,0.8-1.9,1.9-1.9c1,0,1.9,0.8,1.9,1.9
		C101.3,325.7,100.4,326.5,99.4,326.5z M99.4,321.5c-1,0-1.9-0.8-1.9-1.9c0-1,0.8-1.9,1.9-1.9c1,0,1.9,0.8,1.9,1.9
		C101.3,320.7,100.4,321.5,99.4,321.5z M99.4,316.5c-1,0-1.9-0.8-1.9-1.9c0-1,0.8-1.9,1.9-1.9c1,0,1.9,0.8,1.9,1.9
		C101.3,315.7,100.4,316.5,99.4,316.5z M99.4,311.5c-1,0-1.9-0.8-1.9-1.9c0-1,0.8-1.9,1.9-1.9c1,0,1.9,0.8,1.9,1.9
		C101.3,310.7,100.4,311.5,99.4,311.5z M104.6,356.4c-1,0-1.9-0.8-1.9-1.9c0-1,0.8-1.9,1.9-1.9c1,0,1.9,0.8,1.9,1.9
		C106.5,355.6,105.7,356.4,104.6,356.4z M104.6,351.4c-1,0-1.9-0.8-1.9-1.9c0-1,0.8-1.9,1.9-1.9c1,0,1.9,0.8,1.9,1.9
		C106.5,350.6,105.7,351.4,104.6,351.4z M104.6,346.4c-1,0-1.9-0.8-1.9-1.9c0-1,0.8-1.9,1.9-1.9c1,0,1.9,0.8,1.9,1.9
		C106.5,345.6,105.7,346.4,104.6,346.4z M104.6,341.5c-1,0-1.9-0.8-1.9-1.9c0-1,0.8-1.9,1.9-1.9c1,0,1.9,0.8,1.9,1.9
		C106.5,340.6,105.7,341.5,104.6,341.5z M104.6,336.5c-1,0-1.9-0.8-1.9-1.9c0-1,0.8-1.9,1.9-1.9c1,0,1.9,0.8,1.9,1.9
		C106.5,335.6,105.7,336.5,104.6,336.5z M104.6,331.5c-1,0-1.9-0.8-1.9-1.9c0-1,0.8-1.9,1.9-1.9c1,0,1.9,0.8,1.9,1.9
		C106.5,330.6,105.7,331.5,104.6,331.5z M104.6,326.5c-1,0-1.9-0.8-1.9-1.9c0-1,0.8-1.9,1.9-1.9c1,0,1.9,0.8,1.9,1.9
		C106.5,325.7,105.7,326.5,104.6,326.5z M104.6,321.5c-1,0-1.9-0.8-1.9-1.9c0-1,0.8-1.9,1.9-1.9c1,0,1.9,0.8,1.9,1.9
		C106.5,320.7,105.7,321.5,104.6,321.5z M104.6,316.5c-1,0-1.9-0.8-1.9-1.9c0-1,0.8-1.9,1.9-1.9c1,0,1.9,0.8,1.9,1.9
		C106.5,315.7,105.7,316.5,104.6,316.5z M104.6,311.5c-1,0-1.9-0.8-1.9-1.9c0-1,0.8-1.9,1.9-1.9c1,0,1.9,0.8,1.9,1.9
		C106.5,310.7,105.7,311.5,104.6,311.5z M109.9,356.4c-1,0-1.9-0.8-1.9-1.9c0-1,0.8-1.9,1.9-1.9c1,0,1.9,0.8,1.9,1.9
		C111.8,355.6,111,356.4,109.9,356.4z M109.9,351.4c-1,0-1.9-0.8-1.9-1.9c0-1,0.8-1.9,1.9-1.9c1,0,1.9,0.8,1.9,1.9
		C111.8,350.6,111,351.4,109.9,351.4z M109.9,346.4c-1,0-1.9-0.8-1.9-1.9c0-1,0.8-1.9,1.9-1.9c1,0,1.9,0.8,1.9,1.9
		C111.8,345.6,111,346.4,109.9,346.4z M109.9,341.5c-1,0-1.9-0.8-1.9-1.9c0-1,0.8-1.9,1.9-1.9c1,0,1.9,0.8,1.9,1.9
		C111.8,340.6,111,341.5,109.9,341.5z M109.9,336.5c-1,0-1.9-0.8-1.9-1.9c0-1,0.8-1.9,1.9-1.9c1,0,1.9,0.8,1.9,1.9
		C111.8,335.6,111,336.5,109.9,336.5z M109.9,331.5c-1,0-1.9-0.8-1.9-1.9c0-1,0.8-1.9,1.9-1.9c1,0,1.9,0.8,1.9,1.9
		C111.8,330.6,111,331.5,109.9,331.5z M109.9,326.5c-1,0-1.9-0.8-1.9-1.9c0-1,0.8-1.9,1.9-1.9c1,0,1.9,0.8,1.9,1.9
		C111.8,325.7,111,326.5,109.9,326.5z M109.9,321.5c-1,0-1.9-0.8-1.9-1.9c0-1,0.8-1.9,1.9-1.9c1,0,1.9,0.8,1.9,1.9
		C111.8,320.7,111,321.5,109.9,321.5z M109.9,316.5c-1,0-1.9-0.8-1.9-1.9c0-1,0.8-1.9,1.9-1.9c1,0,1.9,0.8,1.9,1.9
		C111.8,315.7,111,316.5,109.9,316.5z M109.9,311.5c-1,0-1.9-0.8-1.9-1.9c0-1,0.8-1.9,1.9-1.9c1,0,1.9,0.8,1.9,1.9
		C111.8,310.7,111,311.5,109.9,311.5z M115.2,356.4c-1,0-1.9-0.8-1.9-1.9c0-1,0.8-1.9,1.9-1.9c1,0,1.9,0.8,1.9,1.9
		C117.1,355.6,116.2,356.4,115.2,356.4z M115.2,351.4c-1,0-1.9-0.8-1.9-1.9c0-1,0.8-1.9,1.9-1.9c1,0,1.9,0.8,1.9,1.9
		C117.1,350.6,116.2,351.4,115.2,351.4z M115.2,346.4c-1,0-1.9-0.8-1.9-1.9c0-1,0.8-1.9,1.9-1.9c1,0,1.9,0.8,1.9,1.9
		C117.1,345.6,116.2,346.4,115.2,346.4z M115.2,341.5c-1,0-1.9-0.8-1.9-1.9c0-1,0.8-1.9,1.9-1.9c1,0,1.9,0.8,1.9,1.9
		C117.1,340.6,116.2,341.5,115.2,341.5z M115.2,336.5c-1,0-1.9-0.8-1.9-1.9c0-1,0.8-1.9,1.9-1.9c1,0,1.9,0.8,1.9,1.9
		C117.1,335.6,116.2,336.5,115.2,336.5z M115.2,331.5c-1,0-1.9-0.8-1.9-1.9c0-1,0.8-1.9,1.9-1.9c1,0,1.9,0.8,1.9,1.9
		C117.1,330.6,116.2,331.5,115.2,331.5z M115.2,326.5c-1,0-1.9-0.8-1.9-1.9c0-1,0.8-1.9,1.9-1.9c1,0,1.9,0.8,1.9,1.9
		C117.1,325.7,116.2,326.5,115.2,326.5z M115.2,321.5c-1,0-1.9-0.8-1.9-1.9c0-1,0.8-1.9,1.9-1.9c1,0,1.9,0.8,1.9,1.9
		C117.1,320.7,116.2,321.5,115.2,321.5z M115.2,316.5c-1,0-1.9-0.8-1.9-1.9c0-1,0.8-1.9,1.9-1.9c1,0,1.9,0.8,1.9,1.9
		C117.1,315.7,116.2,316.5,115.2,316.5z M115.2,311.5c-1,0-1.9-0.8-1.9-1.9c0-1,0.8-1.9,1.9-1.9c1,0,1.9,0.8,1.9,1.9
		C117.1,310.7,116.2,311.5,115.2,311.5z M120.5,356.4c-1,0-1.9-0.8-1.9-1.9c0-1,0.8-1.9,1.9-1.9c1,0,1.9,0.8,1.9,1.9
		C122.3,355.6,121.5,356.4,120.5,356.4z M120.5,351.4c-1,0-1.9-0.8-1.9-1.9c0-1,0.8-1.9,1.9-1.9c1,0,1.9,0.8,1.9,1.9
		C122.3,350.6,121.5,351.4,120.5,351.4z M120.5,346.4c-1,0-1.9-0.8-1.9-1.9c0-1,0.8-1.9,1.9-1.9c1,0,1.9,0.8,1.9,1.9
		C122.3,345.6,121.5,346.4,120.5,346.4z M120.5,341.5c-1,0-1.9-0.8-1.9-1.9c0-1,0.8-1.9,1.9-1.9c1,0,1.9,0.8,1.9,1.9
		C122.3,340.6,121.5,341.5,120.5,341.5z M120.5,336.5c-1,0-1.9-0.8-1.9-1.9c0-1,0.8-1.9,1.9-1.9c1,0,1.9,0.8,1.9,1.9
		C122.3,335.6,121.5,336.5,120.5,336.5z M120.5,331.5c-1,0-1.9-0.8-1.9-1.9c0-1,0.8-1.9,1.9-1.9c1,0,1.9,0.8,1.9,1.9
		C122.3,330.6,121.5,331.5,120.5,331.5z M120.5,326.5c-1,0-1.9-0.8-1.9-1.9c0-1,0.8-1.9,1.9-1.9c1,0,1.9,0.8,1.9,1.9
		C122.3,325.7,121.5,326.5,120.5,326.5z M120.5,321.5c-1,0-1.9-0.8-1.9-1.9c0-1,0.8-1.9,1.9-1.9c1,0,1.9,0.8,1.9,1.9
		C122.3,320.7,121.5,321.5,120.5,321.5z M120.5,316.5c-1,0-1.9-0.8-1.9-1.9c0-1,0.8-1.9,1.9-1.9c1,0,1.9,0.8,1.9,1.9
		C122.3,315.7,121.5,316.5,120.5,316.5z M120.5,311.5c-1,0-1.9-0.8-1.9-1.9c0-1,0.8-1.9,1.9-1.9c1,0,1.9,0.8,1.9,1.9
		C122.3,310.7,121.5,311.5,120.5,311.5z M125.7,356.4c-1,0-1.9-0.8-1.9-1.9c0-1,0.8-1.9,1.9-1.9c1,0,1.9,0.8,1.9,1.9
		C127.6,355.6,126.8,356.4,125.7,356.4z M125.7,351.4c-1,0-1.9-0.8-1.9-1.9c0-1,0.8-1.9,1.9-1.9c1,0,1.9,0.8,1.9,1.9
		C127.6,350.6,126.8,351.4,125.7,351.4z M125.7,346.4c-1,0-1.9-0.8-1.9-1.9c0-1,0.8-1.9,1.9-1.9c1,0,1.9,0.8,1.9,1.9
		C127.6,345.6,126.8,346.4,125.7,346.4z M125.7,341.5c-1,0-1.9-0.8-1.9-1.9c0-1,0.8-1.9,1.9-1.9c1,0,1.9,0.8,1.9,1.9
		C127.6,340.6,126.8,341.5,125.7,341.5z M125.7,336.5c-1,0-1.9-0.8-1.9-1.9c0-1,0.8-1.9,1.9-1.9c1,0,1.9,0.8,1.9,1.9
		C127.6,335.6,126.8,336.5,125.7,336.5z M125.7,331.5c-1,0-1.9-0.8-1.9-1.9c0-1,0.8-1.9,1.9-1.9c1,0,1.9,0.8,1.9,1.9
		C127.6,330.6,126.8,331.5,125.7,331.5z M125.7,326.5c-1,0-1.9-0.8-1.9-1.9c0-1,0.8-1.9,1.9-1.9c1,0,1.9,0.8,1.9,1.9
		C127.6,325.7,126.8,326.5,125.7,326.5z M125.7,321.5c-1,0-1.9-0.8-1.9-1.9c0-1,0.8-1.9,1.9-1.9c1,0,1.9,0.8,1.9,1.9
		C127.6,320.7,126.8,321.5,125.7,321.5z M125.7,316.5c-1,0-1.9-0.8-1.9-1.9c0-1,0.8-1.9,1.9-1.9c1,0,1.9,0.8,1.9,1.9
		C127.6,315.7,126.8,316.5,125.7,316.5z M125.7,311.5c-1,0-1.9-0.8-1.9-1.9c0-1,0.8-1.9,1.9-1.9c1,0,1.9,0.8,1.9,1.9
		C127.6,310.7,126.8,311.5,125.7,311.5z M131,356.4c-1,0-1.9-0.8-1.9-1.9c0-1,0.8-1.9,1.9-1.9c1,0,1.9,0.8,1.9,1.9
		C132.9,355.6,132,356.4,131,356.4z M131,351.4c-1,0-1.9-0.8-1.9-1.9c0-1,0.8-1.9,1.9-1.9c1,0,1.9,0.8,1.9,1.9
		C132.9,350.6,132,351.4,131,351.4z M131,346.4c-1,0-1.9-0.8-1.9-1.9c0-1,0.8-1.9,1.9-1.9c1,0,1.9,0.8,1.9,1.9
		C132.9,345.6,132,346.4,131,346.4z M131,341.5c-1,0-1.9-0.8-1.9-1.9c0-1,0.8-1.9,1.9-1.9c1,0,1.9,0.8,1.9,1.9
		C132.9,340.6,132,341.5,131,341.5z M131,336.5c-1,0-1.9-0.8-1.9-1.9c0-1,0.8-1.9,1.9-1.9c1,0,1.9,0.8,1.9,1.9
		C132.9,335.6,132,336.5,131,336.5z M131,331.5c-1,0-1.9-0.8-1.9-1.9c0-1,0.8-1.9,1.9-1.9c1,0,1.9,0.8,1.9,1.9
		C132.9,330.6,132,331.5,131,331.5z M131,326.5c-1,0-1.9-0.8-1.9-1.9c0-1,0.8-1.9,1.9-1.9c1,0,1.9,0.8,1.9,1.9
		C132.9,325.7,132,326.5,131,326.5z M131,321.5c-1,0-1.9-0.8-1.9-1.9c0-1,0.8-1.9,1.9-1.9c1,0,1.9,0.8,1.9,1.9
		C132.9,320.7,132,321.5,131,321.5z M131,316.5c-1,0-1.9-0.8-1.9-1.9c0-1,0.8-1.9,1.9-1.9c1,0,1.9,0.8,1.9,1.9
		C132.9,315.7,132,316.5,131,316.5z M131,311.5c-1,0-1.9-0.8-1.9-1.9c0-1,0.8-1.9,1.9-1.9c1,0,1.9,0.8,1.9,1.9
		C132.9,310.7,132,311.5,131,311.5z M136.3,356.4c-1,0-1.9-0.8-1.9-1.9c0-1,0.8-1.9,1.9-1.9c1,0,1.9,0.8,1.9,1.9
		C138.2,355.6,137.3,356.4,136.3,356.4z M136.3,351.4c-1,0-1.9-0.8-1.9-1.9c0-1,0.8-1.9,1.9-1.9c1,0,1.9,0.8,1.9,1.9
		C138.2,350.6,137.3,351.4,136.3,351.4z M136.3,346.4c-1,0-1.9-0.8-1.9-1.9c0-1,0.8-1.9,1.9-1.9c1,0,1.9,0.8,1.9,1.9
		C138.2,345.6,137.3,346.4,136.3,346.4z M136.3,341.5c-1,0-1.9-0.8-1.9-1.9c0-1,0.8-1.9,1.9-1.9c1,0,1.9,0.8,1.9,1.9
		C138.2,340.6,137.3,341.5,136.3,341.5z M136.3,336.5c-1,0-1.9-0.8-1.9-1.9c0-1,0.8-1.9,1.9-1.9c1,0,1.9,0.8,1.9,1.9
		C138.2,335.6,137.3,336.5,136.3,336.5z M136.3,331.5c-1,0-1.9-0.8-1.9-1.9c0-1,0.8-1.9,1.9-1.9c1,0,1.9,0.8,1.9,1.9
		C138.2,330.6,137.3,331.5,136.3,331.5z M136.3,326.5c-1,0-1.9-0.8-1.9-1.9c0-1,0.8-1.9,1.9-1.9c1,0,1.9,0.8,1.9,1.9
		C138.2,325.7,137.3,326.5,136.3,326.5z M136.3,321.5c-1,0-1.9-0.8-1.9-1.9c0-1,0.8-1.9,1.9-1.9c1,0,1.9,0.8,1.9,1.9
		C138.2,320.7,137.3,321.5,136.3,321.5z M136.3,316.5c-1,0-1.9-0.8-1.9-1.9c0-1,0.8-1.9,1.9-1.9c1,0,1.9,0.8,1.9,1.9
		C138.2,315.7,137.3,316.5,136.3,316.5z M136.3,311.5c-1,0-1.9-0.8-1.9-1.9c0-1,0.8-1.9,1.9-1.9c1,0,1.9,0.8,1.9,1.9
		C138.2,310.7,137.3,311.5,136.3,311.5z M141.6,356.4c-1,0-1.9-0.8-1.9-1.9c0-1,0.8-1.9,1.9-1.9c1,0,1.9,0.8,1.9,1.9
		C143.4,355.6,142.6,356.4,141.6,356.4z M141.6,351.4c-1,0-1.9-0.8-1.9-1.9c0-1,0.8-1.9,1.9-1.9c1,0,1.9,0.8,1.9,1.9
		C143.4,350.6,142.6,351.4,141.6,351.4z M141.6,346.4c-1,0-1.9-0.8-1.9-1.9c0-1,0.8-1.9,1.9-1.9c1,0,1.9,0.8,1.9,1.9
		C143.4,345.6,142.6,346.4,141.6,346.4z M141.6,341.5c-1,0-1.9-0.8-1.9-1.9c0-1,0.8-1.9,1.9-1.9c1,0,1.9,0.8,1.9,1.9
		C143.4,340.6,142.6,341.5,141.6,341.5z M141.6,336.5c-1,0-1.9-0.8-1.9-1.9c0-1,0.8-1.9,1.9-1.9c1,0,1.9,0.8,1.9,1.9
		C143.4,335.6,142.6,336.5,141.6,336.5z M141.6,331.5c-1,0-1.9-0.8-1.9-1.9c0-1,0.8-1.9,1.9-1.9c1,0,1.9,0.8,1.9,1.9
		C143.4,330.6,142.6,331.5,141.6,331.5z M141.6,326.5c-1,0-1.9-0.8-1.9-1.9c0-1,0.8-1.9,1.9-1.9c1,0,1.9,0.8,1.9,1.9
		C143.4,325.7,142.6,326.5,141.6,326.5z M141.6,321.5c-1,0-1.9-0.8-1.9-1.9c0-1,0.8-1.9,1.9-1.9c1,0,1.9,0.8,1.9,1.9
		C143.4,320.7,142.6,321.5,141.6,321.5z M141.6,316.5c-1,0-1.9-0.8-1.9-1.9c0-1,0.8-1.9,1.9-1.9c1,0,1.9,0.8,1.9,1.9
		C143.4,315.7,142.6,316.5,141.6,316.5z M141.6,311.5c-1,0-1.9-0.8-1.9-1.9c0-1,0.8-1.9,1.9-1.9c1,0,1.9,0.8,1.9,1.9
		C143.4,310.7,142.6,311.5,141.6,311.5z M146.8,356.4c-1,0-1.9-0.8-1.9-1.9c0-1,0.8-1.9,1.9-1.9c1,0,1.9,0.8,1.9,1.9
		C148.7,355.6,147.9,356.4,146.8,356.4z M146.8,351.4c-1,0-1.9-0.8-1.9-1.9c0-1,0.8-1.9,1.9-1.9c1,0,1.9,0.8,1.9,1.9
		C148.7,350.6,147.9,351.4,146.8,351.4z M146.8,346.4c-1,0-1.9-0.8-1.9-1.9c0-1,0.8-1.9,1.9-1.9c1,0,1.9,0.8,1.9,1.9
		C148.7,345.6,147.9,346.4,146.8,346.4z M146.8,341.5c-1,0-1.9-0.8-1.9-1.9c0-1,0.8-1.9,1.9-1.9c1,0,1.9,0.8,1.9,1.9
		C148.7,340.6,147.9,341.5,146.8,341.5z M146.8,336.5c-1,0-1.9-0.8-1.9-1.9c0-1,0.8-1.9,1.9-1.9c1,0,1.9,0.8,1.9,1.9
		C148.7,335.6,147.9,336.5,146.8,336.5z M146.8,331.5c-1,0-1.9-0.8-1.9-1.9c0-1,0.8-1.9,1.9-1.9c1,0,1.9,0.8,1.9,1.9
		C148.7,330.6,147.9,331.5,146.8,331.5z M146.8,326.5c-1,0-1.9-0.8-1.9-1.9c0-1,0.8-1.9,1.9-1.9c1,0,1.9,0.8,1.9,1.9
		C148.7,325.7,147.9,326.5,146.8,326.5z M146.8,321.5c-1,0-1.9-0.8-1.9-1.9c0-1,0.8-1.9,1.9-1.9c1,0,1.9,0.8,1.9,1.9
		C148.7,320.7,147.9,321.5,146.8,321.5z M146.8,316.5c-1,0-1.9-0.8-1.9-1.9c0-1,0.8-1.9,1.9-1.9c1,0,1.9,0.8,1.9,1.9
		C148.7,315.7,147.9,316.5,146.8,316.5z M146.8,311.5c-1,0-1.9-0.8-1.9-1.9c0-1,0.8-1.9,1.9-1.9c1,0,1.9,0.8,1.9,1.9
		C148.7,310.7,147.9,311.5,146.8,311.5z M152.1,356.4c-1,0-1.9-0.8-1.9-1.9c0-1,0.8-1.9,1.9-1.9c1,0,1.9,0.8,1.9,1.9
		C154,355.6,153.1,356.4,152.1,356.4z M152.1,351.4c-1,0-1.9-0.8-1.9-1.9c0-1,0.8-1.9,1.9-1.9c1,0,1.9,0.8,1.9,1.9
		C154,350.6,153.1,351.4,152.1,351.4z M152.1,346.4c-1,0-1.9-0.8-1.9-1.9c0-1,0.8-1.9,1.9-1.9c1,0,1.9,0.8,1.9,1.9
		C154,345.6,153.1,346.4,152.1,346.4z M152.1,341.5c-1,0-1.9-0.8-1.9-1.9c0-1,0.8-1.9,1.9-1.9c1,0,1.9,0.8,1.9,1.9
		C154,340.6,153.1,341.5,152.1,341.5z M152.1,336.5c-1,0-1.9-0.8-1.9-1.9c0-1,0.8-1.9,1.9-1.9c1,0,1.9,0.8,1.9,1.9
		C154,335.6,153.1,336.5,152.1,336.5z M152.1,331.5c-1,0-1.9-0.8-1.9-1.9c0-1,0.8-1.9,1.9-1.9c1,0,1.9,0.8,1.9,1.9
		C154,330.6,153.1,331.5,152.1,331.5z M152.1,326.5c-1,0-1.9-0.8-1.9-1.9c0-1,0.8-1.9,1.9-1.9c1,0,1.9,0.8,1.9,1.9
		C154,325.7,153.1,326.5,152.1,326.5z M152.1,321.5c-1,0-1.9-0.8-1.9-1.9c0-1,0.8-1.9,1.9-1.9c1,0,1.9,0.8,1.9,1.9
		C154,320.7,153.1,321.5,152.1,321.5z M152.1,316.5c-1,0-1.9-0.8-1.9-1.9c0-1,0.8-1.9,1.9-1.9c1,0,1.9,0.8,1.9,1.9
		C154,315.7,153.1,316.5,152.1,316.5z M152.1,311.5c-1,0-1.9-0.8-1.9-1.9c0-1,0.8-1.9,1.9-1.9c1,0,1.9,0.8,1.9,1.9
		C154,310.7,153.1,311.5,152.1,311.5z M157.4,356.4c-1,0-1.9-0.8-1.9-1.9c0-1,0.8-1.9,1.9-1.9c1,0,1.9,0.8,1.9,1.9
		C159.3,355.6,158.4,356.4,157.4,356.4z M157.4,351.4c-1,0-1.9-0.8-1.9-1.9c0-1,0.8-1.9,1.9-1.9c1,0,1.9,0.8,1.9,1.9
		C159.3,350.6,158.4,351.4,157.4,351.4z M157.4,346.4c-1,0-1.9-0.8-1.9-1.9c0-1,0.8-1.9,1.9-1.9c1,0,1.9,0.8,1.9,1.9
		C159.3,345.6,158.4,346.4,157.4,346.4z M157.4,341.5c-1,0-1.9-0.8-1.9-1.9c0-1,0.8-1.9,1.9-1.9c1,0,1.9,0.8,1.9,1.9
		C159.3,340.6,158.4,341.5,157.4,341.5z M157.4,336.5c-1,0-1.9-0.8-1.9-1.9c0-1,0.8-1.9,1.9-1.9c1,0,1.9,0.8,1.9,1.9
		C159.3,335.6,158.4,336.5,157.4,336.5z M157.4,331.5c-1,0-1.9-0.8-1.9-1.9c0-1,0.8-1.9,1.9-1.9c1,0,1.9,0.8,1.9,1.9
		C159.3,330.6,158.4,331.5,157.4,331.5z M157.4,326.5c-1,0-1.9-0.8-1.9-1.9c0-1,0.8-1.9,1.9-1.9c1,0,1.9,0.8,1.9,1.9
		C159.3,325.7,158.4,326.5,157.4,326.5z M157.4,321.5c-1,0-1.9-0.8-1.9-1.9c0-1,0.8-1.9,1.9-1.9c1,0,1.9,0.8,1.9,1.9
		C159.3,320.7,158.4,321.5,157.4,321.5z M157.4,316.5c-1,0-1.9-0.8-1.9-1.9c0-1,0.8-1.9,1.9-1.9c1,0,1.9,0.8,1.9,1.9
		C159.3,315.7,158.4,316.5,157.4,316.5z M157.4,311.5c-1,0-1.9-0.8-1.9-1.9c0-1,0.8-1.9,1.9-1.9c1,0,1.9,0.8,1.9,1.9
		C159.3,310.7,158.4,311.5,157.4,311.5z M162.6,356.4c-1,0-1.9-0.8-1.9-1.9c0-1,0.8-1.9,1.9-1.9c1,0,1.9,0.8,1.9,1.9
		C164.5,355.6,163.7,356.4,162.6,356.4z M162.6,351.4c-1,0-1.9-0.8-1.9-1.9c0-1,0.8-1.9,1.9-1.9c1,0,1.9,0.8,1.9,1.9
		C164.5,350.6,163.7,351.4,162.6,351.4z M162.6,346.4c-1,0-1.9-0.8-1.9-1.9c0-1,0.8-1.9,1.9-1.9c1,0,1.9,0.8,1.9,1.9
		C164.5,345.6,163.7,346.4,162.6,346.4z M162.6,341.5c-1,0-1.9-0.8-1.9-1.9c0-1,0.8-1.9,1.9-1.9c1,0,1.9,0.8,1.9,1.9
		C164.5,340.6,163.7,341.5,162.6,341.5z M162.6,336.5c-1,0-1.9-0.8-1.9-1.9c0-1,0.8-1.9,1.9-1.9c1,0,1.9,0.8,1.9,1.9
		C164.5,335.6,163.7,336.5,162.6,336.5z M162.6,331.5c-1,0-1.9-0.8-1.9-1.9c0-1,0.8-1.9,1.9-1.9c1,0,1.9,0.8,1.9,1.9
		C164.5,330.6,163.7,331.5,162.6,331.5z M162.6,326.5c-1,0-1.9-0.8-1.9-1.9c0-1,0.8-1.9,1.9-1.9c1,0,1.9,0.8,1.9,1.9
		C164.5,325.7,163.7,326.5,162.6,326.5z M162.6,321.5c-1,0-1.9-0.8-1.9-1.9c0-1,0.8-1.9,1.9-1.9c1,0,1.9,0.8,1.9,1.9
		C164.5,320.7,163.7,321.5,162.6,321.5z M162.6,316.5c-1,0-1.9-0.8-1.9-1.9c0-1,0.8-1.9,1.9-1.9c1,0,1.9,0.8,1.9,1.9
		C164.5,315.7,163.7,316.5,162.6,316.5z M162.6,311.5c-1,0-1.9-0.8-1.9-1.9c0-1,0.8-1.9,1.9-1.9c1,0,1.9,0.8,1.9,1.9
		C164.5,310.7,163.7,311.5,162.6,311.5z M167.9,356.4c-1,0-1.9-0.8-1.9-1.9c0-1,0.8-1.9,1.9-1.9c1,0,1.9,0.8,1.9,1.9
		C169.8,355.6,169,356.4,167.9,356.4z M167.9,351.4c-1,0-1.9-0.8-1.9-1.9c0-1,0.8-1.9,1.9-1.9c1,0,1.9,0.8,1.9,1.9
		C169.8,350.6,169,351.4,167.9,351.4z M167.9,346.4c-1,0-1.9-0.8-1.9-1.9c0-1,0.8-1.9,1.9-1.9c1,0,1.9,0.8,1.9,1.9
		C169.8,345.6,169,346.4,167.9,346.4z M167.9,341.5c-1,0-1.9-0.8-1.9-1.9c0-1,0.8-1.9,1.9-1.9c1,0,1.9,0.8,1.9,1.9
		C169.8,340.6,169,341.5,167.9,341.5z M167.9,336.5c-1,0-1.9-0.8-1.9-1.9c0-1,0.8-1.9,1.9-1.9c1,0,1.9,0.8,1.9,1.9
		C169.8,335.6,169,336.5,167.9,336.5z M167.9,331.5c-1,0-1.9-0.8-1.9-1.9c0-1,0.8-1.9,1.9-1.9c1,0,1.9,0.8,1.9,1.9
		C169.8,330.6,169,331.5,167.9,331.5z M167.9,326.5c-1,0-1.9-0.8-1.9-1.9c0-1,0.8-1.9,1.9-1.9c1,0,1.9,0.8,1.9,1.9
		C169.8,325.7,169,326.5,167.9,326.5z M167.9,321.5c-1,0-1.9-0.8-1.9-1.9c0-1,0.8-1.9,1.9-1.9c1,0,1.9,0.8,1.9,1.9
		C169.8,320.7,169,321.5,167.9,321.5z M167.9,316.5c-1,0-1.9-0.8-1.9-1.9c0-1,0.8-1.9,1.9-1.9c1,0,1.9,0.8,1.9,1.9
		C169.8,315.7,169,316.5,167.9,316.5z M167.9,311.5c-1,0-1.9-0.8-1.9-1.9c0-1,0.8-1.9,1.9-1.9c1,0,1.9,0.8,1.9,1.9
		C169.8,310.7,169,311.5,167.9,311.5z M173.2,356.4c-1,0-1.9-0.8-1.9-1.9c0-1,0.8-1.9,1.9-1.9c1,0,1.9,0.8,1.9,1.9
		C175.1,355.6,174.2,356.4,173.2,356.4z M173.2,351.4c-1,0-1.9-0.8-1.9-1.9c0-1,0.8-1.9,1.9-1.9c1,0,1.9,0.8,1.9,1.9
		C175.1,350.6,174.2,351.4,173.2,351.4z M173.2,346.4c-1,0-1.9-0.8-1.9-1.9c0-1,0.8-1.9,1.9-1.9c1,0,1.9,0.8,1.9,1.9
		C175.1,345.6,174.2,346.4,173.2,346.4z M173.2,341.5c-1,0-1.9-0.8-1.9-1.9c0-1,0.8-1.9,1.9-1.9c1,0,1.9,0.8,1.9,1.9
		C175.1,340.6,174.2,341.5,173.2,341.5z M173.2,336.5c-1,0-1.9-0.8-1.9-1.9c0-1,0.8-1.9,1.9-1.9c1,0,1.9,0.8,1.9,1.9
		C175.1,335.6,174.2,336.5,173.2,336.5z M173.2,331.5c-1,0-1.9-0.8-1.9-1.9c0-1,0.8-1.9,1.9-1.9c1,0,1.9,0.8,1.9,1.9
		C175.1,330.6,174.2,331.5,173.2,331.5z M173.2,326.5c-1,0-1.9-0.8-1.9-1.9c0-1,0.8-1.9,1.9-1.9c1,0,1.9,0.8,1.9,1.9
		C175.1,325.7,174.2,326.5,173.2,326.5z M173.2,321.5c-1,0-1.9-0.8-1.9-1.9c0-1,0.8-1.9,1.9-1.9c1,0,1.9,0.8,1.9,1.9
		C175.1,320.7,174.2,321.5,173.2,321.5z M173.2,316.5c-1,0-1.9-0.8-1.9-1.9c0-1,0.8-1.9,1.9-1.9c1,0,1.9,0.8,1.9,1.9
		C175.1,315.7,174.2,316.5,173.2,316.5z M173.2,311.5c-1,0-1.9-0.8-1.9-1.9c0-1,0.8-1.9,1.9-1.9c1,0,1.9,0.8,1.9,1.9
		C175.1,310.7,174.2,311.5,173.2,311.5z M178.5,356.4c-1,0-1.9-0.8-1.9-1.9c0-1,0.8-1.9,1.9-1.9c1,0,1.9,0.8,1.9,1.9
		C180.3,355.6,179.5,356.4,178.5,356.4z M178.5,351.4c-1,0-1.9-0.8-1.9-1.9c0-1,0.8-1.9,1.9-1.9c1,0,1.9,0.8,1.9,1.9
		C180.3,350.6,179.5,351.4,178.5,351.4z M178.5,346.4c-1,0-1.9-0.8-1.9-1.9c0-1,0.8-1.9,1.9-1.9c1,0,1.9,0.8,1.9,1.9
		C180.3,345.6,179.5,346.4,178.5,346.4z M178.5,341.5c-1,0-1.9-0.8-1.9-1.9c0-1,0.8-1.9,1.9-1.9c1,0,1.9,0.8,1.9,1.9
		C180.3,340.6,179.5,341.5,178.5,341.5z M178.5,336.5c-1,0-1.9-0.8-1.9-1.9c0-1,0.8-1.9,1.9-1.9c1,0,1.9,0.8,1.9,1.9
		C180.3,335.6,179.5,336.5,178.5,336.5z M178.5,331.5c-1,0-1.9-0.8-1.9-1.9c0-1,0.8-1.9,1.9-1.9c1,0,1.9,0.8,1.9,1.9
		C180.3,330.6,179.5,331.5,178.5,331.5z M178.5,326.5c-1,0-1.9-0.8-1.9-1.9c0-1,0.8-1.9,1.9-1.9c1,0,1.9,0.8,1.9,1.9
		C180.3,325.7,179.5,326.5,178.5,326.5z M178.5,321.5c-1,0-1.9-0.8-1.9-1.9c0-1,0.8-1.9,1.9-1.9c1,0,1.9,0.8,1.9,1.9
		C180.3,320.7,179.5,321.5,178.5,321.5z M178.5,316.5c-1,0-1.9-0.8-1.9-1.9c0-1,0.8-1.9,1.9-1.9c1,0,1.9,0.8,1.9,1.9
		C180.3,315.7,179.5,316.5,178.5,316.5z M178.5,311.5c-1,0-1.9-0.8-1.9-1.9c0-1,0.8-1.9,1.9-1.9c1,0,1.9,0.8,1.9,1.9
		C180.3,310.7,179.5,311.5,178.5,311.5z M183.7,356.4c-1,0-1.9-0.8-1.9-1.9c0-1,0.8-1.9,1.9-1.9c1,0,1.9,0.8,1.9,1.9
		C185.6,355.6,184.8,356.4,183.7,356.4z M183.7,351.4c-1,0-1.9-0.8-1.9-1.9c0-1,0.8-1.9,1.9-1.9c1,0,1.9,0.8,1.9,1.9
		C185.6,350.6,184.8,351.4,183.7,351.4z M183.7,346.4c-1,0-1.9-0.8-1.9-1.9c0-1,0.8-1.9,1.9-1.9c1,0,1.9,0.8,1.9,1.9
		C185.6,345.6,184.8,346.4,183.7,346.4z M183.7,341.5c-1,0-1.9-0.8-1.9-1.9c0-1,0.8-1.9,1.9-1.9c1,0,1.9,0.8,1.9,1.9
		C185.6,340.6,184.8,341.5,183.7,341.5z M183.7,336.5c-1,0-1.9-0.8-1.9-1.9c0-1,0.8-1.9,1.9-1.9c1,0,1.9,0.8,1.9,1.9
		C185.6,335.6,184.8,336.5,183.7,336.5z M183.7,331.5c-1,0-1.9-0.8-1.9-1.9c0-1,0.8-1.9,1.9-1.9c1,0,1.9,0.8,1.9,1.9
		C185.6,330.6,184.8,331.5,183.7,331.5z M183.7,326.5c-1,0-1.9-0.8-1.9-1.9c0-1,0.8-1.9,1.9-1.9c1,0,1.9,0.8,1.9,1.9
		C185.6,325.7,184.8,326.5,183.7,326.5z M183.7,321.5c-1,0-1.9-0.8-1.9-1.9c0-1,0.8-1.9,1.9-1.9c1,0,1.9,0.8,1.9,1.9
		C185.6,320.7,184.8,321.5,183.7,321.5z M183.7,316.5c-1,0-1.9-0.8-1.9-1.9c0-1,0.8-1.9,1.9-1.9c1,0,1.9,0.8,1.9,1.9
		C185.6,315.7,184.8,316.5,183.7,316.5z M183.7,311.5c-1,0-1.9-0.8-1.9-1.9c0-1,0.8-1.9,1.9-1.9c1,0,1.9,0.8,1.9,1.9
		C185.6,310.7,184.8,311.5,183.7,311.5z M189,356.4c-1,0-1.9-0.8-1.9-1.9c0-1,0.8-1.9,1.9-1.9c1,0,1.9,0.8,1.9,1.9
		C190.9,355.6,190,356.4,189,356.4z M189,351.4c-1,0-1.9-0.8-1.9-1.9c0-1,0.8-1.9,1.9-1.9c1,0,1.9,0.8,1.9,1.9
		C190.9,350.6,190,351.4,189,351.4z M189,346.4c-1,0-1.9-0.8-1.9-1.9c0-1,0.8-1.9,1.9-1.9c1,0,1.9,0.8,1.9,1.9
		C190.9,345.6,190,346.4,189,346.4z M189,341.5c-1,0-1.9-0.8-1.9-1.9c0-1,0.8-1.9,1.9-1.9c1,0,1.9,0.8,1.9,1.9
		C190.9,340.6,190,341.5,189,341.5z M189,336.5c-1,0-1.9-0.8-1.9-1.9c0-1,0.8-1.9,1.9-1.9c1,0,1.9,0.8,1.9,1.9
		C190.9,335.6,190,336.5,189,336.5z M189,331.5c-1,0-1.9-0.8-1.9-1.9c0-1,0.8-1.9,1.9-1.9c1,0,1.9,0.8,1.9,1.9
		C190.9,330.6,190,331.5,189,331.5z M189,326.5c-1,0-1.9-0.8-1.9-1.9c0-1,0.8-1.9,1.9-1.9c1,0,1.9,0.8,1.9,1.9
		C190.9,325.7,190,326.5,189,326.5z M189,321.5c-1,0-1.9-0.8-1.9-1.9c0-1,0.8-1.9,1.9-1.9c1,0,1.9,0.8,1.9,1.9
		C190.9,320.7,190,321.5,189,321.5z M189,316.5c-1,0-1.9-0.8-1.9-1.9c0-1,0.8-1.9,1.9-1.9c1,0,1.9,0.8,1.9,1.9
		C190.9,315.7,190,316.5,189,316.5z M189,311.5c-1,0-1.9-0.8-1.9-1.9c0-1,0.8-1.9,1.9-1.9c1,0,1.9,0.8,1.9,1.9
		C190.9,310.7,190,311.5,189,311.5z M194.3,356.4c-1,0-1.9-0.8-1.9-1.9c0-1,0.8-1.9,1.9-1.9c1,0,1.9,0.8,1.9,1.9
		C196.2,355.6,195.3,356.4,194.3,356.4z M194.3,351.4c-1,0-1.9-0.8-1.9-1.9c0-1,0.8-1.9,1.9-1.9c1,0,1.9,0.8,1.9,1.9
		C196.2,350.6,195.3,351.4,194.3,351.4z M194.3,346.4c-1,0-1.9-0.8-1.9-1.9c0-1,0.8-1.9,1.9-1.9c1,0,1.9,0.8,1.9,1.9
		C196.2,345.6,195.3,346.4,194.3,346.4z M194.3,341.5c-1,0-1.9-0.8-1.9-1.9c0-1,0.8-1.9,1.9-1.9c1,0,1.9,0.8,1.9,1.9
		C196.2,340.6,195.3,341.5,194.3,341.5z M194.3,336.5c-1,0-1.9-0.8-1.9-1.9c0-1,0.8-1.9,1.9-1.9c1,0,1.9,0.8,1.9,1.9
		C196.2,335.6,195.3,336.5,194.3,336.5z M194.3,331.5c-1,0-1.9-0.8-1.9-1.9c0-1,0.8-1.9,1.9-1.9c1,0,1.9,0.8,1.9,1.9
		C196.2,330.6,195.3,331.5,194.3,331.5z M194.3,326.5c-1,0-1.9-0.8-1.9-1.9c0-1,0.8-1.9,1.9-1.9c1,0,1.9,0.8,1.9,1.9
		C196.2,325.7,195.3,326.5,194.3,326.5z M194.3,321.5c-1,0-1.9-0.8-1.9-1.9c0-1,0.8-1.9,1.9-1.9c1,0,1.9,0.8,1.9,1.9
		C196.2,320.7,195.3,321.5,194.3,321.5z M194.3,316.5c-1,0-1.9-0.8-1.9-1.9c0-1,0.8-1.9,1.9-1.9c1,0,1.9,0.8,1.9,1.9
		C196.2,315.7,195.3,316.5,194.3,316.5z M194.3,311.5c-1,0-1.9-0.8-1.9-1.9c0-1,0.8-1.9,1.9-1.9c1,0,1.9,0.8,1.9,1.9
		C196.2,310.7,195.3,311.5,194.3,311.5z M199.6,356.4c-1,0-1.9-0.8-1.9-1.9c0-1,0.8-1.9,1.9-1.9c1,0,1.9,0.8,1.9,1.9
		C201.4,355.6,200.6,356.4,199.6,356.4z M199.6,351.4c-1,0-1.9-0.8-1.9-1.9c0-1,0.8-1.9,1.9-1.9c1,0,1.9,0.8,1.9,1.9
		C201.4,350.6,200.6,351.4,199.6,351.4z M199.6,346.4c-1,0-1.9-0.8-1.9-1.9c0-1,0.8-1.9,1.9-1.9c1,0,1.9,0.8,1.9,1.9
		C201.4,345.6,200.6,346.4,199.6,346.4z M199.6,341.5c-1,0-1.9-0.8-1.9-1.9c0-1,0.8-1.9,1.9-1.9c1,0,1.9,0.8,1.9,1.9
		C201.4,340.6,200.6,341.5,199.6,341.5z M199.6,336.5c-1,0-1.9-0.8-1.9-1.9c0-1,0.8-1.9,1.9-1.9c1,0,1.9,0.8,1.9,1.9
		C201.4,335.6,200.6,336.5,199.6,336.5z M199.6,331.5c-1,0-1.9-0.8-1.9-1.9c0-1,0.8-1.9,1.9-1.9c1,0,1.9,0.8,1.9,1.9
		C201.4,330.6,200.6,331.5,199.6,331.5z M199.6,326.5c-1,0-1.9-0.8-1.9-1.9c0-1,0.8-1.9,1.9-1.9c1,0,1.9,0.8,1.9,1.9
		C201.4,325.7,200.6,326.5,199.6,326.5z M199.6,321.5c-1,0-1.9-0.8-1.9-1.9c0-1,0.8-1.9,1.9-1.9c1,0,1.9,0.8,1.9,1.9
		C201.4,320.7,200.6,321.5,199.6,321.5z M199.6,316.5c-1,0-1.9-0.8-1.9-1.9c0-1,0.8-1.9,1.9-1.9c1,0,1.9,0.8,1.9,1.9
		C201.4,315.7,200.6,316.5,199.6,316.5z M199.6,311.5c-1,0-1.9-0.8-1.9-1.9c0-1,0.8-1.9,1.9-1.9c1,0,1.9,0.8,1.9,1.9
		C201.4,310.7,200.6,311.5,199.6,311.5z M204.8,356.4c-1,0-1.9-0.8-1.9-1.9c0-1,0.8-1.9,1.9-1.9c1,0,1.9,0.8,1.9,1.9
		C206.7,355.6,205.9,356.4,204.8,356.4z M204.8,351.4c-1,0-1.9-0.8-1.9-1.9c0-1,0.8-1.9,1.9-1.9c1,0,1.9,0.8,1.9,1.9
		C206.7,350.6,205.9,351.4,204.8,351.4z M204.8,346.4c-1,0-1.9-0.8-1.9-1.9c0-1,0.8-1.9,1.9-1.9c1,0,1.9,0.8,1.9,1.9
		C206.7,345.6,205.9,346.4,204.8,346.4z M204.8,341.5c-1,0-1.9-0.8-1.9-1.9c0-1,0.8-1.9,1.9-1.9c1,0,1.9,0.8,1.9,1.9
		C206.7,340.6,205.9,341.5,204.8,341.5z M204.8,336.5c-1,0-1.9-0.8-1.9-1.9c0-1,0.8-1.9,1.9-1.9c1,0,1.9,0.8,1.9,1.9
		C206.7,335.6,205.9,336.5,204.8,336.5z M204.8,331.5c-1,0-1.9-0.8-1.9-1.9c0-1,0.8-1.9,1.9-1.9c1,0,1.9,0.8,1.9,1.9
		C206.7,330.6,205.9,331.5,204.8,331.5z M204.8,326.5c-1,0-1.9-0.8-1.9-1.9c0-1,0.8-1.9,1.9-1.9c1,0,1.9,0.8,1.9,1.9
		C206.7,325.7,205.9,326.5,204.8,326.5z M204.8,321.5c-1,0-1.9-0.8-1.9-1.9c0-1,0.8-1.9,1.9-1.9c1,0,1.9,0.8,1.9,1.9
		C206.7,320.7,205.9,321.5,204.8,321.5z M204.8,316.5c-1,0-1.9-0.8-1.9-1.9c0-1,0.8-1.9,1.9-1.9c1,0,1.9,0.8,1.9,1.9
		C206.7,315.7,205.9,316.5,204.8,316.5z M204.8,311.5c-1,0-1.9-0.8-1.9-1.9c0-1,0.8-1.9,1.9-1.9c1,0,1.9,0.8,1.9,1.9
		C206.7,310.7,205.9,311.5,204.8,311.5z M210.1,356.4c-1,0-1.9-0.8-1.9-1.9c0-1,0.8-1.9,1.9-1.9c1,0,1.9,0.8,1.9,1.9
		C212,355.6,211.1,356.4,210.1,356.4z M210.1,351.4c-1,0-1.9-0.8-1.9-1.9c0-1,0.8-1.9,1.9-1.9c1,0,1.9,0.8,1.9,1.9
		C212,350.6,211.1,351.4,210.1,351.4z M210.1,346.4c-1,0-1.9-0.8-1.9-1.9c0-1,0.8-1.9,1.9-1.9c1,0,1.9,0.8,1.9,1.9
		C212,345.6,211.1,346.4,210.1,346.4z M210.1,341.5c-1,0-1.9-0.8-1.9-1.9c0-1,0.8-1.9,1.9-1.9c1,0,1.9,0.8,1.9,1.9
		C212,340.6,211.1,341.5,210.1,341.5z M210.1,336.5c-1,0-1.9-0.8-1.9-1.9c0-1,0.8-1.9,1.9-1.9c1,0,1.9,0.8,1.9,1.9
		C212,335.6,211.1,336.5,210.1,336.5z M210.1,331.5c-1,0-1.9-0.8-1.9-1.9c0-1,0.8-1.9,1.9-1.9c1,0,1.9,0.8,1.9,1.9
		C212,330.6,211.1,331.5,210.1,331.5z M210.1,326.5c-1,0-1.9-0.8-1.9-1.9c0-1,0.8-1.9,1.9-1.9c1,0,1.9,0.8,1.9,1.9
		C212,325.7,211.1,326.5,210.1,326.5z M210.1,321.5c-1,0-1.9-0.8-1.9-1.9c0-1,0.8-1.9,1.9-1.9c1,0,1.9,0.8,1.9,1.9
		C212,320.7,211.1,321.5,210.1,321.5z M210.1,316.5c-1,0-1.9-0.8-1.9-1.9c0-1,0.8-1.9,1.9-1.9c1,0,1.9,0.8,1.9,1.9
		C212,315.7,211.1,316.5,210.1,316.5z M210.1,311.5c-1,0-1.9-0.8-1.9-1.9c0-1,0.8-1.9,1.9-1.9c1,0,1.9,0.8,1.9,1.9
		C212,310.7,211.1,311.5,210.1,311.5z M215.4,356.4c-1,0-1.9-0.8-1.9-1.9c0-1,0.8-1.9,1.9-1.9c1,0,1.9,0.8,1.9,1.9
		C217.3,355.6,216.4,356.4,215.4,356.4z M215.4,351.4c-1,0-1.9-0.8-1.9-1.9c0-1,0.8-1.9,1.9-1.9c1,0,1.9,0.8,1.9,1.9
		C217.3,350.6,216.4,351.4,215.4,351.4z M215.4,346.4c-1,0-1.9-0.8-1.9-1.9c0-1,0.8-1.9,1.9-1.9c1,0,1.9,0.8,1.9,1.9
		C217.3,345.6,216.4,346.4,215.4,346.4z M215.4,341.5c-1,0-1.9-0.8-1.9-1.9c0-1,0.8-1.9,1.9-1.9c1,0,1.9,0.8,1.9,1.9
		C217.3,340.6,216.4,341.5,215.4,341.5z M215.4,336.5c-1,0-1.9-0.8-1.9-1.9c0-1,0.8-1.9,1.9-1.9c1,0,1.9,0.8,1.9,1.9
		C217.3,335.6,216.4,336.5,215.4,336.5z M215.4,331.5c-1,0-1.9-0.8-1.9-1.9c0-1,0.8-1.9,1.9-1.9c1,0,1.9,0.8,1.9,1.9
		C217.3,330.6,216.4,331.5,215.4,331.5z M215.4,326.5c-1,0-1.9-0.8-1.9-1.9c0-1,0.8-1.9,1.9-1.9c1,0,1.9,0.8,1.9,1.9
		C217.3,325.7,216.4,326.5,215.4,326.5z M215.4,321.5c-1,0-1.9-0.8-1.9-1.9c0-1,0.8-1.9,1.9-1.9c1,0,1.9,0.8,1.9,1.9
		C217.3,320.7,216.4,321.5,215.4,321.5z M215.4,316.5c-1,0-1.9-0.8-1.9-1.9c0-1,0.8-1.9,1.9-1.9c1,0,1.9,0.8,1.9,1.9
		C217.3,315.7,216.4,316.5,215.4,316.5z M215.4,311.5c-1,0-1.9-0.8-1.9-1.9c0-1,0.8-1.9,1.9-1.9c1,0,1.9,0.8,1.9,1.9
		C217.3,310.7,216.4,311.5,215.4,311.5z M220.6,356.4c-1,0-1.9-0.8-1.9-1.9c0-1,0.8-1.9,1.9-1.9c1,0,1.9,0.8,1.9,1.9
		C222.5,355.6,221.7,356.4,220.6,356.4z M220.6,351.4c-1,0-1.9-0.8-1.9-1.9c0-1,0.8-1.9,1.9-1.9c1,0,1.9,0.8,1.9,1.9
		C222.5,350.6,221.7,351.4,220.6,351.4z M220.6,346.4c-1,0-1.9-0.8-1.9-1.9c0-1,0.8-1.9,1.9-1.9c1,0,1.9,0.8,1.9,1.9
		C222.5,345.6,221.7,346.4,220.6,346.4z M220.6,341.5c-1,0-1.9-0.8-1.9-1.9c0-1,0.8-1.9,1.9-1.9c1,0,1.9,0.8,1.9,1.9
		C222.5,340.6,221.7,341.5,220.6,341.5z M220.6,336.5c-1,0-1.9-0.8-1.9-1.9c0-1,0.8-1.9,1.9-1.9c1,0,1.9,0.8,1.9,1.9
		C222.5,335.6,221.7,336.5,220.6,336.5z M220.6,331.5c-1,0-1.9-0.8-1.9-1.9c0-1,0.8-1.9,1.9-1.9c1,0,1.9,0.8,1.9,1.9
		C222.5,330.6,221.7,331.5,220.6,331.5z M220.6,326.5c-1,0-1.9-0.8-1.9-1.9c0-1,0.8-1.9,1.9-1.9c1,0,1.9,0.8,1.9,1.9
		C222.5,325.7,221.7,326.5,220.6,326.5z M220.6,321.5c-1,0-1.9-0.8-1.9-1.9c0-1,0.8-1.9,1.9-1.9c1,0,1.9,0.8,1.9,1.9
		C222.5,320.7,221.7,321.5,220.6,321.5z M220.6,316.5c-1,0-1.9-0.8-1.9-1.9c0-1,0.8-1.9,1.9-1.9c1,0,1.9,0.8,1.9,1.9
		C222.5,315.7,221.7,316.5,220.6,316.5z M220.6,311.5c-1,0-1.9-0.8-1.9-1.9c0-1,0.8-1.9,1.9-1.9c1,0,1.9,0.8,1.9,1.9
		C222.5,310.7,221.7,311.5,220.6,311.5z M225.9,356.4c-1,0-1.9-0.8-1.9-1.9c0-1,0.8-1.9,1.9-1.9c1,0,1.9,0.8,1.9,1.9
		C227.8,355.6,227,356.4,225.9,356.4z M225.9,351.4c-1,0-1.9-0.8-1.9-1.9c0-1,0.8-1.9,1.9-1.9c1,0,1.9,0.8,1.9,1.9
		C227.8,350.6,227,351.4,225.9,351.4z M225.9,346.4c-1,0-1.9-0.8-1.9-1.9c0-1,0.8-1.9,1.9-1.9c1,0,1.9,0.8,1.9,1.9
		C227.8,345.6,227,346.4,225.9,346.4z M225.9,341.5c-1,0-1.9-0.8-1.9-1.9c0-1,0.8-1.9,1.9-1.9c1,0,1.9,0.8,1.9,1.9
		C227.8,340.6,227,341.5,225.9,341.5z M225.9,336.5c-1,0-1.9-0.8-1.9-1.9c0-1,0.8-1.9,1.9-1.9c1,0,1.9,0.8,1.9,1.9
		C227.8,335.6,227,336.5,225.9,336.5z M225.9,331.5c-1,0-1.9-0.8-1.9-1.9c0-1,0.8-1.9,1.9-1.9c1,0,1.9,0.8,1.9,1.9
		C227.8,330.6,227,331.5,225.9,331.5z M225.9,326.5c-1,0-1.9-0.8-1.9-1.9c0-1,0.8-1.9,1.9-1.9c1,0,1.9,0.8,1.9,1.9
		C227.8,325.7,227,326.5,225.9,326.5z M225.9,321.5c-1,0-1.9-0.8-1.9-1.9c0-1,0.8-1.9,1.9-1.9c1,0,1.9,0.8,1.9,1.9
		C227.8,320.7,227,321.5,225.9,321.5z M225.9,316.5c-1,0-1.9-0.8-1.9-1.9c0-1,0.8-1.9,1.9-1.9c1,0,1.9,0.8,1.9,1.9
		C227.8,315.7,227,316.5,225.9,316.5z M225.9,311.5c-1,0-1.9-0.8-1.9-1.9c0-1,0.8-1.9,1.9-1.9c1,0,1.9,0.8,1.9,1.9
		C227.8,310.7,227,311.5,225.9,311.5z"/>
	<g>
		<g>
			<g>
				<g>
					<g>
						<path class="st15" d="M75.9,226.8l-4,2.2l-2.1-2l14.3-7.6l2.6,2.5l-7.1,14.6l-2.2-2.1l2-4.1L75.9,226.8z M80.5,228.3l1.8-3.6
							c0.4-0.9,1-1.8,1.5-2.6l0,0c-0.8,0.5-1.7,1.1-2.5,1.6l-3.5,1.9L80.5,228.3z"/>
					</g>
				</g>
			</g>
			<g>
				<g>
					<g>
						<path class="st15" d="M25.5,163.5v6.2H32v-6.2h2.8v15.4H32v-6.8h-6.5v6.8h-2.8v-15.4H25.5z"/>
					</g>
				</g>
			</g>
			<g>
				<g>
					<g>
						<path class="st15" d="M41.6,214.5l-1.1,8.9c-0.4,3,0.7,4.5,2.6,4.8c2,0.3,3.4-1,3.8-4l1.1-8.9l2.8,0.4l-1.1,8.7
							c-0.6,4.7-3.3,6.5-7,6c-3.5-0.5-5.6-2.7-5-7.5l1.1-8.8L41.6,214.5z"/>
					</g>
				</g>
			</g>
			<g>
				<g>
					<g>
						<path class="st15" d="M144.9,178.9v-15.4h3.2l4,6.6c1,1.7,1.9,3.5,2.6,5.2h0c-0.2-2.1-0.3-4-0.3-6.4v-5.4h2.6v15.4h-2.9
							l-4-6.8c-1-1.7-2-3.6-2.8-5.3l-0.1,0c0.1,2,0.1,4,0.1,6.6v5.5H144.9z"/>
					</g>
				</g>
			</g>
			<g>
				<g>
					<g>
						<path class="st15" d="M95.1,172.6c-0.1-2-0.2-4.4-0.2-6.5h-0.1c-0.5,1.9-1.1,4-1.8,5.9l-2.2,6.7h-2.2l-2.1-6.6
							c-0.6-2-1.1-4.1-1.6-6h0c-0.1,2-0.2,4.5-0.3,6.6l-0.3,6.2h-2.6l1-15.4h3.7l2,6.2c0.5,1.8,1,3.6,1.4,5.4h0.1
							c0.4-1.7,0.9-3.6,1.5-5.4l2.1-6.2h3.7l0.9,15.4h-2.7L95.1,172.6z"/>
					</g>
				</g>
			</g>
		</g>
	</g>
	<g>
		<g>
			<g>
				<rect x="48.5" y="179.7" class="st4" width="21.6" height="3.7"/>
			</g>
			<g>
				<rect x="109.6" y="179.7" class="st4" width="21.6" height="3.7"/>
			</g>
		</g>
	</g>
	<rect x="229" y="305.8" class="st11" width="7.3" height="52.2"/>
	<rect x="83.6" y="305.8" class="st11" width="7.3" height="52.2"/>
	<rect x="83.6" y="358" class="st16" width="152.7" height="4.5"/>
	<rect x="144.5" y="323.8" class="st11" width="30.8" height="19.5"/>
	<rect x="147.9" y="326.9" class="st1" width="24" height="13.3"/>
	<path class="st9" d="M161,295c0.6,2.1-0.6,3.9-2.8,3.9h-32.3c-2.1,0-4.4-1.7-5-3.9l-15.7-55.5c-0.6-2.1,0.6-3.9,2.8-3.9h32.3
		c2.1,0,4.4,1.7,5,3.9L161,295z"/>
	<path class="st8" d="M165.2,295c0.6,2.1-0.6,3.9-2.8,3.9h-32.3c-2.1,0-4.4-1.7-5-3.9l-15.7-55.5c-0.6-2.1,0.6-3.9,2.8-3.9h32.3
		c2.1,0,4.4,1.7,5,3.9L165.2,295z"/>
	<polygon class="st17" points="159.4,291.4 128.9,291.4 115.3,243.2 145.8,243.2 	"/>
	<g>
		<path class="st18" d="M131.4,252.9c-1.3-1.5-3.7-1.7-5.3-3.9H125l0.2,0.9l0.9,3.4l1.8,6.2c-0.4-0.2-0.8-0.3-1.2-0.3
			c-1.2,0-1.9,1-1.6,2.2c0.3,1.2,1.6,2.2,2.8,2.2c1.2,0,1.9-1,1.6-2.2l-2.3-8.1l-0.1-0.2l-0.3-1.1c0.5,0.9,1.3,1.3,2.9,2.2
			c1.7,0.9,2,3.8,2,3.8C132.8,256.4,132.7,254.3,131.4,252.9z"/>
		<path class="st18" d="M147,264l-14,3.3l1.3,4.6l2.4,8.6c-0.5-0.3-1.1-0.4-1.6-0.4c-1.7,0-2.6,1.4-2.2,3c0.5,1.7,2.2,3,3.9,3
			c1.7,0,2.6-1.4,2.2-3l-3.2-11.5l11.1-2.6l2.4,8.6c-0.5-0.3-1.1-0.4-1.6-0.4c-1.7,0-2.6,1.4-2.2,3c0.5,1.7,2.2,3,3.9,3
			c1.7,0,2.6-1.4,2.2-3L147,264z"/>
		<path class="st18" d="M137.8,243.2l0.1,0.2l1.4,4.8c-0.3-0.1-0.6-0.2-0.9-0.2c-0.9,0-1.5,0.8-1.2,1.7c0.3,0.9,1.2,1.7,2.2,1.7
			c0.9,0,1.5-0.8,1.2-1.7l-1.8-6.3l-0.1-0.2H137.8z"/>
	</g>
	<path class="st9" d="M147.3,295.4c0.3,1.1-0.3,2-1.5,2c-1.1,0-2.3-0.9-2.6-2c-0.3-1.1,0.3-2,1.5-2
		C145.8,293.3,147,294.2,147.3,295.4z"/>
	<path class="st9" d="M135.2,239.4c0.2,0.6-0.2,1.2-0.8,1.2c-0.6,0-1.3-0.5-1.5-1.2c-0.2-0.6,0.2-1.2,0.8-1.2
		C134.3,238.2,135,238.7,135.2,239.4z"/>
	<path class="st9" d="M129.7,238.2h-5.1c-0.6,0-1,0.5-0.8,1.2c0.2,0.6,0.9,1.2,1.5,1.2h5.1c0.6,0,1-0.5,0.8-1.2
		C131,238.7,130.3,238.2,129.7,238.2z"/>
	<rect x="50.9" y="273.8" class="st19" width="8.3" height="3.6"/>
	<rect x="49.9" y="263.5" class="st7" width="10.3" height="11.6"/>
	<rect x="49.9" y="276.7" class="st7" width="10.3" height="1.3"/>
	<path class="st20" d="M167.4,148.5h-155c-1.4,0-2.5,1.1-2.5,2.5v0.9h153.4c1.4,0,2.5,1.1,2.5,2.5v110.1h1.6c1.4,0,2.5-1.1,2.5-2.5
		v-111C169.9,149.6,168.8,148.5,167.4,148.5z"/>
</g>
</svg>
