<?xml version="1.0" encoding="utf-8"?>
<!-- Generator: Adobe Illustrator 19.2.0, SVG Export Plug-In . SVG Version: 6.00 Build 0)  -->
<svg version="1.1" id="Layer_1" xmlns="http://www.w3.org/2000/svg"  x="0px" y="0px"
	 viewBox="0 0 300 354" style="enable-background:new 0 0 300 354;" xml:space="preserve">
<style type="text/css">
	.st0{fill:#8CC2DA;}
	.st1{fill:#00884B;}
	.st2{fill:#009850;}
	.st3{fill:#00A257;}
	.st4{fill:#02AE63;}
	.st5{fill:#784C33;}
	.st6{fill:#F1ECD4;}
	.st7{fill:#E9E0C6;}
	.st8{fill:#65B2C9;}
	.st9{fill:#DFD5BC;}
	.st10{fill:#6D442F;}
	.st11{fill:#A58069;}
	.st12{fill:#F5DC6E;}
	.st13{fill:#C29575;}
	.st14{fill:#EBECE3;}
	.st15{fill:#327DAF;}
	.st16{opacity:0.1;}
	.st17{fill:#FFFFFF;}
	.st18{fill:#EACF62;}
	.st19{fill:#E4E2D9;}
	.st20{fill:#314E51;}
	.st21{fill:#D65141;}
	.st22{fill:#BC463B;}
	.st23{opacity:0.5;fill:#6D442F;}
	.st24{fill:#D5A080;}
	.st25{fill:#213238;}
	.st26{fill:#DAD8D0;}
	.st27{fill:none;stroke:#352E2C;stroke-width:5.000000e-002;stroke-miterlimit:10;}
	.st28{opacity:0.4;}
	.st29{fill:#F6C79D;}
	.st30{fill:#253A3F;}
	.st31{fill:#D36734;}
	.st32{fill:#E47B3D;}
	.st33{fill:#E1B18F;}
	.st34{fill:#F0BD93;}
	.st35{fill:#352E2C;}
	.st36{fill:#287598;}
	.st37{opacity:0.5;}
	.st38{fill:#E56F70;}
	.st39{fill:#EF8080;}
	.st40{fill:#DF5A52;}
	.st41{fill:#EC6B65;}
	.st42{fill:#DEAC8A;}
	.st43{fill:#D0A07F;}
	.st44{fill:#D4A889;}
</style>
<g>
	<path class="st0" d="M63.9,1.5C29.7,1.5,2,29.2,2,63.4v222.8c0,34.2,27.7,61.9,61.9,61.9h57.1V1.5H63.9z"/>
	<path class="st1" d="M2,63.2c3.4,1.8,7.2,3,11.2,3.6c7.3,7.8,17.5,12.8,29,13.3c6.9,5.1,15.3,8.1,24.5,8.1
		c13.9,0,26.2-6.9,33.6-17.4c7.8-1.8,14.8-5.5,20.7-10.7V1.5H63.9C29.8,1.5,2.1,29.1,2,63.2z"/>
	<path class="st2" d="M38.5,159.6c0-6.4-5.2-11.6-11.6-11.6c-1.3,0-2.6,0.2-3.8,0.6c-1.9-0.9-4.1-1.5-6.4-1.5
		c-5.8,0-10.8,3.4-13.2,8.2c-0.5,0.1-1,0.3-1.5,0.5v26.3c1.6,0.7,3.4,1,5.3,1c4.1,0,7.9-1.8,10.4-4.6c2.2,2.4,5.4,3.9,9,3.9
		c6.8,0,12.3-5.5,12.3-12.3c0-2.1-0.5-4.1-1.5-5.9C38.2,162.9,38.5,161.3,38.5,159.6z"/>
	<path class="st1" d="M94.2,142.5c-2.5-2.3-5.8-3.7-9.5-3.7c-7.8,0-14.1,6.3-14.1,14.1c0,6.6,4.5,12.1,10.7,13.7
		c2.7,3,6.5,4.9,10.9,4.9c8,0,14.6-6.5,14.6-14.6C106.6,149.6,101.2,143.6,94.2,142.5z"/>
	<path class="st2" d="M121.4,152.8c-0.6-0.1-1.2-0.1-1.9-0.1c-1.3,0-2.6,0.1-3.8,0.4c-0.9-2.5-3.2-4.3-6.1-4.3
		c-0.9,0-1.7,0.2-2.5,0.5c-1.7-0.8-3.6-1.2-5.6-1.2c-6.9,0-12.6,5.2-13.5,11.9c-4.5,2.5-7.5,7.3-7.5,12.8c0,8.1,6.5,14.6,14.6,14.6
		c4.4,0,8.4-2,11-5.1c3.3,3.6,8,5.9,13.2,5.9c0.6,0,1.3,0,1.9-0.1V152.8z"/>
	<rect x="2" y="176.5" class="st3" width="116.4" height="53.9"/>
	<path class="st4" d="M2,225.7v60.5c0,34.2,27.7,61.9,61.9,61.9h54.5V225.7H2z"/>
	<path class="st0" d="M299.1,174.8V63.4c0-34.2-27.7-61.9-61.9-61.9H120.9v173.3H299.1z"/>
	<path class="st5" d="M136.5,54.9c0,0-0.4-5.2,0.4-8.8c0,0-0.2-0.4-0.7-0.2c0,0-1.5,4.5-1.5,8.4L136.5,54.9z"/>
	<path class="st1" d="M136.5,46.3c0,0,1.1-0.2,2.4,0.8c0,0,0.1-1-0.8-1.5c0,0,1.6,0.3,3.1,2.3c0,0-0.4-2.7-3.2-3.3
		c0,0,1.9-0.1,2.6,0.4c0,0-1.5-1.4-3.6-0.9c0,0,0.9-2,3.6-3.2c0,0-3.3,0.3-4.4,3.7c0,0-0.5-2.2-0.1-4c0,0-0.9,1.9-0.4,4.4
		c0,0-1.7-0.9-4.3,0C131.5,45,134.7,44.7,136.5,46.3z"/>
	<rect x="120.9" y="119.9" class="st6" width="178.1" height="54.9"/>
	<path class="st7" d="M299.1,118.7H120.9v7.8c20.7,1.4,30.1-2.2,38.1-1.4c8.2,0.8,23.1-1.2,35.2-1.8c12.1-0.6,20.4,1.5,28.4,1.8
		c8,0.4,18.5-0.8,27,0c7.4,0.7,41,0.1,49.3-0.1V118.7z"/>
	<rect x="120.9" y="61.6" class="st8" width="156.1" height="57"/>
	<path class="st9" d="M120.9,52.1c9.4,0,16.1,1.5,19.9,4.2c3.8,2.8,7,2.9,11.2,4.1c4.2,1.2,6.7,3.9,6.7,5c-0.1,1.1-6,1.6-13.4,0.9
		c-7.4-0.8-10.7,1.8-15.2,2.4c-4.5,0.6-9.2,0.6-9.2,0.6V52.1z"/>
	<path class="st5" d="M125.6,53.1c0,0-0.7-8.4,2.7-13.4l0.6,0.4c0,0-2.3,8.7-1.2,12.9H125.6z"/>
	<path class="st1" d="M128.4,40.5c0,0,2.3,1.5,3.4,3.8c0,0,0.1-2.8-2-4.4c0,0,2.5-0.4,4.1,0.5c0,0-1.6-1.7-4.6-1.3
		c0,0,2.6-0.6,5.1,0.4c0,0-2.3-2.2-5.3-1.3c0,0,0.8-1.9,3.6-2.7c0,0-3.6-1.2-5,2.3c0,0-0.9-1.4-3-2.4c0,0,1.1,1.2,2,3.1
		c0,0-1.2-0.3-3.4,0.2C123.5,38.8,126.6,39.3,128.4,40.5z"/>
	<path class="st10" d="M130.6,53.8c0,0,0.1-4.8,2.6-10.5h0.8c0,0-2.1,7.5-1.2,11L130.6,53.8z"/>
	<path class="st2" d="M133.5,44.1c0,0,2.3-1.8,6.3,0c0,0-1-2.2-4.6-2.2c0,0,1.3-0.9,3.5-0.8c0,0-2.8-1.3-4.7,0.9c0,0-0.1-2-2.3-2.8
		c0,0,1.4,1.7,1.4,2.9c0,0-0.2-0.5-2.4-0.5c0,0,1.2,0.6,1.5,1.2c0,0-2.4-0.6-5.1,0.5C127,43.3,131.9,42.9,133.5,44.1z"/>
	<path class="st2" d="M169.4,45c0,0,1.2-3.5,3.2-4.9c0,0-1.2,2.4-1.5,5.2c0,0,3.6,1.4,4.6,4.7c0,0-3.1-3.1-6-3.6L169.4,45z"/>
	<path class="st4" d="M169.9,47.5c0,0,1.3,2,1.7,3.5c0,0,1.1-2.2,0.3-4.3c0,0,6.2,0.9,8.4,4.6c0,0,0.8-4.8-6.9-6.6
		c0,0,4.1-2.7,7.2-2.3c0,0-4.5-3.1-10.4,2c0,0-0.3-2.1,0.8-4.5c0,0-2.5,0.5-2.4,4.6c0,0-3.1-0.9-6,1.5
		C162.6,46,165.9,45.1,169.9,47.5z"/>
	<path class="st11" d="M161.8,64.6h3.6c0,0,1-14.8-9.6-22.4l-1.5,1C154.4,43.3,162.3,50.4,161.8,64.6z"/>
	<path class="st2" d="M155.5,41c0,0-1-4.3,1-8.7c0,0-2.6,1.4-3.3,7.6c0,0-4.3-0.5-8.1,2.7c0,0,3.6-0.9,6.3,0.4c0,0-2.1,2.3-3.1,5.4
		C148.3,48.3,150.7,44.3,155.5,41z"/>
	<path class="st4" d="M156,43.5c-0.5,0.2-1.2,0.9-1.6,2.6c-0.4,1.7-0.9,4.4-0.9,4.4s-1.9-3.6-2-5.6c0,0-4.4,0.9-7,5.1
		c0,0,0.3-6.3,6.2-8.4c0,0-3.6-1.2-8.2,0.4c0,0,6-6.8,11.6-2.4c0,0,1.4-3.6,6.6-5c0,0-2.4,2.9-3.6,5.6c0,0,5.4-1.7,8.5,3.8
		C165.6,44,159.9,41.5,156,43.5z"/>
	<path class="st6" d="M163.3,63.8c5.9-0.3,7.6,2,10.4,3.5c2.8,1.5,8.3,1.7,9.5,3.5c1.2,1.9-7.7,3.8-18.8,3.9
		c-12.1,0.1-15.5-0.9-17.9-2.1C144.2,71.4,150.3,64.4,163.3,63.8z"/>
	<path class="st12" d="M154.9,22.4c6.8,0,12.4-5.5,12.4-12.4c0-3.3-1.3-6.3-3.4-8.5H146c-2.1,2.2-3.4,5.2-3.4,8.5
		C142.6,16.8,148.1,22.4,154.9,22.4z"/>
	<path class="st13" d="M167.9,65.3c0,0-1.6,1.2-3.6-0.1c0,0,1.2-10.1,4.6-18.4c0,0,1-0.6,1.7,0.3C170.7,47.2,167.6,56,167.9,65.3z"
		/>
	<path class="st14" d="M121,8.9c0,0,6-1.2,9.6,0.7c3.7,2,10.7,2.4,13.3,2.9c2.6,0.5,7.7,2.2,7.5,3.9c-0.2,1.8-6.8,2.7-11.6,3.5
		c-4.8,0.8-5.5,3.8-10.9,4.6c-5.4,0.8-7.9,0.8-7.9,0.8V8.9z"/>
	<path class="st14" d="M205.9,18.5c3.4,0,8.5,0.4,10,1.3c0,0,4.3,0.2,6.1,1.6c1.9,1.4-4.5,2.7-12.6,2.6c-8.1-0.1-14.7-0.9-15.2-1.6
		c-0.5-0.7,1.5-2.5,3.4-2.4C197.7,20.1,199.4,18.6,205.9,18.5z"/>
	<path class="st14" d="M269,10.3c-0.4-0.2-0.9-0.3-1.5-0.4c-3.9-0.8-7,0.5-7,0.5s-4.1-5-10.2-4.4c-4.6,0.4-10.1,1.3-12.2,2.8
		c-2.1,1.4-6.1,1.5-8,1.8c-2,0.2-2.3,2.7-4.1,3c-1.9,0.3-10.3,0.2-11.1,1.4c-0.8,1.2,5.2,4.1,12.1,5.5c6.9,1.3,8.1,3.2,14,1.1
		c6-2.1,11.5-0.6,27.4-0.1c6.4,0.2,10.9,0,13.9-0.5C278.3,16.8,273.9,13.2,269,10.3z"/>
	<path class="st12" d="M299.1,286.2V174.8H120.9v173.3h116.2C271.4,348.1,299.1,320.4,299.1,286.2z"/>
	<path class="st15" d="M238.1,200.1H120.9v108h117.2c2.7,0,5-2.2,5-5v-98.1C243.1,202.3,240.8,200.1,238.1,200.1z"/>
	<rect x="120.9" y="228.2" class="st12" width="122.7" height="6.2"/>
	<g class="st16">
		<polygon class="st17" points="179.1,200.1 243.1,291.3 243.1,269 194.8,200.1 		"/>
		<polygon class="st17" points="199.7,200.1 243.1,261.9 243.1,250.7 207.6,200.1 		"/>
	</g>
	<path class="st18" d="M265.4,195.1v146.1c20-10.3,33.7-31.1,33.7-55.1v-96.5h-28.3C267.8,189.7,265.4,192.1,265.4,195.1z"/>
	<path class="st15" d="M299.1,200.1h-24.3c-3,0-5.4,2.4-5.4,5.4v61.8c0,3,2.4,5.4,5.4,5.4h24.3V200.1z"/>
	<path class="st19" d="M299.1,226.1h-20.2c-2,0-3.5,1.6-3.5,3.5c0,2,1.6,3.5,3.5,3.5h20.2V226.1z"/>
	<g>
		<rect x="171.8" y="108.6" class="st20" width="1.5" height="18.5"/>
		<g>
			<polygon class="st21" points="172.5,99.9 186,105.9 177.8,109.8 			"/>
			<polygon class="st21" points="172.5,99.9 159.1,105.9 167.3,109.8 			"/>
			<polygon class="st22" points="186,105.9 185.1,108.3 178.8,111.3 177.8,109.8 			"/>
			<polygon class="st22" points="159.1,105.9 159.9,108.3 166.2,111.3 167.3,109.8 			"/>
			<polygon class="st22" points="172.5,99.9 167.3,109.8 172.5,109.8 177.8,109.8 			"/>
			<polygon class="st21" points="172.5,109.8 167.3,109.8 168.4,111.3 172.5,111.3 176.6,111.3 177.8,109.8 			"/>
		</g>
		<rect x="140.9" y="108.6" class="st20" width="1.5" height="18.5"/>
		<g>
			<polygon class="st21" points="141.7,99.9 155.1,105.9 146.9,109.8 			"/>
			<polygon class="st21" points="141.7,99.9 128.2,105.9 136.4,109.8 			"/>
			<polygon class="st22" points="155.1,105.9 154.2,108.3 147.9,111.3 146.9,109.8 			"/>
			<polygon class="st22" points="128.2,105.9 129.1,108.3 135.4,111.3 136.4,109.8 			"/>
			<polygon class="st22" points="141.7,99.9 136.4,109.8 141.7,109.8 146.9,109.8 			"/>
			<polygon class="st21" points="141.7,109.8 136.4,109.8 137.6,111.3 141.7,111.3 145.8,111.3 146.9,109.8 			"/>
		</g>
		<rect x="156.2" y="121.8" class="st20" width="1.5" height="18.4"/>
		<g>
			<polygon class="st21" points="157,113.2 170.4,119.1 162.2,123.1 			"/>
			<polygon class="st21" points="157,113.2 143.6,119.1 151.8,123.1 			"/>
			<polygon class="st22" points="170.4,119.1 169.6,121.6 163.3,124.6 162.2,123.1 			"/>
			<polygon class="st22" points="143.6,119.1 144.4,121.6 150.7,124.6 151.8,123.1 			"/>
			<polygon class="st22" points="157,113.2 151.8,123.1 157,123.1 162.2,123.1 			"/>
			<polygon class="st21" points="157,123.1 151.8,123.1 152.9,124.6 157,124.6 161.1,124.6 162.2,123.1 			"/>
		</g>
	</g>
	<path class="st5" d="M17,240.7c1.5-0.1,2,2.1,3,2.4c1,0.3,3-1.8,4-2c1.1-0.1,0.6,2.6,2.2,2.5c1.6-0.2,2.3-2.6,3.7-2.2
		c1.4,0.4,3.2,2.9,4.1,2.6c0.9-0.3,0.8-2.8,2.1-3c1.2-0.2,4,3.3,5.2,3c1.2-0.2,2-2.2,3.2-2.5c1.2-0.3,1.2,3.7,2.3,3.5
		c1.1-0.3,2.1-1.4,3.1-1.9c1-0.5,3.3,1.9,5.2,1.7c1.9-0.2,2.2-2.9,3.1-2.5c0.9,0.4,1.7,3.3,2.9,3.1c1.2-0.2,3.4-3.3,4.4-3.1
		c1,0.2,2.5,3.6,4,3.4c1.5-0.2,2.2-2.6,3.4-2.7c1.2-0.2,1.9,2.8,2.7,2.7c0.9-0.1,1.5-2.5,2.7-2.1c1.2,0.3,2.7,2.7,3.6,2.3
		c0.8-0.3,1.5-3,3.1-2.7c1.5,0.3,1.8,3.3,2.9,3c1.1-0.3,2-2.9,3.4-3.1c1.3-0.1,2.3,1.9,3.4,2c1.1,0.1,3-1.8,4-2.3
		c1-0.5,1.6,2.6,3.2,2.6c1.6,0,1.2-2.4,2.5-2.7c0,0-8.1-52.7-12.3-88.8c-4.2-36-14-101.2-15.1-111l-41.5-0.3c0,0-2.1,19.8-2.6,45.3
		c-0.5,25.4-3.8,42.8-4.3,59.8c-0.4,17.1-5.7,31.3-7,42.8c-1.2,11.5-2.8,22.8-3.6,33.5C17.2,234.9,17,240.7,17,240.7z"/>
	<g>
		<g>
			<path class="st10" d="M45,46.1c0,0.1-2.1,10.9-2,20.3C43.1,73.5,39.1,80.6,33,85c0,0.5,0,1.1,0,1.6c7-4.6,11.6-12.4,11.5-20.2
				c-0.1-9.3,1.9-20,2-20.1L45,46.1z"/>
			<path class="st10" d="M51.3,106.3c4.5-10.5,4.5-24.4,4.5-36.7c0-6.7,0-13.1,0.7-18.4L55.2,51c-0.7,5.4-0.7,11.8-0.7,18.5
				c0,12.2,0,26-4.4,36.2C45,117.5,37.6,126.8,31,135c-0.6,0.8-1.2,1.5-1.8,2.2c-0.1,0.8-0.1,1.6-0.2,2.4c1-1.3,2-2.6,3.1-3.9
				C38.7,127.5,46.2,118.2,51.3,106.3z"/>
			<path class="st10" d="M79.2,59.4c-10.3,11-14.7,28.4-13.3,53.1c0.8,13.1-9.5,20.5-17.8,26.4c-1.4,1-2.7,2-3.9,2.9
				c-5,3.9-10.9,9.1-16.5,16.7c-0.1,1-0.3,2-0.4,3c5.9-8.8,12.4-14.6,17.8-18.8c1.2-0.9,2.5-1.9,3.9-2.9c8-5.8,19.1-13.7,18.3-27.5
				C66,88.8,69.9,71.9,79.4,61.2C79.3,60.6,79.3,60,79.2,59.4z"/>
			<path class="st10" d="M83.4,89.6c-5.1,8.4-9.2,20.9-8.2,35.5l1.4-0.1c-0.9-13.5,2.6-25.1,7.1-33.2C83.7,91.1,83.6,90.3,83.4,89.6
				z"/>
			<path class="st10" d="M36.6,185.9l0.8-1c5.8-7,8.7-17.6,6.7-20.2c-0.5-0.6-1.3-0.8-2.1-0.5c-2,0.6-5,3.5-9.2,7.5
				c-2.7,2.6-5.8,5.5-9.2,8.3c-0.2,0.7-0.3,1.4-0.4,2.1c3.9-3.2,7.5-6.6,10.6-9.5c3.8-3.5,7-6.6,8.7-7.2c0.4-0.1,0.5,0,0.5,0.1
				c1.4,1.7-0.9,11.7-6.7,18.7l-0.8,1c-4.8,5.8-10.8,13.1-15.6,21.2c-0.1,1.2-0.3,2.4-0.4,3.5C24.3,200.7,31.2,192.3,36.6,185.9z"/>
			<path class="st10" d="M24,241.2c3.1-20.7,16.8-40.6,26-49.5c11.2-10.9,14.2-22.6,15.2-37.8l-1.4-0.1c-1,15-3.9,26.4-14.8,37.1
				c-9.5,9.2-23.7,29.8-26.5,51.2C23,241.6,23.6,241.2,24,241.2z"/>
			<path class="st10" d="M51.2,198.9c-1.4,11.5-3,14-8.8,23.2l-0.5,0.7c-5,8-7.1,12.5-7.9,21.2c0.8-0.4,0.8-2.4,1.7-2.8
				c1-6.6,3.1-10.8,7.3-17.7l0.5-0.7c5.7-9.2,7.5-11.9,8.9-23.7L51.2,198.9z"/>
		</g>
	</g>
	<g>
		<ellipse class="st3" cx="98" cy="278.5" rx="3" ry="1.6"/>
		<ellipse class="st3" cx="102.8" cy="281.8" rx="1.5" ry="0.7"/>
		<ellipse class="st3" cx="107.8" cy="277.7" rx="1.5" ry="0.8"/>
	</g>
	<g>
		<ellipse class="st3" cx="10.6" cy="264.1" rx="2.3" ry="1.1"/>
		<ellipse class="st3" cx="14.3" cy="266.5" rx="1.3" ry="0.6"/>
		<ellipse class="st3" cx="16.1" cy="254.1" rx="1.2" ry="0.7"/>
	</g>
	<polygon class="st3" points="43.4,259.2 22.2,313 36.8,322.3 48.9,275.7 51.1,261.4 	"/>
	<polygon class="st3" points="63.9,265.9 68,348.1 81.9,348.1 81.9,311 72.1,267.1 	"/>
	<polygon class="st3" points="41.7,273.8 25.7,273.8 33.7,254.8 47.4,259.2 47,272.7 	"/>
	<polygon class="st3" points="49.6,273.8 88.7,273.8 83.3,261.4 51.1,265.8 	"/>
	<g>
		<ellipse class="st3" cx="58" cy="319" rx="2.2" ry="1.2"/>
		<ellipse class="st3" cx="61.1" cy="321.8" rx="1.3" ry="0.5"/>
	</g>
	<g>
		<ellipse class="st3" cx="9.1" cy="294.6" rx="1.6" ry="0.7"/>
		<path class="st3" d="M15.2,292.5c0.3-0.2,0.5-0.4,0.5-0.6c0-0.6-1.1-1.1-2.5-1.1c-1.4,0-2.5,0.5-2.5,1.1c0,0.6,1.1,1.1,2.5,1.1
			c0,0,0.1,0,0.1,0c0,0.1-0.1,0.1-0.1,0.2c0,0.4,0.7,0.7,1.6,0.7c0.9,0,1.6-0.3,1.6-0.7C16.3,292.8,15.8,292.6,15.2,292.5z"/>
	</g>
	<g>
		<ellipse class="st7" cx="206.3" cy="130.8" rx="2.6" ry="1.4"/>
		<path class="st7" d="M212.2,129.5C212.2,129.5,212.2,129.5,212.2,129.5c0-0.5-0.7-0.9-1.6-0.9c-0.9,0-1.7,0.4-1.7,0.9
			c0,0.5,0.7,0.9,1.7,0.9c0.3,0,0.6-0.1,0.9-0.2c0,0.3,0.3,0.6,0.7,0.6c0.4,0,0.7-0.3,0.7-0.7C212.8,129.8,212.5,129.5,212.2,129.5z
			"/>
	</g>
	<g>
		<ellipse class="st7" cx="131.7" cy="137.3" rx="2.2" ry="1.1"/>
		<ellipse class="st7" cx="136.6" cy="138.6" rx="1.5" ry="0.8"/>
		<path class="st7" d="M147.1,136c-0.1,0-0.2,0-0.3,0c0.1-0.1,0.1-0.2,0.1-0.3c0-0.7-1.1-1.3-2.5-1.3c-1.4,0-2.5,0.6-2.5,1.3
			c0,0.7,1.1,1.3,2.5,1.3c0.4,0,0.8-0.1,1.1-0.1c0,0,0,0,0,0.1c0,0.5,0.7,0.9,1.5,0.9c0.9,0,1.5-0.4,1.5-0.9
			C148.6,136.4,148,136,147.1,136z"/>
		<ellipse class="st7" cx="136.3" cy="133.3" rx="0.7" ry="0.4"/>
	</g>
	<path class="st23" d="M34.1,59.4c2.2,1.1,4.7,1.7,7.4,1.7c1.8,0,3.6-0.3,5.3-0.9c2.6,2.2,5.9,3.6,9.6,3.6c4.3,0,8.2-1.9,10.9-4.8
		c1.5,0.3,3.1,0.5,4.6,0.5c2.5,0,4.9-0.4,7.1-1.1c-1-7.5-1.8-12.9-2-15.3l-41.5-0.3C35.5,42.8,34.8,49.2,34.1,59.4z"/>
	<path class="st1" d="M71.9,7.7c-10.6,0-19.5,7-22.4,16.7c-2.4-1.3-5.1-2-8-2c-9.3,0-16.8,7.5-16.8,16.8c0,9.3,7.5,16.8,16.8,16.8
		c1.8,0,3.6-0.3,5.3-0.9c2.6,2.2,5.9,3.6,9.6,3.6c4.3,0,8.2-1.9,10.9-4.8c1.5,0.3,3.1,0.5,4.6,0.5c12.9,0,23.3-10.4,23.3-23.3
		C95.2,18.2,84.8,7.7,71.9,7.7z"/>
	<path class="st24" d="M278.5,293.5c-0.9,2.7-2.6,4.3-4.4,5.5c0,0,1.8-0.9,1.2,1.1c-0.6,2-1.9,3-3.4,4.2c0,0,1.3,0.2,0.7,1.5
		c-0.6,1.4-1.6,2.1-3.4,2.8c0,0,1.4,1.2,0,2.2c-1.4,1-3.1,0.1-5.1,1.8c0,0-0.7-1-0.7-1.3c-0.1-0.3,0.6-2.1,1.1-2.3
		c0.5-0.2,2.5-2.8,2.5-2.8s6.3-10.2,7.1-10.9c0.8-0.6,0.5-3.1,0.6-3.2c0-0.1,0.6-1,0.9-1.1C275.7,291.1,278.5,293.5,278.5,293.5z"/>
	<path class="st24" d="M246.7,312c0,0,1.2-2.2,1.4-4.3c0.1-2.1-0.4-11.3,1.5-14.4c1.9-3.1,4.1-6.4,5.2-11.2c0.3-1.5,4.4-0.2,4.9,4.4
		c0.5,4.6-2.3,10-2.3,10l7.8,2.5l5.2,6.3c0,0,0.9,2-1.5,3.8c-2.3,1.8-5,2.9-7.2,7.4L246.7,312z"/>
	<path class="st25" d="M269.1,306.9c-0.9,2-3.2,2.9-5.2,2l-11.3-5.1c-2-0.9-2.9-3.2-2-5.2l11.6-25.8c0.9-2,3.2-2.9,5.2-2l11.3,5.1
		c2,0.9,2.9,3.2,2,5.2L269.1,306.9z"/>
	<polygon class="st14" points="279.2,280.5 263.6,273.5 262.7,275.5 262.7,275.5 258.1,285.7 252,299.3 267.6,306.3 268.5,304.3 
		277.2,285.1 	"/>
	<g>
		
			<rect x="266.7" y="274.7" transform="matrix(0.4102 -0.912 0.912 0.4102 -97.9752 410.1042)" class="st26" width="2.7" height="12.3"/>
		
			<rect x="265.8" y="278.7" transform="matrix(0.4101 -0.912 0.912 0.4101 -103.4885 412.432)" class="st26" width="2.7" height="15"/>
		
			<rect x="261.3" y="285.1" transform="matrix(0.41 -0.9121 0.9121 0.41 -109.6195 410.6721)" class="st26" width="2.7" height="10"/>
		
			<rect x="259.6" y="289.6" transform="matrix(0.4102 -0.912 0.912 0.4102 -115.2862 412.0669)" class="st26" width="2.7" height="11.1"/>
	</g>
	<g>
		<path class="st27" d="M260.5,305.2c-0.2,0.5-0.9,0.8-1.4,0.5l-1.1-0.5c-0.5-0.2-0.8-0.9-0.5-1.4l0,0c0.2-0.5,0.9-0.8,1.4-0.5
			l1,0.5C260.5,304,260.8,304.6,260.5,305.2L260.5,305.2z"/>
		<path class="st27" d="M274.9,276.4c-0.1,0.3-0.5,0.4-0.7,0.3l-4.4-2c-0.3-0.1-0.4-0.4-0.3-0.7l0,0c0.1-0.3,0.4-0.4,0.7-0.3l4.4,2
			C274.9,275.8,275.1,276.1,274.9,276.4L274.9,276.4z"/>
	</g>
	<g class="st28">
		<polygon class="st17" points="273.1,294.2 275.2,289.6 271.4,276.9 267.3,275.1 		"/>
		<polygon class="st17" points="275.9,287.8 276.8,285.8 274.6,278.4 272.9,277.6 		"/>
	</g>
	<path class="st24" d="M275.6,297c-1.2,0-2.6-7.6-0.4-8.8c1.6-0.9,3.5,1.3,3.6,3.6C278.9,293.9,276.7,297,275.6,297z"/>
	<path class="st24" d="M268.3,295.6c1-1.6,6.7,0.2,7.2,2.1c0.6,1.9-0.7,4-1.9,4.3C272.5,302.2,266.8,297.9,268.3,295.6z"/>
	<path class="st24" d="M270.2,307.3c-0.2-1-7.1-2.7-7.8,0.1c-0.3,1.2,3.4,3.3,6.3,3.6C270.2,311.1,270.4,308.5,270.2,307.3z"/>
	<path class="st24" d="M266.8,300.3c1.3-1.3,5.1,1,6.1,2.6c1,1.6-0.7,4.3-2,4.3C269.6,307.2,265.4,301.9,266.8,300.3z"/>
	<path class="st29" d="M136.3,226.9c-0.8-2.2-2.9-9.2-1.6-13.3l20.6,1.5c0,0,1.5,2,0.4,4.4c-1,2.4-8.8,11.3-8.8,11.3L136.3,226.9z"
		/>
	<path class="st30" d="M245.8,176.9v27.5c0,4.3-3.5,7.7-7.7,7.7H121.7v8.3h116.4c8.9,0,16.1-7.2,16.1-16.1v-27.5H245.8z"/>
	<path class="st29" d="M136.7,209.2c1.8-0.2,2.6,1.3,2.6,4c0,2.6-0.4,4.4-2.6,4.6c-1.4,0.1-2-1.9-2.1-4.1
		C134.4,211.3,134.8,209.4,136.7,209.2z"/>
	<path class="st29" d="M141.4,208.9c1.9-0.1,2.6,1.5,2.5,4.2c-0.1,2.7-0.6,4.5-2.9,4.6c-1.5,0-2-2-2-4.3
		C138.9,211,139.4,209.1,141.4,208.9z"/>
	<path class="st29" d="M146.3,208.4c2-0.1,2.8,1.6,2.7,4.4c-0.1,2.8-0.7,4.7-3.2,4.7c-1.6,0-2.2-2.1-2.2-4.5
		C143.6,210.5,144.1,208.5,146.3,208.4z"/>
	<path class="st29" d="M151.1,209.2c2-0.1,2.8,1.6,2.7,4.4c-0.1,2.8-0.7,4.7-3.2,4.7c-1.6,0-2.2-2.1-2.2-4.5
		C148.5,211.3,148.9,209.3,151.1,209.2z"/>
	<path class="st29" d="M148.5,225.1c0.3-3.1,3-5.5,6.2-6.2c0,0-2.6-7.7,0.3-9.7c1.2-0.8,3.5,4.5,5.1,7.7c1.6,3.2,1.9,5.1,1.5,5.8
		c-0.4,0.7-5,5.2-11.4,7.5l-4.6-0.5L148.5,225.1z"/>
	<path class="st31" d="M217.8,318.4c2,4.9,14.5,29.6,14.5,29.6h-16.6l-3.5-4.9L217.8,318.4z"/>
	<path class="st32" d="M178.3,300.7c3.3-0.5,13.2-0.2,21.9,3.2l-1.2,2.2l-0.9,3.5c0,0-4.5,3.8-8.9,3.5c-4.3-0.2-11-4.6-11.3-5
		C177.6,307.6,178.3,300.7,178.3,300.7z"/>
	<path class="st33" d="M198.5,299.4v8.5l-10.7,7.5l-7.4-5.7c0,0,0-9.7,0-18.7c0,0,8.6,5.2,9.1,5.4
		C190,296.6,198.5,299.4,198.5,299.4z"/>
	<path class="st33" d="M147.5,157c12.8-9.4,31.3-21.3,43.8-21c12.5,0.3,35.8,20.2,35.8,20.2L198.5,171l-24.1-16.8L147.5,157z"/>
	<path class="st34" d="M211.4,165c-22-14.8-30.3-21.5-41.5-20.7c-10.4,0.7-36.8,17.5-49,28.2v2.2h19c6-3.7,17.1-9.8,23.8-9.7
		c5.1,0,13.3,5,19.8,9.7H202L211.4,165z"/>
	<path class="st20" d="M81.4,265.2c4.3,17,13.5,54,14.8,59.4s-20.1,10.9-20.1,10.9s-6.9-43.5-9.7-69.1L81.4,265.2z"/>
	<path class="st29" d="M33.3,214.6c-4.1,5.5-11.2,15.2-11,20.1c0.2,5,21.9,17.8,28.4,18.3c6.5,0.4-1.3,9.2-1.3,9.2
		s-33.9-8.4-37.8-25.3c-3.2-13.9,12.5-31.3,19.7-36.5L33.3,214.6z"/>
	<path class="st29" d="M89.7,212.1c0,0,13,10.7,12.3,20.1c-0.7,9.4-23.1,20.1-23.1,20.1l4.8,9.9c0,0,29.5-18.8,30.8-31.7
		c0.8-7.3-17-28.6-17-28.6L89.7,212.1z"/>
	<path class="st22" d="M46.5,190.5c0,0-8.9-0.3-11.8,1.3c-2.9,1.5-11.5,11.7-13.2,14c0,0,10,11.5,12.1,13.2c0,0,3.5-3.8,4.3-3.9
		c0.8-0.1,1.1,23,1.4,32.6s45.2,1.2,45.2,1.2s0.8-35.2,1.4-36.4c0.6-1.2,5.6,3.4,6.1,3.2c0.5-0.2,9.4-10.4,9.4-11.1
		c0.1-0.7-8-11-12.8-12.4c-4.8-1.4-10.2-0.9-10.2-0.9l-1.1,1.1c0,0-3.8,7.8-6.3,11.4c-2.5,3.6-4.5,6.6-6,6.4
		c-1.5-0.2-2.6,0.1-4.1-1.1c-1.5-1.2-3.8-4.3-5-5.7s-3.6-4.3-4.3-5.3c-0.8-1.1-3.2-4.7-3.2-4.7L46.5,190.5z"/>
	<path class="st33" d="M54.2,180.4c0.4,3.5,0.4,7-1.1,8.7s-5.1,1.5-5.1,1.5s-0.4,5.2,4.3,10.3s9.8,9.9,11.7,9.5
		c1.9-0.4,7.9-7.2,10-11.2c2.1-4,2.4-8.1,2.4-8.1s-4.3,0.4-5-0.8c-0.7-1.2-0.2-10.8-0.2-10.8L54.2,180.4z"/>
	<path class="st35" d="M80.5,164.1c3.3-2.4,8.2-4.3,6.3-19.1c-1.9-14.8-12.8-23.8-14-23.6c-1.2,0.2-0.2,1.5-0.9,2
		c-0.7,0.4-9.5-5.3-13.7-4.6c-4.2,0.6-0.9,3.2-1.3,3.9c-0.4,0.7-5-1.8-6.2-1.3c-1.3,0.5,1.2,1.9,0.3,2.3c-0.9,0.4-7.7-1.2-9.1,0.7
		c-1.3,1.9,1.8,2.5,1.4,4.1c-0.4,1.6-4.7,4.3-6.4,12.3c-1.8,8-3.9,20.4,4.6,23.5H80.5z"/>
	<path class="st33" d="M83.3,154.2c1.6,0.2,3.9,0.4,4,4.3c0,3.8-2,6.4-6.1,6.5L83.3,154.2z"/>
	<path class="st33" d="M39.1,154.2c0,0-4.6,0.2-4.5,4.7c0.1,4.5,2.2,8,6.7,7.9L39.1,154.2z"/>
	<path class="st29" d="M61.5,135.1c5.7,0,10.2-3.7,14.8,0.1c4.6,3.8,7.9,10.2,7.4,20.6c-0.4,7.6-9.4,28.7-21.1,29.2
		c-11.7,0.5-21.6-14.9-24-25.8c-1.6-7.4-1.1-18.3,6.7-24.4C48.9,131.9,53.2,135.1,61.5,135.1z"/>
	<path class="st35" d="M55.4,156.4c0.2-0.3-1.1-1.7-3.6-1.5c-2.5,0.2-3.5-0.2-3.8,0.1c-0.3,0.3,1.1,1.6,3.8,1.5
		C54.2,156.5,55.2,156.8,55.4,156.4z"/>
	<path class="st35" d="M69,156.8c-0.3-0.4,1.2-1.8,3.8-1.7c2.2,0.1,3.2-0.1,3.5,0.1c0.4,0.3-0.9,1.6-2.9,1.6
		C70.7,156.7,69.3,157.1,69,156.8z"/>
	<path class="st17" d="M84.3,152.2c-0.3,0-2.3,1.8-3.2,2.7c0-1.1-0.1-2.1-0.4-2.4c-0.4-0.6-14.2-0.7-15,0.2
		c-0.3,0.4-0.5,1.5-0.6,2.8c-0.5-0.2-1.4-0.5-2.6-0.5c-1.3,0-2.4,0.4-3,0.6c-0.1-1.3-0.3-2.4-0.6-2.8c-0.8-1-14.5-0.8-14.9-0.3
		c-0.2,0.3-0.3,1.2-0.4,2.1c-1.3-0.4-6.2-2.1-6.5-1.9c-0.3,0.2-0.2,0.8-0.1,1.2c0.1,0.3,5,1.7,6.6,2.1c0.1,1.6,0.3,3.1,0.6,3.5
		c0.5,0.8,13.8,1,14.6,0.3c0.4-0.3,0.6-1.6,0.6-3c0.5-0.2,1.5-0.5,2.9-0.6c1.2,0,2.1,0.2,2.7,0.4c0,1.5,0.3,2.8,0.6,3.2
		c0.8,0.7,14.1,0.5,14.6-0.3c0.3-0.4,0.5-1.7,0.6-3.2c1-0.7,3.4-3,3.6-3.2C84.9,152.8,84.6,152.2,84.3,152.2z M58.3,159
		c-0.4,0.7-12.3,0.5-12.8,0c-0.6-0.5-1-4.8-0.5-5.7c0.3-0.5,12.6-0.7,13.3,0C59,154,58.7,158.3,58.3,159z M79.3,159
		c-0.6,0.5-12.5,0.7-12.8,0c-0.4-0.7-0.8-5-0.1-5.7c0.7-0.7,13.1-0.5,13.4,0C80.3,154.2,79.9,158.5,79.3,159z"/>
	<path class="st33" d="M63.4,157c0.6-0.3,3.6,5.7,2.8,7.1c-0.8,1.4-4.3,1.1-4.5,0.3c-0.2-0.8,3.2-0.1,3.6-0.9
		C65.7,162.6,62.9,157.3,63.4,157z"/>
	<path class="st35" d="M62.8,169c7,0.1,8.4,3.6,8.1,3.9c-0.3,0.4-2.1-1.2-2.6-1.2c-0.5,0,0.2,1-0.4,1.1c-0.6,0.1-2.1-1.8-2.5-1.8
		s0,1.3-0.5,1.3c-0.5,0-0.9-1.2-1.3-1.3c-0.3-0.1-0.8,1-1.1,1.1c-0.3,0.1-0.1-1.2-0.5-1.3c-0.3-0.1-1.1,1.2-1.9,1.3
		c-0.6,0.1-0.1-1-0.3-1c-0.3,0-1,1.3-1.7,1.5c-0.7,0.1,0.2-1.4,0-1.5c-0.2-0.1-2.6,1-3.2,0.7C54.4,171.5,57.1,168.9,62.8,169z"/>
	<path class="st35" d="M62.1,180.4c1.1,0,1.5,0.7,2.2,0.9c0.8,0.2,1.7,0.4,2.4,1.3c0.4,0.6,0.9,2.1,0.3,2.8c-0.3,0.4-0.7,0-1.1,0.2
		c-0.4,0.1-0.2,1.3-0.9,1.6c-0.7,0.4-0.7-0.1-1.2-0.3c-0.5-0.1-0.5,1.4-1.1,1.6c-0.6,0.2-0.7-1.1-1.1-1.1c-0.4-0.1-0.8,1.2-1.4,1.2
		c-0.5,0-0.4-1.7-0.7-1.8c-0.3-0.1-0.7-0.1-1.3-0.2c-0.6-0.1,0.1-1.2-0.3-1.5c-0.3-0.3-0.8,0.3-1.1-0.1c-0.3-0.3-0.2-1.5,0.7-2.7
		c0.8-1,1.6-1.1,2.2-1.2C60.9,181,61.1,180.5,62.1,180.4z"/>
	<g>
		<path class="st21" d="M50,190.6c0,0,1.1,4.8,5.1,9.2c4,4.5,7.8,7.9,8.9,7.8c1.1-0.2,8.1-7.4,10.8-16.4c0,0,0.8-0.5,1.9-0.4
			c1,0.1,1.6,0.5,1.6,0.5s-0.6,4.1-5.6,11.2c-4.9,7.1-7.6,8.6-8.7,8.6c-1.1,0.1-7.1-3.5-11-8.5c-3.9-5.1-7-11.9-6.6-12.1
			C47,190.2,48.2,189.7,50,190.6z"/>
		<g>
			<path class="st21" d="M99.6,202c-3.1,3.2-8.3,10.1-9.9,12.3c1.1,0.8,2,1.4,2.2,1.3c0.5-0.2,9.4-10.4,9.4-11.1
				C101.3,204.3,100.7,203.3,99.6,202z"/>
			<path class="st21" d="M35.4,217c-3-3.5-9.5-10.7-12.1-13.5c-0.8,1-1.5,1.9-1.9,2.3c0,0,10,11.5,12.1,13.2
				C33.5,218.9,34.4,218,35.4,217z"/>
		</g>
	</g>
	<path class="st20" d="M57.9,265.2c-2.3,17.2-10.8,62.9-11.5,67.5c0,0-18-8.2-19.1-11c-1.1-2.8,10.8-39.2,15.3-55.5L57.9,265.2z"/>
	<polygon class="st19" points="93.2,269.5 29.8,269.5 27.3,233.3 96.9,233.3 	"/>
	<path class="st17" d="M66.3,250.8c-0.3,2.6-2.1,4.8-4.8,4.8c-2.9,0-4.8-2.2-4.8-4.8c0-2.7,1.7-4.8,4.8-4.8
		C64.2,246,66.6,248.1,66.3,250.8z"/>
	<path class="st14" d="M76.1,335.5c0,0,4.5-5.8,8.7-12.4c4.3-6.6,3,6.4,3,6.7S78.5,344,78.5,344l-2.5-3.1
		C76.1,340.9,75.5,339.1,76.1,335.5z"/>
	<path class="st15" d="M76.1,340.9c3.8-3.4,4.7-7.6,5-11.1s1.5-15.9,9-21.7c0,0,0.9,4.7,0.4,10.4c-0.5,5.6-5,21.5-7.1,24.6
		c-2.1,3.1-5.2,6.3-5.2,6.3C76.3,345.3,76.1,340.9,76.1,340.9z"/>
	<path class="st36" d="M76.7,344.9c0.7-3.3,5.2-6.2,6.1-9.4c0.9-3.2,0.2-19.4,7.3-27.3c4.8-5.3,14-2.6,15.3,8.2
		c1.3,10.8-3.2,17-8,24.6c-4.7,7.6-10.4,12.6-17.2,10.8C77.2,351,76.4,346.3,76.7,344.9z"/>
	<g>
		<g>
			<path class="st15" d="M84.6,339.6c1.2-0.1,6,3.3,6,4.7c0.1,1.4-4.6,7.1-9.1,4.3C77.4,346,84.6,339.6,84.6,339.6z"/>
			<path class="st15" d="M94.7,337.6c1.2,0.2,5-6.2,5.9-13.1c0.9-6.9,0.5-11.4-3.6-13.4c-4-2-7.3,0.6-7.9,8.6
				C88.4,327.6,93.1,337.3,94.7,337.6z"/>
		</g>
	</g>
	<path class="st14" d="M46.4,332.7c0.6,1.7-0.7,5.2-1.5,7.9c-0.8,2.6-4.2-2.9-5-7.9c-0.9-5-1.4-10.4-1.4-11.9s0-3.7,0-3.7
		S44.7,328,46.4,332.7z"/>
	<path class="st15" d="M45,340.1c0,0.9,0.4,5.8-2.2,9.8c0,0-5.5-11.9-6.5-17.3c-1-5.4-0.7-13.9-1.1-15.6c-0.4-1.8-2.2-10.3-2.2-10.3
		s3.8,2.8,5.4,10.3c1.6,7.5,1.3,11,2.7,15C42.5,335.9,45,340.1,45,340.1z"/>
	<path class="st36" d="M43.4,346.9c-0.3-6-4-11.2-5.4-15.5c-1.7-5.3,0.9-19.3-5-24.7c-5.9-5.3-12.9-1.7-14.2,7
		c-1.3,8.7,2.7,14.9,5.6,22.9c2.9,8,6.7,17.3,14.8,16C42.7,352.1,43.5,348.8,43.4,346.9z"/>
	<path class="st20" d="M241.2,102.5c0,2-1.6,3.5-3.5,3.5H205c-2,0-3.5-1.6-3.5-3.5V49.1c0-2,1.6-3.5,3.5-3.5h32.7
		c2,0,3.5,1.6,3.5,3.5V102.5z"/>
	<rect x="205" y="51.9" class="st14" width="32.7" height="47.8"/>
	<g>
		<g>
			<rect x="208" y="57" class="st26" width="26.6" height="6.5"/>
			<rect x="208" y="67.5" class="st26" width="20.9" height="2.4"/>
			<rect x="208" y="72.9" class="st26" width="19" height="2.4"/>
			<rect x="208" y="78.4" class="st26" width="24.1" height="2.4"/>
			<rect x="208" y="83.9" class="st26" width="19" height="2.4"/>
		</g>
	</g>
	<circle class="st25" cx="221.3" cy="103.1" r="1.6"/>
	<g>
		<g>
			<circle class="st25" cx="225.2" cy="49.3" r="1.3"/>
			<path class="st25" d="M220.8,48h-3.3c-0.7,0-1.3,0.6-1.3,1.3c0,0.7,0.6,1.3,1.3,1.3h3.3c0.7,0,1.3-0.6,1.3-1.3
				C222,48.6,221.5,48,220.8,48z"/>
		</g>
	</g>
	<path class="st29" d="M241.2,81.2c2,2.2,5.8,6.9,8,11.5c3.1,6.4,3.7,12.5,4.1,17.2c0.4,4.7-2.3,1.8-2.3,1.8s-7.5-2.1-8.7-8.2
		c-0.8-4.3-0.7-7.5-2.4-9.9c-1.8-2.4-4.4-4.8-3.2-6.3c1.1-1.2,4.4,1.8,4.4,1.8V81.2z"/>
	<path class="st33" d="M246.5,95.6c0.3-0.1-0.7-5.1-5.2-8.5v2.1C243.5,91,246.2,95.7,246.5,95.6z"/>
	<path class="st29" d="M201.4,84.7v13.5c0,0,1.6-1.5,4.4-3.2c2.8-1.7,5.5-3.3,6.3-2.2c0.8,1.1-0.4,4.3-7.7,9.5
		c-1,0.7-0.9,5.2-5.7,9.4c-1,0.9,1,28.1,8.1,32.5c5.2,3.2,36.3-26.6,36.3-26.6l-4.8,24.4c0,0-16.6,12.2-25.4,15.8
		c-8.8,3.6-16.2,1.3-19.2-7.5c-2.9-8.8-3.8-28.3-2.7-40.7C192.2,97.2,195.8,87.5,201.4,84.7z"/>
	<path class="st33" d="M199.6,99.2c0.4,0.1,1.2-0.5,1.8-1.1v-2.4C200.2,97.1,199.1,99.1,199.6,99.2z"/>
	<g class="st37">
		<polygon class="st17" points="237.7,69.5 237.7,63.7 225.9,51.9 220.1,51.9 		"/>
		<polygon class="st17" points="237.7,60 237.7,57.6 232.1,51.9 229.6,51.9 		"/>
	</g>
	<path class="st31" d="M267.5,68.7c-13.9-0.5-32.9-5-39.2-17.7c0,0,12-5.3,32.8,2.4C281.9,61,267.5,68.7,267.5,68.7z"/>
	<path class="st29" d="M259.2,56.9c0.2,6.4,1.3,12.2,0,14.5c-1.3,2.3-3.6,4.7-3.7,6.6c-0.1,1.9,2.6,2.3,2.8,3.8
		c0.2,1.5-1.5,16.4,1.5,19.1c3,2.7,12-3.5,12-3.5l6.8-13.7l-5.4-20.5L259.2,56.9z"/>
	<path class="st38" d="M258.1,89.1c0,0.8,0,1.7,0,2.6c3.3-0.7,5.4-3.2,5.4-3.2h-3.5L258.1,89.1z"/>
	<path class="st39" d="M260.6,87.6c-0.9,0-1.8,0.1-2.5,0.4c0,0.6,0,1.1,0,1.7c2.9-0.4,5.4-1,5.7-1.3C264,88.1,261.8,87.6,260.6,87.6
		z"/>
	<path class="st35" d="M270,66.9c-0.1,9.3-0.1,20-2.5,26.1c-2.4,6.1-7.9,18.4-7.9,18.4l39.5,1.7V77.5L270,66.9z"/>
	<path class="st32" d="M299.1,67.6c-2.5,0.1-8.8,0.1-15.5-3.5c-8.8-4.6-20.1-12.5-20.1-12.5l-1.6-4.1c0,0-7-4.1-16.9-3.7
		c-9.9,0.4-16.6,7.3-16.6,7.3c10.9,0.4,20.2,2.3,28,8c7.7,5.7,12,12.9,24.4,19.9c9.6,5.4,15.9,6.7,18.4,7V67.6z"/>
	<path class="st32" d="M299.1,63.4c0-15.2-5.5-29.2-14.6-40c-16.8,6.1-22.8,22.7-22.8,22.7s2.9,7.3,5.4,9.2c2.5,1.9,7,5.4,19.7,9.5
		c6.2,2,10.1,2.2,12.3,2V63.4z"/>
	<path class="st31" d="M299.1,64.3c-4.1-0.4-15.1-1.8-24-7.5c-11.1-7.2-13.4-10.7-13.4-10.7s-1,0.9-1.6,2.1
		c-0.5,1.2-0.5,2.9-0.5,2.9s5.4,8,14.3,12.4c8.1,4,16.5,6.4,25.2,6.1V64.3z"/>
	<polyline class="st22" points="202,174.8 254.4,117.6 256.8,117.6 299.1,118.7 299.1,174.8 	"/>
	<g>
		<path class="st40" d="M299.1,143.5c-6.2,9.5-14.9,20.7-26.3,31.3h3.6c9.4-9.1,16.9-18.5,22.7-26.9V143.5z"/>
		<path class="st40" d="M299.1,164.3c-3.2,3.5-6.6,7-10.3,10.5h3.6c2.4-2.3,4.6-4.5,6.7-6.8V164.3z"/>
		<path class="st40" d="M257.3,174.8h3.6c26.7-25.6,37.8-54.1,37.9-54.4l-2.3-0.9C296.4,119.8,285,149.1,257.3,174.8z"/>
		<path class="st40" d="M241.9,174.8h3.6c26.7-25.6,37.8-54.1,37.9-54.4l-2.3-0.9C281,119.8,269.6,149.1,241.9,174.8z"/>
		<path class="st40" d="M226.4,174.8h3.6c26.7-25.6,37.8-54.1,37.9-54.4l-2.3-0.9C265.5,119.8,254.1,149.1,226.4,174.8z"/>
	</g>
	<polygon class="st21" points="264.4,108.3 299.1,108.3 299.1,121.7 258.2,121.7 	"/>
	<g>
		<g>
			<path class="st41" d="M295.8,115c-0.1,3-2.6,5.7-6.2,6.8h4.3c3.2-1.8,4.2-4.1,4.3-6.7c0.1-1.5-0.5-5.3-2.9-6.8h-3.1
				C295.5,110,295.9,113.1,295.8,115z"/>
		</g>
		<g>
			<path class="st41" d="M279.9,115c-0.1,3-2.6,5.7-6.2,6.8h4.3c3.2-1.8,4.2-4.1,4.3-6.7c0.1-1.5-0.5-5.3-2.9-6.8h-3.1
				C279.5,110,279.9,113.1,279.9,115z"/>
		</g>
		<g>
			<path class="st41" d="M265.1,115c-0.1,3-2.6,5.7-6.2,6.8h4.3c3.2-1.8,4.2-4.1,4.3-6.7c0.1-1.5-0.5-5.3-2.9-6.8h-3.1
				C264.8,110,265.2,113.1,265.1,115z"/>
		</g>
	</g>
	<polygon class="st11" points="272.8,105.6 266.2,105.6 205.9,174.8 216.1,174.8 	"/>
	<polygon class="st13" points="266.2,105.6 253.2,105.6 187.9,174.8 205.9,174.8 	"/>
	<polygon class="st42" points="226.9,140.2 244,174.8 237.1,174.8 222.4,144.9 	"/>
	<polygon class="st43" points="222.4,144.9 216,151.6 225.9,174.8 237.1,174.8 	"/>
	<ellipse transform="matrix(0.9598 -0.2807 0.2807 0.9598 -34.1765 68.4155)" class="st25" cx="221.7" cy="153.5" rx="2" ry="2.2"/>
	<path class="st29" d="M225.8,246.4c-1.4,3.4-6.8,23.3-7.1,25.5c-0.3,2.2-0.9,9.5-3,14.2c-2.6,5.7-5.5,11.3-15.9,13.6
		c-10.5,2.3-20.3-6-22.1-10.1c-1.8-4.1-6-14.5-3.2-30.8c2.8-16.4,12.9-23.6,29.2-23.8C220,234.8,225.8,246.4,225.8,246.4z"/>
	<path class="st35" d="M175.3,261.8c0.6,0,0.8,2.1,0.8,5.4c-0.1,3.3,0.5,8.5,2.2,8.7c1.7,0.1,1-6.4,3.3-8.2c1.8-1.4,3.9-3.1,3.9-6.9
		c0-3.8,1.5-13.9,4.8-14.2c3.3-0.3,7.6,4.7,8.9,3.9c1.4-0.8,0.2-3.8,1.8-4.6c1.7-0.9,9.1,4.9,10.8,4.3c1.7-0.6,1.1-2.9,2.4-3.2
		c1.2-0.3,9.8,5,9.8,5l-1.5,5.2c0,0,3-4.8,6.6-8.8c3.6-4,5.6-5.8,5.2-8.1c-0.3-2.3-6.8-0.2-7.8-1.5c-1.1-1.3,3.6-2.3,3.4-4.2
		c-0.2-1.8-7.9-1.9-8.1-3.4c-0.2-1.5,4-1.3,3.5-3.1c-0.4-1.8-12.1-2.6-23.7-1.8c-11.6,0.8-16.5,3.1-17,2.5c-0.5-0.6,3.9-4.6,3.3-5.7
		c-0.6-1-5.8,2.3-6.9,3.8c-1.1,1.5,0.2-4.1-1-4.3c-1.3-0.1-3.5,6.3-4.4,8.5c-0.7,1.8-2,2.3-4.7,6.8c-2.7,4.5-2.6,6.5-2.3,7.3
		c0.3,0.8,2.5-1.8,3.1-1.5c0.6,0.3-4.5,9-3.4,10.9c0.6,1.1,1.9-0.9,2.5-0.3c0.6,0.6-1.6,6.5-0.7,11.2c0.9,4.7,3.3,3.1,3.9,0.8
		C174.5,264.1,174.8,261.8,175.3,261.8z"/>
	<path class="st29" d="M175.6,263.1c0,0-6-1.9-6.9,3.9c-0.9,5.8,3.9,7.4,6.2,7.4L175.6,263.1z"/>
	<path class="st33" d="M203.8,272.5c0.7-0.1,0.8,1.6,1.5,3.6c0.5,1.5,0.9,3.1,0.5,3.7c-0.8,1.6-5.1,1.6-5.6,0.8
		c-0.5-0.8,3.4-0.7,4-1.9c0.3-0.5,0-1.6-0.3-2.7C203.5,274.5,203.3,272.6,203.8,272.5z"/>
	<path class="st44" d="M195.7,283.8c0.6-0.3,2.6,1.4,4.3,1.9c1.7,0.5,4.6,0.6,4.8,1c0.1,0.4-3,1.1-5.7,0.4
		C196.4,286.5,195.4,284,195.7,283.8z"/>
	<path class="st32" d="M188.8,311.6c0,0,2.9-5.9,4.2-6.3c0,0,22.3,9,24.6,12.5c2,3.1-3.4,30.3-3.4,30.3h-63.6c0,0-0.3-19.8-0.8-21.7
		s-21.7-29.1-22.9-49.5c-1.1-20.4,8.5-51.2,8.5-51.2l15.8,4.5c0,0-11.2,29.6-7.9,46.7c3.3,17.1,13.5,28,15.2,29.7
		c1.7,1.8,13.9,0.7,13.9,0.7s13.3-2.7,14.4-1.8C187.9,306.5,188.8,311.6,188.8,311.6z"/>
	<g>
		<g>
			<path class="st31" d="M186.4,305.4c-2.5,1.8-5.1,9.7-6.2,10c-1,0.3-9.9-4.7-10.8-7.8c-0.3-0.9,3.6-5.8,8.9-6.9
				c0,0,0.4,1.5,3.2,2.9C184.2,305.1,186.4,305.4,186.4,305.4z"/>
			<path class="st31" d="M193,305.3c2.9,1.8,3.3,9.9,3.9,10.4c0.4,0.3,3.1-0.4,6.3-1.4c3.2-1,3.8-2.2,4.1-2.7
				c0.3-0.4-1.8-4.6-7.1-7.7c0,0-0.7,1-3,1.5C195.3,305.8,193,305.3,193,305.3z"/>
		</g>
	</g>
	<path class="st31" d="M251.3,346.5l12.9-31.9c-5.9-3-18.7-7.2-18.7-7.2c-4.2,12.9-11.8,40.7-11.8,40.7h3.5
		C242,348.1,246.7,347.5,251.3,346.5z"/>
	<path class="st31" d="M188.8,311.6c-1.4,12.3-1.9,27.6-1.9,36.5h1.3c0,0,0.1-20,2.3-39.5C189.6,310.1,188.8,311.6,188.8,311.6z"/>
	<path class="st31" d="M161.8,325.7l14.8,1.6c0,0-0.6,11.6-1.9,13.1c-1.3,1.5-4.7,1.9-7.8,1.5c-3.1-0.3-5.6-1-6.2-2.6
		C160.2,338.2,161.8,325.7,161.8,325.7z"/>
	<path class="st35" d="M260.9,71.8c-0.3-0.3,1.2-1.7,3.6-1.6c2.1,0.1,3-0.1,3.2,0.1c0.3,0.3-0.8,1.5-2.7,1.4
		C262.5,71.7,261.2,72.1,260.9,71.8z"/>
	<g>
		<g>
			<path class="st15" d="M30.5,344c0.2-1.2,7.4-4.9,8.7-4.5c1.3,0.4,4,6.8-0.7,9.3C34.6,351,30.5,344,30.5,344z"/>
			<path class="st15" d="M28,336c0.6,0.5,2.5-4.8,3.9-8.4c1.4-3.6,2.6-8.8,0.5-14.1c-2-5.3-7-7.3-9.3-1.6S25.3,333.4,28,336z"/>
		</g>
	</g>
	<path class="st35" d="M199,271c0.3-0.2-0.6-1.9-3.2-2.4c-2.7-0.6-3.6-1.2-4-1c-0.4,0.2,0.6,1.9,3.5,2.6
		C197.6,270.7,198.6,271.3,199,271z"/>
	<path class="st35" d="M209.7,273.2c-0.3-0.4,1.4-1.7,4.2-1.5c2.4,0.2,3.5,0.1,3.8,0.3c0.4,0.3-1,1.6-3.2,1.4
		C211.5,273.1,209.9,273.5,209.7,273.2z"/>
	<rect x="117.9" y="1.5" class="st17" width="6.2" height="346.6"/>
	<rect x="121.7" y="171.7" class="st17" width="177.4" height="6.2"/>
	<path class="st33" d="M171.7,265.6c0.5-0.8,2.1-0.9,1.9,1.1c-0.2,2-0.2,3.5-0.9,4C172.1,271.2,170,268.4,171.7,265.6z"/>
	<path class="st44" d="M85.2,156.9c0.9,0,0.8,2.1,0.2,3.3c-0.6,1.2-1.3,2.1-1.8,2.2C83.1,162.5,84,157,85.2,156.9z"/>
	<path class="st44" d="M36.4,158.1c1,0.1,0.8,1.6,1.4,2.9c0.6,1.3,1.3,2.4,0.6,2.9c-0.7,0.6-1.8-0.8-2.3-2.2
		C35.6,160.2,36,158,36.4,158.1z"/>
	<rect x="27.3" y="231.3" class="st17" width="69.6" height="2"/>
</g>
</svg>
