<?xml version="1.0" encoding="utf-8"?>
<!-- Generator: Adobe Illustrator 19.2.0, SVG Export Plug-In . SVG Version: 6.00 Build 0)  -->
<svg version="1.1" id="Layer_1" xmlns="http://www.w3.org/2000/svg"  x="0px" y="0px"
	 viewBox="0 0 317 332" style="enable-background:new 0 0 317 332;" xml:space="preserve">
<style type="text/css">
	.st0{fill:#DDE5EC;}
	.st1{fill:#C6D2DB;}
	.st2{fill:#05A160;}
	.st3{fill:#F5DC6E;}
	.st4{fill:#D4B847;}
	.st5{fill:#D36734;}
	.st6{fill:#E47B3D;}
	.st7{fill:#14647D;}
	.st8{fill:#D9D6D3;}
	.st9{fill:#FFFFFF;}
	.st10{fill:#E6E5E4;}
	.st11{fill:#327DAF;}
	.st12{fill:#E1B18F;}
	.st13{fill:#C29575;}
	.st14{fill:#213238;}
	.st15{fill:#F6C79D;}
	.st16{fill:#19272B;}
	.st17{fill:#314E51;}
	.st18{fill:#2B444A;}
	.st19{fill:#101A1B;}
	.st20{fill:#352E2C;}
	.st21{fill:#00884B;}
	.st22{fill:#29B16B;}
	.st23{fill:#2D4647;}
	.st24{fill:#327DB0;}
	.st25{fill:#F2F2F4;}
	.st26{fill:#CA4D35;}
	.st27{fill:none;stroke:#000000;stroke-width:0.25;stroke-miterlimit:10;}
	.st28{fill:#BC463B;}
	.st29{fill:#26678B;}
	.st30{fill:#D65141;}
	.st31{fill:#6E589D;}
	.st32{fill:#D4A889;}
</style>
<g>
	<path class="st0" d="M231.5,0c32.6,0,59,26.4,59,59v212.6c0,32.6-26.4,59-59,59H66.2c-32.6,0-59-26.4-59-59V59
		c0-32.6,26.4-59,59-59H231.5z"/>
	<rect x="249.1" y="85.3" class="st1" width="41.5" height="75.3"/>
	<rect x="249.1" y="169.5" class="st1" width="41.5" height="15"/>
	<rect x="125.3" y="36.5" class="st1" width="98.6" height="230.4"/>
	<g>
		<path class="st2" d="M77.9,39.7c0,3.3-2.7,6-6,6H60.7c-3.3,0-6-2.7-6-6V28.6c0-3.3,2.7-6,6-6h11.2c3.3,0,6,2.7,6,6V39.7z"/>
		<path class="st3" d="M71.1,30.7c-1.1-1.7-3.8-2-4.9-4.6h-1.3v1v4v7.3c-0.4-0.2-0.8-0.4-1.3-0.4c-1.4,0-2.6,1.2-2.6,2.6
			c0,1.4,1.2,2.6,2.6,2.6c1.4,0,2.6-1.2,2.6-2.6V31v-0.3v-1.3c0.3,1.1,1.1,1.5,2.7,2.6c1.7,1.1,1.1,4.5,1.1,4.5
			C71.5,34.8,72.2,32.4,71.1,30.7z"/>
	</g>
	<g>
		<path class="st4" d="M39,71.5L36.4,69c0,0-0.4,0.6-0.8,1.1c-0.2,0-0.4-0.1-0.5-0.1H24.8c-3.1,0-5.5,2.5-5.5,5.5v10.3
			c0,0.3,0,0.7,0.1,1L19,86.2L18.3,87l2.6,2.6c0,0,0,0,0,0l0,0v0c1,1,2.4,1.6,3.9,1.6h10.3c3.1,0,5.5-2.5,5.5-5.5V75.5
			C40.6,73.9,40,72.5,39,71.5z"/>
		<path class="st3" d="M38,83.2c0,3.1-2.5,5.5-5.5,5.5H22.2c-3.1,0-5.5-2.5-5.5-5.5V72.9c0-3.1,2.5-5.5,5.5-5.5h10.3
			c3.1,0,5.5,2.5,5.5,5.5V83.2z"/>
		<g>
			<g>
				<path class="st5" d="M25.1,81.6l-1.1,3.8h-3.5l4.5-14.9h4.4l4.6,14.9h-3.6l-1.1-3.8H25.1z M28.9,79.1L28,76
					c-0.3-0.9-0.5-2-0.7-2.9h0c-0.2,0.9-0.4,2-0.7,2.9l-0.9,3.2H28.9z"/>
			</g>
		</g>
	</g>
	<g>
		<g>
			<path class="st6" d="M174.4,56.5c0,6.9-5.6,12.6-12.6,12.6h-23.4c-6.9,0-12.6-5.6-12.6-12.6V33.1c0-6.9,5.6-12.6,12.6-12.6h23.4
				c6.9,0,12.6,5.6,12.6,12.6V56.5z"/>
			<g>
				<rect x="132" y="34.1" class="st7" width="36.3" height="23.9"/>
				<rect x="133.4" y="50.9" class="st8" width="33.5" height="5.6"/>
				<path class="st9" d="M133.4,54.4c0,0,11.7-3.5,16.8-0.6V33.3c0,0-2.7-5.6-16.8,0V54.4z"/>
				<path class="st10" d="M150.2,53.7c0,0,3.7-1.7,9.5-1.7c5.8,0,7.2,2.8,7.2,2.8V33.3c0,0-1.8-3.1-7-3.1c-6.5,0-9.8,3.1-9.8,3.1
					V53.7z"/>
			</g>
		</g>
		<path class="st11" d="M152.1,30v13.3l1.5-2.2l1.5,2.2V29C153.9,29.2,152.9,29.6,152.1,30z"/>
	</g>
	<path class="st12" d="M117.3,158.3c-1-2.4-5.8-4.4-5.8-4.4s-0.8-4.3,0-12.7c0,0-28.1-9.7-27.1-3.8c1,5.9-0.7,13.8-0.7,13.8
		c-7.4,0.1-8.3,2.4-10.5,7.4c-2.1,5,4.4,11.1,7.2,15.3c0,0,0,0,0,0c0.2-0.1,0.5-0.1,0.7-0.1c0.2-0.2,0.4-0.4,0.5-0.5
		c0.9-1.1,1.9-2,2.9-3c1-0.9,2.3-1.4,3.6-1.3c0.3-0.1,0.7-0.1,1.1-0.1c0.4,0,0.8,0.1,1.2,0.2c0,0,0,0,0.1,0c0.2,0.1,0.4,0.1,0.6,0.2
		c1.7,0.7,2.5,2.4,2.5,4.1c2.2,3.5,3.8,8,4.4,11.7c0.2,1.6,0.4,3.9,0.1,6.2c2.7-0.8,5.6-2.2,7.8-4.6c4.4-4.7-0.7-10,4.4-12.9
		C115.3,170.8,118.4,160.7,117.3,158.3z"/>
	<path class="st13" d="M7.3,275.6c2,30.8,27.6,55.1,58.9,55.1h165.3c32.6,0,59-26.4,59-59V225H7.3V275.6z"/>
	<path class="st14" d="M76,282.9c0,0,4.8,11.5-2.5,15.1c-7.3,3.6-15.1,0.7-22.5-7.5c-7.4-8.2-12.5-7.6-12.7-15.4
		c-0.3-7.8,7.4-9.3,8.1-9.4c0.7-0.1,14.8-0.7,15.6-0.4c0.8,0.3,6.1,4.6,6.2,4.8C68.4,270.3,76,282.9,76,282.9z"/>
	<path class="st15" d="M35.3,270.4c0,0-0.9-18.3,18.7-12c0,0,12.7,2.8,18.2,12.5c5.5,9.7,6,16.2,2.9,18.5c0,0,0.6,3.6-1.9,5.2
		c-2.6,1.7-4.6-0.5-6.4-5.2c-1.8-4.7-3.6-11.5-7.8-14.4c0,0,1.9,4.8,3,8.7c1.1,3.9,2.1,11.4-0.5,12.5c-2.6,1.1-3.9-8.1-5.4-10.9
		c-1.6-3.2-3.7-6-3.7-6s1,4.6,1.8,7.5c0.7,2.3,1.4,7.9-1.2,8.3c-2.6,0.3-3.9-6.4-5.4-10.1c-1.4-3.7-2.7-5.8-5.9-7.4
		C38.6,276,35.3,273.5,35.3,270.4z"/>
	<path class="st12" d="M64,269.3c0,0,2.7,3,6,11.1c3,7.3,3.8,11.7,4,13.7c1.6-1.8,1.1-4.5,1.1-4.5C72.9,277.7,64,269.3,64,269.3z"/>
	<polygon class="st16" points="128.2,305.7 77.8,251.7 77.8,243.2 128.2,297.3 	"/>
	<polygon class="st17" points="77.8,243.2 229.9,243.2 280.4,297.3 128.2,297.3 	"/>
	<g>
		<g>
			<g>
				<polygon class="st18" points="96,253.2 108.7,253.2 112.9,257.7 100.2,257.7 				"/>
				<polygon class="st18" points="114.8,253.2 127.5,253.2 131.7,257.7 119,257.7 				"/>
				<polygon class="st18" points="133.6,253.2 146.3,253.2 150.5,257.7 137.8,257.7 				"/>
				<polygon class="st18" points="152.4,253.2 165.1,253.2 169.3,257.7 156.6,257.7 				"/>
			</g>
			<g>
				<polygon class="st18" points="102.3,260 115,260 119.3,264.5 106.5,264.5 				"/>
				<polygon class="st18" points="121.1,260 133.8,260 138.1,264.5 125.3,264.5 				"/>
				<polygon class="st18" points="139.9,260 152.6,260 156.9,264.5 144.1,264.5 				"/>
				<polygon class="st18" points="158.7,260 171.4,260 175.6,264.5 162.9,264.5 				"/>
			</g>
			<g>
				<polygon class="st18" points="108.6,266.8 121.4,266.8 125.6,271.3 112.9,271.3 				"/>
				<polygon class="st18" points="127.4,266.8 140.2,266.8 144.4,271.3 131.7,271.3 				"/>
				<polygon class="st18" points="146.2,266.8 159,266.8 163.2,271.3 150.5,271.3 				"/>
				<polygon class="st18" points="165,266.8 177.8,266.8 182,271.3 169.3,271.3 				"/>
			</g>
			<g>
				<polygon class="st18" points="115,273.5 127.7,273.5 131.9,278.1 119.2,278.1 				"/>
				<polygon class="st18" points="133.8,273.5 146.5,273.5 150.7,278.1 138,278.1 				"/>
				<polygon class="st18" points="152.6,273.5 165.3,273.5 169.5,278.1 156.8,278.1 				"/>
				<polygon class="st18" points="171.4,273.5 184.1,273.5 188.3,278.1 175.6,278.1 				"/>
			</g>
			<g>
				<polygon class="st18" points="121.3,280.3 134,280.3 138.3,284.8 125.5,284.8 				"/>
				<polygon class="st18" points="140.1,280.3 152.8,280.3 157.1,284.8 144.3,284.8 				"/>
				<polygon class="st18" points="158.9,280.3 171.6,280.3 175.9,284.8 163.1,284.8 				"/>
				<polygon class="st18" points="177.7,280.3 190.4,280.3 194.7,284.8 181.9,284.8 				"/>
			</g>
		</g>
	</g>
	<rect x="128.2" y="297.3" class="st19" width="152.1" height="8.4"/>
	<path class="st2" d="M106.9,170.3c-3.5,0.4-6,0.9-6.6,2.4c-0.6,1.6,3.3,3.3,3.1,7.4c-0.2,4-2.8,6.3-4.2,10.2c0,0-0.8-6.1-2.3-8.9
		s-4.3-5.5-4.9-6.7c-0.7-1.1-1.7-4.5-1.7-4.5v-1.9l-6.8,1.5c0,0-8.1-6.2-8.6-8.5c-0.4-2.3-0.4-8-0.4-8S56.8,156,47.5,162
		c-9.3,6-47.7,51.1-47.5,61.6c0.2,11.2,22.1,38.5,34.5,48.3c0,0,6.4-13.2,21-13.9c0,0-27.6-25.2-29-35.1c-1.4-9.9,28.7-33.2,30.5-33
		c1.8,0.1,0,35.2,0,35.2h77.3c0,0-2.6-37.5-0.4-36.8c1.1,0.4,3.6,36.8,3.6,36.8H163c0,0-6.8-54.4-13.5-63.1
		c-6.7-8.7-35.2-9.6-35.2-9.6s4.7,3.8,3.3,10.6c-1.5,6.8-3.7,7-3.7,7L106.9,170.3z"/>
	<path class="st20" d="M138,127.2c-1.2,1.1-1.7-2.6-2.8-2.9c-1.1-0.3-2.5,7.8-5,8.3c-2.5,0.4-1.8-6.3-2.9-7.5
		c-1.1-1.2-9.4,17.6-23.5,15.5c-14.1-2.1-22.7-10.7-22.7-10.7l-4.8-3.3c0,0,1.8,11.5,0,12.4c-1.8,0.9-6.4-6.4-7.3-6.1
		c-0.9,0.4-0.1,3.3-1.3,3.6c-1.2,0.2-0.9-8.1-2.4-10.3c-1.5-2.1-1.4,5.5-2.8,5c-1.5-0.5-4.1-14.7-4.8-23.7c-0.7-9-4.7-22-2.3-39.4
		c2.4-17.4,16.8-32.5,43.1-33.6c29.7-1.3,43.8,17.1,43.8,39.3C142.2,104.2,140.7,124.8,138,127.2z"/>
	<path class="st12" d="M135.9,97.4c3,0,8,2,7.9,8.1c-0.1,6.1-3.6,8.6-8.8,8.3L135.9,97.4z"/>
	<path class="st12" d="M61.7,96.4c0,0-6.6,0.1-6.6,7.9c-0.1,7.8,6.8,8.3,9.3,8.4L61.7,96.4z"/>
	<path class="st15" d="M59.3,88.8c0,0,2.5,24,7.6,32.8c9.1,15.6,27.8,26.6,40.5,24.6c11.9-1.8,28.4-20.2,29.9-38.5
		c1.6-18.2,0-29.1,0-29.1l-3.5-20l-20.9-16.1c0,0-31.8,5-32.5,5.4c-0.7,0.4-15.9,17.1-16,17.8C64.3,66.4,59.3,88.8,59.3,88.8z"/>
	<path class="st20" d="M97.5,104c0.4-0.4-1.6-3-5.7-3.1c-4.2-0.2-5.8-1.1-6.4-0.6c-0.6,0.5,1.5,2.9,6.1,3.3
		C95.3,103.8,97,104.5,97.5,104z"/>
	<path class="st12" d="M105.5,102.4c0.9,0,0.8,3.4,1.2,5.7c0.4,2.3,2.1,3.3,1.8,5.5c-0.3,2.2-3.8,3.7-4.9,2.7
		c-1.1-1,2.4-2.2,2.5-3.7c0.1-1.5-1.1-3.2-1.1-5.9C105,104,105,102.4,105.5,102.4z"/>
	<path class="st20" d="M113.3,103.5c-0.5-0.6,1.8-3.2,6.1-3.5c3.7-0.2,5.3-0.8,5.8-0.4c0.6,0.4-1.2,2.9-4.6,3.1
		C116.2,102.9,113.8,103.9,113.3,103.5z"/>
	<path class="st20" d="M112,127.3c-5.9,2.3-14,0.6-17-0.1c1.4,3,4.4,6,9,5.9C107.8,132.9,110.5,130.1,112,127.3z"/>
	<path class="st12" d="M96.7,93c-0.1,1.5-2.3,0.2-5.4,0.3c-3.1,0.1-7.3-0.6-8-1.5c-0.7-0.9,4.5-2.6,7.3-2
		C93.3,90.4,96.8,91.4,96.7,93z"/>
	<path class="st12" d="M114.9,93.6c-0.4-1.2,3.4-3,6.3-3.3c2.8-0.3,6.8,0.8,7,1.6c0.1,0.8-4.1,0.9-7.1,1.4
		C118,93.9,115.5,95.1,114.9,93.6z"/>
	<path class="st9" d="M112,127.3c1.6-2.9,2.3-6.4,1.7-6.5c-1.3-0.3-4.3,1.5-9.3,1.7c-5.4,0.2-9.4-1.7-9.9-1.3c-1,0.8-0.4,3.9,0.5,6
		C98,127.9,106.1,129.6,112,127.3z"/>
	<path class="st20" d="M139.4,87.3c0.2,11.1-1.7,18.8-3.9,18.8c-1.4,0-0.3-9.8-0.6-15.3c-0.3-5.5-1.2-11.9-2.2-12
		c-1-0.1-3.1,5.4-5.3,5.5c-2.1,0.1-0.9-8.7-2.8-10.7c-1.9-2-3,2.8-5.4,7.2c-2.4,4.4-3.5,6.3-4.9,6.1c-1.4-0.2-1.1-2.3-0.4-4.4
		c0,0-1.8,2.7-3.5,4.3c-1.7,1.6-3.6,2.2-4.3,1.6c-0.7-0.6,0.6-5.4,1-8.2c0,0-1.2,3.9-4.6,7.4c-3.4,3.5-7.9,5.3-9.4,4.3
		c-1.5-1,3.5-6.5,4.9-10.8c1.3-4.3,0.9-8.6-0.1-9.6c-1.1-1-2.1,6.2-4.3,10c-2.3,3.8-6.2,6.8-7.3,6.6c-1.1-0.2,1.5-4.6,2-7.9
		s-0.3-5.1-1-5.2c-0.7,0-1.7,5.2-3.5,8c-1.8,2.8-3.7,3.9-4.4,3.7c-0.7-0.3,0.2-3.5-1.1-8.1c-0.9-3.1-2.9-3.8-4.2-2.4
		c-1.4,1.5-3.1,4.3-5.2,12.9c-1.9,8.2-2.3,15.7-3.5,16.7c-1.1,1-3.1-0.3-5-6.9c-1.9-6.6-3.3-9.1-2.5-12.6c0.8-3.5,1.3-21.6,4.5-25.7
		C65.6,56.5,75,49,77.6,47.7c2.5-1.3,26.6-9.4,34.6-7.9c7.9,1.5,13.7,7.5,15.4,9.6c1.8,2.1,8.9,5.5,10.8,13
		C140.3,70,139.4,87,139.4,87.3z"/>
	<path class="st21" d="M121.5,165.1c-0.8-10.3-6.9-14.9-10.4-15.9h0c0,3.2,0.4,4.8,0.4,4.8s6.4,3.2,3,9.1c-3.4,5.8-7.6,7.3-7.6,7.3
		s3.7,1.5,5.2,4.2c1.5,2.7,2.4,5.6,2.4,5.6S122.4,175.3,121.5,165.1z"/>
	<path class="st22" d="M90.2,168.4c0,0,3.7-0.9,4.5,0c0.8,0.9,0.7,5.5,1.5,7.1s3.7,4.2,4,8c0.3,3.9,0.4,8.9,0.4,14.8s0,26.7,0,26.7
		h-4.3c0,0,0.4-19.5,0.3-27.4c-0.1-7.8,0.1-12.3-1.4-14.5c-1.6-2.3-3.7-4.6-4.4-6.3s-2-6.5-1.7-8.1L90.2,168.4z"/>
	<path class="st21" d="M77.4,161.7c-1.9-6.6,6.3-10.5,6.3-10.5s0.3-1.5,0.6-3.7l0,0c0,0-5.9-0.5-10.4,4.3
		c-4.5,4.8-4.4,10.1-2.6,15.4c1.9,5.3,7.6,9.9,9.3,13.2c0,0,2.4-8.5,9.6-12.1C90.2,168.4,79.3,168.4,77.4,161.7z"/>
	<g>
		<path class="st21" d="M93.8,170.5c0.1,0.4-3,1.3-3.2,0.5C90.4,170.3,93.7,169.6,93.8,170.5z"/>
		<path class="st21" d="M98,180c0.1,0.4-2.8,1.8-3.1,1C94.6,180.3,97.7,179.1,98,180z"/>
	</g>
	<g>
		<g>
			<path class="st17" d="M99.6,191.1c0,0.7-0.5,1.2-1.2,1.2c-0.7,0-1.2-0.6-1.2-1.3c0-0.7,0.5-1.2,1.2-1.2
				C99.1,189.9,99.6,190.4,99.6,191.1z"/>
			<path class="st17" d="M106.2,182.4c0,0.7-0.5,1.2-1.2,1.2c-0.7,0-1.2-0.6-1.2-1.3c0-0.7,0.5-1.2,1.2-1.2
				C105.6,181.1,106.2,181.6,106.2,182.4z"/>
			<path class="st17" d="M104.1,173.7c0,0.7-0.5,1.2-1.2,1.2c-0.7,0-1.2-0.6-1.2-1.3c0-0.7,0.5-1.2,1.2-1.2
				C103.6,172.4,104.1,172.9,104.1,173.7z"/>
			<path class="st17" d="M99.7,202.4c0,0.7-0.6,1.2-1.2,1.2c-0.7,0-1.2-0.6-1.2-1.3s0.6-1.2,1.2-1.2
				C99.1,201.1,99.7,201.7,99.7,202.4z"/>
			<path class="st17" d="M99.7,214.5c0,0.7-0.6,1.3-1.3,1.3c-0.7,0-1.3-0.7-1.3-1.4c0-0.7,0.6-1.2,1.3-1.2
				C99.1,213.1,99.7,213.7,99.7,214.5z"/>
		</g>
	</g>
	<g>
		<path class="st3" d="M157.8,250.5c0,3.9-3.2,7.1-7.1,7.1h-13.2c-3.9,0-7.1-3.2-7.1-7.1v-13.2c0-3.9,3.2-7.1,7.1-7.1h13.2
			c3.9,0,7.1,3.2,7.1,7.1V250.5z"/>
		<g>
			<g>
				<g>
					<path class="st11" d="M147.7,236.9h-7.2c-3,0-5.4,2.4-5.4,5.4v2.2c0,3,2.4,5.4,5.4,5.4v2.5l2.5-2.5h4.7c3,0,5.4-2.4,5.4-5.4
						v-2.2C153.1,239.3,150.7,236.9,147.7,236.9z"/>
				</g>
			</g>
		</g>
	</g>
	<polygon class="st14" points="132.9,302.2 285,302.2 317.3,213.7 165.1,213.7 	"/>
	<polygon class="st16" points="160.5,208.7 128.2,297.3 132.9,302.2 165.1,213.7 	"/>
	<path class="st16" d="M236.5,258c-1.9,4.7-7,8.4-11.3,8.4c-4.3,0-6.3-3.8-4.4-8.4c1.9-4.7,7-8.4,11.3-8.4
		C236.4,249.5,238.4,253.3,236.5,258z"/>
	<g>
		<path class="st4" d="M185.5,197.5l-1.8-1.8c0,0-0.3,0.4-0.5,0.7c-0.1,0-0.2,0-0.4,0h-7c-2.1,0-3.8,1.7-3.8,3.8v7
			c0,0.2,0,0.5,0.1,0.7l-0.3-0.4l-0.5,0.6l1.8,1.8c0,0,0,0,0,0l0,0v0c0.7,0.7,1.6,1.1,2.6,1.1h7c2.1,0,3.8-1.7,3.8-3.8v-7
			C186.6,199.1,186.2,198.2,185.5,197.5z"/>
		<path class="st3" d="M184.9,205.4c0,2.1-1.7,3.8-3.8,3.8h-7c-2.1,0-3.8-1.7-3.8-3.8v-7c0-2.1,1.7-3.8,3.8-3.8h7
			c2.1,0,3.8,1.7,3.8,3.8V205.4z"/>
		<g>
			<g>
				<g>
					<g>
						<path class="st5" d="M181.1,206.7c-0.4,0.2-1.4,0.4-2.6,0.4c-3.5,0-5.3-2.2-5.3-5.1c0-3.5,2.5-5.4,5.5-5.4
							c1.2,0,2.1,0.2,2.5,0.5l-0.5,1.8c-0.5-0.2-1.1-0.4-1.9-0.4c-1.8,0-3.2,1.1-3.2,3.3c0,2,1.2,3.3,3.2,3.3c0.7,0,1.5-0.1,1.9-0.3
							L181.1,206.7z"/>
					</g>
				</g>
			</g>
		</g>
	</g>
	<polygon class="st17" points="160.5,208.7 312.6,208.7 317.3,213.7 165.1,213.7 	"/>
	<rect x="114.2" y="287.7" class="st23" width="3.1" height="1.9"/>
	<polygon class="st17" points="117.4,287.7 115.1,285.4 112.1,285.4 114.2,287.7 	"/>
	<polygon class="st14" points="112.1,285.4 112,287.2 114.2,289.5 114.2,287.7 	"/>
	<g>
		<g>
			<path class="st17" d="M69.3,329.1c-13.5,0-28.3-7-30.5-12c-0.7-1.6-0.3-2.9,1.1-3.9c3.7-2.4,9.4-1.8,15.4-1.3
				c6.4,0.6,13.1,1.3,18.2-1.4c3.7-1.9,5.6-3.8,5.7-5.8c0.2-2.4-2.2-4.9-5.8-7.9c-0.3-0.2-0.3-0.6-0.1-0.8c0.2-0.3,0.6-0.3,0.8-0.1
				c3.2,2.6,6.6,5.7,6.3,9c-0.2,2.4-2.3,4.6-6.4,6.7c-5.4,2.8-12.2,2.2-18.8,1.6c-5.8-0.6-11.3-1.1-14.6,1.1c-1,0.6-1.2,1.4-0.7,2.4
				c2.6,5.6,23.4,14.3,37.6,10.3c16.3-4.5,29.6-4.8,43.2-0.7c4.1,1.2,7.1,1,7.8-0.5c0.9-2.2-2.8-7.1-11.6-11.7
				c-10-5.2-16-12.3-15.3-18c0.4-2.9,2.6-6.8,11.3-8.9c0.3-0.1,0.6,0.1,0.7,0.4c0.1,0.3-0.1,0.6-0.4,0.7c-6.3,1.6-9.9,4.3-10.4,7.9
				c-0.6,5.2,5.1,11.8,14.7,16.8c8.5,4.4,13.5,9.8,12.1,13.1c-0.9,2.2-4.3,2.7-9.2,1.2c-13.4-4-26.5-3.7-42.6,0.7
				C75.1,328.8,72.2,329.1,69.3,329.1z"/>
		</g>
	</g>
	<polygon class="st24" points="158.7,264.9 202.7,251 209.2,271.3 164.6,288.2 	"/>
	<polygon class="st25" points="202.9,251.7 202.7,251 197.4,252.6 184.5,265.4 164.4,263.1 158.7,264.9 159.1,266.2 180.8,269.1 
		164.1,285.9 164.6,288.2 169.1,286.6 185.4,269.7 205.6,272.6 209.2,271.3 208.3,268.4 189,266 	"/>
	<polygon class="st26" points="201.4,251.4 200.2,251.8 184.9,266.9 161.2,264.1 159.2,264.8 183.7,268 164.4,287.4 164.6,288.2 
		166.2,287.7 185,268.2 208.4,271.6 209.2,271.3 208.7,269.9 186.1,267 	"/>
	<polygon class="st25" points="191.5,269.9 207,264.4 205.2,258.7 189.5,264 187,256 176.6,259.2 179.3,267.4 160.9,273.5 
		162.5,279.9 181.4,273.4 184.3,280.8 194.2,277 	"/>
	<polygon class="st26" points="188.5,268.9 206.4,262.6 205.8,260.5 187.7,266.6 184.5,256.7 179,258.5 182.3,268.4 161.4,275.3 
		162.1,278 183.1,270.8 186.6,279.9 191.8,277.9 	"/>
	<path class="st27" d="M295.8,230.9l-0.6,1.2c-0.5,1-0.1,1.9,0.8,2.1l2.1,0.4l2.3-4.6c0,0,0-0.1,0-0.1l-2.1-0.4
		C297.4,229.3,296.3,229.9,295.8,230.9z"/>
	<path class="st26" d="M292.5,246.1c-1,2-3.3,3.4-5.2,3l-32.8-6.4c-1.9-0.4-2.6-2.3-1.6-4.3l7.8-16.1c1-2,3.3-3.4,5.2-3l32.8,6.4
		c1.9,0.4,2.6,2.3,1.6,4.3L292.5,246.1z"/>
	<polygon class="st28" points="297.1,236.8 257.5,229.1 257.9,228.1 297.5,235.8 	"/>
	<path class="st17" d="M288.2,236.4l-5.7,11.7l4.8,0.9c1.9,0.4,4.2-1,5.2-3l3.9-8.1L288.2,236.4z"/>
	<g>
		<g>
			<path class="st29" d="M264.5,222.9l-3.6-0.7c0,0,0,0.1-0.1,0.1l-2.3,4.6l3.6,0.7c0.9,0.2,2.1-0.5,2.5-1.5l0.6-1.2
				C265.7,224,265.4,223,264.5,222.9z"/>
			<path class="st29" d="M274.8,228.1c-0.5,1-1.6,1.6-2.5,1.5l-4.4-0.8c-0.9-0.2-1.3-1.1-0.8-2.1l0.6-1.2c0.5-1,1.6-1.6,2.5-1.5
				l4.4,0.8c0.9,0.2,1.3,1.1,0.8,2.1L274.8,228.1z"/>
			<path class="st29" d="M279.5,239.5c-0.5,1-1.6,1.6-2.5,1.5l-4.4-0.8c-0.9-0.2-1.3-1.1-0.8-2.1l0.6-1.2c0.5-1,1.6-1.6,2.5-1.5
				l4.4,0.8c0.9,0.2,1.3,1.1,0.8,2.1L279.5,239.5z"/>
			<path class="st29" d="M285,240.6c-0.5,1-1.6,1.6-2.5,1.5L282,242c-0.9-0.2-1.3-1.1-0.8-2.1l0.6-1.2c0.5-1,1.6-1.6,2.5-1.5
				l0.5,0.1c0.9,0.2,1.3,1.1,0.8,2.1L285,240.6z"/>
			<path class="st29" d="M260.9,232.7l-4.8-0.9l-2.3,4.7l4.8,0.9c0.9,0.2,2.1-0.5,2.5-1.5l0.6-1.2
				C262.2,233.8,261.9,232.9,260.9,232.7z"/>
			<g>
				<path class="st29" d="M284,226.7l-4.4-0.8c-0.9-0.2-2.1,0.5-2.5,1.5l7.7,1.5C285.2,227.8,284.9,226.8,284,226.7z"/>
				<path class="st29" d="M276.5,228.4c-0.5,1-0.1,1.9,0.8,2.1l4.4,0.8c0.9,0.2,2.1-0.5,2.5-1.5l0.1-0.3l-7.7-1.5L276.5,228.4z"/>
			</g>
			<g>
				<path class="st29" d="M285.9,230.3c-0.5,1-0.1,1.9,0.8,2.1l4.4,0.8c0.9,0.2,2.1-0.5,2.5-1.5l0.1-0.3L286,230L285.9,230.3z"/>
				<path class="st29" d="M293.3,228.5l-4.4-0.8c-0.9-0.2-2.1,0.5-2.5,1.5l7.7,1.5C294.6,229.6,294.2,228.7,293.3,228.5z"/>
			</g>
			<g>
				<path class="st29" d="M262.4,236.2c-0.5,1-0.1,1.9,0.8,2.1l4.4,0.8c0.9,0.2,2.1-0.5,2.5-1.5l0.1-0.2l-7.7-1.5L262.4,236.2z"/>
				<path class="st29" d="M269.9,234.4l-4.4-0.8c-0.9-0.2-2.1,0.5-2.5,1.5l0,0.1l7.7,1.5l0-0.1C271.2,235.5,270.8,234.6,269.9,234.4
					z"/>
			</g>
		</g>
	</g>
	<g>
		<g>
			<path class="st16" d="M263.8,244.5c-1,2-3.3,3.4-5.2,3c-1.9-0.4-2.6-2.3-1.6-4.3c1-2,3.3-3.4,5.2-3
				C264.1,240.5,264.8,242.5,263.8,244.5z"/>
			<path class="st16" d="M287,249c-1,2-3.3,3.4-5.2,3c-1.9-0.4-2.6-2.3-1.6-4.3c1-2,3.3-3.4,5.2-3C287.3,245,288,247,287,249z"/>
		</g>
	</g>
	<g>
		<path class="st11" d="M42.9,148.1c0,5.8-4.7,10.5-10.5,10.5H12.7c-5.8,0-10.5-4.7-10.5-10.5v-19.6c0-5.8,4.7-10.5,10.5-10.5h19.6
			c5.8,0,10.5,4.7,10.5,10.5V148.1z"/>
		<polygon class="st9" points="14.4,127.4 33.2,138.2 14.4,149.1 		"/>
	</g>
	<g>
		<path class="st30" d="M197.6,168.2c0,4.4-3.6,8-8,8h-15c-4.4,0-8-3.6-8-8v-14.9c0-4.4,3.6-8,8-8h15c4.4,0,8,3.6,8,8V168.2z"/>
		<g>
			<path class="st3" d="M181.3,152.4h-5.4c-2.3,0-4.1,1.8-4.1,4.1v1.6c0,2.3,1.8,4.1,4.1,4.1v1.9l1.9-1.9h3.5c2.3,0,4.1-1.8,4.1-4.1
				v-1.6C185.4,154.2,183.5,152.4,181.3,152.4z"/>
			<path class="st9" d="M182.9,158.9h5.4c2.3,0,4.1,1.8,4.1,4.1v1.6c0,2.3-1.8,4.1-4.1,4.1v1.9l-1.9-1.9h-3.5
				c-2.3,0-4.1-1.8-4.1-4.1V163C178.8,160.7,180.6,158.9,182.9,158.9z"/>
		</g>
	</g>
	<g>
		<path class="st4" d="M122.3,190.4l-2.1-2.1c0,0-0.3,0.5-0.6,0.9c-0.1,0-0.3,0-0.4,0h-8.3c-2.5,0-4.5,2-4.5,4.5v8.3
			c0,0.3,0,0.5,0.1,0.8l-0.3-0.5l-0.6,0.7l2.1,2.1c0,0,0,0,0,0l0,0v0c0.8,0.8,1.9,1.3,3.1,1.3h8.3c2.5,0,4.5-2,4.5-4.5v-8.3
			C123.7,192.3,123.2,191.2,122.3,190.4z"/>
		<path class="st3" d="M121.5,199.8c0,2.5-2,4.5-4.5,4.5h-8.3c-2.5,0-4.5-2-4.5-4.5v-8.3c0-2.5,2-4.5,4.5-4.5h8.3
			c2.5,0,4.5,2,4.5,4.5V199.8z"/>
		<g>
			<g>
				<path class="st5" d="M108.4,189.7c0.7-0.1,2.2-0.3,3.5-0.3c1.7,0,2.7,0.2,3.5,0.7c0.8,0.4,1.5,1.3,1.5,2.4c0,1.1-0.6,2.1-2,2.6
					v0c1.4,0.4,2.4,1.4,2.4,3c0,1.1-0.5,1.9-1.3,2.6c-0.9,0.7-2.3,1.1-4.7,1.1c-1.3,0-2.3-0.1-2.9-0.2V189.7z M111.1,194.3h0.9
					c1.4,0,2.2-0.6,2.2-1.5c0-0.9-0.7-1.4-1.9-1.4c-0.6,0-0.9,0-1.2,0.1V194.3z M111.1,199.7c0.3,0,0.6,0,1,0c1.2,0,2.3-0.5,2.3-1.7
					c0-1.2-1.1-1.7-2.4-1.7h-0.9V199.7z"/>
			</g>
		</g>
	</g>
	<g>
		<path class="st31" d="M220.9,111.8c0,6.1-5,11.1-11.1,11.1h-20.7c-6.1,0-11.1-5-11.1-11.1V91.1c0-6.1,5-11.1,11.1-11.1h20.7
			c6.1,0,11.1,5,11.1,11.1V111.8z"/>
		<path class="st9" d="M210,87.8L191,92.1V98v10.9c-0.6-0.3-1.2-0.5-2-0.5c-2.1,0-3.9,1.7-3.9,3.9c0,2.1,1.7,3.9,3.9,3.9
			c2.1,0,3.9-1.7,3.9-3.9V97.5l15.2-3.4v10.9c-0.6-0.3-1.2-0.5-1.9-0.5c-2.1,0-3.9,1.7-3.9,3.9c0,2.1,1.7,3.9,3.9,3.9
			c2.1,0,3.9-1.7,3.9-3.9V87.8z"/>
	</g>
	<g>
		<path class="st31" d="M63.8,213.7c0,4.4-3.6,8-8,8H41c-4.4,0-8-3.6-8-8v-14.8c0-4.4,3.6-8,8-8h14.8c4.4,0,8,3.6,8,8V213.7z"/>
		<path class="st3" d="M53.7,208.9c-0.5-0.2-1-0.3-1.5-0.3c0,0-0.9,0-1.9,0c-0.3-0.3-0.5-0.6-0.5-1.1c0-0.1,0-0.3,0.1-0.4
			c0,0,0-0.1,0-0.1c0,0,0-0.1,0-0.1c0,0,0-0.1,0-0.1c0,0,0-0.1,0.1-0.1c0,0,0,0,0-0.1c0,0,0.1-0.1,0.1-0.1c0,0,0,0,0,0
			c0,0,0.1-0.1,0.1-0.1c0,0,0,0,0.1,0c0,0,0.1-0.1,0.1-0.1c0,0,0,0,0.1,0c0.1,0,0.1-0.1,0.2-0.1c1.2-0.5,2-1.6,2.1-2.9h0V203v0
			c0.4,0,0.7-0.3,0.7-0.7v-0.7c0-0.4-0.3-0.7-0.7-0.7v-0.1V199c0-1.8-1.5-3.3-3.3-3.3h-2.3c-0.4,0-0.8,0.1-1.2,0.2
			c-1.2,0.5-2.1,1.7-2.1,3.1v1.7v0.1c-0.4,0-0.7,0.3-0.7,0.7v0.7c0,0.4,0.3,0.7,0.7,0.7v0.2h0c0.1,1.3,0.9,2.4,2.1,2.9h0
			c0.1,0,0.1,0.1,0.2,0.1c0,0,0,0,0.1,0c0,0,0.1,0.1,0.1,0.1c0,0,0,0,0.1,0c0,0,0.1,0.1,0.1,0.1c0,0,0,0,0,0c0,0,0.1,0.1,0.1,0.1
			c0,0,0,0,0,0.1c0,0,0,0.1,0.1,0.1c0,0,0,0.1,0,0.1c0,0,0,0.1,0,0.1c0,0,0,0.1,0,0.1c0,0.1,0.1,0.3,0.1,0.4c0,0.4-0.2,0.8-0.5,1.1
			c-0.9,0-1.8,0-1.9,0c-0.5,0-1.1,0.1-1.5,0.3c-1.3,0.6-2.2,1.9-2.2,3.4c0,0,0,4.6,0,4.6h2.2h5.3h5.3h2.2c0,0,0-4.5,0-4.6
			C55.9,210.7,55,209.4,53.7,208.9z"/>
	</g>
	<path class="st32" d="M140,102.7c0.6-0.8,1.6,2.6,1.1,4.5c-0.5,2-1.4,2.7-2.2,2.9C138.1,110.4,139,104.2,140,102.7z"/>
	<path class="st32" d="M58.4,100.1c0.8,0,0.9,2.4,1.4,4.9s0.5,4.2,0,4.5c-0.5,0.3-2.4-1.8-2.7-4.4C56.7,102.6,57.7,100.1,58.4,100.1
		z"/>
</g>
</svg>
