<?xml version="1.0" encoding="utf-8"?>
<!-- Generator: Adobe Illustrator 19.2.0, SVG Export Plug-In . SVG Version: 6.00 Build 0)  -->
<svg version="1.1" id="Layer_1" xmlns="http://www.w3.org/2000/svg"  x="0px" y="0px"
	 viewBox="0 0 304 342" style="enable-background:new 0 0 304 342;" xml:space="preserve">
<style type="text/css">
	.st0{fill:#EBECE3;}
	.st1{fill:#F5F3EA;}
	.st2{fill:#98948F;}
	.st3{fill:#D4B847;}
	.st4{fill:#B0AFA7;}
	.st5{fill:#19272B;}
	.st6{fill:#213238;}
	.st7{fill:#F5DC6E;}
	.st8{fill:#E4C855;}
	.st9{fill:#314E51;}
	.st10{fill:#8CC2DA;}
	.st11{fill:#253A3F;}
	.st12{fill:#00884B;}
	.st13{fill:#496970;}
	.st14{fill:#05A160;}
	.st15{fill:#1D1A19;}
	.st16{fill:#DFAA84;}
	.st17{fill:#ECBA92;}
	.st18{fill:#352E2C;}
	.st19{fill:#E56F70;}
	.st20{fill:#D5A483;}
	.st21{fill:none;stroke:#253A3F;stroke-width:0.25;stroke-miterlimit:10;}
	.st22{fill:#969590;}
	.st23{fill:#FFFFFF;}
	.st24{fill:#B69A8A;}
	.st25{fill:#E4E3E5;}
	.st26{fill:#ECEDE4;}
	.st27{fill:#D5D4CB;}
	.st28{opacity:0.3;}
	.st29{fill:#784C33;}
	.st30{fill:#6D442F;}
	.st31{fill:#29B16B;}
	.st32{fill:#E47B3D;}
	.st33{fill:#DEDFDE;}
	.st34{fill:#D65141;}
	.st35{fill:#BE463B;}
</style>
<g>
	<path class="st0" d="M235.1,0c33.7,0,61,27.3,61,61v219.7c0,33.7-27.3,61-61,61H64.2c-33.7,0-61-27.3-61-61V61
		c0-33.7,27.3-61,61-61H235.1z"/>
	<rect x="230.4" class="st1" width="5.4" height="221.7"/>
	<rect x="166.2" class="st1" width="5.4" height="221.7"/>
	<rect x="102" class="st1" width="5.4" height="221.7"/>
	<path class="st1" d="M37.7,6v215.6h5.4V3.8C41.3,4.4,39.5,5.2,37.7,6z"/>
	<path class="st2" d="M209,341.8c0,0,1.7-18.2,2.3-23.3c0.6-5.2-19.1-1-19.1-1l-3.8,4.3l-4.6,20H209z"/>
	<rect x="10" y="209.6" class="st3" width="286.1" height="71.1"/>
	<path class="st4" d="M246.2,311.3l-18.3,1v29.4h7.2c3.8,0,7.5-0.4,11.1-1V311.3z"/>
	<path class="st5" d="M174.7,316c0,0,3.8-0.6,9.5-1.6c10.2-7.6,26.1-15.8,34.6-18.5c13.6-4.3,45.5-3.6,63.2-0.2
		c7.2-1.7,12.5-2.9,12.5-2.9v10.5l0,0c0.1,8-24.1,24.9-39.4,29.3c-13.6,4-77.6-0.3-80.2-4.8c-0.2-0.4-0.3-0.9-0.3-1.4h0V316z"/>
	<path class="st6" d="M294,291c-4.9-7-56.7-10.2-75.2-4.4c-14,4.4-47.9,23.6-43.8,30.8c2.6,4.5,66.6,8.8,80.2,4.8
		C271.7,317.4,298.8,298,294,291z"/>
	<path class="st2" d="M193.9,288.8c3.8-8.1,7.7-10.1,17-11.3c9.3-1.2,26.6-0.4,32.6,0c6,0.4,3.7,6.8,2.7,7.3
		c-1,0.5-12.5,8.6-16.3,9.1c-3.8,0.5-12,2.4-21.6,2.5C198.8,296.5,193.9,288.8,193.9,288.8z"/>
	<path class="st4" d="M265.8,276.1L236.6,289c0,0-0.3-4.2-13.8-4.6c-13.5-0.4-35.6,1-42.8,4.6c-7.2,3.6-9.2,8-17.7,25.2
		c-5.1,10.3-9.4,20.8-12.1,27.5H178l3.5-11.5c-3.7-0.7-6.1-1.5-6.6-2.3c-0.2-0.4-0.3-0.9-0.3-1.4h0V316l0,0c0-1.3,0.9-3,2.5-4.8l0,0
		l0,0l0,0l0,0c0.6,0.1,33.1,4.7,58.9,2.3c26.1-2.4,33.6-19.1,44.4-30L265.8,276.1z"/>
	<rect x="3.2" y="196.5" class="st7" width="292.9" height="61.4"/>
	<rect x="3.2" y="257.9" class="st8" width="292.9" height="8.1"/>
	<polygon class="st9" points="137.2,199.5 124.5,205.1 172.2,205.1 173.9,199.5 	"/>
	<polygon class="st5" points="172.2,205.1 172.2,205.8 124.5,205.8 124.5,205.1 	"/>
	<polygon class="st6" points="172.2,205.8 173.9,200 173.9,199.5 172.2,205.1 	"/>
	<path class="st5" d="M161,183.5c0,0,3.6,11.3,12.9,15.9h-36.7c0,0,7.9-4.5,5-15L161,183.5z"/>
	<path class="st5" d="M200.2,112.3c3.3,4.7,6.4,16,6.4,37.4c0,21.4-2.9,28.9-6.4,33.9V112.3z"/>
	<path class="st9" d="M201.4,179.7c0,3.8-3.1,6.9-6.9,6.9h-88.5c-3.8,0-6.9-3.1-6.9-6.9v-63.6c0-3.8,3.1-6.9,6.9-6.9h88.5
		c3.8,0,6.9,3.1,6.9,6.9V179.7z"/>
	<rect x="103.5" y="117" class="st10" width="93.6" height="57.2"/>
	<g>
		<polygon class="st9" points="85.4,208.6 154.5,208.6 141.8,226.1 70,226.1 		"/>
		<polygon class="st6" points="154.5,208.6 154.5,212.2 141.8,227.6 141.8,226.1 		"/>
		<polygon class="st5" points="141.8,227.6 70.2,227.6 70,226.1 141.8,226.1 		"/>
		<g>
			<polygon class="st5" points="139.8,218.6 144.5,218.6 143.1,220.5 138.1,220.5 			"/>
			<g>
				<g>
					<polygon class="st5" points="87.5,209.6 92.3,209.6 90.9,211.6 85.8,211.6 					"/>
					<polygon class="st5" points="94.3,209.6 99,209.6 97.6,211.6 92.5,211.6 					"/>
					<polygon class="st5" points="101,209.6 105.7,209.6 104.3,211.6 99.3,211.6 					"/>
					<polygon class="st5" points="107.7,209.6 112.4,209.6 111,211.6 106,211.6 					"/>
					<polygon class="st5" points="114.4,209.6 119.2,209.6 117.7,211.6 112.7,211.6 					"/>
					<polygon class="st5" points="121.1,209.6 125.9,209.6 124.4,211.6 119.4,211.6 					"/>
					<polygon class="st5" points="127.9,209.6 132.6,209.6 131.2,211.6 126.1,211.6 					"/>
					<polygon class="st5" points="134.6,209.6 139.3,209.6 137.9,211.6 132.8,211.6 					"/>
				</g>
				<g>
					<polygon class="st5" points="84.9,212.5 89.6,212.5 88.2,214.5 83.1,214.5 					"/>
					<polygon class="st5" points="91.6,212.5 96.3,212.5 94.9,214.5 89.8,214.5 					"/>
					<polygon class="st5" points="98.3,212.5 103,212.5 101.6,214.5 96.6,214.5 					"/>
					<polygon class="st5" points="105,212.5 109.7,212.5 108.3,214.5 103.3,214.5 					"/>
					<polygon class="st5" points="111.7,212.5 116.5,212.5 115,214.5 110,214.5 					"/>
					<polygon class="st5" points="118.4,212.5 123.2,212.5 121.8,214.5 116.7,214.5 					"/>
					<polygon class="st5" points="125.2,212.5 129.9,212.5 128.5,214.5 123.4,214.5 					"/>
					<polygon class="st5" points="131.9,212.5 136.6,212.5 135.2,214.5 130.2,214.5 					"/>
				</g>
				<g>
					<polygon class="st5" points="82.2,215.5 87,215.5 85.5,217.5 80.5,217.5 					"/>
					<polygon class="st5" points="88.9,215.5 93.7,215.5 92.3,217.5 87.2,217.5 					"/>
					<polygon class="st5" points="95.7,215.5 100.4,215.5 99,217.5 93.9,217.5 					"/>
					<polygon class="st5" points="102.4,215.5 107.1,215.5 105.7,217.5 100.7,217.5 					"/>
					<polygon class="st5" points="109.1,215.5 113.8,215.5 112.4,217.5 107.4,217.5 					"/>
					<polygon class="st5" points="115.8,215.5 120.6,215.5 119.1,217.5 114.1,217.5 					"/>
					<polygon class="st5" points="122.5,215.5 127.3,215.5 125.8,217.5 120.8,217.5 					"/>
					<polygon class="st5" points="129.2,215.5 134,215.5 132.6,217.5 127.5,217.5 					"/>
				</g>
				<g>
					<polygon class="st5" points="79.5,218.6 84.3,218.6 82.8,220.5 77.8,220.5 					"/>
					<polygon class="st5" points="86.3,218.6 91,218.6 89.6,220.5 84.5,220.5 					"/>
					<polygon class="st5" points="93,218.6 97.7,218.6 96.3,220.5 91.2,220.5 					"/>
					<polygon class="st5" points="99.7,218.6 104.4,218.6 103,220.5 98,220.5 					"/>
					<polygon class="st5" points="106.4,218.6 111.1,218.6 109.7,220.5 104.7,220.5 					"/>
					<polygon class="st5" points="113.1,218.6 117.9,218.6 116.4,220.5 111.4,220.5 					"/>
					<polygon class="st5" points="119.8,218.6 124.6,218.6 123.1,220.5 118.1,220.5 					"/>
					<polygon class="st5" points="126.6,218.6 131.3,218.6 129.9,220.5 124.8,220.5 					"/>
				</g>
				<g>
					<polygon class="st5" points="76.9,221.7 81.7,221.7 80.2,223.6 75.2,223.6 					"/>
					<polygon class="st5" points="83.6,221.7 88.4,221.7 86.9,223.6 81.9,223.6 					"/>
					<polygon class="st5" points="90.4,221.7 121.5,221.7 120.1,223.6 88.6,223.6 					"/>
					<polygon class="st5" points="123.9,221.7 128.7,221.7 127.2,223.6 122.2,223.6 					"/>
				</g>
				<polygon class="st5" points="141.1,209.6 145.8,209.6 144.4,211.6 139.3,211.6 				"/>
				<polygon class="st5" points="147.8,209.6 152.5,209.6 151.1,211.6 146.1,211.6 				"/>
				<polygon class="st5" points="138.4,212.5 143.1,212.5 141.7,214.5 136.7,214.5 				"/>
				<polygon class="st5" points="145.1,212.5 149.8,212.5 148.4,214.5 143.4,214.5 				"/>
				<polygon class="st5" points="135.8,215.5 140.5,215.5 139.1,217.5 134,217.5 				"/>
				<polygon class="st5" points="142.5,215.5 147.2,215.5 145.8,217.5 140.7,217.5 				"/>
				<polygon class="st5" points="133.1,218.6 137.8,218.6 136.4,220.5 131.3,220.5 				"/>
				<polygon class="st5" points="130.4,221.7 141.9,221.7 140.5,223.6 128.7,223.6 				"/>
			</g>
		</g>
	</g>
	<polygon class="st7" points="135.3,49.7 241.1,49.7 228.2,66.1 115.4,66.1 	"/>
	<polygon class="st8" points="241.1,49.7 241.1,54.7 228.2,70 228.2,66.1 	"/>
	<polygon class="st3" points="228.2,70 115.7,70 115.4,66.1 228.2,66.1 	"/>
	<g>
		<path class="st6" d="M157.6,233.6c5-3.6,7.9-5.3,14.6-3.2c6.7,2.1,7,4.6,6.1,6.4c-0.9,1.8-3,1.2-7.1,6.5c-4.2,5.2-11,7.5-18.1,5.8
			C146.1,247.3,149,239.8,157.6,233.6z"/>
		<path class="st11" d="M172.3,230.4c-6.7-2.1-9.7-0.4-14.6,3.2c-2.6,1.9-4.7,3.9-6.2,5.9c0,2.3,0.9,3.9,3.3,4.9
			c3.3,1.5,6.8,1.1,9.2-2.7c2.1-3.5,6.9-8.5,13.5-8.7C176.5,232.1,174.8,231.2,172.3,230.4z"/>
		<g>
			<g>
				<path class="st5" d="M172,230.4c-5.3-1.6-8.2-0.8-11.6,1.4c0.9,0.4,2.2,0.9,3.6,1.4C165.4,232.2,167.9,230.8,172,230.4z"/>
				<path class="st5" d="M164.9,233.5c1.6,0.6,3.5,1.2,5.4,1.7c2-1.3,4.4-2.1,7.1-2.2c-0.7-0.6-1.8-1.3-3.4-1.9
					C169.4,231.2,166.5,232.5,164.9,233.5z"/>
			</g>
		</g>
	</g>
	<path class="st12" d="M26,207.8c-8.8,5-10.5,6.9-13.6,23.1c-3.1,16.3-0.7,29.3,0,29.9c0.7,0.6,7.8,4.8,8.4,4.1
		c0.6-0.7,13.6-10.6,13.8-11.5c0.2-0.9,2.2-15.1,1.2-22.7S26,207.8,26,207.8z"/>
	<path class="st13" d="M42,337.5c6.9,2.7,14.4,4.2,22.3,4.2h1.2c2.7-11.5,7.7-35.2,7.7-35.5l-25-0.9L42,337.5z"/>
	<path class="st4" d="M58.3,341.5c2,0.2,4,0.3,6,0.3h12.3v-30.5l-18.3,1V341.5z"/>
	<path class="st13" d="M88.3,341.8h24.3c2.7-11.8,7.4-34.2,7.4-34.5l-25-0.9L88.3,341.8z"/>
	<path class="st14" d="M87.9,218c2.7,12.3,5.2,46.9,2.9,71c0,0-50.8,11-68.3,1.9l-5.8-4.6c0,0-1-57.4,1.8-71.4
		c2.2-11.1,16.3-11.2,35.5-11.1C72.9,203.8,85.1,205.3,87.9,218z"/>
	<path class="st15" d="M81.5,113.4c0,0-1.4,8.1-7.5,13c-6.1,4.9-4.9-0.1-4.5-1.9c0.3-1.9-0.5-4.6,2-6.2c2.5-1.6,6.5-3.8,7.1-4
		C79.3,114,81.5,113.4,81.5,113.4z"/>
	<path class="st16" d="M78.1,145.9c0,0,6.6,10.4,6.3,12.3c-0.4,1.9-2.9,1.4-4.9,1.9c-1.9,0.5-1.4-3.6-1.4-3.9
		C78.1,156,78.1,145.9,78.1,145.9z"/>
	<path class="st17" d="M64.2,183.8c0,0-0.7,8.9,0,13.2H39v-17.2c0,0-5.8-2-8-10.7c-2.2-8.7-3-12.1-3-12.1l4.1-29.1l42.7-25.8
		c0,0-0.7,13.2,2.1,32.2c1.7,11.6,4.3,25.9,5.8,36.2c0.9,6.6-0.6,10-2.5,11.3C76.8,184.4,73.6,184.4,64.2,183.8z"/>
	<path class="st18" d="M72.3,146.9c3.1-0.6,5.6,1.8,5.5,2c-0.1,0.2-1.7-0.6-5.3,0.1c-2.9,0.6-6-0.8-5.9-1.2
		C66.8,147.2,68.7,147.5,72.3,146.9z"/>
	<path class="st18" d="M42.8,151.1c0,0,0-3.6,2.3-3.5c1.2,0.1,1.5,8.3,2,9c0.8,1.3,4.6-0.8,5.4-2.4c0.7-1.6-0.5-19.4,0.4-24.1
		c0.3-1.6,14.2-1.6,26.5-13.1c12.2-11.6,10.9-22.2-1.5-25.9c-12.4-3.6-20.8,3-20.8,3s-10.6-0.6-21.3,10.4c0,0,0.7-1.9,1.8-3.9
		c1.1-2,2.2-3.4,1.8-4.4c-0.3-1-5,3.8-7.5,7.7c0,0-0.1-3.8-1.6-4.2c-1.1-0.4-1.1,4-0.9,7.3c0,0-2.7,0.5-5.7,3.4
		c-3,2.9-2.8,5.2-2.5,5.5c0.3,0.3,3.6-3.8,6.4-5.5c0,0-5.2,4.7-7.2,16.8c-2,12.1,5.2,39.9,6.5,41.4c1.2,1.6,9.9,0.9,11,0
		c1.1-0.9,4.1-5.8,4.8-9.6C43.2,155.5,42.8,151.1,42.8,151.1z"/>
	<path class="st16" d="M45.9,166.6c-2.7,0.1-7.3,0.6-7.4-6.5c-0.1-7.1,2.4-9.8,6.2-10.2c0,0,0.9,2.9,1.2,8.4
		C46.2,163.8,45.9,166.6,45.9,166.6z"/>
	<path class="st19" d="M82.1,166.5l-3.3,0.2c0,0,0.6,2.1,3.6,1.9C82.3,168,82.2,167.3,82.1,166.5z"/>
	<path class="st12" d="M34.6,204.9l3-10.8c0,0,4.1,2,13.5,2.4c9,0.4,13.9-1.2,13.9-1.2l5.6,10.1c0,0-4.6,2.7-19.4,2.4
		C37.2,207.5,34.6,204.9,34.6,204.9z"/>
	<path class="st20" d="M64,187.4c0.1-2.1,0.2-3.6,0.2-3.6c-6.6-0.6-9.9-1.2-9.9-1.2S57,185.5,64,187.4z"/>
	<path class="st5" d="M9,312.2c0,0,3.8-0.6,9.5-1.6c10.2-7.6,26.1-15.8,34.6-18.5c13.6-4.3,45.5-3.6,63.2-0.2
		c7.2-1.7,12.5-2.9,12.5-2.9v10.5c0,0,0,0,0,0c0.1,8-24.1,24.9-39.4,29.3c-13.6,4-77.6-0.3-80.2-4.8c-0.2-0.4-0.3-0.9-0.3-1.4l0,0
		V312.2z"/>
	<path class="st6" d="M128.4,287.2c-4.9-7-56.7-10.2-75.2-4.4c-14,4.4-47.9,23.7-43.8,30.8c2.6,4.5,66.6,8.8,80.2,4.8
		C106.1,313.5,133.2,294.1,128.4,287.2z"/>
	<path class="st13" d="M69,284.5c9.4-7.3,22-19.9,39.2-18.5c17.1,1.3,17.2,19.1,17.2,19.1c-1.9-0.9-4.6-1.6-7.8-2.3l0,0l0,0
		c0,0-31,20-39,24.4c-8.1,4.4-12.6,5.3-31.4,4.8c-25.8-0.7-27.3-11.6-30.4-25.4C16.7,286.6,59.5,291.8,69,284.5z"/>
	<path class="st22" d="M38.3,315.9c2.5,2,12.5,1.6,14.7,1.1c0.8-0.2,2.2-1,2.6-2c1.7-4.1,0.7-14.3-0.6-17.6
		c-1.8-4.5-18.7-0.7-18.9,1.1C35.9,300.3,34.9,313.2,38.3,315.9z"/>
	<path class="st4" d="M52.9,317c-0.1,0-0.3,0.1-0.5,0.1c0.4-4.5,0.1-14.7-1.6-21.3c-0.1-0.2-0.1-0.4-0.1-0.5c2.1,0.2,3.7,0.8,4.2,2
		c1.3,3.3,2.3,13.5,0.6,17.6C55.1,316,53.7,316.8,52.9,317z"/>
	<path class="st6" d="M4,249.9c1.4-1.8,5.3-3.3,10.2-5.7h0c11.8-6.1,64.8-4.1,73.5-0.2c9.2,4.2,7.5,45.6,0,52.3
		c-0.4,0.4-0.8,0.7-1.3,1l0,0c-0.1,0-0.1,0.1-0.1,0.1c-0.1,0.1-0.3,0.2-0.4,0.3c-3.8,2.4-6.3,3.9-10.8,5.6c-3.8,1.5-3.5-0.3-2.6-1.9
		c-7.7,0.7-16.8,0.1-26.1-0.6c-21.3-1.5-29.9-5.1-32.3-7.6c-1.9-1.9-5.3-25.4-4-39.2C5.3,254.5,2.6,251.6,4,249.9z"/>
	<path class="st5" d="M37.8,305.3c-21.3-1.5-29.8-5.1-32.3-7.6c-2.5-2.5-7.4-40.6-1.6-47.8c6.1-7.7,66-5.7,75.3-1.5
		c9.2,4.2,7.5,45.6,0,52.3C71.7,307.5,55,306.5,37.8,305.3z"/>
	<path class="st17" d="M146.4,240.6c4.1-2.7,5-6.2,6.4-8.5c1.4-2.3,3.2-3.4,6.2-3.8c2.9-0.4,7.8,1.1,9.7,3.1c0,0,3.8,0.1,5.2,1.2
		c1.4,1,0.5,1.9-0.9,2.5c0,0,1.4,0,2.4,0.7c0.9,0.7-1,3-4.3,3.3c-3.3,0.3-4.6-0.2-4.6-0.2s-2.8,6.1-11.9,10.3l-8.1-8.7"/>
	<g>
		<path class="st20" d="M163.1,230.8c-0.6,0.2-3.1,2.4-3.6,3.3c-0.4,0.9-0.4,1.1,0.6,0c1-1.1,2.7-2.7,3.4-2.7
			c0.7-0.1,5.3,0.5,7.6,0.3c-1.3-0.2-2.6-0.3-2.6-0.3C165.5,231.1,163.7,230.6,163.1,230.8z"/>
		<path class="st20" d="M174.8,235.5c-0.9-0.4-1.8-0.4-1.8-0.4c-3.1-0.2-6.2-1.4-7.1-1.2c-0.9,0.2-3.5,3.5-3.6,3.9
			c-0.1,0.4,3.1-3.5,4-3.5C167.1,234.2,171.5,235.9,174.8,235.5z"/>
		<path class="st20" d="M160.7,228.3c-1.2,0.3-2.4,0.8-2.7,1.1c-1,1.5-2.6,4.1-2.4,4.3c0.3,0.2,2.5-3.8,2.7-4.1
			c0.3-0.2,1.9-0.9,4-1.1C161.8,228.4,161.3,228.3,160.7,228.3z"/>
	</g>
	<path class="st12" d="M146.2,239.1c0,0,3.5-0.4,6.9,3.6c2.9,3.3,2.6,8,2.6,8s-22.4,8.6-48.6,1.1c-22.3-6.4-41.9-31.9-31.6-38.5
		c8.9-5.7,23.9,17.4,37.7,22.3C130.2,241.5,146.2,239.1,146.2,239.1z"/>
	<path class="st16" d="M225.3,145.1c-2.8,3.6-7.1,7.3-7.4,10c-0.3,2.7,1.8,4.7,4.2,4.6C224.6,159.6,225.3,145.1,225.3,145.1z"/>
	<path class="st17" d="M249.3,197.3l-0.6-6c0,0-20.1-2.4-23.5-5.2c-4.9-4-7-12-4.2-30.1c2.7-17.7,4.8-25.5,3.6-39
		c0,0,17.3-3.8,28.3-0.7c11.1,3.1,21.7,16.5,22.9,20.8c1.1,4.4,1.9,16.7-0.1,28.1c-2,11.3-6.2,17.1-6.2,17.1l2.3,12.9
		c0,0-3.7,1.9-11.1,3.7C253.5,200.8,249.3,197.3,249.3,197.3z"/>
	<path class="st23" d="M280.1,196.7c6.4,1.9,9.1,9.4,9.5,22.7c0.4,13.3-2.6,20.1-2.6,20.1l-10-12.6L280.1,196.7z"/>
	<path class="st24" d="M250.7,146c-0.8-1.2-0.3-6.5-1.2-13.1c-0.9-6.6-3.4-11.7-13.4-11.5c-10,0.2-14-0.4-15.3-4.6
		c-1.3-4.2,0.6-7.9,6.3-12.5c5.7-4.6,12.9-8.4,13.9-7.8c1,0.6-1.2,2.1-3.2,3.8c-1.9,1.7,5-1.7,11.4-2.1c6.3-0.4,12.4,2.4,12.6,3.4
		c0.2,1-5-0.4-5.8,0.4c-0.7,0.8,4.7,0.9,11.6,4.1c7,3.2,9.7,7.3,9.5,8.4c-0.1,1.1-3.2-0.9-4.6-0.9c-1.4,0,3.7,3.5,9.1,10.6
		c5.4,7.2,4.1,12.6,3.4,12.9c-0.7,0.3-2.2-4.1-3.6-5.4c-1.4-1.2,2.1,6.7,1.1,16.1c-1,9.4-3.1,12.4-5.2,15.1
		c-2.1,2.7-10.5,3.5-11.9,3.1c-1.3-0.5-3.5-5.3-3.9-8.5c-0.4-3.1,0.7-15.6-1.1-19.2c-1.8-3.5-4-3.6-5.2-1.1c-1.2,2.5-0.8,6.8-2,8.3
		C252.2,147.2,251.2,146.7,250.7,146z"/>
	<path class="st9" d="M251.1,202.5c15-7.2,28.7-13.6,33.2-3.3c4.5,10.3,1.8,30,1.6,38.6c-0.2,8.6-19.3,54.3-30.7,59.6
		c-11.4,5.2-29.3,3.7-37.8-2.9c-2.5-2-0.6-23.4,2.9-43.1l14.7-38.8C238.9,208.8,244.1,205.9,251.1,202.5z"/>
	<path class="st11" d="M247.6,214.1c-2.7-1.3-5.5-2-8.4-2c-1.4,0-2.8,0.2-4.2,0.5c-1.8,1.7-3.3,3.5-4.7,5.7l-8.9,27
		c-0.4,1.7-0.7,3.5-1,5.3c3.2,4.2,7,5.3,9.9,5.3c5.4,0,11.3-3.8,16.2-10.4c4.8-6.4,8.8-16.3,6.9-23.8
		C252.6,218.1,250.6,215.5,247.6,214.1z"/>
	<path class="st25" d="M243.6,243.2c6.8-9.2,9.7-22.4,2.4-25.9c-5.7-2.8-11-1.6-15.7,0.9c-1.7,2.7-3.1,5.7-4.4,9.4
		c-1.6,4.8-3.1,10.9-4.5,17.6C227.2,257,237,252.1,243.6,243.2z"/>
	<path class="st11" d="M277.5,199.4c0.5-1.8,0.4-3.6-0.1-5.4c-6.5-0.8-16.1,3.7-26.3,8.6c-4.1,1.9-7.5,3.8-10.4,5.7
		c4.3,2,9.4,3.2,14.5,3.2h0c5,0,9.8-1.1,13.8-3.1C273.7,206,276.6,203,277.5,199.4z"/>
	<path class="st25" d="M244.5,205.9c7.1,2.6,16,2.6,22.8-0.8c6.6-3.3,7.7-7.2,6.2-11c-6.2,0.8-14.1,4.5-22.4,8.5
		C248.7,203.7,246.5,204.8,244.5,205.9z"/>
	<path class="st23" d="M243.4,206.5c0,0,6.8,1.7,16.8-0.6c9.7-2.3,14.7-7.2,15.4-12c0,0-3.6-3.5-5-5.9c0,0-1.6,4.1-7.4,5.9
		s-10.9,3-14,1.6L243.4,206.5z"/>
	<path class="st23" d="M241.4,220.8c8,4.7-1.7,38.3-20.5,55.1c-14.3,12.8-26.1-19.5-29.8-41.1c0,0,14.7-4.6,14.7-4.5
		c0,0.2,6.4,28.8,10.1,28.9C220.4,259.2,226.4,211.9,241.4,220.8z"/>
	<path class="st17" d="M203.9,222.2c-0.3-2.9-0.7-6,0.5-8.2c0.9-1.6,2.7-5.7,2.3-7.9c-0.6-3.5-3.8-4.4-5.2-5.4
		c0,0-2.3-18.1-6.2-17.1c-2.8,0.7,0.1,13.7,0.6,18.5c0,0-2.5-0.9-4.2,1.2c0,0-3.2-0.7-4.8,1.7c0,0-2.8-0.1-3.1,4.2
		c-0.1,1.8,1.4,5.7,2.6,8.7c1.3,3,2.8,5.5,3.5,8c0.6,2.5,10.3-0.5,10.3-0.5L203.9,222.2z"/>
	<path class="st20" d="M203.2,209.6c0.1-0.4,0.2-4.3,0-7.8c-0.7-0.4-1.3-0.7-1.7-1C202.1,204.7,203.1,210.2,203.2,209.6z"/>
	<path class="st4" d="M269.7,294.5c-0.2,6.5-0.2,13.4,0.5,14.1c0.7,0.7,2.7,1,3.9,0.9c2-0.2,5.9-3.8,7.3-5.9
		c1.4-2.1-0.1-15.7,0-17.9C281.5,283.6,269.7,294.5,269.7,294.5z"/>
	<path class="st22" d="M270.2,308.5c0.7,0.7,2.7,1,3.9,0.9c0.2,0,0.4-0.1,0.6-0.1c0.1-4,0.2-13.5,0.1-19.4c-2.6,2.3-5.1,4.5-5.1,4.5
		C269.5,301,269.5,307.9,270.2,308.5z"/>
	<path class="st6" d="M300.6,225.5c-3-0.4-8.1-0.2-12.5,0l0,0c-7-1.2-41.8,21.5-46.8,31.2c-3.2,6.3-4.1,43.8,0.2,48.8
		c0.3,0.4,0.9,0.5,1.6,0.5c0,0,0,0,0,0c6.3,0.4,10.2,0.3,12.2,0c2-0.3,1.2-6.7,1.4-6.8v0c12.8-8.6,29.1-22.9,31.4-27.2
		c2.5-4.6,3.9-22.4,3.2-34.6c1.2-0.6,2.3-1.3,3.4-2.1C301.7,229.6,300.6,225.5,300.6,225.5z"/>
	<path class="st5" d="M253.8,256.7c-3.2,6.3-4.1,43.8,0.2,48.8c4.3,5,42.9-26.6,46.6-33.5c3.7-6.8,4.9-42.1,0.9-46.2
		C297.4,221.8,259,246.5,253.8,256.7z"/>
	<path class="st18" d="M223.6,149c-0.3-0.4,1.2-1.8,3.8-1.6c2.2,0.1,3.2-0.1,3.5,0.1c0.4,0.3-0.9,1.6-2.9,1.5
		C225.3,148.9,223.8,149.3,223.6,149z"/>
	<path class="st24" d="M224.5,144.2c-0.2-0.6-0.1-3.2,0.7-4.3c0.9-1.1,9-0.4,11.1,1.7c2.1,2.1-1.7,2.1-6.2,2.5
		C225.6,144.5,224.8,145.2,224.5,144.2z"/>
	<path class="st24" d="M220.6,159.4l-0.1,1.2c0,0,2.5,1.2,3.6,1.9c1.8,1.2,3.7,4.1,2.3,8.3c-0.2,0.7-3.1,0.1-5.2-1.4
		c-3-2.1-2.9-4.6-2.9-6.5c0-2.2,1.3-4.1,1.3-4.1L220.6,159.4z"/>
	<path class="st25" d="M205.9,230.3c0,0-2,2-6.2,3.5c-4.2,1.5-8.5,1-8.5,1l-2.6-9.8c0,0,5.4-0.4,8.2-1.2c2.8-0.8,7.3-2.9,7.3-2.9
		L205.9,230.3z"/>
	<g>
		<rect x="118.7" y="124" class="st26" width="63.2" height="50.2"/>
		<rect x="130.3" y="120.2" class="st26" width="9.6" height="3.9"/>
		<rect x="120.9" y="119" class="st26" width="7.8" height="3.7"/>
		<g>
			<g>
				<rect x="142.3" y="121.3" class="st26" width="9.6" height="1.7"/>
				<rect x="154.8" y="121.3" class="st26" width="9.6" height="1.7"/>
				<rect x="167.3" y="121.3" class="st26" width="9.6" height="1.7"/>
			</g>
		</g>
	</g>
	<rect x="122.2" y="128.4" class="st27" width="48.1" height="4.5"/>
	<rect x="122.2" y="136.8" class="st27" width="42.2" height="4.5"/>
	<rect x="122.2" y="145.2" class="st27" width="36" height="4.5"/>
	<rect x="122.2" y="153.6" class="st27" width="48.1" height="4.5"/>
	<rect x="122.2" y="162" class="st27" width="39.6" height="4.5"/>
	<g class="st28">
		<polygon class="st23" points="197.1,137.3 197.1,134 180.1,117 176.8,117 		"/>
		<polygon class="st23" points="197.1,155.9 197.1,144.7 169.4,117 158.2,117 		"/>
	</g>
	<path class="st29" d="M159.9,43.2l-27.7,2.4c0.5,3.6,3.9,13.3,4.1,14c0,0,0,0,0,0.1l0,0h0c0.6,1.4,5.1,2.1,10.5,1.7
		c5.5-0.4,10-1.9,10.5-3.5h0C157.9,55.7,159.5,47.7,159.9,43.2z"/>
	<path class="st30" d="M159.9,43.2c0,2.1-6.2,4.3-13.8,4.9c-7.7,0.6-13.9-0.6-13.9-2.7c0-2.1,6.2-4.3,13.8-4.9
		C153.6,40,159.8,41.2,159.9,43.2z"/>
	<path class="st6" d="M157.2,43.6c0,1.3-5,2.7-11.2,3.1c-6.2,0.4-11.3-0.4-11.3-1.7c0-1.3,5-2.7,11.2-3.1
		C152.2,41.5,157.2,42.3,157.2,43.6z"/>
	<path class="st14" d="M147.7,33c0-0.2-4.1-11.2-10-13.3c0,0-0.3,6.1,3,14.6l5.6,1.7L147.7,33z"/>
	<path class="st14" d="M146.9,27.1c0.1-0.2,4.1-3.4,7.1-5.3c0,0,1.3,7.3-0.4,12.2c-1.6,5-2.8,2.9-2.8,2.9s-2.8-0.7-3.2-1.8
		c-0.4-1.1-1.3-4.9-1.4-5.5C146.3,29,146.9,27.1,146.9,27.1z"/>
	<path class="st12" d="M143.6,39.2c0,0-3.1-8.9-1.4-20.5c0,0,7.4,6.5,8.7,17.8c0,0-2.4,4.7-3.2,5.2
		C146.9,42.1,143.6,39.2,143.6,39.2z"/>
	<path class="st31" d="M148.8,37.9c0,0-5.2-7.8-13.1-10c0,0,0.4,10,7.3,17.2c0,0,1.4,0.1,2.6,0L148.8,37.9z"/>
	<path class="st31" d="M149.4,44.6c0,0-2.2,0.4-3.7,0.4c0,0-0.5-9.6,12.2-16.3C157.8,28.7,158.8,36.3,149.4,44.6z"/>
	<rect x="169.2" y="36.2" class="st32" width="6.2" height="27.7"/>
	<polygon class="st33" points="169.2,36.2 180.5,21.7 186.8,21.7 175.4,36.2 	"/>
	<polygon class="st34" points="196.1,15.3 196.1,50 184.3,63.9 184.3,30.4 	"/>
	<rect x="175.4" y="30.4" class="st35" width="8.9" height="33.5"/>
	<polygon class="st23" points="175.4,30.4 187.1,15.3 196.1,15.3 184.3,30.4 	"/>
	<polygon class="st6" points="209.5,16.7 209.5,50.4 197.6,64.6 197.6,32 	"/>
	<rect x="191.1" y="32" class="st5" width="6.5" height="32.6"/>
	<polygon class="st23" points="191.1,32 203,16.7 209.5,16.7 197.6,32 	"/>
	<path class="st16" d="M254.8,144.3c0,0,1.3-7.2,6.5-8.1c5.1-0.9,7.6,3.1,6.9,10.1c-0.7,7-1.8,10.5-5.8,12.1c-4,1.5-5.6-1.9-6.5-4.9
		C255.1,150.6,254.8,144.3,254.8,144.3z"/>
	<path class="st20" d="M263.4,139.9c-1.6-0.9-4.1,1.1-3.4,4.7c0.7,3.6,0,9.2,0.9,10c0.6,0.6,3.3-2.1,3.8-6.8
		C265.2,143.3,265.1,140.9,263.4,139.9z"/>
	<path class="st20" d="M42.3,153.1c0.6,0.1,0.8,2.9,0.8,5.2c0.1,2.4-0.5,4.7-0.8,5.1c-0.3,0.4-1.9-2.1-1.8-5.2
		C40.5,155.2,41.4,153,42.3,153.1z"/>
</g>
</svg>
