<?xml version="1.0" encoding="utf-8"?>
<!-- Generator: Adobe Illustrator 19.2.0, SVG Export Plug-In . SVG Version: 6.00 Build 0)  -->
<svg xmlns:xlink="http://www.w3.org/1999/xlink" version="1.1" id="Layer_1" xmlns="http://www.w3.org/2000/svg" x="0px" y="0px"
	 viewBox="0 0 303 376" style="enable-background:new 0 0 303 376;" xml:space="preserve">
<style type="text/css">
	.st0{clip-path:url(#SVGID_2_);}
	.st1{fill:#EBECE3;}
	.st2{clip-path:url(#SVGID_4_);fill:#7A5FA5;}
	.st3{clip-path:url(#SVGID_4_);fill:#6E589D;}
	.st4{clip-path:url(#SVGID_4_);}
	.st5{fill:#524483;}
	.st6{fill:#5C438A;}
	.st7{fill:#634E92;}
	.st8{clip-path:url(#SVGID_4_);fill:#524483;}
	.st9{clip-path:url(#SVGID_4_);fill:#634E92;}
	.st10{fill:#6E589D;}
	.st11{fill:#4D3980;}
	.st12{clip-path:url(#SVGID_4_);fill:none;stroke:#232323;stroke-width:0.25;stroke-miterlimit:10;}
	.st13{fill:#F5F3EA;}
	.st14{fill:#E1DFD4;}
	.st15{fill:#E1B18F;}
	.st16{fill:#F4C19E;}
	.st17{fill:#B69A8A;}
	.st18{fill:#3F3736;}
	.st19{fill:#4A4240;}
	.st20{fill:#231E1E;}
	.st21{fill:#352E2C;}
	.st22{fill:#1E4356;}
	.st23{fill:#27526D;}
	.st24{fill:#DEAE8D;}
	.st25{fill:#CEA080;}
	.st26{fill:#E56F70;}
	.st27{fill:#EF8080;}
	.st28{fill:#DDDDDD;}
	.st29{fill:#F1F1F1;}
	.st30{fill:#D65141;}
	.st31{fill:#C9C8C8;}
	.st32{fill:#D5A483;}
	.st33{opacity:0.2;fill:#352E2C;}
	.st34{font-family:'MyriadPro-Regular';}
	.st35{font-size:12.8607px;}
	.st36{fill:#FFFFFF;}
	.st37{fill:#FFBE2E;}
	.st38{font-family:'KozGoPr6N-Regular-90ms-RKSJ-H';}
	.st39{font-size:26.0009px;}
</style>
<g>
	<g>
		<defs>
			<path id="SVGID_1_" d="M240,0.3c34.8,0,63.1,28.2,63.1,63.1v227c0,34.8-28.2,63.1-63.1,63.1H63.5c-34.8,0-63.1-28.2-63.1-63.1
				v-227c0-34.8,28.2-63.1,63.1-63.1H240z"/>
		</defs>
		<clipPath id="SVGID_2_">
			<use xlink:href="#SVGID_1_"  style="overflow:visible;"/>
		</clipPath>
		<g class="st0">
			<path class="st1" d="M240-1.3c35,0,63.4,28.4,63.4,63.4v228.3c0,35-28.4,63.4-63.4,63.4H62.4c-35,0-63.4-28.4-63.4-63.4V62.1
				C-1,27,27.4-1.3,62.4-1.3H240z"/>
			<g>
				<defs>
					<rect id="SVGID_3_" x="-1" y="59" width="304.3" height="188.6"/>
				</defs>
				<clipPath id="SVGID_4_">
					<use xlink:href="#SVGID_3_"  style="overflow:visible;"/>
				</clipPath>
				<polygon class="st2" points="304.3,59 -1,59 -1,247.6 303.3,247.6 				"/>
				<path class="st3" d="M331.6,153.6c-19.7-14.7-47.5-10.6-62.2,9.1c-14.7,19.7-10.6,47.5,9.1,62.2c19.7,14.7,47.5,10.6,62.2-9.1
					C355.3,196.1,351.3,168.3,331.6,153.6z M284,217.5c-15.6-11.6-18.8-33.7-7.2-49.2c11.6-15.6,33.7-18.8,49.2-7.2
					c15.6,11.6,18.8,33.7,7.2,49.2C321.6,225.9,299.6,229.1,284,217.5z"/>
				<g class="st4">
					<g>
						<g>
							<path class="st5" d="M297.4,154.9c1.7-0.4,3.5-0.6,5.2-0.8l-1.3-9.2c-1.8,0.2-3.5,0.4-5.2,0.8L297.4,154.9z"/>
						</g>
						<g>
							<path class="st5" d="M288.7,158.1c1.6-0.8,3.2-1.5,4.9-2.1l-3.7-8.5c-1.7,0.6-3.3,1.3-4.9,2.1L288.7,158.1z"/>
						</g>
						<g>
							<path class="st5" d="M281.2,163.4c1.3-1.2,2.7-2.3,4.2-3.3l-5.8-7.3c-1.5,1-2.8,2.1-4.2,3.3L281.2,163.4z"/>
						</g>
						<g>
							<path class="st5" d="M275.3,170.4c0.9-1.5,2-2.9,3.2-4.2l-7.4-5.6c-1.1,1.4-2.2,2.8-3.2,4.2L275.3,170.4z"/>
						</g>
						<g>
							<path class="st5" d="M271.5,178.7c0.5-1.7,1.2-3.3,2-4.9l-8.6-3.4c-0.8,1.6-1.4,3.2-2,4.9L271.5,178.7z"/>
						</g>
						<g>
							<path class="st5" d="M269.9,187.8c0.1-1.8,0.3-3.5,0.6-5.3l-9.2-1.1c-0.3,1.7-0.5,3.5-0.6,5.3L269.9,187.8z"/>
						</g>
						<g>
							<path class="st5" d="M270.7,196.9c-0.4-1.7-0.6-3.5-0.8-5.2l-9.2,1.3c0.2,1.8,0.4,3.5,0.8,5.2L270.7,196.9z"/>
						</g>
					</g>
				</g>
				<g class="st4">
					<g>
						<rect x="283.6" y="202.4" class="st6" width="5.2" height="9.6"/>
						<rect x="294" y="202.4" class="st6" width="5.2" height="9.6"/>
					</g>
				</g>
				<g class="st4">
					<g>
						<rect x="278.4" y="202.4" class="st7" width="5.2" height="9.6"/>
						<rect x="288.8" y="202.4" class="st7" width="5.2" height="9.6"/>
						<rect x="299.3" y="202.4" class="st7" width="5.2" height="9.6"/>
					</g>
				</g>
				<rect x="-2.4" y="131.8" class="st3" width="30" height="83.8"/>
				<g class="st4">
					<g>
						<rect x="-2.4" y="141.7" class="st5" width="10.6" height="12.4"/>
						<rect x="-2.4" y="157.6" class="st5" width="10.6" height="12.4"/>
						<rect x="-2.4" y="173.6" class="st5" width="10.6" height="12.4"/>
					</g>
				</g>
				<g class="st4">
					<g>
						<polygon class="st7" points="2.6,148.3 2.6,141.7 0.8,141.7 0.8,148.3 -2.4,148.3 -2.4,154.1 8.1,154.1 8.1,148.3 						"/>
						<polygon class="st7" points="2.6,164.3 2.6,157.6 0.8,157.6 0.8,164.3 -2.4,164.3 -2.4,170.1 8.1,170.1 8.1,164.3 						"/>
						<polygon class="st7" points="2.6,180.2 2.6,173.6 0.8,173.6 0.8,180.2 -2.4,180.2 -2.4,186 8.1,186 8.1,180.2 						"/>
					</g>
				</g>
				<rect x="-2.4" y="131.8" class="st8" width="8" height="5.5"/>
				<rect x="12.3" y="141.1" class="st8" width="3.8" height="52.6"/>
				<rect x="16.1" y="141.1" class="st9" width="17.4" height="52.6"/>
				<g class="st4">
					<g>
						<g>
							<path class="st10" d="M281.7,56.8c-12.5,0.8-17.3,3.4-21.8,7.2c-4.4,3.8,0.2,7.6-19.7,8.5c-19.9,0.8-35.5-1.2-43,1.2
								c-7.5,2.4-4.8,7.1-16.6,8.3c-11.8,1.3-40.1,5.1-52.7,0c-12.6-5.1-13.9-17.8-1.8-18.9c12-1.1,17.8-2,22.3-4.9
								c4.5-3,46-3.6,55.6-3.8C213.6,54.1,281.7,56.8,281.7,56.8z"/>
						</g>
						<g>
							<path class="st10" d="M307.2,84.5c-15,1-27.3,0.2-36.8,3.1c-9.5,3-25.8,1.7-31.5,5.3c-5.7,3.6-3.5,8.2-14.6,11.3
								c-11.2,3.1-10.4,10.5-2,14.8c8.4,4.3,28.7,2.7,36.5,3.2c7.8,0.5,3.9-2-5.9-3.7c-9.8-1.7-2.3-3,11.5-0.4
								c13.8,2.5,11.9,5.3,20.4,6.6c8.5,1.3,16.7,6.5,24.6,5.3C317.4,128.9,307.2,84.5,307.2,84.5z"/>
						</g>
						<g>
							<path class="st10" d="M81.3,56.7c-13.2,0.8-21.6,5.5-32.2,7.1S33.3,75.3,21.6,77.2C9.8,79.1-2.9,80-5.6,78.1
								s-3.6-22.5-1.3-23.8s2.7-5.8,27.1-5.5c24.4,0.3,23.8-0.6,40.2,1C76.9,51.3,81.3,56.7,81.3,56.7z"/>
						</g>
						<g>
							<path class="st10" d="M49.2,76.8c4.4-0.5,9.2,2,13,1.9c3.8-0.1,9.8-0.2,13.4,1.5c3.6,1.7,0.1,4.4-11,4.3
								c-11.1-0.1-15.9,1.5-22.2,1.9c-6.3,0.4-14.2-0.3-15.4-2.2s11.1-3.6,13.8-4S45.4,77.2,49.2,76.8z"/>
						</g>
					</g>
				</g>
				<polygon class="st3" points="33.4,171.6 89.6,171.6 81,189.5 22.2,189.5 				"/>
				<g class="st4">
					<polygon class="st11" points="29,189.5 31,189.5 43.6,171.6 42.1,171.6 					"/>
					<polygon class="st11" points="40.6,189.5 41.8,189.5 55.6,171.6 54,171.6 					"/>
					<polygon class="st11" points="52.6,189.5 53.9,189.5 65.8,171.6 64.2,171.6 					"/>
					<polygon class="st11" points="63.7,189.5 64.9,189.5 76.6,171.6 74.6,171.6 					"/>
				</g>
				<polygon class="st9" points="-13.2,222.3 81,222.3 81,189.5 10.9,189.5 				"/>
				<g class="st4">
					<g>
						<path class="st10" d="M22.2,195.9h-5v6.9h0.2v6.9h9.8v-8.9C27.1,198.1,24.9,195.9,22.2,195.9z"/>
						<path class="st10" d="M38.8,195.9h-5v6.9H34v6.9h9.8v-8.9C43.7,198.1,41.5,195.9,38.8,195.9z"/>
						<path class="st10" d="M55.5,195.9h-5v6.9h0.2v6.9h9.8v-8.9C60.4,198.1,58.2,195.9,55.5,195.9z"/>
					</g>
				</g>
				<g class="st4">
					<g>
						<path class="st5" d="M17.2,195.9c-2.7,0-4.9,2.2-4.9,4.9v8.9H22v-8.9C22,198.1,19.9,195.9,17.2,195.9z"/>
						<path class="st5" d="M33.8,195.9c-2.7,0-4.9,2.2-4.9,4.9v8.9h9.8v-8.9C38.7,198.1,36.5,195.9,33.8,195.9z"/>
						<path class="st5" d="M50.4,195.9c-2.7,0-4.9,2.2-4.9,4.9v8.9h9.8v-8.9C55.3,198.1,53.1,195.9,50.4,195.9z"/>
					</g>
				</g>
				<rect x="3.8" y="222.3" class="st3" width="21.7" height="25.3"/>
				<rect x="25.5" y="222.3" class="st3" width="43.5" height="25.3"/>
				<polygon class="st3" points="149.6,163.4 149.6,150.7 126.5,169.7 126.5,190.5 149.6,190.5 161.3,190.5 161.3,169.7 				"/>
				<g class="st4">
					<g>
						<rect x="156.2" y="173.2" class="st5" width="3.1" height="3.1"/>
						<rect x="151.3" y="173.2" class="st5" width="3.1" height="3.1"/>
						<rect x="146.4" y="173.2" class="st5" width="3.1" height="3.1"/>
						<rect x="156.2" y="178" class="st5" width="3.1" height="3.1"/>
						<rect x="151.3" y="178" class="st5" width="3.1" height="3.1"/>
						<rect x="146.4" y="178" class="st5" width="3.1" height="3.1"/>
					</g>
				</g>
				<rect x="141.3" y="148.4" class="st9" width="12.6" height="17.9"/>
				<g class="st4">
					<g>
						<rect x="142.7" y="150.2" class="st5" width="9.8" height="1.6"/>
						<rect x="142.7" y="154" class="st5" width="9.8" height="1.6"/>
						<rect x="142.7" y="157.7" class="st5" width="9.8" height="1.6"/>
						<rect x="142.7" y="161.4" class="st5" width="9.8" height="1.6"/>
					</g>
				</g>
				<rect x="278.4" y="212" class="st9" width="26.1" height="35.6"/>
				<rect x="133.9" y="187.6" class="st9" width="36.1" height="11.8"/>
				<rect x="137.4" y="195.9" class="st3" width="143.4" height="51.7"/>
				<g class="st4">
					<g>
						<g>
							<rect x="258" y="201.5" class="st5" width="14.6" height="10.5"/>
							<rect x="236.4" y="201.5" class="st5" width="14.6" height="10.5"/>
							<rect x="214.9" y="201.5" class="st5" width="14.6" height="10.5"/>
							<rect x="193.3" y="201.5" class="st5" width="14.6" height="10.5"/>
							<rect x="171.7" y="201.5" class="st5" width="14.6" height="10.5"/>
							<rect x="150.2" y="201.5" class="st5" width="14.6" height="10.5"/>
						</g>
						<g>
							<rect x="258" y="215.5" class="st5" width="14.6" height="10.5"/>
							<rect x="236.4" y="215.5" class="st5" width="14.6" height="10.5"/>
							<rect x="214.9" y="215.5" class="st5" width="14.6" height="10.5"/>
							<rect x="193.3" y="215.5" class="st5" width="14.6" height="10.5"/>
							<rect x="171.7" y="215.5" class="st5" width="14.6" height="10.5"/>
							<rect x="150.2" y="215.5" class="st5" width="14.6" height="10.5"/>
						</g>
						<g>
							<rect x="258" y="229.5" class="st5" width="14.6" height="10.5"/>
							<rect x="236.4" y="229.5" class="st5" width="14.6" height="10.5"/>
							<rect x="214.9" y="229.5" class="st5" width="14.6" height="10.5"/>
							<rect x="193.3" y="229.5" class="st5" width="14.6" height="10.5"/>
							<rect x="171.7" y="229.5" class="st5" width="14.6" height="10.5"/>
							<rect x="150.2" y="229.5" class="st5" width="14.6" height="10.5"/>
						</g>
					</g>
				</g>
				<g class="st4">
					<g>
						<g>
							<rect x="258" y="204.1" class="st10" width="14.6" height="0.9"/>
							<rect x="236.4" y="204.1" class="st10" width="14.6" height="0.9"/>
							<rect x="214.9" y="204.1" class="st10" width="14.6" height="0.9"/>
							<rect x="193.3" y="204.1" class="st10" width="14.6" height="0.9"/>
							<rect x="171.7" y="204.1" class="st10" width="14.6" height="0.9"/>
							<rect x="150.2" y="204.1" class="st10" width="14.6" height="0.9"/>
						</g>
						<g>
							<rect x="258" y="218.2" class="st10" width="14.6" height="0.9"/>
							<rect x="236.4" y="218.2" class="st10" width="14.6" height="0.9"/>
							<rect x="214.9" y="218.2" class="st10" width="14.6" height="0.9"/>
							<rect x="193.3" y="218.2" class="st10" width="14.6" height="0.9"/>
							<rect x="171.7" y="218.2" class="st10" width="14.6" height="0.9"/>
							<rect x="150.2" y="218.2" class="st10" width="14.6" height="0.9"/>
						</g>
						<g>
							<rect x="258" y="232.2" class="st10" width="14.6" height="0.9"/>
							<rect x="236.4" y="232.2" class="st10" width="14.6" height="0.9"/>
							<rect x="214.9" y="232.2" class="st10" width="14.6" height="0.9"/>
							<rect x="193.3" y="232.2" class="st10" width="14.6" height="0.9"/>
							<rect x="171.7" y="232.2" class="st10" width="14.6" height="0.9"/>
							<rect x="150.2" y="232.2" class="st10" width="14.6" height="0.9"/>
						</g>
					</g>
				</g>
			</g>
			<path class="st13" d="M-1,290.4c0,7.5,1.3,14.6,3.7,21.3h297.1c2.4-6.7,3.7-13.8,3.7-21.3V278H-1V290.4z"/>
			<path class="st13" d="M296.9,318.3H5.5c10.3,21,31.9,35.5,56.9,35.5H240C265,353.8,286.6,339.3,296.9,318.3z"/>
			<rect x="5.3" y="261.9" class="st14" width="183" height="11.7"/>
			<rect x="87.1" y="32.3" class="st13" width="197.6" height="18.6"/>
			<rect x="15.2" y="32.3" class="st13" width="61.8" height="18.6"/>
			<path class="st13" d="M16.9,17.9h268.6C274,6,257.9-1.3,240-1.3H62.4C44.6-1.3,28.4,6,16.9,17.9z"/>
			<path class="st15" d="M134.6,117.4c0,0,2.5-2.5,6.1-2.1c3.6,0.4,4,5.7,1.9,10.1c-2.1,4.4-5.5,5.5-9.1,4.7L134.6,117.4z"/>
			<path class="st16" d="M71.9,123.2c0.2-2.3,1.3-4.4,3.3-3.2c1.9,1.2,5.2,7.5,5.7,10.2c0.6,2.7,1.9,7.6,0.7,8.5
				c-1.2,0.9-3.5,1.5-4.4,0.7s-2.2-4.4-2.6-6.2C74.2,131.4,71.9,123.2,71.9,123.2z"/>
			<path class="st17" d="M167.5,150.2c-0.8-4.6,0.8-11.3,0.6-12.6s-1.4,2.1-2.2,1c-0.8-1-1.2-8.5,4-16.2
				c5.2-7.7,12.1-13.6,20.1-15.4c8-1.8,19.6-5.3,34.1,1c14.5,6.3,12.9,16,13.8,18.9c0.9,2.9,4.5,7,4.8,9.5c0.2,1.9-1.3,2.5-1.2,5
				s-3.2,7.4-4.2,8.8C236.1,151.7,167.5,150.2,167.5,150.2z"/>
			<path class="st15" d="M232.2,142.5c3.4-1.4,6.9-1.8,7.7,2.3s-1,12-5.2,13.3c-4.2,1.3-6.5-2.6-6.5-2.6S228.1,144.2,232.2,142.5z"
				/>
			<path class="st15" d="M176.6,149c-3.8-1.3-7.1-2.1-9.1,0.9c-2.1,3.1,0.2,7.9,1.9,10.5c1.7,2.5,6.3,5.9,9.8,2.1
				C182.7,158.6,176.6,149,176.6,149z"/>
			<path class="st18" d="M196.2,184.8c-12.9,7.6-19.3,18-19.4,19.5s5.7,5.4,5.7,5.4s-7.7-0.7-9.1,0c-1.5,0.7-1.5,8.5-1.2,18.7
				c0.2,10.2,0.7,17.8,0.7,17.8H186c0,0,9.8-44.6,9.6-44.5C195.3,201.9,196.2,184.8,196.2,184.8z"/>
			<path class="st19" d="M130.1,206.4l-14.9,30.8l2.1,18.8l15.1,0.9l5.2-0.5l3.7-0.1c0,0,0.4-25.6,0.5-42.4
				c0.1-16.7-0.5-33.1-9.5-34.4l-6.8,5L130.1,206.4z"/>
			<path class="st20" d="M124.3,184.8c0,0,4.6,37.9,4,65.3H95.8L95,202.6l-3.6-6l-6.7-12.8l11.3-1.9l17.4,13.5l8.6-7.6L124.3,184.8z
				"/>
			<path class="st19" d="M84.7,174c-8.7,5.9-10.3,9.6-12.7,14.8c-2.4,5.2-1,62.6-1,62.6l32.6-1l-10-52.5L84.7,174z"/>
			<path class="st18" d="M75.1,182.8c6.2,0,5.9,19.9,5.9,42.3s-1.7,26.3-1.7,26.3H65.8c0,0,0-15.2,0.5-32.8
				C66.7,200.8,67.4,182.8,75.1,182.8z"/>
			<path class="st21" d="M123,160.4c0,0,3.4,5.4,9.5,8.5c6.1,3.1,14.4,4,14.6,4.9c0.2,0.8-2.9,4.3-5.7,9.7s-5.1,9-4.5,9.9
				c0.5,1,7.7-0.5,8.5,0.4c0.7,1-12.3,28.3-13.9,55.2H123c0,0,1.6-41.1,1-60.2c-0.6-19.1-6.8-24.3-6.8-24.3L123,160.4z"/>
			<path class="st21" d="M100.5,164.7c0,0-9.8,8.9-8.7,18.4c1.2,9.5,18.1,33.8,15.9,68.3h-4.5c0,0-4.1-11.8-12.5-23.8
				c-8.4-11.9-13-15.6-12.9-16.7c0.1-1.1,12.3-8.4,12.3-9.3c0-1-14.7-3.9-15-5.1c-0.3-1.2,3.4-2.9,3-12.2
				c-0.4-9.3,4.1-19.6,20.5-24.5L100.5,164.7z"/>
			<path class="st15" d="M116,161.7c0,0,0.1,8.3,2.5,18.2l-8,14.4l-13.1-12.5c0,0,0.5-9,0-18.7L116,161.7z"/>
			<path class="st22" d="M131.4,223c-0.7-2.9-2.9-22-24-36.7c-5.6-3.9-9.8-6.8-9.8-6.8v0l0,0c0.1-3.3,0.2-9.7-0.1-16.4
				c0,0-11.1,7.1-10.6,18.7c0.4,9.4,8.8,12.5,14.1,17.9c4.9,5.1,6.6,8.4,10.7,14.6c4.1,6.2,10,19.9,9.8,16.2
				c-0.2-3.7-0.5-4.6,1.6-1.8c2.1,2.9,2.9,1.3,2.1-1.9c-0.8-3.3-0.9-5.5,0.3-3.6c1.2,1.8,4.1,5.1,2.9,1.5c-1.1-3.6-1.3-5.4-0.2-3.8
				C129.1,222.4,132.1,226,131.4,223z"/>
			<path class="st23" d="M125.9,183.7c-0.3-11.1-4.6-17.1-9.8-20.3c0.1,2.1,0.4,5.9,1.2,10.5c0,0-1.7,14.1-16.4,25.8
				c0,0,2,8.1,10.7,14.6C111.6,214.3,126.5,204.1,125.9,183.7z"/>
			<path class="st16" d="M100.9,73.7C74.4,75.2,71,98.2,71.3,102.8c0.2,3.6,0.5,8.9,1.8,15.3c0.1,0.3,0.1,0.6,0.2,0.9
				c0.2,0.8,0.3,1.5,0.5,2.3c0.2,0.8,0.4,1.5,0.6,2.3c1,3.5,2.7,8.8,4.6,14.1c0.1,0.2,0.1,0.3,0.2,0.5c0.1,0.3,0.2,0.6,0.3,0.9
				c0.1,0.2,0.1,0.3,0.2,0.5c0.1,0.3,0.2,0.7,0.4,1c0,0.1,0.1,0.2,0.1,0.4c0.1,0.4,0.3,0.7,0.4,1.1c0,0,0,0.1,0.1,0.1
				c0.2,0.4,0.3,0.8,0.5,1.3l0,0c2.2,5.9,4.1,10.9,7.5,15.6c3.2,4.5,10.1,12.7,20.6,12.4c10.5-0.3,16.3-13.6,20.9-25.2
				s7-27.2,7-36.9C137,83.3,122.1,72.6,100.9,73.7z"/>
			<path class="st24" d="M117.6,126.2c1.6-0.2,3.2-0.1,3.4,0.2c0.3,0.4-1.2,2.2-3.9,2.3c-2.7,0.1-4-0.4-4-1.1
				C113.1,127,115.2,126.5,117.6,126.2z"/>
			<path class="st24" d="M89.4,130.1c0.2-0.7,1.6-0.4,3.1-0.7c1.5-0.3,2.8-0.6,3.2-0.3s-0.7,1.6-2.6,2
				C91.1,131.4,89.2,130.7,89.4,130.1z"/>
			<path class="st21" d="M117.5,123.2c1,0,1.7,1.1,1.7,2.3c0,1.2-0.6,2.1-1.9,2.3c-1.3,0.2-1.8-1.2-1.7-2.3
				C115.7,124.4,116.1,123.2,117.5,123.2z"/>
			<path class="st21" d="M92.2,125.9c1.3-0.2,1.9,0.7,2,2c0.1,1.3-0.4,2.3-1.4,2.5c-1,0.2-1.9-0.8-2-1.9
				C90.7,127.5,91,126.1,92.2,125.9z"/>
			<path class="st25" d="M112.6,119.9c0.6-0.3,3.6-0.3,5.3-0.7c2.6-0.7,5.3-1.8,6-1.8c0.7,0-1,3.3-3.6,4.1c-2.6,0.8-5.8,0.6-7.2,0.7
				C111.7,122.2,111.3,120.6,112.6,119.9z"/>
			<path class="st25" d="M91.5,120.9c1.6-0.2,3.3,0.4,4,0.8c0.6,0.4,1.2,2,0.1,2.2c-1.1,0.2-4.3-0.4-6.6-0.4s-4.7-1.9-4.7-2.6
				C84.4,120.1,86.6,121.4,91.5,120.9z"/>
			<path class="st24" d="M100.6,124.3c0.5-0.6,2.7,3.3,2.7,8.3c0,5-0.5,7.6,0,10c0.5,2.5,1.8,2.9,3,2.9c1.2-0.1,2.7-1.6,3.3-1.4
				c0.6,0.2-1.1,3.1-3.9,2.9c-2.7-0.1-4.4-2-4.4-6.3s0.9-6.5,0.7-9.4C101.8,127.4,100.1,124.8,100.6,124.3z"/>
			<path class="st21" d="M156.9,104.2c1.3-1.3,0.5-4.4-2.1-4.3c-2.6,0-3.3-1.4-3.1-3.3c0.2-1.9-2.4-2.7-4.5-0.8
				c-2.1,1.9-4.5-0.7-6.2-3.9c-1.8-3.3-1.2-8.7-7-16.7c-7.8-10.8-22.5-8.1-24.5-9c-2-0.8-7-6-22-0.7c-15,5.3-17.3,8.3-20.9,16.7
				c-3.6,8.4-3.1,14.6-4.7,18.3c-1.6,3.8-5.1,6.5-5.1,9.6c-0.1,3.1,3.4,2,4,3.8c0.6,1.8-1.6,4.2-1.1,6.3c0.6,2.1,3.2,1.9,3.3,3.2
				c0.1,1.3-2.6,4.6-1.7,7.6c0.9,3,3.4,2.3,4,3.5c0.6,1.2-0.1,4,0.9,5c1,1,3.1-1.8,4.4-0.9c1.3,1-0.5,5,2.4,6.5
				c2.9,1.5,8.2-1.5,8.2-1.5l0,0c-0.8-2.1-1.6-4.3-2.4-6.5c0,0-2.7-4.3-3.5-6.7c-1.3-4.1-1.3-8.4-1.3-8.4c-1-3.9-1.6-7.5-1.9-10.7
				l0,0l0,0v0h0c0,0,1.6-0.7,2.4-3.1c0.9-2.4,1.9-5.8,3.2-5.8c1.3-0.1,0,5.8,1.6,6.6c1.6,0.8,5.8-1.7,6.9-3.9c1-2.1-0.1-6.1,1.3-6.8
				c1.4-0.7,3.8,3.5,2.9,6.9c-0.8,3.3-3.8,5.9-3.5,7.2c0.3,1.2,6-0.7,7.9-4.7c1.9-4-0.1-7.9,1.2-8.6c1.3-0.7,2.7,2.3,2.9,4.3
				c0.1,2-1.1,4.4-0.4,4.9c0.7,0.5,2.6-1.8,3.1-4.5c0.5-2.7,0.3-4.9,1.3-5.2s1,3.7,0.1,6.5c-0.9,2.8-2,6.1-0.1,7
				c1.7,0.9,8-2.3,8.7-9.8c0.8-8.7,0.2-17,2.3-17.4c1.1-0.2,2.4,2.7,2.8,7.8c0.3,5.1,3.4,7.5,5.2,6.8c1.5-0.6-1.2-3.7,0-4.5
				c1.3-1,4.2,2.6,5.6,7.9c1.4,5.2,5,14.6,9.2,16.5c2.1,1,2.4-3.5,4.6-3.8s4.3,2.1,6.1,0.8c1.3-0.9,0-3.8,1.5-4.9
				c1-0.7,2.6,0.6,3.7-0.4c1.1-1-0.8-2.9,0-4.7C153.4,104.3,155.5,105.4,156.9,104.2z"/>
			<path class="st26" d="M98.9,153.6c-0.2,0.7,2.5,3.1,8.5,2.5c6-0.5,7.3-3.1,7.3-3.5c0,0-4.1,1-8.7,1
				C101.5,153.7,98.9,153.6,98.9,153.6z"/>
			<path class="st27" d="M106.9,152.7c0.7,0.1,1.6-1.3,3.7-1.5c2.1-0.2,4.3,0.9,4.6,1.3c0.3,0.4-3.2,1.6-8.4,1.8
				c-5.2,0.2-7.9-0.3-8-0.6c-0.2-0.3,1.5-1.9,4.1-2.3C105.5,151.1,105.8,152.6,106.9,152.7z"/>
			<path class="st15" d="M194.7,179c0,7.3,0.1,10.9-1.4,16.2c-1.5,5.3,2.1,12.6,5.4,14.1c3.3,1.5,10.1,2.2,16,0
				c5.8-2.2,9.2-6.1,10.4-9s-5.9-1.4-5.9-1.4s-0.8-12.6-0.4-21.6L194.7,179z"/>
			<path class="st28" d="M206.6,198.1c-2,0.5-3.9,0.5-4.6,1.1c-0.7,0.6-1.6,3.7-1.5,10.7l-0.3-0.5c0,0,0.1-5-0.6-6.9
				c-0.7-1.9-1.5-2.2-3.4-3.3c0,0-3.6,1.1-4.1,2.2c-0.5,1.1,0.4,6.9,0.9,7.5c0.4,0.6,5,3.1,5.9,3c0.9-0.2,4.7-0.1,6.1-0.3
				c1.4-0.2,2.6-0.2,4.3-0.4c1.7-0.1,3.6,0,4.8-0.1c1.3-0.2,5.1-1.7,3.8-4.3c-1.3-2.6-3.5-5.4-5-6.2s-4.3-2.5-4.3-2.5H206.6z"/>
			<path class="st19" d="M210.5,249l1.7-41.6c0,0-6.3,1.3-11.4,0.5c-5.1-0.9-7.8-5.1-7.8-5.1l-2.6-0.4c0,0-3.4,12.7-4.4,26.4
				c-1,13.7-1.4,20.2-1.4,20.2H210.5z"/>
			<g>
				<path class="st29" d="M218.6,183.2c0,1.3,0,2.6,0,3.9h0c0,0-0.7,7-12,11c0,0,1.4,0.7,2.5,1.9c1.1,1.2,2.5,3.3,2.7,5
					c0,0,9-5.3,10.5-7.6s2-4.1,2.1-5.8S222.7,185.5,218.6,183.2z"/>
				<path class="st29" d="M194.3,190.7C194.3,190.7,194.3,190.7,194.3,190.7c0.1-1,0.2-2,0.3-3.1c0,0-1.9,0.6-3.2,2.4
					c-1.2,1.8-2.4,4-2.2,9.9c0.2,5.8,5.1,7.5,5.1,7.5c-1-5.2,2-8.2,2-8.2C193.9,195.4,194.2,191.3,194.3,190.7z"/>
			</g>
			<path class="st18" d="M228.2,195.8c4.2,1.7,13.1,6.3,15.5,12c2.4,5.7,1.4,40.8,1.4,40.8l-27.4,1l-17.4,0.1c0,0-1.4-25.7-0.7-36.6
				c0.2-2.5,5.5-2,5.5-2s10.7,3,11.2,3c0.5,0,9.5-9.1,9.6-9S228.2,195.8,228.2,195.8z"/>
			<path class="st20" d="M222.2,184.8c1.5-1.1,5.9,5.3,8.1,9.2c2.2,3.9,2.5,7.3,1,12.4c-1.5,5.1-12.2,16.7-13.6,17.2
				c-1.4,0.5-12.1-9.2-12.9-11.7s2.2-5.6,8.2-10.4C225.8,191.2,220.5,186.1,222.2,184.8z"/>
			<path class="st21" d="M242.2,207.4c4.2,0,7.5,7.3,7.9,22c0.4,14.7,0,18.8,0,18.8l-16,0.8c0,0-0.4-4.6,0.1-19.8
				C234.7,216.3,235.8,207.4,242.2,207.4z"/>
			<g>
				<path class="st21" d="M174.2,212.6c0-0.3,0.8-0.6,2.3-0.6c1.4,0,1.9,0.5,2,0.7c0,0.2-0.5,0.5-2.1,0.5
					C174.7,213.1,174.2,212.8,174.2,212.6z"/>
				<path class="st21" d="M200.4,213.4c0-0.3,0.6-0.6,2-0.7c1.4-0.1,2,0.2,2.1,0.5c0.1,0.3-0.6,0.6-2,0.6
					C201.1,213.9,200.4,213.8,200.4,213.4z"/>
			</g>
			<path class="st16" d="M208,185.5c8.8-0.8,18.4-6.8,21.1-12c2.6-5.3,4.9-15.1,4-28.6c-1-13.5-6.6-20.8-13.3-25.3
				c-6.8-4.4-22.8-8.6-32.3-4.2s-17.7,18.9-14.9,35c2.7,16.1,4.3,22.8,13.1,30.3C189.1,183.7,198.4,186.3,208,185.5z"/>
			<path class="st17" d="M229,136c0-0.5-5.3-1-10.7-4.7c-5.4-3.7-8.4-7.5-8.8-7.3c-0.4,0.1,0,2.5,1.5,4.9c1.5,2.4,4.3,4.8,3.7,5.2
				c-1.5,0.9-8.6-3.7-14.8-7.6c-5.1-3.2-8.9-6.4-11-6.1c-3.5,0.4-6.9,5.4-9.4,10.3c-2.4,4.9-2.3,10.4-2.5,14
				c-0.2,3.6-0.1,10.4-1.2,10.4c-1.5,0-3.5-7-3.5-7s-1.4-2.8-1.1-8.9c0.2-6.1,5.9-20.5,12.5-24.6c6.6-4,15.8-4,27.6-0.9
				c11.9,3.2,18.1,11.5,20.6,19.5c1.5,4.9,1.9,18.2,0.4,18.4C231.2,151.6,229.1,145.4,229,136z"/>
			<path class="st21" d="M214.7,148.5c1.4-0.4,2.8,1.1,2.7,2.4c-0.1,1.3-1.3,2.2-3.1,1.8C212.4,152.2,212.7,149,214.7,148.5z"/>
			<path class="st17" d="M210.2,146.1c-0.5-0.7,1.6-3.1,4.9-3.1c3.4-0.1,4.6,1.6,4.5,2.3s-2.8,0.2-4.6,0.4
				C213.3,145.9,210.7,146.8,210.2,146.1z"/>
			<path class="st21" d="M189.6,151.3c1.3-1.1,3.1,0,3.3,1.4c0.2,1.4-1.1,2.3-2.4,2.3C189.2,154.9,187.7,152.8,189.6,151.3z"/>
			<path class="st17" d="M185.9,149.1c-0.5-0.4,1-2.9,4-3.6c3-0.7,4.6,1.1,4.6,1.7c-0.1,0.6-3.1,0.4-4.7,0.9
				C188.1,148.5,186.5,149.5,185.9,149.1z"/>
			<path class="st24" d="M202.4,152.4c0.7,0,0.5,3.6,0.6,6.5c0,2.9,0.8,3.9,2.3,3.8c1.9-0.1,2.2,0.7-0.1,1.4
				c-2.3,0.7-3.9-0.4-3.9-3.5C201.2,157.6,201.9,152.4,202.4,152.4z"/>
			<path class="st26" d="M197.2,171.2c-0.1,0.2,1.6,2.2,8.7,1.5s7-3.4,7-3.4s-4.4,0.9-8.3,1.4C200.7,171.2,197.2,171.2,197.2,171.2z
				"/>
			<path class="st27" d="M204.9,170.1c0.3-0.2,1-1.2,2.7-1.7c1.8-0.5,5.5,0.6,5.8,0.9c0.3,0.3-3.2,1.4-7.7,2c-4.4,0.6-8.7,0.3-8.9,0
				c-0.2-0.3,1.6-1.6,4-1.9C203.3,169,204.9,170.1,204.9,170.1z"/>
			<rect x="-1" y="244.3" class="st20" width="304.3" height="4"/>
			<rect x="-1" y="244.3" class="st30" width="53.2" height="4"/>
			<rect x="-1" y="248.3" class="st21" width="304.4" height="9.5"/>
			<g>
				<g>
					<g>
						<g>
							<g>
								<polygon class="st31" points="290.4,252.1 289.2,252.1 289.2,249.8 291.8,249.8 291.8,251.1 290.4,251.1 								"/>
							</g>
							<g>
								<polygon class="st31" points="291.8,256.2 289.2,256.2 289.2,253.9 290.4,253.9 290.4,254.9 291.8,254.9 								"/>
							</g>
							<g>
								<polygon class="st31" points="298.1,256.2 295.5,256.2 295.5,254.9 296.8,254.9 296.8,253.9 298.1,253.9 								"/>
							</g>
							<g>
								<polygon class="st31" points="298.1,252.1 296.8,252.1 296.8,251.1 295.5,251.1 295.5,249.8 298.1,249.8 								"/>
							</g>
						</g>
					</g>
					<g>
						<polygon class="st31" points="2.5,256 2.5,249.7 9.7,252.8 						"/>
						<g>
							<polygon class="st31" points="22,256 19.9,254.2 17.7,254.2 17.7,251.5 19.9,251.5 22,249.7 							"/>
							<g>
								<path class="st31" d="M23.8,253.8l-0.8-0.1c0.1-0.3,0.1-0.6,0.1-0.9c0-0.3,0-0.5-0.1-0.8l0.8-0.1c0.1,0.3,0.1,0.6,0.1,0.9
									C23.9,253.2,23.9,253.5,23.8,253.8z"/>
							</g>
							<g>
								<path class="st31" d="M25.2,254.9l-0.8-0.2c0.1-0.2,0.1-0.5,0.2-0.7c0.1-0.4,0.1-0.8,0.1-1.2c0-0.4,0-0.7-0.1-1.1
									c0-0.3-0.1-0.5-0.2-0.8l0.8-0.2c0.1,0.3,0.2,0.6,0.2,0.9c0.1,0.4,0.1,0.8,0.1,1.2c0,0.4,0,0.9-0.1,1.3
									C25.3,254.4,25.2,254.7,25.2,254.9z"/>
							</g>
							<g>
								<path class="st31" d="M26.7,256l-0.7-0.3c0.2-0.5,0.3-0.9,0.4-1.4c0.1-0.5,0.1-1,0.1-1.5c0-0.5,0-0.9-0.1-1.4
									c-0.1-0.5-0.2-1-0.4-1.5l0.7-0.3c0.2,0.5,0.3,1.1,0.4,1.7c0.1,0.5,0.1,1,0.1,1.5c0,0.5-0.1,1.1-0.1,1.6
									C27.1,255,26.9,255.5,26.7,256z"/>
							</g>
						</g>
					</g>
				</g>
			</g>
			<path class="st15" d="M74.4,123.6c-0.2-0.6-0.3-1.2-0.5-1.8c0,0,0,0,0,0c-3.2,0-5.5,0.9-6,3.6c-0.6,3.6,4.1,10.8,6.9,11.8
				c1.4,0.5,2.8,0.4,3.8-0.3c0,0,0,0,0,0C77,131.9,75.4,127,74.4,123.6z"/>
			<path class="st32" d="M71.6,126.1c1.4-0.4,2.4,1.6,2.8,2.9c0.4,1.3,0.7,3.5,0.3,3.9c-0.4,0.4-2.5-1.3-3.4-2.6
				C70.4,129,69.7,126.6,71.6,126.1z"/>
			<path class="st32" d="M139.9,119.6c1.5-0.2,1.6,2,0.8,4.3c-0.8,2.2-2.4,3.6-3.2,3.5c-0.8-0.1,0-2.9,0.4-4.2
				C138.2,121.9,138.6,119.8,139.9,119.6z"/>
			<path class="st32" d="M236,145.1c1.5-0.1,1.7,2.8,1.1,5.1c-0.6,2.3-0.8,3.3-1.9,3.6c-1.1,0.3-0.2-3-0.2-4.8
				C235.1,147.2,235.2,145.1,236,145.1z"/>
			<path class="st32" d="M169.8,152.4c0.9-0.3,2.1,1.6,2.5,3.8c0.4,2.2,1.3,4.2,0.7,4.8c-0.6,0.5-2.2-1.3-3.2-3.7
				C168.8,154.9,168.4,152.9,169.8,152.4z"/>
			<path class="st30" d="M149.7,308.2c0,2.6-2.1,4.7-4.7,4.7h-22.7c-2.6,0-4.7-2.1-4.7-4.7v-7.4c0-2.6,2.1-4.7,4.7-4.7h22.7
				c2.6,0,4.7,2.1,4.7,4.7V308.2z"/>
			<path class="st33" d="M146.6,310.5c1.2,0,1.8,2.4,1.9,6.9c0.1,4.5,0.2,4.5,0.2,4.5s0.4-1,1.8-1c1.5,0,1.9,1,1.9,1
				s0.3-0.9,1.7-0.9c1.4,0,1.7,0.9,1.7,0.9s0.3-0.8,1.8-0.7c1.5,0.1,1.9,2,2,5c0.1,3-0.4,4.9-1.4,6.9c-1.1,2-1.1,5.1-1.1,5.1h-10.9
				c0,0-0.3-5.6-3-9.1c-1.7-2.2-4.3-4.5-4.8-5.1c-0.5-0.6-0.6-2.1,2.2-1.7c2.8,0.4,4.6,1.8,4.6,1.8s-0.1-3.3-0.1-6.5
				C144.8,314.6,144.7,310.5,146.6,310.5z"/>
			<text transform="matrix(1 0 0 1 25.208 292.4214)"><tspan x="0" y="0" class="st20 st34 st35">“My name is Sherlock Holmes.  It is my business</tspan><tspan x="15.2" y="15.4" class="st20 st34 st35">to know what </tspan><tspan x="91.5" y="15.4" class="st36 st34 st35">other</tspan><tspan x="120.6" y="15.4" class="st20 st34 st35"> people don&apos;t know.”. </tspan></text>
			<path class="st36" d="M147.8,309.1c1.2,0,1.8,2.4,1.9,6.9c0.1,4.5,0.2,4.5,0.2,4.5s0.4-1,1.8-1c1.5,0,1.9,1,1.9,1
				s0.3-0.9,1.7-0.9c1.4,0,1.7,0.9,1.7,0.9s0.3-0.8,1.8-0.7c1.5,0.1,1.9,2,2,5c0.1,3-0.4,4.9-1.4,6.9c-1.1,2-1.1,5.1-1.1,5.1h-10.9
				c0,0-0.3-5.6-3-9.1c-1.7-2.2-4.3-4.5-4.8-5.1c-0.5-0.6-0.6-2.1,2.2-1.7c2.8,0.4,4.6,1.8,4.6,1.8s-0.1-3.3-0.1-6.5
				C146.1,313.2,145.9,309.1,147.8,309.1z"/>
			<g>
				<path class="st21" d="M158.1,337.4h-10.9c-0.3,0-0.5-0.2-0.5-0.5c0-0.1-0.3-5.5-2.9-8.8c-1.1-1.5-2.7-3-3.8-4
					c-0.5-0.5-0.9-0.8-1-1c-0.3-0.4-0.5-1.1-0.3-1.6c0.2-0.5,0.9-1.1,2.9-0.8c1.8,0.3,3.2,0.9,4,1.4c0-1.2-0.1-3.4-0.1-5.6l0-0.9
					c0-3.4,0-6.9,2.2-6.9c1.6,0,2.3,2.2,2.3,7.4c0,1.8,0.1,2.8,0.1,3.5c0.3-0.2,0.8-0.4,1.4-0.4c0,0,0,0,0,0c1,0,1.5,0.3,1.9,0.7
					c0.3-0.3,0.8-0.6,1.7-0.6h0c0.9,0,1.4,0.3,1.8,0.6c0.3-0.3,0.9-0.5,1.6-0.5l0.2,0c2,0.1,2.3,2.5,2.4,5.5
					c0.1,2.9-0.3,4.9-1.5,7.1c-1,1.8-1.1,4.9-1.1,4.9C158.5,337.2,158.3,337.4,158.1,337.4z M147.6,336.5h10c0.1-1,0.3-3.3,1.2-4.9
					c0.9-1.7,1.5-3.5,1.4-6.6c-0.1-3.4-0.5-4.6-1.5-4.6c0,0,0,0,0,0c-1.1,0-1.3,0.4-1.3,0.5c-0.1,0.2-0.3,0.3-0.5,0.3
					c-0.2,0-0.4-0.1-0.4-0.3c0-0.1-0.3-0.6-1.2-0.6c-1,0-1.3,0.6-1.3,0.6c-0.1,0.2-0.2,0.3-0.4,0.3c0,0,0,0,0,0
					c-0.2,0-0.4-0.1-0.4-0.3c0-0.1-0.3-0.7-1.4-0.7c-1,0-1.4,0.7-1.4,0.7c-0.1,0.2-0.2,0.3-0.4,0.3c-0.5,0-0.6,0-0.7-5
					c-0.1-5.8-1-6.5-1.4-6.5c-1.3,0-1.3,3.4-1.3,6l0,0.9c0,3.2,0.1,6.4,0.1,6.4c0,0.2-0.1,0.4-0.3,0.4c-0.2,0.1-0.4,0.1-0.5,0
					c0,0-1.8-1.3-4.4-1.7c-1.1-0.2-1.7,0-1.9,0.3c-0.1,0.2,0,0.5,0.1,0.6c0.1,0.2,0.5,0.5,1,1c1.1,1,2.7,2.6,3.9,4.1
					C146.9,330.6,147.5,335,147.6,336.5z"/>
			</g>
		</g>
	</g>
	<path class="st37" d="M121.7,338.1h-4.6l10.1-18.7L104,338.1H84.1c-4.2,0-7.6,3.4-7.6,7.6v21.1c0,4.2,3.4,7.6,7.6,7.6h37.6
		c4.2,0,7.6-3.4,7.6-7.6v-21.1C129.3,341.5,125.9,338.1,121.7,338.1z"/>
	<text transform="matrix(1 0 0 1 89.9233 366.4624)" class="st21 st38 st39">别</text>
</g>
</svg>
