<?xml version="1.0" encoding="utf-8"?>
<!-- Generator: Adobe Illustrator 19.2.0, SVG Export Plug-In . SVG Version: 6.00 Build 0)  -->
<svg xmlns:xlink="http://www.w3.org/1999/xlink" version="1.1" id="Layer_1" xmlns="http://www.w3.org/2000/svg" x="0px" y="0px"
	 viewBox="0 0 299 349" style="enable-background:new 0 0 299 349;" xml:space="preserve">
<style type="text/css">
	.st0{clip-path:url(#SVGID_2_);fill:#C29575;}
	.st1{clip-path:url(#SVGID_2_);fill:#253A3F;}
	.st2{clip-path:url(#SVGID_2_);fill:#8CC2DA;}
	.st3{clip-path:url(#SVGID_2_);fill:#BC463B;}
	.st4{opacity:0.15;clip-path:url(#SVGID_2_);}
	.st5{fill:#FFFFFF;}
	.st6{clip-path:url(#SVGID_2_);}
	.st7{fill:#6AA7C2;}
	.st8{clip-path:url(#SVGID_2_);fill:#EEE9A9;}
	.st9{clip-path:url(#SVGID_2_);fill:#E1DB9E;}
	.st10{clip-path:url(#SVGID_2_);fill:#D65141;}
	.st11{fill:#E66354;}
	.st12{clip-path:url(#SVGID_2_);fill:#E47B3D;}
	.st13{clip-path:url(#SVGID_2_);fill:#F4C19E;}
	.st14{clip-path:url(#SVGID_2_);fill:#DEAE8D;}
	.st15{fill:#352E2C;}
	.st16{clip-path:url(#SVGID_2_);fill:#E56F70;}
	.st17{clip-path:url(#SVGID_2_);fill:#E1B18F;}
	.st18{clip-path:url(#SVGID_2_);fill:#D36734;}
	.st19{clip-path:url(#SVGID_2_);fill:#F6C79D;}
	.st20{clip-path:url(#SVGID_2_);fill:#F1F1F1;}
	.st21{clip-path:url(#SVGID_2_);fill:#327DAF;}
	.st22{clip-path:url(#SVGID_2_);fill:#F2F2F4;}
	.st23{fill:#D65141;}
	.st24{fill:#CA4D35;}
	.st25{clip-path:url(#SVGID_2_);fill:#DAD6D5;}
	.st26{clip-path:url(#SVGID_2_);fill:#DDDDDD;}
	.st27{clip-path:url(#SVGID_2_);fill:#B4423B;}
	.st28{clip-path:url(#SVGID_2_);fill:#352E2C;}
	.st29{clip-path:url(#SVGID_2_);fill:#1D1A19;}
	.st30{clip-path:url(#SVGID_2_);fill:#FFFFFF;}
	.st31{fill:#E1B18F;}
	.st32{clip-path:url(#SVGID_2_);fill:#EF8080;}
	.st33{clip-path:url(#SVGID_2_);fill:#7CB7CD;}
	.st34{fill:#00884B;}
	.st35{fill:#02AE63;}
	.st36{fill:#05A160;}
	.st37{fill:#009850;}
	.st38{fill:#D4A889;}
	.st39{fill:#BD9180;}
</style>
<g>
	<g>
		<defs>
			<path id="SVGID_1_" d="M236.4,0.7c34.3,0,62.1,27.8,62.1,62.1v223.5c0,34.3-27.8,62.1-62.1,62.1H62.6
				c-34.3,0-62.1-27.8-62.1-62.1V62.8c0-34.3,27.8-62.1,62.1-62.1H236.4z"/>
		</defs>
		<clipPath id="SVGID_2_">
			<use xlink:href="#SVGID_1_"  style="overflow:visible;"/>
		</clipPath>
		<path class="st0" d="M236.4,0.7c34.3,0,62.1,27.8,62.1,62.1v223.5c0,34.3-27.8,62.1-62.1,62.1H62.6c-34.3,0-62.1-27.8-62.1-62.1
			V62.8c0-34.3,27.8-62.1,62.1-62.1H236.4z"/>
		<rect x="-9.2" y="91.9" class="st1" width="314.7" height="195.7"/>
		<rect x="-19.2" y="98.2" class="st2" width="334.7" height="181"/>
		<path class="st3" d="M90.3,253.1c0,0,4.9,36,28.4,67l-22.1,4.7l-7.7-28.6L90.3,253.1z"/>
		<g class="st4">
			<polygon class="st5" points="135.1,279.2 231.8,279.2 50.8,98.2 -1.8,98.2 -1.8,142.3 			"/>
			<polygon class="st5" points="84,98.2 71.1,98.2 252.1,279.2 265,279.2 			"/>
		</g>
		<g class="st6">
			<g>
				<g>
					<path class="st7" d="M123.6,145.6v3.3h-2.5v-3.4c0-4.2-1.6-7.4-6-7.4c-4.3,0-6,3.2-6,7.4v20.4c0,4.2,1.6,7.4,6,7.4
						c4.3,0,6-3.1,6-7.4v-4.7h2.5v4.5c0,5.7-2.5,9.9-8.5,9.9c-6,0-8.5-4.3-8.5-9.9v-20.1c0-5.7,2.5-9.9,8.5-9.9
						C121.1,135.7,123.6,140,123.6,145.6z"/>
					<path class="st7" d="M131.6,166.6l-2,8.7h-2.4l8.6-39.4h3.8l8.8,39.4h-2.6l-2-8.7H131.6z M132,164.4h11.5l-5.8-25.4L132,164.4z
						"/>
					<path class="st7" d="M165,155.2v2.4h-10.2v17.8h-2.6V136h14.9v2.4h-12.4v16.8H165z"/>
					<path class="st7" d="M184.5,154.2v2.4h-10.7V173h12.9v2.4h-15.5V136h15.5v2.4h-12.9v15.8H184.5z"/>
				</g>
			</g>
			<g>
				<rect x="117.6" y="127.1" class="st7" width="56.8" height="2.3"/>
				<rect x="117.6" y="182" class="st7" width="56.8" height="2.3"/>
			</g>
		</g>
		<path class="st8" d="M246.2,141.8c0,0,22.3,3,27.8,25.5c5.5,22.4-4.2,48-1.5,72.2c2.8,24.2,16.3,60.7,11.1,85.4
			c-5.3,24.6-32.7,42.4-32.7,42.4s-65.9-5-67.6-5c-1.7,0-6.9,0.3-6.9,0.3s7.8-67.8,6.9-100.2c-0.8-32.4-5.6-52.7-2.8-85.6
			C183.3,144.3,222.4,124.6,246.2,141.8z"/>
		<path class="st9" d="M186.4,179.8c0,0,0,28.6,14.6,48.1l-3.3-51.6L186.4,179.8z"/>
		<path class="st3" d="M71.6,225.9l2.1,14.9c0,0-1.1,7.5-12,7.4c-10.9-0.1-15.4-7.9-15.4-7.9l2.2-18.8L71.6,225.9z"/>
		<path class="st10" d="M73.7,240.8c0,0-3.5,5.4-13.7,4.3c-10.1-1-13.7-4.9-13.7-4.9s-12.9-1.1-18.9,8.8c-6.1,9.9-9.9,74.4,0.1,103
			h79.1c0,0-8.7-31.4-11-53.4c-2.4-22-3.2-43.6-6.9-50.5C84.9,241.2,73.7,240.8,73.7,240.8z"/>
		<g class="st6">
			<polygon class="st11" points="63.3,274.6 56,261 50.3,275.6 59,289.4 			"/>
			<polygon class="st11" points="49.2,275.8 42.7,262.1 36.2,276.8 44.9,290.6 			"/>
			<polygon class="st11" points="78.9,271.9 70.6,258.5 64.4,274.6 73.6,286.8 			"/>
			<path class="st11" d="M93,271.8c-0.1-1.4-0.3-2.8-0.4-4.2l-6.8-9.4l-5.9,13.6l7.6,12.6L93,271.8z"/>
		</g>
		<path class="st12" d="M259.4,330.5c-9-29.5,0.5-63.6-3.4-72.4c-1-2.3-2.4-4.2-4-5.7c-5.7,3.2-33.2,0.2-36.7-2.8l0,0
			c-4.4,4.2-4.4,9.8-8.3,17.8c-5.7,12,0.3,27.4-1.5,42.5C204.3,321.2,265.5,350.7,259.4,330.5z"/>
		<path class="st13" d="M215.4,249.7c6.1,5.2,23.4,10.3,36.7,2.8c-4.5-4.3-10.8-5.9-16.9-6.4c-8.2-0.7-14.5-0.5-19.1,3
			C215.8,249.2,215.6,249.5,215.4,249.7z"/>
		<path class="st13" d="M245.1,248.2c-2.9-4.1-3.7-13.8-3.7-26.7l-15.6,8c0,0,1,11.9-3,16.8c0,0,5.7,4.5,5.9,4.5s13.2-1,13.2-1
			L245.1,248.2z"/>
		<path class="st14" d="M224.9,241.7c8.9-4.6,13.6-12.4,15-14.5c0-1.7,1.5-3.9,1.5-5.7l-15.6,8C225.8,229.4,226.4,236.3,224.9,241.7
			z"/>
		<path class="st13" d="M252.6,206.3c0,0-1.5,17.7-21,28.2c-10.4,5.6-18,5.8-21,5.1c-3.4-0.8-14.4-12.2-15.9-40
			c-1.5-27.8,0-36.4,0-36.4s54.6-15,54.7-14.6c0.1,0.4,13.5,10.2,13.5,10.2L252.6,206.3z"/>
		<path class="st14" d="M212.4,200.1c-1.3-0.4-4.5,12.5-3.9,13.8c0.6,1.3,4.8,2.1,5.1,1.4c0.3-0.7-2.6-0.8-3.2-2.5
			C209.5,210.5,213,200.3,212.4,200.1z"/>
		<g class="st6">
			<path class="st15" d="M224,202c0,1.1-0.7,1.9-1.7,1.9c-1.1,0-1.8-0.9-1.8-1.9c0-1,0.7-1.9,1.8-1.9C223.3,200,224,200.9,224,202z"
				/>
			<path class="st15" d="M202.8,202c0,1.1-0.7,1.9-1.7,1.9c-1.1,0-1.8-0.9-1.8-1.9c0-1,0.7-1.9,1.8-1.9
				C202.2,200,202.8,200.9,202.8,202z"/>
		</g>
		<path class="st16" d="M206.8,220.4c0,0,0.8,3.9,5.8,3.9c5.8,0,6.3-3,6.3-3s-6,1-7.9,0.6C209.1,221.6,206.8,220.4,206.8,220.4z"/>
		<path class="st8" d="M237.1,162.8c0,0-4.5,32.4,10.2,66c0,0,19.8-37.5,19.1-51.7s-2.1-15.1-4.5-18.6c-2.3-3.5-14.6-12.5-14.6-12.5
			l-26.7-0.3l-31.4,18l-5.7,23.6C183.5,187.3,211.5,191.5,237.1,162.8z"/>
		<ellipse class="st1" cx="143.1" cy="345.7" rx="127.2" ry="45.5"/>
		<path class="st17" d="M220.8,319.5c0,0,4.3-1,6.8-0.4c2.5,0.6,5.4,4.6,5.5,5.9c0.1,1.3-8.3-2.6-8.8-2.8
			C223.8,321.9,220.8,319.5,220.8,319.5z"/>
		<path class="st18" d="M197.5,300.7c-1-4.6,2.9-12.2,7.1-18.9c-0.1-5.1,0.4-10,2.5-14.4c2.8-5.9,3.6-10.4,5.5-14.1
			c-12,9.3-29.9,39-28,51c2,13.3,26.4,23.2,26.4,23.2l13.1-5.5C224.1,322,199.2,308.3,197.5,300.7z"/>
		<path class="st19" d="M218.7,318.9c0,0,4,0.5,6.8,1.2c1.9,0.5,6.5,2.8,7.9,4.1c1.4,1.3,2.5,2.5,4.3,4.1c1.8,1.5,4.6,3.3,4.7,4.2
			c0.1,0.8-1.2,0.5-1.2,0.5s3.1,1,3,2.1c-0.1,1.1-4.9,0.8-7.9-0.5c0,0,0.9,0.5,1.6,1c0.7,0.5,0.8,1.7-1.1,2
			c-1.9,0.3-3.7-0.4-3.7-0.4s-0.2,0.8-2.6,0.6c-2.4-0.1-5.4-1.3-6.3-1.8c-0.9-0.5-3.3-3-4-3.4c-0.7-0.4-5.4-1-9.1-5.1
			c0,0-0.4-3.6,2-6C216.1,318.4,218.7,318.9,218.7,318.9z"/>
		<path class="st20" d="M172.3,274.8c0,0,25.8,3.7,25.8-6.5c0,0,0.2-5.3-15.4-5.7c-12-0.3-15.6,2-16.6,4.2c-0.3,0.6-0.1,1.6,0.2,2.7
			C166.9,271.7,172.3,274.8,172.3,274.8z"/>
		<path class="st21" d="M192.1,291.8c0,0,6.7-7,6.1-23.4c-0.2,1.6-1.2,3.5-5.3,5.1c-4.1,1.6-17.8,0.8-22-1.2c-4.2-2-5-3.3-4.7-5.5
			l0,0c-0.3,0.6-0.4,1.3-0.3,1.8c0.1,2.3,1.8,12.6,4.7,18.4c0.6,1.1,3.2,4.4,11.5,5.7C187.3,293.5,192.1,291.8,192.1,291.8z"/>
		<path class="st22" d="M192.1,291.8c0,0,0.1-0.1,0.2-0.2c-1.9-1.1-5.9-3.7-10.2-7.4c4.7-2.7,9.7-6.6,13.4-12.1
			c-0.7,0.5-1.6,0.9-2.7,1.3c-0.9,0.3-2.2,0.6-3.8,0.7c-2.1,2.1-5.3,4.8-9.9,7.3c-2.7-2.6-5.4-5.6-7.6-8.9c-0.2-0.1-0.4-0.2-0.6-0.2
			c-4.2-2-5-3.3-4.7-5.5l0,0c-0.3,0.6-0.4,1.3-0.3,1.8c0,0.2,0,0.5,0.1,0.9c1.8,2.9,5.4,8.3,10.2,13.4c-1.9,0.9-4,1.7-6.3,2.4
			c0.2,0.6,0.5,1.2,0.8,1.7c0.2,0.4,0.6,1,1.4,1.7c1.8-0.6,4.3-1.6,7.1-3c4.1,3.8,7.3,5.8,9.3,6.8
			C190.6,292.3,192.1,291.8,192.1,291.8z"/>
		<g class="st6">
			<path class="st23" d="M193.4,273.2c-0.2,0.1-0.4,0.2-0.5,0.2c-0.6,0.2-1.3,0.4-2.2,0.5c-2.2,2.4-5.9,5.6-11.1,8.4l-0.7,0.4
				l-0.6-0.5c-3.6-3.4-6.5-7-8.7-10.6c-0.8-0.4-1.4-0.8-1.9-1.2c2,3,5.2,7.5,9.1,11.7l1,1.1l-1.3,0.6c-2,0.9-4.2,1.7-6.4,2.4
				c0.1,0.3,0.2,0.5,0.4,0.8c0.1,0.2,0.3,0.5,0.6,0.9c1.8-0.6,4.4-1.6,7.4-3.1l0.7-0.3l0.5,0.5c5.1,4.8,8.8,6.6,10.3,7.3
				c0.4-0.1,0.8-0.2,1-0.3c-2.1-1.3-5.7-3.7-9.7-7.1l-1.1-1l1.3-0.7C186.5,280.4,190.5,277,193.4,273.2z"/>
			<path class="st24" d="M166.1,267.9c0-0.3,0-0.7,0.1-1.1l0,0c-0.1,0.2-0.2,0.5-0.2,0.7C166,267.6,166.1,267.7,166.1,267.9z"/>
		</g>
		<path class="st22" d="M196.5,282.9c0.4-1.3,0.7-2.8,1-4.5c-2.5,1.1-8,3-16.4,2.7c-0.2-2.2-0.2-4.6-0.1-6.9
			c-1.6-0.1-3.1-0.3-4.5-0.5c-0.1,1.8-0.1,4.2,0.1,6.9c-4-0.8-7.2-2.5-9.4-4c0.4,2,1,4.1,1.7,6.1c2,1.1,4.8,2.1,8.4,2.6
			c0.4,2.2,0.9,4.5,1.7,6.8c1,0.2,2,0.5,3.2,0.7c0.3,0,0.5,0.1,0.8,0.1c-0.3-1.4-0.9-3.9-1.3-7.1C188.8,286,194,284.1,196.5,282.9z"
			/>
		<path class="st10" d="M183,284.7c7.2,0,12.1-2.2,13.9-3.1c0.2-0.6,0.3-1.2,0.4-1.9c-2.6,1.1-7.3,2.5-14.1,2.5c-0.7,0-1.4,0-2.1,0
			l-0.9,0l-0.1-0.9c-0.2-2.5-0.2-4.8-0.1-7.1c-0.8-0.1-1.6-0.2-2.4-0.3c-0.1,2.6,0,5,0.1,6.7l0.1,1.4l-1.4-0.3
			c-3.7-0.7-6.6-2.2-8.9-3.5c0.3,1,0.5,2.1,0.9,3.1c2,1.2,4.9,2.4,9,3.1l0.7,0.1l0.1,0.7c0.4,2.5,1,4.8,1.8,7.1l1.7,0.4
			c-0.3-1.5-0.8-3.8-1.2-6.7l-0.2-1.2l1.3,0C182.1,284.7,182.5,284.7,183,284.7z"/>
		<path class="st25" d="M196.4,289c0,0-1.2,2-4.4,1.6c0,0-1-0.3-1.3-1.3c-0.3-1.2,0.2-2.3,0.2-2.3s1.9-0.2,3.1-1
			C195.3,285.3,196.4,289,196.4,289z"/>
		<path class="st26" d="M196,268.7c0,2-6.7,3.8-14,3.5c-7.2-0.3-13.4-2.7-13.4-4.8c0-2.2,7.1-3.5,14.3-3.2
			C190.2,264.5,196,266.3,196,268.7z"/>
		<path class="st27" d="M71.6,225.9l-23-4.5l-0.8,7c4.6,4.6,10.9,10.1,25.6,10.1L71.6,225.9z"/>
		<path class="st19" d="M196.5,278.8c2-0.2,6.1-0.2,7.5,0.2c1.3,0.4,4.1,1.7,5.5,3.2c1.4,1.5,3.8,5.2,4.6,7.3l-5.2,6.9l-0.9,0.9
			c0,0-4.4-1.2-6.8-1.9c-2.4-0.7-3.3-1.2-3.5-1.4c-0.2-0.2-0.8-1.8-0.8-1.8s-1.5-0.7-1.2-3c0,0-3.5-1.5-4.1-2.8
			c-0.7-1.3-0.4-3-0.4-3s-0.6-1.2-0.3-2C191.3,280.1,193.9,279.1,196.5,278.8z"/>
		<path class="st28" d="M195,270c-2-1.5-6.6-2.6-12-2.8c-5.6-0.2-11,0.5-13.3,1.8c2.1,1.6,6.9,3,12.3,3.2
			C187.6,272.5,192.8,271.4,195,270z"/>
		<path class="st18" d="M214.1,289.5c0,0-2.6,0.9-4.2,3c-2,2.7-1.9,4.8-1.9,4.8s16.1,24.6,36.4,20.1c14.1-3.1,17.5-17.9,17.5-29.2
			c0.1-14.3-2.8-28-8.1-28.6c-7.5-0.9-5,15.7-4.4,26.9c0.6,11.1-0.7,16.1-5.2,19.1C238.2,310,226.8,308,214.1,289.5z"/>
		<path class="st29" d="M101.4,157.9c0,0-0.1,7.9-2.3,13.4c-2.2,5.5-5.6-5.6-5.6-5.8c0-0.3,2.1-6,2.4-6
			C96.2,159.4,101.4,157.9,101.4,157.9z"/>
		<path class="st19" d="M95.3,145.4c3.8,17.1,4.9,36,5.3,50.3c0.4,14.3-3.4,28.6-10.8,35.7c-6.2,5.9-22.4,3.4-31.7,0
			c-9.2-3.4-13-10.5-15.2-13.8c-6.5-9.8-5.7-20.3-6.8-33.4c-0.7-7.8-3.5-24.2-2.4-28.1C36.6,145.2,91.4,127.5,95.3,145.4z"/>
		<path class="st28" d="M43.1,203.8c1.2-8,0.5-17.1,2.2-16.7c1.9,0.5,4.2,11.6,5.2,12.3c1,0.7,3.7,0.4,4.7-1.2
			c1-1.5-2.1-15.4,0.8-24.6c1.8-5.9,6.9-8.7,13-9.7c4.8-0.8,8.4,2,13.4,1.4c6.6-0.8,6.9-2.4,11.1-3.9c4-1.4,8.1-1.6,8.9-3.1
			c2-3.8,1.4-17.9-8.8-24.2c-15.9-9.9-53.3,1.1-61.5,18.5c-3.7,7.9-1.4,18.7,0,35.1c1.4,16.4,5.2,20.8,5.2,20.8
			S42.6,207.3,43.1,203.8z"/>
		<path class="st28" d="M87.1,219.6c-5.6,0.5-9.6-0.6-12-1.5c0.8,1.9,2.3,4.1,4.7,4.6C83,223.3,85.5,221.4,87.1,219.6z"/>
		<path class="st17" d="M82.1,191.4c1.3-0.4,5.4,13.3,4.7,14.9c-0.9,2.2-7.9,1.9-8.3,1.2c-0.4-0.7,5.3,0,6.3-2.1
			C85.8,203.6,81.2,191.7,82.1,191.4z"/>
		<path class="st30" d="M87.1,219.6c1.1-1.3,1.7-2.7,1.6-2.9c-0.2-0.6-3.8,0.2-7.3-0.1c-3.5-0.3-6.4-1.8-6.7-1.3
			c-0.2,0.3-0.1,1.5,0.5,2.8C77.4,219,81.5,220.1,87.1,219.6z"/>
		<path class="st20" d="M126,313.7c0,0-6,0.9-7.3,7.1c-1.3,6.2,3.4,13.9,12.9,11l-1.5-3.9c0,0-7.1,2.4-7.6-4.3
			c-0.2-2.8,1.1-4.9,4.8-5.9C131,316.7,126,313.7,126,313.7z"/>
		<path class="st21" d="M161,311.5c0.5,5.3-3.3,19.8-5,22.4c-1.8,2.7-7,4.8-12.7,4.9c-5.7,0.1-11-2.3-12.4-4.3
			c-1.3-1.9-7.5-18.1-5.1-24.2C126,310.3,161,311.5,161,311.5z"/>
		<path class="st22" d="M160.9,315.4c0.2-1.6,0.2-2.9,0.1-3.9c0,0-0.8,0-2-0.1c-2.8,3.8-7.7,9.5-14.9,14.3
			c-7.2-4.7-13.5-11-17.3-15.3c-0.6,0-0.9,0-0.9,0c-0.4,1.1-0.6,2.6-0.5,4.2c4.8,5.5,10.2,9.8,15.3,13.2c-4.5,2.7-7.8,4.5-10.2,5.7
			c0.2,0.5,0.4,0.8,0.6,1c0.4,0.5,1,1,1.8,1.6c2.9-1.4,6.9-3.4,11.3-6.1c4.2,2.5,7.8,4.3,10.3,5.5c0.7-0.5,1.2-1,1.6-1.6
			c0.2-0.3,0.4-0.8,0.7-1.4c-1.8-0.7-4.8-2.1-9.1-4.6c0.7-0.4,1.3-0.9,2-1.3C154.7,323.2,158.4,319,160.9,315.4z"/>
		<path class="st10" d="M149.1,325.7c5.6-3.8,9.6-8.7,12-12.4c0-0.7,0-1.3,0-1.8c0,0-0.3,0-0.8,0c-2.8,4-8,10.1-15.6,15.1l-0.6,0.4
			l-0.6-0.4c-7.5-4.9-13.9-11.4-17.7-15.7c-0.2,0.6-0.3,1.4-0.4,2.2c4.3,5.1,9.6,9.8,15.8,13.9l1.4,0.9l-1.4,0.9
			c-4.5,2.7-7.8,4.5-10.3,5.7c0,0,0,0.1,0.1,0.1c0.2,0.3,0.5,0.6,0.8,0.9c3-1.4,7.1-3.5,11.8-6.3l0.5-0.3l0.5,0.3
			c4.4,2.7,8.2,4.5,10.7,5.6c0.3-0.3,0.5-0.6,0.7-0.8c0.1-0.1,0.2-0.3,0.2-0.4c-1.9-0.8-4.9-2.2-9.2-4.7l-1.5-0.9l1.4-0.9
			C147.7,326.6,148.4,326.2,149.1,325.7z"/>
		<path class="st22" d="M147.3,338.5c-0.2-1.9-0.4-4.9-0.5-8.4c5.1-0.3,9-1.4,11.6-2.5c0.5-1.7,1-3.6,1.4-5.5
			c-2.6,1.1-7.2,2.5-13.2,3c-0.1-3.8-0.1-7.8,0.1-11.7l-6.3,0.7c0,0,0.1,4.9,0.4,11.1c-6.6-0.5-11.8-2.7-14.4-4.1
			c0.5,2.1,1.1,4.2,1.7,6.1c2.8,1.1,7.1,2.3,13,2.8c0.2,3,0.4,6.1,0.7,8.8c0.6,0,1.1,0.1,1.7,0C144.7,338.8,146,338.7,147.3,338.5z"
			/>
		<path class="st10" d="M158.7,326.3c0.3-0.9,0.5-1.9,0.7-2.9c-2.8,1-7.1,2.3-12.8,2.8l-1.1,0.1l0-1.1c-0.1-3.8-0.1-7.4,0-10.6
			l-4.1,0.5c0,1.7,0.2,5.6,0.4,10.1l0.1,1.2l-1.2-0.1c-6.2-0.4-11.2-2.4-14-3.8c0.3,1.2,0.6,2.3,1,3.5c2.6,1.1,7.2,2.6,13.5,3
			l0.9,0.1l0.1,0.9c0.2,3.5,0.5,6.4,0.7,8.9c0.2,0,0.4,0,0.6,0c1,0,2-0.1,2.9-0.2c-0.2-2-0.4-5-0.6-8.5l0-1l1-0.1
			C152.1,328.7,156.2,327.4,158.7,326.3z"/>
		<path class="st20" d="M143.1,305.5c-9.2,0.2-14.9,1.6-16.9,4.6c-0.1,0.1-0.2,0.3-0.2,0.4c-1.1,3,2.2,7.4,15.9,8.2
			c13.8,0.8,19.1-4.5,19.2-7.1C160.5,306.3,151.4,305.3,143.1,305.5z"/>
		<path class="st26" d="M159.1,311.8c0,2.5-6.8,4.4-15.3,4.4c-8.4,0-15.3-2-15.3-4.4c0-2.5,5.6-4.2,14.9-4.5
			C153.3,307.1,159.1,309.3,159.1,311.8z"/>
		<path class="st28" d="M157,314c-2.5-1.3-7.2-2.2-13.5-2c-5.9,0.2-10.3,0.9-12.7,2.1c2.7,1.3,7.5,2.2,13.1,2.2
			C149.5,316.2,154.4,315.3,157,314z"/>
		<path class="st19" d="M112.1,315.1c1.1,0.3,3.6,2.9,4.1,3.9c0,0,7.9-0.4,8.5,0.4c1.5,1.8,0.2,4,0.2,4s0.8,0.7,1.2,1.6
			c0.4,0.9-0.1,1.7-0.5,2.2c-0.4,0.5-6.5,1.8-6.5,1.8s0.5,1.1,0.4,2.1c-0.1,1.1-1.8,1.8-1.8,1.8s0.6,2.7-2.1,3.6
			c-0.8,0.3-4.2,0.7-4.2,0.7s-2.8,1.3-8,0.5c-5.2-0.8-9.2-2.4-9.2-2.4s-2.7-2.9-1.4-9.3c0.5-2.4,1.7-4.7,1.7-4.7s4.5-2,7.5-4.4
			C103.3,315.9,108.6,314.2,112.1,315.1z"/>
		<g class="st6">
			<path class="st31" d="M115.4,317.9c-3.7,0.4-8.1,1.2-7.8,1.4c0.4,0.2,4.8-0.1,8.6-0.3C116.1,318.7,115.8,318.3,115.4,317.9z"/>
			<path class="st31" d="M125.7,324c-0.3-0.4-0.7-0.7-0.7-0.7c-3.6,0.5-10.4,0.9-10.6,1.4C114.2,325.1,120.9,325.3,125.7,324z"/>
			<path class="st31" d="M119.2,328.8c-1.9,0.2-5.1,0.3-5.3,0.5c-0.2,0.2,2.9,0.7,5.6,0.5C119.4,329.3,119.2,328.8,119.2,328.8z"/>
			<path class="st31" d="M117.9,333.4c0-0.4,0-0.7,0-0.7c-2.1,0.3-4.5,0.6-4.8,0.8C112.9,333.7,115.9,333.7,117.9,333.4z"/>
		</g>
		<g class="st6">
			<g>
				<path class="st31" d="M198.5,286.2c-0.5-0.6-4.6-0.1-7.3-2.8c0,0-0.1,0.5-0.1,1.1C194.6,287.5,198.7,286.4,198.5,286.2z"/>
				<path class="st31" d="M198.4,290.2c-0.1-0.3-1.4-0.4-2.7-0.9c0,0.2,0,0.4,0,0.6C197,290.3,198.5,290.4,198.4,290.2z"/>
				<path class="st31" d="M196.9,292.3c0,0,0.2,0.6,0.4,1.1c1.2,0.2,2.5,0.2,2.5-0.1C199.8,293,198.1,292.8,196.9,292.3z"/>
			</g>
			<path class="st31" d="M200.1,281.5c0.1,0,2.9,0.2,3,0.3c0.1,0.1-2.1,0.7-4.6,0.6c0,0-0.2-0.7,0-0.7
				C198.7,281.7,200.1,281.5,200.1,281.5z"/>
		</g>
		<path class="st25" d="M194.1,274.6c0,0,2.1,0,4.2,2.3c2.1,2.3,1.7,4.6,1.7,4.6s-0.7,0.9-2,1.1c-1,0.1-2.4-0.7-2.4-0.7
			s0.2-1.8-0.7-2.7c-0.9-0.9-1.7-0.8-1.7-0.8S192,276.2,194.1,274.6z"/>
		<g class="st6">
			<g>
				<path class="st31" d="M241.2,332.9C241.2,332.9,241.2,332.9,241.2,332.9L241.2,332.9z"/>
				<path class="st31" d="M243.4,334c-0.9-0.6-2.2-1.1-2.2-1.1c-6.5-2.7-10.8-7.4-11.2-7.1c-0.3,0.2,1.3,2,4.6,4.4
					C238.7,333.2,242,333.8,243.4,334z"/>
			</g>
			<path class="st31" d="M226.7,327.9c-0.1,0.3,1.5,2.3,4.9,4.8c2.8,2,5.4,3,6.7,3.6c0-0.3-0.2-0.7-0.4-0.9c-0.7-0.5-1.6-1-1.6-1
				s-1.8-0.6-4.3-2.6C229.4,329.9,226.8,327.5,226.7,327.9z"/>
			<path class="st31" d="M232.6,337.5c0.4-0.2,0.4-0.4,0.4-0.4c-4.6-1.7-9.2-7-9.8-6.8C222.8,330.5,228,336.2,232.6,337.5z"/>
		</g>
		<path class="st17" d="M45.5,188.8c0,0-5.4-0.8-6.9,3.1c-1.4,3.8-1.2,10.7,0.6,12.8c1.8,2.2,6.6,0.7,6.6,0.7L45.5,188.8z"/>
		<path class="st3" d="M30.3,253.1c8.4,3,0,30.2,19.7,52.4c10.2,11.5,44.5,15.7,44.5,15.7s-1.4,3.7-1,8.2c0.4,4.5,3.3,7.3,3.3,7.3
			s-43.9,2.8-60.4-16.5c-16.6-19.3-16.6-36-16.6-49.8C19.8,256.7,24.3,250.9,30.3,253.1z"/>
		<path class="st32" d="M212.6,221.2c0,0,1.2-0.7,2.9-0.7c1.7,0,3.3,0.5,3.4,0.9c0.1,0.4-2.9,1.4-6.5,1.4c-3.6,0-5.7-2-5.7-2.3
			c0-0.3,1.4-0.6,3.1-0.4C211.7,220.2,212.6,221.2,212.6,221.2z"/>
		<path class="st33" d="M268.4,8.5h-40.1h-40.1h-40.1H108H67.9H27.8h-40.1V95v15c0,7.5,9,13.6,20,13.6c11.1,0,20-6.1,20-13.6
			c0,7.5,9,13.6,20,13.6c11.1,0,20-6.1,20-13.6c0,7.5,9,13.6,20,13.6c11.1,0,20-6.1,20-13.6c0,7.5,9,13.6,20,13.6
			c11.1,0,20-6.1,20-13.6c0,7.5,9,13.6,20,13.6c11.1,0,20-6.1,20-13.6c0,7.5,9,13.6,20,13.6s20.1-6.1,20.1-13.6
			c0,7.5,9,13.6,20,13.6c11.1,0,20-6.1,20-13.6c0,7.5,9,13.6,20,13.6c11.1,0,20.1-6.1,20.1-13.6V95h0V8.5H268.4z"/>
		<g class="st6">
			<path class="st34" d="M27.8,83.9v15c0,7.5,9,13.6,20,13.6c11.1,0,20-6.1,20-13.6v-15H27.8z"/>
			<path class="st34" d="M108,83.9v15c0,7.5,9,13.6,20,13.6c11.1,0,20-6.1,20-13.6v-15H108z"/>
			<path class="st34" d="M188.2,83.9v15c0,7.5,9,13.6,20,13.6s20.1-6.1,20.1-13.6v-15H188.2z"/>
			<path class="st34" d="M268.4,83.9v15c0,7.5,9,13.6,20,13.6c11.1,0,20.1-6.1,20.1-13.6v-15H268.4z"/>
		</g>
		<g class="st6">
			<rect x="-12.3" y="-2.6" class="st35" width="40.1" height="86.5"/>
			<rect x="67.9" y="-2.6" class="st35" width="40.1" height="86.5"/>
			<rect x="148.1" y="-2.6" class="st35" width="40.1" height="86.5"/>
			<rect x="228.3" y="-2.6" class="st35" width="40.1" height="86.5"/>
		</g>
		<g class="st6">
			<path class="st36" d="M-12.3,83.9v15c0,7.5,9,13.6,20,13.6c11.1,0,20-6.1,20-13.6v-15H-12.3z"/>
			<path class="st36" d="M67.9,83.9v15c0,7.5,9,13.6,20,13.6c11.1,0,20-6.1,20-13.6v-15H67.9z"/>
			<path class="st36" d="M148.1,83.9v15c0,7.5,9,13.6,20,13.6c11.1,0,20-6.1,20-13.6v-15H148.1z"/>
			<path class="st36" d="M228.3,83.9v15c0,7.5,9,13.6,20,13.6c11.1,0,20-6.1,20-13.6v-15H228.3z"/>
		</g>
		<g class="st6">
			<rect x="27.8" y="-2.6" class="st37" width="40.1" height="86.5"/>
			<rect x="108" y="-2.6" class="st37" width="40.1" height="86.5"/>
			<rect x="188.2" y="-2.6" class="st37" width="40.1" height="86.5"/>
			<rect x="268.4" y="-2.6" class="st37" width="40.1" height="86.5"/>
		</g>
		<path class="st14" d="M217,196c-0.2-0.8,2-1.3,4.4-1.4c2.4-0.1,6.3,1.8,6.3,2.1c0,0.3-3.4-1.1-6-0.5
			C218.9,197,217.1,196.6,217,196z"/>
		<path class="st14" d="M205.7,194.4c0.2-0.7-1.2-1.2-3.7-1.3c-2.5-0.1-5.8,2.1-5.6,2.4c0.1,0.3,3.2-1.4,5.9-0.8
			C204.3,195.1,205.5,195,205.7,194.4z"/>
		<path class="st28" d="M70,192.9c4-0.6,6.2,2.2,6.1,2.6c-0.1,0.3-1.6-0.7-6-0.2c-3.2,0.4-6.6-1.1-6.2-2
			C64.3,192.5,66.7,193.4,70,192.9z"/>
		<path class="st28" d="M94.8,191.4c3.5-0.2,4.8-0.9,5.2-0.1c0.2,0.4-1.1,2-4.7,2.4c-3.7,0.4-6.4,1.6-6.6,1.3
			C88.5,194.7,91,191.6,94.8,191.4z"/>
	</g>
	<path class="st38" d="M41.7,192.4c1,0,1,2.5,0.7,4.2s0,4.8-0.7,5.5c-0.8,0.7-2-2.7-2-4.9C39.7,195.1,40.6,192.5,41.7,192.4z"/>
</g>
<path class="st39" d="M41.7,192.4c1,0,1,2.5,0.7,4.2s0,4.8-0.7,5.5c-0.8,0.7-2-2.7-2-4.9C39.7,195.1,40.6,192.5,41.7,192.4z"/>
</svg>
