<?xml version="1.0" encoding="UTF-8" standalone="no"?>
<svg width="88px" height="88px" viewBox="0 0 88 88" version="1.1" xmlns="http://www.w3.org/2000/svg" xmlns:xlink="http://www.w3.org/1999/xlink">
	<!-- Generator: Sketch 46.1 (44463) - http://www.bohemiancoding.com/sketch -->
	<title>Avatars/ user_avatar_default_88</title>
	<desc>Created with Sketch.</desc>
	<defs>
		<polygon id="path-1" points="0.00011 0.6369 87.362212 0.6369 87.362212 87.9999886 0.00011 87.9999886"></polygon>
	</defs>
	<g id="Symbols" stroke="none" stroke-width="1" fill="none" fill-rule="evenodd">
		<g id="Avatars/-user_avatar_default_88">
			<g id="Page-1">
				<g id="Group-3">
					<mask id="mask-2" fill="white">
						<use xlink:href="#path-1"></use>
					</mask>
					<g id="Clip-2"></g>
					<path d="M44.00011,0.63679 C19.78911,0.54879 0.08811,20.10679 0.00011,44.31779 C0.00011,56.39579 4.90611,67.32979 12.83711,75.24979 C20.66911,83.05979 31.43811,87.91079 43.36211,87.99879 C55.37411,88.08679 66.28611,83.32379 74.23911,75.52479 C82.25811,67.68179 87.27411,56.74779 87.36101,44.63679 C87.53811,20.51379 68.12311,0.81279 44.00011,0.63679" id="Fill-1" fill="#FCFCFC" mask="url(#mask-2)"></path>
				</g>
				<g id="Group-6" transform="translate(12.000000, 51.586207)" fill="#B3B3B3">
					<path d="M62.4360947,23.9302583 C54.4461474,31.7345314 43.4819368,36.5007519 31.4113579,36.4126924 C19.4303053,36.3246329 8.60977895,31.4703529 0.740305263,23.6550723 C4.40977895,10.1159243 16.7887263,0.143185936 31.5550421,0.0551264368 C46.4097789,0.143185936 58.8550421,10.259021 62.4360947,23.9302583" id="Fill-4"></path>
				</g>
				<path d="M43.3106976,49.5621492 C52.975059,49.6684892 60.8938122,41.8292335 60.9989429,32.0537026 C61.1040737,22.2781717 53.3539677,14.2683288 43.6896063,14.1619888 C34.0252449,14.0556487 26.1064917,21.8949045 26.0013609,31.6704353 C26.0002658,31.7346824 26.0002658,31.7978219 26.0002658,31.862069 C25.9477005,41.5844298 33.6978065,49.5100869 43.3106976,49.5621492 Z" id="Fill-7" fill="#B3B3B3"></path>
			</g>
		</g>
	</g>
</svg>