<?xml version="1.0" encoding="utf-8"?>
<!-- Generator: Adobe Illustrator 19.2.0, SVG Export Plug-In . SVG Version: 6.00 Build 0)  -->
<svg version="1.1" id="Layer_1" xmlns="http://www.w3.org/2000/svg"  x="0px" y="0px"
	 viewBox="0 0 36 36" style="enable-background:new 0 0 36 36;" xml:space="preserve">
<style type="text/css">
	.st0{fill:#71BFB5;}
	.st1{fill:#FF9429;}
	.st2{fill:#FFB171;}
	.st3{opacity:0.5;fill:#FFB171;}
	.st4{fill:#FC9F59;}
	.st5{fill:#84420B;}
	.st6{opacity:0.3;fill:#633817;}
	.st7{fill:#FFE9CC;}
	.st8{opacity:0.7;fill:#FFB171;}
	.st9{fill:#BC5E1E;}
	.st10{fill:#4F260B;}
	.st11{fill:none;}
	.st12{fill:#FFB78E;}
	.st13{fill:#5C1212;}
	.st14{fill:#BF7250;}
	.st15{fill:#A81627;}
	.st16{fill:#FCE1B6;}
	.st17{fill:#8A503E;}
	.st18{fill:#1A434D;}
	.st19{fill:#9E1525;}
</style>
<path class="st1" d="M36,18c0,5.7-2.6,10.8-6.8,14c-0.4,0.4-0.9,0.7-1.3,1c-0.2,0.2-0.5,0.3-0.7,0.5c-0.4,0.2-0.7,0.4-1.1,0.6
	c-0.6,0.3-1.3,0.6-1.9,0.8h0c-1.4,0.5-2.9,0.8-4.4,1C19.1,36,18.6,36,18,36c-0.8,0-1.6,0-2.4-0.2c-0.8-0.1-1.6-0.3-2.4-0.5
	C5.6,33.3,0,26.3,0,18C0,8.1,8.1,0,18,0S36,8.1,36,18z"/>
<g>
	<path class="st12" d="M27.2,33.5c-0.4,0.2-0.7,0.4-1.1,0.6c-0.9-1.1-1.5-1.9-1.5-1.9l-0.7-1.5l-0.3-0.7l0.7,0.7
		C24.9,31.2,26,32.3,27.2,33.5z"/>
	<path class="st12" d="M16.7,29.9c0,0-0.1,0.7-0.3,1.7c-0.2,1.1-0.5,2.6-0.7,4.2c-0.8-0.1-1.6-0.3-2.4-0.5c0.6-3,1.2-5.7,1.3-6.1
		c0,0,0,0,0,0L16.7,29.9z"/>
	<path class="st13" d="M26.5,24.8c2.3-0.9,6.6-4.3,7.9-5.4c0.5-0.5,0.8-3.5,0.7-3.7c-0.1-0.2-1.5,2.5-2.1,2.1
		c-1.5-1.1-4.6-3.8-5.9-9.6C25.6,0.6,15.7,2,10.3,7c-1.4,1.3-5,0.1-5.2,2.2c-0.4,7-0.7,14.4-1.2,15c-0.4,0.5-2.3-1-2.8-1.3
		c-0.3-0.2,1.3,3.2,2.6,3.7C6.7,27.9,16.9,28.7,26.5,24.8z"/>
	<path class="st12" d="M17.1,30.4c1.1-1.9-3.5-10.2-3.5-10.2s9.1,3.4,7.3,4c-1.8,0.7-1.7,5.1,0.4,5.5L17.1,30.4z"/>
	<path class="st14" d="M13.7,24.4C9,23.4,4.5,9.9,11.4,6.7c6.9-3.2,13.1-5.6,14,1.9c0.7,6.2,5.6,7.3,2.3,12.5
		C25.3,24.7,18.4,25.3,13.7,24.4z"/>
	<path class="st12" d="M12.1,24.5c-4.7-0.9-7.9-14.8-1.1-18c6.9-3.2,13.4-6,14.3,1.5c0.7,6.2,5.7,7.3,2.3,12.9
		C25.7,24,16.9,25.4,12.1,24.5z"/>
	<path class="st13" d="M11.5,6.9c0,0,4.1,1.2,2.2,7.1c-1.7,5.4,1,8.3,2.2,11c1.2,2.6-6.3,1.6-8-0.2C6.2,22.9,4.6,11.5,5.3,7.6
		c0.4-2.2,3.6-2,3.6-2s-1.2-1.9,0-2.5c3.7-2,14.7-1.8,20.8,3C31.2,7.3,32,8.6,32,8.6s-5.5-2.4-9.3-1.3C14.8,9.6,11.5,6.9,11.5,6.9z"
		/>
	<g>
		<path class="st15" d="M18.5,19.2c0,0,1.2,0.2,2.4-0.6c3.2-2.3,5.6-2.7,5.4-2.1c-0.2,0.6-1.1,1.1-1.1,1.1s1.8,1,1.3,2.7
			c0,0-0.6,1.9-3.8,1C19.4,20.3,18.5,19.2,18.5,19.2z"/>
		<path class="st16" d="M19.5,19.6c0,0,1.9-0.6,5.9-2.2l0.5,1.8c0,0-0.1,1.1-2.6,1.4C21.4,20.7,19.5,19.6,19.5,19.6z"/>
	</g>
	<path class="st14" d="M23.7,16.2c-0.1,0,0.8-1.3,0.7-1.5c-0.1-0.3-2.4,0.3-2.2,0.2c0,0,2.3-0.8,2.6-0.6
		C25.1,14.5,23.7,16.2,23.7,16.2z"/>
	<path class="st17" d="M15,12.5c0,0,0.3-1.5,1.3-2.1c0.9-0.6,2.2,0.2,2.2,0.2s-1.7,0-2.1,0.3C16,11.2,15,12.5,15,12.5z"/>
	<path class="st17" d="M22.9,9.8c0,0,0.1-0.9,1-1.4c0.9-0.6,1.8,1.4,1.8,1.4s-1-1.1-1.7-0.8C23.6,9.1,22.9,9.8,22.9,9.8z"/>
	<g>
		<path class="st18" d="M18.3,13.3c-0.6,0.3-1,2-0.1,2.5c0.7,0.4,1.1-1.3,1-1.9C19.1,13.4,18.8,13,18.3,13.3z"/>
		<path class="st13" d="M20.1,14.3c0.2,0-0.9-1.8-2.1-1.4c-0.7,0.2-1.5,0.9-2.3,2c0,0-2.4,0-2,0.1c0.4,0.1,2.4,1.1,2.6,1.1
			c0.2,0,0.5-1.2,1.7-2.2C19.1,12.9,19.8,14.3,20.1,14.3z"/>
	</g>
	<g>
		<path class="st18" d="M24.8,11c-1,0.8-0.8,2.2-0.2,2.3C25.6,13.5,26.2,9.9,24.8,11z"/>
		<path class="st13" d="M22.8,13.4c0,0,0.7-2.6,2-2.8c1-0.2,1.8,1.1,1.8,1.1s1.3-0.9,1.3-0.8c0,0.1-1.7,2-1.8,1.8
			c-0.1-0.2-0.4-1.6-1.1-1.5C24,11.4,22.9,13.8,22.8,13.4z"/>
	</g>
	<path class="st12" d="M28,32.6c0,0.1,0,0.3-0.1,0.4c-0.2,0.2-0.5,0.3-0.7,0.5c-0.4,0.2-0.7,0.4-1.1,0.6c-0.6,0.3-1.3,0.6-1.9,0.8h0
		c-0.4,0-0.8,0-1.3-0.1c-3.7-0.4-4.7-1.4-5.4-2.3c0,0,0,0-0.1-0.1c0,0,0,0,0,0c-0.2-0.1-0.5-0.5-1-0.9c-0.8-0.8-1.9-1.8-1.9-2.3
		c0,0,0,0,0,0c0-0.1,0-0.1,0.1-0.2c0.2-0.2,1.3-0.4,2.6-0.5c0.9-0.1,1.8-0.1,2.7-0.2c1.5,0,2.7,0,3,0c0.4,0.1,2,1,3.3,1.9
		C27.1,31.1,28,32,28,32.6z"/>
	<path class="st19" d="M29.2,32c-0.4,0.4-0.9,0.7-1.3,1c-0.2,0.2-0.5,0.3-0.7,0.5c-0.4,0.2-0.7,0.4-1.1,0.6
		c-0.6,0.3-1.3,0.6-1.9,0.8h0c-1.4,0.5-2.9,0.8-4.4,1c-1.1-1.8-2-3-2.3-3.4c0,0,0,0,0,0c-0.1-0.2-0.2-0.2-0.2-0.2
		c2.6-0.8,5-1.3,6.7-1.6c0.1,0,0.3,0,0.4,0c1-0.2,1.7-0.2,1.9-0.2c0,0,0,0,0,0S28.7,31.5,29.2,32C29.2,32,29.2,32,29.2,32z"/>
</g>
<circle class="st11" cx="18" cy="18" r="18"/>
</svg>
