<svg
        xmlns="http://www.w3.org/2000/svg"
        width="36px" height="24px">
    <path fill-rule="evenodd" fill="rgb(153, 153, 153)"
          d="M16.666,17.213 C16.666,18.334 16.654,19.422 16.672,20.510 C16.679,20.973 16.679,21.455 16.802,21.893 C17.313,23.710 19.199,24.417 20.863,23.382 C22.369,22.446 23.827,21.428 25.304,20.443 C28.326,18.428 31.348,16.415 34.366,14.393 C36.562,12.922 36.543,10.729 34.319,9.282 C29.899,6.410 25.472,3.550 21.053,0.675 C20.042,0.017 19.003,-0.294 17.897,0.366 C16.833,1.000 16.509,2.029 16.547,3.238 C16.575,4.139 16.552,5.043 16.552,6.002 C15.695,6.192 14.861,6.336 14.049,6.564 C6.656,8.638 2.200,13.691 0.126,21.126 C-0.206,22.314 0.137,23.200 0.977,23.714 C1.784,24.207 2.659,24.051 3.534,23.291 C7.091,20.201 11.165,18.210 15.731,17.275 C15.888,17.243 16.048,17.229 16.208,17.215 C16.310,17.206 16.413,17.213 16.666,17.213 Z"/>
</svg>