<?xml version="1.0" encoding="utf-8"?>
<!-- Generator: Adobe Illustrator 19.2.0, SVG Export Plug-In . SVG Version: 6.00 Build 0)  -->
<svg version="1.1" id="Layer_4" xmlns="http://www.w3.org/2000/svg"  x="0px" y="0px"
	 width="110px" height="110px" viewBox="0 0 110 110" style="enable-background:new 0 0 110 110;" xml:space="preserve">
<style type="text/css">
	.st0{fill:#E4EFFF;}
	.st1{fill:#FFFFFF;}
	.st2{fill:#80C3FF;}
	.st3{opacity:0.5;}
	.st4{fill:#CAE3FF;}
	.st5{fill:#B9DAFF;}
	.st6{fill:#1C67C6;}
	.st7{fill:#FFD87D;}
	.st8{fill:#2C7ED4;}
	.st9{fill:#52A8FF;}
	.st10{opacity:0.4;}
	.st11{fill:#EBC269;}
	.st12{fill:#1462B7;}
	.st13{fill:#E0B35A;}
	.st14{fill:#FFEFBB;}
	.st15{fill:#F5E690;}
	.st16{fill:none;stroke:#CAE3FF;stroke-width:5.9639;stroke-miterlimit:10;}
	.st17{fill:#FFE271;}
	.st18{fill:#EDD059;}
	.st19{fill:none;stroke:#E4EFFF;stroke-width:1.1928;stroke-miterlimit:10;}
	.st20{fill:#FBFBFB;}
	.st21{fill:#1C67D2;}
	.st22{fill:#2C7EE0;}
	.st23{fill:#52B4FF;}
	.st24{fill:#82CFFF;}
	.st25{fill:#348AEA;}
	.st26{fill:#D6EFFF;}
	.st27{fill:none;stroke:#231F20;stroke-miterlimit:10;}
	.st28{fill:#E9E9E9;}
</style>
<g>
	<circle class="st20" cx="55" cy="55" r="55"/>
	<g>
		<g>
			<path class="st23" d="M86.6,55c-0.2,0-0.3-0.1-0.4-0.2l-8.5-13.4c-0.1-0.2-0.1-0.5,0.2-0.7c0.2-0.1,0.5-0.1,0.7,0.2L87,54.2
				c0.1,0.2,0.1,0.5-0.2,0.7C86.7,54.9,86.7,55,86.6,55z"/>
		</g>
	</g>
	<g>
		<g>
			<rect x="69" y="10.2" transform="matrix(0.8456 -0.5338 0.5338 0.8456 -4.4671 41.9568)" class="st24" width="2.5" height="37"/>
		</g>
	</g>
	<g>
		<g>
			<g>
				<rect x="50.1" y="14.7" class="st23" width="3" height="41"/>
			</g>
			<g>
				<rect x="68.1" y="14.7" class="st23" width="3" height="41"/>
			</g>
		</g>
	</g>
	<rect x="49" y="37.3" class="st24" width="5.2" height="16.5"/>
	<rect x="67" y="37.3" class="st24" width="5.2" height="16.5"/>
	<path class="st22" d="M74.3,86.1c0,3.5-2.9,6.4-6.4,6.4H31.5c-3.5,0-6.4-2.9-6.4-6.4V47.8c0-3.5,2.9-6.4,6.4-6.4h36.4
		c3.5,0,6.4,2.9,6.4,6.4V86.1z"/>
	<path class="st21" d="M74.3,86.1V47.8c0-3.5-2.9-6.4-6.4-6.4h-6.8c-3.5,0-6.4,2.9-6.4,6.4v38.3c0,3.5,2.9,6.4,6.4,6.4h6.8
		C71.4,92.5,74.3,89.6,74.3,86.1z"/>
	<path class="st21" d="M52.7,79.7V61.4c0-3.5-2.9-6.4-6.4-6.4H31.5c-3.5,0-6.4,2.9-6.4,6.4v18.3c0,3.5,2.9,6.4,6.4,6.4h14.8
		C49.9,86.1,52.7,83.2,52.7,79.7z"/>
	<path class="st22" d="M48.7,79.7V61.4c0-3.5-2.9-6.4-6.4-6.4H27.5c-3.5,0-6.4,2.9-6.4,6.4v18.3c0,3.5,2.9,6.4,6.4,6.4h14.8
		C45.9,86.1,48.7,83.2,48.7,79.7z"/>
	<path class="st21" d="M44.7,61.5c0,0.6-0.5,1.1-1.1,1.1H26.2c-0.6,0-1.1-0.5-1.1-1.1l0,0c0-0.6,0.5-1.1,1.1-1.1h17.4
		C44.2,60.4,44.7,60.9,44.7,61.5L44.7,61.5z"/>
	<path class="st23" d="M25.1,86.1L25.1,86.1c0,3.6,2.9,6.4,6.4,6.4h36.4c3.5,0,6.4-2.9,6.4-6.4v0H25.1z"/>
	<path class="st25" d="M54.7,86.1L54.7,86.1c0,3.6,2.9,6.4,6.4,6.4h6.8c3.5,0,6.4-2.9,6.4-6.4v0H54.7z"/>
	<path class="st22" d="M70.9,69.4h-4.4c-0.9,0-1.7,0.7-1.7,1.7v9.9c0,0.9,0.7,1.7,1.7,1.7h4.4c0.9,0,1.7-0.7,1.7-1.7V71
		C72.6,70.1,71.8,69.4,70.9,69.4z M71.3,79h-5.1V71h5.1V79z"/>
	<rect x="61.1" y="41.4" class="st22" width="2" height="44.7"/>
	<path class="st22" d="M50.1,10.5c-1.2,0-2.1,0.9-2.1,2.1s0.9,2.1,2.1,2.1h21v-4.2H50.1z"/>
	<circle class="st21" cx="71.1" cy="12.6" r="2.1"/>
	<g>
		<circle class="st21" cx="67.9" cy="95" r="2.6"/>
		<circle class="st21" cx="41.3" cy="95" r="2.6"/>
	</g>
	<g>
		<path class="st22" d="M59.7,94.1c0-0.9-0.7-1.6-1.6-1.6l0,0c-0.9,0-1.6,0.7-1.6,1.6V96c0,0.9,0.7,1.6,1.6,1.6l0,0
			c0.9,0,1.6-0.7,1.6-1.6V94.1z"/>
		<path class="st22" d="M33.1,94.1c0-0.9-0.7-1.6-1.6-1.6l0,0c-0.9,0-1.6,0.7-1.6,1.6V96c0,0.9,0.7,1.6,1.6,1.6l0,0
			c0.9,0,1.6-0.7,1.6-1.6V94.1z"/>
	</g>
	<polygon class="st23" points="78.7,51.2 69.4,51.2 70.5,49.5 77.6,49.5 	"/>
	<rect x="64.2" y="51.2" class="st24" width="24.7" height="14"/>
	<rect x="59.8" y="51.2" class="st20" width="4.4" height="14"/>
	<polygon class="st24" points="82,51.2 72.7,51.2 73.8,49.5 80.9,49.5 	"/>
	<g>
		<rect x="77.2" y="53" class="st20" width="4" height="10.4"/>
		<circle class="st20" cx="77.2" cy="58.2" r="5.2"/>
	</g>
	<circle class="st25" cx="81.2" cy="58.2" r="5.2"/>
	<circle class="st21" cx="81.2" cy="58.2" r="3"/>
	<rect x="64.7" y="50" class="st28" width="4.4" height="1.2"/>
	<rect x="63.6" y="50" class="st20" width="2.2" height="1.2"/>
	<rect x="66.2" y="52.8" class="st23" width="4" height="2"/>
	<g>
		<g>
			<path class="st23" d="M61.8,54.5c-0.2,0-0.5-0.2-0.5-0.4c0-0.1-1-6.1-2.1-13.6c0-0.3,0.1-0.5,0.4-0.6c0.3,0,0.5,0.1,0.6,0.4
				c1.1,7.4,2.1,13.5,2.1,13.6C62.3,54.1,62.2,54.4,61.8,54.5C61.9,54.5,61.8,54.5,61.8,54.5z"/>
		</g>
	</g>
	<g>
		<g>
			<g>
				<path class="st24" d="M58.9,43.8c-1.8-11.5-3.9-26.3-3.9-31.2h2.5c0,3.7,1.4,14.7,3.8,30.8L58.9,43.8z"/>
			</g>
			<path class="st24" d="M57.6,12.6c0-1.2,0.9-2.1,2.1-2.1h-2.5c-1.2,0-2.1,0.9-2.1,2.1s0.9,2.1,2.1,2.1h0.4V12.6z"/>
		</g>
	</g>
</g>
</svg>
