<?xml version="1.0" encoding="utf-8"?>
<!-- Generator: Adobe Illustrator 19.2.0, SVG Export Plug-In . SVG Version: 6.00 Build 0)  -->
<svg version="1.1" id="Layer_4" xmlns="http://www.w3.org/2000/svg"  x="0px" y="0px"
	 width="110px" height="110px" viewBox="0 0 110 110" style="enable-background:new 0 0 110 110;" xml:space="preserve">
<style type="text/css">
	.st0{fill:#E4EFFF;}
	.st1{fill:#FFFFFF;}
	.st2{fill:#80C3FF;}
	.st3{opacity:0.5;}
	.st4{fill:#CAE3FF;}
	.st5{fill:#B9DAFF;}
	.st6{fill:#1C67C6;}
	.st7{fill:#FFD87D;}
	.st8{fill:#2C7ED4;}
	.st9{fill:#52A8FF;}
	.st10{opacity:0.4;}
	.st11{fill:#EBC269;}
	.st12{fill:#1462B7;}
	.st13{fill:#E0B35A;}
	.st14{fill:#FFEFBB;}
	.st15{fill:#F5E690;}
	.st16{fill:none;stroke:#CAE3FF;stroke-width:5.9639;stroke-miterlimit:10;}
	.st17{fill:#FFE271;}
	.st18{fill:#EDD059;}
	.st19{fill:none;stroke:#E4EFFF;stroke-width:1.1928;stroke-miterlimit:10;}
	.st20{fill:#FBFBFB;}
	.st21{fill:#1C67D2;}
	.st22{fill:#2C7EE0;}
	.st23{fill:#52B4FF;}
	.st24{fill:#82CFFF;}
	.st25{fill:#348AEA;}
	.st26{fill:#D6EFFF;}
	.st27{fill:none;stroke:#231F20;stroke-miterlimit:10;}
	.st28{fill:#E9E9E9;}
</style>
<g>
	<circle class="st20" cx="55" cy="55" r="55"/>
	<g>
		<g>
			<path class="st21" d="M48.1,86.9c-6.8-1.2-13.3-3.6-19.2-7.2c-2.8-1.7-5.5-3.7-8-6l0,0l-1.7-1.7c-0.8-0.8-1.6-1.7-2.3-2.6
				c-7.3-9.8-5.2-23.6,4.5-30.9l2.3,3.1c-8.1,6-9.7,17.4-3.7,25.5c0.5,0.7,1.1,1.3,1.7,1.9l0.2,0.2c2.8,2.7,5.8,5.1,9.1,7.1
				c5.5,3.3,11.5,5.6,17.9,6.7L48.1,86.9z"/>
		</g>
		<g>
			<path class="st21" d="M67.1,72.8c0.9-6.9,0.4-13.8-1.3-20.5c-0.8-3.2-2-6.4-3.4-9.4l0.1,0l-1.1-2.1c-0.5-1-1.2-2-1.9-2.9
				C52.2,28,38.4,26,28.6,33.2l2.3,3.1c8.1-6,19.5-4.3,25.5,3.7c0.5,0.7,1,1.4,1.4,2.1l0.2,0.3c1.8,3.4,3.2,7,4.2,10.7
				c1.6,6.2,2,12.6,1.2,19L67.1,72.8z"/>
		</g>
	</g>
	<path class="st22" d="M27,31.1l-7.3,5.4c-11,8.2-13.2,23.7-5.1,34.6c0.8,1,1.6,2,2.6,2.9c0,0,0.1,0.1,0.1,0.1
		c3.1,3,6.5,5.6,10.1,7.8l4.8-7.9c-3.1-1.9-6-4.1-8.6-6.7c0,0-0.1-0.1-0.1-0.1c-0.5-0.5-1-1.1-1.5-1.7c-5.1-6.9-3.7-16.6,3.2-21.8
		l7.3-5.4c6.9-5.1,16.6-3.7,21.8,3.2c0.5,0.6,0.9,1.3,1.2,1.9c0,0,0,0.1,0.1,0.1c1.7,3.2,3,6.7,3.9,10.2l8.9-2.3
		c-1.1-4.1-2.6-8.1-4.6-11.9c0-0.1-0.1-0.1-0.1-0.2c-0.6-1.1-1.3-2.3-2.1-3.3C53.5,25.2,37.9,22.9,27,31.1z"/>
	<g>
		<g>
			<g>
				<path class="st23" d="M78.9,95.3c-0.4,0-0.8,0-1.2-0.1c-2.1-0.3-4-1.5-5.3-3.2L60.2,75.7l1.6-1.2L74,90.9c1,1.3,2.4,2.2,4,2.4
					c1.6,0.2,3.2-0.2,4.5-1.1c2.7-2,3.3-5.8,1.3-8.5c-3.6-4.9-2.6-11.8,2.3-15.4c0.8-0.6,1.6-1.1,2.5-1.4l0.1,0c0.9-0.4,1.6-1.1,2-2
					c0.4-1,0.4-2,0.1-3c-0.3-0.8-1-1.5-1.8-2c-0.6-0.3-1.2-0.4-1.8-0.4c-0.7,0.1-1.4,0.5-1.8,1.1c-0.4,0.6-0.6,1.3-0.5,2l0,0
					c0.1,1.1-0.1,2.1-0.8,3c-0.7,0.9-1.6,1.4-2.7,1.5c-1.1,0.1-2.1-0.1-3-0.8c-0.9-0.7-1.4-1.6-1.5-2.7l-5.6-42.1l2-0.3l5.6,42.1
					c0.1,0.5,0.3,1,0.8,1.3c0.4,0.3,1,0.5,1.5,0.4c0.5-0.1,1-0.3,1.3-0.8c0.3-0.4,0.5-0.9,0.4-1.5l0,0c-0.2-1.3,0.2-2.5,0.9-3.5
					c0.8-1,1.9-1.7,3.2-1.8c1-0.1,2.1,0.1,3,0.6c1.2,0.7,2.2,1.8,2.7,3c0.6,1.5,0.5,3.1-0.1,4.5c-0.6,1.4-1.8,2.6-3.3,3.1l-0.2,0.1
					c-0.7,0.3-1.3,0.6-1.9,1.1c-4,2.9-4.8,8.6-1.9,12.6c2.6,3.6,1.9,8.6-1.7,11.3C82.2,94.8,80.6,95.3,78.9,95.3z"/>
			</g>
		</g>
	</g>
	<g>
		<g>
			
				<rect x="65.6" y="73.1" transform="matrix(0.8024 -0.5967 0.5967 0.8024 -36.4357 56.4771)" class="st24" width="2.9" height="20.4"/>
		</g>
	</g>
	<g>
		<g>
			
				<rect x="73.6" y="21.2" transform="matrix(0.9912 -0.1325 0.1325 0.9912 -4.9617 10.3178)" class="st24" width="2.9" height="42.4"/>
		</g>
	</g>
	<path class="st23" d="M82,54.6c0.3,2-1.1,3.8-3.1,4.1l-20.5,2.7c-2,0.3-3.8-1.1-4.1-3.1l-5.6-42.1c-0.3-2,1.1-3.8,3.1-4.1l20.5-2.7
		c2-0.3,3.8,1.1,4.1,3.1L82,54.6z"/>
	<g>
		<g>
			<g>
				<path class="st25" d="M59.8,15.1c0.1,0.5-0.3,1-0.8,1.1l0,0c-0.5,0.1-1-0.3-1.1-0.8l0,0c-0.1-0.5,0.3-1,0.8-1.1l0,0
					C59.3,14.3,59.7,14.6,59.8,15.1L59.8,15.1z"/>
			</g>
			<g>
				<path class="st25" d="M67.3,14.1c0.1,0.5-0.3,1-0.8,1.1l-4.1,0.5c-0.5,0.1-1-0.3-1.1-0.8l0,0c-0.1-0.5,0.3-1,0.8-1.1l4.1-0.5
					C66.8,13.3,67.2,13.6,67.3,14.1L67.3,14.1z"/>
			</g>
		</g>
	</g>
	<polygon class="st26" points="76.7,38.5 76.7,38.5 76.4,35.8 76.4,35.8 73.8,16.8 52.3,19.7 54.8,38.7 55.2,41.4 56.9,54.1 
		78.4,51.2 	"/>
	<path class="st25" d="M70.5,56.2c0.2,1.3-0.7,2.5-2,2.7l0,0c-1.3,0.2-2.5-0.7-2.7-2l0,0c-0.2-1.3,0.7-2.5,2-2.7l0,0
		C69.2,54,70.4,54.9,70.5,56.2L70.5,56.2z"/>
	<path class="st22" d="M54,88.4c0.7,0.9,0.5,2.1-0.4,2.8l-0.8,0.6c-0.9,0.7-2.1,0.5-2.8-0.4l-5.1-6.8c-0.7-0.9-0.5-2.1,0.4-2.8
		l0.8-0.6c0.9-0.7,2.1-0.5,2.8,0.4L54,88.4z"/>
	<path class="st22" d="M70.9,75.9c0.7,0.9,0.5,2.1-0.4,2.8l-0.8,0.6c-0.9,0.7-2.1,0.5-2.8-0.4l-5.1-6.8c-0.7-0.9-0.5-2.1,0.4-2.8
		l0.8-0.6c0.9-0.7,2.1-0.5,2.8,0.4L70.9,75.9z"/>
	<path class="st24" d="M63.2,87.4c1.4,1.8,1,4.5-0.9,5.8l-1.7,1.3c-1.8,1.4-4.5,1-5.8-0.9L44.1,79.3c-1.4-1.8-1-4.5,0.9-5.8l1.7-1.3
		c1.8-1.4,4.5-1,5.8,0.9L63.2,87.4z"/>
	<path class="st23" d="M71.7,81.2c1.4,1.8,1,4.5-0.9,5.8l-1.7,1.3c-1.8,1.4-4.5,1-5.8-0.9L52.6,73.1c-1.4-1.8-1-4.5,0.9-5.8l1.7-1.3
		c1.8-1.4,4.5-1,5.8,0.9L71.7,81.2z"/>
	<path class="st22" d="M73.5,35.3c0.3,2.4-1.4,4.7-3.8,5l-7.2,1c-2.4,0.3-4.7-1.4-5-3.8l-0.2-1.8c-0.3-2.4,1.4-4.7,3.8-5l7.2-1
		c2.4-0.3,4.7,1.4,5,3.8L73.5,35.3z"/>
	<polygon class="st1" points="68,35.1 63.7,38.1 63,33.3 	"/>
</g>
</svg>
