<?xml version="1.0" encoding="utf-8"?>
<!-- Generator: Adobe Illustrator 19.2.0, SVG Export Plug-In . SVG Version: 6.00 Build 0)  -->
<svg version="1.1" id="Layer_4" xmlns="http://www.w3.org/2000/svg"  x="0px" y="0px"
	 width="110px" height="110px" viewBox="0 0 110 110" style="enable-background:new 0 0 110 110;" xml:space="preserve">
<style type="text/css">
	.st0{fill:#E4EFFF;}
	.st1{fill:#FFFFFF;}
	.st2{fill:#80C3FF;}
	.st3{opacity:0.5;}
	.st4{fill:#CAE3FF;}
	.st5{fill:#B9DAFF;}
	.st6{fill:#1C67C6;}
	.st7{fill:#FFD87D;}
	.st8{fill:#2C7ED4;}
	.st9{fill:#52A8FF;}
	.st10{opacity:0.4;}
	.st11{fill:#EBC269;}
	.st12{fill:#1462B7;}
	.st13{fill:#E0B35A;}
	.st14{fill:#FFEFBB;}
	.st15{fill:#F5E690;}
	.st16{fill:none;stroke:#CAE3FF;stroke-width:5.9639;stroke-miterlimit:10;}
	.st17{fill:#FFE271;}
	.st18{fill:#EDD059;}
	.st19{fill:none;stroke:#E4EFFF;stroke-width:1.1928;stroke-miterlimit:10;}
	.st20{fill:#FBFBFB;}
	.st21{fill:#1C67D2;}
	.st22{fill:#2C7EE0;}
	.st23{fill:#52B4FF;}
	.st24{fill:#82CFFF;}
	.st25{fill:#348AEA;}
	.st26{fill:#D6EFFF;}
	.st27{fill:none;stroke:#231F20;stroke-miterlimit:10;}
	.st28{fill:#E9E9E9;}
</style>
<g>
	<circle class="st20" cx="55" cy="55" r="55"/>
	<polygon class="st21" points="32.2,61.4 49.9,61.4 56.9,85.8 25.2,85.8 25.2,82.1 	"/>
	<g>
		<path class="st22" d="M50.2,85.8H24.3c-0.6,0-1.1-0.3-1.4-0.7c-0.3-0.5-0.4-1-0.2-1.6l8-24.3c0.2-0.7,0.9-1.2,1.7-1.2c0,0,0,0,0,0
			c0.8,0,1.4,0.5,1.7,1.2L40.5,79c0.2,0.5,0.1,1.1-0.2,1.6c-0.3,0.5-0.9,0.7-1.4,0.7h-7.3c-1,0-1.8-0.8-1.8-1.8s0.8-1.8,1.8-1.8h4.9
			l-4.2-12.5l-5.6,17h23.5c1,0,1.8,0.8,1.8,1.8C52,85,51.2,85.8,50.2,85.8z"/>
	</g>
	<path class="st24" d="M25.8,20.1c-1.4,1.7-2.3,4-2.3,6.4c0,1.1,0.2,2.2,0.5,3.2l0,0l17.1,51.2c0.9,2.7,3.8,4.9,6.5,4.9h4.8
		L25.8,20.1z"/>
	<path class="st23" d="M91.2,80.9c0.9,2.7-0.6,4.9-3.3,4.9H51.2c-2.7,0-5.6-2.2-6.5-4.9L25.5,23.6c-0.9-2.7,0.6-4.9,3.3-4.9h36.8
		c2.7,0,5.6,2.2,6.5,4.9L91.2,80.9z"/>
	<polygon class="st1" points="87.7,75.7 44.7,75.7 29,28.8 72,28.8 	"/>
	<polygon class="st26" points="35,40.8 31,28.8 70,28.8 74,40.8 	"/>
	<g>
		<g>
			<g>
				<path class="st25" d="M45.1,24c0.2,0.7-0.1,1.3-0.9,1.3l0,0c-0.7,0-1.5-0.6-1.7-1.3l0,0c-0.2-0.7,0.1-1.3,0.9-1.3l0,0
					C44.1,22.7,44.8,23.3,45.1,24L45.1,24z"/>
			</g>
			<g>
				<path class="st25" d="M55.3,24c0.2,0.7-0.1,1.3-0.8,1.3h-5.6c-0.7,0-1.5-0.6-1.7-1.3l0,0c-0.2-0.7,0.1-1.3,0.9-1.3h5.6
					C54.3,22.7,55.1,23.3,55.3,24L55.3,24z"/>
			</g>
		</g>
	</g>
	<path class="st25" d="M71.1,80.9c0.6,1.8-0.4,3.2-2.1,3.2l0,0c-1.8,0-3.6-1.4-4.2-3.2l0,0c-0.6-1.8,0.4-3.2,2.1-3.2l0,0
		C68.6,77.8,70.5,79.2,71.1,80.9L71.1,80.9z"/>
	<polygon class="st24" points="84.8,73 77.4,50.7 54.2,50.7 61.7,73 	"/>
	<g>
		<polygon class="st1" points="67.3,62.6 65.9,58.4 77.9,58.4 79.3,62.6 		"/>
		<polygon class="st1" points="79.8,64.1 77.7,62.1 77.2,60.6 78.6,60.6 		"/>
	</g>
	<g>
		<polygon class="st22" points="69.5,68.6 62.2,68.6 61,64.9 68.3,64.9 		"/>
		<g>
			<polygon class="st22" points="58.1,56.5 56.9,52.8 65.7,52.8 66.9,56.5 			"/>
			<polygon class="st22" points="58.8,58.5 59.6,56.5 59.1,55 57.6,55 			"/>
		</g>
		<polygon class="st22" points="62.9,70.9 63.8,68.8 63.3,67.4 61.8,67.4 		"/>
	</g>
	<polygon class="st23" points="40.6,49.3 36.3,36.5 46.6,36.5 50.9,49.3 	"/>
	<g>
		<path class="st22" d="M43.7,43.4c-1.4,0-3-1.2-3.4-2.6l0,0c-0.5-1.4,0.3-2.6,1.7-2.6l0,0c1.4,0,3,1.2,3.4,2.6l0,0
			C45.9,42.2,45.2,43.4,43.7,43.4L43.7,43.4z"/>
		<path class="st22" d="M50.1,47.1c-1.5-1.6-3.6-2.6-5.6-2.6h-0.9c-2,0-3.4,1-3.8,2.6l0.8,2.2h10.3L50.1,47.1z"/>
	</g>
</g>
</svg>
