<?xml version="1.0" encoding="utf-8"?>
<!-- Generator: Adobe Illustrator 19.2.0, SVG Export Plug-In . SVG Version: 6.00 Build 0)  -->
<svg version="1.1" id="Layer_4" xmlns="http://www.w3.org/2000/svg"  x="0px" y="0px"
	 width="110px" height="110px" viewBox="0 0 110 110" style="enable-background:new 0 0 110 110;" xml:space="preserve">
<style type="text/css">
	.st0{fill:#E4EFFF;}
	.st1{fill:#FFFFFF;}
	.st2{fill:#80C3FF;}
	.st3{opacity:0.5;}
	.st4{fill:#CAE3FF;}
	.st5{fill:#B9DAFF;}
	.st6{fill:#1C67C6;}
	.st7{fill:#FFD87D;}
	.st8{fill:#2C7ED4;}
	.st9{fill:#52A8FF;}
	.st10{opacity:0.4;}
	.st11{fill:#EBC269;}
	.st12{fill:#1462B7;}
	.st13{fill:#E0B35A;}
	.st14{fill:#FFEFBB;}
	.st15{fill:#F5E690;}
	.st16{fill:none;stroke:#CAE3FF;stroke-width:5.9639;stroke-miterlimit:10;}
	.st17{fill:#FFE271;}
	.st18{fill:#EDD059;}
	.st19{fill:none;stroke:#E4EFFF;stroke-width:1.1928;stroke-miterlimit:10;}
	.st20{fill:#FBFBFB;}
	.st21{fill:#1C67D2;}
	.st22{fill:#2C7EE0;}
	.st23{fill:#52B4FF;}
	.st24{fill:#82CFFF;}
	.st25{fill:#348AEA;}
	.st26{fill:#D6EFFF;}
	.st27{fill:none;stroke:#231F20;stroke-miterlimit:10;}
	.st28{fill:#E9E9E9;}
</style>
<g>
	<circle class="st20" cx="55" cy="55" r="55"/>
	<g>
		<g>
			<g>
				<path class="st24" d="M46.7,36.7c-0.5,0-0.8-0.4-0.8-0.8V28c0-0.5,0.4-0.8,0.8-0.8c0.5,0,0.8,0.4,0.8,0.8v7.8
					C47.5,36.3,47.2,36.7,46.7,36.7z"/>
			</g>
			<g>
				<path class="st24" d="M67.8,36.7c-0.5,0-0.8-0.4-0.8-0.8V28c0-0.5,0.4-0.8,0.8-0.8c0.5,0,0.8,0.4,0.8,0.8v7.8
					C68.6,36.3,68.3,36.7,67.8,36.7z"/>
			</g>
		</g>
	</g>
	<path class="st23" d="M68.6,25.6c-3.9-1.5-8-2.3-12.1-2.3c-0.6,0-2.9,0-3.5,0c-4.2,0-8.2,0.8-12.1,2.3c-1.1,0.4-1.6,1.6-1.2,2.7
		c0.3,0.8,1.1,1.3,2,1.3c0.2,0,2.9,0,3.5,0c0.3,0,0.5,0,0.8-0.1c2.8-1.1,5.8-1.9,8.9-1.9c3,0,9.4,2.1,9.6,2.1c0.5,0,3.3,0,3.5,0
		c0.8,0,1.6-0.5,1.9-1.3C70.1,27.2,69.6,26,68.6,25.6z"/>
	<g>
		<g>
			<g>
				<path class="st24" d="M41.5,36.7c-0.5,0-0.8-0.4-0.8-0.8V28c0-0.5,0.4-0.8,0.8-0.8c0.5,0,0.8,0.4,0.8,0.8v7.8
					C42.3,36.3,42,36.7,41.5,36.7z"/>
			</g>
			<g>
				<path class="st24" d="M62.6,36.7c-0.5,0-0.8-0.4-0.8-0.8V28c0-0.5,0.4-0.8,0.8-0.8c0.5,0,0.8,0.4,0.8,0.8v7.8
					C63.5,36.3,63.1,36.7,62.6,36.7z"/>
			</g>
		</g>
	</g>
	<path class="st22" d="M26.5,34.3h-3.9c-2.9,0-5.3,2.3-5.3,5.3v39.7h5.3h10.8h51.1v-45H26.5z"/>
	<g>
		<path class="st21" d="M25.5,79.3h2.9c-0.7-4.1-4.3-7.3-8.6-7.3h-2.5v2.8h2.5C22.5,74.8,24.9,76.7,25.5,79.3z"/>
		<path class="st21" d="M68.2,79.3H71c0.7-2.6,3-4.5,5.8-4.5h7.7V72h-7.7C72.5,72,68.9,75.2,68.2,79.3z"/>
	</g>
	<path class="st22" d="M86.8,34.3h-2.3c-2.9,0-5.3,2.3-5.3,5.3v39.7H92V39.5C92,36.6,89.7,34.3,86.8,34.3z"/>
	<path class="st21" d="M84.5,34.3L84.5,34.3c-2.9,0-5.3,2.3-5.3,5.3v39.7h10.5V39.5C89.7,36.6,87.4,34.3,84.5,34.3z"/>
	<path class="st21" d="M84.5,34.3c-2.9,0-5.2,2.4-5.2,5.3v6.3c0,3-1.9,5.6-4.6,6.5c0,0,0,0,0,0L54,59.3c-1.1,0.4-2.3,0.6-3.4,0.6
		h-4.7c-1.1,0-2.3-0.2-3.4-0.6l-20.6-6.9c0,0,0,0,0,0c-2.7-0.9-4.6-3.5-4.6-6.5v6.8c1,1,2.3,1.8,3.7,2.3l0.4,0.2h0.1l20.2,6.8
		c1.4,0.5,2.8,0.7,4.3,0.7h4.7c1.5,0,2.9-0.3,4.3-0.7l20.2-6.8h0l0.4-0.2c3.9-1.3,6.5-5,6.5-9.1v-6.3c0-1.4,1.1-2.5,2.5-2.5
		L84.5,34.3L84.5,34.3z"/>
	<path class="st23" d="M52.7,57.5v-18c0-2.9,2.4-5.3,5.3-5.3h-4.8h-3.9c-2.9,0-5.3,2.3-5.3,5.3v18H52.7z"/>
	<path class="st20" d="M56.6,63.6c-0.1,1.1-1.1,2-2.2,2H42.5c-1.1,0-2.1-0.9-2.2-2l-1-8c-0.1-1.1,0.7-2,1.8-2h14.7
		c1.1,0,1.9,0.9,1.8,2L56.6,63.6z"/>
	<path class="st26" d="M54.9,63.6c-0.1,1.1-1.1,2-2.2,2H40.8c-1.1,0-2.1-0.9-2.2-2l-1-8c-0.1-1.1,0.7-2,1.8-2h14.7
		c1.1,0,1.9,0.9,1.8,2L54.9,63.6z"/>
	<g>
		<path class="st22" d="M50.9,58.6h-8.4c-0.5,0-1-0.4-1-1c0-0.5,0.4-1,1-1h8.4c0.5,0,1,0.4,1,1C51.9,58.1,51.4,58.6,50.9,58.6z"/>
	</g>
</g>
</svg>
