<svg xmlns="http://www.w3.org/2000/svg" width="14" height="18" viewBox="0 0 14 18">
    <metadata><?xpacket begin="﻿" id="W5M0MpCehiHzreSzNTczkc9d"?>
        <x:xmpmeta xmlns:x="adobe:ns:meta/" x:xmptk="Adobe XMP Core 5.6-c138 79.159824, 2016/09/14-01:09:01        ">
            <rdf:RDF xmlns:rdf="http://www.w3.org/1999/02/22-rdf-syntax-ns#">
                <rdf:Description rdf:about=""/>
            </rdf:RDF>
        </x:xmpmeta>


        <?xpacket end="w"?>
    </metadata>
    <defs>
        <style>
            .cls-1 {
            fill: #999;
            fill-rule: evenodd;
            }
        </style>
    </defs>
    <path class="cls-1"
          d="M817.668,241a0.816,0.816,0,0,1-.606-0.61,3.111,3.111,0,0,1-.038-0.348q-0.163-1.74-.326-3.479c-0.11-1.154-.226-2.306-0.336-3.46-0.133-1.392-.261-2.785-0.392-4.178-0.018-.191-0.038-0.381-0.058-0.587h12.176c-0.035.383-.067,0.755-0.1,1.127q-0.132,1.371-.265,2.743-0.151,1.583-.3,3.163-0.144,1.512-.286,3.024c-0.06.641-.112,1.283-0.181,1.923a0.72,0.72,0,0,1-.457.613l-0.156.069h-8.67Zm4.821-2.129v-0.224q0-1.712,0-3.424c0-1.534,0-3.068,0-4.6a0.165,0.165,0,0,0-.21-0.2,4.944,4.944,0,0,1-.571,0c-0.149-.01-0.2.033-0.2,0.193,0,2.072,0,4.145,0,6.217q0,0.939,0,1.879c0,0.072-.023.162,0.1,0.162h0.873Zm-2.808-.189c0-.076,0-0.123,0-0.169q-0.072-1.06-.146-2.119-0.115-1.663-.232-3.327c-0.058-.841-0.115-1.682-0.178-2.522a0.153,0.153,0,0,0-.089-0.114c-0.286-.009-0.573-0.005-0.864-0.005a0.788,0.788,0,0,0-.01.108q0.084,1.244.169,2.487,0.153,2.225.308,4.448c0.024,0.356.045,0.713,0.078,1.068a0.187,0.187,0,0,0,.1.139C819.1,238.687,819.381,238.682,819.681,238.682Zm4.639,0c0.3,0,.582,0,0.858,0,0.115,0,.112-0.078.117-0.153q0.038-.534.073-1.069c0.073-1.086.144-2.172,0.219-3.258q0.126-1.821.259-3.642c0.008-.116-0.037-0.142-0.138-0.14-0.225,0-.45.007-0.675,0-0.126,0-.155.052-0.159,0.167-0.006.228-.026,0.456-0.042,0.683q-0.132,1.882-.265,3.765-0.1,1.437-.2,2.872C824.35,238.157,824.336,238.407,824.32,238.682ZM823.91,223l0.143,0.056a0.768,0.768,0,0,1,.516.737c0,0.457,0,.914,0,1.371v0.212h1.042q1.248,0,2.5,0a0.814,0.814,0,0,1,.874.6,0.269,0.269,0,0,1,.016.068c0,0.462,0,.924,0,1.4H815c0-.47-0.016-0.927.006-1.383a0.734,0.734,0,0,1,.7-0.663c0.716-.035,1.432-0.048,2.148-0.069l1.4-.041c0.056,0,.112-0.01.182-0.017v-1.4a0.722,0.722,0,0,1,.631-0.823,0.826,0.826,0,0,0,.092-0.04h3.745Zm0.006,2.365v-0.813a0.856,0.856,0,0,0-.859-0.92c-0.7-.015-1.4-0.012-2.1,0a0.847,0.847,0,0,0-.85.645,9.864,9.864,0,0,0-.009,1.089h3.814Z"
          transform="translate(-815 -223)"/>
</svg>
