<?xml version="1.0" encoding="utf-8"?>
<!-- Generator: Adobe Illustrator 19.2.0, SVG Export Plug-In . SVG Version: 6.00 Build 0)  -->
<svg version="1.1" id="Layer_1" xmlns="http://www.w3.org/2000/svg"  x="0px" y="0px"
	 width="48px" height="48px" viewBox="263 41 48 48" style="enable-background:new 263 41 48 48;" xml:space="preserve">
<style type="text/css">
	.st0{fill:#FFFFFF;}
	.st1{fill:#368BF3;}
	.st2{fill:#B3B3B3;}
	.st3{fill:#F81400;}
	.st4{fill:#FFAE0A;}
	.st5{enable-background:new    ;}
	.st6{fill:#CD201F;}
	.st7{fill:#232323;}
	.st8{fill:#DD880C;}
	.st9{fill:#0EBE00;}
	.st10{fill:#0267C1;}
	.st11{fill:#E6392B;}
	.st12{fill:#004289;}
	.st13{fill:#E56606;}
	.st14{fill:#3F90FF;}
	.st15{fill:#0E64CC;}
	.st16{fill-rule:evenodd;clip-rule:evenodd;fill:#FFFFFF;}
</style>
<g>
	<path class="st0" d="M287,88.1c-12.7,0-23-10.3-23-23s10.3-23,23-23s23,10.3,23,23S299.7,88.1,287,88.1z"/>
	<path class="st1" d="M287,43.1c12.1,0,22,9.9,22,22s-9.9,22-22,22s-22-9.9-22-22S274.9,43.1,287,43.1 M287,41.1
		c-13.3,0-24,10.7-24,24s10.7,24,24,24s24-10.7,24-24S300.3,41.1,287,41.1L287,41.1z"/>
</g>
<g>
	<g>
		<path class="st12" d="M289.8,56h-0.6c-1.6,0-2.3,0-2.5,0.5v0.1v2h-6.3v1.1h6.3v2.5H282v1.1h9.6c-0.1,1.2-1,3-2.4,4.7
			c0,0,1.6,0.8,2.5,1.1c2-2.6,3.1-5.5,3.2-6.9h-5.2v-2.5h6.5v-1.1h-6.5V56z"/>
		<path class="st12" d="M281.7,73c-1.9,0-3.8-0.9-3.8-3.2c0-1.6,1.6-2.3,2.5-2.6c-0.9,0.1-1.9,0.5-2.5,1.1c-0.8,0.8-0.9,1.7-0.9,2.2
			c0,0.7,0.1,3.6,4.9,3.8c0,0,0,0-0.1,0c0.1,0,0.1,0,0.1,0c3.5,0,6.3-1.6,8.4-3.7c-0.8-0.4-1.6-0.9-2.4-1.3
			C286,71.4,283.7,73,281.7,73z"/>
	</g>
	<g>
		<path class="st13" d="M299.8,71.7c-1.7-0.4-5.1-1.6-7.7-2.5c-1.3-0.5-2.7-1.2-3.8-1.7c-1.6-0.7-3.1-1.1-4.5-1.5
			c-3.6-1-7.8,0.4-8,3.9c-0.3,4.7,6,4.5,6,4.5c-4.8-0.3-4.9-3.1-4.9-3.8c0-0.5,0.1-1.4,0.9-2.2s2.3-1.2,3.4-1.2
			c4.5,0,8.4,4.8,14.7,7c0,0,0.8,0,2.2-1C299.5,72.3,299.8,71.7,299.8,71.7z"/>
	</g>
</g>
</svg>
