<?xml version="1.0" encoding="utf-8"?>
<!-- Generator: Adobe Illustrator 19.2.0, SVG Export Plug-In . SVG Version: 6.00 Build 0)  -->
<svg version="1.1" id="Layer_1" xmlns="http://www.w3.org/2000/svg"  x="0px" y="0px"
	 width="48px" height="48px" viewBox="263 157 48 48" style="enable-background:new 263 157 48 48;" xml:space="preserve">
<style type="text/css">
	.st0{fill:#FFFFFF;}
	.st1{fill:#368BF3;}
	.st2{fill:#B3B3B3;}
	.st3{fill:#F81400;}
	.st4{fill:#FFAE0A;}
	.st5{enable-background:new    ;}
	.st6{fill:#CD201F;}
	.st7{fill:#232323;}
	.st8{fill:#DD880C;}
	.st9{fill:#0EBE00;}
	.st10{fill:#0267C1;}
	.st11{fill:#E6392B;}
	.st12{fill:#004289;}
	.st13{fill:#E56606;}
	.st14{fill:#3F90FF;}
	.st15{fill:#0E64CC;}
	.st16{fill-rule:evenodd;clip-rule:evenodd;fill:#FFFFFF;}
</style>
<g>
	<path class="st0" d="M287,204c-12.7,0-23-10.3-23-23s10.3-23,23-23s23,10.3,23,23S299.7,204,287,204z"/>
	<path class="st1" d="M287,159c12.1,0,22,9.9,22,22s-9.9,22-22,22s-22-9.9-22-22S274.9,159,287,159 M287,157c-13.3,0-24,10.7-24,24
		s10.7,24,24,24s24-10.7,24-24S300.3,157,287,157L287,157z"/>
</g>
<g>
	<polygon class="st3" points="279.5,177 279.2,177.1 278.3,177.9 278.4,179.2 280.2,181.8 286.1,183.5 291,183.2 293.8,181.6 
		295.8,179.8 295.7,178.1 295,177 294,177.5 292.6,179.6 289.7,180.8 286.9,181.1 283.3,180.1 280.7,178.5 	"/>
	<polyline class="st4" points="281,177.9 284.2,176.6 287.3,176.3 290.9,176.8 293.8,178.5 291.7,179.8 286.4,180.9 281.9,179.6 	
		"/>
	<g id="Layer_2_3_">
		<g>
			<path d="M281.1,182.3c0,0-0.1,0.6-0.1,1.2c0,0.3-0.1,0.7-0.1,1c0,0.2,0,0.3,0,0.4c0,0.1,0,0.2,0,0.3c0,0.2,0,0.4,0.1,0.5
				c0,0.1,0.1,0.3,0.1,0.4c0.1,0.2,0.3,0.3,0.4,0.5c0.2,0.1,0.4,0.2,0.7,0.3c0.4,0.1,0.9,0.2,1.3,0.2c0.2,0,0.3,0,0.5,0
				c0.1,0,0.2-0.1,0.3-0.1c0.2-0.1,0.3-0.2,0.4-0.3c0.1-0.1,0.1-0.2,0.1-0.3c0-0.1,0.1-0.2,0.1-0.3c0-0.5,0.1-1.2,0.1-1.7
				c0-0.5,0-0.9,0-0.9l-0.6,0c0,0,0,0,0,0.1c0,0.3,0,1.7-0.1,2.6c0,0.1,0,0.2-0.1,0.3c0,0-0.1,0.1-0.1,0.1c-0.1,0.1-0.2,0.1-0.3,0.1
				c-0.1,0-0.3,0-0.4,0c-0.4,0-0.8-0.1-1.1-0.2c-0.2-0.1-0.4-0.1-0.5-0.2c-0.1-0.1-0.2-0.1-0.2-0.2c-0.1-0.1-0.1-0.2-0.2-0.3
				c0-0.1-0.1-0.3-0.1-0.4c0-0.1,0-0.2,0-0.3c0-0.4,0.1-1.1,0.2-1.6c0-0.3,0.1-0.5,0.1-0.7c0-0.1,0-0.2,0-0.2c0,0,0-0.1,0-0.1
				L281.1,182.3z"/>
		</g>
		<path d="M285.5,173.3c-0.3,0-0.6,0.4-0.6,0.9c0,0.5,0.3,0.9,0.6,0.9s0.6-0.4,0.6-0.9C286.1,173.7,285.9,173.3,285.5,173.3z
			 M285.7,174.4c-0.1,0-0.3-0.2-0.3-0.4s0.1-0.4,0.3-0.4c0.1,0,0.3,0.2,0.3,0.4S285.8,174.4,285.7,174.4z"/>
		<path d="M288.7,174c0-0.1,0.1-0.1,0.1-0.1c0,0,0,0,0.1,0c0,0,0,0,0.1,0c0,0,0.1,0.1,0.1,0.2c0,0.1,0.1,0.2,0.1,0.4h0.5
			c0-0.3-0.1-0.6-0.2-0.8c-0.1-0.1-0.1-0.2-0.2-0.3c-0.1-0.1-0.2-0.1-0.3-0.1c-0.1,0-0.2,0-0.3,0.1c-0.1,0.1-0.2,0.3-0.3,0.4
			c-0.1,0.2-0.1,0.4-0.1,0.6h0.5C288.6,174.2,288.6,174.1,288.7,174z"/>
		<path d="M296.3,180.9c-0.2-0.3-0.4-0.5-0.6-0.7c0,0,0,0,0-0.1c0.1-0.2,0.2-0.4,0.3-0.6c0.1-0.3,0.1-0.6,0.1-0.9
			c0-0.5-0.1-0.9-0.3-1.3c-0.2-0.4-0.4-0.8-0.8-1.1l-0.3-0.3c0-0.3-0.1-0.8-0.2-1.3c-0.3-1.4-1.5-3.7-3.1-4.7
			c-1.5-1-3.4-1.4-4.4-1.4c-0.8,0-2.8,0.3-4.4,1.4c-1.5,1.1-2.9,3.3-3.1,4.7c-0.1,0.8-0.1,1.4-0.1,1.7l0,0c0,0-0.2,0-0.4,0.2
			c-0.1,0.1-0.2,0.2-0.3,0.3c-0.1,0.1-0.2,0.3-0.2,0.4c-0.1,0.3-0.1,0.4-0.1,0.5c0,0-0.1,0.1-0.1,0.2c0,0.1-0.1,0.2-0.1,0.3
			c0,0.1-0.1,0.2-0.1,0.4c0,0.1,0,0.2,0,0.3c0,0.2,0.1,0.4,0.2,0.7c0.1,0.1,0.1,0.3,0.2,0.4c-0.3,0.3-0.5,0.6-0.8,1
			c-0.8,1.2-1.8,3.5-1.6,4.8c0.2,1.6,0.4,1.7,1,1.3c0.6-0.4,1.3-1.5,1.3-1.5s0.8,2.1,2,3.2c1.5,1.3,2.8,2.1,4.4,2.4
			c1.1,0.2,1.8,0.2,2.1,0.2c0.4,0,1.1,0,2.1-0.2c1.6-0.3,3-1.1,4.4-2.4c1.3-1.1,2-3.2,2-3.2s0.7,1.1,1.3,1.5c0.6,0.3,0.8,0.3,1-1.3
			C298,184.4,297.1,182.1,296.3,180.9z M289.2,171.9c0.8,0,1.5,1,1.5,2.2s-0.7,2.2-1.5,2.2c-0.8,0-1.5-1-1.5-2.2
			C287.7,172.9,288.4,171.9,289.2,171.9z M285,171.9c0.8,0,1.5,1,1.5,2.2s-0.7,2.2-1.5,2.2c-0.8,0-1.5-1-1.5-2.2
			C283.5,172.9,284.2,171.9,285,171.9z M283.9,177.1c1-0.4,2.9-0.5,3.4-0.6l0,0c0,0,0,0,0.1,0c0,0,0.1,0,0.1,0l0,0
			c0.5,0,2.3,0.1,3.4,0.6c1.2,0.5,1.9,0.8,1.9,1.1c0,0.3-0.2,0.6-0.8,0.8c-0.6,0.3-0.9,0.2-0.9,0.2s0.3-0.4,0.4-0.8
			c0,0-1.7,1.4-3.7,1.5c0,0,0,0,0,0l0,0c0,0-0.1,0-0.1,0c0,0-0.1,0-0.1,0c0,0-0.1,0-0.1,0c0,0-0.1,0-0.1,0l0,0c0,0,0,0,0,0
			c-2-0.1-3.7-1.5-3.7-1.5c0.1,0.4,0.4,0.8,0.4,0.8s-0.3,0.1-0.9-0.2s-0.8-0.6-0.8-0.8C282.1,177.9,282.8,177.6,283.9,177.1z
			 M278.9,178.1C278.9,178.1,278.9,178.1,278.9,178.1C278.9,178.1,278.9,178.1,278.9,178.1L278.9,178.1l0.1-0.1l0-0.1
			c0,0,0,0,0.1-0.6c0-0.1,0.1-0.2,0.1-0.2c0,0,0.1-0.1,0.1-0.1c0,0.1,0.1,0.2,0.2,0.4c0.1,0.3,0.4,0.7,0.7,1.1
			c0.5,0.6,1.3,1.3,2.4,1.7c1.1,0.5,2.5,0.8,4.4,0.8c0.1,0,0.2,0,0.3,0c1.7,0,3.1-0.3,4.2-0.7c0.8-0.3,1.4-0.7,1.9-1.1
			c0.8-0.6,1.2-1.3,1.5-1.8c0.1-0.1,0.1-0.3,0.2-0.4c0.1,0.2,0.3,0.4,0.3,0.6c0.1,0.3,0.2,0.7,0.2,1.1c0,0.2,0,0.5-0.1,0.7
			c0,0.1-0.1,0.3-0.2,0.4c-0.2,0.3-0.5,0.6-0.8,1c-0.5,0.5-1.3,1-2.1,1.5c-0.8,0.4-1.8,0.8-2.7,0.9c-0.6,0.1-1.2,0.1-1.8,0.1
			c-1.2,0-2.4-0.2-3.5-0.4c-1.1-0.3-2.1-0.6-2.9-1c-1-0.5-1.6-1.1-2-1.7c-0.2-0.3-0.3-0.6-0.4-0.8c-0.1-0.2-0.1-0.4-0.2-0.6
			c0-0.1,0-0.1,0-0.1c0-0.1,0-0.2,0-0.2C278.8,178.3,278.8,178.2,278.9,178.1z M292.7,188.4c-1.6,2.1-4.7,2.5-5.7,2.6
			c-1-0.1-4.1-0.4-5.7-2.6c-1.9-2.5-1.6-5.2-1.3-6c0.1-0.2,0.1-0.4,0.2-0.5c0.3,0.2,0.5,0.4,0.9,0.5c0.8,0.4,1.9,0.8,3.1,1.1
			c1.2,0.3,2.4,0.5,3.7,0.5c0.6,0,1.3,0,1.9-0.2c1.5-0.3,3-1,4.2-1.8c0,0,0,0,0,0c0.1,0.1,0.1,0.3,0.1,0.4
			C294.2,183.1,294.6,185.8,292.7,188.4z"/>
		<path class="st4" d="M280.3,189c-0.2-0.2-0.4-0.4-0.6-0.6c-0.3,0.1-0.6,0.3-0.8,0.5c-0.3,0.3-0.4,0.7-0.2,0.7c0,0-1.3,1.3,1,2.2
			c2.3,1,4.8,0.7,6.1-0.2c0.1,0,0.1-0.1,0.2-0.1c-0.3,0-0.8-0.1-1.2-0.2C283.1,191,281.7,190.3,280.3,189z"/>
		<path class="st4" d="M289.4,191.4c-0.5,0.1-0.9,0.2-1.2,0.2c0.1,0,0.1,0.1,0.2,0.1c1.2,0.8,3.8,1.1,6.1,0.2c2.3-0.9,1-2.2,1-2.2
			c0.3-0.1,0.1-0.5-0.2-0.7c-0.2-0.2-0.5-0.4-0.8-0.5c-0.2,0.2-0.4,0.4-0.6,0.6C292.4,190.3,291,191,289.4,191.4z"/>
	</g>
</g>
</svg>
