<?xml version="1.0" encoding="utf-8"?>
<!-- Generator: Adobe Illustrator 19.2.0, SVG Export Plug-In . SVG Version: 6.00 Build 0)  -->
<svg version="1.1" id="Layer_1" xmlns="http://www.w3.org/2000/svg"  x="0px" y="0px"
	 width="48px" height="48px" viewBox="263 99 48 48" style="enable-background:new 263 99 48 48;" xml:space="preserve">
<style type="text/css">
	.st0{fill:#FFFFFF;}
	.st1{fill:#368BF3;}
	.st2{fill:#B3B3B3;}
	.st3{fill:#F81400;}
	.st4{fill:#FFAE0A;}
	.st5{enable-background:new    ;}
	.st6{fill:#CD201F;}
	.st7{fill:#232323;}
	.st8{fill:#DD880C;}
	.st9{fill:#0EBE00;}
	.st10{fill:#0267C1;}
	.st11{fill:#E6392B;}
	.st12{fill:#004289;}
	.st13{fill:#E56606;}
	.st14{fill:#3F90FF;}
	.st15{fill:#0E64CC;}
	.st16{fill-rule:evenodd;clip-rule:evenodd;fill:#FFFFFF;}
</style>
<g>
	<path class="st0" d="M287,146c-12.7,0-23-10.3-23-23c0-12.7,10.3-23,23-23s23,10.3,23,23C310,135.7,299.7,146,287,146z"/>
	<path class="st1" d="M287,101c12.1,0,22,9.9,22,22c0,12.1-9.9,22-22,22s-22-9.9-22-22C265,110.9,274.9,101,287,101 M287,99
		c-13.3,0-24,10.7-24,24c0,13.3,10.7,24,24,24s24-10.7,24-24C311,109.7,300.3,99,287,99L287,99z"/>
</g>
<g>
	<g id="Shape_2_8_" class="st5">
		<g id="Shape_2_9_">
			<g>
				<path class="st10" d="M287.8,128.1C287.8,128.1,287.8,128.1,287.8,128.1C287.8,128.1,287.8,128.1,287.8,128.1
					C287.8,128.1,287.8,128.1,287.8,128.1z M280.9,123c0.1-0.4,0.2-0.7,0.2-1.1c0.1-0.3,0-0.7,0-1.1v-1.9c0-1,0-1.9,0-2.9
					c-0.2,0-0.4,0.1-0.6,0.1c-0.6,0.2-1.1,0.3-1.5,0.6c-1.9,0.9-3.2,2.5-3.8,4.7c-0.6,2.1,0,4.3,0.8,5.6c0.2,0.3,0.4,0.8,0.7,1
					c0.2,0,0.4-0.2,0.6-0.3c0.4-0.2,0.7-0.5,1-0.7c0.1-0.1,0.3-0.2,0.4-0.4C279.7,125.7,280.4,124.4,280.9,123z M287.7,128.1
					C287.7,128.1,287.7,128.1,287.7,128.1C287.7,128.1,287.7,128.1,287.7,128.1C287.7,128.1,287.7,128.1,287.7,128.1z M282.9,126.7
					c-0.1-0.3-0.3-0.6-0.4-0.9c0-0.1-0.1-0.3-0.1-0.4h0c-0.1,0.3-0.3,0.5-0.4,0.8c-0.3,0.5-0.6,0.9-0.9,1.3
					c-0.4,0.5-0.9,1.1-1.4,1.5c-0.3,0.2-0.6,0.5-0.8,0.7c0,0,0,0,0,0c0.2,0.1,0.3,0.2,0.5,0.2c0.3,0.1,0.7,0.3,1.1,0.4
					c1.3,0.3,2.9,0.3,4.1-0.1c0.3-0.1,1-0.3,1.2-0.5v0c-0.3-0.1-0.5-0.4-0.8-0.6C284.1,128.4,283.4,127.6,282.9,126.7z M300.4,121.4
					c-0.6-2.2-2-3.8-3.8-4.7c-0.5-0.2-1-0.4-1.5-0.6c-0.2-0.1-0.4-0.1-0.6-0.1c0,1,0,1.9,0,2.9v1.9c0,0.4,0,0.8,0,1.1
					c0.1,0.4,0.2,0.7,0.2,1.1c0.5,1.4,1.2,2.7,2.2,3.5c0.1,0.1,0.3,0.2,0.4,0.4c0.3,0.3,0.6,0.5,1,0.7c0.2,0.1,0.4,0.3,0.6,0.3
					c0.3-0.2,0.5-0.7,0.7-1C300.4,125.6,300.9,123.5,300.4,121.4z M294.5,127.5c-0.3-0.4-0.6-0.9-0.9-1.3c-0.1-0.3-0.3-0.5-0.4-0.8
					h0c0,0.1-0.1,0.3-0.1,0.4c-0.1,0.3-0.3,0.6-0.4,0.9c-0.5,0.9-1.2,1.7-2,2.4c-0.2,0.2-0.5,0.5-0.8,0.6v0c0.2,0.2,0.9,0.4,1.2,0.5
					c1.2,0.4,2.8,0.4,4.1,0.1c0.4-0.1,0.7-0.2,1.1-0.4c0.2-0.1,0.3-0.2,0.5-0.2c0,0,0,0,0,0c-0.3-0.2-0.6-0.5-0.8-0.7
					C295.4,128.5,294.9,128,294.5,127.5z M291.8,123.1c0.1-0.3,0.2-0.6,0.2-1c0.1-0.3,0-0.8,0-1.2v-2.2c0-0.9,0-1.9,0-2.8
					c0,0,0,0-0.1,0c-0.3,0.1-0.5,0.1-1,0.2c-0.6,0.2-1.1,0.4-1.6,0.7c-0.5,0.3-0.8,0.6-1.3,0.9c-0.2,0.1-0.3,0.3-0.5,0.5
					c0,0,0,0,0,0c0,0,0,0,0,0c0.2,0.3,0.4,0.5,0.6,0.8c0.4,0.6,0.7,1.2,0.9,1.9c0.5,1.7,0.3,3.9-0.4,5.2c-0.2,0.4-0.4,0.8-0.7,1.2
					c-0.1,0.2-0.3,0.3-0.4,0.5c0,0,0,0,0,0c0,0,0,0,0,0c0,0,0,0,0,0c0.6-0.3,1.1-0.9,1.6-1.4c0.3-0.2,0.6-0.6,0.8-0.9
					C290.9,125,291.4,124.2,291.8,123.1z M287.7,128c-0.1-0.2-0.3-0.3-0.4-0.5c-0.3-0.4-0.5-0.8-0.7-1.2c-0.7-1.4-0.9-3.5-0.4-5.2
					c0.2-0.7,0.6-1.4,0.9-1.9c0.2-0.3,0.4-0.5,0.6-0.8c0,0,0,0,0,0c0,0,0,0,0,0c-0.2-0.2-0.3-0.4-0.5-0.5c-0.4-0.3-0.8-0.7-1.3-0.9
					c-0.5-0.3-1-0.5-1.6-0.7c-0.4-0.1-0.6-0.2-1-0.2c0,0-0.1,0-0.1,0c0,0.9,0,1.9,0,2.8v2.2c0,0.4,0,0.8,0,1.2
					c0.1,0.3,0.1,0.7,0.2,1c0.4,1.1,1,2,1.6,2.8c0.2,0.3,0.5,0.6,0.8,0.9C286.6,127.2,287.1,127.7,287.7,128
					C287.7,128.1,287.7,128.1,287.7,128C287.7,128.1,287.7,128.1,287.7,128C287.7,128.1,287.7,128,287.7,128z"/>
			</g>
		</g>
	</g>
	<g id="Shape_1_8_" class="st5">
		<g id="Shape_1_9_">
			<g>
				<path class="st11" d="M289.4,121c-0.2-0.7-0.6-1.4-1-2c-0.2-0.3-0.4-0.5-0.6-0.8c0,0.3,0,9,0,9.8c0-0.8,0-9.5,0-9.8
					c-0.2,0.3-0.4,0.5-0.6,0.8c-0.4,0.6-0.8,1.2-1,2c-0.6,1.8-0.3,3.9,0.4,5.3c0.2,0.4,0.5,0.8,0.8,1.2c0.1,0.2,0.3,0.4,0.4,0.5
					c0.1-0.2,0.3-0.4,0.4-0.5c0.3-0.4,0.6-0.8,0.8-1.2C289.7,125,289.9,122.8,289.4,121z"/>
			</g>
		</g>
	</g>
</g>
</svg>
