<?xml version="1.0" encoding="utf-8"?>
<!-- Generator: Adobe Illustrator 19.2.0, SVG Export Plug-In . SVG Version: 6.00 Build 0)  -->
<svg version="1.1" id="Layer_1" xmlns="http://www.w3.org/2000/svg"  x="0px" y="0px"
	 width="48px" height="48px" viewBox="263 281 48 48" style="enable-background:new 263 281 48 48;" xml:space="preserve">
<style type="text/css">
	.st0{fill:#FFFFFF;}
	.st1{fill:#368BF3;}
	.st2{fill:#B3B3B3;}
	.st3{fill:#F81400;}
	.st4{fill:#FFAE0A;}
	.st5{enable-background:new    ;}
	.st6{fill:#CD201F;}
	.st7{fill:#232323;}
	.st8{fill:#DD880C;}
	.st9{fill:#0EBE00;}
	.st10{fill:#0267C1;}
	.st11{fill:#E6392B;}
	.st12{fill:#004289;}
	.st13{fill:#E56606;}
	.st14{fill:#3F90FF;}
	.st15{fill:#0E64CC;}
	.st16{fill-rule:evenodd;clip-rule:evenodd;fill:#FFFFFF;}
</style>
<g>
	<path class="st0" d="M287,328c-12.7,0-23-10.3-23-23s10.3-23,23-23s23,10.3,23,23S299.7,328,287,328z"/>
	<path class="st1" d="M287,283c12.1,0,22,9.9,22,22s-9.9,22-22,22s-22-9.9-22-22S274.9,283,287,283 M287,281c-13.3,0-24,10.7-24,24
		s10.7,24,24,24s24-10.7,24-24S300.3,281,287,281L287,281z"/>
</g>
<g>
	<path class="st9" d="M283.8,307.5c0.8-4.8,5.7-6.2,8.4-6c-0.7-3.4-3.9-6.3-8.6-6.4c-4.7-0.1-8.6,3.4-8.6,7.4c0,2.3,1.1,4.4,3.2,5.9
		c0,0-0.8,2.6-0.8,2.6c0,0.1,0.2,0.2,0.2,0.1s2.8-1.7,2.8-1.7c2.1,0.7,3.4,0.5,3.4,0.5C283.7,309.4,283.6,308.4,283.8,307.5z
		 M287.1,299c0.6,0,1.1,0.5,1.1,1.1c0,0.6-0.5,1.1-1.1,1.1c-0.6,0-1.1-0.5-1.1-1.1C285.9,299.5,286.4,299,287.1,299z M280.3,301.3
		c-0.6,0-1.1-0.5-1.1-1.1c0-0.6,0.5-1.1,1.1-1.1s1.1,0.5,1.1,1.1C281.4,300.8,280.9,301.3,280.3,301.3z"/>
	<path class="st9" d="M299,308.2c0-3.5-3.4-6.1-7.3-6.1c-4.1,0-7.4,2.7-7.4,6.2c0,3.5,3.1,6.4,7.4,6.4c0.9,0,2.2-0.2,3-0.6
		c0,0,2.1,1.3,2.2,1.3c0.1,0,0.2-0.1,0.2-0.2c0-0.1-0.7-2-0.7-2C298.3,311.7,299,310.2,299,308.2z M289,306.9c-0.5,0-1-0.4-1-1
		c0-0.5,0.4-1,1-1c0.5,0,1,0.4,1,1C290,306.5,289.6,306.9,289,306.9z M294.3,306.9c-0.5,0-1-0.4-1-1c0-0.5,0.4-1,1-1
		c0.5,0,1,0.4,1,1C295.3,306.5,294.8,306.9,294.3,306.9z"/>
</g>
</svg>
