<?xml version="1.0" encoding="utf-8"?>
<!-- Generator: Adobe Illustrator 19.2.0, SVG Export Plug-In . SVG Version: 6.00 Build 0)  -->
<svg version="1.1" id="Layer_1" xmlns="http://www.w3.org/2000/svg"  x="0px" y="0px"
	 width="48px" height="48px" viewBox="263 216 48 48" style="enable-background:new 263 216 48 48;" xml:space="preserve">
<style type="text/css">
	.st0{fill:#FFFFFF;}
	.st1{fill:#368BF3;}
	.st2{fill:#B3B3B3;}
	.st3{fill:#F81400;}
	.st4{fill:#FFAE0A;}
	.st5{enable-background:new    ;}
	.st6{fill:#CD201F;}
	.st7{fill:#232323;}
	.st8{fill:#DD880C;}
	.st9{fill:#0EBE00;}
	.st10{fill:#0267C1;}
	.st11{fill:#E6392B;}
	.st12{fill:#004289;}
	.st13{fill:#E56606;}
	.st14{fill:#3F90FF;}
	.st15{fill:#0E64CC;}
	.st16{fill-rule:evenodd;clip-rule:evenodd;fill:#FFFFFF;}
</style>
<g>
	<path class="st0" d="M287,263c-12.7,0-23-10.3-23-23s10.3-23,23-23s23,10.3,23,23S299.7,263,287,263z"/>
	<path class="st1" d="M287,218c12.1,0,22,9.9,22,22s-9.9,22-22,22s-22-9.9-22-22S274.9,218,287,218 M287,216c-13.3,0-24,10.7-24,24
		s10.7,24,24,24s24-10.7,24-24S300.3,216,287,216L287,216z"/>
</g>
<g>
	<g id="Shape_4_6_" class="st5">
		<g id="Shape_4_7_">
			<g>
				<path class="st0" d="M292.2,242.7c-0.3-2.6-3.7-4.4-7.8-4c-4,0.4-7.1,2.8-6.8,5.4c0.3,2.6,3.7,4.4,7.8,4
					C289.4,247.7,292.5,245.3,292.2,242.7z"/>
			</g>
		</g>
	</g>
	<g id="Shape_3_6_" class="st5">
		<g id="Shape_3_7_">
			<g>
				<path class="st6" d="M293.5,239.4c-0.3-0.1-0.6-0.2-0.4-0.6c0.4-1,0.4-1.8,0-2.4c-0.8-1.1-2.9-1.1-5.4,0c0,0-0.8,0.3-0.6-0.3
					c0.4-1.2,0.3-2.2-0.3-2.8c-1.3-1.3-4.9,0-8,3.1c-2.3,2.3-3.6,4.7-3.6,6.7c0,4,5.2,6.4,10.2,6.4c6.6,0,11-3.8,11-6.8
					C296.4,240.9,294.9,239.9,293.5,239.4z M285.4,248.1c-4,0.4-7.5-1.4-7.8-4c-0.3-2.6,2.8-5,6.8-5.4c4-0.4,7.5,1.4,7.8,4
					C292.5,245.3,289.4,247.7,285.4,248.1z"/>
			</g>
		</g>
	</g>
	<g id="Shape_2_10_" class="st5">
		<g id="Shape_2_11_">
			<g>
				<path class="st7" d="M285.8,240.6c-1.9-0.5-4.1,0.4-4.9,2.1c-0.8,1.7,0,3.6,1.9,4.2c2,0.6,4.4-0.3,5.2-2.2
					C288.8,242.9,287.8,241.1,285.8,240.6z M284.3,244.9c-0.4,0.6-1.2,0.9-1.9,0.6c-0.6-0.3-0.8-1-0.4-1.6c0.4-0.6,1.2-0.9,1.8-0.6
					C284.5,243.6,284.7,244.3,284.3,244.9z M285.6,243.3c-0.1,0.2-0.5,0.3-0.7,0.3c-0.2-0.1-0.3-0.4-0.2-0.6
					c0.1-0.2,0.4-0.3,0.7-0.2C285.6,242.8,285.7,243,285.6,243.3z"/>
			</g>
		</g>
	</g>
	<g id="Shape_1_10_" class="st5">
		<g id="Shape_1_11_">
			<g>
				<path class="st8" d="M297.6,232.2c-1.6-1.8-3.9-2.5-6-2h0c-0.5,0.1-0.8,0.6-0.7,1.1c0.1,0.5,0.6,0.8,1.1,0.7
					c1.5-0.3,3.1,0.2,4.3,1.4c1.1,1.3,1.4,3,0.9,4.6l0,0c-0.2,0.5,0.1,1,0.6,1.2c0.5,0.2,1-0.1,1.1-0.6c0,0,0,0,0,0
					C299.6,236.4,299.2,234,297.6,232.2z M292.3,233.5c-0.4,0.1-0.7,0.5-0.6,1c0.1,0.4,0.5,0.7,0.9,0.6v0c0.5-0.1,1.1,0.1,1.4,0.5
					c0.4,0.4,0.5,1,0.3,1.5h0c-0.1,0.4,0.1,0.9,0.5,1c0.4,0.1,0.9-0.1,1-0.5c0.3-1,0.1-2.2-0.6-3.1
					C294.4,233.6,293.3,233.2,292.3,233.5z"/>
			</g>
		</g>
	</g>
</g>
</svg>
