<svg xmlns="http://www.w3.org/2000/svg" width="21" height="36" viewBox="0 0 21 36">
    <metadata><?xpacket begin="﻿" id="W5M0MpCehiHzreSzNTczkc9d"?>
        <x:xmpmeta xmlns:x="adobe:ns:meta/" x:xmptk="Adobe XMP Core 5.6-c138 79.159824, 2016/09/14-01:09:01        ">
            <rdf:RDF xmlns:rdf="http://www.w3.org/1999/02/22-rdf-syntax-ns#">
                <rdf:Description rdf:about=""/>
            </rdf:RDF>
        </x:xmpmeta>


        <?xpacket end="w"?>
    </metadata>
    <defs>
        <style>
            .cls-1 {
            fill: #3289f3;
            fill-rule: evenodd;
            }
        </style>
    </defs>
    <path class="cls-1"
          d="M800.151,361c0.257,0.058.515,0.11,0.771,0.173a5.632,5.632,0,0,1,4.385,5.356q0.037,6.974,0,13.949a5.686,5.686,0,0,1-5.542,5.51,5.758,5.758,0,0,1-6.032-4.762,5.678,5.678,0,0,1-.067-0.874q-0.006-6.781,0-13.563a5.637,5.637,0,0,1,5.045-5.736A0.59,0.59,0,0,0,798.84,361h1.311Zm-9.1,36a3.661,3.661,0,0,1-.489-0.29,1.067,1.067,0,0,1-.326-1.213,1.147,1.147,0,0,1,1.12-.746q3.258,0,6.517,0H798.3v-4.163a26.919,26.919,0,0,1-2.854-.882,10.355,10.355,0,0,1-5.984-6.854,10.626,10.626,0,0,1-.455-3.119c0-1.429,0-2.858,0-4.287a1.146,1.146,0,0,1,1.167-1.216,1.162,1.162,0,0,1,1.161,1.231c0.006,1.5-.049,3,0.018,4.5a8.411,8.411,0,0,0,3.938,7.116,7.892,7.892,0,0,0,11-2.623,9.063,9.063,0,0,0,1.356-4.679c0.027-1.346,0-2.694.01-4.041a1.165,1.165,0,1,1,2.327,0c-0.012,1.662.056,3.332-.077,4.987a10.571,10.571,0,0,1-7.291,9.334c-0.62.193-1.265,0.31-1.929,0.469v4.225h6.778a1.182,1.182,0,0,1,1.327.9,1.135,1.135,0,0,1-.792,1.3,0.185,0.185,0,0,0-.046.05h-16.9Z"
          transform="translate(-789 -361)"/>
</svg>
