<svg xmlns="http://www.w3.org/2000/svg" width="14" height="24" viewBox="0 0 14 24">
    <metadata><?xpacket begin="﻿" id="W5M0MpCehiHzreSzNTczkc9d"?>
        <x:xmpmeta xmlns:x="adobe:ns:meta/" x:xmptk="Adobe XMP Core 5.6-c138 79.159824, 2016/09/14-01:09:01        ">
            <rdf:RDF xmlns:rdf="http://www.w3.org/1999/02/22-rdf-syntax-ns#">
                <rdf:Description rdf:about=""/>
            </rdf:RDF>
        </x:xmpmeta>


        <?xpacket end="w"?>
    </metadata>
    <defs>
        <style>
            .cls-1 {
            fill: #fff;
            fill-rule: evenodd;
            }
        </style>
    </defs>
    <path class="cls-1"
          d="M930.424,360c0.171,0.038.343,0.073,0.513,0.116a3.753,3.753,0,0,1,2.92,3.57q0.026,4.65,0,9.3a3.788,3.788,0,0,1-3.689,3.673,3.835,3.835,0,0,1-4.017-3.175,3.912,3.912,0,0,1-.044-0.582q0-4.522,0-9.043a3.756,3.756,0,0,1,3.359-3.824,0.414,0.414,0,0,0,.088-0.035h0.872Zm-6.062,24a2.553,2.553,0,0,1-.325-0.193A0.712,0.712,0,0,1,923.82,383a0.762,0.762,0,0,1,.745-0.5q2.17,0,4.339,0h0.285v-2.775a18.1,18.1,0,0,1-1.9-.588,6.9,6.9,0,0,1-3.984-4.569,7.114,7.114,0,0,1-.3-2.08c0-.953,0-1.9,0-2.858a0.764,0.764,0,0,1,.777-0.811,0.775,0.775,0,0,1,.773.821c0,1-.033,2,0.012,3a5.61,5.61,0,0,0,2.622,4.744,5.25,5.25,0,0,0,7.321-1.749,6.044,6.044,0,0,0,.9-3.119c0.018-.9,0-1.8.007-2.694a0.776,0.776,0,1,1,1.549,0c-0.008,1.109.037,2.222-.051,3.325a7.045,7.045,0,0,1-4.855,6.223c-0.412.128-.842,0.206-1.284,0.313V382.5h4.513a0.786,0.786,0,0,1,.883.6,0.756,0.756,0,0,1-.527.866,0.138,0.138,0,0,0-.03.033H924.362Z"
          transform="translate(-923 -360)"/>
</svg>
