<?xml version="1.0" encoding="utf-8"?>
<!-- Generator: Adobe Illustrator 18.0.0, SVG Export Plug-In . SVG Version: 6.00 Build 0)  -->
<!DOCTYPE svg PUBLIC "-//W3C//DTD SVG 1.1//EN" "http://www.w3.org/Graphics/SVG/1.1/DTD/svg11.dtd">
<svg version="1.1" id="Layer_1" xmlns="http://www.w3.org/2000/svg"  x="0px" y="0px"
	 viewBox="0 0 19 19" enable-background="new 0 0 19 19" xml:space="preserve">
<circle fill="#C50403" cx="9.5" cy="9.5" r="9.5"/>
<g>
	<polygon fill="#FDDF01" points="6,5.7 6.8,8.2 9.5,8.2 7.4,9.9 8.1,12.3 6,10.9 3.8,12.3 4.6,9.9 2.5,8.2 5.1,8.2 	"/>
	<polygon fill="#FDDF01" points="15.4,10.4 15.7,11.1 16.5,11.1 15.9,11.6 16.1,12.4 15.4,11.9 14.8,12.4 15,11.6 14.4,11.1 
		15.2,11.1 	"/>
	<polygon fill="#FDDF01" points="16.1,6.8 15.8,7.6 16.5,8.1 15.7,8.1 15.4,8.9 15.1,8.1 14.3,8.1 15,7.6 14.7,6.8 15.4,7.3 	"/>
	<polygon fill="#FDDF01" points="12.8,3.1 12.8,4 13.6,4.2 12.8,4.5 12.9,5.3 12.3,4.7 11.6,4.9 12,4.3 11.5,3.6 12.3,3.8 	"/>
	<polygon fill="#FDDF01" points="13.2,13.9 13,14.7 13.6,15.1 12.8,15.2 12.6,15.9 12.3,15.2 11.5,15.1 12.1,14.6 11.9,13.9 
		12.6,14.3 	"/>
</g>
</svg>
