<?xml version="1.0" encoding="utf-8"?>
<!-- Generator: Adobe Illustrator 18.0.0, SVG Export Plug-In . SVG Version: 6.00 Build 0)  -->
<!DOCTYPE svg PUBLIC "-//W3C//DTD SVG 1.1//EN" "http://www.w3.org/Graphics/SVG/1.1/DTD/svg11.dtd">
<svg version="1.1" id="Layer_1" xmlns="http://www.w3.org/2000/svg"  x="0px" y="0px"
	 viewBox="0 0 19 19" enable-background="new 0 0 19 19" xml:space="preserve">
<g>
	<path fill="#C50403" d="M19,9.5c0,1.1-0.2,2.2-0.5,3.2c-1.3,3.7-4.8,6.3-9,6.3c-4.1,0-7.6-2.6-9-6.3C0.2,11.7,0,10.6,0,9.5
		s0.2-2.2,0.5-3.2C1.8,2.6,5.3,0,9.5,0c4.1,0,7.6,2.6,9,6.3C18.8,7.3,19,8.4,19,9.5z"/>
	<g>
		<path fill="#1585FF" d="M19,9.5c0,1.1-0.2,2.2-0.5,3.2H0.5C0.2,11.7,0,10.6,0,9.5s0.2-2.2,0.5-3.2h17.9C18.8,7.3,19,8.4,19,9.5z"
			/>
		<path fill="#C50403" d="M18.4,12.7c-1.3,3.7-4.8,6.3-9,6.3c-4.1,0-7.6-2.6-9-6.3H18.4z"/>
		<path fill="#FFFFFF" d="M18.4,6.3H0.5C1.8,2.6,5.3,0,9.5,0C13.6,0,17.1,2.6,18.4,6.3z"/>
	</g>
</g>
</svg>
