<svg
        xmlns="http://www.w3.org/2000/svg"
        width="128px" height="128px">
    <path fill-rule="evenodd" fill="rgb(108, 186, 116)"
          d="M64.000,-0.000 C99.346,-0.000 128.000,28.654 128.000,64.000 C128.000,99.346 99.346,128.000 64.000,128.000 C28.654,128.000 -0.000,99.346 -0.000,64.000 C-0.000,28.654 28.654,-0.000 64.000,-0.000 Z"/>
    <path fill-rule="evenodd" fill="rgb(44, 154, 56)"
          d="M47.207,77.232 C45.745,75.942 44.477,74.881 43.288,73.738 C42.948,73.412 42.643,72.845 42.650,72.393 C42.704,69.056 42.841,65.720 42.953,62.383 C42.978,61.654 43.060,60.922 43.027,60.196 C42.944,58.382 42.481,57.067 40.711,55.813 C35.998,52.473 33.681,47.585 33.522,41.781 C33.465,39.700 34.425,38.045 36.371,37.156 C37.030,36.855 37.157,36.501 37.123,35.844 C36.931,32.161 36.701,28.476 36.649,24.789 C36.613,22.235 37.141,19.744 38.334,17.444 C39.389,15.409 40.987,14.010 43.172,13.255 C43.545,13.126 44.006,12.674 44.069,12.310 C44.470,9.976 45.819,8.333 47.700,7.058 C50.860,4.917 54.450,3.948 58.161,3.448 C64.353,2.615 70.515,2.775 76.491,4.784 C78.285,5.387 80.008,6.317 81.617,7.331 C83.390,8.447 84.574,10.098 84.902,12.268 C84.948,12.575 85.216,13.015 85.475,13.098 C89.972,14.538 91.751,18.084 92.080,22.327 C92.382,26.213 92.077,30.148 92.031,34.061 C92.026,34.444 91.987,34.832 91.914,35.207 C91.709,36.268 92.003,36.885 93.078,37.420 C94.803,38.279 95.595,39.954 95.482,41.835 C95.101,48.203 92.580,53.388 86.928,56.760 C86.655,56.923 86.371,57.325 86.357,57.628 C86.262,59.727 86.190,61.830 86.202,63.931 C86.218,66.846 86.333,69.762 86.347,72.677 C86.349,73.024 86.052,73.448 85.773,73.706 C84.534,74.851 83.251,75.949 81.818,77.209 C84.050,78.581 86.080,80.146 88.354,81.167 C96.261,84.719 104.247,88.094 112.217,91.503 C113.305,91.968 113.916,92.627 114.147,93.831 C114.943,97.974 115.875,102.092 116.665,106.237 C116.923,107.588 116.938,108.990 117.003,110.372 C117.076,111.919 116.478,112.507 114.916,112.615 C110.859,112.897 106.756,112.913 102.756,113.559 C97.162,114.461 91.618,115.726 86.101,117.040 C77.621,119.061 69.091,120.411 60.337,119.896 C54.103,119.529 48.024,118.273 41.983,116.791 C35.573,115.219 29.153,113.681 22.567,113.057 C19.817,112.797 17.047,112.748 14.285,112.613 C12.461,112.525 11.942,111.932 12.000,110.094 C12.183,104.283 13.663,98.705 15.078,93.123 C15.231,92.518 16.004,91.893 16.638,91.615 C24.508,88.167 32.438,84.854 40.275,81.335 C42.661,80.264 44.812,78.669 47.207,77.232 ZM80.479,67.861 C79.858,66.945 79.305,66.251 78.886,65.485 C77.920,63.722 77.271,61.926 78.592,60.005 C78.910,59.542 79.086,58.960 79.239,58.409 C80.293,54.626 82.253,51.364 84.905,48.505 C86.394,46.901 86.792,44.924 86.839,42.859 C86.880,41.055 87.204,39.294 85.683,37.634 C84.786,36.656 84.645,34.892 84.385,33.441 C83.975,31.149 84.154,28.670 83.355,26.546 C82.016,22.990 80.466,22.545 77.068,23.495 C76.479,23.660 75.900,23.881 75.344,24.138 C73.847,24.829 72.365,25.552 70.878,26.264 C66.623,28.304 62.373,28.276 58.115,26.259 C56.244,25.374 54.406,24.385 52.465,23.689 C48.594,22.301 46.844,23.118 45.297,27.290 C45.191,27.576 45.108,27.881 45.081,28.183 C44.924,29.943 44.777,31.703 44.646,33.465 C44.522,35.142 44.287,36.893 43.078,38.058 C42.073,39.027 42.155,40.034 42.112,41.157 C41.982,44.478 42.767,47.396 45.196,49.879 C47.110,51.837 48.420,54.253 49.238,56.913 C49.609,58.121 50.000,59.359 50.625,60.442 C51.391,61.768 51.292,62.995 50.667,64.245 C50.063,65.455 49.361,66.615 48.662,67.870 C50.590,67.724 52.120,66.916 53.012,65.241 C54.748,61.986 56.922,59.271 60.690,58.336 C60.079,56.123 60.814,55.232 63.032,55.332 C63.950,55.374 64.874,55.395 65.791,55.346 C68.195,55.217 68.900,56.009 68.402,58.048 C69.855,58.939 71.415,59.601 72.580,60.688 C73.817,61.841 74.795,63.327 75.674,64.794 C76.763,66.613 78.185,67.712 80.479,67.861 ZM61.450,94.200 C55.923,91.495 50.545,88.719 48.408,82.347 C45.251,86.601 46.264,97.195 50.257,102.094 C52.057,100.731 53.824,99.318 55.668,98.018 C57.539,96.698 59.487,95.489 61.450,94.200 ZM78.876,102.031 C82.896,95.661 83.759,85.438 80.560,82.422 C78.438,88.751 73.052,91.497 67.680,94.140 C71.379,96.747 75.097,99.368 78.876,102.031 ZM77.178,80.967 C77.074,80.819 76.970,80.672 76.865,80.524 C68.620,86.405 60.373,86.342 52.043,80.490 C51.996,82.559 52.855,83.853 53.933,85.014 C56.135,87.387 58.883,88.961 61.746,90.409 C63.659,91.376 65.428,91.475 67.264,90.373 C69.102,89.271 71.029,88.297 72.759,87.047 C73.981,86.163 75.053,84.999 75.974,83.793 C76.577,83.005 76.791,81.919 77.178,80.967 ZM70.822,114.259 C72.741,110.982 74.518,107.948 76.380,104.768 C74.138,103.078 71.946,101.426 69.704,99.737 C69.126,100.696 68.500,101.463 68.183,102.341 C67.906,103.106 67.755,104.052 67.944,104.821 C68.354,106.488 69.052,108.081 69.567,109.725 C70.007,111.132 70.358,112.567 70.822,114.259 ZM58.137,114.088 C58.302,113.722 58.395,113.559 58.451,113.383 C59.373,110.470 60.313,107.561 61.187,104.633 C61.344,104.107 61.409,103.408 61.191,102.943 C60.682,101.860 59.975,100.870 59.282,99.734 C57.035,101.431 54.874,103.063 52.662,104.734 C54.516,107.901 56.287,110.927 58.137,114.088 ZM56.377,66.351 C56.694,66.801 56.900,67.176 57.183,67.480 C58.087,68.449 59.081,69.456 60.533,68.989 C62.031,68.509 61.951,67.103 62.047,65.819 C62.086,65.301 62.302,64.611 62.680,64.341 C63.721,63.597 64.939,63.687 66.086,64.154 C67.061,64.552 66.997,65.458 66.991,66.320 C66.988,66.698 67.032,67.091 67.136,67.454 C67.576,68.986 68.787,69.596 70.140,68.780 C71.104,68.198 71.872,67.291 72.781,66.482 C70.481,64.442 68.490,62.538 65.762,61.827 C64.960,61.619 64.010,61.618 63.211,61.832 C60.492,62.560 58.504,64.459 56.377,66.351 ZM80.569,11.791 C78.921,13.770 76.767,14.599 74.636,15.471 C73.146,16.081 71.603,16.596 70.193,17.354 C69.030,17.979 67.924,18.796 66.979,19.720 C66.002,20.676 65.636,21.963 65.870,23.127 C67.452,21.990 68.982,20.726 70.668,19.728 C72.111,18.875 73.751,18.365 75.270,17.632 C76.680,16.950 78.108,16.269 79.412,15.410 C80.584,14.637 81.095,13.451 80.569,11.791 ZM87.346,51.633 C87.474,51.672 87.603,51.711 87.732,51.750 C89.865,49.524 91.197,46.876 91.733,43.827 C91.865,43.078 92.039,42.265 91.870,41.559 C91.750,41.059 91.156,40.485 90.648,40.312 C89.948,40.073 89.728,40.767 89.587,41.353 C89.490,41.761 89.347,42.160 89.260,42.570 C88.617,45.590 87.983,48.612 87.346,51.633 ZM41.258,51.737 C41.410,51.697 41.562,51.657 41.715,51.618 C40.899,48.039 40.106,44.455 39.225,40.894 C39.157,40.616 38.216,40.238 38.114,40.341 C37.674,40.782 37.091,41.393 37.106,41.928 C37.215,45.725 38.676,48.985 41.258,51.737 Z"/>
</svg>