<svg
        xmlns="http://www.w3.org/2000/svg"
        width="128px" height="128px">
    <path fill-rule="evenodd" fill="rgb(57, 136, 234)"
          d="M64.000,-0.000 C99.346,-0.000 128.000,28.654 128.000,64.000 C128.000,99.346 99.346,128.000 64.000,128.000 C28.654,128.000 -0.000,99.346 -0.000,64.000 C-0.000,28.654 28.654,-0.000 64.000,-0.000 Z"/>
    <path fill-rule="evenodd" fill="rgb(0, 85, 190)"
          d="M114.312,87.266 C114.312,88.240 114.312,89.119 114.312,89.999 C114.312,90.885 114.345,91.774 114.303,92.658 C114.248,93.796 113.524,94.477 112.485,94.444 C111.492,94.413 110.844,93.732 110.813,92.631 C110.788,91.710 110.811,90.787 110.811,89.865 C110.811,87.109 110.811,87.139 108.050,87.174 C107.243,87.184 107.005,87.458 107.032,88.231 C107.081,89.613 107.068,90.997 107.039,92.380 C107.011,93.732 106.379,94.439 105.270,94.440 C104.145,94.440 103.571,93.750 103.564,92.365 C103.556,90.946 103.534,89.527 103.572,88.109 C103.591,87.409 103.325,87.129 102.643,87.193 C102.433,87.212 102.218,87.193 102.005,87.189 C100.505,87.163 99.944,86.616 99.938,85.148 C99.931,83.410 99.913,81.672 99.943,79.935 C100.003,76.441 101.495,73.514 104.669,72.241 C107.118,71.260 107.468,69.862 107.191,67.732 C107.159,67.488 107.193,67.236 107.177,66.988 C106.989,64.126 104.677,61.886 101.815,61.823 C100.362,61.792 98.907,61.813 97.453,61.812 C96.085,61.811 96.086,61.812 96.086,63.223 C96.084,68.862 96.121,74.501 96.066,80.139 C96.027,84.159 92.949,87.151 88.942,87.185 C86.885,87.202 84.827,87.228 82.771,87.173 C81.863,87.148 81.525,87.397 81.543,88.361 C81.599,91.374 81.588,94.390 81.546,97.404 C81.535,98.195 81.791,98.467 82.570,98.648 C88.597,100.046 92.458,104.980 92.454,111.183 C92.452,113.276 92.397,115.370 92.472,117.460 C92.514,118.606 92.206,119.458 91.176,120.000 C83.654,120.000 76.131,120.000 68.609,120.000 C67.512,119.487 67.125,118.629 67.166,117.427 C67.234,115.443 67.185,113.455 67.184,111.468 C67.182,104.988 70.970,100.123 77.257,98.615 C77.919,98.456 78.132,98.208 78.129,97.574 C78.113,94.453 78.104,91.331 78.135,88.210 C78.142,87.424 77.873,87.178 77.085,87.180 C69.246,87.203 61.406,87.201 53.567,87.176 C52.788,87.174 52.517,87.393 52.528,88.199 C52.569,91.285 52.568,94.371 52.527,97.457 C52.518,98.201 52.741,98.456 53.482,98.634 C58.911,99.933 62.586,103.857 63.253,109.365 C63.570,111.990 63.353,114.675 63.461,117.330 C63.512,118.566 63.168,119.475 62.010,120.000 C54.488,120.000 46.965,120.000 39.443,120.000 C38.434,119.444 38.111,118.607 38.153,117.453 C38.238,115.116 38.176,112.774 38.193,110.434 C38.197,109.906 38.224,109.367 38.328,108.851 C39.437,103.365 42.768,99.978 48.157,98.619 C48.857,98.443 49.079,98.201 49.073,97.509 C49.045,94.389 49.042,91.269 49.075,88.149 C49.083,87.394 48.817,87.171 48.085,87.182 C45.888,87.216 43.687,87.237 41.492,87.161 C40.626,87.131 39.706,86.974 38.922,86.625 C36.151,85.395 34.586,83.241 34.561,80.162 C34.516,74.596 34.548,69.029 34.541,63.463 C34.540,62.944 34.488,62.425 34.454,61.812 C33.964,61.812 33.579,61.812 33.194,61.812 C30.641,61.812 28.087,61.849 25.535,61.803 C21.094,61.724 17.554,59.034 16.629,54.856 C16.282,53.289 16.345,51.618 16.340,49.994 C16.337,49.186 16.106,48.861 15.319,48.595 C11.996,47.473 9.973,45.142 9.243,41.699 C9.194,41.465 9.083,41.244 9.000,41.018 C9.000,38.747 9.000,36.476 9.000,34.205 C9.694,32.523 11.294,33.040 12.572,32.813 C12.617,32.610 12.672,32.476 12.673,32.341 C12.683,30.709 12.650,29.077 12.700,27.446 C12.734,26.303 13.481,25.622 14.520,25.656 C15.517,25.689 16.150,26.362 16.181,27.479 C16.207,28.401 16.190,29.324 16.188,30.246 C16.182,32.966 16.181,32.940 18.871,32.925 C19.679,32.921 20.008,32.707 19.969,31.840 C19.903,30.389 19.915,28.931 19.968,27.478 C20.012,26.299 20.720,25.633 21.756,25.655 C22.797,25.678 23.419,26.368 23.433,27.555 C23.448,28.797 23.441,30.039 23.438,31.280 C23.434,32.873 23.432,32.873 25.029,32.905 C26.493,32.934 27.051,33.496 27.064,34.997 C27.077,36.487 27.066,37.977 27.069,39.467 C27.078,44.126 24.932,47.148 20.557,48.729 C20.240,48.843 19.872,49.319 19.846,49.652 C19.760,50.780 19.780,51.921 19.825,53.055 C19.939,55.874 22.318,58.252 25.129,58.293 C28.356,58.340 31.585,58.320 34.813,58.288 C35.139,58.284 35.579,58.077 35.769,57.819 C37.445,55.540 39.691,54.600 42.488,54.667 C45.573,54.740 48.660,54.701 51.746,54.663 C52.059,54.659 52.617,54.344 52.636,54.136 C52.728,53.098 52.678,52.046 52.678,50.818 C51.139,50.818 49.758,50.894 48.387,50.803 C45.589,50.617 43.494,49.190 42.488,46.619 C41.941,45.223 41.905,43.592 41.828,42.058 C41.725,40.020 41.804,40.016 39.728,39.950 C36.843,39.859 34.622,37.687 34.566,34.802 C34.515,32.214 34.510,29.622 34.573,27.034 C34.636,24.504 36.509,22.457 39.011,22.090 C39.905,21.959 40.813,21.926 41.815,21.839 C41.815,20.514 41.796,19.278 41.819,18.043 C41.878,14.787 44.208,11.961 47.381,11.260 C47.650,11.200 47.908,11.088 48.172,11.000 C59.597,11.000 71.022,11.000 82.447,11.000 C82.677,11.083 82.902,11.188 83.138,11.244 C86.159,11.968 88.032,13.871 88.694,16.872 C88.919,17.891 88.805,18.988 88.819,20.051 C88.843,21.885 88.835,21.885 90.654,21.953 C93.853,22.072 96.038,24.258 96.077,27.431 C96.108,29.842 96.122,32.254 96.081,34.664 C96.038,37.190 94.468,39.202 92.088,39.793 C91.447,39.953 90.749,39.981 90.086,39.937 C89.143,39.875 88.686,40.144 88.807,41.173 C88.881,41.802 88.771,42.452 88.826,43.085 C89.187,47.206 85.934,51.135 81.016,50.876 C80.036,50.824 79.050,50.869 77.939,50.869 C77.939,51.872 77.990,52.718 77.924,53.554 C77.856,54.424 78.139,54.721 79.043,54.706 C82.233,54.655 85.425,54.703 88.616,54.676 C91.177,54.655 93.191,55.667 94.765,57.677 C95.020,58.002 95.552,58.269 95.966,58.283 C97.843,58.347 99.723,58.307 101.603,58.310 C105.720,58.317 109.318,60.971 110.275,64.966 C110.664,66.591 110.624,68.334 110.653,70.025 C110.667,70.861 110.885,71.244 111.715,71.515 C114.809,72.527 116.752,74.686 117.634,77.809 C117.758,78.247 117.878,78.686 118.000,79.125 C118.000,81.396 118.000,83.667 118.000,85.937 C117.249,87.523 115.708,87.122 114.312,87.266 ZM23.547,40.556 C23.627,39.461 23.576,38.358 23.629,37.260 C23.666,36.503 23.334,36.278 22.617,36.309 C21.590,36.355 20.560,36.318 19.531,36.318 C17.269,36.317 15.006,36.318 12.591,36.318 C12.591,37.925 12.482,39.349 12.615,40.750 C12.882,43.573 15.356,45.608 18.286,45.555 C21.040,45.504 23.344,43.340 23.547,40.556 ZM41.806,31.010 C41.806,30.229 41.806,29.449 41.807,28.669 C41.807,27.888 41.844,27.105 41.788,26.329 C41.767,26.034 41.597,25.576 41.382,25.496 C39.559,24.818 37.968,25.938 37.956,27.869 C37.944,29.820 37.959,31.771 37.954,33.722 C37.948,35.900 38.665,36.576 40.816,36.562 C41.639,36.557 41.844,36.234 41.822,35.479 C41.778,33.990 41.809,32.500 41.806,31.010 ZM88.820,30.896 C88.820,32.487 88.798,34.078 88.839,35.668 C88.847,35.952 89.049,36.404 89.267,36.482 C91.102,37.138 92.658,36.024 92.670,34.088 C92.682,32.144 92.678,30.200 92.679,28.256 C92.681,26.007 92.006,25.384 89.745,25.423 C89.066,25.435 88.794,25.639 88.809,26.337 C88.843,27.856 88.820,29.376 88.820,30.896 ZM71.003,108.719 C70.547,111.188 70.703,113.770 70.581,116.371 C71.977,116.371 73.128,116.371 74.472,116.371 C74.472,115.054 74.409,113.849 74.491,112.653 C74.567,111.560 75.323,110.977 76.349,111.043 C77.305,111.106 77.898,111.766 77.937,112.818 C77.946,113.066 77.938,113.315 77.937,113.563 C77.934,116.569 77.933,116.547 80.923,116.450 C81.593,116.428 81.789,116.175 81.773,115.566 C81.750,114.680 81.745,113.792 81.770,112.907 C81.805,111.711 82.440,111.034 83.479,111.031 C84.516,111.028 85.159,111.715 85.186,112.899 C85.207,113.821 85.205,114.744 85.187,115.666 C85.177,116.185 85.337,116.460 85.914,116.438 C86.693,116.408 87.476,116.405 88.254,116.442 C88.877,116.471 89.062,116.181 89.045,115.615 C88.990,113.668 89.075,111.708 88.879,109.776 C88.426,105.290 84.780,102.021 80.120,101.764 C75.970,101.536 71.772,104.558 71.003,108.719 ZM42.536,106.939 C41.081,109.968 41.722,113.172 41.605,116.351 C42.950,116.351 44.132,116.351 45.439,116.351 C45.439,115.108 45.416,113.946 45.445,112.784 C45.476,111.540 46.393,110.821 47.580,111.090 C48.484,111.294 48.842,111.942 48.854,112.808 C48.870,113.993 48.858,115.180 48.858,116.432 C50.013,116.432 50.933,116.400 51.850,116.443 C52.517,116.474 52.717,116.197 52.695,115.569 C52.660,114.612 52.658,113.653 52.697,112.697 C52.744,111.562 53.591,110.899 54.711,111.064 C55.605,111.196 56.150,111.878 56.177,112.982 C56.204,114.100 56.183,115.220 56.183,116.371 C57.499,116.371 58.651,116.371 59.933,116.371 C59.933,114.476 59.945,112.643 59.930,110.809 C59.896,106.550 56.947,102.935 52.721,101.954 C48.683,101.017 44.367,103.127 42.536,106.939 ZM81.025,47.433 C81.449,47.432 81.882,47.434 82.294,47.350 C84.288,46.942 85.403,45.446 85.406,43.142 C85.414,35.093 85.406,27.044 85.408,18.995 C85.408,15.991 84.000,14.567 80.988,14.566 C70.493,14.563 59.997,14.564 49.501,14.566 C46.755,14.567 45.243,15.993 45.235,18.718 C45.213,26.909 45.218,35.100 45.242,43.291 C45.250,45.949 46.767,47.419 49.432,47.425 C54.715,47.438 59.998,47.429 65.282,47.429 C65.282,47.431 65.282,47.434 65.282,47.436 C70.530,47.436 75.778,47.438 81.025,47.433 ZM56.246,50.980 C56.246,52.246 56.246,53.398 56.246,54.589 C62.333,54.589 68.354,54.589 74.387,54.589 C74.387,53.333 74.387,52.176 74.387,50.980 C68.302,50.980 62.282,50.980 56.246,50.980 ZM88.198,58.181 C80.570,58.178 72.943,58.180 65.316,58.182 C57.547,58.182 49.778,58.179 42.009,58.185 C39.495,58.186 37.967,59.696 37.961,62.220 C37.946,67.967 37.943,73.714 37.964,79.461 C37.974,82.285 39.436,83.756 42.218,83.758 C57.543,83.769 72.868,83.772 88.194,83.765 C91.264,83.764 92.675,82.324 92.678,79.250 C92.683,73.716 92.676,68.182 92.680,62.648 C92.682,59.580 91.289,58.182 88.198,58.181 ZM114.426,79.935 C114.385,77.000 112.082,74.653 109.100,74.498 C106.275,74.351 103.711,76.577 103.454,79.468 C103.354,80.595 103.427,81.736 103.373,82.868 C103.340,83.580 103.651,83.791 104.318,83.778 C105.842,83.748 107.368,83.768 108.893,83.767 C110.453,83.767 112.014,83.754 113.574,83.773 C114.191,83.781 114.476,83.582 114.445,82.914 C114.398,81.923 114.440,80.928 114.426,79.935 ZM85.178,72.796 C85.127,73.826 84.476,74.448 83.489,74.452 C82.527,74.457 81.856,73.906 81.810,72.919 C81.750,71.611 81.748,70.296 81.808,68.989 C81.856,67.973 82.583,67.399 83.583,67.439 C84.512,67.476 85.127,68.087 85.177,69.076 C85.209,69.712 85.183,70.351 85.183,70.989 C85.183,71.591 85.208,72.195 85.178,72.796 ZM77.926,72.801 C77.874,73.729 77.397,74.317 76.446,74.435 C75.492,74.554 74.650,74.083 74.572,73.151 C74.450,71.685 74.447,70.193 74.577,68.728 C74.658,67.810 75.411,67.372 76.349,67.440 C77.295,67.508 77.833,68.066 77.918,68.990 C77.979,69.655 77.930,70.330 77.931,71.001 C77.932,71.601 77.959,72.203 77.926,72.801 ZM70.689,70.982 C70.689,71.582 70.717,72.184 70.682,72.782 C70.626,73.736 69.983,74.392 69.096,74.458 C68.179,74.526 67.338,74.009 67.268,73.073 C67.159,71.639 67.163,70.180 67.298,68.749 C67.386,67.811 68.221,67.337 69.170,67.452 C70.117,67.566 70.602,68.164 70.675,69.076 C70.726,69.708 70.685,70.346 70.685,70.982 C70.686,70.982 70.687,70.982 70.689,70.982 ZM57.813,76.308 C56.076,76.321 54.340,76.312 52.603,76.311 C50.866,76.311 49.129,76.322 47.392,76.307 C46.065,76.295 45.449,75.681 45.441,74.352 C45.426,72.084 45.423,69.815 45.440,67.547 C45.449,66.238 46.090,65.572 47.390,65.564 C50.864,65.544 54.338,65.544 57.811,65.566 C59.090,65.574 59.787,66.272 59.803,67.547 C59.829,69.815 59.831,72.084 59.803,74.352 C59.788,75.648 59.102,76.299 57.813,76.308 ZM56.241,69.127 C53.816,69.127 51.460,69.127 48.869,69.127 C48.869,70.005 48.913,70.814 48.857,71.615 C48.795,72.497 49.036,72.921 50.021,72.833 C50.969,72.748 51.930,72.816 52.885,72.816 C54.001,72.816 55.116,72.816 56.241,72.816 C56.241,71.486 56.241,70.336 56.241,69.127 ZM63.576,41.922 C63.514,40.688 63.519,39.447 63.577,38.212 C63.628,37.152 64.374,36.524 65.387,36.559 C66.332,36.591 66.998,37.247 67.059,38.257 C67.095,38.856 67.065,39.458 67.065,40.059 C67.065,40.660 67.092,41.262 67.059,41.861 C67.001,42.884 66.343,43.544 65.402,43.575 C64.399,43.608 63.629,42.971 63.576,41.922 ZM74.364,18.318 C78.358,18.324 81.572,21.567 81.559,25.579 C81.547,29.564 78.385,32.691 74.373,32.685 C70.417,32.680 67.203,29.482 67.185,25.534 C67.168,21.654 70.493,18.312 74.364,18.318 ZM74.342,29.238 C76.380,29.275 78.078,27.601 78.084,25.550 C78.091,23.475 76.464,21.831 74.391,21.820 C72.404,21.809 70.719,23.464 70.695,25.450 C70.670,27.527 72.281,29.201 74.342,29.238 ZM72.723,36.553 C73.611,36.601 74.247,37.254 74.301,38.221 C74.336,38.854 74.308,39.491 74.307,40.126 C74.306,40.727 74.336,41.328 74.300,41.926 C74.242,42.890 73.608,43.517 72.699,43.566 C71.759,43.617 70.968,43.109 70.898,42.162 C70.794,40.762 70.782,39.339 70.910,37.943 C70.998,36.988 71.724,36.500 72.723,36.553 ZM79.952,36.561 C80.915,36.613 81.454,37.159 81.541,38.091 C81.603,38.758 81.553,39.436 81.553,40.110 C81.554,40.748 81.599,41.390 81.543,42.023 C81.461,42.962 80.912,43.497 79.962,43.564 C79.000,43.632 78.251,43.097 78.194,42.140 C78.112,40.764 78.112,39.377 78.192,38.001 C78.247,37.042 78.989,36.509 79.952,36.561 ZM56.173,32.685 C52.264,32.687 49.065,29.503 49.064,25.608 C49.063,21.565 52.223,18.356 56.237,18.325 C60.108,18.294 63.446,21.623 63.440,25.508 C63.434,29.511 60.223,32.682 56.173,32.685 ZM56.280,21.816 C54.226,21.789 52.563,23.436 52.555,25.505 C52.547,27.592 54.171,29.236 56.240,29.234 C58.250,29.232 59.902,27.607 59.931,25.604 C59.960,23.551 58.312,21.842 56.280,21.816 ZM49.070,38.219 C49.120,37.246 49.732,36.620 50.643,36.561 C51.595,36.499 52.362,36.982 52.438,37.947 C52.549,39.345 52.550,40.764 52.445,42.163 C52.372,43.125 51.604,43.620 50.656,43.566 C49.733,43.514 49.120,42.898 49.072,41.924 C49.041,41.290 49.066,40.654 49.066,40.019 C49.065,39.419 49.040,38.818 49.070,38.219 ZM57.901,36.562 C58.884,36.499 59.673,37.036 59.750,38.039 C59.852,39.372 59.854,40.723 59.761,42.056 C59.692,43.058 58.906,43.614 57.931,43.568 C56.991,43.525 56.365,42.866 56.318,41.827 C56.291,41.229 56.313,40.627 56.314,40.027 C56.315,39.427 56.287,38.826 56.321,38.228 C56.376,37.262 57.007,36.619 57.901,36.562 Z"/>
</svg>