<?xml version="1.0" encoding="utf-8"?>
<!-- Generator: Adobe Illustrator 19.2.0, SVG Export Plug-In . SVG Version: 6.00 Build 0)  -->
<svg version="1.1" id="Layer_1" xmlns="http://www.w3.org/2000/svg"  x="0px" y="0px"
	 viewBox="99 65 24 24" style="enable-background:new 99 65 24 24;" xml:space="preserve">
<style type="text/css">
	.st0{enable-background:new    ;}
	.st1{fill:#FFFFFF;}
	.st2{fill:#CD201F;}
	.st3{fill:#232323;}
	.st4{fill:#DD880C;}
	.st5{fill:#0EBE00;}
	.st6{fill:#0267C1;}
	.st7{fill:#E6392B;}
	.st8{fill:#004289;}
	.st9{fill:#E56606;}
</style>
<g id="Shape_4_1_" class="st0">
	<g id="Shape_4">
		<g>
			<path class="st1" d="M116,79.9c-0.3-2.6-3.7-4.4-7.8-4c-4,0.4-7.1,2.8-6.8,5.4c0.3,2.6,3.7,4.4,7.8,4
				C113.2,84.9,116.3,82.5,116,79.9z"/>
		</g>
	</g>
</g>
<g id="Shape_3_1_" class="st0">
	<g id="Shape_3">
		<g>
			<path class="st2" d="M117.3,76.7c-0.3-0.1-0.6-0.2-0.4-0.6c0.4-1,0.4-1.8,0-2.4c-0.8-1.1-2.9-1.1-5.4,0c0,0-0.8,0.3-0.6-0.3
				c0.4-1.2,0.3-2.2-0.3-2.8c-1.3-1.3-4.9,0-8,3.1c-2.3,2.3-3.6,4.7-3.6,6.7c0,4,5.2,6.4,10.2,6.4c6.6,0,11-3.8,11-6.8
				C120.2,78.1,118.6,77.1,117.3,76.7z M109.2,85.3c-4,0.4-7.5-1.4-7.8-4c-0.3-2.6,2.8-5,6.8-5.4c4-0.4,7.5,1.4,7.8,4
				C116.3,82.5,113.2,84.9,109.2,85.3z"/>
		</g>
	</g>
</g>
<g id="Shape_2_1_" class="st0">
	<g id="Shape_2">
		<g>
			<path class="st3" d="M109.6,77.8c-1.9-0.5-4.1,0.4-4.9,2.1c-0.8,1.7,0,3.6,1.9,4.2c2,0.6,4.4-0.3,5.2-2.2
				C112.6,80.1,111.5,78.3,109.6,77.8z M108.1,82.1c-0.4,0.6-1.2,0.9-1.9,0.6c-0.6-0.3-0.8-1-0.4-1.6c0.4-0.6,1.2-0.9,1.8-0.6
				C108.3,80.8,108.5,81.5,108.1,82.1z M109.4,80.5c-0.1,0.2-0.5,0.3-0.7,0.3c-0.2-0.1-0.3-0.4-0.2-0.6c0.1-0.2,0.4-0.3,0.7-0.2
				C109.4,80,109.5,80.3,109.4,80.5z"/>
		</g>
	</g>
</g>
<g id="Shape_1_1_" class="st0">
	<g id="Shape_1">
		<g>
			<path class="st4" d="M121.4,69.4c-1.6-1.8-3.9-2.5-6-2h0c-0.5,0.1-0.8,0.6-0.7,1.1c0.1,0.5,0.6,0.8,1.1,0.7
				c1.5-0.3,3.1,0.2,4.3,1.4c1.1,1.3,1.4,3,0.9,4.6l0,0c-0.2,0.5,0.1,1,0.6,1.2c0.5,0.2,1-0.1,1.1-0.6c0,0,0,0,0,0
				C123.4,73.7,122.9,71.2,121.4,69.4z M116.1,70.7c-0.4,0.1-0.7,0.5-0.6,1c0.1,0.4,0.5,0.7,0.9,0.6v0c0.5-0.1,1.1,0.1,1.4,0.5
				c0.4,0.4,0.5,1,0.3,1.5h0c-0.1,0.4,0.1,0.9,0.5,1c0.4,0.1,0.9-0.1,1-0.5c0.3-1,0.1-2.2-0.6-3.1C118.2,70.8,117.1,70.5,116.1,70.7
				z"/>
		</g>
	</g>
</g>
</svg>
