<?xml version="1.0" encoding="utf-8"?>
<!-- Generator: Adobe Illustrator 19.2.0, SVG Export Plug-In . SVG Version: 6.00 Build 0)  -->
<svg version="1.1" id="Layer_1" xmlns="http://www.w3.org/2000/svg"  x="0px" y="0px"
	 viewBox="133 133 24 24" style="enable-background:new 133 133 24 24;" xml:space="preserve">
<style type="text/css">
	.st0{enable-background:new    ;}
	.st1{fill:#FFFFFF;}
	.st2{fill:#CD201F;}
	.st3{fill:#232323;}
	.st4{fill:#DD880C;}
	.st5{fill:#0EBE00;}
	.st6{fill:#0267C1;}
	.st7{fill:#E6392B;}
	.st8{fill:#004289;}
	.st9{fill:#E56606;}
</style>
<g>
	<path class="st1" d="M140.5,148.2c-0.1-0.3-0.3-0.6-0.4-0.9c0-0.1-0.1-0.3-0.1-0.4h0c-0.1,0.2-0.3,0.5-0.4,0.7
		c-0.3,0.4-0.5,0.9-0.8,1.3c-0.4,0.5-0.8,1-1.3,1.4c-0.3,0.2-0.5,0.4-0.8,0.6c0,0,0,0,0,0c0.1,0.1,0.3,0.1,0.4,0.2
		c0.3,0.1,0.6,0.3,1,0.4c1.2,0.3,2.7,0.3,3.8-0.1c0.3-0.1,1-0.3,1.1-0.5v0c-0.3-0.1-0.5-0.4-0.7-0.6
		C141.6,149.8,140.9,149.1,140.5,148.2z"/>
	<path class="st1" d="M145,149.5C145,149.5,145,149.5,145,149.5C145,149.5,145,149.5,145,149.5C145,149.5,145,149.5,145,149.5z"/>
	<path class="st1" d="M138.6,144.8c0.1-0.3,0.1-0.7,0.2-1c0.1-0.3,0-0.7,0-1v-1.8c0-0.9,0-1.8,0-2.7c-0.2,0-0.4,0.1-0.6,0.1
		c-0.5,0.2-1,0.3-1.4,0.5c-1.7,0.9-3,2.3-3.6,4.4c-0.5,1.9,0,4,0.8,5.3c0.2,0.3,0.4,0.7,0.7,0.9c0.2,0,0.4-0.2,0.6-0.3
		c0.3-0.2,0.6-0.4,0.9-0.7c0.1-0.1,0.2-0.2,0.4-0.3C137.5,147.3,138.1,146.1,138.6,144.8z"/>
	<path class="st1" d="M148.8,144.9c0.1-0.3,0.1-0.6,0.2-0.9c0.1-0.3,0-0.7,0-1.1v-2c0-0.9,0-1.7,0-2.6c0,0,0,0-0.1,0
		c-0.3,0.1-0.5,0.1-0.9,0.2c-0.5,0.2-1,0.4-1.5,0.7c-0.4,0.2-0.8,0.6-1.2,0.9c-0.1,0.1-0.3,0.3-0.4,0.4c0,0,0,0,0,0c0,0,0,0,0,0l0,0
		c0,0,0,0,0,0c0,0,0,0,0,0c-0.2-0.2-0.3-0.3-0.4-0.5c-0.4-0.3-0.7-0.6-1.2-0.9c-0.5-0.2-0.9-0.5-1.5-0.7c-0.4-0.1-0.6-0.1-0.9-0.2
		c0,0,0,0-0.1,0c0,0.9,0,1.7,0,2.6v2c0,0.4,0,0.8,0,1.1c0.1,0.3,0.1,0.6,0.2,0.9c0.4,1,0.9,1.8,1.5,2.6c0.2,0.3,0.5,0.6,0.8,0.8
		c0.5,0.4,0.9,0.9,1.5,1.3c0,0,0,0,0,0c0,0,0,0,0,0c0,0,0,0,0,0c0,0,0,0,0,0c0,0,0,0,0,0c0,0,0,0,0,0c0,0,0,0,0,0
		c0.6-0.3,1-0.9,1.5-1.3c0.3-0.2,0.5-0.5,0.8-0.8C147.9,146.7,148.5,145.9,148.8,144.9z M145,140.5c0,1,0,8.2,0,9l0,0
		C145,148.7,145,141.4,145,140.5C145,140.5,145,140.5,145,140.5z"/>
	<path class="st1" d="M156.8,143.2c-0.5-2.1-1.8-3.5-3.6-4.4c-0.4-0.2-0.9-0.4-1.4-0.5c-0.2,0-0.4-0.1-0.6-0.1c0,0.9,0,1.8,0,2.7
		v1.8c0,0.4,0,0.7,0,1c0.1,0.3,0.1,0.7,0.2,1c0.4,1.3,1.1,2.5,2.1,3.3c0.1,0.1,0.2,0.2,0.4,0.3c0.3,0.2,0.6,0.5,0.9,0.7
		c0.2,0.1,0.4,0.3,0.6,0.3c0.3-0.2,0.5-0.6,0.7-0.9C156.8,147.2,157.3,145.2,156.8,143.2z"/>
	<path class="st1" d="M151.3,148.9c-0.3-0.4-0.6-0.8-0.8-1.3c-0.1-0.2-0.3-0.5-0.4-0.7h0c0,0.1-0.1,0.3-0.1,0.4
		c-0.1,0.3-0.3,0.6-0.4,0.9c-0.5,0.9-1.1,1.6-1.8,2.3c-0.2,0.2-0.4,0.4-0.7,0.6v0c0.1,0.2,0.8,0.4,1.1,0.5c1.1,0.3,2.6,0.4,3.8,0.1
		c0.3-0.1,0.7-0.2,1-0.4c0.1-0.1,0.3-0.1,0.4-0.2c0,0,0,0,0,0c-0.3-0.2-0.5-0.4-0.8-0.6C152.1,149.9,151.7,149.4,151.3,148.9z"/>
</g>
</svg>
