<?xml version="1.0" encoding="utf-8"?>
<!-- Generator: Adobe Illustrator 19.2.0, SVG Export Plug-In . SVG Version: 6.00 Build 0)  -->
<svg version="1.1" id="Layer_1" xmlns="http://www.w3.org/2000/svg"  x="0px" y="0px"
	 viewBox="99 167 24 24" style="enable-background:new 99 167 24 24;" xml:space="preserve">
<style type="text/css">
	.st0{enable-background:new    ;}
	.st1{fill:#FFFFFF;}
	.st2{fill:#CD201F;}
	.st3{fill:#232323;}
	.st4{fill:#DD880C;}
	.st5{fill:#0EBE00;}
	.st6{fill:#0267C1;}
	.st7{fill:#E6392B;}
	.st8{fill:#004289;}
	.st9{fill:#E56606;}
</style>
<g>
	<g>
		<path class="st8" d="M112.5,170.5H112c-1.4,0-2,0-2.2,0.4v0.1v1.8h-5.5v0.9h5.5v2.2h-4v0.9h8.4c-0.1,1-0.9,2.6-2.1,4.1
			c0,0,1.4,0.7,2.2,1c1.7-2.3,2.7-4.8,2.8-6h-4.5v-2.2h5.7v-0.9h-5.7V170.5z"/>
		<path class="st8" d="M105.5,185.2c-1.6,0-3.3-0.8-3.3-2.8c0-1.4,1.4-2,2.2-2.3c-0.8,0.1-1.7,0.4-2.2,1c-0.7,0.7-0.8,1.4-0.8,1.9
			c0,0.6,0.1,3.1,4.3,3.3c0,0,0,0,0,0c0.1,0,0.1,0,0.1,0c3,0,5.5-1.4,7.3-3.3c-0.7-0.4-1.4-0.8-2.1-1.1
			C109.3,183.8,107.2,185.2,105.5,185.2z"/>
	</g>
	<g>
		<path class="st9" d="M121.3,184.1c-1.5-0.3-4.5-1.4-6.7-2.2c-1.2-0.4-2.3-1-3.3-1.4c-1.4-0.6-2.7-1-3.9-1.3
			c-3.2-0.9-6.8,0.4-6.9,3.4c-0.2,4.1,5.2,3.9,5.2,3.9c-4.2-0.3-4.3-2.7-4.3-3.3c0-0.5,0.1-1.2,0.8-1.9c0.7-0.7,2-1,3-1
			c3.9,0,7.3,4.1,12.8,6.1c0,0,0.7,0,1.9-0.9C121,184.6,121.3,184.1,121.3,184.1z"/>
	</g>
</g>
</svg>
