<?xml version="1.0" encoding="utf-8"?>
<!-- Generator: Adobe Illustrator 19.2.0, SVG Export Plug-In . SVG Version: 6.00 Build 0)  -->
<svg version="1.1" id="Layer_1" xmlns="http://www.w3.org/2000/svg"  x="0px" y="0px"
	 viewBox="99 199.3 24 24" style="enable-background:new 99 199.3 24 24;" xml:space="preserve">
<style type="text/css">
	.st0{fill:#F81400;}
	.st1{fill:#FFAE0A;}
	.st2{enable-background:new    ;}
	.st3{fill:#FFFFFF;}
	.st4{fill:#CD201F;}
	.st5{fill:#232323;}
	.st6{fill:#DD880C;}
	.st7{fill:#0EBE00;}
	.st8{fill:#0267C1;}
	.st9{fill:#E6392B;}
	.st10{fill:#004289;}
	.st11{fill:#E56606;}
	.st12{fill:#3F90FF;}
</style>
<polygon class="st0" points="104.8,208.4 104.5,208.6 103.8,209.3 103.9,210.3 105.4,212.5 110.3,213.9 114.3,213.6 116.6,212.3 
	118.3,210.8 118.2,209.4 117.6,208.5 116.8,208.9 115.6,210.6 113.2,211.6 110.9,211.8 107.9,211 105.8,209.8 "/>
<polyline class="st1" points="106,209.2 108.7,208.1 111.3,207.9 114.3,208.3 116.6,209.7 114.9,210.8 110.5,211.7 106.8,210.6 "/>
<g id="Layer_2">
	<g>
		<path d="M106.1,212.8c0,0-0.1,0.5-0.1,1c0,0.3-0.1,0.6-0.1,0.8c0,0.1,0,0.2,0,0.4c0,0.1,0,0.2,0,0.3c0,0.2,0,0.3,0,0.4
			c0,0.1,0.1,0.2,0.1,0.3c0.1,0.2,0.2,0.3,0.4,0.4c0.2,0.1,0.4,0.2,0.6,0.3c0.3,0.1,0.7,0.2,1.1,0.2c0.1,0,0.3,0,0.4,0
			c0.1,0,0.2-0.1,0.3-0.1c0.1-0.1,0.3-0.2,0.4-0.3c0-0.1,0.1-0.1,0.1-0.2c0-0.1,0-0.2,0-0.3c0-0.4,0-1,0.1-1.4c0-0.4,0-0.8,0-0.8
			l-0.5,0c0,0,0,0,0,0.1c0,0.3,0,1.4-0.1,2.1c0,0.1,0,0.2-0.1,0.2c0,0-0.1,0.1-0.1,0.1c-0.1,0-0.1,0.1-0.2,0.1c-0.1,0-0.2,0-0.4,0
			c-0.3,0-0.7-0.1-0.9-0.2c-0.2-0.1-0.3-0.1-0.4-0.2c-0.1,0-0.1-0.1-0.2-0.2c-0.1-0.1-0.1-0.2-0.1-0.3c0-0.1,0-0.2,0-0.4
			c0-0.1,0-0.1,0-0.2c0-0.4,0.1-0.9,0.1-1.3c0-0.2,0-0.4,0.1-0.6c0-0.1,0-0.1,0-0.2c0,0,0-0.1,0-0.1L106.1,212.8z"/>
	</g>
	<path d="M109.8,205.4c-0.3,0-0.5,0.3-0.5,0.7s0.2,0.7,0.5,0.7c0.3,0,0.5-0.3,0.5-0.7S110,205.4,109.8,205.4z M109.9,206.3
		c-0.1,0-0.2-0.1-0.2-0.3s0.1-0.3,0.2-0.3c0.1,0,0.2,0.1,0.2,0.3S110,206.3,109.9,206.3z"/>
	<path d="M112.4,206C112.4,205.9,112.4,205.9,112.4,206c0.1-0.1,0.1-0.1,0.1-0.1c0,0,0,0,0.1,0c0,0,0.1,0.1,0.1,0.2
		c0,0.1,0.1,0.2,0.1,0.3h0.4c0-0.2-0.1-0.5-0.1-0.6c0-0.1-0.1-0.2-0.2-0.2c-0.1-0.1-0.2-0.1-0.3-0.1c-0.1,0-0.2,0-0.3,0.1
		c-0.1,0.1-0.2,0.2-0.2,0.4c-0.1,0.1-0.1,0.3-0.1,0.5h0.4C112.3,206.2,112.3,206.1,112.4,206z"/>
	<path d="M118.6,211.7c-0.2-0.2-0.3-0.4-0.5-0.6c0,0,0,0,0-0.1c0.1-0.2,0.2-0.3,0.2-0.5c0.1-0.2,0.1-0.5,0.1-0.7
		c0-0.4-0.1-0.8-0.2-1.1c-0.1-0.3-0.4-0.6-0.6-0.9l-0.3-0.3c0-0.3-0.1-0.6-0.2-1.1c-0.2-1.2-1.3-3-2.6-3.9c-1.2-0.9-2.8-1.2-3.7-1.2
		c-0.7,0-2.3,0.3-3.7,1.2c-1.3,0.9-2.4,2.7-2.6,3.9c-0.1,0.7-0.1,1.1-0.1,1.4l0,0c0,0-0.1,0-0.3,0.1c-0.1,0.1-0.2,0.1-0.2,0.2
		c-0.1,0.1-0.1,0.2-0.2,0.4c0,0.2-0.1,0.3-0.1,0.4c0,0-0.1,0.1-0.1,0.2c0,0.1-0.1,0.1-0.1,0.2c0,0.1,0,0.2,0,0.3c0,0.1,0,0.1,0,0.2
		c0,0.1,0.1,0.3,0.2,0.5c0,0.1,0.1,0.2,0.2,0.3c-0.2,0.2-0.4,0.5-0.6,0.8c-0.7,1-1.5,2.9-1.3,3.9c0.1,1.3,0.3,1.4,0.8,1.1
		c0.5-0.3,1.1-1.3,1.1-1.3s0.6,1.7,1.7,2.6c1.2,1.1,2.3,1.7,3.7,2c0.9,0.2,1.5,0.2,1.8,0.2c0.3,0,0.9,0,1.8-0.2
		c1.3-0.3,2.5-0.9,3.7-2c1-0.9,1.7-2.6,1.7-2.6s0.6,0.9,1.1,1.3c0.5,0.3,0.6,0.2,0.8-1.1C120.1,214.6,119.3,212.7,118.6,211.7z
		 M112.8,204.3c0.7,0,1.2,0.8,1.2,1.8c0,1-0.6,1.8-1.2,1.8s-1.2-0.8-1.2-1.8C111.6,205.1,112.1,204.3,112.8,204.3z M109.4,204.3
		c0.7,0,1.2,0.8,1.2,1.8c0,1-0.6,1.8-1.2,1.8c-0.7,0-1.2-0.8-1.2-1.8C108.1,205.1,108.7,204.3,109.4,204.3z M108.5,208.6
		c0.8-0.4,2.4-0.4,2.8-0.5l0,0c0,0,0,0,0,0c0,0,0,0,0,0l0,0c0.4,0,1.9,0.1,2.8,0.5c1,0.4,1.5,0.6,1.5,0.9s-0.2,0.5-0.7,0.7
		c-0.5,0.2-0.7,0.2-0.7,0.2s0.3-0.3,0.4-0.6c0,0-1.4,1.2-3.1,1.2c0,0,0,0,0,0l0,0c0,0-0.1,0-0.1,0c0,0-0.1,0-0.1,0s-0.1,0-0.1,0
		c0,0-0.1,0-0.1,0l0,0c0,0,0,0,0,0c-1.7-0.1-3.1-1.2-3.1-1.2c0.1,0.3,0.4,0.6,0.4,0.6s-0.2,0-0.7-0.2c-0.5-0.2-0.7-0.5-0.7-0.7
		C106.9,209.2,107.5,209,108.5,208.6z M104.3,209.4C104.3,209.4,104.3,209.4,104.3,209.4C104.3,209.4,104.3,209.4,104.3,209.4
		L104.3,209.4l0.1-0.1l0-0.1c0,0,0,0,0.1-0.5c0-0.1,0-0.1,0.1-0.2c0,0,0-0.1,0.1-0.1c0,0.1,0.1,0.2,0.1,0.3c0.1,0.3,0.3,0.6,0.6,0.9
		c0.4,0.5,1,1,1.9,1.4c0.9,0.4,2.1,0.7,3.7,0.7c0.1,0,0.1,0,0.2,0c1.4,0,2.6-0.3,3.5-0.6c0.7-0.3,1.2-0.6,1.6-0.9
		c0.6-0.5,1-1.1,1.2-1.5c0.1-0.1,0.1-0.2,0.1-0.3c0.1,0.1,0.2,0.3,0.3,0.5c0.1,0.3,0.2,0.6,0.2,0.9c0,0.2,0,0.4-0.1,0.6
		c0,0.1-0.1,0.2-0.2,0.3c-0.1,0.2-0.4,0.5-0.7,0.8c-0.5,0.4-1.1,0.8-1.8,1.2c-0.7,0.4-1.5,0.6-2.2,0.8c-0.5,0.1-1,0.1-1.5,0.1
		c-1,0-2-0.1-2.9-0.4c-0.9-0.2-1.8-0.5-2.4-0.9c-0.8-0.4-1.3-0.9-1.7-1.4c-0.2-0.2-0.3-0.5-0.4-0.7c-0.1-0.2-0.1-0.4-0.1-0.5
		c0,0,0-0.1,0-0.1c0-0.1,0-0.1,0-0.2C104.2,209.5,104.2,209.5,104.3,209.4z M115.7,217.9c-1.3,1.8-3.9,2.1-4.7,2.1
		c-0.8-0.1-3.4-0.4-4.7-2.1c-1.6-2.1-1.3-4.3-1.1-5c0-0.1,0.1-0.3,0.2-0.4c0.2,0.2,0.4,0.3,0.7,0.4c0.7,0.3,1.6,0.7,2.5,0.9
		c1,0.2,2,0.4,3,0.4c0.5,0,1.1,0,1.6-0.1c1.3-0.2,2.5-0.8,3.4-1.5c0,0,0,0,0,0c0,0.1,0.1,0.2,0.1,0.4
		C117,213.6,117.3,215.8,115.7,217.9z"/>
	<path class="st1" d="M105.4,218.4c-0.2-0.1-0.3-0.3-0.5-0.5c-0.2,0.1-0.5,0.3-0.6,0.4c-0.3,0.2-0.4,0.6-0.1,0.6
		c0,0-1.1,1.1,0.8,1.9c1.9,0.8,4,0.6,5-0.1c0,0,0.1-0.1,0.1-0.1c-0.3,0-0.6-0.1-1-0.2C107.8,220.1,106.6,219.4,105.4,218.4z"/>
	<path class="st1" d="M113,220.4c-0.4,0.1-0.7,0.1-1,0.2c0,0,0.1,0.1,0.1,0.1c1,0.7,3.1,0.9,5,0.1c1.9-0.8,0.8-1.9,0.8-1.9
		c0.2,0,0.1-0.4-0.1-0.6c-0.2-0.1-0.4-0.3-0.6-0.4c-0.1,0.2-0.3,0.3-0.5,0.5C115.4,219.4,114.3,220.1,113,220.4z"/>
</g>
</svg>
