<?xml version="1.0" encoding="utf-8"?>
<!-- Generator: Adobe Illustrator 19.2.0, SVG Export Plug-In . SVG Version: 6.00 Build 0)  -->
<svg version="1.1" id="Layer_1" xmlns="http://www.w3.org/2000/svg"  x="0px" y="0px"
	 viewBox="133 99 24 24" style="enable-background:new 133 99 24 24;" xml:space="preserve">
<style type="text/css">
	.st0{enable-background:new    ;}
	.st1{fill:#FFFFFF;}
	.st2{fill:#CD201F;}
	.st3{fill:#232323;}
	.st4{fill:#DD880C;}
	.st5{fill:#0EBE00;}
	.st6{fill:#0267C1;}
	.st7{fill:#E6392B;}
	.st8{fill:#004289;}
	.st9{fill:#E56606;}
</style>
<g>
	<path class="st1" d="M141.9,113.2c0.8-4.6,5.5-6,8.1-5.8c-0.7-3.3-3.8-6.1-8.2-6.1c-4.5-0.1-8.3,3.2-8.3,7.2c0,2.3,1.1,4.2,3.1,5.7
		c0,0-0.8,2.5-0.7,2.5c0,0,0.2,0.1,0.2,0.1c0.1,0,2.7-1.6,2.7-1.6c2,0.7,3.2,0.5,3.3,0.5C141.9,115,141.7,114.1,141.9,113.2z
		 M145.1,105.1c0.6,0,1.1,0.5,1.1,1.1c0,0.6-0.5,1.1-1.1,1.1c-0.6,0-1.1-0.5-1.1-1.1C144,105.6,144.5,105.1,145.1,105.1z
		 M138.6,107.2c-0.6,0-1.1-0.5-1.1-1.1c0-0.6,0.5-1.1,1.1-1.1c0.6,0,1.1,0.5,1.1,1.1C139.6,106.8,139.2,107.2,138.6,107.2z"/>
	<path class="st1" d="M156.6,113.9c0-3.4-3.2-5.9-7-5.9c-4,0-7.2,2.6-7.2,6c0,3.4,3,6.1,7.2,6.2c0.8,0,2.1-0.2,2.9-0.6
		c0,0,2,1.2,2.1,1.2c0.1,0,0.2-0.1,0.2-0.2c0-0.1-0.6-2-0.6-2C155.8,117.3,156.6,115.8,156.6,113.9z M146.9,112.7
		c-0.5,0-0.9-0.4-0.9-1c0-0.5,0.4-1,0.9-1s0.9,0.4,0.9,1C147.9,112.3,147.5,112.7,146.9,112.7z M152,112.7c-0.5,0-0.9-0.4-0.9-1
		c0-0.5,0.4-1,0.9-1c0.5,0,0.9,0.4,0.9,1C153,112.3,152.5,112.7,152,112.7z"/>
</g>
</svg>
