<?xml version="1.0" encoding="utf-8"?>
<!-- Generator: Adobe Illustrator 19.2.0, SVG Export Plug-In . SVG Version: 6.00 Build 0)  -->
<svg version="1.1" id="Layer_1" xmlns="http://www.w3.org/2000/svg"  x="0px" y="0px"
	 viewBox="133 167 24 24" style="enable-background:new 133 167 24 24;" xml:space="preserve">
<style type="text/css">
	.st0{enable-background:new    ;}
	.st1{fill:#FFFFFF;}
	.st2{fill:#CD201F;}
	.st3{fill:#232323;}
	.st4{fill:#DD880C;}
	.st5{fill:#0EBE00;}
	.st6{fill:#0267C1;}
	.st7{fill:#E6392B;}
	.st8{fill:#004289;}
	.st9{fill:#E56606;}
</style>
<path class="st1" d="M148.5,181.9c-0.1,0-0.2-0.1-0.3-0.1c1.7-2.3,2.7-4.8,2.8-6h-4.5v-2.2h5.7v-0.9h-5.7v-2.2H146
	c-1.4,0-2,0-2.2,0.4v0.1v1.8h-5.5v0.9h5.5v2.2h-4v0.9h8.4c-0.1,1-0.9,2.6-2.1,4.1c0,0,0,0,0.1,0c-0.3-0.1-0.6-0.3-0.9-0.4
	c-1.4-0.6-2.7-1-3.9-1.3c-3.2-0.9-6.8,0.4-6.9,3.4c-0.2,4.1,5.2,3.9,5.2,3.9c0,0,0,0,0,0c0,0,0,0,0,0c0.1,0,0.1,0,0.1,0
	c2.8,0,5.1-1.2,6.9-2.9c1.6,1,3.3,2,5.3,2.7c0,0,0.7,0,1.9-0.9c1.1-0.8,1.4-1.3,1.4-1.3C153.8,183.8,150.8,182.7,148.5,181.9z
	 M135.3,183.1c0-0.5,0.1-1.2,0.8-1.9c0,0,0,0,0,0c0,0,0,0,0,0C135.4,181.9,135.4,182.6,135.3,183.1c0,0,0,0.1,0,0.1
	C135.3,183.2,135.3,183.1,135.3,183.1z M137.6,180.4c-0.1,0-0.1,0-0.2,0.1C137.5,180.4,137.6,180.4,137.6,180.4z M136.9,180.7
	c-0.1,0-0.1,0.1-0.2,0.1C136.8,180.7,136.9,180.7,136.9,180.7z M139.5,185.2c-1.6,0-3.3-0.8-3.3-2.8c0-1.4,1.4-2,2.2-2.3
	c0.3,0,0.5-0.1,0.8-0.1c1.9,0,3.6,1,5.6,2.2C143.1,184,141.1,185.2,139.5,185.2z"/>
</svg>
