<?xml version="1.0" encoding="utf-8"?>
<!-- Generator: Adobe Illustrator 19.2.0, SVG Export Plug-In . SVG Version: 6.00 Build 0)  -->
<svg version="1.1" id="Layer_1" xmlns="http://www.w3.org/2000/svg"  x="0px" y="0px"
	 viewBox="133.1 199.3 24 24" style="enable-background:new 133.1 199.3 24 24;" xml:space="preserve">
<style type="text/css">
	.st0{enable-background:new    ;}
	.st1{fill:#FFFFFF;}
	.st2{fill:#CD201F;}
	.st3{fill:#232323;}
	.st4{fill:#DD880C;}
	.st5{fill:#0EBE00;}
	.st6{fill:#0267C1;}
	.st7{fill:#E6392B;}
	.st8{fill:#004289;}
	.st9{fill:#E56606;}
	.st10{fill:#3F90FF;}
</style>
<path class="st1" d="M154.1,214.5c0-1.3-0.5-2.1-1.1-3c-0.3-0.4-0.5-0.7-0.8-1c0-0.2,0-0.4,0-0.9c-0.1-0.8-0.3-1.2-0.4-1.3
	c0-0.2-0.1-2.1-0.7-3.1c-1.9-3.6-5.6-3.8-6-3.8h0c-0.4,0-4.1,0.1-6,3.8c-0.6,1.1-0.7,2.9-0.7,3.1c-0.1,0.1-0.4,0.4-0.4,1.3
	c-0.1,0.6,0,0.7,0,0.9c-0.3,0.4-0.5,0.7-0.8,1c-0.6,0.9-1.1,1.7-1.1,3c0,1,0.2,2.3,0.9,2.4c0.2,0,0.4-0.2,0.7-0.6
	c0.1-0.1,0.5-0.7,0.6-0.8c0.1,0.2,0.2,1.6,1.5,2.4c-1.3,0.6-1.9,1-1.9,1.8c0,0.5,0.6,1.1,1.5,1.4c1.2,0.4,2.7,0.4,3.9,0.1
	c0.7-0.2,0.9-0.4,1.8-0.9c0.9,0.5,1.1,0.7,1.8,0.9c1.2,0.3,2.6,0.3,3.9-0.1c1-0.3,1.5-0.9,1.5-1.4c0-0.8-0.6-1.2-1.9-1.8
	c1.2-0.7,1.4-2.2,1.5-2.4c0.1,0.1,0.5,0.7,0.6,0.8c0.4,0.4,0.5,0.6,0.7,0.6C153.8,216.8,154.1,215.5,154.1,214.5z"/>
</svg>
