<?xml version="1.0" encoding="utf-8"?>
<!-- Generator: Adobe Illustrator 19.2.0, SVG Export Plug-In . SVG Version: 6.00 Build 0)  -->
<svg version="1.1" id="Layer_1" xmlns="http://www.w3.org/2000/svg"  x="0px" y="0px"
	 viewBox="133 65 24 24" style="enable-background:new 133 65 24 24;" xml:space="preserve">
<style type="text/css">
	.st0{enable-background:new    ;}
	.st1{fill:#FFFFFF;}
	.st2{fill:#CD201F;}
	.st3{fill:#232323;}
	.st4{fill:#DD880C;}
	.st5{fill:#0EBE00;}
	.st6{fill:#0267C1;}
	.st7{fill:#E6392B;}
	.st8{fill:#004289;}
	.st9{fill:#E56606;}
</style>
<g id="Shape_4_2_" class="st0">
	<g id="Shape_4_3_">
		<g>
			<path class="st1" d="M143.6,77.8c-1.9-0.5-4.1,0.5-4.9,2.1c-0.9,1.7,0,3.6,1.9,4.2c2,0.6,4.4-0.3,5.2-2.2
				C146.5,80.1,145.5,78.3,143.6,77.8z M142.1,82.1c-0.4,0.6-1.2,0.9-1.8,0.6c-0.6-0.3-0.8-1-0.4-1.6c0.4-0.6,1.2-0.9,1.8-0.6
				C142.3,80.8,142.5,81.5,142.1,82.1z M143.4,80.5c-0.1,0.2-0.5,0.3-0.7,0.3s-0.3-0.4-0.2-0.6c0.1-0.2,0.4-0.3,0.7-0.3
				C143.4,80,143.5,80.3,143.4,80.5z"/>
		</g>
	</g>
</g>
<g id="Shape_3_2_" class="st0">
	<g id="Shape_3_3_">
		<g>
			<path class="st1" d="M151.3,76.7c-0.3-0.1-0.6-0.2-0.4-0.6c0.4-1,0.4-1.8,0-2.4c-0.8-1.1-3-1.1-5.4,0c0,0-0.8,0.3-0.6-0.3
				c0.4-1.2,0.3-2.2-0.3-2.8c-1.3-1.3-4.9,0.1-8,3.1c-2.3,2.3-3.6,4.7-3.6,6.7c0,4,5.2,6.4,10.2,6.4c6.6,0,11-3.8,11-6.8
				C154.2,78.1,152.7,77.1,151.3,76.7z M143.2,85.3c-4,0.4-7.5-1.4-7.8-4s2.8-5,6.8-5.4s7.5,1.4,7.8,4S147.2,84.9,143.2,85.3z"/>
		</g>
	</g>
</g>
<g id="Shape_2_2_" class="st0">
	<g id="Shape_2_3_">
		<g>
			<path class="st1" d="M143.6,77.8c-1.9-0.5-4.1,0.5-4.9,2.1c-0.9,1.7,0,3.6,1.9,4.2c2,0.6,4.4-0.3,5.2-2.2
				C146.5,80.1,145.5,78.3,143.6,77.8z M142.1,82.1c-0.4,0.6-1.2,0.9-1.8,0.6c-0.6-0.3-0.8-1-0.4-1.6c0.4-0.6,1.2-0.9,1.8-0.6
				C142.3,80.8,142.5,81.5,142.1,82.1z M143.4,80.5c-0.1,0.2-0.5,0.3-0.7,0.3s-0.3-0.4-0.2-0.6c0.1-0.2,0.4-0.3,0.7-0.3
				C143.4,80,143.5,80.3,143.4,80.5z"/>
		</g>
	</g>
</g>
<g id="Shape_1_2_" class="st0">
	<g id="Shape_1_3_">
		<g>
			<path class="st1" d="M153,71.7c-0.8-0.9-1.9-1.2-2.9-1c-0.4,0.1-0.7,0.5-0.6,1c0.1,0.4,0.5,0.7,0.9,0.6c0.1,0,0.2,0,0.3,0
				c0.4,0,0.8,0.2,1.1,0.5c0.4,0.4,0.5,1,0.3,1.5c0,0.1,0,0.2,0,0.3c0,0.3,0.2,0.7,0.5,0.8c0.4,0.1,0.8-0.1,1-0.5
				C154,73.7,153.7,72.5,153,71.7z M155.4,69.4c-1.6-1.8-3.9-2.5-6-2c-0.4,0.1-0.7,0.5-0.7,0.9c0,0.1,0,0.1,0,0.2
				c0.1,0.5,0.6,0.8,1.1,0.7c1.5-0.3,3.1,0.2,4.3,1.4c1.1,1.3,1.4,3,0.9,4.5c0,0.1,0,0.2,0,0.3c0,0.4,0.2,0.8,0.6,0.9
				c0.5,0.2,1-0.1,1.1-0.6c0,0,0,0,0,0C157.4,73.7,156.9,71.2,155.4,69.4z"/>
		</g>
	</g>
</g>
</svg>
