<?xml version="1.0" encoding="utf-8"?>
<!-- Generator: Adobe Illustrator 19.2.0, SVG Export Plug-In . SVG Version: 6.00 Build 0)  -->
<svg version="1.1" id="Layer_1" xmlns="http://www.w3.org/2000/svg"  x="0px" y="0px"
	 viewBox="0 0 200 200" style="enable-background:new 0 0 200 200;" xml:space="preserve">
<style type="text/css">
	.st0{fill:#347BD4;}
</style>
<g>
	<g id="qr-qrcode" transform="translate(0,0)">
		<g id="qr-image_bg">
		</g>
		<path id="p0" class="st0" d="M10.7,12.2c0,0,0-0.5,0.5-0.5h24.5c0,0,0.5,0,0.5,0.5v24.5c0,0,0,0.5-0.5,0.5H11.2c0,0-0.5,0-0.5-0.5
			V12.2 M14.8,15.3c0,0-0.5,0-0.5,0.5V33c0,0,0,0.5,0.5,0.5H32c0,0,0.5,0,0.5-0.5V15.8c0,0,0-0.5-0.5-0.5H14.8z"/>
		<path id="p1" class="st0" d="M10.7,45c0,0,0-0.5,0.5-0.5h6.3c0,0,0.5,0,0.5,0.5v6.3c0,0,0,0.5,0.5,0.5h2.6c0,0,0.5,0,0.5,0.5v6.3
			c0,0,0,0.5-0.5,0.5h-2.6c0,0-0.5,0-0.5-0.5v-2.6c0,0,0-0.5-0.5-0.5h-2.6c0,0-0.5,0-0.5-0.5v-2.6c0,0,0-0.5-0.5-0.5h-2.6
			c0,0-0.5,0-0.5-0.5V45z"/>
		<path id="p2" class="st0" d="M10.7,59.6c0,0,0-0.5,0.5-0.5h2.6c0,0,0.5,0,0.5,0.5v6.3c0,0,0,0.5-0.5,0.5h-2.6c0,0-0.5,0-0.5-0.5
			V59.6z"/>
		<path id="p3" class="st0" d="M10.7,81.5c0,0,0-0.5,0.5-0.5h2.6c0,0,0.5,0,0.5,0.5v2.6c0,0,0,0.5-0.5,0.5h-2.6c0,0-0.5,0-0.5-0.5
			V81.5z"/>
		<path id="p4" class="st0" d="M10.7,96.1c0,0,0-0.5,0.5-0.5h2.6c0,0,0.5,0,0.5,0.5v2.6c0,0,0,0.5-0.5,0.5h-2.6c0,0-0.5,0-0.5-0.5
			V96.1z"/>
		<path id="p5" class="st0" d="M14.3,99.7c0,0,0-0.5,0.5-0.5h6.3c0,0,0.5,0,0.5,0.5v2.6c0,0,0,0.5-0.5,0.5h-2.6c0,0-0.5,0-0.5,0.5
			v2.6c0,0,0,0.5,0.5,0.5h2.6c0,0,0.5,0,0.5,0.5v6.3c0,0,0,0.5-0.5,0.5h-6.3c0,0-0.5,0-0.5,0.5v2.6c0,0,0,0.5-0.5,0.5h-2.6
			c0,0-0.5,0-0.5-0.5v-13.5c0,0,0-0.5,0.5-0.5h2.6c0,0,0.5,0,0.5-0.5V99.7z"/>
		<path id="p6" class="st0" d="M10.7,121.6c0,0,0-0.5,0.5-0.5h2.6c0,0,0.5,0,0.5,0.5v2.6c0,0,0,0.5-0.5,0.5h-2.6c0,0-0.5,0-0.5-0.5
			V121.6z"/>
		<path id="p7" class="st0" d="M10.7,128.9c0,0,0-0.5,0.5-0.5h2.6c0,0,0.5,0,0.5,0.5v2.6c0,0,0,0.5,0.5,0.5h2.6c0,0,0.5,0,0.5,0.5
			v2.6c0,0,0,0.5-0.5,0.5h-6.3c0,0-0.5,0-0.5-0.5V128.9z"/>
		<path id="p8" class="st0" d="M14.3,150.7c0,0,0-0.5,0.5-0.5h2.6c0,0,0.5,0,0.5,0.5v2.6c0,0,0,0.5,0.5,0.5h6.3c0,0,0.5,0,0.5,0.5
			v2.6c0,0,0,0.5-0.5,0.5h-2.6c0,0-0.5,0-0.5,0.5v2.6c0,0,0,0.5-0.5,0.5h-9.9c0,0-0.5,0-0.5-0.5V158c0,0,0-0.5,0.5-0.5h2.6
			c0,0,0.5,0,0.5-0.5V150.7z"/>
		<path id="p9" class="st0" d="M10.7,165.3c0,0,0-0.5,0.5-0.5h24.5c0,0,0.5,0,0.5,0.5v24.5c0,0,0,0.5-0.5,0.5H11.2
			c0,0-0.5,0-0.5-0.5V165.3 M14.8,168.5c0,0-0.5,0-0.5,0.5v17.2c0,0,0,0.5,0.5,0.5H32c0,0,0.5,0,0.5-0.5V169c0,0,0-0.5-0.5-0.5H14.8
			z"/>
		<path id="p10" class="st0" d="M18,63.2c0,0,0-0.5,0.5-0.5h2.6c0,0,0.5,0,0.5,0.5v2.6c0,0,0,0.5,0.5,0.5h2.6c0,0,0.5,0,0.5,0.5v2.6
			c0,0,0,0.5-0.5,0.5h-6.3c0,0-0.5,0-0.5,0.5v6.3c0,0,0,0.5-0.5,0.5h-2.6c0,0-0.5,0-0.5-0.5v-9.9c0,0,0-0.5,0.5-0.5h2.6
			c0,0,0.5,0,0.5-0.5V63.2z"/>
		<path id="p11" class="st0" d="M43.5,70.5c0,0,0-0.5,0.5-0.5h2.6c0,0,0.5,0,0.5,0.5v2.6c0,0,0,0.5,0.5,0.5h2.6c0,0,0.5,0,0.5,0.5
			v2.6c0,0,0,0.5,0.5,0.5h2.6c0,0,0.5,0,0.5,0.5v2.6c0,0,0,0.5-0.5,0.5h-2.6c0,0-0.5,0-0.5,0.5v6.3c0,0,0,0.5,0.5,0.5h6.3
			c0,0,0.5,0,0.5,0.5v2.6c0,0,0,0.5-0.5,0.5h-2.6c0,0-0.5,0-0.5,0.5v9.9c0,0,0,0.5,0.5,0.5h2.6c0,0,0.5,0,0.5,0.5v2.6
			c0,0,0,0.5-0.5,0.5h-2.6c0,0-0.5,0-0.5,0.5v6.3c0,0,0,0.5-0.5,0.5h-2.6c0,0-0.5,0-0.5-0.5v-2.6c0,0,0-0.5-0.5-0.5H44
			c0,0-0.5,0-0.5,0.5v2.6c0,0,0,0.5-0.5,0.5h-6.3c0,0-0.5,0-0.5-0.5v-2.6c0,0,0-0.5-0.5-0.5h-2.6c0,0-0.5,0-0.5,0.5v2.6
			c0,0,0,0.5-0.5,0.5h-2.6c0,0-0.5,0-0.5,0.5v2.6c0,0,0,0.5,0.5,0.5H32c0,0,0.5,0,0.5,0.5v2.6c0,0,0,0.5,0.5,0.5h2.6
			c0,0,0.5,0,0.5,0.5v2.6c0,0,0,0.5-0.5,0.5h-2.6c0,0-0.5,0-0.5,0.5v2.6c0,0,0,0.5-0.5,0.5h-2.6c0,0-0.5,0-0.5,0.5v2.6
			c0,0,0,0.5-0.5,0.5h-2.6c0,0-0.5,0-0.5-0.5v-9.9c0,0,0-0.5-0.5-0.5h-9.9c0,0-0.5,0-0.5-0.5v-2.6c0,0,0-0.5,0.5-0.5h6.3
			c0,0,0.5,0,0.5-0.5v-2.6c0,0,0-0.5,0.5-0.5h2.6c0,0,0.5,0,0.5-0.5V92.4c0,0,0-0.5-0.5-0.5h-2.6c0,0-0.5,0-0.5-0.5v-2.6
			c0,0,0-0.5-0.5-0.5h-2.6c0,0-0.5,0-0.5-0.5v-9.9c0,0,0-0.5,0.5-0.5h2.6c0,0,0.5,0,0.5-0.5v-2.6c0,0,0-0.5,0.5-0.5h2.6
			c0,0,0.5,0,0.5,0.5v2.6c0,0,0,0.5,0.5,0.5h9.9c0,0,0.5,0,0.5,0.5v2.6c0,0,0,0.5-0.5,0.5h-9.9c0,0-0.5,0-0.5,0.5v6.3
			c0,0,0,0.5,0.5,0.5h2.6c0,0,0.5,0,0.5-0.5v-2.6c0,0,0-0.5,0.5-0.5h9.9c0,0,0.5,0,0.5,0.5v6.3c0,0,0,0.5,0.5,0.5H43
			c0,0,0.5,0,0.5,0.5V95c0,0,0,0.5,0.5,0.5h6.3c0,0,0.5,0,0.5-0.5v-2.6c0,0,0-0.5-0.5-0.5H44c0,0-0.5,0-0.5-0.5v-2.6
			c0,0,0-0.5,0.5-0.5h2.6c0,0,0.5,0,0.5-0.5v-9.9c0,0,0-0.5-0.5-0.5H44c0,0-0.5,0-0.5-0.5V70.5 M33.1,88.2c0,0-0.5,0-0.5,0.5v2.6
			c0,0,0,0.5,0.5,0.5h2.6c0,0,0.5,0,0.5-0.5v-2.6c0,0,0-0.5-0.5-0.5H33.1 M29.4,95.5c0,0-0.5,0-0.5,0.5v9.9c0,0,0,0.5,0.5,0.5h9.9
			c0,0,0.5,0,0.5-0.5v-9.9c0,0,0-0.5-0.5-0.5H29.4 M44,99.2c0,0-0.5,0-0.5,0.5v6.3c0,0,0,0.5,0.5,0.5h2.6c0,0,0.5,0,0.5-0.5v-6.3
			c0,0,0-0.5-0.5-0.5H44z"/>
		<path id="p12" class="st0" d="M14.3,125.2c0,0,0-0.5,0.5-0.5h6.3c0,0,0.5,0,0.5,0.5v6.3c0,0,0,0.5-0.5,0.5h-2.6c0,0-0.5,0-0.5-0.5
			v-2.6c0,0,0-0.5-0.5-0.5h-2.6c0,0-0.5,0-0.5-0.5V125.2z"/>
		<path id="p13" class="st0" d="M18,136.2c0,0,0-0.5,0.5-0.5h2.6c0,0,0.5,0,0.5,0.5v6.3c0,0,0,0.5-0.5,0.5h-6.3c0,0-0.5,0-0.5-0.5
			v-2.6c0,0,0-0.5,0.5-0.5h2.6c0,0,0.5,0,0.5-0.5V136.2z"/>
		<path id="p14" class="st0" d="M18,19.5c0,0,0-0.5,0.5-0.5h9.9c0,0,0.5,0,0.5,0.5v9.9c0,0,0,0.5-0.5,0.5h-9.9c0,0-0.5,0-0.5-0.5
			V19.5z"/>
		<path id="p15" class="st0" d="M18,172.6c0,0,0-0.5,0.5-0.5h9.9c0,0,0.5,0,0.5,0.5v9.9c0,0,0,0.5-0.5,0.5h-9.9c0,0-0.5,0-0.5-0.5
			V172.6z"/>
		<path id="p16" class="st0" d="M21.6,41.4c0,0,0-0.5,0.5-0.5h2.6c0,0,0.5,0,0.5,0.5v6.3c0,0,0,0.5-0.5,0.5h-2.6c0,0-0.5,0-0.5-0.5
			V41.4z"/>
		<path id="p17" class="st0" d="M25.3,55.9c0,0,0-0.5,0.5-0.5h9.9c0,0,0.5,0,0.5,0.5v2.6c0,0,0,0.5-0.5,0.5h-2.6c0,0-0.5,0-0.5,0.5
			v2.6c0,0,0,0.5,0.5,0.5h2.6c0,0,0.5,0,0.5,0.5v2.6c0,0,0,0.5-0.5,0.5h-2.6c0,0-0.5,0-0.5,0.5v2.6c0,0,0,0.5-0.5,0.5h-2.6
			c0,0-0.5,0-0.5-0.5v-2.6c0,0,0-0.5-0.5-0.5h-2.6c0,0-0.5,0-0.5-0.5v-2.6c0,0,0-0.5-0.5-0.5h-2.6c0,0-0.5,0-0.5-0.5v-2.6
			c0,0,0-0.5,0.5-0.5h2.6c0,0,0.5,0,0.5-0.5V55.9z"/>
		<path id="p18" class="st0" d="M21.6,132.5c0,0,0-0.5,0.5-0.5h2.6c0,0,0.5,0,0.5,0.5v2.6c0,0,0,0.5-0.5,0.5h-2.6c0,0-0.5,0-0.5-0.5
			V132.5z"/>
		<path id="p19" class="st0" d="M28.9,132.5c0,0,0-0.5,0.5-0.5H32c0,0,0.5,0,0.5,0.5v2.6c0,0,0,0.5,0.5,0.5h2.6c0,0,0.5,0,0.5,0.5
			v2.6c0,0,0,0.5-0.5,0.5h-2.6c0,0-0.5,0-0.5,0.5v2.6c0,0,0,0.5-0.5,0.5h-2.6c0,0-0.5,0-0.5,0.5v2.6c0,0,0,0.5,0.5,0.5H32
			c0,0,0.5,0,0.5,0.5v2.6c0,0,0,0.5,0.5,0.5h6.3c0,0,0.5,0,0.5,0.5v2.6c0,0,0,0.5-0.5,0.5h-9.9c0,0-0.5,0-0.5-0.5v-2.6
			c0,0,0-0.5-0.5-0.5h-6.3c0,0-0.5,0-0.5-0.5v-6.3c0,0,0-0.5,0.5-0.5h2.6c0,0,0.5,0,0.5-0.5v-6.3c0,0,0-0.5,0.5-0.5h2.6
			c0,0,0.5,0,0.5-0.5V132.5z"/>
		<path id="p20" class="st0" d="M25.3,48.7c0,0,0-0.5,0.5-0.5h2.6c0,0,0.5,0,0.5,0.5v2.6c0,0,0,0.5-0.5,0.5h-2.6c0,0-0.5,0-0.5-0.5
			V48.7z"/>
		<path id="p21" class="st0" d="M32.5,41.4c0,0,0-0.5,0.5-0.5h2.6c0,0,0.5,0,0.5,0.5V44c0,0,0,0.5-0.5,0.5h-2.6c0,0-0.5,0-0.5-0.5
			V41.4z"/>
		<path id="p22" class="st0" d="M32.5,48.7c0,0,0-0.5,0.5-0.5h2.6c0,0,0.5,0,0.5,0.5v2.6c0,0,0,0.5-0.5,0.5h-2.6c0,0-0.5,0-0.5-0.5
			V48.7z"/>
		<path id="p23" class="st0" d="M32.5,70.5c0,0,0-0.5,0.5-0.5h2.6c0,0,0.5,0,0.5,0.5v2.6c0,0,0,0.5-0.5,0.5h-2.6c0,0-0.5,0-0.5-0.5
			V70.5z"/>
		<path id="p24" class="st0" d="M32.5,99.7c0,0,0-0.5,0.5-0.5h2.6c0,0,0.5,0,0.5,0.5v2.6c0,0,0,0.5-0.5,0.5h-2.6c0,0-0.5,0-0.5-0.5
			V99.7z"/>
		<path id="p25" class="st0" d="M32.5,114.3c0,0,0-0.5,0.5-0.5h2.6c0,0,0.5,0,0.5,0.5v2.6c0,0,0,0.5-0.5,0.5h-2.6c0,0-0.5,0-0.5-0.5
			V114.3z"/>
		<path id="p26" class="st0" d="M32.5,128.9c0,0,0-0.5,0.5-0.5h2.6c0,0,0.5,0,0.5,0.5v2.6c0,0,0,0.5-0.5,0.5h-2.6c0,0-0.5,0-0.5-0.5
			V128.9z"/>
		<path id="p27" class="st0" d="M101.8,121.6c0,0,0-0.5,0.5-0.5h2.6c0,0,0.5,0,0.5,0.5v6.3c0,0,0,0.5,0.5,0.5h6.3c0,0,0.5,0,0.5,0.5
			v2.6c0,0,0,0.5-0.5,0.5h-2.6c0,0-0.5,0-0.5,0.5v2.6c0,0,0,0.5-0.5,0.5H106c0,0-0.5,0-0.5,0.5v2.6c0,0,0,0.5-0.5,0.5h-2.6
			c0,0-0.5,0-0.5-0.5v-2.6c0,0,0-0.5-0.5-0.5h-2.6c0,0-0.5,0-0.5,0.5v2.6c0,0,0,0.5,0.5,0.5h2.6c0,0,0.5,0,0.5,0.5v2.6
			c0,0,0,0.5,0.5,0.5h2.6c0,0,0.5,0,0.5,0.5v2.6c0,0,0,0.5-0.5,0.5h-2.6c0,0-0.5,0-0.5,0.5v6.3c0,0,0,0.5-0.5,0.5h-2.6
			c0,0-0.5,0-0.5,0.5v2.6c0,0,0,0.5,0.5,0.5h6.3c0,0,0.5,0,0.5-0.5v-6.3c0,0,0-0.5,0.5-0.5h2.6c0,0,0.5,0,0.5,0.5v6.3
			c0,0,0,0.5,0.5,0.5h2.6c0,0,0.5,0,0.5,0.5v2.6c0,0,0,0.5,0.5,0.5h2.6c0,0,0.5,0,0.5,0.5v2.6c0,0,0,0.5-0.5,0.5h-6.3
			c0,0-0.5,0-0.5,0.5v2.6c0,0,0,0.5,0.5,0.5h2.6c0,0,0.5,0,0.5,0.5v2.6c0,0,0,0.5-0.5,0.5h-2.6c0,0-0.5,0-0.5,0.5v2.6
			c0,0,0,0.5-0.5,0.5H106c0,0-0.5,0-0.5,0.5v2.6c0,0,0,0.5-0.5,0.5h-2.6c0,0-0.5,0-0.5-0.5v-2.6c0,0,0-0.5-0.5-0.5h-9.9
			c0,0-0.5,0-0.5-0.5v-13.5c0,0,0-0.5-0.5-0.5h-2.6c0,0-0.5,0-0.5,0.5v13.5c0,0,0,0.5-0.5,0.5h-9.9c0,0-0.5,0-0.5-0.5v-2.6
			c0,0,0-0.5-0.5-0.5h-2.6c0,0-0.5,0-0.5,0.5v2.6c0,0,0,0.5-0.5,0.5h-9.9c0,0-0.5,0-0.5,0.5v2.6c0,0,0,0.5-0.5,0.5h-2.6
			c0,0-0.5,0-0.5-0.5v-2.6c0,0,0-0.5-0.5-0.5h-2.6c0,0-0.5,0-0.5,0.5v2.6c0,0,0,0.5,0.5,0.5h2.6c0,0,0.5,0,0.5,0.5v2.6
			c0,0,0,0.5-0.5,0.5h-6.3c0,0-0.5,0-0.5-0.5V169c0,0,0-0.5,0.5-0.5h2.6c0,0,0.5,0,0.5,0.5v2.6c0,0,0,0.5,0.5,0.5h2.6
			c0,0,0.5,0,0.5-0.5V169c0,0,0-0.5-0.5-0.5h-2.6c0,0-0.5,0-0.5-0.5v-2.6c0,0,0-0.5,0.5-0.5h9.9c0,0,0.5,0,0.5,0.5v6.3
			c0,0,0,0.5,0.5,0.5h2.6c0,0,0.5,0,0.5-0.5v-6.3c0,0,0-0.5-0.5-0.5h-2.6c0,0-0.5,0-0.5-0.5V158c0,0,0-0.5-0.5-0.5H51.3
			c0,0-0.5,0-0.5-0.5v-2.6c0,0,0-0.5-0.5-0.5h-2.6c0,0-0.5,0-0.5-0.5v-6.3c0,0,0-0.5-0.5-0.5H33.1c0,0-0.5,0-0.5-0.5v-2.6
			c0,0,0-0.5,0.5-0.5H43c0,0,0.5,0,0.5-0.5v-9.9c0,0,0-0.5,0.5-0.5h2.6c0,0,0.5,0,0.5,0.5v6.3c0,0,0,0.5,0.5,0.5h2.6
			c0,0,0.5,0,0.5,0.5v6.3c0,0,0,0.5,0.5,0.5h2.6c0,0,0.5,0,0.5,0.5v2.6c0,0,0,0.5,0.5,0.5h6.3c0,0,0.5,0,0.5,0.5v2.6
			c0,0,0,0.5,0.5,0.5h2.6c0,0,0.5,0,0.5-0.5v-6.3c0,0,0-0.5,0.5-0.5h6.3c0,0,0.5,0,0.5,0.5v2.6c0,0,0,0.5-0.5,0.5h-2.6
			c0,0-0.5,0-0.5,0.5v2.6c0,0,0,0.5,0.5,0.5h2.6c0,0,0.5,0,0.5,0.5v13.5c0,0,0,0.5,0.5,0.5h2.6c0,0,0.5,0,0.5-0.5v-2.6
			c0,0,0-0.5,0.5-0.5h2.6c0,0,0.5,0,0.5-0.5v-2.6c0,0,0-0.5-0.5-0.5h-2.6c0,0-0.5,0-0.5-0.5v-6.3c0,0,0-0.5,0.5-0.5h6.3
			c0,0,0.5,0,0.5-0.5v-2.6c0,0,0-0.5,0.5-0.5h2.6c0,0,0.5,0,0.5,0.5v6.3c0,0,0,0.5,0.5,0.5h2.6c0,0,0.5,0,0.5-0.5v-6.3
			c0,0,0-0.5,0.5-0.5H94c0,0,0.5,0,0.5-0.5v-2.6c0,0,0-0.5-0.5-0.5h-2.6c0,0-0.5,0-0.5-0.5v-6.3c0,0,0-0.5,0.5-0.5H94
			c0,0,0.5,0,0.5-0.5v-2.6c0,0,0-0.5-0.5-0.5h-6.3c0,0-0.5,0-0.5,0.5v6.3c0,0,0,0.5-0.5,0.5h-2.6c0,0-0.5,0-0.5,0.5v2.6
			c0,0,0,0.5-0.5,0.5h-2.6c0,0-0.5,0-0.5,0.5v2.6c0,0,0,0.5-0.5,0.5h-2.6c0,0-0.5,0-0.5-0.5v-6.3c0,0,0-0.5-0.5-0.5h-6.3
			c0,0-0.5,0-0.5-0.5v-6.3c0,0,0-0.5-0.5-0.5h-2.6c0,0-0.5,0-0.5,0.5v9.9c0,0,0,0.5-0.5,0.5h-2.6c0,0-0.5,0-0.5-0.5v-9.9
			c0,0,0-0.5-0.5-0.5h-9.9c0,0-0.5,0-0.5-0.5v-2.6c0,0,0-0.5,0.5-0.5h6.3c0,0,0.5,0,0.5-0.5v-2.6c0,0,0-0.5,0.5-0.5h2.6
			c0,0,0.5,0,0.5,0.5v2.6c0,0,0,0.5,0.5,0.5h9.9c0,0,0.5,0,0.5,0.5v2.6c0,0,0,0.5,0.5,0.5h9.9c0,0,0.5,0,0.5-0.5v-2.6
			c0,0,0-0.5,0.5-0.5h2.6c0,0,0.5,0,0.5-0.5v-6.3c0,0,0-0.5,0.5-0.5H94c0,0,0.5,0,0.5,0.5v2.6c0,0,0,0.5,0.5,0.5h2.6
			c0,0,0.5,0,0.5,0.5v2.6c0,0,0,0.5,0.5,0.5h2.6c0,0,0.5,0,0.5-0.5v-2.6c0,0,0-0.5-0.5-0.5h-2.6c0,0-0.5,0-0.5-0.5v-2.6
			c0,0,0-0.5,0.5-0.5h2.6c0,0,0.5,0,0.5-0.5V121.6 M95.1,161.2c0,0-0.5,0-0.5,0.5v9.9c0,0,0,0.5,0.5,0.5h9.9c0,0,0.5,0,0.5-0.5v-9.9
			c0,0,0-0.5-0.5-0.5H95.1 M80.5,168.5c0,0-0.5,0-0.5,0.5v2.6c0,0,0,0.5,0.5,0.5h2.6c0,0,0.5,0,0.5-0.5V169c0,0,0-0.5-0.5-0.5H80.5z
			"/>
		<path id="p28" class="st0" d="M32.5,158c0,0,0-0.5,0.5-0.5h2.6c0,0,0.5,0,0.5,0.5v2.6c0,0,0,0.5-0.5,0.5h-2.6c0,0-0.5,0-0.5-0.5
			V158z"/>
		<path id="p29" class="st0" d="M36.2,52.3c0,0,0-0.5,0.5-0.5h2.6c0,0,0.5,0,0.5,0.5v2.6c0,0,0,0.5-0.5,0.5h-2.6c0,0-0.5,0-0.5-0.5
			V52.3z"/>
		<path id="p30" class="st0" d="M36.2,74.2c0,0,0-0.5,0.5-0.5h2.6c0,0,0.5,0,0.5,0.5v2.6c0,0,0,0.5-0.5,0.5h-2.6c0,0-0.5,0-0.5-0.5
			V74.2z"/>
		<path id="p31" class="st0" d="M43.5,114.3c0,0,0-0.5,0.5-0.5h6.3c0,0,0.5,0,0.5,0.5v2.6c0,0,0,0.5-0.5,0.5h-2.6c0,0-0.5,0-0.5,0.5
			v6.3c0,0,0,0.5-0.5,0.5h-6.3c0,0-0.5,0-0.5-0.5v-2.6c0,0,0-0.5-0.5-0.5h-2.6c0,0-0.5,0-0.5-0.5v-2.6c0,0,0-0.5,0.5-0.5H43
			c0,0,0.5,0,0.5-0.5V114.3z"/>
		<path id="p32" class="st0" d="M39.8,12.2c0,0,0-0.5,0.5-0.5H43c0,0,0.5,0,0.5,0.5v2.6c0,0,0,0.5,0.5,0.5h6.3c0,0,0.5,0,0.5,0.5
			v2.6c0,0,0,0.5-0.5,0.5h-9.9c0,0-0.5,0-0.5-0.5V12.2z"/>
		<path id="p33" class="st0" d="M39.8,23.1c0,0,0-0.5,0.5-0.5H43c0,0,0.5,0,0.5,0.5v13.5c0,0,0,0.5-0.5,0.5h-2.6c0,0-0.5,0-0.5-0.5
			V23.1z"/>
		<path id="p34" class="st0" d="M39.8,45c0,0,0-0.5,0.5-0.5H43c0,0,0.5,0,0.5,0.5v2.6c0,0,0,0.5,0.5,0.5h2.6c0,0,0.5,0,0.5,0.5v2.6
			c0,0,0,0.5,0.5,0.5h2.6c0,0,0.5,0,0.5,0.5v2.6c0,0,0,0.5-0.5,0.5H44c0,0-0.5,0-0.5-0.5v-2.6c0,0,0-0.5-0.5-0.5h-2.6
			c0,0-0.5,0-0.5-0.5V45z"/>
		<path id="p35" class="st0" d="M39.8,55.9c0,0,0-0.5,0.5-0.5H43c0,0,0.5,0,0.5,0.5v2.6c0,0,0,0.5-0.5,0.5h-2.6c0,0-0.5,0-0.5-0.5
			V55.9z"/>
		<path id="p36" class="st0" d="M39.8,81.5c0,0,0-0.5,0.5-0.5H43c0,0,0.5,0,0.5,0.5v2.6c0,0,0,0.5-0.5,0.5h-2.6c0,0-0.5,0-0.5-0.5
			V81.5z"/>
		<path id="p37" class="st0" d="M39.8,128.9c0,0,0-0.5,0.5-0.5H43c0,0,0.5,0,0.5,0.5v2.6c0,0,0,0.5-0.5,0.5h-2.6c0,0-0.5,0-0.5-0.5
			V128.9z"/>
		<path id="p38" class="st0" d="M39.8,154.4c0,0,0-0.5,0.5-0.5H43c0,0,0.5,0,0.5,0.5v2.6c0,0,0,0.5-0.5,0.5h-2.6c0,0-0.5,0-0.5-0.5
			V154.4z"/>
		<path id="p39" class="st0" d="M39.8,161.7c0,0,0-0.5,0.5-0.5H43c0,0,0.5,0,0.5,0.5v2.6c0,0,0,0.5-0.5,0.5h-2.6c0,0-0.5,0-0.5-0.5
			V161.7z"/>
		<path id="p40" class="st0" d="M39.8,176.3c0,0,0-0.5,0.5-0.5H43c0,0,0.5,0,0.5,0.5v2.6c0,0,0,0.5-0.5,0.5h-2.6c0,0-0.5,0-0.5-0.5
			V176.3z"/>
		<path id="p41" class="st0" d="M43.5,37.7c0,0,0-0.5,0.5-0.5h2.6c0,0,0.5,0,0.5,0.5V44c0,0,0,0.5-0.5,0.5H44c0,0-0.5,0-0.5-0.5
			V37.7z"/>
		<path id="p42" class="st0" d="M43.5,63.2c0,0,0-0.5,0.5-0.5h2.6c0,0,0.5,0,0.5,0.5v2.6c0,0,0,0.5-0.5,0.5H44c0,0-0.5,0-0.5-0.5
			V63.2z"/>
		<path id="p43" class="st0" d="M43.5,158c0,0,0-0.5,0.5-0.5h2.6c0,0,0.5,0,0.5,0.5v2.6c0,0,0,0.5-0.5,0.5H44c0,0-0.5,0-0.5-0.5V158
			z"/>
		<path id="p44" class="st0" d="M43.5,165.3c0,0,0-0.5,0.5-0.5h2.6c0,0,0.5,0,0.5,0.5v6.3c0,0,0,0.5-0.5,0.5H44c0,0-0.5,0-0.5-0.5
			V165.3z"/>
		<path id="p45" class="st0" d="M43.5,179.9c0,0,0-0.5,0.5-0.5h2.6c0,0,0.5,0,0.5,0.5v2.6c0,0,0,0.5,0.5,0.5h2.6c0,0,0.5,0,0.5,0.5
			v2.6c0,0,0,0.5-0.5,0.5h-2.6c0,0-0.5,0-0.5,0.5v2.6c0,0,0,0.5-0.5,0.5H44c0,0-0.5,0-0.5-0.5V179.9z"/>
		<path id="p46" class="st0" d="M47.1,23.1c0,0,0-0.5,0.5-0.5h2.6c0,0,0.5,0,0.5,0.5v2.6c0,0,0,0.5-0.5,0.5h-2.6c0,0-0.5,0-0.5-0.5
			V23.1z"/>
		<path id="p47" class="st0" d="M47.1,34.1c0,0,0-0.5,0.5-0.5h2.6c0,0,0.5,0,0.5,0.5v2.6c0,0,0,0.5-0.5,0.5h-2.6c0,0-0.5,0-0.5-0.5
			V34.1z"/>
		<path id="p48" class="st0" d="M47.1,45c0,0,0-0.5,0.5-0.5h6.3c0,0,0.5,0,0.5,0.5v6.3c0,0,0,0.5-0.5,0.5h-2.6c0,0-0.5,0-0.5-0.5
			v-2.6c0,0,0-0.5-0.5-0.5h-2.6c0,0-0.5,0-0.5-0.5V45z"/>
		<path id="p49" class="st0" d="M47.1,66.9c0,0,0-0.5,0.5-0.5h6.3c0,0,0.5,0,0.5,0.5v6.3c0,0,0,0.5-0.5,0.5h-2.6c0,0-0.5,0-0.5-0.5
			v-2.6c0,0,0-0.5-0.5-0.5h-2.6c0,0-0.5,0-0.5-0.5V66.9z"/>
		<path id="p50" class="st0" d="M50.8,121.6c0,0,0-0.5,0.5-0.5h2.6c0,0,0.5,0,0.5,0.5v6.3c0,0,0,0.5-0.5,0.5h-2.6c0,0-0.5,0-0.5,0.5
			v2.6c0,0,0,0.5-0.5,0.5h-2.6c0,0-0.5,0-0.5-0.5v-6.3c0,0,0-0.5,0.5-0.5h2.6c0,0,0.5,0,0.5-0.5V121.6z"/>
		<path id="p51" class="st0" d="M47.1,161.7c0,0,0-0.5,0.5-0.5h6.3c0,0,0.5,0,0.5,0.5v2.6c0,0,0,0.5-0.5,0.5h-6.3c0,0-0.5,0-0.5-0.5
			V161.7z"/>
		<path id="p52" class="st0" d="M50.8,12.2c0,0,0-0.5,0.5-0.5h2.6c0,0,0.5,0,0.5,0.5v2.6c0,0,0,0.5-0.5,0.5h-2.6c0,0-0.5,0-0.5-0.5
			V12.2z"/>
		<path id="p53" class="st0" d="M54.4,23.1c0,0,0-0.5,0.5-0.5h6.3c0,0,0.5,0,0.5,0.5v2.6c0,0,0,0.5,0.5,0.5h6.3c0,0,0.5,0,0.5,0.5
			v2.6c0,0,0,0.5-0.5,0.5h-2.6c0,0-0.5,0-0.5,0.5v9.9c0,0,0,0.5-0.5,0.5h-2.6c0,0-0.5,0-0.5,0.5V44c0,0,0,0.5-0.5,0.5h-6.3
			c0,0-0.5,0-0.5-0.5v-2.6c0,0,0-0.5,0.5-0.5h2.6c0,0,0.5,0,0.5-0.5v-2.6c0,0,0-0.5,0.5-0.5h2.6c0,0,0.5,0,0.5-0.5v-2.6
			c0,0,0-0.5-0.5-0.5h-2.6c0,0-0.5,0-0.5-0.5v-2.6c0,0,0-0.5-0.5-0.5h-6.3c0,0-0.5,0-0.5-0.5v-2.6c0,0,0-0.5,0.5-0.5h2.6
			c0,0,0.5,0,0.5-0.5V23.1z"/>
		<path id="p54" class="st0" d="M54.4,52.3c0,0,0-0.5,0.5-0.5h2.6c0,0,0.5,0,0.5,0.5v2.6c0,0,0,0.5,0.5,0.5h2.6c0,0,0.5,0,0.5,0.5
			v2.6c0,0,0,0.5-0.5,0.5h-2.6c0,0-0.5,0-0.5,0.5v6.3c0,0,0,0.5-0.5,0.5h-2.6c0,0-0.5,0-0.5-0.5v-6.3c0,0,0-0.5-0.5-0.5h-2.6
			c0,0-0.5,0-0.5-0.5v-2.6c0,0,0-0.5,0.5-0.5h2.6c0,0,0.5,0,0.5-0.5V52.3z"/>
		<path id="p55" class="st0" d="M58.1,183.6c0,0,0-0.5,0.5-0.5h6.3c0,0,0.5,0,0.5,0.5v6.3c0,0,0,0.5-0.5,0.5H51.3c0,0-0.5,0-0.5-0.5
			v-2.6c0,0,0-0.5,0.5-0.5h6.3c0,0,0.5,0,0.5-0.5V183.6z"/>
		<path id="p56" class="st0" d="M54.4,15.8c0,0,0-0.5,0.5-0.5h2.6c0,0,0.5,0,0.5,0.5v2.6c0,0,0,0.5-0.5,0.5h-2.6c0,0-0.5,0-0.5-0.5
			V15.8z"/>
		<path id="p57" class="st0" d="M54.4,34.1c0,0,0-0.5,0.5-0.5h2.6c0,0,0.5,0,0.5,0.5v2.6c0,0,0,0.5-0.5,0.5h-2.6c0,0-0.5,0-0.5-0.5
			V34.1z"/>
		<path id="p58" class="st0" d="M54.4,117.9c0,0,0-0.5,0.5-0.5h6.3c0,0,0.5,0,0.5,0.5v2.6c0,0,0,0.5-0.5,0.5h-6.3c0,0-0.5,0-0.5-0.5
			V117.9z"/>
		<path id="p59" class="st0" d="M54.4,139.8c0,0,0-0.5,0.5-0.5h2.6c0,0,0.5,0,0.5,0.5v2.6c0,0,0,0.5-0.5,0.5h-2.6c0,0-0.5,0-0.5-0.5
			V139.8z"/>
		<path id="p60" class="st0" d="M58.1,12.2c0,0,0-0.5,0.5-0.5h6.3c0,0,0.5,0,0.5,0.5v2.6c0,0,0,0.5-0.5,0.5h-6.3c0,0-0.5,0-0.5-0.5
			V12.2z"/>
		<path id="p61" class="st0" d="M58.1,48.7c0,0,0-0.5,0.5-0.5h6.3c0,0,0.5,0,0.5,0.5v2.6c0,0,0,0.5-0.5,0.5h-6.3c0,0-0.5,0-0.5-0.5
			V48.7z"/>
		<path id="p62" class="st0" d="M61.7,59.6c0,0,0-0.5,0.5-0.5h2.6c0,0,0.5,0,0.5,0.5v6.3c0,0,0,0.5,0.5,0.5h2.6c0,0,0.5,0,0.5,0.5
			v2.6c0,0,0,0.5,0.5,0.5h6.3c0,0,0.5,0,0.5-0.5v-2.6c0,0,0-0.5,0.5-0.5h2.6c0,0,0.5,0,0.5,0.5v6.3c0,0,0,0.5,0.5,0.5h2.6
			c0,0,0.5,0,0.5,0.5v2.6c0,0,0,0.5-0.5,0.5h-6.3c0,0-0.5,0-0.5-0.5v-2.6c0,0,0-0.5-0.5-0.5h-2.6c0,0-0.5,0-0.5,0.5v2.6
			c0,0,0,0.5-0.5,0.5h-2.6c0,0-0.5,0-0.5-0.5v-2.6c0,0,0-0.5-0.5-0.5h-2.6c0,0-0.5,0-0.5,0.5v2.6c0,0,0,0.5-0.5,0.5h-2.6
			c0,0-0.5,0-0.5-0.5v-6.3c0,0,0-0.5-0.5-0.5h-2.6c0,0-0.5,0-0.5-0.5v-2.6c0,0,0-0.5,0.5-0.5h2.6c0,0,0.5,0,0.5-0.5V59.6z"/>
		<path id="p63" class="st0" d="M58.1,81.5c0,0,0-0.5,0.5-0.5h2.6c0,0,0.5,0,0.5,0.5v2.6c0,0,0,0.5-0.5,0.5h-2.6c0,0-0.5,0-0.5-0.5
			V81.5z"/>
		<path id="p64" class="st0" d="M58.1,107c0,0,0-0.5,0.5-0.5h2.6c0,0,0.5,0,0.5,0.5v2.6c0,0,0,0.5-0.5,0.5h-2.6c0,0-0.5,0-0.5-0.5
			V107z"/>
		<path id="p65" class="st0" d="M72.7,81.5c0,0,0-0.5,0.5-0.5h2.6c0,0,0.5,0,0.5,0.5v6.3c0,0,0,0.5-0.5,0.5h-2.6c0,0-0.5,0-0.5,0.5
			v9.9c0,0,0,0.5-0.5,0.5h-2.6c0,0-0.5,0-0.5-0.5v-2.6c0,0,0-0.5-0.5-0.5h-6.3c0,0-0.5,0-0.5-0.5v-9.9c0,0,0-0.5,0.5-0.5h2.6
			c0,0,0.5,0,0.5,0.5v6.3c0,0,0,0.5,0.5,0.5h2.6c0,0,0.5,0,0.5-0.5v-6.3c0,0,0-0.5,0.5-0.5h2.6c0,0,0.5,0,0.5-0.5V81.5z"/>
		<path id="p66" class="st0" d="M61.7,103.3c0,0,0-0.5,0.5-0.5h2.6c0,0,0.5,0,0.5,0.5v2.6c0,0,0,0.5-0.5,0.5h-2.6c0,0-0.5,0-0.5-0.5
			V103.3z"/>
		<path id="p67" class="st0" d="M65.4,107c0,0,0-0.5,0.5-0.5h2.6c0,0,0.5,0,0.5,0.5v2.6c0,0,0,0.5,0.5,0.5h2.6c0,0,0.5,0,0.5,0.5
			v2.6c0,0,0,0.5-0.5,0.5h-2.6c0,0-0.5,0-0.5,0.5v2.6c0,0,0,0.5,0.5,0.5h6.3c0,0,0.5,0,0.5,0.5v2.6c0,0,0,0.5-0.5,0.5h-2.6
			c0,0-0.5,0-0.5,0.5v6.3c0,0,0,0.5-0.5,0.5h-2.6c0,0-0.5,0-0.5-0.5v-2.6c0,0,0-0.5-0.5-0.5h-2.6c0,0-0.5,0-0.5-0.5v-9.9
			c0,0,0-0.5-0.5-0.5h-2.6c0,0-0.5,0-0.5-0.5v-2.6c0,0,0-0.5,0.5-0.5h2.6c0,0,0.5,0,0.5-0.5V107z"/>
		<path id="p68" class="st0" d="M65.4,15.8c0,0,0-0.5,0.5-0.5h2.6c0,0,0.5,0,0.5,0.5v2.6c0,0,0,0.5-0.5,0.5h-2.6c0,0-0.5,0-0.5-0.5
			V15.8z"/>
		<path id="p69" class="st0" d="M65.4,41.4c0,0,0-0.5,0.5-0.5h2.6c0,0,0.5,0,0.5,0.5V44c0,0,0,0.5-0.5,0.5h-2.6c0,0-0.5,0-0.5-0.5
			V41.4z"/>
		<path id="p70" class="st0" d="M65.4,52.3c0,0,0-0.5,0.5-0.5h2.6c0,0,0.5,0,0.5,0.5v2.6c0,0,0,0.5-0.5,0.5h-2.6c0,0-0.5,0-0.5-0.5
			V52.3z"/>
		<path id="p71" class="st0" d="M65.4,77.8c0,0,0-0.5,0.5-0.5h2.6c0,0,0.5,0,0.5,0.5v6.3c0,0,0,0.5-0.5,0.5h-2.6c0,0-0.5,0-0.5-0.5
			V77.8z"/>
		<path id="p72" class="st0" d="M65.4,99.7c0,0,0-0.5,0.5-0.5h2.6c0,0,0.5,0,0.5,0.5v2.6c0,0,0,0.5-0.5,0.5h-2.6c0,0-0.5,0-0.5-0.5
			V99.7z"/>
		<path id="p73" class="st0" d="M69,12.2c0,0,0-0.5,0.5-0.5h6.3c0,0,0.5,0,0.5,0.5v6.3c0,0,0,0.5-0.5,0.5h-2.6c0,0-0.5,0-0.5-0.5
			v-2.6c0,0,0-0.5-0.5-0.5h-2.6c0,0-0.5,0-0.5-0.5V12.2z"/>
		<path id="p74" class="st0" d="M69,19.5c0,0,0-0.5,0.5-0.5h2.6c0,0,0.5,0,0.5,0.5v2.6c0,0,0,0.5-0.5,0.5h-2.6c0,0-0.5,0-0.5-0.5
			V19.5z"/>
		<path id="p75" class="st0" d="M87.2,12.2c0,0,0-0.5,0.5-0.5h9.9c0,0,0.5,0,0.5,0.5v6.3c0,0,0,0.5,0.5,0.5h2.6c0,0,0.5,0,0.5,0.5
			v6.3c0,0,0,0.5,0.5,0.5h6.3c0,0,0.5,0,0.5,0.5V44c0,0,0,0.5,0.5,0.5h2.6c0,0,0.5,0,0.5-0.5v-9.9c0,0,0-0.5,0.5-0.5h2.6
			c0,0,0.5,0,0.5,0.5V44c0,0,0,0.5,0.5,0.5h2.6c0,0,0.5,0,0.5-0.5v-9.9c0,0,0-0.5-0.5-0.5h-2.6c0,0-0.5,0-0.5-0.5v-2.6
			c0,0,0-0.5,0.5-0.5h2.6c0,0,0.5,0,0.5-0.5v-6.3c0,0,0-0.5,0.5-0.5h6.3c0,0,0.5,0,0.5,0.5v2.6c0,0,0,0.5,0.5,0.5h2.6
			c0,0,0.5,0,0.5,0.5v2.6c0,0,0,0.5-0.5,0.5h-6.3c0,0-0.5,0-0.5,0.5v17.2c0,0,0,0.5-0.5,0.5h-6.3c0,0-0.5,0-0.5,0.5v6.3
			c0,0,0,0.5-0.5,0.5h-2.6c0,0-0.5,0-0.5,0.5v6.3c0,0,0,0.5,0.5,0.5h2.6c0,0,0.5,0,0.5,0.5v2.6c0,0,0,0.5,0.5,0.5h9.9
			c0,0,0.5,0,0.5-0.5v-2.6c0,0,0-0.5,0.5-0.5h2.6c0,0,0.5,0,0.5,0.5v6.3c0,0,0,0.5-0.5,0.5h-2.6c0,0-0.5,0-0.5,0.5v2.6
			c0,0,0,0.5-0.5,0.5h-2.6c0,0-0.5,0-0.5,0.5v2.6c0,0,0,0.5-0.5,0.5h-2.6c0,0-0.5,0-0.5,0.5v2.6c0,0,0,0.5,0.5,0.5h2.6
			c0,0,0.5,0,0.5,0.5v2.6c0,0,0,0.5-0.5,0.5h-6.3c0,0-0.5,0-0.5-0.5v-2.6c0,0,0-0.5-0.5-0.5h-2.6c0,0-0.5,0-0.5-0.5v-2.6
			c0,0,0-0.5,0.5-0.5h2.6c0,0,0.5,0,0.5-0.5v-2.6c0,0,0-0.5,0.5-0.5h2.6c0,0,0.5,0,0.5-0.5v-2.6c0,0,0-0.5-0.5-0.5h-2.6
			c0,0-0.5,0-0.5,0.5v2.6c0,0,0,0.5-0.5,0.5h-2.6c0,0-0.5,0-0.5-0.5v-2.6c0,0,0-0.5-0.5-0.5H106c0,0-0.5,0-0.5-0.5v-6.3
			c0,0,0-0.5-0.5-0.5h-2.6c0,0-0.5,0-0.5,0.5v2.6c0,0,0,0.5-0.5,0.5h-6.3c0,0-0.5,0-0.5,0.5v2.6c0,0,0,0.5,0.5,0.5h9.9
			c0,0,0.5,0,0.5,0.5v2.6c0,0,0,0.5-0.5,0.5h-2.6c0,0-0.5,0-0.5,0.5v2.6c0,0,0,0.5,0.5,0.5h2.6c0,0,0.5,0,0.5-0.5v-2.6
			c0,0,0-0.5,0.5-0.5h6.3c0,0,0.5,0,0.5,0.5v2.6c0,0,0,0.5-0.5,0.5h-2.6c0,0-0.5,0-0.5,0.5v2.6c0,0,0,0.5-0.5,0.5H106
			c0,0-0.5,0-0.5,0.5v6.3c0,0,0,0.5-0.5,0.5h-6.3c0,0-0.5,0-0.5-0.5v-2.6c0,0,0-0.5-0.5-0.5h-2.6c0,0-0.5,0-0.5-0.5v-2.6
			c0,0,0-0.5-0.5-0.5h-6.3c0,0-0.5,0-0.5-0.5v-2.6c0,0,0-0.5,0.5-0.5H94c0,0,0.5,0,0.5-0.5v-2.6c0,0,0-0.5-0.5-0.5h-9.9
			c0,0-0.5,0-0.5-0.5v-2.6c0,0,0-0.5,0.5-0.5h6.3c0,0,0.5,0,0.5-0.5v-2.6c0,0,0-0.5-0.5-0.5h-2.6c0,0-0.5,0-0.5-0.5v-2.6
			c0,0,0-0.5,0.5-0.5H94c0,0,0.5,0,0.5-0.5V48.7c0,0,0-0.5,0.5-0.5h2.6c0,0,0.5,0,0.5,0.5v2.6c0,0,0,0.5,0.5,0.5h2.6
			c0,0,0.5,0,0.5,0.5v2.6c0,0,0,0.5,0.5,0.5h2.6c0,0,0.5,0,0.5,0.5v2.6c0,0,0,0.5,0.5,0.5h2.6c0,0,0.5,0,0.5-0.5v-2.6
			c0,0,0-0.5-0.5-0.5H106c0,0-0.5,0-0.5-0.5v-2.6c0,0,0-0.5,0.5-0.5h2.6c0,0,0.5,0,0.5-0.5v-2.6c0,0,0-0.5-0.5-0.5h-9.9
			c0,0-0.5,0-0.5-0.5V45c0,0,0-0.5-0.5-0.5h-6.3c0,0-0.5,0-0.5,0.5v2.6c0,0,0,0.5-0.5,0.5h-6.3c0,0-0.5,0-0.5,0.5v2.6
			c0,0,0,0.5,0.5,0.5h6.3c0,0,0.5,0,0.5,0.5v6.3c0,0,0,0.5-0.5,0.5h-6.3c0,0-0.5,0-0.5-0.5v-2.6c0,0,0-0.5-0.5-0.5h-9.9
			c0,0-0.5,0-0.5-0.5v-2.6c0,0,0-0.5,0.5-0.5h6.3c0,0,0.5,0,0.5-0.5v-2.6c0,0,0-0.5-0.5-0.5h-6.3c0,0-0.5,0-0.5,0.5v2.6
			c0,0,0,0.5-0.5,0.5h-2.6c0,0-0.5,0-0.5-0.5V45c0,0,0-0.5,0.5-0.5h2.6c0,0,0.5,0,0.5-0.5v-6.3c0,0,0-0.5,0.5-0.5h2.6
			c0,0,0.5,0,0.5,0.5V44c0,0,0,0.5,0.5,0.5h9.9c0,0,0.5,0,0.5-0.5v-2.6c0,0,0-0.5-0.5-0.5h-2.6c0,0-0.5,0-0.5-0.5v-6.3
			c0,0,0-0.5-0.5-0.5h-2.6c0,0-0.5,0-0.5,0.5v2.6c0,0,0,0.5-0.5,0.5h-2.6c0,0-0.5,0-0.5-0.5v-2.6c0,0,0-0.5-0.5-0.5h-2.6
			c0,0-0.5,0-0.5,0.5v2.6c0,0,0,0.5-0.5,0.5h-2.6c0,0-0.5,0-0.5-0.5v-6.3c0,0,0-0.5,0.5-0.5h2.6c0,0,0.5,0,0.5-0.5v-6.3
			c0,0,0-0.5,0.5-0.5h2.6c0,0,0.5,0,0.5,0.5v6.3c0,0,0,0.5,0.5,0.5h2.6c0,0,0.5,0,0.5-0.5v-2.6c0,0,0-0.5,0.5-0.5h2.6
			c0,0,0.5,0,0.5,0.5v2.6c0,0,0,0.5,0.5,0.5h6.3c0,0,0.5,0,0.5-0.5v-2.6c0,0,0-0.5-0.5-0.5h-6.3c0,0-0.5,0-0.5-0.5v-2.6
			c0,0,0-0.5,0.5-0.5h2.6c0,0,0.5,0,0.5-0.5v-2.6c0,0,0-0.5,0.5-0.5h2.6c0,0,0.5,0,0.5-0.5v-2.6c0,0,0-0.5-0.5-0.5h-2.6
			c0,0-0.5,0-0.5-0.5V12.2 M95.1,29.9c0,0-0.5,0-0.5,0.5v9.9c0,0,0,0.5,0.5,0.5h9.9c0,0,0.5,0,0.5-0.5v-9.9c0,0,0-0.5-0.5-0.5H95.1
			 M87.8,33.5c0,0-0.5,0-0.5,0.5v2.6c0,0,0,0.5,0.5,0.5h2.6c0,0,0.5,0,0.5-0.5v-2.6c0,0,0-0.5-0.5-0.5H87.8z"/>
		<path id="p76" class="st0" d="M69,55.9c0,0,0-0.5,0.5-0.5h2.6c0,0,0.5,0,0.5,0.5v6.3c0,0,0,0.5,0.5,0.5h2.6c0,0,0.5,0,0.5,0.5v2.6
			c0,0,0,0.5-0.5,0.5h-6.3c0,0-0.5,0-0.5-0.5V55.9z"/>
		<path id="p77" class="st0" d="M69,103.3c0,0,0-0.5,0.5-0.5h2.6c0,0,0.5,0,0.5,0.5v2.6c0,0,0,0.5-0.5,0.5h-2.6c0,0-0.5,0-0.5-0.5
			V103.3z"/>
		<path id="p78" class="st0" d="M69,179.9c0,0,0-0.5,0.5-0.5h2.6c0,0,0.5,0,0.5,0.5v9.9c0,0,0,0.5-0.5,0.5h-2.6c0,0-0.5,0-0.5-0.5
			V179.9z"/>
		<path id="p79" class="st0" d="M72.7,150.7c0,0,0-0.5,0.5-0.5h2.6c0,0,0.5,0,0.5,0.5v2.6c0,0,0,0.5-0.5,0.5h-2.6c0,0-0.5,0-0.5-0.5
			V150.7z"/>
		<path id="p80" class="st0" d="M76.3,125.2c0,0,0-0.5,0.5-0.5h6.3c0,0,0.5,0,0.5,0.5v6.3c0,0,0,0.5-0.5,0.5h-2.6c0,0-0.5,0-0.5-0.5
			v-2.6c0,0,0-0.5-0.5-0.5h-2.6c0,0-0.5,0-0.5-0.5V125.2z"/>
		<path id="p81" class="st0" d="M76.3,183.6c0,0,0-0.5,0.5-0.5h2.6c0,0,0.5,0,0.5,0.5v6.3c0,0,0,0.5-0.5,0.5h-2.6c0,0-0.5,0-0.5-0.5
			V183.6z"/>
		<path id="p82" class="st0" d="M79.9,12.2c0,0,0-0.5,0.5-0.5h2.6c0,0,0.5,0,0.5,0.5v2.6c0,0,0,0.5,0.5,0.5h2.6c0,0,0.5,0,0.5,0.5
			v2.6c0,0,0,0.5-0.5,0.5h-6.3c0,0-0.5,0-0.5-0.5V12.2z"/>
		<path id="p83" class="st0" d="M79.9,63.2c0,0,0-0.5,0.5-0.5h2.6c0,0,0.5,0,0.5,0.5v2.6c0,0,0,0.5-0.5,0.5h-2.6c0,0-0.5,0-0.5-0.5
			V63.2z"/>
		<path id="p84" class="st0" d="M79.9,81.5c0,0,0-0.5,0.5-0.5h2.6c0,0,0.5,0,0.5,0.5v2.6c0,0,0,0.5,0.5,0.5h2.6c0,0,0.5,0,0.5,0.5
			v2.6c0,0,0,0.5-0.5,0.5h-6.3c0,0-0.5,0-0.5-0.5V81.5z"/>
		<path id="p85" class="st0" d="M79.9,117.9c0,0,0-0.5,0.5-0.5h6.3c0,0,0.5,0,0.5,0.5v2.6c0,0,0,0.5-0.5,0.5h-6.3c0,0-0.5,0-0.5-0.5
			V117.9z"/>
		<path id="p86" class="st0" d="M79.9,179.9c0,0,0-0.5,0.5-0.5h2.6c0,0,0.5,0,0.5,0.5v2.6c0,0,0,0.5-0.5,0.5h-2.6c0,0-0.5,0-0.5-0.5
			V179.9z"/>
		<path id="p87" class="st0" d="M83.6,183.6c0,0,0-0.5,0.5-0.5h2.6c0,0,0.5,0,0.5,0.5v2.6c0,0,0,0.5,0.5,0.5h2.6c0,0,0.5,0,0.5,0.5
			v2.6c0,0,0,0.5-0.5,0.5h-6.3c0,0-0.5,0-0.5-0.5V183.6z"/>
		<path id="p88" class="st0" d="M90.9,85.1c0,0,0-0.5,0.5-0.5H94c0,0,0.5,0,0.5,0.5v2.6c0,0,0,0.5-0.5,0.5h-2.6c0,0-0.5,0-0.5-0.5
			V85.1z"/>
		<path id="p89" class="st0" d="M90.9,179.9c0,0,0-0.5,0.5-0.5h9.9c0,0,0.5,0,0.5,0.5v2.6c0,0,0,0.5-0.5,0.5h-2.6c0,0-0.5,0-0.5,0.5
			v2.6c0,0,0,0.5-0.5,0.5h-2.6c0,0-0.5,0-0.5-0.5v-2.6c0,0,0-0.5-0.5-0.5h-2.6c0,0-0.5,0-0.5-0.5V179.9z"/>
		<path id="p90" class="st0" d="M94.5,117.9c0,0,0-0.5,0.5-0.5h2.6c0,0,0.5,0,0.5,0.5v6.3c0,0,0,0.5-0.5,0.5h-2.6c0,0-0.5,0-0.5-0.5
			V117.9z"/>
		<path id="p91" class="st0" d="M98.2,34.1c0,0,0-0.5,0.5-0.5h2.6c0,0,0.5,0,0.5,0.5v2.6c0,0,0,0.5-0.5,0.5h-2.6c0,0-0.5,0-0.5-0.5
			V34.1z"/>
		<path id="p92" class="st0" d="M98.2,165.3c0,0,0-0.5,0.5-0.5h2.6c0,0,0.5,0,0.5,0.5v2.6c0,0,0,0.5-0.5,0.5h-2.6c0,0-0.5,0-0.5-0.5
			V165.3z"/>
		<path id="p93" class="st0" d="M101.8,183.6c0,0,0-0.5,0.5-0.5h2.6c0,0,0.5,0,0.5,0.5v6.3c0,0,0,0.5-0.5,0.5h-6.3
			c0,0-0.5,0-0.5-0.5v-2.6c0,0,0-0.5,0.5-0.5h2.6c0,0,0.5,0,0.5-0.5V183.6z"/>
		<path id="p94" class="st0" d="M101.8,12.2c0,0,0-0.5,0.5-0.5h2.6c0,0,0.5,0,0.5,0.5v2.6c0,0,0,0.5-0.5,0.5h-2.6c0,0-0.5,0-0.5-0.5
			V12.2z"/>
		<path id="p95" class="st0" d="M116.4,12.2c0,0,0-0.5,0.5-0.5h2.6c0,0,0.5,0,0.5,0.5v9.9c0,0,0,0.5-0.5,0.5h-2.6c0,0-0.5,0-0.5,0.5
			v2.6c0,0,0,0.5-0.5,0.5h-2.6c0,0-0.5,0-0.5-0.5v-2.6c0,0,0-0.5-0.5-0.5h-2.6c0,0-0.5,0-0.5-0.5v-2.6c0,0,0-0.5-0.5-0.5H106
			c0,0-0.5,0-0.5-0.5v-2.6c0,0,0-0.5,0.5-0.5h6.3c0,0,0.5,0,0.5,0.5v2.6c0,0,0,0.5,0.5,0.5h2.6c0,0,0.5,0,0.5-0.5V12.2z"/>
		<path id="p96" class="st0" d="M105.5,117.9c0,0,0-0.5,0.5-0.5h2.6c0,0,0.5,0,0.5,0.5v2.6c0,0,0,0.5-0.5,0.5H106c0,0-0.5,0-0.5-0.5
			V117.9z"/>
		<path id="p97" class="st0" d="M112.8,132.5c0,0,0-0.5,0.5-0.5h6.3c0,0,0.5,0,0.5,0.5v2.6c0,0,0,0.5-0.5,0.5h-2.6
			c0,0-0.5,0-0.5,0.5v2.6c0,0,0,0.5,0.5,0.5h2.6c0,0,0.5,0,0.5,0.5v6.3c0,0,0,0.5,0.5,0.5h2.6c0,0,0.5,0,0.5-0.5v-6.3
			c0,0,0-0.5,0.5-0.5h2.6c0,0,0.5,0,0.5,0.5v2.6c0,0,0,0.5,0.5,0.5h2.6c0,0,0.5,0,0.5-0.5v-2.6c0,0,0-0.5,0.5-0.5h2.6
			c0,0,0.5,0,0.5,0.5v2.6c0,0,0,0.5,0.5,0.5h6.3c0,0,0.5,0,0.5-0.5v-2.6c0,0,0-0.5,0.5-0.5h9.9c0,0,0.5,0,0.5,0.5v2.6
			c0,0,0,0.5-0.5,0.5h-2.6c0,0-0.5,0-0.5,0.5v6.3c0,0,0,0.5-0.5,0.5h-2.6c0,0-0.5,0-0.5-0.5v-2.6c0,0,0-0.5-0.5-0.5h-6.3
			c0,0-0.5,0-0.5,0.5v2.6c0,0,0,0.5-0.5,0.5h-2.6c0,0-0.5,0-0.5-0.5v-2.6c0,0,0-0.5-0.5-0.5h-6.3c0,0-0.5,0-0.5,0.5v2.6
			c0,0,0,0.5-0.5,0.5h-2.6c0,0-0.5,0-0.5,0.5v2.6c0,0,0,0.5-0.5,0.5h-9.9c0,0-0.5,0-0.5-0.5v-9.9c0,0,0-0.5-0.5-0.5H106
			c0,0-0.5,0-0.5-0.5v-2.6c0,0,0-0.5,0.5-0.5h6.3c0,0,0.5,0,0.5-0.5V132.5z"/>
		<path id="p98" class="st0" d="M109.1,121.6c0,0,0-0.5,0.5-0.5h2.6c0,0,0.5,0,0.5,0.5v2.6c0,0,0,0.5-0.5,0.5h-2.6
			c0,0-0.5,0-0.5-0.5V121.6z"/>
		<path id="p99" class="st0" d="M109.1,187.2c0,0,0-0.5,0.5-0.5h2.6c0,0,0.5,0,0.5,0.5v2.6c0,0,0,0.5-0.5,0.5h-2.6
			c0,0-0.5,0-0.5-0.5V187.2z"/>
		<path id="p100" class="st0" d="M112.8,85.1c0,0,0-0.5,0.5-0.5h2.6c0,0,0.5,0,0.5,0.5v2.6c0,0,0,0.5-0.5,0.5h-2.6
			c0,0-0.5,0-0.5-0.5V85.1z"/>
		<path id="p101" class="st0" d="M112.8,125.2c0,0,0-0.5,0.5-0.5h2.6c0,0,0.5,0,0.5,0.5v2.6c0,0,0,0.5-0.5,0.5h-2.6
			c0,0-0.5,0-0.5-0.5V125.2z"/>
		<path id="p102" class="st0" d="M127.3,150.7c0,0,0-0.5,0.5-0.5h2.6c0,0,0.5,0,0.5,0.5v2.6c0,0,0,0.5,0.5,0.5h2.6
			c0,0,0.5,0,0.5,0.5v9.9c0,0,0,0.5,0.5,0.5h2.6c0,0,0.5,0,0.5-0.5V158c0,0,0-0.5,0.5-0.5h2.6c0,0,0.5,0,0.5-0.5v-2.6
			c0,0,0-0.5-0.5-0.5h-2.6c0,0-0.5,0-0.5-0.5v-2.6c0,0,0-0.5,0.5-0.5h6.3c0,0,0.5,0,0.5,0.5v9.9c0,0,0,0.5-0.5,0.5h-2.6
			c0,0-0.5,0-0.5,0.5v6.3c0,0,0,0.5,0.5,0.5h6.3c0,0,0.5,0,0.5,0.5v2.6c0,0,0,0.5-0.5,0.5h-2.6c0,0-0.5,0-0.5,0.5v2.6
			c0,0,0,0.5-0.5,0.5h-2.6c0,0-0.5,0-0.5-0.5v-2.6c0,0,0-0.5-0.5-0.5h-2.6c0,0-0.5,0-0.5,0.5v2.6c0,0,0,0.5-0.5,0.5h-6.3
			c0,0-0.5,0-0.5-0.5v-2.6c0,0,0-0.5,0.5-0.5h2.6c0,0,0.5,0,0.5-0.5V169c0,0,0-0.5-0.5-0.5h-2.6c0,0-0.5,0-0.5,0.5v2.6
			c0,0,0,0.5-0.5,0.5h-2.6c0,0-0.5,0-0.5,0.5v2.6c0,0,0,0.5-0.5,0.5h-6.3c0,0-0.5,0-0.5,0.5v2.6c0,0,0,0.5-0.5,0.5h-2.6
			c0,0-0.5,0-0.5,0.5v6.3c0,0,0,0.5-0.5,0.5h-2.6c0,0-0.5,0-0.5-0.5v-9.9c0,0,0-0.5,0.5-0.5h2.6c0,0,0.5,0,0.5-0.5V169
			c0,0,0-0.5,0.5-0.5h9.9c0,0,0.5,0,0.5-0.5v-2.6c0,0,0-0.5,0.5-0.5h2.6c0,0,0.5,0,0.5-0.5v-2.6c0,0,0-0.5-0.5-0.5h-2.6
			c0,0-0.5,0-0.5-0.5V158c0,0,0-0.5-0.5-0.5h-2.6c0,0-0.5,0-0.5-0.5v-2.6c0,0,0-0.5,0.5-0.5h2.6c0,0,0.5,0,0.5-0.5V150.7z"/>
		<path id="p103" class="st0" d="M123.7,48.7c0,0,0-0.5,0.5-0.5h9.9c0,0,0.5,0,0.5,0.5v6.3c0,0,0,0.5-0.5,0.5h-2.6
			c0,0-0.5,0-0.5-0.5v-2.6c0,0,0-0.5-0.5-0.5h-2.6c0,0-0.5,0-0.5,0.5v2.6c0,0,0,0.5-0.5,0.5h-2.6c0,0-0.5,0-0.5,0.5v2.6
			c0,0,0,0.5-0.5,0.5h-6.3c0,0-0.5,0-0.5-0.5v-2.6c0,0,0-0.5,0.5-0.5h2.6c0,0,0.5,0,0.5-0.5v-2.6c0,0,0-0.5,0.5-0.5h2.6
			c0,0,0.5,0,0.5-0.5V48.7z"/>
		<path id="p104" class="st0" d="M116.4,117.9c0,0,0-0.5,0.5-0.5h6.3c0,0,0.5,0,0.5,0.5v2.6c0,0,0,0.5-0.5,0.5h-2.6
			c0,0-0.5,0-0.5,0.5v2.6c0,0,0,0.5-0.5,0.5h-2.6c0,0-0.5,0-0.5-0.5V117.9z"/>
		<path id="p105" class="st0" d="M120.1,128.9c0,0,0-0.5,0.5-0.5h13.5c0,0,0.5,0,0.5,0.5v2.6c0,0,0,0.5-0.5,0.5h-2.6
			c0,0-0.5,0-0.5,0.5v2.6c0,0,0,0.5-0.5,0.5h-6.3c0,0-0.5,0-0.5-0.5v-2.6c0,0,0-0.5-0.5-0.5h-2.6c0,0-0.5,0-0.5-0.5V128.9z"/>
		<path id="p106" class="st0" d="M120.1,136.2c0,0,0-0.5,0.5-0.5h2.6c0,0,0.5,0,0.5,0.5v2.6c0,0,0,0.5-0.5,0.5h-2.6
			c0,0-0.5,0-0.5-0.5V136.2z"/>
		<path id="p107" class="st0" d="M120.1,158c0,0,0-0.5,0.5-0.5h2.6c0,0,0.5,0,0.5,0.5v2.6c0,0,0,0.5-0.5,0.5h-2.6c0,0-0.5,0-0.5-0.5
			V158z"/>
		<path id="p108" class="st0" d="M120.1,183.6c0,0,0-0.5,0.5-0.5h6.3c0,0,0.5,0,0.5,0.5v2.6c0,0,0,0.5,0.5,0.5h2.6
			c0,0,0.5,0,0.5-0.5v-2.6c0,0,0-0.5,0.5-0.5h2.6c0,0,0.5,0,0.5,0.5v6.3c0,0,0,0.5-0.5,0.5h-9.9c0,0-0.5,0-0.5-0.5v-2.6
			c0,0,0-0.5-0.5-0.5h-2.6c0,0-0.5,0-0.5-0.5V183.6z"/>
		<path id="p109" class="st0" d="M123.7,12.2c0,0,0-0.5,0.5-0.5h2.6c0,0,0.5,0,0.5,0.5v2.6c0,0,0,0.5-0.5,0.5h-2.6
			c0,0-0.5,0-0.5-0.5V12.2z"/>
		<path id="p110" class="st0" d="M127.3,74.2c0,0,0-0.5,0.5-0.5h2.6c0,0,0.5,0,0.5,0.5v6.3c0,0,0,0.5,0.5,0.5h2.6c0,0,0.5,0,0.5,0.5
			v2.6c0,0,0,0.5,0.5,0.5h2.6c0,0,0.5,0,0.5,0.5v2.6c0,0,0,0.5-0.5,0.5h-6.3c0,0-0.5,0-0.5-0.5v-2.6c0,0,0-0.5-0.5-0.5h-2.6
			c0,0-0.5,0-0.5-0.5v-2.6c0,0,0-0.5-0.5-0.5h-2.6c0,0-0.5,0-0.5-0.5v-2.6c0,0,0-0.5,0.5-0.5h2.6c0,0,0.5,0,0.5-0.5V74.2z"/>
		<path id="p111" class="st0" d="M123.7,85.1c0,0,0-0.5,0.5-0.5h2.6c0,0,0.5,0,0.5,0.5v2.6c0,0,0,0.5-0.5,0.5h-2.6
			c0,0-0.5,0-0.5-0.5V85.1z"/>
		<path id="p112" class="st0" d="M123.7,121.6c0,0,0-0.5,0.5-0.5h9.9c0,0,0.5,0,0.5,0.5v2.6c0,0,0,0.5-0.5,0.5h-9.9
			c0,0-0.5,0-0.5-0.5V121.6z"/>
		<path id="p113" class="st0" d="M131,12.2c0,0,0-0.5,0.5-0.5h13.5c0,0,0.5,0,0.5,0.5v2.6c0,0,0,0.5,0.5,0.5h9.9c0,0,0.5,0,0.5-0.5
			v-2.6c0,0,0-0.5,0.5-0.5h2.6c0,0,0.5,0,0.5,0.5v9.9c0,0,0,0.5-0.5,0.5H157c0,0-0.5,0-0.5,0.5v2.6c0,0,0,0.5-0.5,0.5h-2.6
			c0,0-0.5,0-0.5-0.5v-6.3c0,0,0-0.5-0.5-0.5h-9.9c0,0-0.5,0-0.5-0.5v-2.6c0,0,0-0.5-0.5-0.5h-2.6c0,0-0.5,0-0.5,0.5v6.3
			c0,0,0,0.5-0.5,0.5h-2.6c0,0-0.5,0-0.5,0.5v2.6c0,0,0,0.5-0.5,0.5h-2.6c0,0-0.5,0-0.5-0.5v-2.6c0,0,0-0.5-0.5-0.5h-2.6
			c0,0-0.5,0-0.5-0.5v-6.3c0,0,0-0.5,0.5-0.5h2.6c0,0,0.5,0,0.5-0.5V12.2 M131.5,15.3c0,0-0.5,0-0.5,0.5v2.6c0,0,0,0.5,0.5,0.5h2.6
			c0,0,0.5,0,0.5-0.5v-2.6c0,0,0-0.5-0.5-0.5H131.5z"/>
		<path id="p114" class="st0" d="M138.3,26.8c0,0,0-0.5,0.5-0.5h2.6c0,0,0.5,0,0.5,0.5v2.6c0,0,0,0.5,0.5,0.5h9.9c0,0,0.5,0,0.5,0.5
			v6.3c0,0,0,0.5-0.5,0.5h-2.6c0,0-0.5,0-0.5-0.5v-2.6c0,0,0-0.5-0.5-0.5h-2.6c0,0-0.5,0-0.5,0.5v2.6c0,0,0,0.5-0.5,0.5h-2.6
			c0,0-0.5,0-0.5-0.5v-2.6c0,0,0-0.5-0.5-0.5h-2.6c0,0-0.5,0-0.5,0.5v6.3c0,0,0,0.5-0.5,0.5h-6.3c0,0-0.5,0-0.5,0.5V44
			c0,0,0,0.5-0.5,0.5h-2.6c0,0-0.5,0-0.5-0.5v-9.9c0,0,0-0.5,0.5-0.5h2.6c0,0,0.5,0,0.5,0.5v2.6c0,0,0,0.5,0.5,0.5h2.6
			c0,0,0.5,0,0.5-0.5v-2.6c0,0,0-0.5-0.5-0.5h-2.6c0,0-0.5,0-0.5-0.5v-2.6c0,0,0-0.5,0.5-0.5h6.3c0,0,0.5,0,0.5-0.5V26.8z"/>
		<path id="p115" class="st0" d="M127.3,179.9c0,0,0-0.5,0.5-0.5h2.6c0,0,0.5,0,0.5,0.5v2.6c0,0,0,0.5-0.5,0.5h-2.6
			c0,0-0.5,0-0.5-0.5V179.9z"/>
		<path id="p116" class="st0" d="M131,92.4c0,0,0-0.5,0.5-0.5h6.3c0,0,0.5,0,0.5,0.5v6.3c0,0,0,0.5-0.5,0.5h-2.6c0,0-0.5,0-0.5-0.5
			v-2.6c0,0,0-0.5-0.5-0.5h-2.6c0,0-0.5,0-0.5-0.5V92.4z"/>
		<path id="p117" class="st0" d="M131,99.7c0,0,0-0.5,0.5-0.5h2.6c0,0,0.5,0,0.5,0.5v2.6c0,0,0,0.5-0.5,0.5h-2.6c0,0-0.5,0-0.5-0.5
			V99.7z"/>
		<path id="p118" class="st0" d="M131,107c0,0,0-0.5,0.5-0.5h2.6c0,0,0.5,0,0.5,0.5v2.6c0,0,0,0.5-0.5,0.5h-2.6c0,0-0.5,0-0.5-0.5
			V107z"/>
		<path id="p119" class="st0" d="M141.9,48.7c0,0,0-0.5,0.5-0.5h6.3c0,0,0.5,0,0.5,0.5v2.6c0,0,0,0.5-0.5,0.5h-2.6
			c0,0-0.5,0-0.5,0.5v2.6c0,0,0,0.5,0.5,0.5h2.6c0,0,0.5,0,0.5,0.5v6.3c0,0,0,0.5-0.5,0.5h-2.6c0,0-0.5,0-0.5-0.5v-2.6
			c0,0,0-0.5-0.5-0.5h-6.3c0,0-0.5,0-0.5,0.5v2.6c0,0,0,0.5-0.5,0.5h-2.6c0,0-0.5,0-0.5-0.5v-6.3c0,0,0-0.5,0.5-0.5h2.6
			c0,0,0.5,0,0.5-0.5v-2.6c0,0,0-0.5,0.5-0.5h2.6c0,0,0.5,0,0.5-0.5V48.7z"/>
		<path id="p120" class="st0" d="M134.6,66.9c0,0,0-0.5,0.5-0.5h2.6c0,0,0.5,0,0.5,0.5v2.6c0,0,0,0.5,0.5,0.5h2.6c0,0,0.5,0,0.5-0.5
			v-2.6c0,0,0-0.5,0.5-0.5h2.6c0,0,0.5,0,0.5,0.5v2.6c0,0,0,0.5,0.5,0.5h6.3c0,0,0.5,0,0.5,0.5v6.3c0,0,0,0.5-0.5,0.5h-2.6
			c0,0-0.5,0-0.5-0.5v-2.6c0,0,0-0.5-0.5-0.5h-6.3c0,0-0.5,0-0.5,0.5v2.6c0,0,0,0.5-0.5,0.5h-2.6c0,0-0.5,0-0.5,0.5v2.6
			c0,0,0,0.5-0.5,0.5h-2.6c0,0-0.5,0-0.5-0.5V66.9z"/>
		<path id="p121" class="st0" d="M167.5,74.2c0,0,0-0.5,0.5-0.5h2.6c0,0,0.5,0,0.5,0.5v6.3c0,0,0,0.5,0.5,0.5h2.6c0,0,0.5,0,0.5,0.5
			v2.6c0,0,0,0.5-0.5,0.5h-2.6c0,0-0.5,0-0.5,0.5v6.3c0,0,0,0.5,0.5,0.5h2.6c0,0,0.5,0,0.5,0.5v9.9c0,0,0,0.5,0.5,0.5h6.3
			c0,0,0.5,0,0.5,0.5v2.6c0,0,0,0.5-0.5,0.5h-6.3c0,0-0.5,0-0.5,0.5v2.6c0,0,0,0.5-0.5,0.5H168c0,0-0.5,0-0.5,0.5v17.2
			c0,0,0,0.5-0.5,0.5h-6.3c0,0-0.5,0-0.5-0.5v-2.6c0,0,0-0.5-0.5-0.5h-6.3c0,0-0.5,0-0.5-0.5v-2.6c0,0,0-0.5-0.5-0.5h-2.6
			c0,0-0.5,0-0.5-0.5v-2.6c0,0,0-0.5,0.5-0.5h6.3c0,0,0.5,0,0.5,0.5v2.6c0,0,0,0.5,0.5,0.5h2.6c0,0,0.5,0,0.5-0.5v-2.6
			c0,0,0-0.5,0.5-0.5h2.6c0,0,0.5,0,0.5-0.5v-6.3c0,0,0-0.5-0.5-0.5h-2.6c0,0-0.5,0-0.5,0.5v6.3c0,0,0,0.5-0.5,0.5H157
			c0,0-0.5,0-0.5-0.5v-6.3c0,0,0-0.5-0.5-0.5h-6.3c0,0-0.5,0-0.5,0.5v2.6c0,0,0,0.5-0.5,0.5h-2.6c0,0-0.5,0-0.5,0.5v2.6
			c0,0,0,0.5-0.5,0.5h-2.6c0,0-0.5,0-0.5,0.5v2.6c0,0,0,0.5,0.5,0.5h2.6c0,0,0.5,0,0.5,0.5v2.6c0,0,0,0.5-0.5,0.5h-2.6
			c0,0-0.5,0-0.5,0.5v2.6c0,0,0,0.5-0.5,0.5h-2.6c0,0-0.5,0-0.5-0.5v-9.9c0,0,0-0.5-0.5-0.5h-2.6c0,0-0.5,0-0.5-0.5v-2.6
			c0,0,0-0.5,0.5-0.5h2.6c0,0,0.5,0,0.5-0.5v-2.6c0,0,0-0.5,0.5-0.5h2.6c0,0,0.5,0,0.5-0.5V107c0,0,0-0.5,0.5-0.5h2.6
			c0,0,0.5,0,0.5-0.5v-2.6c0,0,0-0.5-0.5-0.5h-2.6c0,0-0.5,0-0.5,0.5v2.6c0,0,0,0.5-0.5,0.5h-6.3c0,0-0.5,0-0.5-0.5v-2.6
			c0,0,0-0.5,0.5-0.5h2.6c0,0,0.5,0,0.5-0.5v-2.6c0,0,0-0.5,0.5-0.5h2.6c0,0,0.5,0,0.5-0.5v-6.3c0,0,0-0.5,0.5-0.5h6.3
			c0,0,0.5,0,0.5,0.5V95c0,0,0,0.5-0.5,0.5h-2.6c0,0-0.5,0-0.5,0.5v2.6c0,0,0,0.5,0.5,0.5h2.6c0,0,0.5,0,0.5,0.5v6.3
			c0,0,0,0.5,0.5,0.5h6.3c0,0,0.5,0,0.5-0.5v-2.6c0,0,0-0.5-0.5-0.5h-2.6c0,0-0.5,0-0.5-0.5v-9.9c0,0,0-0.5,0.5-0.5h6.3
			c0,0,0.5,0,0.5-0.5v-2.6c0,0,0-0.5-0.5-0.5h-17.2c0,0-0.5,0-0.5-0.5v-9.9c0,0,0-0.5,0.5-0.5h2.6c0,0,0.5,0,0.5,0.5v2.6
			c0,0,0,0.5,0.5,0.5h6.3c0,0,0.5,0,0.5,0.5v2.6c0,0,0,0.5,0.5,0.5h6.3c0,0,0.5,0,0.5-0.5v-2.6c0,0,0-0.5,0.5-0.5h2.6
			c0,0,0.5,0,0.5,0.5v2.6c0,0,0,0.5,0.5,0.5h2.6c0,0,0.5,0,0.5-0.5V74.2 M164.3,88.2c0,0-0.5,0-0.5,0.5v2.6c0,0,0,0.5,0.5,0.5h2.6
			c0,0,0.5,0,0.5-0.5v-2.6c0,0,0-0.5-0.5-0.5H164.3 M160.7,95.5c0,0-0.5,0-0.5,0.5v9.9c0,0,0,0.5,0.5,0.5h9.9c0,0,0.5,0,0.5-0.5
			v-9.9c0,0,0-0.5-0.5-0.5H160.7z"/>
		<path id="p122" class="st0" d="M145.6,125.2c0,0,0-0.5,0.5-0.5h6.3c0,0,0.5,0,0.5,0.5v2.6c0,0,0,0.5-0.5,0.5h-2.6
			c0,0-0.5,0-0.5,0.5v6.3c0,0,0,0.5-0.5,0.5h-6.3c0,0-0.5,0-0.5,0.5v2.6c0,0,0,0.5-0.5,0.5h-6.3c0,0-0.5,0-0.5-0.5v-2.6
			c0,0,0-0.5,0.5-0.5h2.6c0,0,0.5,0,0.5-0.5v-2.6c0,0,0-0.5,0.5-0.5h6.3c0,0,0.5,0,0.5-0.5V125.2z"/>
		<path id="p123" class="st0" d="M134.6,179.9c0,0,0-0.5,0.5-0.5h2.6c0,0,0.5,0,0.5,0.5v2.6c0,0,0,0.5-0.5,0.5h-2.6
			c0,0-0.5,0-0.5-0.5V179.9z"/>
		<path id="p124" class="st0" d="M145.6,37.7c0,0,0-0.5,0.5-0.5h2.6c0,0,0.5,0,0.5,0.5V44c0,0,0,0.5-0.5,0.5h-9.9c0,0-0.5,0-0.5-0.5
			v-2.6c0,0,0-0.5,0.5-0.5h6.3c0,0,0.5,0,0.5-0.5V37.7z"/>
		<path id="p125" class="st0" d="M138.3,176.3c0,0,0-0.5,0.5-0.5h2.6c0,0,0.5,0,0.5,0.5v2.6c0,0,0,0.5-0.5,0.5h-2.6
			c0,0-0.5,0-0.5-0.5V176.3z"/>
		<path id="p126" class="st0" d="M138.3,183.6c0,0,0-0.5,0.5-0.5h6.3c0,0,0.5,0,0.5,0.5v2.6c0,0,0,0.5,0.5,0.5h2.6
			c0,0,0.5,0,0.5-0.5v-2.6c0,0,0-0.5,0.5-0.5h2.6c0,0,0.5,0,0.5,0.5v6.3c0,0,0,0.5-0.5,0.5h-13.5c0,0-0.5,0-0.5-0.5V183.6z"/>
		<path id="p127" class="st0" d="M167.5,147.1c0,0,0-0.5,0.5-0.5h2.6c0,0,0.5,0,0.5,0.5v6.3c0,0,0,0.5-0.5,0.5H168
			c0,0-0.5,0-0.5,0.5v2.6c0,0,0,0.5,0.5,0.5h2.6c0,0,0.5,0,0.5-0.5v-2.6c0,0,0-0.5,0.5-0.5h2.6c0,0,0.5,0,0.5,0.5v2.6
			c0,0,0,0.5,0.5,0.5h9.9c0,0,0.5,0,0.5,0.5v2.6c0,0,0,0.5-0.5,0.5h-9.9c0,0-0.5,0-0.5,0.5v9.9c0,0,0,0.5,0.5,0.5h2.6
			c0,0,0.5,0,0.5,0.5v2.6c0,0,0,0.5-0.5,0.5h-2.6c0,0-0.5,0-0.5,0.5v2.6c0,0,0,0.5,0.5,0.5h6.3c0,0,0.5,0,0.5-0.5v-2.6
			c0,0,0-0.5,0.5-0.5h2.6c0,0,0.5,0,0.5,0.5v2.6c0,0,0,0.5,0.5,0.5h2.6c0,0,0.5,0,0.5,0.5v2.6c0,0,0,0.5-0.5,0.5h-9.9
			c0,0-0.5,0-0.5,0.5v2.6c0,0,0,0.5-0.5,0.5h-2.6c0,0-0.5,0-0.5-0.5v-2.6c0,0,0-0.5-0.5-0.5h-2.6c0,0-0.5,0-0.5-0.5v-2.6
			c0,0,0-0.5-0.5-0.5H168c0,0-0.5,0-0.5-0.5v-2.6c0,0,0-0.5-0.5-0.5h-6.3c0,0-0.5,0-0.5,0.5v2.6c0,0,0,0.5-0.5,0.5H157
			c0,0-0.5,0-0.5,0.5v2.6c0,0,0,0.5-0.5,0.5h-2.6c0,0-0.5,0-0.5-0.5V169c0,0,0-0.5-0.5-0.5h-2.6c0,0-0.5,0-0.5-0.5v-2.6
			c0,0,0-0.5-0.5-0.5h-2.6c0,0-0.5,0-0.5-0.5v-2.6c0,0,0-0.5,0.5-0.5h2.6c0,0,0.5,0,0.5-0.5V158c0,0,0-0.5,0.5-0.5h2.6
			c0,0,0.5,0,0.5,0.5v2.6c0,0,0,0.5,0.5,0.5h2.6c0,0,0.5,0,0.5-0.5V158c0,0,0-0.5,0.5-0.5h2.6c0,0,0.5,0,0.5-0.5v-2.6
			c0,0,0-0.5,0.5-0.5h2.6c0,0,0.5,0,0.5-0.5v-2.6c0,0,0-0.5,0.5-0.5h2.6c0,0,0.5,0,0.5-0.5V147.1 M160.7,161.2c0,0-0.5,0-0.5,0.5
			v9.9c0,0,0,0.5,0.5,0.5h9.9c0,0,0.5,0,0.5-0.5v-9.9c0,0,0-0.5-0.5-0.5H160.7z"/>
		<path id="p128" class="st0" d="M152.9,59.6c0,0,0-0.5,0.5-0.5h6.3c0,0,0.5,0,0.5,0.5v2.6c0,0,0,0.5-0.5,0.5H157c0,0-0.5,0-0.5,0.5
			v2.6c0,0,0,0.5-0.5,0.5h-6.3c0,0-0.5,0-0.5-0.5v-2.6c0,0,0-0.5,0.5-0.5h2.6c0,0,0.5,0,0.5-0.5V59.6z"/>
		<path id="p129" class="st0" d="M149.2,150.7c0,0,0-0.5,0.5-0.5h9.9c0,0,0.5,0,0.5,0.5v2.6c0,0,0,0.5-0.5,0.5h-9.9
			c0,0-0.5,0-0.5-0.5V150.7z"/>
		<path id="p130" class="st0" d="M152.9,41.4c0,0,0-0.5,0.5-0.5h2.6c0,0,0.5,0,0.5,0.5v9.9c0,0,0,0.5-0.5,0.5h-2.6
			c0,0-0.5,0-0.5-0.5V41.4z"/>
		<path id="p131" class="st0" d="M152.9,77.8c0,0,0-0.5,0.5-0.5h2.6c0,0,0.5,0,0.5,0.5v2.6c0,0,0,0.5-0.5,0.5h-2.6
			c0,0-0.5,0-0.5-0.5V77.8z"/>
		<path id="p132" class="st0" d="M156.5,34.1c0,0,0-0.5,0.5-0.5h2.6c0,0,0.5,0,0.5,0.5v6.3c0,0,0,0.5-0.5,0.5H157c0,0-0.5,0-0.5-0.5
			V34.1z"/>
		<path id="p133" class="st0" d="M156.5,52.3c0,0,0-0.5,0.5-0.5h6.3c0,0,0.5,0,0.5,0.5v2.6c0,0,0,0.5,0.5,0.5h2.6c0,0,0.5,0,0.5,0.5
			v2.6c0,0,0,0.5-0.5,0.5h-6.3c0,0-0.5,0-0.5-0.5v-2.6c0,0,0-0.5-0.5-0.5H157c0,0-0.5,0-0.5-0.5V52.3z"/>
		<path id="p134" class="st0" d="M156.5,66.9c0,0,0-0.5,0.5-0.5h2.6c0,0,0.5,0,0.5,0.5v2.6c0,0,0,0.5,0.5,0.5h2.6c0,0,0.5,0,0.5,0.5
			v6.3c0,0,0,0.5-0.5,0.5h-2.6c0,0-0.5,0-0.5-0.5v-2.6c0,0,0-0.5-0.5-0.5H157c0,0-0.5,0-0.5-0.5V66.9z"/>
		<path id="p135" class="st0" d="M156.5,132.5c0,0,0-0.5,0.5-0.5h2.6c0,0,0.5,0,0.5,0.5v2.6c0,0,0,0.5-0.5,0.5H157
			c0,0-0.5,0-0.5-0.5V132.5z"/>
		<path id="p136" class="st0" d="M160.2,136.2c0,0,0-0.5,0.5-0.5h9.9c0,0,0.5,0,0.5,0.5v2.6c0,0,0,0.5-0.5,0.5H168
			c0,0-0.5,0-0.5,0.5v6.3c0,0,0,0.5-0.5,0.5h-2.6c0,0-0.5,0-0.5,0.5v2.6c0,0,0,0.5-0.5,0.5h-2.6c0,0-0.5,0-0.5-0.5v-6.3
			c0,0,0-0.5-0.5-0.5H157c0,0-0.5,0-0.5-0.5v-2.6c0,0,0-0.5,0.5-0.5h2.6c0,0,0.5,0,0.5-0.5V136.2z"/>
		<path id="p137" class="st0" d="M156.5,183.6c0,0,0-0.5,0.5-0.5h6.3c0,0,0.5,0,0.5,0.5v2.6c0,0,0,0.5-0.5,0.5h-2.6
			c0,0-0.5,0-0.5,0.5v2.6c0,0,0,0.5-0.5,0.5H157c0,0-0.5,0-0.5-0.5V183.6z"/>
		<path id="p138" class="st0" d="M163.8,12.2c0,0,0-0.5,0.5-0.5h24.5c0,0,0.5,0,0.5,0.5v24.5c0,0,0,0.5-0.5,0.5h-24.5
			c0,0-0.5,0-0.5-0.5V12.2 M168,15.3c0,0-0.5,0-0.5,0.5V33c0,0,0,0.5,0.5,0.5h17.2c0,0,0.5,0,0.5-0.5V15.8c0,0,0-0.5-0.5-0.5H168z"
			/>
		<path id="p139" class="st0" d="M167.5,59.6c0,0,0-0.5,0.5-0.5h2.6c0,0,0.5,0,0.5,0.5v6.3c0,0,0,0.5,0.5,0.5h2.6c0,0,0.5,0,0.5,0.5
			v2.6c0,0,0,0.5,0.5,0.5h13.5c0,0,0.5,0,0.5,0.5v13.5c0,0,0,0.5-0.5,0.5h-2.6c0,0-0.5,0-0.5-0.5v-2.6c0,0,0-0.5-0.5-0.5h-2.6
			c0,0-0.5,0-0.5,0.5v2.6c0,0,0,0.5-0.5,0.5h-2.6c0,0-0.5,0-0.5-0.5v-6.3c0,0,0-0.5-0.5-0.5h-2.6c0,0-0.5,0-0.5-0.5v-2.6
			c0,0,0-0.5-0.5-0.5h-2.6c0,0-0.5,0-0.5-0.5v-2.6c0,0,0-0.5-0.5-0.5h-6.3c0,0-0.5,0-0.5-0.5v-2.6c0,0,0-0.5,0.5-0.5h2.6
			c0,0,0.5,0,0.5-0.5V59.6 M182.6,73.7c0,0-0.5,0-0.5,0.5v2.6c0,0,0,0.5,0.5,0.5h2.6c0,0,0.5,0,0.5-0.5v-2.6c0,0,0-0.5-0.5-0.5
			H182.6z"/>
		<path id="p140" class="st0" d="M163.8,99.7c0,0,0-0.5,0.5-0.5h2.6c0,0,0.5,0,0.5,0.5v2.6c0,0,0,0.5-0.5,0.5h-2.6
			c0,0-0.5,0-0.5-0.5V99.7z"/>
		<path id="p141" class="st0" d="M163.8,165.3c0,0,0-0.5,0.5-0.5h2.6c0,0,0.5,0,0.5,0.5v2.6c0,0,0,0.5-0.5,0.5h-2.6
			c0,0-0.5,0-0.5-0.5V165.3z"/>
		<path id="p142" class="st0" d="M163.8,179.9c0,0,0-0.5,0.5-0.5h2.6c0,0,0.5,0,0.5,0.5v2.6c0,0,0,0.5-0.5,0.5h-2.6
			c0,0-0.5,0-0.5-0.5V179.9z"/>
		<path id="p143" class="st0" d="M167.5,41.4c0,0,0-0.5,0.5-0.5h9.9c0,0,0.5,0,0.5,0.5V44c0,0,0,0.5-0.5,0.5H168c0,0-0.5,0-0.5-0.5
			V41.4z"/>
		<path id="p144" class="st0" d="M167.5,128.9c0,0,0-0.5,0.5-0.5h6.3c0,0,0.5,0,0.5,0.5v2.6c0,0,0,0.5-0.5,0.5H168
			c0,0-0.5,0-0.5-0.5V128.9z"/>
		<path id="p145" class="st0" d="M171.1,19.5c0,0,0-0.5,0.5-0.5h9.9c0,0,0.5,0,0.5,0.5v9.9c0,0,0,0.5-0.5,0.5h-9.9
			c0,0-0.5,0-0.5-0.5V19.5z"/>
		<path id="p146" class="st0" d="M171.1,48.7c0,0,0-0.5,0.5-0.5h2.6c0,0,0.5,0,0.5,0.5v2.6c0,0,0,0.5-0.5,0.5h-2.6
			c0,0-0.5,0-0.5-0.5V48.7z"/>
		<path id="p147" class="st0" d="M171.1,55.9c0,0,0-0.5,0.5-0.5h2.6c0,0,0.5,0,0.5,0.5v2.6c0,0,0,0.5-0.5,0.5h-2.6
			c0,0-0.5,0-0.5-0.5V55.9z"/>
		<path id="p148" class="st0" d="M171.1,114.3c0,0,0-0.5,0.5-0.5h2.6c0,0,0.5,0,0.5,0.5v6.3c0,0,0,0.5-0.5,0.5h-2.6
			c0,0-0.5,0-0.5-0.5V114.3z"/>
		<path id="p149" class="st0" d="M174.7,136.2c0,0,0-0.5,0.5-0.5h2.6c0,0,0.5,0,0.5,0.5v6.3c0,0,0,0.5-0.5,0.5h-6.3
			c0,0-0.5,0-0.5-0.5v-2.6c0,0,0-0.5,0.5-0.5h2.6c0,0,0.5,0,0.5-0.5V136.2z"/>
		<path id="p150" class="st0" d="M171.1,187.2c0,0,0-0.5,0.5-0.5h2.6c0,0,0.5,0,0.5,0.5v2.6c0,0,0,0.5-0.5,0.5h-2.6
			c0,0-0.5,0-0.5-0.5V187.2z"/>
		<path id="p151" class="st0" d="M174.7,63.2c0,0,0-0.5,0.5-0.5h6.3c0,0,0.5,0,0.5,0.5v2.6c0,0,0,0.5-0.5,0.5h-6.3
			c0,0-0.5,0-0.5-0.5V63.2z"/>
		<path id="p152" class="st0" d="M174.7,85.1c0,0,0-0.5,0.5-0.5h2.6c0,0,0.5,0,0.5,0.5v2.6c0,0,0,0.5-0.5,0.5h-2.6
			c0,0-0.5,0-0.5-0.5V85.1z"/>
		<path id="p153" class="st0" d="M174.7,121.6c0,0,0-0.5,0.5-0.5h2.6c0,0,0.5,0,0.5,0.5v2.6c0,0,0,0.5-0.5,0.5h-2.6
			c0,0-0.5,0-0.5-0.5V121.6z"/>
		<path id="p154" class="st0" d="M174.7,147.1c0,0,0-0.5,0.5-0.5h6.3c0,0,0.5,0,0.5,0.5v6.3c0,0,0,0.5-0.5,0.5h-6.3
			c0,0-0.5,0-0.5-0.5V147.1z"/>
		<path id="p155" class="st0" d="M178.4,88.8c0,0,0-0.5,0.5-0.5h9.9c0,0,0.5,0,0.5,0.5v9.9c0,0,0,0.5-0.5,0.5h-2.6
			c0,0-0.5,0-0.5-0.5v-2.6c0,0,0-0.5-0.5-0.5h-6.3c0,0-0.5,0-0.5-0.5V88.8z"/>
		<path id="p156" class="st0" d="M185.7,103.3c0,0,0-0.5,0.5-0.5h2.6c0,0,0.5,0,0.5,0.5v9.9c0,0,0,0.5-0.5,0.5h-2.6
			c0,0-0.5,0-0.5,0.5v2.6c0,0,0,0.5-0.5,0.5h-2.6c0,0-0.5,0-0.5,0.5v2.6c0,0,0,0.5-0.5,0.5h-2.6c0,0-0.5,0-0.5-0.5v-6.3
			c0,0,0-0.5,0.5-0.5h2.6c0,0,0.5,0,0.5-0.5V107c0,0,0-0.5,0.5-0.5h2.6c0,0,0.5,0,0.5-0.5V103.3z"/>
		<path id="p157" class="st0" d="M178.4,125.2c0,0,0-0.5,0.5-0.5h2.6c0,0,0.5,0,0.5,0.5v2.6c0,0,0,0.5-0.5,0.5h-2.6
			c0,0-0.5,0-0.5-0.5V125.2z"/>
		<path id="p158" class="st0" d="M185.7,161.7c0,0,0-0.5,0.5-0.5h2.6c0,0,0.5,0,0.5,0.5v6.3c0,0,0,0.5-0.5,0.5h-2.6
			c0,0-0.5,0-0.5,0.5v2.6c0,0,0,0.5-0.5,0.5h-6.3c0,0-0.5,0-0.5-0.5v-6.3c0,0,0-0.5,0.5-0.5h6.3c0,0,0.5,0,0.5-0.5V161.7z"/>
		<path id="p159" class="st0" d="M182,41.4c0,0,0-0.5,0.5-0.5h6.3c0,0,0.5,0,0.5,0.5V44c0,0,0,0.5-0.5,0.5h-6.3c0,0-0.5,0-0.5-0.5
			V41.4z"/>
		<path id="p160" class="st0" d="M182,48.7c0,0,0-0.5,0.5-0.5h6.3c0,0,0.5,0,0.5,0.5v2.6c0,0,0,0.5-0.5,0.5h-2.6c0,0-0.5,0-0.5,0.5
			v6.3c0,0,0,0.5-0.5,0.5h-2.6c0,0-0.5,0-0.5-0.5V48.7z"/>
		<path id="p161" class="st0" d="M182,99.7c0,0,0-0.5,0.5-0.5h2.6c0,0,0.5,0,0.5,0.5v2.6c0,0,0,0.5-0.5,0.5h-2.6c0,0-0.5,0-0.5-0.5
			V99.7z"/>
		<path id="p162" class="st0" d="M185.7,117.9c0,0,0-0.5,0.5-0.5h2.6c0,0,0.5,0,0.5,0.5v9.9c0,0,0,0.5-0.5,0.5h-2.6
			c0,0-0.5,0-0.5-0.5v-2.6c0,0,0-0.5-0.5-0.5h-2.6c0,0-0.5,0-0.5-0.5v-2.6c0,0,0-0.5,0.5-0.5h2.6c0,0,0.5,0,0.5-0.5V117.9z"/>
		<path id="p163" class="st0" d="M182,132.5c0,0,0-0.5,0.5-0.5h6.3c0,0,0.5,0,0.5,0.5v6.3c0,0,0,0.5-0.5,0.5h-6.3c0,0-0.5,0-0.5-0.5
			V132.5z"/>
		<path id="p164" class="st0" d="M182,143.5c0,0,0-0.5,0.5-0.5h6.3c0,0,0.5,0,0.5,0.5V157c0,0,0,0.5-0.5,0.5h-2.6c0,0-0.5,0-0.5-0.5
			v-9.9c0,0,0-0.5-0.5-0.5h-2.6c0,0-0.5,0-0.5-0.5V143.5z"/>
		<path id="p165" class="st0" d="M182,187.2c0,0,0-0.5,0.5-0.5h6.3c0,0,0.5,0,0.5,0.5v2.6c0,0,0,0.5-0.5,0.5h-6.3c0,0-0.5,0-0.5-0.5
			V187.2z"/>
		<path id="p166" class="st0" d="M185.7,59.6c0,0,0-0.5,0.5-0.5h2.6c0,0,0.5,0,0.5,0.5v6.3c0,0,0,0.5-0.5,0.5h-2.6
			c0,0-0.5,0-0.5-0.5V59.6z"/>
		<g id="qr-images">
		</g>
	</g>
	<g>
		<path class="st0" d="M92.2,103.7c-1-2.7-5.6-1.6-5.9-1.6s-0.3-0.4-0.2-0.5c0.2-0.3,5.6-1.4,5.5-4s-4.6-2.2-7.4-1.9
			c-1.1-1.4-2.9-1-3.5-0.7s-0.9-0.5-1.2-0.2C79.3,95,79.9,96,80,96.3c0.1,0.3-1.6,1.4-2.9,1.7c-0.2,0-0.3,0.2-0.1,0.4
			c0.9,1.2,2.7,0.9,2.9,0.9c0.2,0,1.1,1,1.1,1.2s-4,0.5-4.4,0.5s-0.5,0.9,1.2,1.8s4.1-0.3,4.1-0.3s0.5,0,0.4,0.4
			c-0.1,0.4-1.6,1.1-5.1,2.1c-0.2,0.1-0.3,0.4-0.2,0.5c1.3,1.4,3,0.9,3.6,0.7c0.1,0,0.2,0,0.3,0.1c0.1,0.2,0.4,0.5,0.8,1.1
			c0.1,0.1,0.1,0.4-0.1,0.4c-1.2,0.5-3.7,0.6-4.8,0.6c-0.2,0-0.3,0.3-0.2,0.4c1.6,1.7,3,2.2,7.5,1C89.1,108.6,93.3,106.4,92.2,103.7
			z M83,98.1c0.2-0.3,3.3-0.6,3.7-0.4c0.4,0.2,0.5,0.5,0.1,0.7s-2.3,1.5-2.6,1.4C83.9,99.7,82.8,98.3,83,98.1z M87.9,104.9
			c-0.2,0.3-2,1.6-2.5,1.6s-0.4-0.5-0.7-0.8c-0.2-0.2-0.5-0.5-0.5-0.8c0,0,0.5-0.7,2.4-0.7C88.5,104.1,88.1,104.6,87.9,104.9z"/>
	</g>
	<path class="st0" d="M94.9,103.1c0,0-1.5-0.1-1.4-2c0.1-2,0.7-1.5,0.7-1.3c0.1,0.2,0.3,0.8,0.7,0.4c0.4-0.4,0.9-0.7,1.6-0.6
		c0.9,0.1,1.6,0.6,1.4,2.4c-0.2,1.5-0.9,2.8-0.8,3.3c0.1,0.6,0.5,1,0.8,0.6c0.3-0.4,0.4-1.4,0.6-1.4c0.1,0-0.1,0.9-0.1,1
		c-0.1,0.4-0.2,0.8-0.2,1.2c0,0.4,0.1,0.8,0.2,1.2c0,0.3,0,0.6,0,0.9c-0.1,0.6-0.3,1.2-0.9,1.5c-0.2,0.1-0.4,0.1-0.7,0.1
		C94.6,110.4,94.2,108.3,94.9,103.1z"/>
	<path class="st0" d="M97,98.7c0,0-1.6,0.2-1.6-1.5c0-1.2,0-1.8-0.2-2.2c-0.1-0.2,0-0.5,0.2-0.5c0.5,0,1.2,0,1.9,0.4
		c1.2,0.7,1.4,1.4,1.3,2.3C98.6,97.9,97.9,98.6,97,98.7z"/>
	<g>
		<path class="st0" d="M109,101.3c0-3.9-3.9-3.2-3.9-3.2c-0.3-0.1-0.4-0.8-0.3-1.2c0.1-0.4,3.7,0.1,4-0.3s0.2-1.1-0.6-1.7
			c-0.8-0.7-4.1-0.1-5,0.2c-0.8,0.2-2.2,0.3-4,0c-0.1,0-0.2,0.1-0.2,0.2c0.3,1.5,1.3,1.9,2.5,1.9c0.2,0.6,0,1.3,0,1.3
			c0,0.2-1.9,0-2.1,0c-0.3-0.1-0.5-0.1-0.5,0.3c0,0.3,0.1,0.5,0.3,0.8c0.2,0.3,0.5,0.6,0.8,0.7c0.2,0.1,0.4,0.1,0.6,0.1
			c0,0,0.2,0,0.4,0c0.2,0,0.3,0.1,0.3,0.2c-0.1,0.4-0.4,0.9-1.1,1.2c-0.4,0.2-0.8,0.2-1.1,0c-0.3-0.2-0.2-0.7-0.2-1
			c0-0.3-0.1-0.2-0.2,0c-1,2.9,0.9,3.4,2.1,3.2c1.2-0.2,5.1-0.3,6.2-0.1c1.1,0.2,1.5,0.2,2.1,0C109.8,103.6,110.9,102.3,109,101.3z
			 M103.6,101.4c-0.2-0.2,0.4-0.5,0.5-1.2c0.1-0.5,1.9-0.1,1.8,0.6C105.8,101.5,103.8,101.6,103.6,101.4z"/>
	</g>
	<g>
		<path class="st0" d="M109.1,107.3c-0.1-2-1.8-2.9-4.8-2.8c-3,0.1-2.7,1.3-3.2,0.7c-0.3-0.4-0.9-0.5-1.2-0.4
			c-0.1,0-0.2,0.1-0.1,0.2c0.1,0.2,0.2,0.5,0.2,0.9c0,0.6-1.3,3,0.1,4.2c1.3,1,2.2,0,2.4-0.3c0-0.1,0.1-0.1,0.2,0
			c1.3,0.5,2.4,0.3,2.9,0.1c0.1,0,0.2,0,0.2,0.1c0.1,0.3,0.4,0.7,1.5,0.7C108.9,110.6,109.2,109.2,109.1,107.3z M105,107.9
			c-0.6-0.1-1.1-0.2-1.4,0c0,0-0.5,0.4-0.9-0.1c-0.4-0.4-0.2-1,0.9-1.3c1.2-0.3,1.9,0.2,2,0.7C105.7,107.7,105.5,108,105,107.9z"/>
	</g>
	<g>
		<path class="st0" d="M126.2,106.3c-0.4-0.5-0.2-1.5-0.6-1.5c-0.4,0-0.1,1.4-0.6,2.2c-0.5,0.7-2.5,1.3-3.2-0.1
			c-0.1-0.1,0-0.3,0.1-0.3c3.3-1.9,4.6-3.4,4.5-4.4c-0.1-1-1.7-1.2-1.8-1.6c-0.1-0.4,0.9-0.1,1.1,0c0.2,0,1.3,0.6,1.5-1.3
			c0.1-1.9-2.3-1.6-2.6-1.7s0.3-0.5,0-1.5s-2.5-1.3-3.3-1.3c-0.9,0-1.2,0-0.8,0.6c0.3,0.5,0.3,1.5,0.3,2c0,0.1-0.1,0.2-0.2,0.2
			l-1.6,0.1c-0.1,0-0.2-0.1-0.2-0.2c0.1-0.2,0.2-0.8-0.1-1.6c-0.4-1.5-3.3-2.2-4.9-1.1c-0.1,0.1,0,0.2,0.1,0.2
			c1.1,0.1,1.2,1.2,1,3.1c-1.9,0.2-3.3-0.1-3.7-0.2c-0.1,0-0.2,0.1-0.2,0.2c-0.1,1.1,0.6,3.2,3.3,2.9c-0.1,4.9-3.2,7.7-3.2,7.7
			c-0.2,0.5,0.7,1.8,2.3,2c1.6,0.2,2.4-1.7,2.5-2.3c0.1-0.6,0.5-0.8,0.5-0.8c0.7,0.8,1.8,0.6,2.1,0.6c0.1,0,0.1,0,0.2,0.1
			c0.5,1.1,1.7,2.3,4.5,2.4c2.9,0.1,3.9-1.2,4-2.3C127.3,107.2,126.6,106.8,126.2,106.3z M118.6,104.5c-0.2,0.3-1.3,0.8-1.5,0.7
			c-0.2-0.1,0.6-4.3,1-4.6c0.4-0.2,0.5,0.2,0.5,1.1C118.6,102.7,118.8,104.1,118.6,104.5z M121.6,103c-0.1-0.2,0-0.6-0.1-0.8
			c-0.1-0.4-0.4-0.7-0.7-1c-0.1-0.1-0.1-0.1-0.1-0.2c0-0.1,0.1-0.1,0.1-0.2c0.4-0.4,1.1-0.4,1.6-0.2c0.6,0.2,1.1,0.8,0.8,1.4
			c-0.2,0.4-0.7,0.9-1.1,1C121.9,103.3,121.7,103.3,121.6,103z"/>
	</g>
</g>
</svg>
