<?xml version="1.0" encoding="utf-8"?>
<!-- Generator: Adobe Illustrator 19.2.0, SVG Export Plug-In . SVG Version: 6.00 Build 0)  -->
<svg version="1.1" baseProfile="basic" id="Layer_1"
	 xmlns="http://www.w3.org/2000/svg"  x="0px" y="0px" width="640px" height="292px"
	 viewBox="0 0 640 292" xml:space="preserve">
<g>
	<g>
		<path fill="#352E2C" d="M320.3,261.4c0,0,0.3,2.3,0,3.1c-0.3,0.8-9.5,1.2-14.4-1.5c-4.9-2.7-6.2-7.2-6-13.2c0.2-6,1-16.1,1.7-16.1
			c0.7,0,1.6,0.2,3.1,0.2l2.2,11l2.8,12.3L320.3,261.4z"/>
		<path fill="#494240" d="M314.8,242.6c-0.2,5.2-0.7,10.4,0.3,12.5c1,2.1,5.1,4.9,5.1,6.3c0,0-8.3,0.9-12.5-0.9
			c-4.2-1.8-5.3-7.5-4.8-13.2c0.4-5.7,1.4-12.9,1.7-13.5l2.7-0.2l4.8,0.7L314.8,242.6z"/>
		<path fill="#352E2C" d="M315.2,255.1c-0.1-0.3-0.2-0.6-0.3-1c-0.8,0.3-1.3,0.5-2.3,0.4c-1.3-0.1-3.2-0.3-3.5,0.2
			c-0.3,0.4,2,1.1,3.2,1.1c0.9,0,0.6,0.4-0.2,0.7c-0.8,0.3-0.1,1.6,1.6,0.6c0.9-0.5,1.6-0.9,2.1-1.2
			C315.5,255.7,315.3,255.4,315.2,255.1z"/>
		<g>
			<g>
				<path fill="#877D7C" d="M314.6,246.3c-3.6,0-5.8-1.8-6-1.8c-0.5-0.4-0.6-1.1-0.2-1.6c0.4-0.5,1.1-0.6,1.6-0.2
					c0.1,0.1,2.2,1.7,5.5,1.3c0.6-0.1,1.2,0.4,1.2,1c0.1,0.6-0.4,1.2-1,1.2C315.4,246.2,315,246.3,314.6,246.3z"/>
			</g>
			<g>
				<path fill="#877D7C" d="M313.8,249.8c-2.2,0-4-0.7-4.1-0.7c-0.6-0.2-0.9-0.9-0.6-1.5c0.2-0.6,0.9-0.9,1.5-0.6
					c0.1,0,2.4,0.9,4.7,0.5c0.6-0.1,1.2,0.3,1.3,0.9c0.1,0.6-0.3,1.2-0.9,1.3C315,249.8,314.4,249.8,313.8,249.8z"/>
			</g>
			<g>
				<path fill="#877D7C" d="M314.4,253.2c-1.5,0-2.9-0.4-3.1-0.5c-0.6-0.2-0.9-0.8-0.8-1.4c0.2-0.6,0.8-0.9,1.4-0.8
					c0.6,0.2,2.2,0.5,3.3,0.3c0.6-0.1,1.2,0.3,1.3,0.9c0.1,0.6-0.3,1.2-0.9,1.3C315.2,253.1,314.8,253.2,314.4,253.2z"/>
			</g>
		</g>
	</g>
	<path fill="#CED1D6" d="M202.4,200.2H155v86.3h-31.3v-86.3H0V187L133.3,1.1H155v171h47.4V200.2z M123.7,84.6l4-32.9h-1.2
		l-14.1,27.3l-56.6,76.7l-19.3,19.7l28.1-3.2h59V84.6z"/>
	<path fill="#CED1D6" d="M228.1,146c0-48.2,7.8-84.4,23.5-108.8C267.2,12.8,290,0.7,320,0.7c32.4,0,55.9,12,70.5,35.9
		C405,60.5,412.3,97,412.3,146c0,48.2-7.8,84.5-23.5,108.8c-15.7,24.4-38.6,36.5-68.9,36.5c-31.9,0-55.1-12.7-69.9-38.1
		C235.4,227.8,228.1,192,228.1,146z M261.4,146c0,17.4,1.1,33.3,3.4,47.6c2.3,14.3,5.8,26.6,10.6,36.9c4.8,10.3,10.9,18.3,18.3,24.1
		c7.4,5.8,16.1,8.6,26.3,8.6c20.3,0,35.3-9.4,44.8-28.3c9.5-18.9,14.3-48.5,14.3-88.9c0-17.1-1-32.9-3-47.4
		c-2-14.5-5.4-26.9-10-37.3c-4.7-10.4-10.8-18.5-18.3-24.1c-7.5-5.6-16.7-8.4-27.7-8.4c-20.1,0-34.9,9.5-44.4,28.5
		C266.1,76.3,261.4,105.8,261.4,146z"/>
	<path fill="#CED1D6" d="M640,200.2h-47.4v86.3h-31.3v-86.3H437.6V187L570.9,1.1h21.7v171H640V200.2z M561.3,84.6l4-32.9h-1.2
		l-14.1,27.3l-56.6,76.7l-19.3,19.7l28.1-3.2h59V84.6z"/>
	<path fill="#968D8C" d="M388.3,127.6c-2-0.7-5.3-3.5-8.3-5.5c-9-6.2-10.1-16.7-16.5-24.9c-6.4-8.2-12.5-14.3-36.3-16
		c-22.2-1.6-49.3,2.1-64.3,29.2c-1,10.7-1.5,22.6-1.5,35.5c0,2.4,0,4.7,0.1,7c6.7,10.3,18.1,16.5,26,18.7c14.7,4.1,28.9-4.2,34.5-21
		c5.7-16.8,20.2-30.5,24-30.5c12.7-0.2,26.5,7.9,30.7,11.6c4.3,3.6,5.1,7,5.7,6.9c0.6-0.1,1-2.7,1.5-2.9c0.5-0.2,1.6,1.8,2.6,1.3
		c0.9-0.4-0.1-3.4,0.3-3.6c0.5-0.3,2.2,1.4,2.7,1c0.5-0.4-0.3-2.5,0.5-3.1c0.8-0.6,3.1,0,3-1.3S390.2,128.3,388.3,127.6z"/>
	<path fill="#877D7C" d="M318.1,127c0,0-4.3-7-12.6-5.3c-8.3,1.8-9.7,16.9-9.7,25.7c0,8.8-3.9,8.3-9.4,2.8
		c-12.5-12.5-21.3-25.5-21.4-43.1c-0.7,1.1-1.4,2.3-2.1,3.6c-1,10.7-1.5,22.5-1.5,35.4c0,2.4,0,4.7,0.1,7
		c6.7,10.3,18.1,16.5,26,18.7c14.7,4.1,28.9-4.2,34.5-21c0-0.1,0.1-0.2,0.1-0.4C320.5,138.6,318.1,127,318.1,127z"/>
	<path fill="#494240" d="M365.7,81.5c4.3,2.9,6.1,7.2,5.4,11c-0.7,3.8-3.6,5.9-3.6,5.9s0-4.3-2-6.9c-2-2.6-2.4-4.6-1.7-7.4
		C364.3,81.4,365.7,81.5,365.7,81.5z"/>
	<path fill="#352E2C" d="M365.8,82c4.4-0.7,5.5-0.4,6.7,0.7c1.2,1.2,2,3.7,4.4,3.7c0,0-4.7,6.6-11.7-0.7L365.8,82z"/>
	<path fill="#1E1A19" d="M367.6,78.8c1.4,2.8,1.6,6.2-0.7,8.4c-2.4,2.2-5.4,0.9-5.4,0.9s2.3-5.7,2.4-5.7
		C364,82.2,367.6,78.8,367.6,78.8z"/>
	<path fill="#D4A482" d="M368,129.2l7.5,7c0,0,4-2.6,5-4.1l-11.2-6.9L368,129.2z"/>
	<path fill="#E7B491" d="M287.6,178.5c2.5,2,5.3,3.9,6,7c0.7,3.2-2.3,5.8-3.6,6.4c0,0-1.2,8.8-6.3,9.9c-2.8,0.6-0.2-4.2-0.2-4.2
		s-1,1.6-2.8,1.9c-1.1,0.1-1.9-0.6-1.9-0.6s-2.4,0.3-2.5-2.2c0,0-1.5-0.6-0.9-2.8c0.5-2,2.2-4.2,2.7-6.2c0.7-2.5-0.4-4.8-0.6-6.6
		C277.1,178.5,287.6,178.5,287.6,178.5z"/>
	<g>
		<path fill="#D4A482" d="M291.1,191.2c0.1-3.5-0.6-6-1-5.9c-0.6,0.2,0.2,3.5,0,6.6C290.3,191.8,290.7,191.5,291.1,191.2z"/>
		<path fill="#D4A482" d="M286.4,189.6c-0.1-0.3-0.9,2.6-1.8,4.3c-0.7,1.4-2.1,3.8-3.4,5.5c1.4-0.5,2.2-1.7,2.2-1.7
			c1.4-2,2-3.4,2.3-4.5C286.1,192.1,286.5,189.9,286.4,189.6z"/>
		<path fill="#D4A482" d="M282.5,193.1c0.7-1.4,1.8-5,1.4-5c-0.4-0.1-1.2,2.9-2.2,4.8c-1.6,2.9-3.6,4.6-4.5,5.8
			c0.7,0.3,1.4,0.2,1.4,0.2C280.6,197.3,281.8,194.5,282.5,193.1z"/>
		<path fill="#D4A482" d="M280.1,191.6c0.9-1.9,1.3-4.8,1-4.6c-0.3,0.2-1.2,3.3-1.5,4.2c-0.4,0.9-1.8,3.6-3.5,5.5
			c0,0.2,0,0.4,0.1,0.5C277.9,195.8,279.4,193.3,280.1,191.6z"/>
	</g>
	<path fill="#352E2C" d="M347.6,121.3c-0.4,4.8-3.6,29.2-1,31.6c2.6,2.4,16-14.1,19.5-18.2l7.1,3.6c0,0-10.3,14.5-18.3,21.6
		c-7.9,7.1-15.2,9.2-18.7,0.7c-3.5-8.4-3.7-23.1-3.1-24.3C333.6,135.2,347.6,121.3,347.6,121.3z"/>
	<path fill="#E7B491" d="M378.2,117.6c1.1,0.5,1.4,1.5,1.4,1.5s1.6-1.2,2.8-0.6c1.2,0.7,1.1,1.7,1.1,1.7s1.8,0.2,2.5,1.1
		c0.6,0.9-0.4,2.4-0.4,2.4s0.9,0.6,1.1,1.7c0.2,1.2-1,2.3-2.2,3.4c-1.2,1-2.3,1.5-3.1,0.9c-0.7-0.6-0.6-1.6-0.6-1.6
		s-1.7,0.6-2.5-0.1c-0.5-0.4-0.5-1.7-0.5-1.7s-0.7,0.3-1.4-0.2c-0.7-0.5-0.7-1.3-0.7-1.3s-1.1,0.5-2.3-0.5c-1.2-0.9-0.6-3.4,0.8-5.1
		C375.5,117.6,376.7,117,378.2,117.6z"/>
	<g>
		<path fill="#D4A482" d="M379.6,119.1c0,0-0.1-0.4-0.5-0.8c-0.7,0.5-1.7,1.4-2.6,2.8c-1.1,1.7-1.5,3.2-1.7,3.9
			c0.5,0,0.8-0.1,0.8-0.1C376.1,123.2,378.3,120.2,379.6,119.1z"/>
		<path fill="#D4A482" d="M386,124.1c-0.2-0.2-0.3-0.3-0.4-0.3l-0.1,0c-1.1,1.2-3.3,4-4.8,4.4c0,0,0,0.3,0.1,0.6
			c0.8-0.2,1.9-0.7,3-2C385,125.6,385.6,124.7,386,124.1z"/>
		<path fill="#D4A482" d="M384.3,120.4c-0.5-0.1-0.8-0.2-0.8-0.2c-0.2,0.9-1.4,2.6-2.9,4c-1.5,1.4-2.1,1.9-2.9,2.2c0,0,0,0.3,0,0.6
			c0.8-0.3,2.3-1.1,3.9-2.6C383.5,122.8,384.1,121.3,384.3,120.4z"/>
	</g>
	<path fill="#D4A482" d="M367.5,130.8c-1-2.7-1.8-7.2-1.1-8.5c0.7-1.3,5.5-2.7,7.4-2.4c1.8,0.3,0.4,4.1-3.1,5c0,0,1.4,3.7-0.3,6
		H367.5z"/>
	<path fill="#352E2C" d="M363.5,204.6c-0.7,0.3-1.7,0.3-2.1,1.4c-0.3,1.1,0.5,5,3.8,12.7c3.3,7.6,8.8,15.1,9.9,16.2
		c1.1,1.1,3.4,0.1,5-0.9l-11.3-22.2L363.5,204.6z"/>
	<path fill="#494240" d="M377.6,205.8c0,0,2.1,4.1,2.8,11.1c0.6,6.9,0.7,16.5-0.3,17c-1,0.6-5.5-2.4-10.7-13.7
		c-5.3-11.3-5.9-13.6-5.9-15.6c0,0,0.6-0.2,1.2-0.5c1.6-0.7,4.1-1.8,4.4-1.8C369.4,202.4,377.6,205.8,377.6,205.8z"/>
	<path fill="#685F5E" d="M340.4,165.8c0,0,30.1-16.1,38.8-10.8c8.8,5.2,3.5,36.4-1.7,50.8l-12.9-1.7c0,0,10.1-28.4,4.7-33.1
		c-5.4-4.7-22.3,6.3-22.3,6.3l-8.8,10.2c0,0,14.3,14.2,9.6,27.5c-4.7,13.3-33.1,27.6-33.1,27.6l-7.5-9c0,0,21.3-12.3,24.5-22
		c3.2-9.7-13.8-20.2-13.8-20.2L340.4,165.8z"/>
	<g>
		<path fill="#877D7C" d="M332.8,171.7c0.4,0.1,8.1,3.5,8.1,3.5l-4.1,5.5l-9-4.5L332.8,171.7z"/>
		<path fill="#877D7C" d="M340.4,165.8l-3.2,3.7l0,0c5.8,1.2,9.6-4.5,11.3-7.6C343.7,164.1,340.4,165.8,340.4,165.8z"/>
		<path fill="#877D7C" d="M322,194.2c3.8-4,3.8-8.3,3.2-10.9l-7.1,8.1C318,191.4,319.7,192.5,322,194.2z"/>
	</g>
	<path fill="#494240" d="M342.8,163.1c0,0-3.4,6.7-10,14.4c-6.6,7.7-14.8,15.4-14.8,15.4s-15.9-6.8-18.7-29.3
		c-2.8-22.5,2.8-39.1,6.9-43.1c4.1-4.1,20-4.2,27.1-4.1c7.1,0.1,14.9,2.4,15.1,4.9c0.3,2.4-9.2,12.4-9.9,24.6
		C337.9,158.2,342.8,163.1,342.8,163.1z"/>
	<polygon fill="#E7B491" points="343.6,112.8 347.1,106.8 331.8,100.7 326.4,109.3 326,114 337.7,115.8 	"/>
	<path fill="#E7B491" d="M367,77.9c-3.1,10.5-7,20.9-12.1,26.3c-4.7,5.1-16,5.9-20.9,4.3c-6.3-2.1-12-9.2-12.4-14.6
		c-0.6-7.6,2.6-27.2,7.2-40.2c4.6-13,43.5-8.3,41.7,6.6C368.7,75.1,369,70.9,367,77.9z"/>
	<path fill="#D4A482" d="M362.9,81.4c-1.8,4.5-5.6,10.7-8.2,12c-2.7,1.3-4.4-0.7-6.5-2.1c-1.5-1-4.2-2.1-7.7-1.8
		c-3.6,0.2-10.2,2.7-13,1c-3.5-2.1-4.7-3.6-3.9-12.8c0,0-0.2,0-0.6,0.1c-1.3,7.8-1.6,12.6-1.3,16c0.4,5.4,6.1,12.5,12.4,14.6
		c4.8,1.6,16.1,0.8,20.9-4.3c4.9-5.2,8.7-14.8,11.7-25.1C365.4,78.8,363.8,79,362.9,81.4z M346.1,101.8c-1.9,1.6-4.1,1.1-4.6,0.7
		c-0.5-0.4-0.1-1.8-0.4-2.1c-0.3-0.3-1.1-0.6-1.6-0.2c-0.5,0.4-1.1,1.3-1.8,1.2c-0.7-0.1-2.5-1.8-2.6-4.1c-0.1-2.3,1.3-5.9,6.9-4.7
		c3.2,0.7,5.5,1.2,6.3,2.6C349.1,96.6,348.1,100.3,346.1,101.8z"/>
	<path fill="#B78365" d="M337.8,94c0.6-0.5,1.8,1.6,4,2.1c2.7,0.6,4.7-1,5.1-0.6c0.4,0.4-2.1,3.1-5.2,2.5
		C338.9,97.4,337.4,94.3,337.8,94z"/>
	<path fill="#352E2C" d="M327.7,52.4c1.7-2.9,4.1-8.5,11.7-13.2c7.5-4.7,15.1-4.1,16.3-4.7c1.2-0.6,3.2-1.9,5.3-1.1
		c2.1,0.8,1.8,3.4,2.2,4.3c0.4,0.9,6.3,4.1,7.9,10c1.3,4.7,0.1,10.3,0.1,10.6c0,0.2-28.3-2.4-33.1-2.8
		C333.4,54.9,327.7,52.4,327.7,52.4z"/>
	<path fill="#C69473" d="M341.1,77.3c0.7,0.6-2.6,3.1-2.8,6.7c-0.2,3.4,1.5,4.9,3,4.8c1.6-0.2,4.4-1.9,5.3-1.3
		c0.9,0.6-2.8,4-6.3,3.4c-3.6-0.6-4.9-3.7-4.2-7.2C336.8,80,339.9,76.4,341.1,77.3z"/>
	<g>
		<g>
			<path fill="#877D7C" d="M380.8,212.4c-0.2,0-0.4-0.1-0.6-0.2c-1.6-1.1-5.2-1.5-6.5-1.5c-0.6,0-1.1-0.6-1.1-1.2
				c0-0.6,0.6-1.1,1.2-1.1c0.5,0,5.2,0.3,7.6,1.9c0.5,0.3,0.6,1,0.3,1.6C381.5,212.2,381.2,212.4,380.8,212.4z"/>
		</g>
		<g>
			<path fill="#877D7C" d="M381.2,216.8c-0.3,0-0.5-0.1-0.8-0.3c-1.2-1.1-3.8-1.6-4.7-1.7c-0.6-0.1-1.1-0.6-1-1.2
				c0.1-0.6,0.6-1.1,1.2-1c0.4,0,4,0.4,6,2.3c0.5,0.4,0.5,1.1,0.1,1.6C381.8,216.7,381.5,216.8,381.2,216.8z"/>
		</g>
		<g>
			<path fill="#877D7C" d="M381.5,221.2c-0.3,0-0.7-0.2-0.9-0.5c-0.6-0.9-2.3-1.3-2.9-1.3c-0.6-0.1-1.1-0.6-1-1.2
				c0.1-0.6,0.6-1.1,1.2-1c0.3,0,3.1,0.4,4.4,2.2c0.4,0.5,0.2,1.2-0.3,1.6C382,221.2,381.8,221.2,381.5,221.2z"/>
		</g>
	</g>
	<path fill="#494240" d="M366.8,128.2c0,0,3.5,1.3,6.4,3.7c2.9,2.5,4.1,4,4.1,4l-4.5,6.2l-9.2-6.4
		C363.5,135.7,364.3,132.7,366.8,128.2z"/>
	<path fill="#352E2C" d="M314.2,124.2c0.5,4.9-9.7,8.3-18.9,16.4c-9.1,8.1-9.4,21.8-8.7,29.1l-9.5,3.6c0,0-5.4-26,6.9-40.2
		C296.3,118.8,313.4,116.2,314.2,124.2z"/>
	<path fill="#494240" d="M276.7,181.5c0,0,2.4-0.2,6.3-1.2c3.9-1,6.5-1.6,6.5-1.6s0-1.9-0.6-4.4c-0.5-2.5-1.4-5.8-1.4-5.8
		s-2,0.6-5.8,1.9c-3.8,1.3-6.2,2.7-6.2,2.7S275.8,177.7,276.7,181.5z"/>
	<path fill="#494240" d="M325,61c1.3,0.6,14.1-1.5,23.5-0.6c9.4,0.8,21.2,6.2,22.3,5.9c1-0.3,1.8-7.9,1.8-9.3c0-1.4-10.6-6-22-7.4
		c-11.4-1.3-22,1.4-23,2C326.5,52.2,324,60.5,325,61z"/>
	<path opacity="0.8" fill="#D4A482" d="M351.7,73.8c2.1,0.2,3.3-0.1,3.8,0.8c0.5,0.9-1.5,2.3-3.6,2.1c-2.1-0.2-4.4-1.6-3.9-2.5
		C348.5,73.2,350.4,73.6,351.7,73.8z"/>
	<path opacity="0.8" fill="#D4A482" d="M332.6,72.7c1.4,0.3,2.6,0.3,3.4,1.3c0.8,0.9-1.6,2.5-3.8,2c-2.2-0.5-4.9-2.7-4-3.7
		C329.2,71.2,330.3,72.2,332.6,72.7z"/>
	<path fill="#352E2C" d="M333.6,72.9c0,0.9-0.6,1.6-1.3,1.6c-0.7,0-1.2-0.6-1.2-1.5c0-1.2,0.5-1.8,1.4-1.7
		C333.1,71.4,333.6,72,333.6,72.9z"/>
	<path fill="#352E2C" d="M353.4,74.1c0,0.9-0.7,1.6-1.4,1.6c-0.7,0-1.3-0.7-1.3-1.6c0-0.9,0.6-1.6,1.3-1.6
		C352.7,72.5,353.4,73.1,353.4,74.1z"/>
	<path fill="#352E2C" d="M370.1,70.3c-0.6-2.1-13.5-6-22.4-5.8c-9.5,0.2-23-2.1-24.9,1.6c-1.9,3.6-4.7,15.3-2.3,15.9
		c2.3,0.6,10.1-0.3,15.6-2.3c5.5-2,9.5-0.6,14.5,2c5,2.7,14.5,5.8,15.4,4.4C367,84.8,370.7,72.4,370.1,70.3z M334.8,77.2
		c-4.4-0.4-7.2-7.6-4.7-8.8c0.6-0.3,10.8,2.5,11.3,3.3C341.8,72.6,339.3,77.6,334.8,77.2z M355.5,77.8c-4.7,0.7-7-4.6-6.8-5.5
		c0.3-1.1,10.1-2.8,11.6-1.8C361.9,71.6,360.3,77.2,355.5,77.8z"/>
	<path fill="#352E2C" d="M345.1,110.1c0,0,0.7,1.2-1.9,5c-0.8,1.2-1.8,2.4-1.8,2.4s-5.1,4.1-12.5,3.3c-7.4-0.8-8.3-3.9-8.3-3.9
		s0.2-2.2,2.8-5.8c3-4.3,4.5-4.4,4.5-4.4S334,113.2,345.1,110.1z"/>
	<g>
		<g>
			<path fill="#494240" d="M326.6,117.9c-0.2,0-0.5-0.1-0.7-0.2c-0.5-0.4-0.6-1.1-0.2-1.6c0.8-1,2.4-3.9,2.5-3.9
				c0.3-0.5,1-0.6,1.6-0.3c0.5,0.3,0.6,1,0.3,1.6c-0.1,0.2-1.7,2.9-2.5,4C327.3,117.8,326.9,117.9,326.6,117.9z"/>
		</g>
		<g>
			<path fill="#494240" d="M330.7,118.6c-0.2,0-0.5-0.1-0.7-0.2c-0.5-0.4-0.6-1.1-0.2-1.6c0.8-1,2.4-3.9,2.5-3.9
				c0.3-0.5,1-0.6,1.6-0.3c0.5,0.3,0.6,1,0.3,1.6c-0.1,0.2-1.7,2.9-2.5,4C331.4,118.4,331.1,118.6,330.7,118.6z"/>
		</g>
		<g>
			<path fill="#494240" d="M335.9,118.6c-0.2,0-0.5-0.1-0.7-0.2c-0.5-0.4-0.6-1.1-0.2-1.6c0.7-0.9,2-3.2,2-3.3
				c0.3-0.5,1-0.6,1.6-0.3c0.5,0.3,0.6,1,0.3,1.6c-0.1,0.2-1.3,2.4-2.1,3.4C336.5,118.4,336.2,118.6,335.9,118.6z"/>
		</g>
	</g>
	<g>
		<g>
			<path fill="#494240" d="M367.6,51.4c-0.3,0-0.5-0.2-0.6-0.5c-0.5-7.7-5.4-10.4-5.4-10.5c-0.3-0.2-0.4-0.5-0.2-0.8
				c0.2-0.3,0.5-0.4,0.8-0.2c0.2,0.1,5.4,3.1,6,11.4C368.2,51.1,368,51.3,367.6,51.4C367.6,51.4,367.6,51.4,367.6,51.4z"/>
		</g>
		<g>
			<path fill="#494240" d="M359.2,49.5c0,0-0.1,0-0.1,0c-0.3-0.1-0.5-0.4-0.4-0.7c0.7-3.2-0.7-9.6-0.7-9.6c-0.1-0.3,0.1-0.6,0.4-0.7
				c0.3-0.1,0.6,0.1,0.7,0.4c0.1,0.3,1.5,6.7,0.7,10.1C359.7,49.3,359.4,49.5,359.2,49.5z"/>
		</g>
		<g>
			<path fill="#494240" d="M348.2,47.8c-0.1,0-0.2,0-0.2-0.1c-0.3-0.1-0.4-0.5-0.3-0.8c2.7-5.7,7.4-9.5,7.6-9.7
				c0.2-0.2,0.6-0.2,0.8,0.1c0.2,0.2,0.2,0.6-0.1,0.8c0,0-4.7,3.8-7.3,9.3C348.6,47.7,348.4,47.8,348.2,47.8z"/>
		</g>
		<g>
			<path fill="#494240" d="M338.4,48.2c-0.1,0-0.2,0-0.3-0.1c-0.3-0.2-0.4-0.5-0.2-0.8c4.5-7.8,12.8-10.8,13.2-10.9
				c0.3-0.1,0.6,0.1,0.7,0.3c0.1,0.3-0.1,0.6-0.3,0.7c-0.1,0-8.3,3-12.6,10.4C338.8,48.1,338.6,48.2,338.4,48.2z"/>
		</g>
	</g>
</g>
</svg>
