<svg
        xmlns="http://www.w3.org/2000/svg"
        width="19px" height="12px">
    <path fill-rule="evenodd" fill="rgb(153, 153, 153)"
          d="M18.999,11.334 C18.999,11.807 18.805,11.999 18.327,11.999 C12.443,11.999 6.559,11.999 0.675,11.999 C0.195,11.999 0.000,11.808 0.000,11.338 C-0.000,7.918 -0.000,4.497 -0.000,1.077 C-0.000,0.633 0.203,0.432 0.654,0.432 C0.774,0.432 0.894,0.432 1.040,0.432 C1.040,3.847 1.040,7.234 1.040,10.645 C1.127,10.645 1.201,10.645 1.275,10.645 C3.571,10.645 5.867,10.647 8.163,10.643 C8.430,10.642 8.645,10.705 8.730,10.925 C9.251,10.925 9.744,10.925 10.266,10.925 C10.357,10.702 10.577,10.642 10.851,10.642 C13.115,10.647 15.379,10.645 17.643,10.645 C17.743,10.645 17.843,10.645 17.956,10.645 C17.956,7.237 17.956,3.850 17.956,0.450 C18.176,0.450 18.387,0.423 18.588,0.456 C18.852,0.499 18.998,0.723 18.999,1.017 C19.000,2.321 19.000,3.625 18.999,4.929 C18.999,7.064 18.999,9.199 18.999,11.334 ZM10.882,10.144 C10.397,10.141 10.018,10.282 9.761,10.721 C9.761,9.828 9.761,8.935 9.761,8.042 C9.761,5.668 9.762,3.293 9.762,0.919 C9.762,0.398 10.134,0.018 10.672,0.009 C11.273,-0.001 11.874,0.005 12.475,0.005 C14.049,0.005 15.622,0.005 17.195,0.005 C17.276,0.005 17.357,0.005 17.448,0.005 C17.448,3.396 17.448,6.762 17.448,10.149 C17.216,10.149 16.994,10.149 16.772,10.149 C14.808,10.149 12.845,10.154 10.882,10.144 ZM8.492,10.171 C8.379,10.151 8.263,10.149 8.148,10.149 C6.031,10.148 3.914,10.148 1.797,10.148 C1.721,10.148 1.645,10.148 1.554,10.148 C1.554,6.771 1.554,3.405 1.554,0.006 C1.858,0.006 2.150,0.006 2.443,0.006 C4.375,0.006 6.306,0.008 8.238,0.005 C8.680,0.004 9.000,0.184 9.188,0.579 C9.217,0.638 9.234,0.710 9.234,0.776 C9.237,4.070 9.236,7.364 9.236,10.658 C9.236,10.681 9.233,10.703 9.228,10.776 C9.051,10.444 8.829,10.230 8.492,10.171 Z"/>
</svg>