<?xml version="1.0" encoding="utf-8"?>
<!-- Generator: Adobe Illustrator 21.0.1, SVG Export Plug-In . SVG Version: 6.00 Build 0)  -->
<svg version="1.1" id="Layer_1" xmlns="http://www.w3.org/2000/svg"  x="0px" y="0px"
	 width="16px" height="23px" viewBox="0 0 16 23" style="enable-background:new 0 0 16 23;" xml:space="preserve">
<style type="text/css">
	.st0{fill:#86C040;}
</style>
<g>
	<g>
		<path class="st0" d="M9.9,22.9c-0.6-1.7-1.2-3.5-1.9-5.3C9.6,17.5,11,17,12.3,16c0.7,1.9,1.3,3.7,2,5.6c-0.6-0.1-1.2-0.1-1.7-0.3
			c-0.7-0.2-1.1-0.1-1.5,0.5C10.7,22.2,10.4,22.5,9.9,22.9C10,22.8,10,22.8,9.9,22.9z"/>
		<path class="st0" d="M6.1,22.8c-0.5-0.5-1-1-1.5-1.5c-0.1-0.1-0.2-0.2-0.4-0.1c-0.7,0.1-1.4,0.2-2.1,0.4c-0.1,0-0.2,0-0.3,0
			c0.7-1.9,1.3-3.7,2-5.6c1.3,0.9,2.6,1.5,4.2,1.6C7.3,19.4,6.7,21.1,6.1,22.8z"/>
	</g>
	<g>
		<path class="st0" d="M8,0.1c-4.3,0-7.9,3.5-8,7.9c0,4.4,3.5,7.9,7.9,8c4.5,0,8-3.6,8-7.9C15.9,3.8,12.5,0.2,8,0.1z M11.6,7.4
			c-0.5,0.5-1,1-1.5,1.5C10,9,9.9,9.1,10,9.3c0.1,0.8,0.3,1.5,0.4,2.3c-0.1,0-0.2-0.1-0.2-0.1c-0.6-0.3-1.3-0.6-1.9-1
			c-0.2-0.1-0.3-0.1-0.5,0c-0.7,0.4-1.4,0.7-2.1,1.1c0.1-0.9,0.3-1.6,0.4-2.4c0-0.2,0-0.3-0.1-0.4c-0.5-0.5-1-1-1.5-1.5
			C4.3,7.3,4.3,7.2,4.2,7.1C4.8,7,5.4,6.9,6,6.9c0.6,0,0.9-0.2,1.1-0.8C7.4,5.5,7.7,5,8,4.3c0.3,0.7,0.7,1.3,1,2
			c0.1,0.3,0.3,0.4,0.6,0.5c0.7,0.1,1.4,0.2,2.2,0.3C11.8,7.2,11.7,7.3,11.6,7.4z"/>
	</g>
</g>
</svg>
