<svg xmlns="http://www.w3.org/2000/svg" xmlns:xlink="http://www.w3.org/1999/xlink" width="43" height="28" viewBox="0 0 43 28">
    <defs>
        <path id="a" d="M18.2 27H.1V0h18.1v27z"/>
        <path id="c" d="M20.7 27H.642V0H20.7v27z"/>
        <path id="e" d="M10.835 0h10.493v27H.342V0h10.493z"/>
    </defs>
    <g fill="none" fill-rule="evenodd">
        <path fill="#DE4447" d="M29.8 1h-4.2 4.2c-.1 0 0 0 0 0"/>
        <g transform="translate(0 1)">
            <mask id="b" fill="#fff">
                <use xlink:href="#a"/>
            </mask>
            <path fill="#EC1C24" d="M9.7 24.4l4.9-21.8c.3-1.4 2.1-2.6 3.6-2.6H8.7C7.3 0 5.4 1.2 5.1 2.6L.2 24.4c0 .1 0 .3-.1.4v.4c.1 1 .9 1.8 2 1.8h9.6c-1.5 0-2.3-1.2-2-2.6" mask="url(#b)"/>
        </g>
        <path fill="#2A557C" d="M25.6 1h-7.5z"/>
        <g transform="translate(9 1)">
            <mask id="d" fill="#fff">
                <use xlink:href="#c"/>
            </mask>
            <path fill="#0071BB" d="M12.3 24.4l4.9-21.8c.3-1.4 2.1-2.6 3.5-2.6H9.2C7.8 0 6 1.2 5.6 2.6L.7 24.4c-.3 1.4.6 2.6 2 2.6h11.6c-1.5 0-2.3-1.2-2-2.6" mask="url(#d)"/>
        </g>
        <g transform="translate(21 1)">
            <mask id="f" fill="#fff">
                <use xlink:href="#e"/>
            </mask>
            <path fill="#009DA4" d="M19.2 0H8.8C7.4 0 5.6 1.2 5.3 2.6L.4 24.4c-.3 1.4.6 2.6 2 2.6h10.9c1.4-.1 2.8-1.2 3.1-2.6l4.9-21.8c.2-1.4-.7-2.6-2.1-2.6" mask="url(#f)"/>
        </g>
        <path fill="#FFF" d="M23.3 19.6h1.1v.5h.3c.1 0 .2 0 .2-.1l.1-.3h.9l-.1.4c-.1.4-.4.6-.8.6h-.6v.8c0 .1.1.2.3.2h.5l-.2.6h-1.3c-.4 0-.5-.2-.5-.5l.1-2.2zm1.2-1c.1 0 .2 0 .2-.2l.1-.4h-1.9l-.2.6h1.8zm.7-1.8h-1.9l-.2.8s.3-.2.8-.2H25l.2-.6zm-1.8-.8l-.1.4s.6-.5 1.2-.5h2.1l-.8 2.9c-.1.3-.4.5-.9.5h-2.4l-.6 2c0 .1 0 .2.1.2h.5l-.2.6h-1.2c-.5 0-.6-.1-.6-.4l1.6-5.8 1.3.1zm-5.2 1.9h3.3l-.2.8H20l-.2.7h1.3l-.2.8h-1.3l-.3 1.1c-.1.2 0 .3.3.2h1.1l-.2.7h-2c-.4 0-.5-.2-.4-.7l.4-1.4h-.8l.2-.8h.8l.2-.7h-.8l.1-.7zm.2-1h.2c.2 0 .3-.1.3-.2l.5-.7h1.3l-.3.5h1.5l-.2.7h-1.8c-.2.3-.5.5-.8.4h-.9l.2-.7zM31.7 17.6h3.8l-.2.8h-1.2l-.2.7h1.2l-.2.8h-1.4l-.3.5h.7l.2.9c0 .1.1.1.2.1h.2l-.2.8h-.7c-.4 0-.6-.1-.6-.4l-.2-.9-.6.9c-.1.3-.4.4-.7.4h-1.1l.2-.8h.3c.1 0 .3-.1.4-.2l.9-1.4H31l.2-.8h1.3l.2-.7h-1.3l.3-.7zM32 16h1.2v.4c0 .1.1.2.2.2h.2l-.2.7h-.9c-.3 0-.5-.1-.5-.4V16zm-3 5l.2-.9h-.9l-.2.9h.9zm-.3-2.5l-.3 1.2s.6-.3 1-.3c.1-.5.2-.8.2-.8l-.9-.1zm.5-1.6l-.3 1.1s.5-.2 1-.3c.1-.4.2-.9.2-.9h-.9v.1zm-1.4 0l.2-.9h1.3l-.1.3s.6-.3 1.1-.3h1.6l-.2.9h-.2L30.3 21h.2l-.2.8h-.2l-.1.4h-1.2l.1-.4h-2.4l.2-.8h.2l1.2-4.1h-.3zM10.2 12.1c-.1.7-.5 1.3-1 1.7-.5.4-1.2.6-2 .6s-1.3-.2-1.7-.6c-.3-.3-.4-.6-.4-1.1 0-.2 0-.4.1-.6l.9-4.2h1.3l-.9 4.2v.3c0 .2.1.4.2.5.2.2.4.3.8.3s.7-.1 1-.3c.3-.2.4-.5.5-.8l.9-4.2h1.3l-1 4.2M11.4 10.5h.9l-.1.5.1-.2c.3-.3.7-.5 1.1-.5.4 0 .7.1.9.3.2.2.2.5.1 1l-.5 2.6h-1l.5-2.3v-.5c-.1-.1-.2-.2-.4-.2s-.5.1-.6.2c-.2.2-.3.4-.3.6l-.4 2.2h-1l.7-3.7M22.1 10.5h.9l-.1.5.1-.2c.3-.3.7-.5 1.1-.5.4 0 .7.1.9.3.2.2.2.5.1 1l-.5 2.6h-1l.5-2.3v-.5c-.1-.1-.2-.2-.4-.2s-.5.1-.6.2c-.2.2-.3.4-.3.6l-.4 2.2h-1l.7-3.7M16.1 9.1h1l-.2.9h-1l.2-.9zm-.3 1.4h1l-.8 3.8h-1l.8-3.8zM19.7 13.2c.2-.2.3-.5.4-.9v-.4c0-.2-.1-.4-.2-.5-.1-.1-.3-.2-.5-.2-.3 0-.5.1-.7.3-.2.2-.3.5-.4.9v.4c0 .2.1.4.2.5.1.1.3.2.5.2.3 0 .5-.1.7-.3m-2 .8c-.3-.3-.4-.6-.4-1.1v-.6c.1-.6.4-1.1.8-1.5.4-.4.9-.5 1.5-.5.5 0 .8.1 1.1.4.3.3.4.6.4 1.1v.6c-.1.6-.4 1.1-.8 1.4-.4.4-.9.5-1.5.5-.5 0-.8-.1-1.1-.3M27.4 11h1.2c.3 0 .6-.1.7-.2.2-.1.3-.4.4-.7V9.8c0-.2-.1-.4-.2-.5-.2-.1-.4-.1-.7-.1h-1l-.4 1.8zm-.6-2.9h2.7c.5 0 .9.1 1.2.4.3.2.4.6.4 1v.3c0 .1 0 .2-.1.3-.1.6-.4 1-.8 1.4-.4.4-.9.5-1.5.5h-1.5l-.4 2.2h-1.3l1.3-6.1zM36.7 15c-.4.8-.8 1.3-1 1.6-.2.2-.7.8-1.7.7l.1-.6c.9-.3 1.4-1.5 1.7-2.1l-.3-4.1H36.8l.1 2.5 1.1-2.5h1.1L36.7 15M33 12.7c-.2.6-.6.9-1 .8-.3-.1-.5-.6-.3-1.2s.6-.9 1-.8c.3.1.5.7.3 1.2m.6-1.9l-.4.3c-.5-.4-.9-.6-1.7-.2-1.1.5-2 4.4 1 3.1l.2.2h1.2l.8-3.6-1.1.2"/>
    </g>
</svg>
