<svg xmlns="http://www.w3.org/2000/svg" width="29" height="28" viewBox="0 0 29 28">
    <path fill="#0EBE00" fill-rule="evenodd" d="M10.63 16.645c.97-5.675 6.89-7.33 10.15-7.094-.84-4.02-4.71-7.448-10.39-7.566C4.71 1.867 0 6.004 0 10.733a8.408 8.408 0 0 0 3.87 6.976l-.97 3.074c0 .118.24.236.24.118s3.38-2.01 3.38-2.01a9.847 9.847 0 0 0 4.11.591 7.405 7.405 0 0 1 0-2.837zm3.99-10.05a1.3 1.3 0 1 1-1.33 1.3 1.192 1.192 0 0 1 1.33-1.3zM6.4 9.315a1.3 1.3 0 1 1 1.33-1.3 1.331 1.331 0 0 1-1.33 1.3zM29 17.469c0-4.138-4.11-7.212-8.82-7.212-4.96 0-8.94 3.193-8.94 7.331s3.74 7.566 8.94 7.566a9.363 9.363 0 0 0 3.62-.709s2.54 1.537 2.66 1.537a.257.257 0 0 0 .24-.237c0-.118-.84-2.364-.84-2.364C28.15 21.61 29 19.837 29 17.469zm-12.08-1.537a1.182 1.182 0 1 1 1.2-1.182 1.125 1.125 0 0 1-1.2 1.185v-.003zm6.4 0a1.182 1.182 0 1 1 1.21-1.182 1.2 1.2 0 0 1-1.21 1.185v-.003z"/>
</svg>
