<svg xmlns="http://www.w3.org/2000/svg" xmlns:xlink="http://www.w3.org/1999/xlink" width="53" height="28" viewBox="0 0 53 28">
    <defs>
        <path id="a" d="M1.806.9h-1v1.2h1V.9z"/>
    </defs>
    <g fill="none" fill-rule="evenodd">
        <path fill="#E56606" d="M23.605 8.1c0 .1 0 .2.1.3.2.2.4.6.9 1.1.5.5.9.7 1.1.9.1.1.2.1.3.1 0 0 .1 0 .3-.1.2-.2.6-.4 1.1-.9.5-.5.7-.8.9-1.1.1-.1.1-.2.1-.3 0-.1 0-.2-.1-.3-.2-.2-.4-.6-.9-1.1-.5-.5-.9-.7-1.1-.9-.2-.1-.3-.1-.3-.1-.1 0-.2 0-.3.1-.2.1-.6.4-1.1.9-.5.5-.7.8-.9 1.1 0 .1-.1.2-.1.3M43.705 11.4c0 .1 0 .1.101.2.099.2.299.5.599.8.3.3.7.6.8.7.101.1.101.1.2.1 0 0 .101 0 .2-.1.1-.1.5-.3.8-.7.3-.3.5-.6.601-.8.099-.1.099-.1.099-.2s0-.1-.099-.2a3.333 3.333 0 0 0-.601-.8c-.3-.3-.7-.6-.8-.7-.099-.1-.2-.1-.2-.1-.099 0-.099 0-.2.1-.1.1-.5.3-.8.7-.3.3-.5.6-.599.8-.101.1-.101.2-.101.2"/>
        <path fill="#E56606" d="M51.306 12.6c-9.601 2-19.3 2.1-27.2 1.7-5.6-.3-10-1.8-13.3-3.3-1.4-.6-2.7-1-3.9-1.3-3.201-.9-6.8.4-6.9 3.4-.2 4.1 5.199 3.9 5.199 3.9-4.2-.3-4.3-2.7-4.3-3.3 0-.5.1-1.2.8-1.9.7-.7 2-1 3-1 4.7 0 7.6 4.3 15.8 5.9 10.6 2.2 25.3.4 26.9.3 1.7-.1 1.8-.8 2.3-1.5.6-.7 2-1.7 2.5-2.4s-.3-.6-.9-.5M6.605 22.3l-1.2-2.8-1.2 2.8h2.4zm.1.4h-2.7l-.5 1.1c-.1.3-.2.5-.2.6 0 .1 0 .2.1.3.1.1.3.1.6.2v.2h-2.2v-.2c.3-.1.5-.1.6-.2.2-.2.4-.5.6-1l2.4-5.7h.2l2.4 5.7c.2.5.4.8.5.9.1.1.4.2.7.2v.2h-2.6v-.2c.3 0 .5-.1.6-.1.1-.1.1-.2.1-.3 0-.1-.1-.4-.2-.7l-.4-1zM11.405 17.8V24c0 .3 0 .5.101.6.1.1.1.2.2.2s.3.1.5.1v.2h-2.3v-.2c.2 0 .4 0 .4-.1.1 0 .1-.1.2-.2 0-.1.1-.3.1-.6v-5.2c0-.1-.1-.2-.1-.2-.1 0-.1-.1-.2-.1s-.2 0-.3.1l-.1-.2 1.4-.6h.1zM13.806 17.8c.1 0 .3 0 .399.1.1.1.1.2.1.4 0 .1 0 .3-.1.4-.1.1-.2.2-.4.2-.1 0-.3-.1-.4-.2-.1-.1-.2-.2-.2-.4 0-.1 0-.3.1-.4.3-.1.4-.1.5-.1zm.5 2.4v3.7c0 .3 0 .5.1.6 0 .1.1.2.2.2.099 0 .2.1.5.1v.2h-2.3v-.2c.2 0 .399 0 .5-.1.1 0 .1-.1.2-.2 0-.1.1-.3.1-.6v-2.8c0-.1-.1-.2-.1-.2-.1 0-.1-.1-.2-.1-.101 0-.2 0-.3.1l-.1-.2 1.4-.6v.1zM16.806 21.6V24c0 .2.2.4.3.5.099.1.4.2.7.2.3 0 .6-.1.8-.4.3-.3.4-.8.4-1.5s-.2-1.3-.5-1.6c-.2-.3-.5-.4-.801-.4-.2 0-.3 0-.5.1.1.2-.1.4-.4.7zm-1.601-.8l1.4-.6h.2v1.1c.2-.4.5-.7.7-.9.2-.2.5-.2.8-.2.5 0 .9.2 1.2.5.4.4.6 1 .6 1.7 0 .8-.2 1.5-.7 2-.4.4-.9.6-1.4.6-.2 0-.5 0-.6-.1-.1-.1-.3-.2-.5-.3V26c0 .3 0 .5.1.6 0 .1.1.2.2.2.1.1.3.1.5.1v.2h-2.4v-.2h.1c.2 0 .3 0 .5-.1.1 0 .1-.1.1-.2s.1-.3.1-.6v-5c0-.1-.1-.1-.1-.2-.1 0-.1-.1-.2-.1s-.2 0-.3.1h-.3zM23.405 24v-1.8c-.5.2-.8.3-1 .4-.3.1-.5.3-.6.5-.1.2-.2.3-.2.5s.1.4.2.6c.1.2.3.2.5.2.3.1.6-.1 1.1-.4m0 .3c-.5.4-.8.6-.899.6-.2.1-.4.1-.6.1-.3 0-.6-.1-.8-.3-.2-.2-.3-.5-.3-.9 0-.2.1-.4.2-.6.1-.2.4-.4.7-.6.3-.2.9-.4 1.7-.7v-.2c0-.5-.1-.8-.2-1-.1-.2-.4-.3-.6-.3-.2 0-.4.1-.5.2-.1.1-.2.2-.2.4v.3c0 .2 0 .3-.1.4-.1.1-.2.1-.3.1-.1 0-.2 0-.3-.1-.1-.1-.1-.2-.1-.4 0-.3.1-.6.4-.8.3-.2.7-.4 1.3-.4.4 0 .7.1 1 .2.2.1.3.3.4.5.1.1.1.4.1.9V24.1c0 .1 0 .2.1.2l.1.1h.1c.1 0 .2-.2.4-.4v.3c-.4.5-.7.8-1.1.8-.2 0-.3-.1-.4-.2-.1-.1-.1-.3-.1-.6M25.105 20.3h2.2v.2h-.1c-.2 0-.3 0-.3.1-.1.1-.1.1-.1.2s.1.3.2.5l1.1 2.3 1-2.6c.1-.1.1-.3.1-.4v-.1l-.1-.1h-.3v-.2h1.5v.2c-.1 0-.2 0-.3.1-.1 0-.1.1-.2.2l-.2.4-1.9 4.6c-.2.4-.4.8-.7 1-.3.2-.6.3-.9.3-.2 0-.4-.1-.5-.2-.1-.1-.2-.2-.2-.4 0-.1 0-.3.1-.3.1-.1.2-.1.4-.1.1 0 .3 0 .5.1.1.1.2.1.3.1.1 0 .2-.1.3-.2.1-.1.2-.3.4-.6l.3-.8-1.7-3.5c-.1-.1-.1-.2-.2-.4l-.2-.2c-.1-.1-.2-.1-.4-.1v-.1h-.1zM30.806 24c.2 0 .3.1.399.2.1.1.2.2.2.4s-.1.3-.2.4c-.1.1-.2.2-.4.2s-.3-.1-.4-.2c-.1-.1-.2-.2-.2-.4s.1-.3.2-.4c.1-.2.3-.2.4-.2M36.405 23.2a2.634 2.634 0 0 1-.7 1.4c-.4.3-.8.5-1.199.5-.5 0-1-.2-1.4-.7-.4-.4-.6-1-.6-1.8 0-.7.2-1.3.7-1.8.4-.5 1-.7 1.6-.7.5 0 .8.1 1.1.4.3.2.4.5.4.8 0 .1 0 .2-.1.3-.1.1-.2.1-.3.1-.2 0-.3-.1-.5-.2-.1-.1-.1-.2-.1-.4s-.1-.4-.2-.5a.767.767 0 0 0-.5-.2c-.3 0-.6.1-.8.4-.3.3-.4.8-.4 1.3 0 .6.1 1 .4 1.5.3.4.6.6 1.1.6.3 0 .6-.1.9-.3.2-.2.4-.4.5-.8l.1.1zM39.205 20.5c-.199 0-.399.1-.5.2-.199.1-.3.3-.399.6-.101.3-.201.6-.201 1 0 .7.1 1.3.401 1.7.3.5.599.7 1.099.7.3 0 .6-.1.8-.4.2-.3.3-.7.3-1.4 0-.8-.199-1.5-.5-1.9-.399-.3-.699-.5-1-.5m.101-.3c.7 0 1.299.3 1.7.8.399.5.5 1 .5 1.6 0 .4-.101.8-.301 1.3-.199.4-.5.7-.8 1-.3.2-.7.3-1.2.3-.699 0-1.3-.3-1.699-.8-.301-.5-.5-1-.5-1.6 0-.4.099-.8.3-1.3.2-.4.5-.7.799-.9.5-.3.8-.4 1.201-.4M43.605 21.2l.6-.6c.2-.1.3-.2.5-.3.2-.1.3-.1.5-.1.3 0 .5.1.7.3.2.2.3.4.4.7.3-.4.6-.7.9-.8.2-.1.5-.2.7-.2.2 0 .5.1.7.2.2.1.3.3.5.6.1.2.1.5.1.9v2c0 .3 0 .5.1.6 0 .1.1.1.2.2s.2.1.4.1v.2h-2.3v-.2h.1c.2 0 .4 0 .5-.1.1-.1.1-.1.2-.3v-2.5c0-.4 0-.6-.1-.8-.1-.2-.3-.3-.6-.3-.2 0-.4 0-.5.1-.2.1-.4.3-.7.5v2.5c0 .3 0 .5.1.6 0 .1.1.1.2.2s.3.1.5.1v.2h-2.3v-.2c.3 0 .4 0 .5-.1.1-.1.2-.2.2-.3v-2.5c0-.4-.1-.6-.2-.8-.1-.2-.4-.3-.6-.3-.2 0-.4 0-.5.1-.3.1-.5.3-.6.5v2.5c0 .3 0 .5.1.6 0 .1.1.2.2.2s.3.1.5.1v.2h-2.3v-.2c.2 0 .4 0 .4-.1.1 0 .1-.1.2-.2 0-.1.1-.3.1-.6v-2.8c0-.1-.1-.2-.1-.2s-.1-.1-.2-.1-.2 0-.3.1l-.1-.2 1.4-.6h.2v1.1h-.3z"/>
        <path fill="#004289" d="M12.006 1h-.5c-1.4 0-2 0-2.2.4V3.3h-5.5v.9h5.5v2.2h-4v.9h8.399c-.1 1-.9 2.6-2.1 4.1.7.3 1.5.6 2.3.9 1.7-2.3 2.7-4.7 2.7-5.9h-4.5V4.2h5.7v-.9h-5.7V1h-.1zM23.705 1c-1.399 0-2 0-2.199.4v.1c0 .2-.101 1.3-1.601 2.8-1.3 1.4-2.2 1.9-2.2 1.9s.101.2.2.3l.2.2s.901-.3 1.901-.9v8.1c.899.2 1.8.3 2.8.4V3.8c.7-.8 1.2-1.7 1.2-2.8h-.301zM45.506 3.7c0 .3-.101 1-.2 1.3h-8.7V3.4c.9 0 7.799-.3 8.299-.3.6.1.7.2.6.6m1.3-1.5c-.5 0-2.4.1-4.5.1V1h-.5c-1.4 0-2 0-2.2.4v1c-1.3 0-2.3.1-2.9.1V2h-.4c-1.4 0-2 0-2.2.4V6h5.5v2.5h-3.8v.9h3.8v5c.9-.1 1.8-.1 2.8-.2V9.5h4.1v-.9h-4.1V6.1h4.8v-.5c.2 0 .6-.1.7-.7.1-.7.2-1.1.2-1.4-.2-.3-.2-1.3-1.3-1.3"/>
        <path fill="#004289" d="M31.306 1h-.5c-1.4 0-2 0-2.2.4V4.2h-5.2v.9h5.2v9.5h2.7V5.1h1.5v-.9h-1.5V1zM4.905 15.8c-1.6 0-3.3-.8-3.3-2.8 0-1.4 1.401-2 2.2-2.3-.799.1-1.7.4-2.2 1-.7.7-.8 1.4-.8 1.9 0 .6.1 3.1 4.3 3.3h.1c3 0 5.5-1.4 7.301-3.3-.7-.4-1.4-.8-2.1-1.1-1.7 1.9-3.7 3.3-5.5 3.3"/>
        <g transform="translate(48 .1)">
            <mask id="b" fill="#fff">
                <use xlink:href="#a"/>
            </mask>
            <path fill="#004289" d="M.806 1h.399v1.1h.2V1h.4V.9h-1z" mask="url(#b)"/>
        </g>
        <path fill="#004289" d="M50.905 1l-.3 1-.4-1h-.3v1.2h.2v-1l.401 1h.1l.4-1v1h.2V1z"/>
    </g>
</svg>
