<?xml version="1.0" encoding="utf-8"?>
<!-- Generator: Adobe Illustrator 19.2.0, SVG Export Plug-In . SVG Version: 6.00 Build 0)  -->
<svg version="1.1" id="Layer_1" xmlns="http://www.w3.org/2000/svg"  x="0px" y="0px"
	 viewBox="0 0 117 59" style="enable-background:new 0 0 117 59;" xml:space="preserve">
<style type="text/css">
	.st0{fill:#FFFFFF;}
</style>
<g>
	<g>
		<path class="st0" d="M9.7,54.9h-1v-1.8c-0.6,1.4-1.8,2.1-3.4,2.1c-2.6,0-4.2-1.9-4.2-5c0-3,1.6-5,4.2-5c1.5,0,2.7,0.7,3.3,2v-5.4
			h1.1V54.9z M2.3,50.2c0,2.5,1.2,4,3.2,4c2,0,3.2-1.5,3.2-4c0-2-0.9-4-3.2-4C3.5,46.2,2.3,47.8,2.3,50.2z"/>
		<path class="st0" d="M18.9,54.9h-1.1v-1.7c-0.7,1.3-1.7,2-3.3,2c-2,0-3.2-1.1-3.2-3.4v-6.2h1.1v5.7c0,1.8,0.6,2.9,2.4,2.9
			c1.9,0,2.9-1.6,2.9-3.5v-5.2h1.1V54.9z"/>
		<path class="st0" d="M28.9,50.3c0,3-1.7,4.9-4.4,4.9c-2.7,0-4.5-1.9-4.5-5c0-3,1.7-5,4.5-5C27.2,45.3,28.9,47.2,28.9,50.3z
			 M21.2,50.2c0,2.5,1.3,4,3.3,4c2,0,3.2-1.5,3.2-4c0-2.4-1.3-4-3.3-4C22.5,46.2,21.2,47.8,21.2,50.2z"/>
		<path class="st0" d="M33.6,55.3c-0.8,2.2-1.3,3.2-2.8,3.2c-0.3,0-0.7,0-1-0.1v-1c0.4,0.1,0.6,0.1,0.8,0.1c1.1,0,1.4-1.1,2-2.7
			l-3.8-9.3h1.3l2.5,6.5c0.3,0.9,0.2,0.5,0.6,1.7c0.3-0.9,0.4-1.3,0.6-1.8l2.3-6.3h1.2L33.6,55.3z"/>
		<path class="st0" d="M45.8,54.9h-1.1v-1.7c-0.7,1.3-1.7,2-3.3,2c-2,0-3.2-1.1-3.2-3.4v-6.2h1.1v5.7c0,1.8,0.6,2.9,2.4,2.9
			c1.9,0,2.9-1.6,2.9-3.5v-5.2h1.1V54.9z"/>
		<path class="st0" d="M48.9,54.9h-1.1v-13h1.1V54.9z"/>
		<path class="st0" d="M59.3,50.3c0,3-1.7,4.9-4.4,4.9c-2.7,0-4.5-1.9-4.5-5c0-3,1.7-5,4.5-5C57.6,45.3,59.3,47.2,59.3,50.3z
			 M51.6,50.2c0,2.5,1.3,4,3.3,4c2,0,3.2-1.5,3.2-4c0-2.4-1.3-4-3.3-4C52.9,46.2,51.6,47.8,51.6,50.2z"/>
		<path class="st0" d="M61.8,47.3c0.7-1.3,1.7-2,3.3-2c1.8,0,3.2,0.9,3.2,3.2v6.4h-1.1v-6c0-1.9-1-2.6-2.4-2.6c-1.7,0-3,1.1-3,3.6
			v5.1h-1.1v-9.4h1.1V47.3z"/>
		<path class="st0" d="M78.2,54.4c0,2.9-1.5,4.2-4.2,4.2c-2.3,0-3.7-1-3.8-2.8h1.1c0.2,1.3,1.1,1.9,2.7,1.9c2.3,0,3.1-1.3,3.1-3.4
			v-1.6c-0.6,1.3-1.7,2.1-3.2,2.1c-2.5,0-4.1-1.8-4.1-4.6c0-2.9,1.7-4.9,4.2-4.9c1.5,0,2.6,0.7,3.2,2v-1.8h1V54.4z M71,50.1
			c0,2.3,1.2,3.8,3,3.8c1.9,0,3.1-1.5,3.1-3.9c0-2.2-1.2-3.7-3.1-3.7C72.2,46.3,71,47.7,71,50.1z"/>
		<path class="st0" d="M82,54.9h-1.5V53H82V54.9z"/>
		<path class="st0" d="M88.1,55.2c-2.6,0-4.3-1.9-4.3-4.9c0-3.1,1.7-5,4.4-5c2.2,0,3.6,1.2,3.8,3.2h-1.2c-0.3-1.5-1.2-2.3-2.7-2.3
			c-2,0-3.2,1.6-3.2,4c0,2.4,1.2,4,3.1,4c1.6,0,2.6-1,2.9-2.7h1.1C91.8,53.7,90.4,55.2,88.1,55.2z"/>
		<path class="st0" d="M101.9,50.3c0,3-1.7,4.9-4.4,4.9c-2.7,0-4.5-1.9-4.5-5c0-3,1.7-5,4.5-5C100.1,45.3,101.9,47.2,101.9,50.3z
			 M94.1,50.2c0,2.5,1.3,4,3.3,4c2,0,3.2-1.5,3.2-4c0-2.4-1.3-4-3.3-4C95.4,46.2,94.1,47.8,94.1,50.2z"/>
		<path class="st0" d="M104.4,47.2c0.7-1.2,1.6-1.9,3.1-1.9c1.4,0,2.3,0.7,2.7,1.8c0.6-1.1,1.7-1.8,3.1-1.8c1.6,0,3,0.9,3,2.9v6.7
			h-1.1v-6.4c0-1.5-0.7-2.2-2.2-2.2c-1.7,0-2.6,1.1-2.6,2.9v5.7h-1.1v-6.3c0-1.4-0.5-2.3-2.1-2.3c-1.9,0-2.7,1.5-2.7,3.3v5.3h-1.1
			v-9.4h1.1V47.2z"/>
	</g>
	<g>
		<g>
			<path class="st0" d="M36.6,21.9c-2.4-6.2-12.7-3.7-13.4-3.8c-0.7-0.1-0.7-1-0.5-1.2c0.5-0.6,12.9-3.3,12.6-9.2
				C35,2,24.9,2.9,18.4,3.6c-2.5-3.2-6.6-2.3-8.1-1.6S8.3,0.8,7.7,1.4s0.8,2.8,1,3.6C8.8,5.8,4.9,8.2,2,8.9C1.7,9,1.5,9.5,1.7,9.8
				c2.1,2.8,6.2,2,6.7,2.1c0.5,0.1,2.5,2.3,2.5,2.8s-9,1.2-10,1.2c-1,0.1-1.2,2,2.7,4s9.4-0.7,9.4-0.7s1.1,0,0.9,0.9
				c-0.2,0.9-3.6,2.6-11.7,4.7c-0.5,0.1-0.7,0.8-0.3,1.2c3,3.2,6.9,2.1,8.2,1.6c0.3-0.1,0.6,0,0.7,0.2c0.3,0.4,0.8,1.2,1.9,2.4
				c0.3,0.3,0.2,0.9-0.2,1c-2.7,1.1-8.4,1.4-10.9,1.4c-0.5,0-0.8,0.6-0.4,1c3.6,3.9,6.8,5,17.2,2.3C29.5,33.1,38.9,28,36.6,21.9z
				 M15.5,9c0.4-0.7,7.6-1.4,8.5-0.8c1,0.5,1.1,1.1,0.1,1.7c-1,0.6-5.2,3.5-5.9,3.2C17.6,12.7,15.1,9.7,15.5,9z M26.7,24.5
				c-0.5,0.7-4.6,3.6-5.6,3.7c-1,0.1-1-1.2-1.6-1.9c-0.4-0.5-1.2-1.2-1.2-1.8c0,0,1.1-1.7,5.5-1.7S27.2,23.9,26.7,24.5z"/>
		</g>
		<path class="st0" d="M42.6,20.5c0,0-3.5-0.1-3.3-4.6s1.5-3.5,1.6-3c0.1,0.5,0.6,1.8,1.6,0.9s2.1-1.5,3.8-1.4
			c2.1,0.2,3.7,1.3,3.2,5.5c-0.4,3.4-2.1,6.3-1.8,7.6c0.3,1.3,1.1,2.2,1.8,1.3c0.7-1,0.9-3.1,1.5-3.1c0.3,0-0.1,2.1-0.2,2.2
			c-0.2,0.9-0.5,1.8-0.5,2.7c0,0.9,0.3,1.9,0.4,2.8c0.1,0.7,0.1,1.4,0,2.1c-0.2,1.4-0.7,2.8-2.1,3.4c-0.5,0.2-1,0.3-1.5,0.3
			C42,37.2,41.1,32.4,42.6,20.5z"/>
		<path class="st0" d="M47.3,10.4c0,0-3.8,0.5-3.6-3.3c0.1-2.7,0-4.1-0.4-5c-0.2-0.5,0-1,0.5-1.1c1.1-0.1,2.8,0,4.4,1
			c2.7,1.6,3.1,3.3,2.9,5.2C51.1,8.8,49.5,10.3,47.3,10.4z"/>
		<g>
			<path class="st0" d="M74.7,16.5c0-8.8-8.9-7.4-8.9-7.4C65.1,9,65,7.3,65.3,6.4c0.3-0.9,8.5,0.1,9.2-0.7c0.6-0.8,0.5-2.5-1.3-4
				s-9.4-0.1-11.3,0.4c-1.9,0.5-5,0.6-9,0.1c-0.3,0-0.5,0.2-0.4,0.5C53,6.2,55.1,7,57.9,7c0.4,1.4,0,2.9,0,2.9c0,0.4-4.4,0-4.7,0
				c-0.7-0.1-1.2-0.2-1.2,0.7c0,0.6,0.3,1.2,0.6,1.8c0.4,0.8,1,1.4,1.9,1.7c0.4,0.1,0.9,0.2,1.4,0.1c0,0,0.5,0,1-0.1
				c0.4,0,0.8,0.2,0.7,0.5c-0.2,0.8-0.9,2.2-2.4,2.8c-0.9,0.4-1.8,0.5-2.4-0.1c-0.6-0.6-0.4-1.6-0.5-2.3c0-0.7-0.3-0.5-0.5,0
				c-2.4,6.6,2,7.7,4.8,7.3c2.8-0.5,11.6-0.7,14.2-0.3c2.5,0.4,3.4,0.4,4.7,0C76.7,21.8,79.1,18.6,74.7,16.5z M62.4,16.6
				c-0.5-0.5,0.8-1.2,1.2-2.8c0.3-1,4.2-0.3,4.1,1.3C67.6,16.8,63,17.1,62.4,16.6z"/>
		</g>
		<g>
			<path class="st0" d="M75,30.2c-0.3-4.6-4-6.6-11-6.5c-6.9,0.1-6.1,2.9-7.2,1.5c-0.8-1-2.1-1-2.8-1c-0.3,0-0.4,0.2-0.3,0.5
				c0.2,0.4,0.4,1.2,0.4,2.1c0.1,1.4-2.9,6.9,0.2,9.5c2.9,2.3,4.9,0.1,5.4-0.6c0.1-0.1,0.3-0.2,0.4-0.1c2.9,1,5.5,0.6,6.5,0.3
				c0.2-0.1,0.5,0.1,0.6,0.3c0.2,0.6,0.9,1.6,3.5,1.6C74.6,37.6,75.2,34.4,75,30.2z M65.6,31.4c-1.3-0.2-2.6-0.4-3.3,0
				c0,0-1.1,0.8-2-0.2c-1-1-0.3-2.4,2-3c2.7-0.7,4.4,0.5,4.6,1.6C67.2,31,66.9,31.7,65.6,31.4z"/>
		</g>
		<g>
			<path class="st0" d="M114.1,27.9c-0.9-1.1-0.4-3.4-1.4-3.5c-1-0.1-0.1,3.3-1.4,5.1c-1.2,1.7-5.7,2.9-7.2-0.2
				c-0.1-0.3,0-0.6,0.3-0.8c7.4-4.2,10.4-7.8,10.2-10c-0.2-2.3-4-2.7-4.1-3.6c-0.1-0.9,2-0.1,2.6,0c0.6,0.1,3,1.4,3.3-3
				c0.3-4.4-5.3-3.7-5.9-3.8c-0.6-0.1,0.6-1.2,0-3.4c-0.6-2.2-5.6-3.1-7.6-3.1s-2.7-0.1-1.8,1.4c0.7,1.1,0.7,3.4,0.7,4.5
				c0,0.3-0.2,0.5-0.5,0.6l-3.7,0.2c-0.2,0-0.4-0.2-0.4-0.4C97.4,7.2,97.7,6,97,4C96,0.6,89.5-1,86,1.5c-0.2,0.1-0.1,0.4,0.2,0.4
				c2.5,0.2,2.8,2.8,2.4,7.1C84.1,9.5,81,8.7,80,8.6c-0.2,0-0.4,0.1-0.4,0.4c-0.1,2.6,1.5,7.2,7.6,6.7c-0.3,11.2-7.2,17.5-7.2,17.5
				c-0.5,1.2,1.5,4.1,5.2,4.5c3.6,0.4,5.4-3.8,5.7-5.2c0.3-1.4,1.2-1.8,1.2-1.8c1.6,1.7,4,1.5,4.8,1.3c0.2,0,0.3,0.1,0.4,0.2
				c1.1,2.5,3.9,5.2,10.2,5.4c6.6,0.2,9-2.7,9-5.2C116.6,29.9,114.9,28.9,114.1,27.9z M96.6,23.7c-0.5,0.8-3.1,1.9-3.5,1.6
				c-0.4-0.3,1.4-9.9,2.3-10.4c0.9-0.5,1.2,0.4,1.2,2.6S97.1,22.9,96.6,23.7z M103.4,20.3c-0.2-0.5-0.1-1.3-0.2-1.8
				c-0.2-1-0.8-1.5-1.5-2.2c-0.1-0.1-0.3-0.3-0.3-0.4c0-0.1,0.1-0.3,0.2-0.3c1-0.9,2.6-0.9,3.8-0.4c1.3,0.5,2.5,1.8,1.8,3.3
				c-0.4,1-1.5,2-2.5,2.4C104.3,21,103.7,20.9,103.4,20.3z"/>
		</g>
	</g>
</g>
</svg>
