<?xml version="1.0" encoding="utf-8"?>
<!-- Generator: Adobe Illustrator 21.0.1, SVG Export Plug-In . SVG Version: 6.00 Build 0)  -->
<svg version="1.1" id="Layer_1" xmlns="http://www.w3.org/2000/svg" xmlns:xlink="http://www.w3.org/1999/xlink" x="0px" y="0px"
	 width="100px" height="28px" viewBox="0 0 100 28" style="enable-background:new 0 0 100 28;" xml:space="preserve">
<style type="text/css">
	.st0{fill:#FFFFFF;}
	.st1{fill-rule:evenodd;clip-rule:evenodd;fill:#FFFFFF;}
</style>
<g>
	<polygon class="st0" points="18.4,2.5 29.7,2.5 29,5.4 0.7,5.4 0,2.5 11.8,2.5 	"/>
	<path class="st0" d="M25,10.1c0.3-0.9,0.4-1.9,0.3-2.3c-0.1-0.4-0.6-0.8-1.5-1.1c-1.2-0.4-3.7-0.6-7.2-0.5C13.2,6.4,10.6,6.6,8.2,7
		V6.4l-3.5,0v2.8c0,1.4,0,2.2,0.4,2.6c0.3,0.4,0.7,0.6,1.3,0.6H25l0.6-2.3H25z M8.2,10V8.2l0.5,1.1c1.5-0.3,5.7-1.7,8.9-1.7
		c3.4,0,3.9,0.4,4,0.4c0.1,0-0.3,1.3-0.5,1.7l2.1,0.4L8.2,10z"/>
	<path class="st0" d="M21.7,21.2c0.2-0.9,0.3-1.9,0.2-2.3c-0.1-0.4-0.4-0.8-1-1.1c-0.8-0.4-2.3-0.6-4.6-0.5
		c-2.2,0.1-3.7,0.3-5.3,0.7v-0.6l-2.4,0v2.8c0,1.4,0,2.2,0.2,2.6c0.2,0.4,0.4,0.6,0.8,0.6h12.2l0.4-2.3H21.7z M11,21.1v-1.8l0.2,1.1
		c1-0.3,3.7-1.7,5.8-1.7c2.2,0,2.5,0.4,2.6,0.4c0.1,0-0.2,1.3-0.3,1.7l1.5,0.4L11,21.1z"/>
	<g>
		<path class="st0" d="M36.5,10.1l-2.2-0.9c0.5-1,0.9-2.2,1.3-3.5C36,4.4,36.2,3.2,36.4,2l4,0c-0.1,0.6-0.2,1.1-0.3,1.6h9.5
			l-0.7,3.5h-3.7c0,1.7-0.1,3.5-0.5,5.5v0.1h5.5l-0.7,3.4h-5.5c-0.1,0.6-0.3,1.1-0.4,1.6c-0.6,2.2-1.4,4-2.5,5.3
			c-1,1.3-2.4,2.4-4,3.2l-2.9-1c1.1-1.3,2-2.6,2.8-4.1c0.7-1.5,1.3-3.2,1.8-5h-4.1l-0.6-3.4h5.5c0-0.3,0.1-0.7,0.2-1
			c0.2-1.7,0.3-3.2,0.3-4.6h-1.2C38.3,8.3,37.5,9.3,36.5,10.1z"/>
		<path class="st0" d="M48.5,22.6c-0.5,0.5-1.2,0.7-1.9,0.7c-0.7,0-1.4-0.2-1.9-0.7c-0.5-0.5-0.8-1-0.8-1.7c0-0.6,0.3-1.2,0.8-1.6
			c0.5-0.5,1.1-0.7,1.9-0.7c0.7,0,1.4,0.2,1.9,0.7c0.5,0.5,0.8,1,0.8,1.6C49.3,21.6,49,22.1,48.5,22.6z"/>
		<path class="st0" d="M64.1,15.5c0.2-3.8,0.3-6.4,0.2-8c-0.1-1.1-0.3-2.1-0.7-3c-0.4-0.9-1.1-1.5-2.2-1.8c-2.9-0.8-4.8,0.9-5.4,1.7
			V2h-5.4l0,20.8c0,1.5,0.3,2.5,0.8,2.9c0.5,0.4,1.2,0.7,2,0.7h9.8l1.1-3.5H63C63.5,21.5,63.8,18.9,64.1,15.5z M55.9,22.9l0-16.3
			l0.4,0.9c0.8-1,2.6-4.5,4-4.1c0.8,0.2,0.6,0.9,0.4,4.2c-0.2,3.5-1.9,12.7-2.2,14l3.2,1.3H55.9z"/>
	</g>
	<path class="st1" d="M29.4,18.9c-0.1-1.5-1.1-5.2-8.2-5.8c-5.9-0.6-13.2,2.1-15.6,3v-1.7h-5v11.6h5v-7c4.2-1.9,10.8-3.7,14.8-3.9
		c2.3-0.1,3.4,0.7,3.8,1.5c0.2,0.4,0.3,1.1,0.3,1.5c0,0.3,0,0.8,0.1,1.3h0l0,0.7c0,0,0,0,0,0c0.1,3,0.1-0.8-0.1,1.8
		c-0.3,3.9-4.3,1.4-4.3,1.4L20,25.2c0,0,1.8,1.1,4.8,1.6c5.1,0.8,4.6-3.5,4.7-6.4C29.6,17.4,29.6,22,29.4,18.9z"/>
	<rect x="13" y="0.5" class="st0" width="4.6" height="2.8"/>
	<polygon class="st0" points="92.8,3.4 88.2,4 87.9,1.9 92.5,1.9 	"/>
	<polygon class="st0" points="82.1,13.7 81.5,10.8 99.1,10.8 98.5,13.7 	"/>
	<path class="st0" d="M98.4,3.9L98.4,3.9c-0.8-0.6-2.1-1-4.2-1.2c-3.8-0.3-6.1,1.1-8.1,2.2V3.5h-5v5.7h4.5H86V7.2
		c3.1-2,4.7-3.1,7.4-3.2c0.4,0,0.7,0.1,0.9,0.2c0,0,1.1,0.7,0.5,2.2c-0.6,1.5-1,2.3-1,2.3L98,10C98,10,100.8,5.5,98.4,3.9z"/>
	<path class="st0" d="M77.5,13.3c2-0.4,2.5-1.3,2.6-2.8V5C80,3.3,79,2.5,77.1,2.4h-1.4c-0.9,0-1.5,0.3-1.9,1V2.2h-4.7v25.3h4.7v-3.7
		c0.8,0.8,1.9,1.2,3.2,1.3c2.5,0,3.2-0.8,3.2-2.5v-6.2C80.1,15,79.5,13.9,77.5,13.3z M76,16.4v5.1c0,1.3-0.4,1.9-1.2,1.7
		c-0.4,0-0.7-0.1-1-0.2v-9.5C75.4,14,76.1,15,76,16.4z M73.8,13V4.1c0.3-0.3,0.6-0.4,0.9-0.4c0.1,0,0.1,0,0.2,0
		c0.8,0,1.2,0.5,1.1,1.5v5.3C76.1,11.8,75.4,12.7,73.8,13z"/>
	<polygon class="st0" points="85.8,18.3 89.5,18.3 90.8,18.3 91.7,18.3 97.1,18.3 99.5,18.3 100,15.4 80.7,15.4 81.3,18.3 	"/>
	<g>
		<path class="st0" d="M86.8,18.1l-0.3-0.7l-2,0.2c0,0-0.1,3.3-1,6.1c-1.2,2.7-2.8,3.3-2.8,3.3v0.5c0,0,1.2,0.2,2-0.1l0,0
			c1.8-0.4,3.6-1.7,4.7-3c1-1.1,1.6-3.7,2-6.1h-2.6C86.8,18.2,86.8,18.1,86.8,18.1z"/>
		<path class="st0" d="M99.3,24.4c-0.9,0.8-1.6,1-1.6,1s0,0,0,0c-0.1,0-0.2,0-0.3,0c-0.9,0-1.3-0.6-1.3-2.5v-7.3H91v8.2
			c-0.1,2.6,1.2,3.6,3.8,3.6c0.1,0,0.3,0,0.5,0c2.5,0.1,4.1-0.8,4.7-2.6L99.3,24.4z"/>
	</g>
</g>
</svg>
